<?xml version="1.0" encoding="UTF-8" standalone="no"?>
<!DOCTYPE svg PUBLIC "-//W3C//DTD SVG 1.1//EN"
 "http://www.w3.org/Graphics/SVG/1.1/DTD/svg11.dtd">
<!-- Generated by graphviz version 2.36.0 (20140111.2315)
 -->
<!-- Title: instructions.commands.IsPenDown.execute Pages: 1 -->
<svg width="330pt" height="77pt"
 viewBox="0.00 0.00 330.00 77.00" xmlns="http://www.w3.org/2000/svg" xmlns:xlink="http://www.w3.org/1999/xlink">
<g id="graph0" class="graph" transform="scale(1 1) rotate(0) translate(4 73)">
<title>instructions.commands.IsPenDown.execute</title>
<polygon fill="white" stroke="none" points="-4,4 -4,-73 326,-73 326,4 -4,4"/>
<!-- Node1 -->
<g id="node1" class="node"><title>Node1</title>
<polygon fill="#bfbfbf" stroke="black" points="0,-22 0,-52 140,-52 140,-22 0,-22"/>
<text text-anchor="start" x="8" y="-40" font-family="Helvetica,sans-Serif" font-size="10.00">instructions.commands.Is</text>
<text text-anchor="middle" x="70" y="-29" font-family="Helvetica,sans-Serif" font-size="10.00">PenDown.execute</text>
</g>
<!-- Node2 -->
<g id="node2" class="node"><title>Node2</title>
<g id="a_node2"><a xlink:href="../../d6/d34/classmodel_1_1_turtle.html#a3feaf892f3049394737e61453a1c320d" target="_top" xlink:title="model.Turtle.getPen">
<polygon fill="white" stroke="black" points="193,-49.5 193,-68.5 305,-68.5 305,-49.5 193,-49.5"/>
<text text-anchor="middle" x="249" y="-56.5" font-family="Helvetica,sans-Serif" font-size="10.00">model.Turtle.getPen</text>
</a>
</g>
</g>
<!-- Node1&#45;&gt;Node2 -->
<g id="edge1" class="edge"><title>Node1&#45;&gt;Node2</title>
<path fill="none" stroke="midnightblue" d="M140.193,-45.6003C154.237,-47.3459 168.963,-49.1762 182.861,-50.9036"/>
<polygon fill="midnightblue" stroke="midnightblue" points="182.458,-54.3804 192.813,-52.1406 183.321,-47.4338 182.458,-54.3804"/>
</g>
<!-- Node3 -->
<g id="node3" class="node"><title>Node3</title>
<g id="a_node3"><a xlink:href="../../d8/d36/classmodel_1_1_observable_data.html#aa585e00721a74cba9ab459079945e15b" target="_top" xlink:title="model.ObservableData.get\lTurtle">
<polygon fill="white" stroke="black" points="176,-0 176,-30 322,-30 322,-0 176,-0"/>
<text text-anchor="start" x="184" y="-18" font-family="Helvetica,sans-Serif" font-size="10.00">model.ObservableData.get</text>
<text text-anchor="middle" x="249" y="-7" font-family="Helvetica,sans-Serif" font-size="10.00">Turtle</text>
</a>
</g>
</g>
<!-- Node1&#45;&gt;Node3 -->
<g id="edge2" class="edge"><title>Node1&#45;&gt;Node3</title>
<path fill="none" stroke="midnightblue" d="M140.193,-28.3997C148.626,-27.3516 157.304,-26.2729 165.901,-25.2044"/>
<polygon fill="midnightblue" stroke="midnightblue" points="166.445,-28.6638 175.937,-23.957 165.582,-21.7172 166.445,-28.6638"/>
</g>
</g>
</svg>
