<?xml version="1.0" encoding="UTF-8" standalone="no"?>
<!DOCTYPE svg PUBLIC "-//W3C//DTD SVG 1.1//EN"
 "http://www.w3.org/Graphics/SVG/1.1/DTD/svg11.dtd">
<!-- Generated by graphviz version 2.36.0 (20140111.2315)
 -->
<!-- Title: instructions.commands.NaturalLog Pages: 1 -->
<svg width="192pt" height="252pt"
 viewBox="0.00 0.00 192.00 252.00" xmlns="http://www.w3.org/2000/svg" xmlns:xlink="http://www.w3.org/1999/xlink">
<g id="graph0" class="graph" transform="scale(1 1) rotate(0) translate(4 248)">
<title>instructions.commands.NaturalLog</title>
<polygon fill="white" stroke="none" points="-4,4 -4,-248 188,-248 188,4 -4,4"/>
<!-- Node1 -->
<g id="node1" class="node"><title>Node1</title>
<polygon fill="#bfbfbf" stroke="black" points="-0.5,-0.5 -0.5,-19.5 184.5,-19.5 184.5,-0.5 -0.5,-0.5"/>
<text text-anchor="middle" x="92" y="-7.5" font-family="Helvetica,sans-Serif" font-size="10.00">instructions.commands.NaturalLog</text>
</g>
<!-- Node2 -->
<g id="node2" class="node"><title>Node2</title>
<g id="a_node2"><a xlink:href="../../d0/d4c/classinstructions_1_1_unary_instruction.html" target="_top" xlink:title="instructions.UnaryInstruction">
<polygon fill="white" stroke="black" points="15,-56.5 15,-75.5 169,-75.5 169,-56.5 15,-56.5"/>
<text text-anchor="middle" x="92" y="-63.5" font-family="Helvetica,sans-Serif" font-size="10.00">instructions.UnaryInstruction</text>
</a>
</g>
</g>
<!-- Node2&#45;&gt;Node1 -->
<g id="edge1" class="edge"><title>Node2&#45;&gt;Node1</title>
<path fill="none" stroke="midnightblue" d="M92,-45.8045C92,-36.9102 92,-26.7798 92,-19.7511"/>
<polygon fill="midnightblue" stroke="midnightblue" points="88.5001,-46.083 92,-56.083 95.5001,-46.083 88.5001,-46.083"/>
</g>
<!-- Node3 -->
<g id="node3" class="node"><title>Node3</title>
<g id="a_node3"><a xlink:href="../../d9/d85/classinstructions_1_1_parameter_instruction.html" target="_top" xlink:title="instructions.ParameterInstruction">
<polygon fill="white" stroke="black" points="4,-112.5 4,-131.5 180,-131.5 180,-112.5 4,-112.5"/>
<text text-anchor="middle" x="92" y="-119.5" font-family="Helvetica,sans-Serif" font-size="10.00">instructions.ParameterInstruction</text>
</a>
</g>
</g>
<!-- Node3&#45;&gt;Node2 -->
<g id="edge2" class="edge"><title>Node3&#45;&gt;Node2</title>
<path fill="none" stroke="midnightblue" d="M92,-101.805C92,-92.9102 92,-82.7798 92,-75.7511"/>
<polygon fill="midnightblue" stroke="midnightblue" points="88.5001,-102.083 92,-112.083 95.5001,-102.083 88.5001,-102.083"/>
</g>
<!-- Node4 -->
<g id="node4" class="node"><title>Node4</title>
<g id="a_node4"><a xlink:href="../../d2/d93/interfaceinstructions_1_1_instruction.html" target="_top" xlink:title="instructions.Instruction">
<polygon fill="white" stroke="black" points="29.5,-168.5 29.5,-187.5 154.5,-187.5 154.5,-168.5 29.5,-168.5"/>
<text text-anchor="middle" x="92" y="-175.5" font-family="Helvetica,sans-Serif" font-size="10.00">instructions.Instruction</text>
</a>
</g>
</g>
<!-- Node4&#45;&gt;Node3 -->
<g id="edge3" class="edge"><title>Node4&#45;&gt;Node3</title>
<path fill="none" stroke="midnightblue" d="M92,-157.805C92,-148.91 92,-138.78 92,-131.751"/>
<polygon fill="midnightblue" stroke="midnightblue" points="88.5001,-158.083 92,-168.083 95.5001,-158.083 88.5001,-158.083"/>
</g>
<!-- Node5 -->
<g id="node5" class="node"><title>Node5</title>
<polygon fill="white" stroke="#bfbfbf" points="56.5,-224.5 56.5,-243.5 127.5,-243.5 127.5,-224.5 56.5,-224.5"/>
<text text-anchor="middle" x="92" y="-231.5" font-family="Helvetica,sans-Serif" font-size="10.00">Serializable</text>
</g>
<!-- Node5&#45;&gt;Node4 -->
<g id="edge4" class="edge"><title>Node5&#45;&gt;Node4</title>
<path fill="none" stroke="midnightblue" d="M92,-213.805C92,-204.91 92,-194.78 92,-187.751"/>
<polygon fill="midnightblue" stroke="midnightblue" points="88.5001,-214.083 92,-224.083 95.5001,-214.083 88.5001,-214.083"/>
</g>
</g>
</svg>
