<?xml version="1.0" encoding="UTF-8" standalone="no"?>
<!DOCTYPE svg PUBLIC "-//W3C//DTD SVG 1.1//EN"
 "http://www.w3.org/Graphics/SVG/1.1/DTD/svg11.dtd">
<!-- Generated by graphviz version 2.36.0 (20140111.2315)
 -->
<!-- Title: instructions.ParameterInstruction Pages: 1 -->
<svg width="315pt" height="154pt"
 viewBox="0.00 0.00 315.00 154.00" xmlns="http://www.w3.org/2000/svg" xmlns:xlink="http://www.w3.org/1999/xlink">
<g id="graph0" class="graph" transform="scale(1 1) rotate(0) translate(4 150)">
<title>instructions.ParameterInstruction</title>
<polygon fill="white" stroke="none" points="-4,4 -4,-150 311,-150 311,4 -4,4"/>
<!-- Node1 -->
<g id="node1" class="node"><title>Node1</title>
<polygon fill="#bfbfbf" stroke="black" points="96,-0.5 96,-19.5 272,-19.5 272,-0.5 96,-0.5"/>
<text text-anchor="middle" x="184" y="-7.5" font-family="Helvetica,sans-Serif" font-size="10.00">instructions.ParameterInstruction</text>
</g>
<!-- Node2 -->
<g id="node2" class="node"><title>Node2</title>
<g id="a_node2"><a xlink:href="../../d2/d93/interfaceinstructions_1_1_instruction.html" target="_top" xlink:title="instructions.Instruction">
<polygon fill="white" stroke="black" points="-0.5,-68.5 -0.5,-87.5 124.5,-87.5 124.5,-68.5 -0.5,-68.5"/>
<text text-anchor="middle" x="62" y="-75.5" font-family="Helvetica,sans-Serif" font-size="10.00">instructions.Instruction</text>
</a>
</g>
</g>
<!-- Node2&#45;&gt;Node1 -->
<g id="edge1" class="edge"><title>Node2&#45;&gt;Node1</title>
<path fill="none" stroke="midnightblue" d="M86.9271,-63.5149C111.213,-50.3767 147.404,-30.7981 168.047,-19.6305"/>
<polygon fill="midnightblue" stroke="midnightblue" points="85.0794,-60.535 77.9494,-68.3717 88.4102,-66.6918 85.0794,-60.535"/>
</g>
<!-- Node3 -->
<g id="node3" class="node"><title>Node3</title>
<polygon fill="white" stroke="#bfbfbf" points="26.5,-126.5 26.5,-145.5 97.5,-145.5 97.5,-126.5 26.5,-126.5"/>
<text text-anchor="middle" x="62" y="-133.5" font-family="Helvetica,sans-Serif" font-size="10.00">Serializable</text>
</g>
<!-- Node3&#45;&gt;Node2 -->
<g id="edge2" class="edge"><title>Node3&#45;&gt;Node2</title>
<path fill="none" stroke="midnightblue" d="M62,-115.953C62,-106.287 62,-95.0312 62,-87.5052"/>
<polygon fill="midnightblue" stroke="midnightblue" points="58.5001,-116.25 62,-126.25 65.5001,-116.25 58.5001,-116.25"/>
</g>
<!-- Node4 -->
<g id="node4" class="node"><title>Node4</title>
<polygon fill="white" stroke="#bfbfbf" points="143,-68.5 143,-87.5 307,-87.5 307,-68.5 143,-68.5"/>
<text text-anchor="middle" x="225" y="-75.5" font-family="Helvetica,sans-Serif" font-size="10.00">List&lt; instructions.Instruction &gt;</text>
</g>
<!-- Node4&#45;&gt;Node1 -->
<g id="edge3" class="edge"><title>Node4&#45;&gt;Node1</title>
<path fill="none" stroke="#9a32cd" stroke-dasharray="5,2" d="M214.168,-59.563C206.228,-46.7815 195.778,-29.9599 189.492,-19.8411"/>
<polygon fill="#9a32cd" stroke="#9a32cd" points="211.39,-61.7241 219.64,-68.3717 217.336,-58.0303 211.39,-61.7241"/>
<text text-anchor="middle" x="236.5" y="-41.5" font-family="Helvetica,sans-Serif" font-size="10.00"> myParams</text>
</g>
</g>
</svg>
