<?xml version="1.0" encoding="UTF-8" standalone="no"?>
<!DOCTYPE svg PUBLIC "-//W3C//DTD SVG 1.1//EN"
 "http://www.w3.org/Graphics/SVG/1.1/DTD/svg11.dtd">
<!-- Generated by graphviz version 2.36.0 (20140111.2315)
 -->
<!-- Title: view.KeyControls.KeyControls Pages: 1 -->
<svg width="1424pt" height="421pt"
 viewBox="0.00 0.00 1424.00 421.00" xmlns="http://www.w3.org/2000/svg" xmlns:xlink="http://www.w3.org/1999/xlink">
<g id="graph0" class="graph" transform="scale(1 1) rotate(0) translate(4 417)">
<title>view.KeyControls.KeyControls</title>
<polygon fill="white" stroke="none" points="-4,4 -4,-417 1420,-417 1420,4 -4,4"/>
<!-- Node1 -->
<g id="node1" class="node"><title>Node1</title>
<polygon fill="#bfbfbf" stroke="black" points="0.5,-104.5 0.5,-123.5 155.5,-123.5 155.5,-104.5 0.5,-104.5"/>
<text text-anchor="middle" x="78" y="-111.5" font-family="Helvetica,sans-Serif" font-size="10.00">view.KeyControls.KeyControls</text>
</g>
<!-- Node2 -->
<g id="node2" class="node"><title>Node2</title>
<g id="a_node2"><a xlink:href="../../d4/d90/classview_1_1_key_controls.html#a0c3663cb62e91e8919b0296aad899a8f" target="_top" xlink:title="view.KeyControls.makeKey\lCommands">
<polygon fill="white" stroke="black" points="214,-252 214,-282 356,-282 356,-252 214,-252"/>
<text text-anchor="start" x="222" y="-270" font-family="Helvetica,sans-Serif" font-size="10.00">view.KeyControls.makeKey</text>
<text text-anchor="middle" x="285" y="-259" font-family="Helvetica,sans-Serif" font-size="10.00">Commands</text>
</a>
</g>
</g>
<!-- Node1&#45;&gt;Node2 -->
<g id="edge1" class="edge"><title>Node1&#45;&gt;Node2</title>
<path fill="none" stroke="midnightblue" d="M91.8237,-123.571C124.269,-147.786 210.241,-211.951 255.39,-245.647"/>
<polygon fill="midnightblue" stroke="midnightblue" points="253.478,-248.587 263.585,-251.764 257.665,-242.978 253.478,-248.587"/>
</g>
<!-- Node23 -->
<g id="node23" class="node"><title>Node23</title>
<g id="a_node23"><a xlink:href="../../d4/d90/classview_1_1_key_controls.html#addcc311f3e28d00915fa8af7320b839a" target="_top" xlink:title="view.KeyControls.setCommandsList">
<polygon fill="white" stroke="black" points="192.5,-66.5 192.5,-85.5 377.5,-85.5 377.5,-66.5 192.5,-66.5"/>
<text text-anchor="middle" x="285" y="-73.5" font-family="Helvetica,sans-Serif" font-size="10.00">view.KeyControls.setCommandsList</text>
</a>
</g>
</g>
<!-- Node1&#45;&gt;Node23 -->
<g id="edge28" class="edge"><title>Node1&#45;&gt;Node23</title>
<path fill="none" stroke="midnightblue" d="M130.466,-104.46C158.368,-99.2878 193.045,-92.8599 222.38,-87.4222"/>
<polygon fill="midnightblue" stroke="midnightblue" points="223.319,-90.8079 232.513,-85.5439 222.043,-83.9252 223.319,-90.8079"/>
</g>
<!-- Node24 -->
<g id="node24" class="node"><title>Node24</title>
<g id="a_node24"><a xlink:href="../../d4/d90/classview_1_1_key_controls.html#a5139ba2a7cd205b996395f4f3e7f406c" target="_top" xlink:title="view.KeyControls.setKeyMap">
<polygon fill="white" stroke="black" points="210,-104.5 210,-123.5 360,-123.5 360,-104.5 210,-104.5"/>
<text text-anchor="middle" x="285" y="-111.5" font-family="Helvetica,sans-Serif" font-size="10.00">view.KeyControls.setKeyMap</text>
</a>
</g>
</g>
<!-- Node1&#45;&gt;Node24 -->
<g id="edge29" class="edge"><title>Node1&#45;&gt;Node24</title>
<path fill="none" stroke="midnightblue" d="M155.626,-114C170.041,-114 185.186,-114 199.816,-114"/>
<polygon fill="midnightblue" stroke="midnightblue" points="199.848,-117.5 209.848,-114 199.848,-110.5 199.848,-117.5"/>
</g>
<!-- Node3 -->
<g id="node3" class="node"><title>Node3</title>
<g id="a_node3"><a xlink:href="../../d3/d88/classmodel_1_1_slogo_model.html#a356fe9ced691a6dba1992d41db95d5f7" target="_top" xlink:title="model.SlogoModel.getMyData">
<polygon fill="white" stroke="black" points="432.5,-393.5 432.5,-412.5 593.5,-412.5 593.5,-393.5 432.5,-393.5"/>
<text text-anchor="middle" x="513" y="-400.5" font-family="Helvetica,sans-Serif" font-size="10.00">model.SlogoModel.getMyData</text>
</a>
</g>
</g>
<!-- Node2&#45;&gt;Node3 -->
<g id="edge2" class="edge"><title>Node2&#45;&gt;Node3</title>
<path fill="none" stroke="midnightblue" d="M298.892,-282.251C320.27,-306.531 365.533,-353.799 414,-379 423.186,-383.777 433.355,-387.627 443.563,-390.724"/>
<polygon fill="midnightblue" stroke="midnightblue" points="442.757,-394.133 453.331,-393.468 444.65,-387.394 442.757,-394.133"/>
</g>
<!-- Node4 -->
<g id="node4" class="node"><title>Node4</title>
<g id="a_node4"><a xlink:href="../../d8/d36/classmodel_1_1_observable_data.html#aa526df8e1adab74d19f2d89071560dcb" target="_top" xlink:title="model.ObservableData.get">
<polygon fill="white" stroke="black" points="1268,-190.5 1268,-209.5 1414,-209.5 1414,-190.5 1268,-190.5"/>
<text text-anchor="middle" x="1341" y="-197.5" font-family="Helvetica,sans-Serif" font-size="10.00">model.ObservableData.get</text>
</a>
</g>
</g>
<!-- Node2&#45;&gt;Node4 -->
<g id="edge3" class="edge"><title>Node2&#45;&gt;Node4</title>
<path fill="none" stroke="midnightblue" d="M352.889,-282.063C437.79,-299.836 588.98,-327 720,-327 720,-327 720,-327 930,-327 1064.24,-327 1106.69,-345.057 1230,-292 1269.57,-274.974 1305.9,-238.934 1325.3,-217.362"/>
<polygon fill="midnightblue" stroke="midnightblue" points="1328.13,-219.44 1332.09,-209.614 1322.87,-214.824 1328.13,-219.44"/>
</g>
<!-- Node5 -->
<g id="node5" class="node"><title>Node5</title>
<g id="a_node5"><a xlink:href="../../d6/df7/classmodel_1_1_commands_list.html#ac763ff1a044da7e82be90d77ef8601ac" target="_top" xlink:title="model.CommandsList.contains">
<polygon fill="white" stroke="black" points="430.5,-213.5 430.5,-232.5 595.5,-232.5 595.5,-213.5 430.5,-213.5"/>
<text text-anchor="middle" x="513" y="-220.5" font-family="Helvetica,sans-Serif" font-size="10.00">model.CommandsList.contains</text>
</a>
</g>
</g>
<!-- Node2&#45;&gt;Node5 -->
<g id="edge4" class="edge"><title>Node2&#45;&gt;Node5</title>
<path fill="none" stroke="midnightblue" d="M356.083,-253.294C374.892,-249.62 395.22,-245.655 414,-242 426.551,-239.558 440.007,-236.945 452.804,-234.463"/>
<polygon fill="midnightblue" stroke="midnightblue" points="453.745,-237.846 462.896,-232.506 452.412,-230.974 453.745,-237.846"/>
</g>
<!-- Node6 -->
<g id="node6" class="node"><title>Node6</title>
<g id="a_node6"><a xlink:href="../../d6/df7/classmodel_1_1_commands_list.html#a3a5d7af953dff13e1e5138d6191c69cf" target="_top" xlink:title="model.CommandsList.get">
<polygon fill="white" stroke="black" points="1271,-312.5 1271,-331.5 1411,-331.5 1411,-312.5 1271,-312.5"/>
<text text-anchor="middle" x="1341" y="-319.5" font-family="Helvetica,sans-Serif" font-size="10.00">model.CommandsList.get</text>
</a>
</g>
</g>
<!-- Node2&#45;&gt;Node6 -->
<g id="edge5" class="edge"><title>Node2&#45;&gt;Node6</title>
<path fill="none" stroke="midnightblue" d="M305.522,-282.059C329.556,-299.669 372.328,-328.053 414,-341 544.275,-381.474 583.582,-365 720,-365 720,-365 720,-365 930,-365 1063.76,-365 1097.29,-357.734 1230,-341 1246.48,-338.922 1264.26,-336.105 1280.61,-333.278"/>
<polygon fill="midnightblue" stroke="midnightblue" points="1281.35,-336.703 1290.59,-331.523 1280.13,-329.809 1281.35,-336.703"/>
</g>
<!-- Node7 -->
<g id="node7" class="node"><title>Node7</title>
<g id="a_node7"><a xlink:href="../../d9/d85/classinstructions_1_1_parameter_instruction.html#af693c1c191008b556e8e4effaaddb2d1" target="_top" xlink:title="instructions.ParameterInstruction.add\lParam">
<polygon fill="white" stroke="black" points="414.5,-164 414.5,-194 611.5,-194 611.5,-164 414.5,-164"/>
<text text-anchor="start" x="422.5" y="-182" font-family="Helvetica,sans-Serif" font-size="10.00">instructions.ParameterInstruction.add</text>
<text text-anchor="middle" x="513" y="-171" font-family="Helvetica,sans-Serif" font-size="10.00">Param</text>
</a>
</g>
</g>
<!-- Node2&#45;&gt;Node7 -->
<g id="edge6" class="edge"><title>Node2&#45;&gt;Node7</title>
<path fill="none" stroke="midnightblue" d="M312.742,-251.795C338.15,-237.846 377.752,-217.379 414,-204 420.852,-201.471 428.064,-199.104 435.338,-196.913"/>
<polygon fill="midnightblue" stroke="midnightblue" points="436.638,-200.18 445.269,-194.036 434.69,-193.457 436.638,-200.18"/>
</g>
<!-- Node8 -->
<g id="node8" class="node"><title>Node8</title>
<g id="a_node8"><a xlink:href="../../d3/d88/classmodel_1_1_slogo_model.html#ad096dbf0a253635d346a622540f472bd" target="_top" xlink:title="model.SlogoModel.parseAnd\lExecute">
<polygon fill="white" stroke="black" points="436,-252 436,-282 590,-282 590,-252 436,-252"/>
<text text-anchor="start" x="444" y="-270" font-family="Helvetica,sans-Serif" font-size="10.00">model.SlogoModel.parseAnd</text>
<text text-anchor="middle" x="513" y="-259" font-family="Helvetica,sans-Serif" font-size="10.00">Execute</text>
</a>
</g>
</g>
<!-- Node2&#45;&gt;Node8 -->
<g id="edge7" class="edge"><title>Node2&#45;&gt;Node8</title>
<path fill="none" stroke="midnightblue" d="M356.269,-267C378.279,-267 402.826,-267 425.803,-267"/>
<polygon fill="midnightblue" stroke="midnightblue" points="425.888,-270.5 435.888,-267 425.888,-263.5 425.888,-270.5"/>
</g>
<!-- Node9 -->
<g id="node9" class="node"><title>Node9</title>
<g id="a_node9"><a xlink:href="../../d3/d88/classmodel_1_1_slogo_model.html#a54085c9bf13d8dcfd7deed3623be36f1" target="_top" xlink:title="model.SlogoModel.execute\lCommands">
<polygon fill="white" stroke="black" points="648,-189 648,-219 794,-219 794,-189 648,-189"/>
<text text-anchor="start" x="656" y="-207" font-family="Helvetica,sans-Serif" font-size="10.00">model.SlogoModel.execute</text>
<text text-anchor="middle" x="721" y="-196" font-family="Helvetica,sans-Serif" font-size="10.00">Commands</text>
</a>
</g>
</g>
<!-- Node8&#45;&gt;Node9 -->
<g id="edge8" class="edge"><title>Node8&#45;&gt;Node9</title>
<path fill="none" stroke="midnightblue" d="M576.441,-251.954C588.301,-248.847 600.573,-245.461 612,-242 631.27,-236.165 652.199,-228.998 670.458,-222.466"/>
<polygon fill="midnightblue" stroke="midnightblue" points="671.799,-225.703 680.019,-219.018 669.424,-219.119 671.799,-225.703"/>
</g>
<!-- Node14 -->
<g id="node14" class="node"><title>Node14</title>
<g id="a_node14"><a xlink:href="../../d6/d95/classparser_1_1_parser.html#aec8f2721f51a8a257b572c73d80d5d98" target="_top" xlink:title="parser.Parser.parse">
<polygon fill="white" stroke="black" points="666.5,-85.5 666.5,-104.5 775.5,-104.5 775.5,-85.5 666.5,-85.5"/>
<text text-anchor="middle" x="721" y="-92.5" font-family="Helvetica,sans-Serif" font-size="10.00">parser.Parser.parse</text>
</a>
</g>
</g>
<!-- Node8&#45;&gt;Node14 -->
<g id="edge14" class="edge"><title>Node8&#45;&gt;Node14</title>
<path fill="none" stroke="midnightblue" d="M590.174,-254.214C597.975,-251.005 605.434,-246.999 612,-242 637.659,-222.465 629.423,-205.361 648,-179 665.242,-154.533 688.173,-128.727 703.477,-112.279"/>
<polygon fill="midnightblue" stroke="midnightblue" points="706.411,-114.268 710.714,-104.587 701.313,-109.471 706.411,-114.268"/>
</g>
<!-- Node22 -->
<g id="node22" class="node"><title>Node22</title>
<g id="a_node22"><a xlink:href="../../d3/d88/classmodel_1_1_slogo_model.html#a396654689e37ebdc837f5623a25d08d3" target="_top" xlink:title="model.SlogoModel.showToHistoryView">
<polygon fill="white" stroke="black" points="830.5,-257.5 830.5,-276.5 1027.5,-276.5 1027.5,-257.5 830.5,-257.5"/>
<text text-anchor="middle" x="929" y="-264.5" font-family="Helvetica,sans-Serif" font-size="10.00">model.SlogoModel.showToHistoryView</text>
</a>
</g>
</g>
<!-- Node8&#45;&gt;Node22 -->
<g id="edge25" class="edge"><title>Node8&#45;&gt;Node22</title>
<path fill="none" stroke="midnightblue" d="M590.416,-267C655.016,-267 748.295,-267 820.438,-267"/>
<polygon fill="midnightblue" stroke="midnightblue" points="820.472,-270.5 830.472,-267 820.472,-263.5 820.472,-270.5"/>
</g>
<!-- Node9&#45;&gt;Node4 -->
<g id="edge10" class="edge"><title>Node9&#45;&gt;Node4</title>
<path fill="none" stroke="midnightblue" d="M758.405,-188.881C842.781,-155.993 1057.66,-84.6466 1230,-133 1265.23,-142.884 1300.36,-167.504 1321.13,-183.985"/>
<polygon fill="midnightblue" stroke="midnightblue" points="1319.14,-186.883 1329.11,-190.484 1323.56,-181.455 1319.14,-186.883"/>
</g>
<!-- Node10 -->
<g id="node10" class="node"><title>Node10</title>
<g id="a_node10"><a xlink:href="../../d2/d93/interfaceinstructions_1_1_instruction.html#ab47846ec32fac6e514e5ab7fe4db0254" target="_top" xlink:title="instructions.Instruction.execute">
<polygon fill="white" stroke="black" points="845.5,-178.5 845.5,-197.5 1012.5,-197.5 1012.5,-178.5 845.5,-178.5"/>
<text text-anchor="middle" x="929" y="-185.5" font-family="Helvetica,sans-Serif" font-size="10.00">instructions.Instruction.execute</text>
</a>
</g>
</g>
<!-- Node9&#45;&gt;Node10 -->
<g id="edge9" class="edge"><title>Node9&#45;&gt;Node10</title>
<path fill="none" stroke="midnightblue" d="M794.049,-198.404C807.4,-197.367 821.516,-196.271 835.378,-195.194"/>
<polygon fill="midnightblue" stroke="midnightblue" points="835.714,-198.678 845.413,-194.415 835.172,-191.7 835.714,-198.678"/>
</g>
<!-- Node11 -->
<g id="node11" class="node"><title>Node11</title>
<g id="a_node11"><a xlink:href="../../d3/d88/classmodel_1_1_slogo_model.html#ad52954c6dbfb83f7aa97a85116c25eb8" target="_top" xlink:title="model.SlogoModel.showOnView">
<polygon fill="white" stroke="black" points="845.5,-216.5 845.5,-235.5 1012.5,-235.5 1012.5,-216.5 845.5,-216.5"/>
<text text-anchor="middle" x="929" y="-223.5" font-family="Helvetica,sans-Serif" font-size="10.00">model.SlogoModel.showOnView</text>
</a>
</g>
</g>
<!-- Node9&#45;&gt;Node11 -->
<g id="edge11" class="edge"><title>Node9&#45;&gt;Node11</title>
<path fill="none" stroke="midnightblue" d="M794.049,-211.695C807.4,-213.12 821.516,-214.628 835.378,-216.108"/>
<polygon fill="midnightblue" stroke="midnightblue" points="835.098,-219.598 845.413,-217.18 835.841,-212.638 835.098,-219.598"/>
</g>
<!-- Node12 -->
<g id="node12" class="node"><title>Node12</title>
<g id="a_node12"><a xlink:href="../../d8/d36/classmodel_1_1_observable_data.html#a575297a6d90ca0223478c397de4a8296" target="_top" xlink:title="model.ObservableData.change\lReturn">
<polygon fill="white" stroke="black" points="1064.5,-192 1064.5,-222 1229.5,-222 1229.5,-192 1064.5,-192"/>
<text text-anchor="start" x="1072.5" y="-210" font-family="Helvetica,sans-Serif" font-size="10.00">model.ObservableData.change</text>
<text text-anchor="middle" x="1147" y="-199" font-family="Helvetica,sans-Serif" font-size="10.00">Return</text>
</a>
</g>
</g>
<!-- Node11&#45;&gt;Node12 -->
<g id="edge12" class="edge"><title>Node11&#45;&gt;Node12</title>
<path fill="none" stroke="midnightblue" d="M1012.58,-218.736C1026.19,-217.539 1040.37,-216.291 1054.19,-215.076"/>
<polygon fill="midnightblue" stroke="midnightblue" points="1054.52,-218.56 1064.17,-214.198 1053.91,-211.587 1054.52,-218.56"/>
</g>
<!-- Node13 -->
<g id="node13" class="node"><title>Node13</title>
<g id="a_node13"><a xlink:href="../../d3/d88/classmodel_1_1_slogo_model.html#a5a328c6f896a5c150e95b49db71dea8f" target="_top" xlink:title="model.SlogoModel.load">
<polygon fill="white" stroke="black" points="1083,-241.5 1083,-260.5 1211,-260.5 1211,-241.5 1083,-241.5"/>
<text text-anchor="middle" x="1147" y="-248.5" font-family="Helvetica,sans-Serif" font-size="10.00">model.SlogoModel.load</text>
</a>
</g>
</g>
<!-- Node11&#45;&gt;Node13 -->
<g id="edge13" class="edge"><title>Node11&#45;&gt;Node13</title>
<path fill="none" stroke="midnightblue" d="M1012.28,-235.523C1032.18,-237.826 1053.31,-240.272 1072.76,-242.523"/>
<polygon fill="midnightblue" stroke="midnightblue" points="1072.43,-246.008 1082.77,-243.681 1073.23,-239.055 1072.43,-246.008"/>
</g>
<!-- Node15 -->
<g id="node15" class="node"><title>Node15</title>
<g id="a_node15"><a xlink:href="../../d6/d95/classparser_1_1_parser.html#a0b953b563fd9171ad113c168900ba0ad" target="_top" xlink:title="parser.Parser.parseTokens">
<polygon fill="white" stroke="black" points="858.5,-28.5 858.5,-47.5 999.5,-47.5 999.5,-28.5 858.5,-28.5"/>
<text text-anchor="middle" x="929" y="-35.5" font-family="Helvetica,sans-Serif" font-size="10.00">parser.Parser.parseTokens</text>
</a>
</g>
</g>
<!-- Node14&#45;&gt;Node15 -->
<g id="edge15" class="edge"><title>Node14&#45;&gt;Node15</title>
<path fill="none" stroke="midnightblue" d="M746.127,-85.3625C767.805,-76.9806 800.649,-64.9625 830,-57 840.013,-54.2835 850.703,-51.7984 861.205,-49.5851"/>
<polygon fill="midnightblue" stroke="midnightblue" points="862.09,-52.9767 871.188,-47.5477 860.69,-46.1181 862.09,-52.9767"/>
</g>
<!-- Node21 -->
<g id="node21" class="node"><title>Node21</title>
<g id="a_node21"><a xlink:href="../../de/d6b/classparser_1_1_tokenizer.html#ab347b4e57c1c6a0e09467b548025c2e8" target="_top" xlink:title="parser.Tokenizer.tokenize">
<polygon fill="white" stroke="black" points="860.5,-66.5 860.5,-85.5 997.5,-85.5 997.5,-66.5 860.5,-66.5"/>
<text text-anchor="middle" x="929" y="-73.5" font-family="Helvetica,sans-Serif" font-size="10.00">parser.Tokenizer.tokenize</text>
</a>
</g>
</g>
<!-- Node14&#45;&gt;Node21 -->
<g id="edge24" class="edge"><title>Node14&#45;&gt;Node21</title>
<path fill="none" stroke="midnightblue" d="M775.586,-90.0576C798.323,-87.9605 825.269,-85.4752 850.134,-83.1818"/>
<polygon fill="midnightblue" stroke="midnightblue" points="850.641,-86.65 860.277,-82.2463 849.998,-79.6796 850.641,-86.65"/>
</g>
<!-- Node16 -->
<g id="node16" class="node"><title>Node16</title>
<g id="a_node16"><a xlink:href="../../d6/d95/classparser_1_1_parser.html#a45262e7dc7f355abdb9df8fa3630c86f" target="_top" xlink:title="parser.Parser.addParams">
<polygon fill="white" stroke="black" points="1079,-16.5 1079,-35.5 1215,-35.5 1215,-16.5 1079,-16.5"/>
<text text-anchor="middle" x="1147" y="-23.5" font-family="Helvetica,sans-Serif" font-size="10.00">parser.Parser.addParams</text>
</a>
</g>
</g>
<!-- Node15&#45;&gt;Node16 -->
<g id="edge16" class="edge"><title>Node15&#45;&gt;Node16</title>
<path fill="none" stroke="midnightblue" d="M999.533,-34.1371C1021.56,-32.9131 1046.05,-31.5527 1068.6,-30.3"/>
<polygon fill="midnightblue" stroke="midnightblue" points="1069.02,-33.7823 1078.81,-29.7329 1068.63,-26.7931 1069.02,-33.7823"/>
</g>
<!-- Node17 -->
<g id="node17" class="node"><title>Node17</title>
<g id="a_node17"><a xlink:href="../../d6/d95/classparser_1_1_parser.html#a4f0036d9216912f383261d0482cbb1b1" target="_top" xlink:title="parser.Parser.findMatching\lBracket">
<polygon fill="white" stroke="black" points="1075.5,-55 1075.5,-85 1218.5,-85 1218.5,-55 1075.5,-55"/>
<text text-anchor="start" x="1083.5" y="-73" font-family="Helvetica,sans-Serif" font-size="10.00">parser.Parser.findMatching</text>
<text text-anchor="middle" x="1147" y="-62" font-family="Helvetica,sans-Serif" font-size="10.00">Bracket</text>
</a>
</g>
</g>
<!-- Node15&#45;&gt;Node17 -->
<g id="edge17" class="edge"><title>Node15&#45;&gt;Node17</title>
<path fill="none" stroke="midnightblue" d="M994.222,-47.5144C1016.53,-50.8191 1041.83,-54.5681 1065.3,-58.0445"/>
<polygon fill="midnightblue" stroke="midnightblue" points="1064.83,-61.5122 1075.23,-59.5156 1065.85,-54.5878 1064.83,-61.5122"/>
</g>
<!-- Node19 -->
<g id="node19" class="node"><title>Node19</title>
<g id="a_node19"><a xlink:href="../../d6/d95/classparser_1_1_parser.html#ac2278cd512ecf95e7dbe39f1e381cef7" target="_top" xlink:title="parser.Parser.isRightBracket">
<polygon fill="white" stroke="black" points="1266,-0.5 1266,-19.5 1416,-19.5 1416,-0.5 1266,-0.5"/>
<text text-anchor="middle" x="1341" y="-7.5" font-family="Helvetica,sans-Serif" font-size="10.00">parser.Parser.isRightBracket</text>
</a>
</g>
</g>
<!-- Node15&#45;&gt;Node19 -->
<g id="edge20" class="edge"><title>Node15&#45;&gt;Node19</title>
<path fill="none" stroke="midnightblue" d="M961.863,-28.4709C988.791,-20.9412 1028.53,-11.0491 1064,-7 1137.3,1.36841 1156.23,-5.99422 1230,-7 1238.31,-7.11325 1246.97,-7.27459 1255.62,-7.4644"/>
<polygon fill="midnightblue" stroke="midnightblue" points="1255.67,-10.9665 1265.75,-7.69914 1255.83,-3.96834 1255.67,-10.9665"/>
</g>
<!-- Node20 -->
<g id="node20" class="node"><title>Node20</title>
<g id="a_node20"><a xlink:href="../../d3/d96/classparser_1_1_instruction_factory.html#a4b06d4f5f8e173824966dd0ec1e00255" target="_top" xlink:title="parser.InstructionFactory.make\lInstruction">
<polygon fill="white" stroke="black" points="1065.5,-143 1065.5,-173 1228.5,-173 1228.5,-143 1065.5,-143"/>
<text text-anchor="start" x="1073.5" y="-161" font-family="Helvetica,sans-Serif" font-size="10.00">parser.InstructionFactory.make</text>
<text text-anchor="middle" x="1147" y="-150" font-family="Helvetica,sans-Serif" font-size="10.00">Instruction</text>
</a>
</g>
</g>
<!-- Node15&#45;&gt;Node20 -->
<g id="edge21" class="edge"><title>Node15&#45;&gt;Node20</title>
<path fill="none" stroke="midnightblue" d="M999.575,-46.012C1009.46,-48.6964 1019.23,-52.2636 1028,-57 1048.19,-67.9051 1046.92,-78.6839 1064,-94 1080.79,-109.054 1100.71,-124.65 1116.71,-136.677"/>
<polygon fill="midnightblue" stroke="midnightblue" points="1115.05,-139.798 1125.16,-142.965 1119.23,-134.185 1115.05,-139.798"/>
</g>
<!-- Node18 -->
<g id="node18" class="node"><title>Node18</title>
<g id="a_node18"><a xlink:href="../../d6/d95/classparser_1_1_parser.html#abe383fbf6f2944c67226ac2432c548b2" target="_top" xlink:title="parser.Parser.isLeftBracket">
<polygon fill="white" stroke="black" points="1269,-60.5 1269,-79.5 1413,-79.5 1413,-60.5 1269,-60.5"/>
<text text-anchor="middle" x="1341" y="-67.5" font-family="Helvetica,sans-Serif" font-size="10.00">parser.Parser.isLeftBracket</text>
</a>
</g>
</g>
<!-- Node17&#45;&gt;Node18 -->
<g id="edge18" class="edge"><title>Node17&#45;&gt;Node18</title>
<path fill="none" stroke="midnightblue" d="M1218.68,-70C1231.71,-70 1245.42,-70 1258.74,-70"/>
<polygon fill="midnightblue" stroke="midnightblue" points="1258.83,-73.5001 1268.83,-70 1258.83,-66.5001 1258.83,-73.5001"/>
</g>
<!-- Node17&#45;&gt;Node19 -->
<g id="edge19" class="edge"><title>Node17&#45;&gt;Node19</title>
<path fill="none" stroke="midnightblue" d="M1197.9,-54.8929C1208.5,-51.6527 1219.63,-48.2314 1230,-45 1253.46,-37.6933 1279.67,-29.3588 1300.62,-22.6562"/>
<polygon fill="midnightblue" stroke="midnightblue" points="1301.69,-25.9883 1310.15,-19.6051 1299.56,-19.3218 1301.69,-25.9883"/>
</g>
<!-- Node20&#45;&gt;Node4 -->
<g id="edge22" class="edge"><title>Node20&#45;&gt;Node4</title>
<path fill="none" stroke="midnightblue" d="M1216.77,-173.044C1239.72,-178.063 1264.92,-183.577 1286.53,-188.303"/>
<polygon fill="midnightblue" stroke="midnightblue" points="1285.98,-191.766 1296.5,-190.484 1287.48,-184.928 1285.98,-191.766"/>
</g>
<!-- Node20&#45;&gt;Node6 -->
<g id="edge23" class="edge"><title>Node20&#45;&gt;Node6</title>
<path fill="none" stroke="midnightblue" d="M1213.7,-173.14C1219.44,-175.661 1224.96,-178.592 1230,-182 1254.69,-198.702 1304.61,-269.701 1327.73,-303.703"/>
<polygon fill="midnightblue" stroke="midnightblue" points="1325,-305.912 1333.5,-312.237 1330.8,-301.992 1325,-305.912"/>
</g>
<!-- Node22&#45;&gt;Node4 -->
<g id="edge26" class="edge"><title>Node22&#45;&gt;Node4</title>
<path fill="none" stroke="midnightblue" d="M982.466,-276.533C1043.35,-285.554 1146.11,-294.429 1230,-270 1265.91,-259.543 1301.29,-233.423 1321.86,-216.215"/>
<polygon fill="midnightblue" stroke="midnightblue" points="1324.18,-218.842 1329.49,-209.675 1319.62,-213.53 1324.18,-218.842"/>
</g>
<!-- Node22&#45;&gt;Node13 -->
<g id="edge27" class="edge"><title>Node22&#45;&gt;Node13</title>
<path fill="none" stroke="midnightblue" d="M1027.57,-259.772C1042.69,-258.653 1058.08,-257.513 1072.54,-256.441"/>
<polygon fill="midnightblue" stroke="midnightblue" points="1073.18,-259.904 1082.89,-255.675 1072.66,-252.923 1073.18,-259.904"/>
</g>
<!-- Node24&#45;&gt;Node14 -->
<g id="edge31" class="edge"><title>Node24&#45;&gt;Node14</title>
<path fill="none" stroke="midnightblue" d="M360.114,-110.755C443.41,-107.109 577.268,-101.249 656.122,-97.7965"/>
<polygon fill="midnightblue" stroke="midnightblue" points="656.564,-101.281 666.401,-97.3465 656.257,-94.2873 656.564,-101.281"/>
</g>
<!-- Node25 -->
<g id="node25" class="node"><title>Node25</title>
<g id="a_node25"><a xlink:href="../../d3/d88/classmodel_1_1_slogo_model.html#af50e119e35cf5944e929381bb4a4bc00" target="_top" xlink:title="model.SlogoModel.getParser">
<polygon fill="white" stroke="black" points="436,-66.5 436,-85.5 590,-85.5 590,-66.5 436,-66.5"/>
<text text-anchor="middle" x="513" y="-73.5" font-family="Helvetica,sans-Serif" font-size="10.00">model.SlogoModel.getParser</text>
</a>
</g>
</g>
<!-- Node24&#45;&gt;Node25 -->
<g id="edge30" class="edge"><title>Node24&#45;&gt;Node25</title>
<path fill="none" stroke="midnightblue" d="M342.738,-104.46C373.902,-99.2201 412.731,-92.6912 445.336,-87.2091"/>
<polygon fill="midnightblue" stroke="midnightblue" points="445.958,-90.6537 455.239,-85.5439 444.797,-83.7506 445.958,-90.6537"/>
</g>
</g>
</svg>
