<?xml version="1.0" encoding="UTF-8" standalone="no"?>
<!DOCTYPE svg PUBLIC "-//W3C//DTD SVG 1.1//EN"
 "http://www.w3.org/Graphics/SVG/1.1/DTD/svg11.dtd">
<!-- Generated by graphviz version 2.36.0 (20140111.2315)
 -->
<!-- Title: view.KeyControls.setKeyMap Pages: 1 -->
<svg width="912pt" height="195pt"
 viewBox="0.00 0.00 912.00 195.00" xmlns="http://www.w3.org/2000/svg" xmlns:xlink="http://www.w3.org/1999/xlink">
<g id="graph0" class="graph" transform="scale(1 1) rotate(0) translate(4 191)">
<title>view.KeyControls.setKeyMap</title>
<polygon fill="white" stroke="none" points="-4,4 -4,-191 908,-191 908,4 -4,4"/>
<!-- Node1 -->
<g id="node1" class="node"><title>Node1</title>
<polygon fill="#bfbfbf" stroke="black" points="0,-101.5 0,-120.5 150,-120.5 150,-101.5 0,-101.5"/>
<text text-anchor="middle" x="75" y="-108.5" font-family="Helvetica,sans-Serif" font-size="10.00">view.KeyControls.setKeyMap</text>
</g>
<!-- Node2 -->
<g id="node2" class="node"><title>Node2</title>
<g id="a_node2"><a xlink:href="../../d3/d88/classmodel_1_1_slogo_model.html#af50e119e35cf5944e929381bb4a4bc00" target="_top" xlink:title="model.SlogoModel.getParser">
<polygon fill="white" stroke="black" points="186,-120.5 186,-139.5 340,-139.5 340,-120.5 186,-120.5"/>
<text text-anchor="middle" x="263" y="-127.5" font-family="Helvetica,sans-Serif" font-size="10.00">model.SlogoModel.getParser</text>
</a>
</g>
</g>
<!-- Node1&#45;&gt;Node2 -->
<g id="edge1" class="edge"><title>Node1&#45;&gt;Node2</title>
<path fill="none" stroke="midnightblue" d="M150.047,-118.564C158.493,-119.427 167.157,-120.312 175.745,-121.189"/>
<polygon fill="midnightblue" stroke="midnightblue" points="175.468,-124.679 185.772,-122.213 176.18,-117.715 175.468,-124.679"/>
</g>
<!-- Node3 -->
<g id="node3" class="node"><title>Node3</title>
<g id="a_node3"><a xlink:href="../../d6/d95/classparser_1_1_parser.html#aec8f2721f51a8a257b572c73d80d5d98" target="_top" xlink:title="parser.Parser.parse">
<polygon fill="white" stroke="black" points="208.5,-82.5 208.5,-101.5 317.5,-101.5 317.5,-82.5 208.5,-82.5"/>
<text text-anchor="middle" x="263" y="-89.5" font-family="Helvetica,sans-Serif" font-size="10.00">parser.Parser.parse</text>
</a>
</g>
</g>
<!-- Node1&#45;&gt;Node3 -->
<g id="edge2" class="edge"><title>Node1&#45;&gt;Node3</title>
<path fill="none" stroke="midnightblue" d="M150.047,-103.436C166.002,-101.806 182.736,-100.097 198.258,-98.5113"/>
<polygon fill="midnightblue" stroke="midnightblue" points="198.671,-101.987 208.264,-97.4892 197.96,-95.0236 198.671,-101.987"/>
</g>
<!-- Node4 -->
<g id="node4" class="node"><title>Node4</title>
<g id="a_node4"><a xlink:href="../../d6/d95/classparser_1_1_parser.html#a0b953b563fd9171ad113c168900ba0ad" target="_top" xlink:title="parser.Parser.parseTokens">
<polygon fill="white" stroke="black" points="376.5,-101.5 376.5,-120.5 517.5,-120.5 517.5,-101.5 376.5,-101.5"/>
<text text-anchor="middle" x="447" y="-108.5" font-family="Helvetica,sans-Serif" font-size="10.00">parser.Parser.parseTokens</text>
</a>
</g>
</g>
<!-- Node3&#45;&gt;Node4 -->
<g id="edge3" class="edge"><title>Node3&#45;&gt;Node4</title>
<path fill="none" stroke="midnightblue" d="M317.622,-97.5979C332.817,-99.1842 349.696,-100.946 366.088,-102.658"/>
<polygon fill="midnightblue" stroke="midnightblue" points="365.902,-106.157 376.211,-103.714 366.629,-99.1949 365.902,-106.157"/>
</g>
<!-- Node12 -->
<g id="node12" class="node"><title>Node12</title>
<g id="a_node12"><a xlink:href="../../de/d6b/classparser_1_1_tokenizer.html#ab347b4e57c1c6a0e09467b548025c2e8" target="_top" xlink:title="parser.Tokenizer.tokenize">
<polygon fill="white" stroke="black" points="378.5,-63.5 378.5,-82.5 515.5,-82.5 515.5,-63.5 378.5,-63.5"/>
<text text-anchor="middle" x="447" y="-70.5" font-family="Helvetica,sans-Serif" font-size="10.00">parser.Tokenizer.tokenize</text>
</a>
</g>
</g>
<!-- Node3&#45;&gt;Node12 -->
<g id="edge12" class="edge"><title>Node3&#45;&gt;Node12</title>
<path fill="none" stroke="midnightblue" d="M317.622,-86.4021C333.487,-84.7459 351.186,-82.8981 368.251,-81.1167"/>
<polygon fill="midnightblue" stroke="midnightblue" points="368.623,-84.5969 378.206,-80.0774 367.896,-77.6348 368.623,-84.5969"/>
</g>
<!-- Node5 -->
<g id="node5" class="node"><title>Node5</title>
<g id="a_node5"><a xlink:href="../../d6/d95/classparser_1_1_parser.html#a45262e7dc7f355abdb9df8fa3630c86f" target="_top" xlink:title="parser.Parser.addParams">
<polygon fill="white" stroke="black" points="568,-167.5 568,-186.5 704,-186.5 704,-167.5 568,-167.5"/>
<text text-anchor="middle" x="636" y="-174.5" font-family="Helvetica,sans-Serif" font-size="10.00">parser.Parser.addParams</text>
</a>
</g>
</g>
<!-- Node4&#45;&gt;Node5 -->
<g id="edge4" class="edge"><title>Node4&#45;&gt;Node5</title>
<path fill="none" stroke="midnightblue" d="M467.538,-120.658C488.518,-130.748 523.02,-146.535 554,-157 562.475,-159.863 571.575,-162.508 580.505,-164.875"/>
<polygon fill="midnightblue" stroke="midnightblue" points="579.918,-168.337 590.473,-167.425 581.653,-161.555 579.918,-168.337"/>
</g>
<!-- Node6 -->
<g id="node6" class="node"><title>Node6</title>
<g id="a_node6"><a xlink:href="../../d6/d95/classparser_1_1_parser.html#a4f0036d9216912f383261d0482cbb1b1" target="_top" xlink:title="parser.Parser.findMatching\lBracket">
<polygon fill="white" stroke="black" points="564.5,-118 564.5,-148 707.5,-148 707.5,-118 564.5,-118"/>
<text text-anchor="start" x="572.5" y="-136" font-family="Helvetica,sans-Serif" font-size="10.00">parser.Parser.findMatching</text>
<text text-anchor="middle" x="636" y="-125" font-family="Helvetica,sans-Serif" font-size="10.00">Bracket</text>
</a>
</g>
</g>
<!-- Node4&#45;&gt;Node6 -->
<g id="edge5" class="edge"><title>Node4&#45;&gt;Node6</title>
<path fill="none" stroke="midnightblue" d="M517.632,-119.192C529.557,-120.595 542.038,-122.063 554.225,-123.497"/>
<polygon fill="midnightblue" stroke="midnightblue" points="554.034,-126.999 564.374,-124.691 554.852,-120.047 554.034,-126.999"/>
</g>
<!-- Node8 -->
<g id="node8" class="node"><title>Node8</title>
<g id="a_node8"><a xlink:href="../../d6/d95/classparser_1_1_parser.html#ac2278cd512ecf95e7dbe39f1e381cef7" target="_top" xlink:title="parser.Parser.isRightBracket">
<polygon fill="white" stroke="black" points="754,-82.5 754,-101.5 904,-101.5 904,-82.5 754,-82.5"/>
<text text-anchor="middle" x="829" y="-89.5" font-family="Helvetica,sans-Serif" font-size="10.00">parser.Parser.isRightBracket</text>
</a>
</g>
</g>
<!-- Node4&#45;&gt;Node8 -->
<g id="edge8" class="edge"><title>Node4&#45;&gt;Node8</title>
<path fill="none" stroke="midnightblue" d="M517.698,-107.515C581.386,-104.331 675.709,-99.6145 743.632,-96.2184"/>
<polygon fill="midnightblue" stroke="midnightblue" points="744.063,-99.7013 753.876,-95.7062 743.714,-92.71 744.063,-99.7013"/>
</g>
<!-- Node9 -->
<g id="node9" class="node"><title>Node9</title>
<g id="a_node9"><a xlink:href="../../d3/d96/classparser_1_1_instruction_factory.html#a4b06d4f5f8e173824966dd0ec1e00255" target="_top" xlink:title="parser.InstructionFactory.make\lInstruction">
<polygon fill="white" stroke="black" points="554.5,-30 554.5,-60 717.5,-60 717.5,-30 554.5,-30"/>
<text text-anchor="start" x="562.5" y="-48" font-family="Helvetica,sans-Serif" font-size="10.00">parser.InstructionFactory.make</text>
<text text-anchor="middle" x="636" y="-37" font-family="Helvetica,sans-Serif" font-size="10.00">Instruction</text>
</a>
</g>
</g>
<!-- Node4&#45;&gt;Node9 -->
<g id="edge9" class="edge"><title>Node4&#45;&gt;Node9</title>
<path fill="none" stroke="midnightblue" d="M487.994,-101.448C497.907,-98.7247 508.429,-95.5273 518,-92 534.603,-85.881 537.688,-81.8569 554,-75 563.228,-71.121 573.15,-67.2252 582.778,-63.5851"/>
<polygon fill="midnightblue" stroke="midnightblue" points="584.127,-66.8175 592.27,-60.0404 581.678,-60.2598 584.127,-66.8175"/>
</g>
<!-- Node7 -->
<g id="node7" class="node"><title>Node7</title>
<g id="a_node7"><a xlink:href="../../d6/d95/classparser_1_1_parser.html#abe383fbf6f2944c67226ac2432c548b2" target="_top" xlink:title="parser.Parser.isLeftBracket">
<polygon fill="white" stroke="black" points="757,-123.5 757,-142.5 901,-142.5 901,-123.5 757,-123.5"/>
<text text-anchor="middle" x="829" y="-130.5" font-family="Helvetica,sans-Serif" font-size="10.00">parser.Parser.isLeftBracket</text>
</a>
</g>
</g>
<!-- Node6&#45;&gt;Node7 -->
<g id="edge6" class="edge"><title>Node6&#45;&gt;Node7</title>
<path fill="none" stroke="midnightblue" d="M707.579,-133C720.24,-133 733.53,-133 746.47,-133"/>
<polygon fill="midnightblue" stroke="midnightblue" points="746.755,-136.5 756.755,-133 746.755,-129.5 746.755,-136.5"/>
</g>
<!-- Node6&#45;&gt;Node8 -->
<g id="edge7" class="edge"><title>Node6&#45;&gt;Node8</title>
<path fill="none" stroke="midnightblue" d="M707.037,-117.966C728.996,-113.252 752.892,-108.123 773.602,-103.677"/>
<polygon fill="midnightblue" stroke="midnightblue" points="774.447,-107.075 783.49,-101.554 772.978,-100.231 774.447,-107.075"/>
</g>
<!-- Node10 -->
<g id="node10" class="node"><title>Node10</title>
<g id="a_node10"><a xlink:href="../../d8/d36/classmodel_1_1_observable_data.html#aa526df8e1adab74d19f2d89071560dcb" target="_top" xlink:title="model.ObservableData.get">
<polygon fill="white" stroke="black" points="756,-38.5 756,-57.5 902,-57.5 902,-38.5 756,-38.5"/>
<text text-anchor="middle" x="829" y="-45.5" font-family="Helvetica,sans-Serif" font-size="10.00">model.ObservableData.get</text>
</a>
</g>
</g>
<!-- Node9&#45;&gt;Node10 -->
<g id="edge10" class="edge"><title>Node9&#45;&gt;Node10</title>
<path fill="none" stroke="midnightblue" d="M717.724,-46.2679C726.897,-46.412 736.256,-46.559 745.452,-46.7034"/>
<polygon fill="midnightblue" stroke="midnightblue" points="745.693,-50.2076 755.746,-46.8651 745.803,-43.2084 745.693,-50.2076"/>
</g>
<!-- Node11 -->
<g id="node11" class="node"><title>Node11</title>
<g id="a_node11"><a xlink:href="../../d6/df7/classmodel_1_1_commands_list.html#a3a5d7af953dff13e1e5138d6191c69cf" target="_top" xlink:title="model.CommandsList.get">
<polygon fill="white" stroke="black" points="759,-0.5 759,-19.5 899,-19.5 899,-0.5 759,-0.5"/>
<text text-anchor="middle" x="829" y="-7.5" font-family="Helvetica,sans-Serif" font-size="10.00">model.CommandsList.get</text>
</a>
</g>
</g>
<!-- Node9&#45;&gt;Node11 -->
<g id="edge11" class="edge"><title>Node9&#45;&gt;Node11</title>
<path fill="none" stroke="midnightblue" d="M717.724,-30.2076C733.927,-27.2385 750.711,-24.1629 766.15,-21.3338"/>
<polygon fill="midnightblue" stroke="midnightblue" points="766.876,-24.7591 776.081,-19.5139 765.614,-17.8737 766.876,-24.7591"/>
</g>
</g>
</svg>
