<?xml version="1.0" encoding="UTF-8" standalone="no"?>
<!DOCTYPE svg PUBLIC "-//W3C//DTD SVG 1.1//EN"
 "http://www.w3.org/Graphics/SVG/1.1/DTD/svg11.dtd">
<!-- Generated by graphviz version 2.36.0 (20140111.2315)
 -->
<!-- Title: view.KeyControls.makeKeyCommands Pages: 1 -->
<!--zoomable 484 -->
<svg id="main" version="1.1" xmlns="http://www.w3.org/2000/svg" xmlns:xlink="http://www.w3.org/1999/xlink" xml:space="preserve" onload="init(evt)">
<style type="text/css"><![CDATA[
.edge:hover path { stroke: red; }
.edge:hover polygon { stroke: red; fill: red; }
]]></style>
<script type="text/javascript"><![CDATA[
var edges = document.getElementsByTagName('g');
if (edges && edges.length) {
  for (var i=0;i<edges.length;i++) {
    if (edges[i].id.substr(0,4)=='edge') {
      edges[i].setAttribute('class','edge');
    }
  }
}
]]></script>
        <defs>
                <circle id="rim" cx="0" cy="0" r="7"/>
                <circle id="rim2" cx="0" cy="0" r="3.5"/>
                <g id="zoomPlus">
                        <use xlink:href="#rim" fill="#404040">
                                <set attributeName="fill" to="#808080" begin="zoomplus.mouseover" end="zoomplus.mouseout"/>
                        </use>
                        <path d="M-4,0h8M0,-4v8" fill="none" stroke="white" stroke-width="1.5" pointer-events="none"/>
                </g>
                <g id="zoomMin">
                        <use xlink:href="#rim" fill="#404040">
                                <set attributeName="fill" to="#808080" begin="zoomminus.mouseover" end="zoomminus.mouseout"/>
                        </use>
                        <path d="M-4,0h8" fill="none" stroke="white" stroke-width="1.5" pointer-events="none"/>
                </g>
                <g id="dirArrow">
                        <path fill="none" stroke="white" stroke-width="1.5" d="M0,-3.0v7 M-2.5,-0.5L0,-3.0L2.5,-0.5"/>
                </g>
               <g id="resetDef">
                       <use xlink:href="#rim2" fill="#404040">
                               <set attributeName="fill" to="#808080" begin="reset.mouseover" end="reset.mouseout"/>
                       </use>
               </g>
        </defs>

<script type="text/javascript">
var viewWidth = 1188;
var viewHeight = 484;
var sectionId = 'dynsection-2';
</script>
<script xlink:href="../../svgpan.js"/>
<svg id="graph" class="graph">
<g id="viewport">
<title>view.KeyControls.makeKeyCommands</title>
<polygon fill="white" stroke="none" points="-4,4 -4,-480 1184,-480 1184,4 -4,4"/>
<!-- Node1 -->
<g id="node1" class="node"><title>Node1</title>
<polygon fill="#bfbfbf" stroke="black" points="0,-344 0,-374 142,-374 142,-344 0,-344"/>
<text text-anchor="start" x="8" y="-362" font-family="Helvetica,sans-Serif" font-size="10.00">view.KeyControls.makeKey</text>
<text text-anchor="middle" x="71" y="-351" font-family="Helvetica,sans-Serif" font-size="10.00">Commands</text>
</g>
<!-- Node2 -->
<g id="node2" class="node"><title>Node2</title>
<g id="a_node2"><a xlink:href="../../d9/d85/classinstructions_1_1_parameter_instruction.html#af693c1c191008b556e8e4effaaddb2d1" target="_top" xlink:title="instructions.ParameterInstruction.add\lParam">
<polygon fill="white" stroke="black" points="178.5,-445 178.5,-475 375.5,-475 375.5,-445 178.5,-445"/>
<text text-anchor="start" x="186.5" y="-463" font-family="Helvetica,sans-Serif" font-size="10.00">instructions.ParameterInstruction.add</text>
<text text-anchor="middle" x="277" y="-452" font-family="Helvetica,sans-Serif" font-size="10.00">Param</text>
</a>
</g>
</g>
<!-- Node1&#45;&gt;Node2 -->
<g id="edge1" class="edge"><title>Node1&#45;&gt;Node2</title>
<path fill="none" stroke="midnightblue" d="M88.7404,-374.073C108.641,-391.227 143.515,-418.938 178,-435 183.251,-437.446 188.777,-439.677 194.418,-441.707"/>
<polygon fill="midnightblue" stroke="midnightblue" points="193.401,-445.058 203.995,-444.938 195.638,-438.425 193.401,-445.058"/>
</g>
<!-- Node3 -->
<g id="node3" class="node"><title>Node3</title>
<g id="a_node3"><a xlink:href="../../d6/df7/classmodel_1_1_commands_list.html#ac763ff1a044da7e82be90d77ef8601ac" target="_top" xlink:title="model.CommandsList.contains">
<polygon fill="white" stroke="black" points="194.5,-406.5 194.5,-425.5 359.5,-425.5 359.5,-406.5 194.5,-406.5"/>
<text text-anchor="middle" x="277" y="-413.5" font-family="Helvetica,sans-Serif" font-size="10.00">model.CommandsList.contains</text>
</a>
</g>
</g>
<!-- Node1&#45;&gt;Node3 -->
<g id="edge2" class="edge"><title>Node1&#45;&gt;Node3</title>
<path fill="none" stroke="midnightblue" d="M118.255,-374.079C136.758,-379.933 158.315,-386.531 178,-392 192.947,-396.153 209.281,-400.304 224.253,-403.959"/>
<polygon fill="midnightblue" stroke="midnightblue" points="223.825,-407.456 234.367,-406.403 225.469,-400.652 223.825,-407.456"/>
</g>
<!-- Node4 -->
<g id="node4" class="node"><title>Node4</title>
<g id="a_node4"><a xlink:href="../../d8/d36/classmodel_1_1_observable_data.html#aa526df8e1adab74d19f2d89071560dcb" target="_top" xlink:title="model.ObservableData.get">
<polygon fill="white" stroke="black" points="1032,-203.5 1032,-222.5 1178,-222.5 1178,-203.5 1032,-203.5"/>
<text text-anchor="middle" x="1105" y="-210.5" font-family="Helvetica,sans-Serif" font-size="10.00">model.ObservableData.get</text>
</a>
</g>
</g>
<!-- Node1&#45;&gt;Node4 -->
<g id="edge3" class="edge"><title>Node1&#45;&gt;Node4</title>
<path fill="none" stroke="midnightblue" d="M142.304,-353.783C224.28,-348.158 363.885,-340 484,-340 484,-340 484,-340 694,-340 828.29,-340 870.589,-356.949 994,-304 1033.21,-287.177 1069.43,-251.83 1088.95,-230.479"/>
<polygon fill="midnightblue" stroke="midnightblue" points="1091.76,-232.584 1095.81,-222.792 1086.54,-227.924 1091.76,-232.584"/>
</g>
<!-- Node5 -->
<g id="node5" class="node"><title>Node5</title>
<g id="a_node5"><a xlink:href="../../d6/df7/classmodel_1_1_commands_list.html#a3a5d7af953dff13e1e5138d6191c69cf" target="_top" xlink:title="model.CommandsList.get">
<polygon fill="white" stroke="black" points="1035,-325.5 1035,-344.5 1175,-344.5 1175,-325.5 1035,-325.5"/>
<text text-anchor="middle" x="1105" y="-332.5" font-family="Helvetica,sans-Serif" font-size="10.00">model.CommandsList.get</text>
</a>
</g>
</g>
<!-- Node1&#45;&gt;Node5 -->
<g id="edge4" class="edge"><title>Node1&#45;&gt;Node5</title>
<path fill="none" stroke="midnightblue" d="M142.304,-364.217C224.28,-369.842 363.885,-378 484,-378 484,-378 484,-378 694,-378 827.759,-378 861.292,-370.734 994,-354 1010.48,-351.922 1028.26,-349.105 1044.61,-346.278"/>
<polygon fill="midnightblue" stroke="midnightblue" points="1045.35,-349.703 1054.59,-344.523 1044.13,-342.809 1045.35,-349.703"/>
</g>
<!-- Node6 -->
<g id="node6" class="node"><title>Node6</title>
<g id="a_node6"><a xlink:href="../../d3/d88/classmodel_1_1_slogo_model.html#a356fe9ced691a6dba1992d41db95d5f7" target="_top" xlink:title="model.SlogoModel.getMyData">
<polygon fill="white" stroke="black" points="196.5,-292.5 196.5,-311.5 357.5,-311.5 357.5,-292.5 196.5,-292.5"/>
<text text-anchor="middle" x="277" y="-299.5" font-family="Helvetica,sans-Serif" font-size="10.00">model.SlogoModel.getMyData</text>
</a>
</g>
</g>
<!-- Node1&#45;&gt;Node6 -->
<g id="edge5" class="edge"><title>Node1&#45;&gt;Node6</title>
<path fill="none" stroke="midnightblue" d="M118.255,-343.921C136.758,-338.067 158.315,-331.469 178,-326 192.947,-321.847 209.281,-317.696 224.253,-314.041"/>
<polygon fill="midnightblue" stroke="midnightblue" points="225.469,-317.348 234.367,-311.597 223.825,-310.544 225.469,-317.348"/>
</g>
<!-- Node7 -->
<g id="node7" class="node"><title>Node7</title>
<g id="a_node7"><a xlink:href="../../d3/d88/classmodel_1_1_slogo_model.html#ad096dbf0a253635d346a622540f472bd" target="_top" xlink:title="model.SlogoModel.parseAnd\lExecute">
<polygon fill="white" stroke="black" points="200,-191 200,-221 354,-221 354,-191 200,-191"/>
<text text-anchor="start" x="208" y="-209" font-family="Helvetica,sans-Serif" font-size="10.00">model.SlogoModel.parseAnd</text>
<text text-anchor="middle" x="277" y="-198" font-family="Helvetica,sans-Serif" font-size="10.00">Execute</text>
</a>
</g>
</g>
<!-- Node1&#45;&gt;Node7 -->
<g id="edge6" class="edge"><title>Node1&#45;&gt;Node7</title>
<path fill="none" stroke="midnightblue" d="M92.3061,-343.77C128.888,-316.334 205.931,-258.552 247.676,-227.243"/>
<polygon fill="midnightblue" stroke="midnightblue" points="249.876,-229.968 255.776,-221.168 245.676,-224.368 249.876,-229.968"/>
</g>
<!-- Node8 -->
<g id="node8" class="node"><title>Node8</title>
<g id="a_node8"><a xlink:href="../../d3/d88/classmodel_1_1_slogo_model.html#a54085c9bf13d8dcfd7deed3623be36f1" target="_top" xlink:title="model.SlogoModel.execute\lCommands">
<polygon fill="white" stroke="black" points="412,-144 412,-174 558,-174 558,-144 412,-144"/>
<text text-anchor="start" x="420" y="-162" font-family="Helvetica,sans-Serif" font-size="10.00">model.SlogoModel.execute</text>
<text text-anchor="middle" x="485" y="-151" font-family="Helvetica,sans-Serif" font-size="10.00">Commands</text>
</a>
</g>
</g>
<!-- Node7&#45;&gt;Node8 -->
<g id="edge7" class="edge"><title>Node7&#45;&gt;Node8</title>
<path fill="none" stroke="midnightblue" d="M343.746,-191C364.279,-186.315 387.096,-181.109 408.258,-176.281"/>
<polygon fill="midnightblue" stroke="midnightblue" points="409.201,-179.656 418.172,-174.019 407.644,-172.831 409.201,-179.656"/>
</g>
<!-- Node13 -->
<g id="node13" class="node"><title>Node13</title>
<g id="a_node13"><a xlink:href="../../d6/d95/classparser_1_1_parser.html#aec8f2721f51a8a257b572c73d80d5d98" target="_top" xlink:title="parser.Parser.parse">
<polygon fill="white" stroke="black" points="430.5,-54.5 430.5,-73.5 539.5,-73.5 539.5,-54.5 430.5,-54.5"/>
<text text-anchor="middle" x="485" y="-61.5" font-family="Helvetica,sans-Serif" font-size="10.00">parser.Parser.parse</text>
</a>
</g>
</g>
<!-- Node7&#45;&gt;Node13 -->
<g id="edge13" class="edge"><title>Node7&#45;&gt;Node13</title>
<path fill="none" stroke="midnightblue" d="M300.046,-190.804C339.526,-163.589 421.873,-106.825 461.605,-79.4375"/>
<polygon fill="midnightblue" stroke="midnightblue" points="463.826,-82.1571 470.073,-73.5999 459.853,-76.3937 463.826,-82.1571"/>
</g>
<!-- Node21 -->
<g id="node21" class="node"><title>Node21</title>
<g id="a_node21"><a xlink:href="../../d3/d88/classmodel_1_1_slogo_model.html#a396654689e37ebdc837f5623a25d08d3" target="_top" xlink:title="model.SlogoModel.showToHistoryView">
<polygon fill="white" stroke="black" points="594.5,-254.5 594.5,-273.5 791.5,-273.5 791.5,-254.5 594.5,-254.5"/>
<text text-anchor="middle" x="693" y="-261.5" font-family="Helvetica,sans-Serif" font-size="10.00">model.SlogoModel.showToHistoryView</text>
</a>
</g>
</g>
<!-- Node7&#45;&gt;Node21 -->
<g id="edge24" class="edge"><title>Node7&#45;&gt;Node21</title>
<path fill="none" stroke="midnightblue" d="M354.416,-216.706C428.165,-227.038 539.291,-242.606 613.676,-253.027"/>
<polygon fill="midnightblue" stroke="midnightblue" points="613.531,-256.541 623.92,-254.462 614.503,-249.609 613.531,-256.541"/>
</g>
<!-- Node8&#45;&gt;Node4 -->
<g id="edge9" class="edge"><title>Node8&#45;&gt;Node4</title>
<path fill="none" stroke="midnightblue" d="M558.32,-143.999C658.36,-126.179 843.65,-103.816 994,-146 1029.23,-155.884 1064.36,-180.504 1085.13,-196.985"/>
<polygon fill="midnightblue" stroke="midnightblue" points="1083.14,-199.883 1093.11,-203.484 1087.56,-194.455 1083.14,-199.883"/>
</g>
<!-- Node9 -->
<g id="node9" class="node"><title>Node9</title>
<g id="a_node9"><a xlink:href="../../d2/d93/interfaceinstructions_1_1_instruction.html#ab47846ec32fac6e514e5ab7fe4db0254" target="_top" xlink:title="instructions.Instruction.execute">
<polygon fill="white" stroke="black" points="609.5,-92.5 609.5,-111.5 776.5,-111.5 776.5,-92.5 609.5,-92.5"/>
<text text-anchor="middle" x="693" y="-99.5" font-family="Helvetica,sans-Serif" font-size="10.00">instructions.Instruction.execute</text>
</a>
</g>
</g>
<!-- Node8&#45;&gt;Node9 -->
<g id="edge8" class="edge"><title>Node8&#45;&gt;Node9</title>
<path fill="none" stroke="midnightblue" d="M533.146,-143.963C552.001,-138.115 573.962,-131.51 594,-126 609.24,-121.809 625.912,-117.591 641.114,-113.885"/>
<polygon fill="midnightblue" stroke="midnightblue" points="641.963,-117.281 650.861,-111.529 640.318,-110.477 641.963,-117.281"/>
</g>
<!-- Node10 -->
<g id="node10" class="node"><title>Node10</title>
<g id="a_node10"><a xlink:href="../../d3/d88/classmodel_1_1_slogo_model.html#ad52954c6dbfb83f7aa97a85116c25eb8" target="_top" xlink:title="model.SlogoModel.showOnView">
<polygon fill="white" stroke="black" points="609.5,-210.5 609.5,-229.5 776.5,-229.5 776.5,-210.5 609.5,-210.5"/>
<text text-anchor="middle" x="693" y="-217.5" font-family="Helvetica,sans-Serif" font-size="10.00">model.SlogoModel.showOnView</text>
</a>
</g>
</g>
<!-- Node8&#45;&gt;Node10 -->
<g id="edge10" class="edge"><title>Node8&#45;&gt;Node10</title>
<path fill="none" stroke="midnightblue" d="M536.657,-174C571.529,-184.326 617.302,-197.881 650.114,-207.597"/>
<polygon fill="midnightblue" stroke="midnightblue" points="649.272,-210.998 659.854,-210.481 651.26,-204.286 649.272,-210.998"/>
</g>
<!-- Node11 -->
<g id="node11" class="node"><title>Node11</title>
<g id="a_node11"><a xlink:href="../../d8/d36/classmodel_1_1_observable_data.html#a575297a6d90ca0223478c397de4a8296" target="_top" xlink:title="model.ObservableData.change\lReturn">
<polygon fill="white" stroke="black" points="828.5,-205 828.5,-235 993.5,-235 993.5,-205 828.5,-205"/>
<text text-anchor="start" x="836.5" y="-223" font-family="Helvetica,sans-Serif" font-size="10.00">model.ObservableData.change</text>
<text text-anchor="middle" x="911" y="-212" font-family="Helvetica,sans-Serif" font-size="10.00">Return</text>
</a>
</g>
</g>
<!-- Node10&#45;&gt;Node11 -->
<g id="edge11" class="edge"><title>Node10&#45;&gt;Node11</title>
<path fill="none" stroke="midnightblue" d="M776.585,-220C790.061,-220 804.098,-220 817.788,-220"/>
<polygon fill="midnightblue" stroke="midnightblue" points="818.175,-223.5 828.175,-220 818.175,-216.5 818.175,-223.5"/>
</g>
<!-- Node12 -->
<g id="node12" class="node"><title>Node12</title>
<g id="a_node12"><a xlink:href="../../d3/d88/classmodel_1_1_slogo_model.html#a5a328c6f896a5c150e95b49db71dea8f" target="_top" xlink:title="model.SlogoModel.load">
<polygon fill="white" stroke="black" points="847,-254.5 847,-273.5 975,-273.5 975,-254.5 847,-254.5"/>
<text text-anchor="middle" x="911" y="-261.5" font-family="Helvetica,sans-Serif" font-size="10.00">model.SlogoModel.load</text>
</a>
</g>
</g>
<!-- Node10&#45;&gt;Node12 -->
<g id="edge12" class="edge"><title>Node10&#45;&gt;Node12</title>
<path fill="none" stroke="midnightblue" d="M740.869,-229.547C773.844,-236.265 818.156,-245.291 853.152,-252.42"/>
<polygon fill="midnightblue" stroke="midnightblue" points="852.725,-255.905 863.223,-254.471 854.123,-249.046 852.725,-255.905"/>
</g>
<!-- Node14 -->
<g id="node14" class="node"><title>Node14</title>
<g id="a_node14"><a xlink:href="../../d6/d95/classparser_1_1_parser.html#a0b953b563fd9171ad113c168900ba0ad" target="_top" xlink:title="parser.Parser.parseTokens">
<polygon fill="white" stroke="black" points="622.5,-16.5 622.5,-35.5 763.5,-35.5 763.5,-16.5 622.5,-16.5"/>
<text text-anchor="middle" x="693" y="-23.5" font-family="Helvetica,sans-Serif" font-size="10.00">parser.Parser.parseTokens</text>
</a>
</g>
</g>
<!-- Node13&#45;&gt;Node14 -->
<g id="edge14" class="edge"><title>Node13&#45;&gt;Node14</title>
<path fill="none" stroke="midnightblue" d="M537.717,-54.46C565.756,-49.2878 600.602,-42.8599 630.079,-37.4222"/>
<polygon fill="midnightblue" stroke="midnightblue" points="631.063,-40.7999 640.262,-35.5439 629.793,-33.9161 631.063,-40.7999"/>
</g>
<!-- Node20 -->
<g id="node20" class="node"><title>Node20</title>
<g id="a_node20"><a xlink:href="../../de/d6b/classparser_1_1_tokenizer.html#ab347b4e57c1c6a0e09467b548025c2e8" target="_top" xlink:title="parser.Tokenizer.tokenize">
<polygon fill="white" stroke="black" points="624.5,-54.5 624.5,-73.5 761.5,-73.5 761.5,-54.5 624.5,-54.5"/>
<text text-anchor="middle" x="693" y="-61.5" font-family="Helvetica,sans-Serif" font-size="10.00">parser.Tokenizer.tokenize</text>
</a>
</g>
</g>
<!-- Node13&#45;&gt;Node20 -->
<g id="edge23" class="edge"><title>Node13&#45;&gt;Node20</title>
<path fill="none" stroke="midnightblue" d="M539.586,-64C562.323,-64 589.269,-64 614.134,-64"/>
<polygon fill="midnightblue" stroke="midnightblue" points="614.277,-67.5001 624.277,-64 614.277,-60.5001 614.277,-67.5001"/>
</g>
<!-- Node15 -->
<g id="node15" class="node"><title>Node15</title>
<g id="a_node15"><a xlink:href="../../d6/d95/classparser_1_1_parser.html#a45262e7dc7f355abdb9df8fa3630c86f" target="_top" xlink:title="parser.Parser.addParams">
<polygon fill="white" stroke="black" points="843,-16.5 843,-35.5 979,-35.5 979,-16.5 843,-16.5"/>
<text text-anchor="middle" x="911" y="-23.5" font-family="Helvetica,sans-Serif" font-size="10.00">parser.Parser.addParams</text>
</a>
</g>
</g>
<!-- Node14&#45;&gt;Node15 -->
<g id="edge15" class="edge"><title>Node14&#45;&gt;Node15</title>
<path fill="none" stroke="midnightblue" d="M763.533,-26C785.564,-26 810.052,-26 832.6,-26"/>
<polygon fill="midnightblue" stroke="midnightblue" points="832.808,-29.5001 842.808,-26 832.808,-22.5001 832.808,-29.5001"/>
</g>
<!-- Node16 -->
<g id="node16" class="node"><title>Node16</title>
<g id="a_node16"><a xlink:href="../../d6/d95/classparser_1_1_parser.html#a4f0036d9216912f383261d0482cbb1b1" target="_top" xlink:title="parser.Parser.findMatching\lBracket">
<polygon fill="white" stroke="black" points="839.5,-55 839.5,-85 982.5,-85 982.5,-55 839.5,-55"/>
<text text-anchor="start" x="847.5" y="-73" font-family="Helvetica,sans-Serif" font-size="10.00">parser.Parser.findMatching</text>
<text text-anchor="middle" x="911" y="-62" font-family="Helvetica,sans-Serif" font-size="10.00">Bracket</text>
</a>
</g>
</g>
<!-- Node14&#45;&gt;Node16 -->
<g id="edge16" class="edge"><title>Node14&#45;&gt;Node16</title>
<path fill="none" stroke="midnightblue" d="M744.14,-35.5482C759.508,-38.5212 776.459,-41.8474 792,-45 804.307,-47.4966 817.324,-50.1954 830.042,-52.8646"/>
<polygon fill="midnightblue" stroke="midnightblue" points="829.651,-56.3591 840.158,-54.9946 831.094,-49.5093 829.651,-56.3591"/>
</g>
<!-- Node18 -->
<g id="node18" class="node"><title>Node18</title>
<g id="a_node18"><a xlink:href="../../d6/d95/classparser_1_1_parser.html#ac2278cd512ecf95e7dbe39f1e381cef7" target="_top" xlink:title="parser.Parser.isRightBracket">
<polygon fill="white" stroke="black" points="1030,-0.5 1030,-19.5 1180,-19.5 1180,-0.5 1030,-0.5"/>
<text text-anchor="middle" x="1105" y="-7.5" font-family="Helvetica,sans-Serif" font-size="10.00">parser.Parser.isRightBracket</text>
</a>
</g>
</g>
<!-- Node14&#45;&gt;Node18 -->
<g id="edge19" class="edge"><title>Node14&#45;&gt;Node18</title>
<path fill="none" stroke="midnightblue" d="M748.579,-16.4858C772.819,-12.72 801.749,-8.85181 828,-7 901.595,-1.80842 920.229,-5.99422 994,-7 1002.31,-7.11325 1010.97,-7.27459 1019.62,-7.4644"/>
<polygon fill="midnightblue" stroke="midnightblue" points="1019.67,-10.9665 1029.75,-7.69914 1019.83,-3.96834 1019.67,-10.9665"/>
</g>
<!-- Node19 -->
<g id="node19" class="node"><title>Node19</title>
<g id="a_node19"><a xlink:href="../../d3/d96/classparser_1_1_instruction_factory.html#a4b06d4f5f8e173824966dd0ec1e00255" target="_top" xlink:title="parser.InstructionFactory.make\lInstruction">
<polygon fill="white" stroke="black" points="829.5,-156 829.5,-186 992.5,-186 992.5,-156 829.5,-156"/>
<text text-anchor="start" x="837.5" y="-174" font-family="Helvetica,sans-Serif" font-size="10.00">parser.InstructionFactory.make</text>
<text text-anchor="middle" x="911" y="-163" font-family="Helvetica,sans-Serif" font-size="10.00">Instruction</text>
</a>
</g>
</g>
<!-- Node14&#45;&gt;Node19 -->
<g id="edge20" class="edge"><title>Node14&#45;&gt;Node19</title>
<path fill="none" stroke="midnightblue" d="M763.69,-32.7946C773.665,-35.641 783.434,-39.5774 792,-45 814.833,-59.4536 810.075,-73.7771 828,-94 845.589,-113.843 867.588,-134.299 884.37,-149.134"/>
<polygon fill="midnightblue" stroke="midnightblue" points="882.317,-151.989 892.148,-155.939 886.926,-146.72 882.317,-151.989"/>
</g>
<!-- Node17 -->
<g id="node17" class="node"><title>Node17</title>
<g id="a_node17"><a xlink:href="../../d6/d95/classparser_1_1_parser.html#abe383fbf6f2944c67226ac2432c548b2" target="_top" xlink:title="parser.Parser.isLeftBracket">
<polygon fill="white" stroke="black" points="1033,-60.5 1033,-79.5 1177,-79.5 1177,-60.5 1033,-60.5"/>
<text text-anchor="middle" x="1105" y="-67.5" font-family="Helvetica,sans-Serif" font-size="10.00">parser.Parser.isLeftBracket</text>
</a>
</g>
</g>
<!-- Node16&#45;&gt;Node17 -->
<g id="edge17" class="edge"><title>Node16&#45;&gt;Node17</title>
<path fill="none" stroke="midnightblue" d="M982.676,-70C995.712,-70 1009.42,-70 1022.74,-70"/>
<polygon fill="midnightblue" stroke="midnightblue" points="1022.83,-73.5001 1032.83,-70 1022.83,-66.5001 1022.83,-73.5001"/>
</g>
<!-- Node16&#45;&gt;Node18 -->
<g id="edge18" class="edge"><title>Node16&#45;&gt;Node18</title>
<path fill="none" stroke="midnightblue" d="M961.898,-54.8929C972.502,-51.6527 983.627,-48.2314 994,-45 1017.46,-37.6933 1043.67,-29.3588 1064.62,-22.6562"/>
<polygon fill="midnightblue" stroke="midnightblue" points="1065.69,-25.9883 1074.15,-19.6051 1063.56,-19.3218 1065.69,-25.9883"/>
</g>
<!-- Node19&#45;&gt;Node4 -->
<g id="edge21" class="edge"><title>Node19&#45;&gt;Node4</title>
<path fill="none" stroke="midnightblue" d="M980.774,-186.044C1003.72,-191.063 1028.92,-196.577 1050.53,-201.303"/>
<polygon fill="midnightblue" stroke="midnightblue" points="1049.98,-204.766 1060.5,-203.484 1051.48,-197.928 1049.98,-204.766"/>
</g>
<!-- Node19&#45;&gt;Node5 -->
<g id="edge22" class="edge"><title>Node19&#45;&gt;Node5</title>
<path fill="none" stroke="midnightblue" d="M977.705,-186.14C983.436,-188.661 988.963,-191.592 994,-195 1018.69,-211.702 1068.61,-282.701 1091.73,-316.703"/>
<polygon fill="midnightblue" stroke="midnightblue" points="1089,-318.912 1097.5,-325.237 1094.8,-314.992 1089,-318.912"/>
</g>
<!-- Node21&#45;&gt;Node4 -->
<g id="edge25" class="edge"><title>Node21&#45;&gt;Node4</title>
<path fill="none" stroke="midnightblue" d="M728.12,-273.572C784.664,-287.812 900.802,-310.139 994,-283 1029.91,-272.543 1065.29,-246.423 1085.86,-229.215"/>
<polygon fill="midnightblue" stroke="midnightblue" points="1088.18,-231.842 1093.49,-222.675 1083.62,-226.53 1088.18,-231.842"/>
</g>
<!-- Node21&#45;&gt;Node12 -->
<g id="edge26" class="edge"><title>Node21&#45;&gt;Node12</title>
<path fill="none" stroke="midnightblue" d="M791.573,-264C806.687,-264 822.076,-264 836.541,-264"/>
<polygon fill="midnightblue" stroke="midnightblue" points="836.893,-267.5 846.893,-264 836.893,-260.5 836.893,-267.5"/>
</g>
</g>
</svg>
        <g id="navigator" transform="translate(0 0)" fill="#404254">
                <rect fill="#f2f5e9" fill-opacity="0.5" stroke="#606060" stroke-width=".5" x="0" y="0" width="60" height="60"/>
                <use id="zoomplus" xlink:href="#zoomPlus" x="17" y="9" onmousedown="handleZoom(evt,'in')"/>
                <use id="zoomminus" xlink:href="#zoomMin" x="42" y="9" onmousedown="handleZoom(evt,'out')"/>
                <use id="reset" xlink:href="#resetDef" x="30" y="36" onmousedown="handleReset()"/>
                <g id="arrowUp" xlink:href="#dirArrow" transform="translate(30 24)" onmousedown="handlePan(0,-1)">
                  <use xlink:href="#rim" fill="#404040">
                        <set attributeName="fill" to="#808080" begin="arrowUp.mouseover" end="arrowUp.mouseout"/>
                  </use>
                  <path fill="none" stroke="white" stroke-width="1.5" d="M0,-3.0v7 M-2.5,-0.5L0,-3.0L2.5,-0.5"/>
                </g>
                <g id="arrowRight" xlink:href="#dirArrow" transform="rotate(90) translate(36 -43)" onmousedown="handlePan(1,0)">
                  <use xlink:href="#rim" fill="#404040">
                        <set attributeName="fill" to="#808080" begin="arrowRight.mouseover" end="arrowRight.mouseout"/>
                  </use>
                  <path fill="none" stroke="white" stroke-width="1.5" d="M0,-3.0v7 M-2.5,-0.5L0,-3.0L2.5,-0.5"/>
                </g>
                <g id="arrowDown" xlink:href="#dirArrow" transform="rotate(180) translate(-30 -48)" onmousedown="handlePan(0,1)">
                  <use xlink:href="#rim" fill="#404040">
                        <set attributeName="fill" to="#808080" begin="arrowDown.mouseover" end="arrowDown.mouseout"/>
                  </use>
                  <path fill="none" stroke="white" stroke-width="1.5" d="M0,-3.0v7 M-2.5,-0.5L0,-3.0L2.5,-0.5"/>
                </g>
                <g id="arrowLeft" xlink:href="#dirArrow" transform="rotate(270) translate(-36 17)" onmousedown="handlePan(-1,0)">
                  <use xlink:href="#rim" fill="#404040">
                        <set attributeName="fill" to="#808080" begin="arrowLeft.mouseover" end="arrowLeft.mouseout"/>
                  </use>
                  <path fill="none" stroke="white" stroke-width="1.5" d="M0,-3.0v7 M-2.5,-0.5L0,-3.0L2.5,-0.5"/>
                </g>
        </g>
        <svg viewBox="0 0 15 15" width="100%" height="30px" preserveAspectRatio="xMaxYMin meet">
         <g id="arrow_out" transform="scale(0.3 0.3)">
          <a xlink:href="classview_1_1_key_controls_a0c3663cb62e91e8919b0296aad899a8f_cgraph_org.svg" target="_base">
           <rect id="button" ry="5" rx="5" y="6" x="6" height="38" width="38"
                fill="#f2f5e9" fill-opacity="0.5" stroke="#606060" stroke-width="1.0"/>
           <path id="arrow"
             d="M 11.500037,31.436501 C 11.940474,20.09759 22.043105,11.32322 32.158766,21.979434 L 37.068811,17.246167 C 37.068811,17.246167 37.088388,32 37.088388,32 L 22.160133,31.978069 C 22.160133,31.978069 26.997745,27.140456 26.997745,27.140456 C 18.528582,18.264221 13.291696,25.230495 11.500037,31.436501 z"
             style="fill:#404040;"/>
          </a>
         </g>
        </svg>
</svg>
