<?xml version="1.0" encoding="UTF-8" standalone="no"?>
<!DOCTYPE svg PUBLIC "-//W3C//DTD SVG 1.1//EN"
 "http://www.w3.org/Graphics/SVG/1.1/DTD/svg11.dtd">
<!-- Generated by graphviz version 2.36.0 (20140111.2315)
 -->
<!-- Title: model.Feature Pages: 1 -->
<svg width="370pt" height="218pt"
 viewBox="0.00 0.00 370.00 218.00" xmlns="http://www.w3.org/2000/svg" xmlns:xlink="http://www.w3.org/1999/xlink">
<g id="graph0" class="graph" transform="scale(1 1) rotate(0) translate(4 214)">
<title>model.Feature</title>
<polygon fill="white" stroke="none" points="-4,4 -4,-214 366,-214 366,4 -4,4"/>
<!-- Node1 -->
<g id="node1" class="node"><title>Node1</title>
<polygon fill="#bfbfbf" stroke="black" points="108,-95.5 108,-114.5 194,-114.5 194,-95.5 108,-95.5"/>
<text text-anchor="middle" x="151" y="-102.5" font-family="Helvetica,sans-Serif" font-size="10.00">model.Feature</text>
</g>
<!-- Node3 -->
<g id="node3" class="node"><title>Node3</title>
<g id="a_node3"><a xlink:href="../../dc/dff/classmodel_1_1_background_color.html" target="_top" xlink:title="model.BackgroundColor">
<polygon fill="white" stroke="black" points="230.5,-190.5 230.5,-209.5 361.5,-209.5 361.5,-190.5 230.5,-190.5"/>
<text text-anchor="middle" x="296" y="-197.5" font-family="Helvetica,sans-Serif" font-size="10.00">model.BackgroundColor</text>
</a>
</g>
</g>
<!-- Node1&#45;&gt;Node3 -->
<g id="edge2" class="edge"><title>Node1&#45;&gt;Node3</title>
<path fill="none" stroke="midnightblue" d="M165.862,-122.859C180.164,-140.119 203.998,-165.821 230,-181 236.6,-184.853 244.039,-187.974 251.465,-190.487"/>
<polygon fill="midnightblue" stroke="midnightblue" points="168.29,-120.294 159.29,-114.703 162.839,-124.685 168.29,-120.294"/>
</g>
<!-- Node4 -->
<g id="node4" class="node"><title>Node4</title>
<g id="a_node4"><a xlink:href="../../d6/df7/classmodel_1_1_commands_list.html" target="_top" xlink:title="model.CommandsList">
<polygon fill="white" stroke="black" points="235,-152.5 235,-171.5 357,-171.5 357,-152.5 235,-152.5"/>
<text text-anchor="middle" x="296" y="-159.5" font-family="Helvetica,sans-Serif" font-size="10.00">model.CommandsList</text>
</a>
</g>
</g>
<!-- Node1&#45;&gt;Node4 -->
<g id="edge3" class="edge"><title>Node1&#45;&gt;Node4</title>
<path fill="none" stroke="midnightblue" d="M178.686,-119.392C193.524,-127.038 212.481,-136.228 230,-143 238.992,-146.476 248.893,-149.675 258.197,-152.417"/>
<polygon fill="midnightblue" stroke="midnightblue" points="180.069,-116.166 169.586,-114.632 176.824,-122.368 180.069,-116.166"/>
</g>
<!-- Node5 -->
<g id="node5" class="node"><title>Node5</title>
<g id="a_node5"><a xlink:href="../../d4/d58/classmodel_1_1_history.html" target="_top" xlink:title="model.History">
<polygon fill="white" stroke="black" points="254.5,-114.5 254.5,-133.5 337.5,-133.5 337.5,-114.5 254.5,-114.5"/>
<text text-anchor="middle" x="296" y="-121.5" font-family="Helvetica,sans-Serif" font-size="10.00">model.History</text>
</a>
</g>
</g>
<!-- Node1&#45;&gt;Node5 -->
<g id="edge4" class="edge"><title>Node1&#45;&gt;Node5</title>
<path fill="none" stroke="midnightblue" d="M204.162,-111.931C220.636,-114.119 238.59,-116.505 254.154,-118.573"/>
<polygon fill="midnightblue" stroke="midnightblue" points="204.505,-108.446 194.131,-110.598 203.583,-115.385 204.505,-108.446"/>
</g>
<!-- Node6 -->
<g id="node6" class="node"><title>Node6</title>
<g id="a_node6"><a xlink:href="../../d6/d34/classmodel_1_1_turtle.html" target="_top" xlink:title="model.Turtle">
<polygon fill="white" stroke="black" points="258.5,-76.5 258.5,-95.5 333.5,-95.5 333.5,-76.5 258.5,-76.5"/>
<text text-anchor="middle" x="296" y="-83.5" font-family="Helvetica,sans-Serif" font-size="10.00">model.Turtle</text>
</a>
</g>
</g>
<!-- Node1&#45;&gt;Node6 -->
<g id="edge5" class="edge"><title>Node1&#45;&gt;Node6</title>
<path fill="none" stroke="midnightblue" d="M204.211,-98.0629C222.228,-95.669 242.011,-93.0405 258.499,-90.8498"/>
<polygon fill="midnightblue" stroke="midnightblue" points="203.583,-94.6154 194.131,-99.4021 204.505,-101.554 203.583,-94.6154"/>
</g>
<!-- Node7 -->
<g id="node7" class="node"><title>Node7</title>
<g id="a_node7"><a xlink:href="../../df/db7/classmodel_1_1_turtles_list.html" target="_top" xlink:title="model.TurtlesList">
<polygon fill="white" stroke="black" points="247.5,-38.5 247.5,-57.5 344.5,-57.5 344.5,-38.5 247.5,-38.5"/>
<text text-anchor="middle" x="296" y="-45.5" font-family="Helvetica,sans-Serif" font-size="10.00">model.TurtlesList</text>
</a>
</g>
</g>
<!-- Node1&#45;&gt;Node7 -->
<g id="edge6" class="edge"><title>Node1&#45;&gt;Node7</title>
<path fill="none" stroke="midnightblue" d="M178.686,-90.6078C193.524,-82.9618 212.481,-73.7719 230,-67 238.992,-63.524 248.893,-60.3254 258.197,-57.5832"/>
<polygon fill="midnightblue" stroke="midnightblue" points="176.824,-87.6316 169.586,-95.3685 180.069,-93.8341 176.824,-87.6316"/>
</g>
<!-- Node8 -->
<g id="node8" class="node"><title>Node8</title>
<g id="a_node8"><a xlink:href="../../d6/d2c/classmodel_1_1_variables_list.html" target="_top" xlink:title="model.VariablesList">
<polygon fill="white" stroke="black" points="241,-0.5 241,-19.5 351,-19.5 351,-0.5 241,-0.5"/>
<text text-anchor="middle" x="296" y="-7.5" font-family="Helvetica,sans-Serif" font-size="10.00">model.VariablesList</text>
</a>
</g>
</g>
<!-- Node1&#45;&gt;Node8 -->
<g id="edge7" class="edge"><title>Node1&#45;&gt;Node8</title>
<path fill="none" stroke="midnightblue" d="M165.862,-87.1413C180.164,-69.8809 203.998,-44.1788 230,-29 236.6,-25.1473 244.039,-22.0261 251.465,-19.5134"/>
<polygon fill="midnightblue" stroke="midnightblue" points="162.839,-85.3145 159.29,-95.2975 168.29,-89.7064 162.839,-85.3145"/>
</g>
<!-- Node2 -->
<g id="node2" class="node"><title>Node2</title>
<polygon fill="white" stroke="#bfbfbf" points="0.5,-95.5 0.5,-114.5 71.5,-114.5 71.5,-95.5 0.5,-95.5"/>
<text text-anchor="middle" x="36" y="-102.5" font-family="Helvetica,sans-Serif" font-size="10.00">Serializable</text>
</g>
<!-- Node2&#45;&gt;Node1 -->
<g id="edge1" class="edge"><title>Node2&#45;&gt;Node1</title>
<path fill="none" stroke="midnightblue" d="M81.7237,-105C90.2904,-105 99.2352,-105 107.722,-105"/>
<polygon fill="midnightblue" stroke="midnightblue" points="81.5178,-101.5 71.5177,-105 81.5177,-108.5 81.5178,-101.5"/>
</g>
</g>
</svg>
