<?xml version="1.0" encoding="UTF-8" standalone="no"?>
<!DOCTYPE svg PUBLIC "-//W3C//DTD SVG 1.1//EN"
 "http://www.w3.org/Graphics/SVG/1.1/DTD/svg11.dtd">
<!-- Generated by graphviz version 2.36.0 (20140111.2315)
 -->
<!-- Title: instructions.ListInstruction Pages: 1 -->
<svg width="369pt" height="212pt"
 viewBox="0.00 0.00 369.00 212.00" xmlns="http://www.w3.org/2000/svg" xmlns:xlink="http://www.w3.org/1999/xlink">
<g id="graph0" class="graph" transform="scale(1 1) rotate(0) translate(4 208)">
<title>instructions.ListInstruction</title>
<polygon fill="white" stroke="none" points="-4,4 -4,-208 365,-208 365,4 -4,4"/>
<!-- Node1 -->
<g id="node1" class="node"><title>Node1</title>
<polygon fill="#bfbfbf" stroke="black" points="160,-0.5 160,-19.5 302,-19.5 302,-0.5 160,-0.5"/>
<text text-anchor="middle" x="231" y="-7.5" font-family="Helvetica,sans-Serif" font-size="10.00">instructions.ListInstruction</text>
</g>
<!-- Node2 -->
<g id="node2" class="node"><title>Node2</title>
<g id="a_node2"><a xlink:href="../../dc/d59/classinstructions_1_1_zero_param_instruction.html" target="_top" xlink:title="instructions.ZeroParamInstruction">
<polygon fill="white" stroke="black" points="-0.5,-68.5 -0.5,-87.5 178.5,-87.5 178.5,-68.5 -0.5,-68.5"/>
<text text-anchor="middle" x="89" y="-75.5" font-family="Helvetica,sans-Serif" font-size="10.00">instructions.ZeroParamInstruction</text>
</a>
</g>
</g>
<!-- Node2&#45;&gt;Node1 -->
<g id="edge1" class="edge"><title>Node2&#45;&gt;Node1</title>
<path fill="none" stroke="midnightblue" d="M116.895,-64.0346C145.159,-50.898 188.085,-30.9463 212.431,-19.6305"/>
<polygon fill="midnightblue" stroke="midnightblue" points="115.157,-60.9828 107.564,-68.3717 118.108,-67.3307 115.157,-60.9828"/>
</g>
<!-- Node3 -->
<g id="node3" class="node"><title>Node3</title>
<g id="a_node3"><a xlink:href="../../d2/d93/interfaceinstructions_1_1_instruction.html" target="_top" xlink:title="instructions.Instruction">
<polygon fill="white" stroke="black" points="26.5,-126.5 26.5,-145.5 151.5,-145.5 151.5,-126.5 26.5,-126.5"/>
<text text-anchor="middle" x="89" y="-133.5" font-family="Helvetica,sans-Serif" font-size="10.00">instructions.Instruction</text>
</a>
</g>
</g>
<!-- Node3&#45;&gt;Node2 -->
<g id="edge2" class="edge"><title>Node3&#45;&gt;Node2</title>
<path fill="none" stroke="midnightblue" d="M89,-115.953C89,-106.287 89,-95.0312 89,-87.5052"/>
<polygon fill="midnightblue" stroke="midnightblue" points="85.5001,-116.25 89,-126.25 92.5001,-116.25 85.5001,-116.25"/>
</g>
<!-- Node4 -->
<g id="node4" class="node"><title>Node4</title>
<polygon fill="white" stroke="#bfbfbf" points="53.5,-184.5 53.5,-203.5 124.5,-203.5 124.5,-184.5 53.5,-184.5"/>
<text text-anchor="middle" x="89" y="-191.5" font-family="Helvetica,sans-Serif" font-size="10.00">Serializable</text>
</g>
<!-- Node4&#45;&gt;Node3 -->
<g id="edge3" class="edge"><title>Node4&#45;&gt;Node3</title>
<path fill="none" stroke="midnightblue" d="M89,-173.953C89,-164.287 89,-153.031 89,-145.505"/>
<polygon fill="midnightblue" stroke="midnightblue" points="85.5001,-174.25 89,-184.25 92.5001,-174.25 85.5001,-174.25"/>
</g>
<!-- Node5 -->
<g id="node5" class="node"><title>Node5</title>
<polygon fill="white" stroke="#bfbfbf" points="197,-68.5 197,-87.5 361,-87.5 361,-68.5 197,-68.5"/>
<text text-anchor="middle" x="279" y="-75.5" font-family="Helvetica,sans-Serif" font-size="10.00">List&lt; instructions.Instruction &gt;</text>
</g>
<!-- Node5&#45;&gt;Node1 -->
<g id="edge4" class="edge"><title>Node5&#45;&gt;Node1</title>
<path fill="none" stroke="#9a32cd" stroke-dasharray="5,2" d="M266.591,-59.9377C257.263,-47.112 244.861,-30.0591 237.43,-19.8411"/>
<polygon fill="#9a32cd" stroke="#9a32cd" points="264.012,-62.3429 272.725,-68.3717 269.674,-58.2257 264.012,-62.3429"/>
<text text-anchor="middle" x="302.5" y="-41.5" font-family="Helvetica,sans-Serif" font-size="10.00"> myInstructionList</text>
</g>
</g>
</svg>
