<?xml version="1.0" encoding="UTF-8" standalone="no"?>
<!DOCTYPE svg PUBLIC "-//W3C//DTD SVG 1.1//EN"
 "http://www.w3.org/Graphics/SVG/1.1/DTD/svg11.dtd">
<!-- Generated by graphviz version 2.36.0 (20140111.2315)
 -->
<!-- Title: view.SettingsView Pages: 1 -->
<svg width="1724pt" height="635pt"
 viewBox="0.00 0.00 1724.00 635.00" xmlns="http://www.w3.org/2000/svg" xmlns:xlink="http://www.w3.org/1999/xlink">
<g id="graph0" class="graph" transform="scale(1 1) rotate(0) translate(4 631)">
<title>view.SettingsView</title>
<polygon fill="white" stroke="none" points="-4,4 -4,-631 1720,-631 1720,4 -4,4"/>
<!-- Node1 -->
<g id="node1" class="node"><title>Node1</title>
<polygon fill="#bfbfbf" stroke="black" points="1614.5,-150.5 1614.5,-169.5 1715.5,-169.5 1715.5,-150.5 1614.5,-150.5"/>
<text text-anchor="middle" x="1665" y="-157.5" font-family="Helvetica,sans-Serif" font-size="10.00">view.SettingsView</text>
</g>
<!-- Node2 -->
<g id="node2" class="node"><title>Node2</title>
<polygon fill="white" stroke="#bfbfbf" points="1403.5,-428.5 1403.5,-447.5 1454.5,-447.5 1454.5,-428.5 1403.5,-428.5"/>
<text text-anchor="middle" x="1429" y="-435.5" font-family="Helvetica,sans-Serif" font-size="10.00">ToolBar</text>
</g>
<!-- Node2&#45;&gt;Node1 -->
<g id="edge1" class="edge"><title>Node2&#45;&gt;Node1</title>
<path fill="none" stroke="midnightblue" d="M1464.88,-443.2C1502.01,-446.65 1560.24,-445.773 1596,-414 1634.14,-380.117 1657.51,-211.795 1662.83,-169.604"/>
<polygon fill="midnightblue" stroke="midnightblue" points="1464.87,-439.678 1454.55,-442.078 1464.11,-446.637 1464.87,-439.678"/>
</g>
<!-- Node3 -->
<g id="node3" class="node"><title>Node3</title>
<polygon fill="white" stroke="#bfbfbf" points="727.5,-132.5 727.5,-151.5 820.5,-151.5 820.5,-132.5 727.5,-132.5"/>
<text text-anchor="middle" x="774" y="-139.5" font-family="Helvetica,sans-Serif" font-size="10.00">ResourceBundle</text>
</g>
<!-- Node3&#45;&gt;Node1 -->
<g id="edge2" class="edge"><title>Node3&#45;&gt;Node1</title>
<path fill="none" stroke="#9a32cd" stroke-dasharray="5,2" d="M830.987,-142.043C866.749,-142.136 914.104,-142.381 956,-143 1203.11,-146.649 1498.64,-155.048 1614.22,-158.488"/>
<polygon fill="#9a32cd" stroke="#9a32cd" points="830.759,-138.542 820.751,-142.019 830.743,-145.542 830.759,-138.542"/>
<text text-anchor="middle" x="1241" y="-152" font-family="Helvetica,sans-Serif" font-size="10.00"> languageBundle</text>
</g>
<!-- Node8 -->
<g id="node8" class="node"><title>Node8</title>
<g id="a_node8"><a xlink:href="../../d6/d95/classparser_1_1_parser.html" target="_top" xlink:title="parser.Parser">
<polygon fill="white" stroke="black" points="1201,-179.5 1201,-198.5 1281,-198.5 1281,-179.5 1201,-179.5"/>
<text text-anchor="middle" x="1241" y="-186.5" font-family="Helvetica,sans-Serif" font-size="10.00">parser.Parser</text>
</a>
</g>
</g>
<!-- Node3&#45;&gt;Node8 -->
<g id="edge9" class="edge"><title>Node3&#45;&gt;Node8</title>
<path fill="none" stroke="#9a32cd" stroke-dasharray="5,2" d="M830.815,-145.83C897.045,-150.613 1010.76,-159.576 1108,-171 1139.24,-174.67 1174.54,-179.521 1200.77,-183.262"/>
<polygon fill="#9a32cd" stroke="#9a32cd" points="830.827,-142.322 820.602,-145.099 830.327,-149.304 830.827,-142.322"/>
<text text-anchor="middle" x="1041" y="-174" font-family="Helvetica,sans-Serif" font-size="10.00"> myLanguageBundle</text>
</g>
<!-- Node10 -->
<g id="node10" class="node"><title>Node10</title>
<g id="a_node10"><a xlink:href="../../d3/d96/classparser_1_1_instruction_factory.html" target="_top" xlink:title="parser.InstructionFactory">
<polygon fill="white" stroke="black" points="974,-191.5 974,-210.5 1108,-210.5 1108,-191.5 974,-191.5"/>
<text text-anchor="middle" x="1041" y="-198.5" font-family="Helvetica,sans-Serif" font-size="10.00">parser.InstructionFactory</text>
</a>
</g>
</g>
<!-- Node3&#45;&gt;Node10 -->
<g id="edge12" class="edge"><title>Node3&#45;&gt;Node10</title>
<path fill="none" stroke="#9a32cd" stroke-dasharray="5,2" d="M830.936,-150.967C866.866,-157.105 914.423,-165.936 956,-176 974.338,-180.439 994.619,-186.443 1010.66,-191.454"/>
<polygon fill="#9a32cd" stroke="#9a32cd" points="831.096,-147.444 820.653,-149.229 829.93,-154.346 831.096,-147.444"/>
<text text-anchor="middle" x="906" y="-179" font-family="Helvetica,sans-Serif" font-size="10.00"> myLanguageBundle</text>
</g>
<!-- Node4 -->
<g id="node4" class="node"><title>Node4</title>
<polygon fill="white" stroke="#bfbfbf" points="1368,-250.5 1368,-269.5 1490,-269.5 1490,-250.5 1368,-250.5"/>
<text text-anchor="middle" x="1429" y="-257.5" font-family="Helvetica,sans-Serif" font-size="10.00">ComboBox&lt; Image &gt;</text>
</g>
<!-- Node4&#45;&gt;Node1 -->
<g id="edge3" class="edge"><title>Node4&#45;&gt;Node1</title>
<path fill="none" stroke="#9a32cd" stroke-dasharray="5,2" d="M1497.73,-248.313C1528.79,-241.302 1565.41,-230.632 1596,-215 1619.53,-202.978 1642.49,-181.89 1654.78,-169.614"/>
<polygon fill="#9a32cd" stroke="#9a32cd" points="1496.89,-244.915 1487.86,-250.463 1498.38,-251.755 1496.89,-244.915"/>
<text text-anchor="middle" x="1552" y="-248" font-family="Helvetica,sans-Serif" font-size="10.00"> myTurtleChoices</text>
</g>
<!-- Node5 -->
<g id="node5" class="node"><title>Node5</title>
<g id="a_node5"><a xlink:href="../../d3/d88/classmodel_1_1_slogo_model.html" target="_top" xlink:title="model.SlogoModel">
<polygon fill="white" stroke="black" points="1376.5,-212.5 1376.5,-231.5 1481.5,-231.5 1481.5,-212.5 1376.5,-212.5"/>
<text text-anchor="middle" x="1429" y="-219.5" font-family="Helvetica,sans-Serif" font-size="10.00">model.SlogoModel</text>
</a>
</g>
</g>
<!-- Node5&#45;&gt;Node1 -->
<g id="edge4" class="edge"><title>Node5&#45;&gt;Node1</title>
<path fill="none" stroke="#9a32cd" stroke-dasharray="5,2" d="M1475.75,-209.879C1520.27,-198.083 1587.01,-180.399 1627.91,-169.562"/>
<polygon fill="#9a32cd" stroke="#9a32cd" points="1474.82,-206.504 1466.05,-212.448 1476.61,-213.27 1474.82,-206.504"/>
<text text-anchor="middle" x="1552" y="-203" font-family="Helvetica,sans-Serif" font-size="10.00"> myModel</text>
</g>
<!-- Node6 -->
<g id="node6" class="node"><title>Node6</title>
<polygon fill="white" stroke="#bfbfbf" points="1205.5,-217.5 1205.5,-236.5 1276.5,-236.5 1276.5,-217.5 1205.5,-217.5"/>
<text text-anchor="middle" x="1241" y="-224.5" font-family="Helvetica,sans-Serif" font-size="10.00">Observable</text>
</g>
<!-- Node6&#45;&gt;Node5 -->
<g id="edge5" class="edge"><title>Node6&#45;&gt;Node5</title>
<path fill="none" stroke="midnightblue" d="M1286.87,-225.794C1313.86,-225.068 1348.31,-224.142 1376.42,-223.387"/>
<polygon fill="midnightblue" stroke="midnightblue" points="1286.45,-222.304 1276.55,-226.071 1286.64,-229.301 1286.45,-222.304"/>
</g>
<!-- Node7 -->
<g id="node7" class="node"><title>Node7</title>
<polygon fill="white" stroke="#bfbfbf" points="508.5,-390.5 508.5,-409.5 555.5,-409.5 555.5,-390.5 508.5,-390.5"/>
<text text-anchor="middle" x="532" y="-397.5" font-family="Helvetica,sans-Serif" font-size="10.00">Locale</text>
</g>
<!-- Node7&#45;&gt;Node1 -->
<g id="edge38" class="edge"><title>Node7&#45;&gt;Node1</title>
<path fill="none" stroke="#9a32cd" stroke-dasharray="5,2" d="M565.872,-400C612.106,-400 698.975,-400 773,-400 773,-400 773,-400 1430,-400 1560.94,-400 1642.47,-214.606 1660.3,-169.706"/>
<polygon fill="#9a32cd" stroke="#9a32cd" points="565.833,-396.5 555.833,-400 565.833,-403.5 565.833,-396.5"/>
<text text-anchor="middle" x="1154" y="-403" font-family="Helvetica,sans-Serif" font-size="10.00"> myLocale</text>
</g>
<!-- Node7&#45;&gt;Node5 -->
<g id="edge6" class="edge"><title>Node7&#45;&gt;Node5</title>
<path fill="none" stroke="#9a32cd" stroke-dasharray="5,2" d="M565.599,-391.279C611.512,-379.783 698.004,-361 773,-361 773,-361 773,-361 1242,-361 1280.67,-361 1334.71,-260.675 1368,-241 1374.4,-237.219 1381.63,-234.106 1388.8,-231.574"/>
<polygon fill="#9a32cd" stroke="#9a32cd" points="564.459,-387.958 555.634,-393.82 566.189,-394.741 564.459,-387.958"/>
<text text-anchor="middle" x="1041" y="-364" font-family="Helvetica,sans-Serif" font-size="10.00"> myLocale</text>
</g>
<!-- Node11 -->
<g id="node11" class="node"><title>Node11</title>
<g id="a_node11"><a xlink:href="../../d8/d36/classmodel_1_1_observable_data.html" target="_top" xlink:title="model.ObservableData">
<polygon fill="white" stroke="black" points="710.5,-227.5 710.5,-246.5 837.5,-246.5 837.5,-227.5 710.5,-227.5"/>
<text text-anchor="middle" x="774" y="-234.5" font-family="Helvetica,sans-Serif" font-size="10.00">model.ObservableData</text>
</a>
</g>
</g>
<!-- Node7&#45;&gt;Node11 -->
<g id="edge31" class="edge"><title>Node7&#45;&gt;Node11</title>
<path fill="none" stroke="#9a32cd" stroke-dasharray="5,2" d="M555.624,-384.634C604.484,-351.45 718.688,-273.887 758.781,-246.657"/>
<polygon fill="#9a32cd" stroke="#9a32cd" points="553.6,-381.778 547.294,-390.292 557.533,-387.569 553.6,-381.778"/>
<text text-anchor="middle" x="662" y="-331" font-family="Helvetica,sans-Serif" font-size="10.00"> myLocale</text>
</g>
<!-- Node8&#45;&gt;Node5 -->
<g id="edge7" class="edge"><title>Node8&#45;&gt;Node5</title>
<path fill="none" stroke="#9a32cd" stroke-dasharray="5,2" d="M1291.52,-197.786C1317.68,-202.427 1349.76,-208.119 1376.24,-212.817"/>
<polygon fill="#9a32cd" stroke="#9a32cd" points="1291.9,-194.299 1281.45,-195.998 1290.68,-201.192 1291.9,-194.299"/>
<text text-anchor="middle" x="1325" y="-210" font-family="Helvetica,sans-Serif" font-size="10.00"> myParser</text>
</g>
<!-- Node9 -->
<g id="node9" class="node"><title>Node9</title>
<polygon fill="white" stroke="#bfbfbf" points="4.5,-134.5 4.5,-153.5 75.5,-153.5 75.5,-134.5 4.5,-134.5"/>
<text text-anchor="middle" x="40" y="-141.5" font-family="Helvetica,sans-Serif" font-size="10.00">Serializable</text>
</g>
<!-- Node9&#45;&gt;Node8 -->
<g id="edge8" class="edge"><title>Node9&#45;&gt;Node8</title>
<path fill="none" stroke="midnightblue" d="M41.5298,-163.803C44.4027,-227.282 62.7803,-426.743 180,-516 236.088,-558.708 267.571,-526.886 338,-530 379.737,-531.845 400.737,-557.713 432,-530 481.915,-485.752 405.435,-430.632 450,-381 499.988,-325.329 552.471,-385.57 614,-343 625.86,-334.794 619.989,-323.983 632,-316 735.664,-247.102 1062,-243.067 1182,-210 1193.46,-206.842 1205.89,-202.475 1216.29,-198.54"/>
<polygon fill="midnightblue" stroke="midnightblue" points="45.0194,-163.454 41.1535,-153.59 38.0242,-163.712 45.0194,-163.454"/>
</g>
<!-- Node9&#45;&gt;Node10 -->
<g id="edge11" class="edge"><title>Node9&#45;&gt;Node10</title>
<path fill="none" stroke="midnightblue" d="M85.5806,-133.896C112.714,-128.269 148.166,-121.84 180,-119 480.766,-92.1679 555.807,-154.374 856,-187 895.015,-191.24 938.824,-194.628 973.904,-197.009"/>
<polygon fill="midnightblue" stroke="midnightblue" points="84.673,-130.511 75.6138,-136.005 86.1217,-137.359 84.673,-130.511"/>
</g>
<!-- Node13 -->
<g id="node13" class="node"><title>Node13</title>
<g id="a_node13"><a xlink:href="../../d1/d69/interfacemodel_1_1_feature.html" target="_top" xlink:title="model.Feature">
<polygon fill="white" stroke="black" points="207,-242.5 207,-261.5 293,-261.5 293,-242.5 207,-242.5"/>
<text text-anchor="middle" x="250" y="-249.5" font-family="Helvetica,sans-Serif" font-size="10.00">model.Feature</text>
</a>
</g>
</g>
<!-- Node9&#45;&gt;Node13 -->
<g id="edge16" class="edge"><title>Node9&#45;&gt;Node13</title>
<path fill="none" stroke="midnightblue" d="M61.3063,-159.809C87.4336,-179.468 134.849,-212.885 180,-233 188.399,-236.742 197.707,-239.908 206.698,-242.518"/>
<polygon fill="midnightblue" stroke="midnightblue" points="63.372,-156.983 53.2958,-153.708 59.1309,-162.552 63.372,-156.983"/>
</g>
<!-- Node28 -->
<g id="node28" class="node"><title>Node28</title>
<g id="a_node28"><a xlink:href="../../de/d6b/classparser_1_1_tokenizer.html" target="_top" xlink:title="parser.Tokenizer">
<polygon fill="white" stroke="black" points="338,-59.5 338,-78.5 432,-78.5 432,-59.5 338,-59.5"/>
<text text-anchor="middle" x="385" y="-66.5" font-family="Helvetica,sans-Serif" font-size="10.00">parser.Tokenizer</text>
</a>
</g>
</g>
<!-- Node9&#45;&gt;Node28 -->
<g id="edge34" class="edge"><title>Node9&#45;&gt;Node28</title>
<path fill="none" stroke="midnightblue" d="M52.7897,-126.264C62.9747,-112.599 79.0231,-94.6282 98,-86 176.221,-50.4351 279.108,-55.1278 337.752,-61.9409"/>
<polygon fill="midnightblue" stroke="midnightblue" points="49.8939,-124.297 46.9716,-134.481 55.6068,-128.342 49.8939,-124.297"/>
</g>
<!-- Node10&#45;&gt;Node8 -->
<g id="edge10" class="edge"><title>Node10&#45;&gt;Node8</title>
<path fill="none" stroke="#9a32cd" stroke-dasharray="5,2" d="M1118.43,-196.368C1146.54,-194.664 1177.22,-192.805 1200.72,-191.381"/>
<polygon fill="#9a32cd" stroke="#9a32cd" points="1117.98,-192.889 1108.21,-196.987 1118.4,-199.876 1117.98,-192.889"/>
<text text-anchor="middle" x="1154" y="-198" font-family="Helvetica,sans-Serif" font-size="10.00"> myIFactory</text>
</g>
<!-- Node11&#45;&gt;Node5 -->
<g id="edge35" class="edge"><title>Node11&#45;&gt;Node5</title>
<path fill="none" stroke="#9a32cd" stroke-dasharray="5,2" d="M847.646,-241.765C946.147,-247.432 1127.52,-255.056 1282,-246 1312.38,-244.219 1319.96,-242.84 1350,-238 1361.33,-236.175 1373.51,-233.852 1384.8,-231.545"/>
<polygon fill="#9a32cd" stroke="#9a32cd" points="847.692,-238.262 837.504,-241.172 847.283,-245.25 847.692,-238.262"/>
<text text-anchor="middle" x="1154" y="-253" font-family="Helvetica,sans-Serif" font-size="10.00"> myData</text>
</g>
<!-- Node11&#45;&gt;Node10 -->
<g id="edge13" class="edge"><title>Node11&#45;&gt;Node10</title>
<path fill="none" stroke="#9a32cd" stroke-dasharray="5,2" d="M847.911,-228.193C880.94,-224.085 920.468,-219.006 956,-214 963.745,-212.909 971.883,-211.712 979.92,-210.501"/>
<polygon fill="#9a32cd" stroke="#9a32cd" points="847.374,-224.733 837.88,-229.435 848.235,-231.679 847.374,-224.733"/>
<text text-anchor="middle" x="906" y="-229" font-family="Helvetica,sans-Serif" font-size="10.00"> myData</text>
</g>
<!-- Node12 -->
<g id="node12" class="node"><title>Node12</title>
<g id="a_node12"><a xlink:href="../../df/db7/classmodel_1_1_turtles_list.html" target="_top" xlink:title="model.TurtlesList">
<polygon fill="white" stroke="black" points="483.5,-209.5 483.5,-228.5 580.5,-228.5 580.5,-209.5 483.5,-209.5"/>
<text text-anchor="middle" x="532" y="-216.5" font-family="Helvetica,sans-Serif" font-size="10.00">model.TurtlesList</text>
</a>
</g>
</g>
<!-- Node12&#45;&gt;Node11 -->
<g id="edge14" class="edge"><title>Node12&#45;&gt;Node11</title>
<path fill="none" stroke="#9a32cd" stroke-dasharray="5,2" d="M591.064,-223.355C627.128,-226.06 673.475,-229.536 710.364,-232.302"/>
<polygon fill="#9a32cd" stroke="#9a32cd" points="590.937,-219.836 580.703,-222.578 590.413,-226.816 590.937,-219.836"/>
<text text-anchor="middle" x="662" y="-233" font-family="Helvetica,sans-Serif" font-size="10.00"> myTurtles</text>
</g>
<!-- Node13&#45;&gt;Node12 -->
<g id="edge15" class="edge"><title>Node13&#45;&gt;Node12</title>
<path fill="none" stroke="midnightblue" d="M303.179,-245.85C354.828,-239.763 433.225,-230.524 483.268,-224.626"/>
<polygon fill="midnightblue" stroke="midnightblue" points="302.744,-242.377 293.222,-247.024 303.563,-249.329 302.744,-242.377"/>
</g>
<!-- Node17 -->
<g id="node17" class="node"><title>Node17</title>
<g id="a_node17"><a xlink:href="../../d6/d34/classmodel_1_1_turtle.html" target="_top" xlink:title="model.Turtle">
<polygon fill="white" stroke="black" points="494.5,-314.5 494.5,-333.5 569.5,-333.5 569.5,-314.5 494.5,-314.5"/>
<text text-anchor="middle" x="532" y="-321.5" font-family="Helvetica,sans-Serif" font-size="10.00">model.Turtle</text>
</a>
</g>
</g>
<!-- Node13&#45;&gt;Node17 -->
<g id="edge22" class="edge"><title>Node13&#45;&gt;Node17</title>
<path fill="none" stroke="midnightblue" d="M303.173,-262.651C339.482,-270.348 388.917,-281.396 432,-293 455.999,-299.464 482.892,-307.967 502.586,-314.433"/>
<polygon fill="midnightblue" stroke="midnightblue" points="303.803,-259.207 293.296,-260.572 302.36,-266.057 303.803,-259.207"/>
</g>
<!-- Node14 -->
<g id="node14" class="node"><title>Node14</title>
<polygon fill="white" stroke="#bfbfbf" points="193,-166.5 193,-185.5 307,-185.5 307,-166.5 193,-166.5"/>
<text text-anchor="middle" x="250" y="-173.5" font-family="Helvetica,sans-Serif" font-size="10.00">List&lt; model.Turtle &gt;</text>
</g>
<!-- Node14&#45;&gt;Node12 -->
<g id="edge17" class="edge"><title>Node14&#45;&gt;Node12</title>
<path fill="none" stroke="#9a32cd" stroke-dasharray="5,2" d="M317.237,-174.381C352.052,-175.202 395.052,-178.888 432,-190 440.764,-192.636 441.464,-196.701 450,-200 460.509,-204.061 472.134,-207.411 483.219,-210.107"/>
<polygon fill="#9a32cd" stroke="#9a32cd" points="317.236,-170.88 307.18,-174.217 317.122,-177.879 317.236,-170.88"/>
<text text-anchor="middle" x="385" y="-193" font-family="Helvetica,sans-Serif" font-size="10.00"> allTurtles</text>
</g>
<!-- Node15 -->
<g id="node15" class="node"><title>Node15</title>
<polygon fill="white" stroke="#bfbfbf" points="180.5,-128.5 180.5,-147.5 319.5,-147.5 319.5,-128.5 180.5,-128.5"/>
<text text-anchor="middle" x="250" y="-135.5" font-family="Helvetica,sans-Serif" font-size="10.00">Stack&lt; List&lt; Integer &gt; &gt;</text>
</g>
<!-- Node15&#45;&gt;Node12 -->
<g id="edge18" class="edge"><title>Node15&#45;&gt;Node12</title>
<path fill="none" stroke="#9a32cd" stroke-dasharray="5,2" d="M329.67,-131.059C364.022,-131.935 402.995,-138.654 432,-160 447.701,-171.555 434.954,-187.603 450,-200 459.364,-207.715 471.304,-212.413 483.121,-215.243"/>
<polygon fill="#9a32cd" stroke="#9a32cd" points="329.68,-127.559 319.646,-130.962 329.612,-134.559 329.68,-127.559"/>
<text text-anchor="middle" x="385" y="-163" font-family="Helvetica,sans-Serif" font-size="10.00"> turtleScope</text>
</g>
<!-- Node16 -->
<g id="node16" class="node"><title>Node16</title>
<polygon fill="white" stroke="#bfbfbf" points="205.5,-204.5 205.5,-223.5 294.5,-223.5 294.5,-204.5 205.5,-204.5"/>
<text text-anchor="middle" x="250" y="-211.5" font-family="Helvetica,sans-Serif" font-size="10.00">List&lt; Integer &gt;</text>
</g>
<!-- Node16&#45;&gt;Node12 -->
<g id="edge19" class="edge"><title>Node16&#45;&gt;Node12</title>
<path fill="none" stroke="#9a32cd" stroke-dasharray="5,2" d="M305.037,-208.975C315.94,-208.152 327.329,-207.429 338,-207 379.744,-205.323 390.298,-204.482 432,-207 448.763,-208.012 467.037,-209.98 483.269,-212.034"/>
<polygon fill="#9a32cd" stroke="#9a32cd" points="304.464,-205.509 294.771,-209.788 305.017,-212.487 304.464,-205.509"/>
<text text-anchor="middle" x="385" y="-210" font-family="Helvetica,sans-Serif" font-size="10.00"> activeIDs</text>
</g>
<!-- Node17&#45;&gt;Node11 -->
<g id="edge20" class="edge"><title>Node17&#45;&gt;Node11</title>
<path fill="none" stroke="#9a32cd" stroke-dasharray="5,2" d="M559.81,-309.773C579.433,-299.733 606.902,-286.442 632,-277 665.223,-264.501 704.106,-253.747 732.616,-246.547"/>
<polygon fill="#9a32cd" stroke="#9a32cd" points="558.125,-306.705 550.853,-314.41 561.342,-312.921 558.125,-306.705"/>
<text text-anchor="middle" x="662" y="-280" font-family="Helvetica,sans-Serif" font-size="10.00"> myTurtle</text>
</g>
<!-- Node18 -->
<g id="node18" class="node"><title>Node18</title>
<g id="a_node18"><a xlink:href="../../d5/dad/classmodel_1_1_turtle_abstract.html" target="_top" xlink:title="model.TurtleAbstract">
<polygon fill="white" stroke="black" points="192,-487.5 192,-506.5 308,-506.5 308,-487.5 192,-487.5"/>
<text text-anchor="middle" x="250" y="-494.5" font-family="Helvetica,sans-Serif" font-size="10.00">model.TurtleAbstract</text>
</a>
</g>
</g>
<!-- Node18&#45;&gt;Node17 -->
<g id="edge21" class="edge"><title>Node18&#45;&gt;Node17</title>
<path fill="none" stroke="midnightblue" d="M318.593,-495.518C363.193,-493.047 416.204,-486.755 432,-471 471.118,-431.985 413.819,-389.753 450,-348 461.046,-335.253 478.513,-329.115 494.404,-326.221"/>
<polygon fill="midnightblue" stroke="midnightblue" points="318.159,-492.035 308.346,-496.029 318.508,-499.027 318.159,-492.035"/>
</g>
<!-- Node19 -->
<g id="node19" class="node"><title>Node19</title>
<polygon fill="white" stroke="#bfbfbf" points="226.5,-449.5 226.5,-468.5 273.5,-468.5 273.5,-449.5 226.5,-449.5"/>
<text text-anchor="middle" x="250" y="-456.5" font-family="Helvetica,sans-Serif" font-size="10.00">Tooltip</text>
</g>
<!-- Node19&#45;&gt;Node17 -->
<g id="edge23" class="edge"><title>Node19&#45;&gt;Node17</title>
<path fill="none" stroke="#9a32cd" stroke-dasharray="5,2" d="M283.878,-459.048C330.132,-458.402 411.115,-454.43 432,-435 460.91,-408.105 423.277,-377.069 450,-348 461.316,-335.691 478.616,-329.585 494.327,-326.599"/>
<polygon fill="#9a32cd" stroke="#9a32cd" points="283.712,-455.549 273.746,-459.144 283.779,-462.549 283.712,-455.549"/>
<text text-anchor="middle" x="385" y="-459" font-family="Helvetica,sans-Serif" font-size="10.00"> myTurtleInfo</text>
</g>
<!-- Node20 -->
<g id="node20" class="node"><title>Node20</title>
<polygon fill="white" stroke="#bfbfbf" points="216,-411.5 216,-430.5 284,-430.5 284,-411.5 216,-411.5"/>
<text text-anchor="middle" x="250" y="-418.5" font-family="Helvetica,sans-Serif" font-size="10.00">ImageView</text>
</g>
<!-- Node20&#45;&gt;Node17 -->
<g id="edge24" class="edge"><title>Node20&#45;&gt;Node17</title>
<path fill="none" stroke="#9a32cd" stroke-dasharray="5,2" d="M294.454,-421.698C341.17,-421.553 411.505,-418.466 432,-402 451.722,-386.155 431.813,-365.585 450,-348 461.81,-336.582 478.79,-330.561 494.156,-327.4"/>
<polygon fill="#9a32cd" stroke="#9a32cd" points="294.296,-418.197 284.291,-421.684 294.286,-425.197 294.296,-418.197"/>
<text text-anchor="middle" x="385" y="-423" font-family="Helvetica,sans-Serif" font-size="10.00"> myImage</text>
</g>
<!-- Node21 -->
<g id="node21" class="node"><title>Node21</title>
<g id="a_node21"><a xlink:href="../../de/ded/classmodel_1_1_pen.html" target="_top" xlink:title="model.Pen">
<polygon fill="white" stroke="black" points="216,-572.5 216,-591.5 284,-591.5 284,-572.5 216,-572.5"/>
<text text-anchor="middle" x="250" y="-579.5" font-family="Helvetica,sans-Serif" font-size="10.00">model.Pen</text>
</a>
</g>
</g>
<!-- Node21&#45;&gt;Node17 -->
<g id="edge25" class="edge"><title>Node21&#45;&gt;Node17</title>
<path fill="none" stroke="#9a32cd" stroke-dasharray="5,2" d="M293.998,-573.664C336.101,-563.128 398.643,-540.686 432,-496 462.947,-454.543 422.677,-424.929 450,-381 463.804,-358.806 489.772,-342.872 508.592,-333.59"/>
<polygon fill="#9a32cd" stroke="#9a32cd" points="292.948,-570.316 284.028,-576.033 294.566,-577.126 292.948,-570.316"/>
<text text-anchor="middle" x="385" y="-562" font-family="Helvetica,sans-Serif" font-size="10.00"> myPen</text>
</g>
<!-- Node22 -->
<g id="node22" class="node"><title>Node22</title>
<polygon fill="white" stroke="#bfbfbf" points="0,-607.5 0,-626.5 80,-626.5 80,-607.5 0,-607.5"/>
<text text-anchor="middle" x="40" y="-614.5" font-family="Helvetica,sans-Serif" font-size="10.00">List&lt; Color &gt;</text>
</g>
<!-- Node22&#45;&gt;Node21 -->
<g id="edge26" class="edge"><title>Node22&#45;&gt;Node21</title>
<path fill="none" stroke="#9a32cd" stroke-dasharray="5,2" d="M90.1563,-608.729C128.944,-602.202 181.989,-593.276 215.878,-587.573"/>
<polygon fill="#9a32cd" stroke="#9a32cd" points="89.4038,-605.306 80.1232,-610.417 90.5654,-612.209 89.4038,-605.306"/>
<text text-anchor="middle" x="130" y="-609" font-family="Helvetica,sans-Serif" font-size="10.00"> myCustom</text>
</g>
<!-- Node23 -->
<g id="node23" class="node"><title>Node23</title>
<polygon fill="white" stroke="#bfbfbf" points="19.5,-569.5 19.5,-588.5 60.5,-588.5 60.5,-569.5 19.5,-569.5"/>
<text text-anchor="middle" x="40" y="-576.5" font-family="Helvetica,sans-Serif" font-size="10.00">Color</text>
</g>
<!-- Node23&#45;&gt;Node21 -->
<g id="edge27" class="edge"><title>Node23&#45;&gt;Node21</title>
<path fill="none" stroke="#9a32cd" stroke-dasharray="5,2" d="M70.5888,-579.427C108.944,-579.98 175.648,-580.942 215.725,-581.52"/>
<polygon fill="#9a32cd" stroke="#9a32cd" points="70.6176,-575.927 60.5681,-579.282 70.5166,-582.926 70.6176,-575.927"/>
<text text-anchor="middle" x="130" y="-583" font-family="Helvetica,sans-Serif" font-size="10.00"> myLineColor</text>
</g>
<!-- Node24 -->
<g id="node24" class="node"><title>Node24</title>
<polygon fill="white" stroke="#bfbfbf" points="226.5,-370.5 226.5,-389.5 273.5,-389.5 273.5,-370.5 226.5,-370.5"/>
<text text-anchor="middle" x="250" y="-377.5" font-family="Helvetica,sans-Serif" font-size="10.00">Image</text>
</g>
<!-- Node24&#45;&gt;Node17 -->
<g id="edge28" class="edge"><title>Node24&#45;&gt;Node17</title>
<path fill="none" stroke="#9a32cd" stroke-dasharray="5,2" d="M283.783,-379.775C320.678,-378.669 381.991,-374.241 432,-358 440.704,-355.173 441.562,-351.543 450,-348 464.064,-342.094 480.069,-337.026 494.117,-333.089"/>
<polygon fill="#9a32cd" stroke="#9a32cd" points="283.521,-376.28 273.605,-380.014 283.685,-383.278 283.521,-376.28"/>
<text text-anchor="middle" x="385" y="-390" font-family="Helvetica,sans-Serif" font-size="10.00"> myDefaultOn</text>
<text text-anchor="middle" x="385" y="-379" font-family="Helvetica,sans-Serif" font-size="10.00">myDefaultOff</text>
</g>
<!-- Node25 -->
<g id="node25" class="node"><title>Node25</title>
<polygon fill="white" stroke="#bfbfbf" points="227,-318.5 227,-337.5 273,-337.5 273,-318.5 227,-318.5"/>
<text text-anchor="middle" x="250" y="-325.5" font-family="Helvetica,sans-Serif" font-size="10.00">Group</text>
</g>
<!-- Node25&#45;&gt;Node17 -->
<g id="edge29" class="edge"><title>Node25&#45;&gt;Node17</title>
<path fill="none" stroke="#9a32cd" stroke-dasharray="5,2" d="M283.317,-326.66C299.697,-326.039 319.903,-325.359 338,-325 392.439,-323.921 455.531,-323.809 494.356,-323.871"/>
<polygon fill="#9a32cd" stroke="#9a32cd" points="283.021,-323.169 273.165,-327.057 283.294,-330.164 283.021,-323.169"/>
<text text-anchor="middle" x="385" y="-350" font-family="Helvetica,sans-Serif" font-size="10.00"> myLines</text>
<text text-anchor="middle" x="385" y="-339" font-family="Helvetica,sans-Serif" font-size="10.00">myStamps</text>
<text text-anchor="middle" x="385" y="-328" font-family="Helvetica,sans-Serif" font-size="10.00">myDrawing</text>
</g>
<!-- Node26 -->
<g id="node26" class="node"><title>Node26</title>
<polygon fill="white" stroke="#bfbfbf" points="180,-280.5 180,-299.5 320,-299.5 320,-280.5 180,-280.5"/>
<text text-anchor="middle" x="250" y="-287.5" font-family="Helvetica,sans-Serif" font-size="10.00">ObservableList&lt; Image &gt;</text>
</g>
<!-- Node26&#45;&gt;Node17 -->
<g id="edge30" class="edge"><title>Node26&#45;&gt;Node17</title>
<path fill="none" stroke="#9a32cd" stroke-dasharray="5,2" d="M330.393,-296.837C362.053,-299.84 398.8,-303.67 432,-308 452.717,-310.702 475.765,-314.386 494.406,-317.538"/>
<polygon fill="#9a32cd" stroke="#9a32cd" points="330.586,-293.34 320.303,-295.892 329.933,-300.309 330.586,-293.34"/>
<text text-anchor="middle" x="385" y="-311" font-family="Helvetica,sans-Serif" font-size="10.00"> myTurtleShapes</text>
</g>
<!-- Node27 -->
<g id="node27" class="node"><title>Node27</title>
<polygon fill="white" stroke="#bfbfbf" points="450.5,-171.5 450.5,-190.5 613.5,-190.5 613.5,-171.5 450.5,-171.5"/>
<text text-anchor="middle" x="532" y="-178.5" font-family="Helvetica,sans-Serif" font-size="10.00">Map&lt; String, model.Feature &gt;</text>
</g>
<!-- Node27&#45;&gt;Node11 -->
<g id="edge32" class="edge"><title>Node27&#45;&gt;Node11</title>
<path fill="none" stroke="#9a32cd" stroke-dasharray="5,2" d="M603.08,-192.287C630.927,-197.275 663.143,-203.676 692,-211 710.324,-215.65 730.574,-222.15 746.243,-227.488"/>
<polygon fill="#9a32cd" stroke="#9a32cd" points="603.489,-188.805 593.032,-190.514 602.272,-195.699 603.489,-188.805"/>
<text text-anchor="middle" x="662" y="-214" font-family="Helvetica,sans-Serif" font-size="10.00"> myFeatures</text>
</g>
<!-- Node28&#45;&gt;Node8 -->
<g id="edge33" class="edge"><title>Node28&#45;&gt;Node8</title>
<path fill="none" stroke="#9a32cd" stroke-dasharray="5,2" d="M442.318,-73.3406C527.937,-80.1693 695.915,-94.4675 838,-112 958.462,-126.864 988.625,-131.053 1108,-153 1141.09,-159.084 1149.59,-159.944 1182,-169 1192.77,-172.01 1204.46,-175.915 1214.51,-179.475"/>
<polygon fill="#9a32cd" stroke="#9a32cd" points="442.537,-69.8471 432.292,-72.5452 441.984,-76.8252 442.537,-69.8471"/>
<text text-anchor="middle" x="774" y="-115" font-family="Helvetica,sans-Serif" font-size="10.00"> myTokenizer</text>
</g>
<!-- Node29 -->
<g id="node29" class="node"><title>Node29</title>
<polygon fill="white" stroke="#bfbfbf" points="1369,-81.5 1369,-100.5 1489,-100.5 1489,-81.5 1369,-81.5"/>
<text text-anchor="middle" x="1429" y="-88.5" font-family="Helvetica,sans-Serif" font-size="10.00">ComboBox&lt; String &gt;</text>
</g>
<!-- Node29&#45;&gt;Node1 -->
<g id="edge36" class="edge"><title>Node29&#45;&gt;Node1</title>
<path fill="none" stroke="#9a32cd" stroke-dasharray="5,2" d="M1499.37,-87.1991C1529.97,-87.8283 1565.77,-91.803 1596,-104 1621.24,-114.187 1644.26,-137.281 1655.94,-150.409"/>
<polygon fill="#9a32cd" stroke="#9a32cd" points="1499.23,-83.6978 1489.2,-87.1069 1499.17,-90.6976 1499.23,-83.6978"/>
<text text-anchor="middle" x="1552" y="-107" font-family="Helvetica,sans-Serif" font-size="10.00"> myLineProperties</text>
</g>
<!-- Node30 -->
<g id="node30" class="node"><title>Node30</title>
<polygon fill="white" stroke="#bfbfbf" points="1407,-43.5 1407,-62.5 1451,-62.5 1451,-43.5 1407,-43.5"/>
<text text-anchor="middle" x="1429" y="-50.5" font-family="Helvetica,sans-Serif" font-size="10.00">Slider</text>
</g>
<!-- Node30&#45;&gt;Node1 -->
<g id="edge37" class="edge"><title>Node30&#45;&gt;Node1</title>
<path fill="none" stroke="#9a32cd" stroke-dasharray="5,2" d="M1461.38,-49.6363C1496.5,-47.3779 1553.98,-48.3065 1596,-72 1628.63,-90.3977 1650.85,-131.448 1659.71,-150.253"/>
<polygon fill="#9a32cd" stroke="#9a32cd" points="1460.95,-46.1596 1451.24,-50.4178 1461.48,-53.1389 1460.95,-46.1596"/>
<text text-anchor="middle" x="1552" y="-75" font-family="Helvetica,sans-Serif" font-size="10.00"> myPenSize</text>
</g>
<!-- Node31 -->
<g id="node31" class="node"><title>Node31</title>
<polygon fill="white" stroke="#bfbfbf" points="1394,-0.5 1394,-19.5 1464,-19.5 1464,-0.5 1394,-0.5"/>
<text text-anchor="middle" x="1429" y="-7.5" font-family="Helvetica,sans-Serif" font-size="10.00">ColorPicker</text>
</g>
<!-- Node31&#45;&gt;Node1 -->
<g id="edge39" class="edge"><title>Node31&#45;&gt;Node1</title>
<path fill="none" stroke="#9a32cd" stroke-dasharray="5,2" d="M1474.2,-2.60807C1510.07,0.951259 1560.37,0.146455 1596,-24 1641.23,-54.6575 1657.78,-124.656 1662.45,-150.329"/>
<polygon fill="#9a32cd" stroke="#9a32cd" points="1473.56,0.842017 1464.02,-3.77144 1474.36,-6.11267 1473.56,0.842017"/>
<text text-anchor="middle" x="1552" y="-38" font-family="Helvetica,sans-Serif" font-size="10.00"> myBGColor</text>
<text text-anchor="middle" x="1552" y="-27" font-family="Helvetica,sans-Serif" font-size="10.00">myPenColor</text>
</g>
</g>
</svg>
