<?xml version="1.0" encoding="UTF-8" standalone="no"?>
<!DOCTYPE svg PUBLIC "-//W3C//DTD SVG 1.1//EN"
 "http://www.w3.org/Graphics/SVG/1.1/DTD/svg11.dtd">
<!-- Generated by graphviz version 2.36.0 (20140111.2315)
 -->
<!-- Title: instructions.ZeroParamInstruction Pages: 1 -->
<svg width="684pt" height="716pt"
 viewBox="0.00 0.00 684.00 716.00" xmlns="http://www.w3.org/2000/svg" xmlns:xlink="http://www.w3.org/1999/xlink">
<g id="graph0" class="graph" transform="scale(1 1) rotate(0) translate(4 712)">
<title>instructions.ZeroParamInstruction</title>
<polygon fill="white" stroke="none" points="-4,4 -4,-712 680,-712 680,4 -4,4"/>
<!-- Node1 -->
<g id="node1" class="node"><title>Node1</title>
<polygon fill="#bfbfbf" stroke="black" points="270.5,-322.5 270.5,-341.5 449.5,-341.5 449.5,-322.5 270.5,-322.5"/>
<text text-anchor="middle" x="360" y="-329.5" font-family="Helvetica,sans-Serif" font-size="10.00">instructions.ZeroParamInstruction</text>
</g>
<!-- Node4 -->
<g id="node4" class="node"><title>Node4</title>
<g id="a_node4"><a xlink:href="../../dd/d40/classinstructions_1_1commands_1_1_clear_screen.html" target="_top" xlink:title="instructions.commands.Clear\lScreen">
<polygon fill="white" stroke="black" points="502.5,-678 502.5,-708 659.5,-708 659.5,-678 502.5,-678"/>
<text text-anchor="start" x="510.5" y="-696" font-family="Helvetica,sans-Serif" font-size="10.00">instructions.commands.Clear</text>
<text text-anchor="middle" x="581" y="-685" font-family="Helvetica,sans-Serif" font-size="10.00">Screen</text>
</a>
</g>
</g>
<!-- Node1&#45;&gt;Node4 -->
<g id="edge3" class="edge"><title>Node1&#45;&gt;Node4</title>
<path fill="none" stroke="midnightblue" d="M362.253,-351.748C367.015,-409.565 389.026,-579.935 486,-668 490.875,-672.428 496.447,-676.086 502.389,-679.108"/>
<polygon fill="midnightblue" stroke="midnightblue" points="365.741,-351.458 361.514,-341.743 358.76,-351.974 365.741,-351.458"/>
</g>
<!-- Node5 -->
<g id="node5" class="node"><title>Node5</title>
<g id="a_node5"><a xlink:href="../../d3/d91/classinstructions_1_1commands_1_1_clear_stamps.html" target="_top" xlink:title="instructions.commands.Clear\lStamps">
<polygon fill="white" stroke="black" points="502.5,-629 502.5,-659 659.5,-659 659.5,-629 502.5,-629"/>
<text text-anchor="start" x="510.5" y="-647" font-family="Helvetica,sans-Serif" font-size="10.00">instructions.commands.Clear</text>
<text text-anchor="middle" x="581" y="-636" font-family="Helvetica,sans-Serif" font-size="10.00">Stamps</text>
</a>
</g>
</g>
<!-- Node1&#45;&gt;Node5 -->
<g id="edge4" class="edge"><title>Node1&#45;&gt;Node5</title>
<path fill="none" stroke="midnightblue" d="M363.629,-351.591C371.661,-403.523 400.757,-545.733 486,-619 490.866,-623.183 496.359,-626.675 502.185,-629.588"/>
<polygon fill="midnightblue" stroke="midnightblue" points="367.09,-351.073 362.187,-341.681 360.163,-352.081 367.09,-351.073"/>
</g>
<!-- Node6 -->
<g id="node6" class="node"><title>Node6</title>
<g id="a_node6"><a xlink:href="../../dc/dbc/classinstructions_1_1commands_1_1_heading.html" target="_top" xlink:title="instructions.commands.Heading">
<polygon fill="white" stroke="black" points="495,-590.5 495,-609.5 667,-609.5 667,-590.5 495,-590.5"/>
<text text-anchor="middle" x="581" y="-597.5" font-family="Helvetica,sans-Serif" font-size="10.00">instructions.commands.Heading</text>
</a>
</g>
</g>
<!-- Node1&#45;&gt;Node6 -->
<g id="edge5" class="edge"><title>Node1&#45;&gt;Node6</title>
<path fill="none" stroke="midnightblue" d="M364.855,-351.657C375.236,-399.064 408.405,-520.177 486,-580 491.55,-584.279 497.809,-587.692 504.395,-590.408"/>
<polygon fill="midnightblue" stroke="midnightblue" points="368.256,-350.82 362.787,-341.746 361.404,-352.25 368.256,-350.82"/>
</g>
<!-- Node7 -->
<g id="node7" class="node"><title>Node7</title>
<g id="a_node7"><a xlink:href="../../d7/d53/classinstructions_1_1commands_1_1_hide_turtle.html" target="_top" xlink:title="instructions.commands.Hide\lTurtle">
<polygon fill="white" stroke="black" points="504,-541 504,-571 658,-571 658,-541 504,-541"/>
<text text-anchor="start" x="512" y="-559" font-family="Helvetica,sans-Serif" font-size="10.00">instructions.commands.Hide</text>
<text text-anchor="middle" x="581" y="-548" font-family="Helvetica,sans-Serif" font-size="10.00">Turtle</text>
</a>
</g>
</g>
<!-- Node1&#45;&gt;Node7 -->
<g id="edge6" class="edge"><title>Node1&#45;&gt;Node7</title>
<path fill="none" stroke="midnightblue" d="M367.559,-351.276C382.173,-391.236 421.309,-483.341 486,-531 491.438,-535.006 497.472,-538.371 503.782,-541.197"/>
<polygon fill="midnightblue" stroke="midnightblue" points="370.796,-349.931 364.157,-341.675 364.198,-352.269 370.796,-349.931"/>
</g>
<!-- Node8 -->
<g id="node8" class="node"><title>Node8</title>
<g id="a_node8"><a xlink:href="../../d3/d16/classinstructions_1_1commands_1_1_home.html" target="_top" xlink:title="instructions.commands.Home">
<polygon fill="white" stroke="black" points="500.5,-502.5 500.5,-521.5 661.5,-521.5 661.5,-502.5 500.5,-502.5"/>
<text text-anchor="middle" x="581" y="-509.5" font-family="Helvetica,sans-Serif" font-size="10.00">instructions.commands.Home</text>
</a>
</g>
</g>
<!-- Node1&#45;&gt;Node8 -->
<g id="edge7" class="edge"><title>Node1&#45;&gt;Node8</title>
<path fill="none" stroke="midnightblue" d="M369.914,-350.861C387.153,-385.126 428.491,-457.342 486,-493 492.226,-496.86 499.089,-499.955 506.185,-502.433"/>
<polygon fill="midnightblue" stroke="midnightblue" points="372.886,-348.972 365.347,-341.528 366.599,-352.049 372.886,-348.972"/>
</g>
<!-- Node9 -->
<g id="node9" class="node"><title>Node9</title>
<g id="a_node9"><a xlink:href="../../dd/d3f/classinstructions_1_1commands_1_1_i_d.html" target="_top" xlink:title="instructions.commands.ID">
<polygon fill="white" stroke="black" points="510,-464.5 510,-483.5 652,-483.5 652,-464.5 510,-464.5"/>
<text text-anchor="middle" x="581" y="-471.5" font-family="Helvetica,sans-Serif" font-size="10.00">instructions.commands.ID</text>
</a>
</g>
</g>
<!-- Node1&#45;&gt;Node9 -->
<g id="edge8" class="edge"><title>Node1&#45;&gt;Node9</title>
<path fill="none" stroke="midnightblue" d="M373.969,-349.989C394.511,-377.067 437.239,-427.901 486,-454 494.091,-458.33 503.044,-461.723 512.115,-464.382"/>
<polygon fill="midnightblue" stroke="midnightblue" points="376.649,-347.728 367.876,-341.787 371.029,-351.902 376.649,-347.728"/>
</g>
<!-- Node10 -->
<g id="node10" class="node"><title>Node10</title>
<g id="a_node10"><a xlink:href="../../db/d37/classinstructions_1_1commands_1_1_is_pen_down.html" target="_top" xlink:title="instructions.commands.Is\lPenDown">
<polygon fill="white" stroke="black" points="511,-415 511,-445 651,-445 651,-415 511,-415"/>
<text text-anchor="start" x="519" y="-433" font-family="Helvetica,sans-Serif" font-size="10.00">instructions.commands.Is</text>
<text text-anchor="middle" x="581" y="-422" font-family="Helvetica,sans-Serif" font-size="10.00">PenDown</text>
</a>
</g>
</g>
<!-- Node1&#45;&gt;Node10 -->
<g id="edge9" class="edge"><title>Node1&#45;&gt;Node10</title>
<path fill="none" stroke="midnightblue" d="M383.065,-347.361C407.328,-363.648 447.937,-389.164 486,-405 494.965,-408.73 504.645,-412.045 514.266,-414.944"/>
<polygon fill="midnightblue" stroke="midnightblue" points="384.844,-344.338 374.606,-341.61 380.908,-350.127 384.844,-344.338"/>
</g>
<!-- Node11 -->
<g id="node11" class="node"><title>Node11</title>
<g id="a_node11"><a xlink:href="../../dd/d05/classinstructions_1_1commands_1_1_is_showing.html" target="_top" xlink:title="instructions.commands.Is\lShowing">
<polygon fill="white" stroke="black" points="511,-366 511,-396 651,-396 651,-366 511,-366"/>
<text text-anchor="start" x="519" y="-384" font-family="Helvetica,sans-Serif" font-size="10.00">instructions.commands.Is</text>
<text text-anchor="middle" x="581" y="-373" font-family="Helvetica,sans-Serif" font-size="10.00">Showing</text>
</a>
</g>
</g>
<!-- Node1&#45;&gt;Node11 -->
<g id="edge10" class="edge"><title>Node1&#45;&gt;Node11</title>
<path fill="none" stroke="midnightblue" d="M413.262,-343.693C443.037,-350.355 480.667,-358.775 512.641,-365.929"/>
<polygon fill="midnightblue" stroke="midnightblue" points="414.008,-340.274 403.485,-341.506 412.48,-347.105 414.008,-340.274"/>
</g>
<!-- Node12 -->
<g id="node12" class="node"><title>Node12</title>
<g id="a_node12"><a xlink:href="../../d9/d38/classinstructions_1_1commands_1_1_num_turtles.html" target="_top" xlink:title="instructions.commands.Num\lTurtles">
<polygon fill="white" stroke="black" points="503.5,-317 503.5,-347 658.5,-347 658.5,-317 503.5,-317"/>
<text text-anchor="start" x="511.5" y="-335" font-family="Helvetica,sans-Serif" font-size="10.00">instructions.commands.Num</text>
<text text-anchor="middle" x="581" y="-324" font-family="Helvetica,sans-Serif" font-size="10.00">Turtles</text>
</a>
</g>
</g>
<!-- Node1&#45;&gt;Node12 -->
<g id="edge11" class="edge"><title>Node1&#45;&gt;Node12</title>
<path fill="none" stroke="midnightblue" d="M459.831,-332C474.456,-332 489.337,-332 503.418,-332"/>
<polygon fill="midnightblue" stroke="midnightblue" points="459.76,-328.5 449.76,-332 459.76,-335.5 459.76,-328.5"/>
</g>
<!-- Node13 -->
<g id="node13" class="node"><title>Node13</title>
<g id="a_node13"><a xlink:href="../../dc/df9/classinstructions_1_1commands_1_1_pen_down.html" target="_top" xlink:title="instructions.commands.PenDown">
<polygon fill="white" stroke="black" points="493,-278.5 493,-297.5 669,-297.5 669,-278.5 493,-278.5"/>
<text text-anchor="middle" x="581" y="-285.5" font-family="Helvetica,sans-Serif" font-size="10.00">instructions.commands.PenDown</text>
</a>
</g>
</g>
<!-- Node1&#45;&gt;Node13 -->
<g id="edge12" class="edge"><title>Node1&#45;&gt;Node13</title>
<path fill="none" stroke="midnightblue" d="M418.736,-320.4C454.235,-313.268 499.161,-304.242 532.573,-297.529"/>
<polygon fill="midnightblue" stroke="midnightblue" points="417.634,-317.051 408.52,-322.453 419.013,-323.914 417.634,-317.051"/>
</g>
<!-- Node14 -->
<g id="node14" class="node"><title>Node14</title>
<g id="a_node14"><a xlink:href="../../d6/d1f/classinstructions_1_1commands_1_1_pen_up.html" target="_top" xlink:title="instructions.commands.PenUp">
<polygon fill="white" stroke="black" points="499,-240.5 499,-259.5 663,-259.5 663,-240.5 499,-240.5"/>
<text text-anchor="middle" x="581" y="-247.5" font-family="Helvetica,sans-Serif" font-size="10.00">instructions.commands.PenUp</text>
</a>
</g>
</g>
<!-- Node1&#45;&gt;Node14 -->
<g id="edge13" class="edge"><title>Node1&#45;&gt;Node14</title>
<path fill="none" stroke="midnightblue" d="M385.229,-317.326C409.807,-303.041 449.345,-281.684 486,-269 496.857,-265.243 508.69,-262.131 520.184,-259.59"/>
<polygon fill="midnightblue" stroke="midnightblue" points="383.419,-314.33 376.579,-322.422 386.972,-320.361 383.419,-314.33"/>
</g>
<!-- Node15 -->
<g id="node15" class="node"><title>Node15</title>
<g id="a_node15"><a xlink:href="../../df/df6/classinstructions_1_1commands_1_1_pi_constant.html" target="_top" xlink:title="instructions.commands.Pi\lConstant">
<polygon fill="white" stroke="black" points="511,-191 511,-221 651,-221 651,-191 511,-191"/>
<text text-anchor="start" x="519" y="-209" font-family="Helvetica,sans-Serif" font-size="10.00">instructions.commands.Pi</text>
<text text-anchor="middle" x="581" y="-198" font-family="Helvetica,sans-Serif" font-size="10.00">Constant</text>
</a>
</g>
</g>
<!-- Node1&#45;&gt;Node15 -->
<g id="edge14" class="edge"><title>Node1&#45;&gt;Node15</title>
<path fill="none" stroke="midnightblue" d="M377.079,-315.172C399.444,-292.731 442.16,-253.257 486,-231 493.83,-227.025 502.357,-223.633 510.976,-220.752"/>
<polygon fill="midnightblue" stroke="midnightblue" points="374.55,-312.752 370.049,-322.343 379.549,-317.653 374.55,-312.752"/>
</g>
<!-- Node16 -->
<g id="node16" class="node"><title>Node16</title>
<g id="a_node16"><a xlink:href="../../db/d7c/classinstructions_1_1commands_1_1_stamp.html" target="_top" xlink:title="instructions.commands.Stamp">
<polygon fill="white" stroke="black" points="499,-152.5 499,-171.5 663,-171.5 663,-152.5 499,-152.5"/>
<text text-anchor="middle" x="581" y="-159.5" font-family="Helvetica,sans-Serif" font-size="10.00">instructions.commands.Stamp</text>
</a>
</g>
</g>
<!-- Node1&#45;&gt;Node16 -->
<g id="edge15" class="edge"><title>Node1&#45;&gt;Node16</title>
<path fill="none" stroke="midnightblue" d="M370.747,-313.383C388.8,-280.882 430.692,-214.107 486,-181 492.429,-177.152 499.502,-174.07 506.794,-171.603"/>
<polygon fill="midnightblue" stroke="midnightblue" points="367.606,-311.834 365.922,-322.294 373.761,-315.167 367.606,-311.834"/>
</g>
<!-- Node17 -->
<g id="node17" class="node"><title>Node17</title>
<g id="a_node17"><a xlink:href="../../d0/d94/classinstructions_1_1commands_1_1_x_coordinate.html" target="_top" xlink:title="instructions.commands.XCoordinate">
<polygon fill="white" stroke="black" points="486,-114.5 486,-133.5 676,-133.5 676,-114.5 486,-114.5"/>
<text text-anchor="middle" x="581" y="-121.5" font-family="Helvetica,sans-Serif" font-size="10.00">instructions.commands.XCoordinate</text>
</a>
</g>
</g>
<!-- Node1&#45;&gt;Node17 -->
<g id="edge16" class="edge"><title>Node1&#45;&gt;Node17</title>
<path fill="none" stroke="midnightblue" d="M367.933,-312.588C382.911,-273.635 422.184,-186.002 486,-143 491.661,-139.185 497.92,-136.105 504.44,-133.622"/>
<polygon fill="midnightblue" stroke="midnightblue" points="364.561,-311.614 364.352,-322.206 371.121,-314.056 364.561,-311.614"/>
</g>
<!-- Node18 -->
<g id="node18" class="node"><title>Node18</title>
<g id="a_node18"><a xlink:href="../../d8/d5d/classinstructions_1_1commands_1_1_y_coordinate.html" target="_top" xlink:title="instructions.commands.YCoordinate">
<polygon fill="white" stroke="black" points="486.5,-76.5 486.5,-95.5 675.5,-95.5 675.5,-76.5 486.5,-76.5"/>
<text text-anchor="middle" x="581" y="-83.5" font-family="Helvetica,sans-Serif" font-size="10.00">instructions.commands.YCoordinate</text>
</a>
</g>
</g>
<!-- Node1&#45;&gt;Node18 -->
<g id="edge17" class="edge"><title>Node1&#45;&gt;Node18</title>
<path fill="none" stroke="midnightblue" d="M365.743,-312.46C377.634,-267.905 413.126,-158.519 486,-105 491.234,-101.156 497.054,-98.043 503.161,-95.5265"/>
<polygon fill="midnightblue" stroke="midnightblue" points="362.309,-311.762 363.22,-322.317 369.09,-313.498 362.309,-311.762"/>
</g>
<!-- Node19 -->
<g id="node19" class="node"><title>Node19</title>
<g id="a_node19"><a xlink:href="../../dc/d9d/classinstructions_1_1_constant_instruction.html" target="_top" xlink:title="instructions.ConstantInstruction">
<polygon fill="white" stroke="black" points="496.5,-38.5 496.5,-57.5 665.5,-57.5 665.5,-38.5 496.5,-38.5"/>
<text text-anchor="middle" x="581" y="-45.5" font-family="Helvetica,sans-Serif" font-size="10.00">instructions.ConstantInstruction</text>
</a>
</g>
</g>
<!-- Node1&#45;&gt;Node19 -->
<g id="edge18" class="edge"><title>Node1&#45;&gt;Node19</title>
<path fill="none" stroke="midnightblue" d="M364.13,-312.319C373.133,-262.599 403.912,-131.335 486,-67 490.849,-63.2 496.259,-60.1015 501.968,-57.5812"/>
<polygon fill="midnightblue" stroke="midnightblue" points="360.645,-311.936 362.409,-322.383 367.545,-313.116 360.645,-311.936"/>
</g>
<!-- Node20 -->
<g id="node20" class="node"><title>Node20</title>
<g id="a_node20"><a xlink:href="../../dc/dc1/classinstructions_1_1_list_instruction.html" target="_top" xlink:title="instructions.ListInstruction">
<polygon fill="white" stroke="black" points="510,-0.5 510,-19.5 652,-19.5 652,-0.5 510,-0.5"/>
<text text-anchor="middle" x="581" y="-7.5" font-family="Helvetica,sans-Serif" font-size="10.00">instructions.ListInstruction</text>
</a>
</g>
</g>
<!-- Node1&#45;&gt;Node20 -->
<g id="edge19" class="edge"><title>Node1&#45;&gt;Node20</title>
<path fill="none" stroke="midnightblue" d="M362.886,-312.13C369.187,-257.544 394.591,-104.364 486,-29 492.937,-23.2807 501.13,-19.1288 509.74,-16.1375"/>
<polygon fill="midnightblue" stroke="midnightblue" points="359.391,-311.904 361.815,-322.218 366.352,-312.643 359.391,-311.904"/>
</g>
<!-- Node2 -->
<g id="node2" class="node"><title>Node2</title>
<g id="a_node2"><a xlink:href="../../d2/d93/interfaceinstructions_1_1_instruction.html" target="_top" xlink:title="instructions.Instruction">
<polygon fill="white" stroke="black" points="108.5,-322.5 108.5,-341.5 233.5,-341.5 233.5,-322.5 108.5,-322.5"/>
<text text-anchor="middle" x="171" y="-329.5" font-family="Helvetica,sans-Serif" font-size="10.00">instructions.Instruction</text>
</a>
</g>
</g>
<!-- Node2&#45;&gt;Node1 -->
<g id="edge1" class="edge"><title>Node2&#45;&gt;Node1</title>
<path fill="none" stroke="midnightblue" d="M243.782,-332C252.449,-332 261.379,-332 270.251,-332"/>
<polygon fill="midnightblue" stroke="midnightblue" points="243.749,-328.5 233.749,-332 243.749,-335.5 243.749,-328.5"/>
</g>
<!-- Node3 -->
<g id="node3" class="node"><title>Node3</title>
<polygon fill="white" stroke="#bfbfbf" points="0.5,-322.5 0.5,-341.5 71.5,-341.5 71.5,-322.5 0.5,-322.5"/>
<text text-anchor="middle" x="36" y="-329.5" font-family="Helvetica,sans-Serif" font-size="10.00">Serializable</text>
</g>
<!-- Node3&#45;&gt;Node2 -->
<g id="edge2" class="edge"><title>Node3&#45;&gt;Node2</title>
<path fill="none" stroke="midnightblue" d="M81.697,-332C90.2324,-332 99.3067,-332 108.265,-332"/>
<polygon fill="midnightblue" stroke="midnightblue" points="81.597,-328.5 71.597,-332 81.597,-335.5 81.597,-328.5"/>
</g>
</g>
</svg>
