<?xml version="1.0" encoding="UTF-8" standalone="no"?>
<!DOCTYPE svg PUBLIC "-//W3C//DTD SVG 1.1//EN"
 "http://www.w3.org/Graphics/SVG/1.1/DTD/svg11.dtd">
<!-- Generated by graphviz version 2.36.0 (20140111.2315)
 -->
<!-- Title: instructions.commands.Backward Pages: 1 -->
<svg width="315pt" height="270pt"
 viewBox="0.00 0.00 315.00 270.00" xmlns="http://www.w3.org/2000/svg" xmlns:xlink="http://www.w3.org/1999/xlink">
<g id="graph0" class="graph" transform="scale(1 1) rotate(0) translate(4 266)">
<title>instructions.commands.Backward</title>
<polygon fill="white" stroke="none" points="-4,4 -4,-266 311,-266 311,4 -4,4"/>
<!-- Node1 -->
<g id="node1" class="node"><title>Node1</title>
<polygon fill="#bfbfbf" stroke="black" points="95,-0.5 95,-19.5 273,-19.5 273,-0.5 95,-0.5"/>
<text text-anchor="middle" x="184" y="-7.5" font-family="Helvetica,sans-Serif" font-size="10.00">instructions.commands.Backward</text>
</g>
<!-- Node2 -->
<g id="node2" class="node"><title>Node2</title>
<g id="a_node2"><a xlink:href="../../d0/d4c/classinstructions_1_1_unary_instruction.html" target="_top" xlink:title="instructions.UnaryInstruction">
<polygon fill="white" stroke="black" points="107,-58.5 107,-77.5 261,-77.5 261,-58.5 107,-58.5"/>
<text text-anchor="middle" x="184" y="-65.5" font-family="Helvetica,sans-Serif" font-size="10.00">instructions.UnaryInstruction</text>
</a>
</g>
</g>
<!-- Node2&#45;&gt;Node1 -->
<g id="edge1" class="edge"><title>Node2&#45;&gt;Node1</title>
<path fill="none" stroke="midnightblue" d="M184,-47.953C184,-38.2875 184,-27.0312 184,-19.5052"/>
<polygon fill="midnightblue" stroke="midnightblue" points="180.5,-48.25 184,-58.25 187.5,-48.25 180.5,-48.25"/>
</g>
<!-- Node3 -->
<g id="node3" class="node"><title>Node3</title>
<g id="a_node3"><a xlink:href="../../d9/d85/classinstructions_1_1_parameter_instruction.html" target="_top" xlink:title="instructions.ParameterInstruction">
<polygon fill="white" stroke="black" points="96,-116.5 96,-135.5 272,-135.5 272,-116.5 96,-116.5"/>
<text text-anchor="middle" x="184" y="-123.5" font-family="Helvetica,sans-Serif" font-size="10.00">instructions.ParameterInstruction</text>
</a>
</g>
</g>
<!-- Node3&#45;&gt;Node2 -->
<g id="edge2" class="edge"><title>Node3&#45;&gt;Node2</title>
<path fill="none" stroke="midnightblue" d="M184,-105.953C184,-96.2875 184,-85.0312 184,-77.5052"/>
<polygon fill="midnightblue" stroke="midnightblue" points="180.5,-106.25 184,-116.25 187.5,-106.25 180.5,-106.25"/>
</g>
<!-- Node4 -->
<g id="node4" class="node"><title>Node4</title>
<g id="a_node4"><a xlink:href="../../d2/d93/interfaceinstructions_1_1_instruction.html" target="_top" xlink:title="instructions.Instruction">
<polygon fill="white" stroke="black" points="-0.5,-184.5 -0.5,-203.5 124.5,-203.5 124.5,-184.5 -0.5,-184.5"/>
<text text-anchor="middle" x="62" y="-191.5" font-family="Helvetica,sans-Serif" font-size="10.00">instructions.Instruction</text>
</a>
</g>
</g>
<!-- Node4&#45;&gt;Node3 -->
<g id="edge3" class="edge"><title>Node4&#45;&gt;Node3</title>
<path fill="none" stroke="midnightblue" d="M86.9271,-179.515C111.213,-166.377 147.404,-146.798 168.047,-135.63"/>
<polygon fill="midnightblue" stroke="midnightblue" points="85.0794,-176.535 77.9494,-184.372 88.4102,-182.692 85.0794,-176.535"/>
</g>
<!-- Node5 -->
<g id="node5" class="node"><title>Node5</title>
<polygon fill="white" stroke="#bfbfbf" points="26.5,-242.5 26.5,-261.5 97.5,-261.5 97.5,-242.5 26.5,-242.5"/>
<text text-anchor="middle" x="62" y="-249.5" font-family="Helvetica,sans-Serif" font-size="10.00">Serializable</text>
</g>
<!-- Node5&#45;&gt;Node4 -->
<g id="edge4" class="edge"><title>Node5&#45;&gt;Node4</title>
<path fill="none" stroke="midnightblue" d="M62,-231.953C62,-222.287 62,-211.031 62,-203.505"/>
<polygon fill="midnightblue" stroke="midnightblue" points="58.5001,-232.25 62,-242.25 65.5001,-232.25 58.5001,-232.25"/>
</g>
<!-- Node6 -->
<g id="node6" class="node"><title>Node6</title>
<polygon fill="white" stroke="#bfbfbf" points="143,-184.5 143,-203.5 307,-203.5 307,-184.5 143,-184.5"/>
<text text-anchor="middle" x="225" y="-191.5" font-family="Helvetica,sans-Serif" font-size="10.00">List&lt; instructions.Instruction &gt;</text>
</g>
<!-- Node6&#45;&gt;Node3 -->
<g id="edge5" class="edge"><title>Node6&#45;&gt;Node3</title>
<path fill="none" stroke="#9a32cd" stroke-dasharray="5,2" d="M214.168,-175.563C206.228,-162.781 195.778,-145.96 189.492,-135.841"/>
<polygon fill="#9a32cd" stroke="#9a32cd" points="211.39,-177.724 219.64,-184.372 217.336,-174.03 211.39,-177.724"/>
<text text-anchor="middle" x="236.5" y="-157.5" font-family="Helvetica,sans-Serif" font-size="10.00"> myParams</text>
</g>
</g>
</svg>
