<?xml version="1.0" encoding="UTF-8" standalone="no"?>
<!DOCTYPE svg PUBLIC "-//W3C//DTD SVG 1.1//EN"
 "http://www.w3.org/Graphics/SVG/1.1/DTD/svg11.dtd">
<!-- Generated by graphviz version 2.36.0 (20140111.2315)
 -->
<!-- Title: instructions.commands.Home.execute Pages: 1 -->
<svg width="930pt" height="115pt"
 viewBox="0.00 0.00 930.00 115.00" xmlns="http://www.w3.org/2000/svg" xmlns:xlink="http://www.w3.org/1999/xlink">
<g id="graph0" class="graph" transform="scale(1 1) rotate(0) translate(4 111)">
<title>instructions.commands.Home.execute</title>
<polygon fill="white" stroke="none" points="-4,4 -4,-111 926,-111 926,4 -4,4"/>
<!-- Node1 -->
<g id="node1" class="node"><title>Node1</title>
<polygon fill="#bfbfbf" stroke="black" points="0.5,-49.5 0.5,-68.5 203.5,-68.5 203.5,-49.5 0.5,-49.5"/>
<text text-anchor="middle" x="102" y="-56.5" font-family="Helvetica,sans-Serif" font-size="10.00">instructions.commands.Home.execute</text>
</g>
<!-- Node2 -->
<g id="node2" class="node"><title>Node2</title>
<g id="a_node2"><a xlink:href="../../d6/d34/classmodel_1_1_turtle.html#a2577f617a1e32c900f0841f835c7643a" target="_top" xlink:title="model.Turtle.calculateDistance">
<polygon fill="white" stroke="black" points="240.5,-87.5 240.5,-106.5 403.5,-106.5 403.5,-87.5 240.5,-87.5"/>
<text text-anchor="middle" x="322" y="-94.5" font-family="Helvetica,sans-Serif" font-size="10.00">model.Turtle.calculateDistance</text>
</a>
</g>
</g>
<!-- Node1&#45;&gt;Node2 -->
<g id="edge1" class="edge"><title>Node1&#45;&gt;Node2</title>
<path fill="none" stroke="midnightblue" d="M157.729,-68.54C187.661,-73.7574 224.922,-80.2525 256.288,-85.72"/>
<polygon fill="midnightblue" stroke="midnightblue" points="255.796,-89.1868 266.248,-87.4561 256.998,-82.2908 255.796,-89.1868"/>
</g>
<!-- Node3 -->
<g id="node3" class="node"><title>Node3</title>
<g id="a_node3"><a xlink:href="../../d6/d34/classmodel_1_1_turtle.html#a3024f63f36d1f06f8df9951c98538acf" target="_top" xlink:title="model.Turtle.getCoordList">
<polygon fill="white" stroke="black" points="252.5,-49.5 252.5,-68.5 391.5,-68.5 391.5,-49.5 252.5,-49.5"/>
<text text-anchor="middle" x="322" y="-56.5" font-family="Helvetica,sans-Serif" font-size="10.00">model.Turtle.getCoordList</text>
</a>
</g>
</g>
<!-- Node1&#45;&gt;Node3 -->
<g id="edge2" class="edge"><title>Node1&#45;&gt;Node3</title>
<path fill="none" stroke="midnightblue" d="M203.704,-59C216.604,-59 229.659,-59 242.142,-59"/>
<polygon fill="midnightblue" stroke="midnightblue" points="242.477,-62.5001 252.477,-59 242.477,-55.5001 242.477,-62.5001"/>
</g>
<!-- Node7 -->
<g id="node7" class="node"><title>Node7</title>
<g id="a_node7"><a xlink:href="../../d8/d36/classmodel_1_1_observable_data.html#aa585e00721a74cba9ab459079945e15b" target="_top" xlink:title="model.ObservableData.get\lTurtle">
<polygon fill="white" stroke="black" points="249,-0 249,-30 395,-30 395,-0 249,-0"/>
<text text-anchor="start" x="257" y="-18" font-family="Helvetica,sans-Serif" font-size="10.00">model.ObservableData.get</text>
<text text-anchor="middle" x="322" y="-7" font-family="Helvetica,sans-Serif" font-size="10.00">Turtle</text>
</a>
</g>
</g>
<!-- Node1&#45;&gt;Node7 -->
<g id="edge6" class="edge"><title>Node1&#45;&gt;Node7</title>
<path fill="none" stroke="midnightblue" d="M150.303,-49.4527C176.179,-44.2298 208.973,-37.6109 238.886,-31.5734"/>
<polygon fill="midnightblue" stroke="midnightblue" points="239.796,-34.9605 248.906,-29.5511 238.411,-28.0988 239.796,-34.9605"/>
</g>
<!-- Node4 -->
<g id="node4" class="node"><title>Node4</title>
<g id="a_node4"><a xlink:href="../../d6/d34/classmodel_1_1_turtle.html#abf987ba62d49c24804d43b464f9b7410" target="_top" xlink:title="model.Turtle.setCoordinates">
<polygon fill="white" stroke="black" points="440.5,-49.5 440.5,-68.5 591.5,-68.5 591.5,-49.5 440.5,-49.5"/>
<text text-anchor="middle" x="516" y="-56.5" font-family="Helvetica,sans-Serif" font-size="10.00">model.Turtle.setCoordinates</text>
</a>
</g>
</g>
<!-- Node3&#45;&gt;Node4 -->
<g id="edge3" class="edge"><title>Node3&#45;&gt;Node4</title>
<path fill="none" stroke="midnightblue" d="M391.503,-59C403.995,-59 417.165,-59 430.065,-59"/>
<polygon fill="midnightblue" stroke="midnightblue" points="430.335,-62.5001 440.335,-59 430.335,-55.5001 430.335,-62.5001"/>
</g>
<!-- Node5 -->
<g id="node5" class="node"><title>Node5</title>
<g id="a_node5"><a xlink:href="../../d6/d34/classmodel_1_1_turtle.html#a138e6be2a3c83aea4ef698bf9e499bcf" target="_top" xlink:title="model.Turtle.setTurtleInfo">
<polygon fill="white" stroke="black" points="628,-49.5 628,-68.5 764,-68.5 764,-49.5 628,-49.5"/>
<text text-anchor="middle" x="696" y="-56.5" font-family="Helvetica,sans-Serif" font-size="10.00">model.Turtle.setTurtleInfo</text>
</a>
</g>
</g>
<!-- Node4&#45;&gt;Node5 -->
<g id="edge4" class="edge"><title>Node4&#45;&gt;Node5</title>
<path fill="none" stroke="midnightblue" d="M591.714,-59C600.33,-59 609.13,-59 617.778,-59"/>
<polygon fill="midnightblue" stroke="midnightblue" points="617.842,-62.5001 627.842,-59 617.842,-55.5001 617.842,-62.5001"/>
</g>
<!-- Node6 -->
<g id="node6" class="node"><title>Node6</title>
<g id="a_node6"><a xlink:href="../../d6/d34/classmodel_1_1_turtle.html#a61d79b71c878b0c64adeab038483da7a" target="_top" xlink:title="model.Turtle.getAngle">
<polygon fill="white" stroke="black" points="800.5,-49.5 800.5,-68.5 921.5,-68.5 921.5,-49.5 800.5,-49.5"/>
<text text-anchor="middle" x="861" y="-56.5" font-family="Helvetica,sans-Serif" font-size="10.00">model.Turtle.getAngle</text>
</a>
</g>
</g>
<!-- Node5&#45;&gt;Node6 -->
<g id="edge5" class="edge"><title>Node5&#45;&gt;Node6</title>
<path fill="none" stroke="midnightblue" d="M764.239,-59C772.875,-59 781.73,-59 790.402,-59"/>
<polygon fill="midnightblue" stroke="midnightblue" points="790.474,-62.5001 800.474,-59 790.474,-55.5001 790.474,-62.5001"/>
</g>
</g>
</svg>
