<?xml version="1.0" encoding="UTF-8" standalone="no"?>
<!DOCTYPE svg PUBLIC "-//W3C//DTD SVG 1.1//EN"
 "http://www.w3.org/Graphics/SVG/1.1/DTD/svg11.dtd">
<!-- Generated by graphviz version 2.36.0 (20140111.2315)
 -->
<!-- Title: instructions.commands.NumTurtles.execute Pages: 1 -->
<svg width="346pt" height="87pt"
 viewBox="0.00 0.00 346.00 87.00" xmlns="http://www.w3.org/2000/svg" xmlns:xlink="http://www.w3.org/1999/xlink">
<g id="graph0" class="graph" transform="scale(1 1) rotate(0) translate(4 83)">
<title>instructions.commands.NumTurtles.execute</title>
<polygon fill="white" stroke="none" points="-4,4 -4,-83 342,-83 342,4 -4,4"/>
<!-- Node1 -->
<g id="node1" class="node"><title>Node1</title>
<polygon fill="#bfbfbf" stroke="black" points="0.5,-24 0.5,-54 155.5,-54 155.5,-24 0.5,-24"/>
<text text-anchor="start" x="8.5" y="-42" font-family="Helvetica,sans-Serif" font-size="10.00">instructions.commands.Num</text>
<text text-anchor="middle" x="78" y="-31" font-family="Helvetica,sans-Serif" font-size="10.00">Turtles.execute</text>
</g>
<!-- Node2 -->
<g id="node2" class="node"><title>Node2</title>
<g id="a_node2"><a xlink:href="../../df/db7/classmodel_1_1_turtles_list.html#af1db162a48f178873c80524503fff672" target="_top" xlink:title="model.TurtlesList.getNum\lTurtles">
<polygon fill="white" stroke="black" points="195.5,-49 195.5,-79 334.5,-79 334.5,-49 195.5,-49"/>
<text text-anchor="start" x="203.5" y="-67" font-family="Helvetica,sans-Serif" font-size="10.00">model.TurtlesList.getNum</text>
<text text-anchor="middle" x="265" y="-56" font-family="Helvetica,sans-Serif" font-size="10.00">Turtles</text>
</a>
</g>
</g>
<!-- Node1&#45;&gt;Node2 -->
<g id="edge1" class="edge"><title>Node1&#45;&gt;Node2</title>
<path fill="none" stroke="midnightblue" d="M155.582,-49.3489C165.394,-50.6749 175.453,-52.0342 185.298,-53.3646"/>
<polygon fill="midnightblue" stroke="midnightblue" points="185.083,-56.8672 195.461,-54.738 186.02,-49.9303 185.083,-56.8672"/>
</g>
<!-- Node3 -->
<g id="node3" class="node"><title>Node3</title>
<g id="a_node3"><a xlink:href="../../d8/d36/classmodel_1_1_observable_data.html#a062e866b404100bb3eb10a33b7c72fd7" target="_top" xlink:title="model.ObservableData.get\lTurtles">
<polygon fill="white" stroke="black" points="192,-0 192,-30 338,-30 338,-0 192,-0"/>
<text text-anchor="start" x="200" y="-18" font-family="Helvetica,sans-Serif" font-size="10.00">model.ObservableData.get</text>
<text text-anchor="middle" x="265" y="-7" font-family="Helvetica,sans-Serif" font-size="10.00">Turtles</text>
</a>
</g>
</g>
<!-- Node1&#45;&gt;Node3 -->
<g id="edge2" class="edge"><title>Node1&#45;&gt;Node3</title>
<path fill="none" stroke="midnightblue" d="M155.582,-29.065C164.227,-27.9435 173.063,-26.7972 181.776,-25.6668"/>
<polygon fill="midnightblue" stroke="midnightblue" points="182.463,-29.1072 191.929,-24.3497 181.562,-22.1654 182.463,-29.1072"/>
</g>
</g>
</svg>
