<?xml version="1.0" encoding="UTF-8" standalone="no"?>
<!DOCTYPE svg PUBLIC "-//W3C//DTD SVG 1.1//EN"
 "http://www.w3.org/Graphics/SVG/1.1/DTD/svg11.dtd">
<!-- Generated by graphviz version 2.36.0 (20140111.2315)
 -->
<!-- Title: view.ResultsView Pages: 1 -->
<svg width="139pt" height="96pt"
 viewBox="0.00 0.00 139.00 96.00" xmlns="http://www.w3.org/2000/svg" xmlns:xlink="http://www.w3.org/1999/xlink">
<g id="graph0" class="graph" transform="scale(1 1) rotate(0) translate(4 92)">
<title>view.ResultsView</title>
<polygon fill="white" stroke="none" points="-4,4 -4,-92 135,-92 135,4 -4,4"/>
<!-- Node1 -->
<g id="node1" class="node"><title>Node1</title>
<polygon fill="#bfbfbf" stroke="black" points="12.5,-0.5 12.5,-19.5 107.5,-19.5 107.5,-0.5 12.5,-0.5"/>
<text text-anchor="middle" x="60" y="-7.5" font-family="Helvetica,sans-Serif" font-size="10.00">view.ResultsView</text>
</g>
<!-- Node2 -->
<g id="node2" class="node"><title>Node2</title>
<polygon fill="white" stroke="#bfbfbf" points="0,-68.5 0,-87.5 56,-87.5 56,-68.5 0,-68.5"/>
<text text-anchor="middle" x="28" y="-75.5" font-family="Helvetica,sans-Serif" font-size="10.00">TilePane</text>
</g>
<!-- Node2&#45;&gt;Node1 -->
<g id="edge1" class="edge"><title>Node2&#45;&gt;Node1</title>
<path fill="none" stroke="midnightblue" d="M36.6371,-59.1859C42.811,-46.4523 50.8554,-29.8607 55.7134,-19.8411"/>
<polygon fill="midnightblue" stroke="midnightblue" points="33.3969,-57.8465 32.1834,-68.3717 39.6956,-60.9005 33.3969,-57.8465"/>
</g>
<!-- Node3 -->
<g id="node3" class="node"><title>Node3</title>
<polygon fill="white" stroke="#bfbfbf" points="74.5,-68.5 74.5,-87.5 109.5,-87.5 109.5,-68.5 74.5,-68.5"/>
<text text-anchor="middle" x="92" y="-75.5" font-family="Helvetica,sans-Serif" font-size="10.00">Text</text>
</g>
<!-- Node3&#45;&gt;Node1 -->
<g id="edge2" class="edge"><title>Node3&#45;&gt;Node1</title>
<path fill="none" stroke="#9a32cd" stroke-dasharray="5,2" d="M83.3629,-59.1859C77.189,-46.4523 69.1446,-29.8607 64.2866,-19.8411"/>
<polygon fill="#9a32cd" stroke="#9a32cd" points="80.3044,-60.9005 87.8166,-68.3717 86.6031,-57.8465 80.3044,-60.9005"/>
<text text-anchor="middle" x="105" y="-41.5" font-family="Helvetica,sans-Serif" font-size="10.00"> myResults</text>
</g>
</g>
</svg>
