<?xml version="1.0" encoding="UTF-8" standalone="no"?>
<!DOCTYPE svg PUBLIC "-//W3C//DTD SVG 1.1//EN"
 "http://www.w3.org/Graphics/SVG/1.1/DTD/svg11.dtd">
<!-- Generated by graphviz version 2.36.0 (20140111.2315)
 -->
<!-- Title: instructions.ListInstruction.getInstructionList Pages: 1 -->
<svg width="596pt" height="136pt"
 viewBox="0.00 0.00 596.00 136.00" xmlns="http://www.w3.org/2000/svg" xmlns:xlink="http://www.w3.org/1999/xlink">
<g id="graph0" class="graph" transform="scale(1 1) rotate(0) translate(4 132)">
<title>instructions.ListInstruction.getInstructionList</title>
<polygon fill="white" stroke="none" points="-4,4 -4,-132 592,-132 592,4 -4,4"/>
<!-- Node1 -->
<g id="node1" class="node"><title>Node1</title>
<polygon fill="#bfbfbf" stroke="black" points="0.5,-49 0.5,-79 161.5,-79 161.5,-49 0.5,-49"/>
<text text-anchor="start" x="8.5" y="-67" font-family="Helvetica,sans-Serif" font-size="10.00">instructions.ListInstruction.get</text>
<text text-anchor="middle" x="81" y="-56" font-family="Helvetica,sans-Serif" font-size="10.00">InstructionList</text>
</g>
<!-- Node2 -->
<g id="node2" class="node"><title>Node2</title>
<g id="a_node2"><a xlink:href="../../dd/de9/classinstructions_1_1commands_1_1_do_times.html#ae42180528b9ce237a22652ccf7c4048a" target="_top" xlink:title="instructions.commands.Do\lTimes.execute">
<polygon fill="white" stroke="black" points="208,-98 208,-128 354,-128 354,-98 208,-98"/>
<text text-anchor="start" x="216" y="-116" font-family="Helvetica,sans-Serif" font-size="10.00">instructions.commands.Do</text>
<text text-anchor="middle" x="281" y="-105" font-family="Helvetica,sans-Serif" font-size="10.00">Times.execute</text>
</a>
</g>
</g>
<!-- Node1&#45;&gt;Node2 -->
<g id="edge1" class="edge"><title>Node1&#45;&gt;Node2</title>
<path fill="none" stroke="midnightblue" d="M152.621,-81.4768C174.444,-86.8775 198.277,-92.7755 219.363,-97.9938"/>
<polygon fill="midnightblue" stroke="midnightblue" points="153.3,-78.0395 142.752,-79.0346 151.618,-84.8345 153.3,-78.0395"/>
</g>
<!-- Node3 -->
<g id="node3" class="node"><title>Node3</title>
<g id="a_node3"><a xlink:href="../../dc/d89/classinstructions_1_1commands_1_1_make_user_instruction.html#a266ae5979c8a7fc525d334e2a0871680" target="_top" xlink:title="instructions.commands.Make\lUserInstruction.execute">
<polygon fill="white" stroke="black" points="202,-49 202,-79 360,-79 360,-49 202,-49"/>
<text text-anchor="start" x="210" y="-67" font-family="Helvetica,sans-Serif" font-size="10.00">instructions.commands.Make</text>
<text text-anchor="middle" x="281" y="-56" font-family="Helvetica,sans-Serif" font-size="10.00">UserInstruction.execute</text>
</a>
</g>
</g>
<!-- Node1&#45;&gt;Node3 -->
<g id="edge2" class="edge"><title>Node1&#45;&gt;Node3</title>
<path fill="none" stroke="midnightblue" d="M171.979,-64C181.923,-64 191.99,-64 201.772,-64"/>
<polygon fill="midnightblue" stroke="midnightblue" points="171.678,-60.5001 161.678,-64 171.678,-67.5001 171.678,-60.5001"/>
</g>
<!-- Node4 -->
<g id="node4" class="node"><title>Node4</title>
<g id="a_node4"><a xlink:href="../../d6/d75/classinstructions_1_1commands_1_1_tell.html#a840450d41463156112f5130fa78d720f" target="_top" xlink:title="instructions.commands.Tell.get\lAskedIDs">
<polygon fill="white" stroke="black" points="198.5,-0 198.5,-30 363.5,-30 363.5,-0 198.5,-0"/>
<text text-anchor="start" x="206.5" y="-18" font-family="Helvetica,sans-Serif" font-size="10.00">instructions.commands.Tell.get</text>
<text text-anchor="middle" x="281" y="-7" font-family="Helvetica,sans-Serif" font-size="10.00">AskedIDs</text>
</a>
</g>
</g>
<!-- Node1&#45;&gt;Node4 -->
<g id="edge3" class="edge"><title>Node1&#45;&gt;Node4</title>
<path fill="none" stroke="midnightblue" d="M152.621,-46.5232C174.444,-41.1225 198.277,-35.2245 219.363,-30.0062"/>
<polygon fill="midnightblue" stroke="midnightblue" points="151.618,-43.1655 142.752,-48.9654 153.3,-49.9605 151.618,-43.1655"/>
</g>
<!-- Node5 -->
<g id="node5" class="node"><title>Node5</title>
<g id="a_node5"><a xlink:href="../../d6/d75/classinstructions_1_1commands_1_1_tell.html#a662583c3632eee012239f2b7fda7ef9c" target="_top" xlink:title="instructions.commands.Tell.execute">
<polygon fill="white" stroke="black" points="400,-5.5 400,-24.5 588,-24.5 588,-5.5 400,-5.5"/>
<text text-anchor="middle" x="494" y="-12.5" font-family="Helvetica,sans-Serif" font-size="10.00">instructions.commands.Tell.execute</text>
</a>
</g>
</g>
<!-- Node4&#45;&gt;Node5 -->
<g id="edge4" class="edge"><title>Node4&#45;&gt;Node5</title>
<path fill="none" stroke="midnightblue" d="M373.645,-15C382.282,-15 391.045,-15 399.697,-15"/>
<polygon fill="midnightblue" stroke="midnightblue" points="373.578,-11.5001 363.578,-15 373.578,-18.5001 373.578,-11.5001"/>
</g>
</g>
</svg>
