<?xml version="1.0" encoding="UTF-8" standalone="no"?>
<!DOCTYPE svg PUBLIC "-//W3C//DTD SVG 1.1//EN"
 "http://www.w3.org/Graphics/SVG/1.1/DTD/svg11.dtd">
<!-- Generated by graphviz version 2.36.0 (20140111.2315)
 -->
<!-- Title: view.DataViewComponents Pages: 1 -->
<svg width="422pt" height="196pt"
 viewBox="0.00 0.00 422.00 196.00" xmlns="http://www.w3.org/2000/svg" xmlns:xlink="http://www.w3.org/1999/xlink">
<g id="graph0" class="graph" transform="scale(1 1) rotate(0) translate(4 192)">
<title>view.DataViewComponents</title>
<polygon fill="white" stroke="none" points="-4,4 -4,-192 418,-192 418,4 -4,4"/>
<!-- Node1 -->
<g id="node1" class="node"><title>Node1</title>
<polygon fill="#bfbfbf" stroke="black" points="153,-56.5 153,-75.5 299,-75.5 299,-56.5 153,-56.5"/>
<text text-anchor="middle" x="226" y="-63.5" font-family="Helvetica,sans-Serif" font-size="10.00">view.DataViewComponents</text>
</g>
<!-- Node4 -->
<g id="node4" class="node"><title>Node4</title>
<g id="a_node4"><a xlink:href="../../d9/d93/classview_1_1_basic_commands_view.html" target="_top" xlink:title="view.BasicCommandsView">
<polygon fill="white" stroke="black" points="0,-0.5 0,-19.5 142,-19.5 142,-0.5 0,-0.5"/>
<text text-anchor="middle" x="71" y="-7.5" font-family="Helvetica,sans-Serif" font-size="10.00">view.BasicCommandsView</text>
</a>
</g>
</g>
<!-- Node1&#45;&gt;Node4 -->
<g id="edge3" class="edge"><title>Node1&#45;&gt;Node4</title>
<path fill="none" stroke="midnightblue" d="M191.668,-53.0392C162.503,-42.8786 121.363,-28.5457 95.4453,-19.5164"/>
<polygon fill="midnightblue" stroke="midnightblue" points="190.845,-56.4587 201.44,-56.4435 193.148,-49.8484 190.845,-56.4587"/>
</g>
<!-- Node5 -->
<g id="node5" class="node"><title>Node5</title>
<g id="a_node5"><a xlink:href="../../d8/d0c/classview_1_1_u_d_commands_view.html" target="_top" xlink:title="view.UDCommandsView">
<polygon fill="white" stroke="black" points="160.5,-0.5 160.5,-19.5 291.5,-19.5 291.5,-0.5 160.5,-0.5"/>
<text text-anchor="middle" x="226" y="-7.5" font-family="Helvetica,sans-Serif" font-size="10.00">view.UDCommandsView</text>
</a>
</g>
</g>
<!-- Node1&#45;&gt;Node5 -->
<g id="edge4" class="edge"><title>Node1&#45;&gt;Node5</title>
<path fill="none" stroke="midnightblue" d="M226,-45.8045C226,-36.9102 226,-26.7798 226,-19.7511"/>
<polygon fill="midnightblue" stroke="midnightblue" points="222.5,-46.083 226,-56.083 229.5,-46.083 222.5,-46.083"/>
</g>
<!-- Node6 -->
<g id="node6" class="node"><title>Node6</title>
<g id="a_node6"><a xlink:href="../../d9/dd3/classview_1_1_variables_view.html" target="_top" xlink:title="view.VariablesView">
<polygon fill="white" stroke="black" points="310,-0.5 310,-19.5 414,-19.5 414,-0.5 310,-0.5"/>
<text text-anchor="middle" x="362" y="-7.5" font-family="Helvetica,sans-Serif" font-size="10.00">view.VariablesView</text>
</a>
</g>
</g>
<!-- Node1&#45;&gt;Node6 -->
<g id="edge5" class="edge"><title>Node1&#45;&gt;Node6</title>
<path fill="none" stroke="midnightblue" d="M257.135,-52.6377C282.657,-42.504 318.109,-28.4274 340.551,-19.5164"/>
<polygon fill="midnightblue" stroke="midnightblue" points="255.552,-49.5002 247.55,-56.4435 258.135,-56.0061 255.552,-49.5002"/>
</g>
<!-- Node2 -->
<g id="node2" class="node"><title>Node2</title>
<g id="a_node2"><a xlink:href="../../db/d98/classview_1_1_scroll_view.html" target="_top" xlink:title="view.ScrollView">
<polygon fill="white" stroke="black" points="182.5,-112.5 182.5,-131.5 269.5,-131.5 269.5,-112.5 182.5,-112.5"/>
<text text-anchor="middle" x="226" y="-119.5" font-family="Helvetica,sans-Serif" font-size="10.00">view.ScrollView</text>
</a>
</g>
</g>
<!-- Node2&#45;&gt;Node1 -->
<g id="edge1" class="edge"><title>Node2&#45;&gt;Node1</title>
<path fill="none" stroke="midnightblue" d="M226,-101.805C226,-92.9102 226,-82.7798 226,-75.7511"/>
<polygon fill="midnightblue" stroke="midnightblue" points="222.5,-102.083 226,-112.083 229.5,-102.083 222.5,-102.083"/>
</g>
<!-- Node3 -->
<g id="node3" class="node"><title>Node3</title>
<polygon fill="white" stroke="#bfbfbf" points="193,-168.5 193,-187.5 259,-187.5 259,-168.5 193,-168.5"/>
<text text-anchor="middle" x="226" y="-175.5" font-family="Helvetica,sans-Serif" font-size="10.00">ScrollPane</text>
</g>
<!-- Node3&#45;&gt;Node2 -->
<g id="edge2" class="edge"><title>Node3&#45;&gt;Node2</title>
<path fill="none" stroke="midnightblue" d="M226,-157.805C226,-148.91 226,-138.78 226,-131.751"/>
<polygon fill="midnightblue" stroke="midnightblue" points="222.5,-158.083 226,-168.083 229.5,-158.083 222.5,-158.083"/>
</g>
</g>
</svg>
