<?xml version="1.0" encoding="UTF-8" standalone="no"?>
<!DOCTYPE svg PUBLIC "-//W3C//DTD SVG 1.1//EN"
 "http://www.w3.org/Graphics/SVG/1.1/DTD/svg11.dtd">
<!-- Generated by graphviz version 2.36.0 (20140111.2315)
 -->
<!-- Title: instructions.commands.Forward.execute Pages: 1 -->
<svg width="924pt" height="135pt"
 viewBox="0.00 0.00 924.00 135.00" xmlns="http://www.w3.org/2000/svg" xmlns:xlink="http://www.w3.org/1999/xlink">
<g id="graph0" class="graph" transform="scale(1 1) rotate(0) translate(4 131)">
<title>instructions.commands.Forward.execute</title>
<polygon fill="white" stroke="none" points="-4,4 -4,-131 920,-131 920,4 -4,4"/>
<!-- Node1 -->
<g id="node1" class="node"><title>Node1</title>
<polygon fill="#bfbfbf" stroke="black" points="0.5,-41.5 0.5,-60.5 211.5,-60.5 211.5,-41.5 0.5,-41.5"/>
<text text-anchor="middle" x="106" y="-48.5" font-family="Helvetica,sans-Serif" font-size="10.00">instructions.commands.Forward.execute</text>
</g>
<!-- Node2 -->
<g id="node2" class="node"><title>Node2</title>
<g id="a_node2"><a xlink:href="../../d6/d34/classmodel_1_1_turtle.html#ac03d013ad4b739b9d269ba8af8119ddb" target="_top" xlink:title="model.Turtle.moveTurtleAnd\lDrawLine">
<polygon fill="white" stroke="black" points="248.5,-36 248.5,-66 397.5,-66 397.5,-36 248.5,-36"/>
<text text-anchor="start" x="256.5" y="-54" font-family="Helvetica,sans-Serif" font-size="10.00">model.Turtle.moveTurtleAnd</text>
<text text-anchor="middle" x="323" y="-43" font-family="Helvetica,sans-Serif" font-size="10.00">DrawLine</text>
</a>
</g>
</g>
<!-- Node1&#45;&gt;Node2 -->
<g id="edge1" class="edge"><title>Node1&#45;&gt;Node2</title>
<path fill="none" stroke="midnightblue" d="M211.666,-51C220.57,-51 229.499,-51 238.211,-51"/>
<polygon fill="midnightblue" stroke="midnightblue" points="238.322,-54.5001 248.322,-51 238.322,-47.5001 238.322,-54.5001"/>
</g>
<!-- Node3 -->
<g id="node3" class="node"><title>Node3</title>
<g id="a_node3"><a xlink:href="../../de/ded/classmodel_1_1_pen.html#ac3ec9470d841cd296e05db47a03596f9" target="_top" xlink:title="model.Pen.drawLine">
<polygon fill="white" stroke="black" points="453.5,-107.5 453.5,-126.5 566.5,-126.5 566.5,-107.5 453.5,-107.5"/>
<text text-anchor="middle" x="510" y="-114.5" font-family="Helvetica,sans-Serif" font-size="10.00">model.Pen.drawLine</text>
</a>
</g>
</g>
<!-- Node2&#45;&gt;Node3 -->
<g id="edge2" class="edge"><title>Node2&#45;&gt;Node3</title>
<path fill="none" stroke="midnightblue" d="M356.764,-66.0756C378.405,-75.6892 407.548,-87.9886 434,-97 442.068,-99.7486 450.728,-102.36 459.194,-104.734"/>
<polygon fill="midnightblue" stroke="midnightblue" points="458.429,-108.153 468.997,-107.406 460.269,-101.399 458.429,-108.153"/>
</g>
<!-- Node5 -->
<g id="node5" class="node"><title>Node5</title>
<g id="a_node5"><a xlink:href="../../d6/d34/classmodel_1_1_turtle.html#a1f264343c6daebe6a1b07db29b7cbb30" target="_top" xlink:title="model.Turtle.calculateEnd\lCoord">
<polygon fill="white" stroke="black" points="440.5,-58 440.5,-88 579.5,-88 579.5,-58 440.5,-58"/>
<text text-anchor="start" x="448.5" y="-76" font-family="Helvetica,sans-Serif" font-size="10.00">model.Turtle.calculateEnd</text>
<text text-anchor="middle" x="510" y="-65" font-family="Helvetica,sans-Serif" font-size="10.00">Coord</text>
</a>
</g>
</g>
<!-- Node2&#45;&gt;Node5 -->
<g id="edge4" class="edge"><title>Node2&#45;&gt;Node5</title>
<path fill="none" stroke="midnightblue" d="M397.648,-59.7582C408.339,-61.0295 419.38,-62.3425 430.167,-63.6253"/>
<polygon fill="midnightblue" stroke="midnightblue" points="430.069,-67.1382 440.413,-64.8437 430.896,-60.1872 430.069,-67.1382"/>
</g>
<!-- Node6 -->
<g id="node6" class="node"><title>Node6</title>
<g id="a_node6"><a xlink:href="../../d6/d34/classmodel_1_1_turtle.html#abf987ba62d49c24804d43b464f9b7410" target="_top" xlink:title="model.Turtle.setCoordinates">
<polygon fill="white" stroke="black" points="434.5,-19.5 434.5,-38.5 585.5,-38.5 585.5,-19.5 434.5,-19.5"/>
<text text-anchor="middle" x="510" y="-26.5" font-family="Helvetica,sans-Serif" font-size="10.00">model.Turtle.setCoordinates</text>
</a>
</g>
</g>
<!-- Node2&#45;&gt;Node6 -->
<g id="edge5" class="edge"><title>Node2&#45;&gt;Node6</title>
<path fill="none" stroke="midnightblue" d="M397.648,-42.2418C406.434,-41.1971 415.456,-40.1242 424.38,-39.063"/>
<polygon fill="midnightblue" stroke="midnightblue" points="424.878,-42.5284 434.395,-37.872 424.052,-35.5774 424.878,-42.5284"/>
</g>
<!-- Node7 -->
<g id="node7" class="node"><title>Node7</title>
<g id="a_node7"><a xlink:href="../../d6/d34/classmodel_1_1_turtle.html#a138e6be2a3c83aea4ef698bf9e499bcf" target="_top" xlink:title="model.Turtle.setTurtleInfo">
<polygon fill="white" stroke="black" points="622,-0.5 622,-19.5 758,-19.5 758,-0.5 622,-0.5"/>
<text text-anchor="middle" x="690" y="-7.5" font-family="Helvetica,sans-Serif" font-size="10.00">model.Turtle.setTurtleInfo</text>
</a>
</g>
</g>
<!-- Node2&#45;&gt;Node7 -->
<g id="edge8" class="edge"><title>Node2&#45;&gt;Node7</title>
<path fill="none" stroke="midnightblue" d="M355.396,-35.8702C376.951,-26.3482 406.522,-14.9545 434,-10 492.898,0.619687 560.701,0.0234473 611.579,-2.90449"/>
<polygon fill="midnightblue" stroke="midnightblue" points="611.648,-6.41536 621.845,-3.53993 612.081,0.571265 611.648,-6.41536"/>
</g>
<!-- Node4 -->
<g id="node4" class="node"><title>Node4</title>
<g id="a_node4"><a xlink:href="../../de/ded/classmodel_1_1_pen.html#ad9374c4c077137d9af9d671f600858ec" target="_top" xlink:title="model.Pen.createLine">
<polygon fill="white" stroke="black" points="629.5,-107.5 629.5,-126.5 750.5,-126.5 750.5,-107.5 629.5,-107.5"/>
<text text-anchor="middle" x="690" y="-114.5" font-family="Helvetica,sans-Serif" font-size="10.00">model.Pen.createLine</text>
</a>
</g>
</g>
<!-- Node3&#45;&gt;Node4 -->
<g id="edge3" class="edge"><title>Node3&#45;&gt;Node4</title>
<path fill="none" stroke="midnightblue" d="M566.832,-117C583.452,-117 601.872,-117 619.262,-117"/>
<polygon fill="midnightblue" stroke="midnightblue" points="619.36,-120.5 629.36,-117 619.36,-113.5 619.36,-120.5"/>
</g>
<!-- Node6&#45;&gt;Node7 -->
<g id="edge6" class="edge"><title>Node6&#45;&gt;Node7</title>
<path fill="none" stroke="midnightblue" d="M585.714,-21.0249C594.33,-20.1052 603.13,-19.1659 611.778,-18.2428"/>
<polygon fill="midnightblue" stroke="midnightblue" points="612.27,-21.7103 621.842,-17.1686 611.527,-14.7498 612.27,-21.7103"/>
</g>
<!-- Node8 -->
<g id="node8" class="node"><title>Node8</title>
<g id="a_node8"><a xlink:href="../../d6/d34/classmodel_1_1_turtle.html#a61d79b71c878b0c64adeab038483da7a" target="_top" xlink:title="model.Turtle.getAngle">
<polygon fill="white" stroke="black" points="794.5,-0.5 794.5,-19.5 915.5,-19.5 915.5,-0.5 794.5,-0.5"/>
<text text-anchor="middle" x="855" y="-7.5" font-family="Helvetica,sans-Serif" font-size="10.00">model.Turtle.getAngle</text>
</a>
</g>
</g>
<!-- Node7&#45;&gt;Node8 -->
<g id="edge7" class="edge"><title>Node7&#45;&gt;Node8</title>
<path fill="none" stroke="midnightblue" d="M758.239,-10C766.875,-10 775.73,-10 784.402,-10"/>
<polygon fill="midnightblue" stroke="midnightblue" points="784.474,-13.5001 794.474,-10 784.474,-6.5001 784.474,-13.5001"/>
</g>
</g>
</svg>
