<?xml version="1.0" encoding="UTF-8" standalone="no"?>
<!DOCTYPE svg PUBLIC "-//W3C//DTD SVG 1.1//EN"
 "http://www.w3.org/Graphics/SVG/1.1/DTD/svg11.dtd">
<!-- Generated by graphviz version 2.36.0 (20140111.2315)
 -->
<!-- Title: instructions.ParameterInstruction Pages: 1 -->
<svg width="876pt" height="1709pt"
 viewBox="0.00 0.00 876.00 1709.00" xmlns="http://www.w3.org/2000/svg" xmlns:xlink="http://www.w3.org/1999/xlink">
<g id="graph0" class="graph" transform="scale(1 1) rotate(0) translate(4 1705)">
<title>instructions.ParameterInstruction</title>
<polygon fill="white" stroke="none" points="-4,4 -4,-1705 872,-1705 872,4 -4,4"/>
<!-- Node1 -->
<g id="node1" class="node"><title>Node1</title>
<polygon fill="#bfbfbf" stroke="black" points="270,-775.5 270,-794.5 446,-794.5 446,-775.5 270,-775.5"/>
<text text-anchor="middle" x="358" y="-782.5" font-family="Helvetica,sans-Serif" font-size="10.00">instructions.ParameterInstruction</text>
</g>
<!-- Node4 -->
<g id="node4" class="node"><title>Node4</title>
<g id="a_node4"><a xlink:href="../../d6/d3f/classinstructions_1_1_binary_instruction.html" target="_top" xlink:title="instructions.BinaryInstruction">
<polygon fill="white" stroke="black" points="483.5,-1288.5 483.5,-1307.5 638.5,-1307.5 638.5,-1288.5 483.5,-1288.5"/>
<text text-anchor="middle" x="561" y="-1295.5" font-family="Helvetica,sans-Serif" font-size="10.00">instructions.BinaryInstruction</text>
</a>
</g>
</g>
<!-- Node1&#45;&gt;Node4 -->
<g id="edge3" class="edge"><title>Node1&#45;&gt;Node4</title>
<path fill="none" stroke="midnightblue" d="M366.524,-804.202C399.626,-888.688 531.751,-1225.9 556.124,-1288.11"/>
<polygon fill="midnightblue" stroke="midnightblue" points="369.743,-802.824 362.836,-794.79 363.225,-805.377 369.743,-802.824"/>
</g>
<!-- Node24 -->
<g id="node24" class="node"><title>Node24</title>
<g id="a_node24"><a xlink:href="../../d7/de1/classinstructions_1_1commands_1_1_if_else.html" target="_top" xlink:title="instructions.commands.IfElse">
<polygon fill="white" stroke="black" points="482.5,-868.5 482.5,-887.5 639.5,-887.5 639.5,-868.5 482.5,-868.5"/>
<text text-anchor="middle" x="561" y="-875.5" font-family="Helvetica,sans-Serif" font-size="10.00">instructions.commands.IfElse</text>
</a>
</g>
</g>
<!-- Node1&#45;&gt;Node24 -->
<g id="edge23" class="edge"><title>Node1&#45;&gt;Node24</title>
<path fill="none" stroke="midnightblue" d="M380.646,-800.448C404.464,-816.809 444.375,-842.388 482,-858 492.072,-862.179 503.247,-865.668 513.918,-868.5"/>
<polygon fill="midnightblue" stroke="midnightblue" points="382.551,-797.509 372.344,-794.668 378.551,-803.254 382.551,-797.509"/>
</g>
<!-- Node25 -->
<g id="node25" class="node"><title>Node25</title>
<g id="a_node25"><a xlink:href="../../dc/d89/classinstructions_1_1commands_1_1_make_user_instruction.html" target="_top" xlink:title="instructions.commands.Make\lUserInstruction">
<polygon fill="white" stroke="black" points="482,-819 482,-849 640,-849 640,-819 482,-819"/>
<text text-anchor="start" x="490" y="-837" font-family="Helvetica,sans-Serif" font-size="10.00">instructions.commands.Make</text>
<text text-anchor="middle" x="561" y="-826" font-family="Helvetica,sans-Serif" font-size="10.00">UserInstruction</text>
</a>
</g>
</g>
<!-- Node1&#45;&gt;Node25 -->
<g id="edge24" class="edge"><title>Node1&#45;&gt;Node25</title>
<path fill="none" stroke="midnightblue" d="M408.283,-797.014C435.442,-803.635 469.411,-811.916 498.318,-818.963"/>
<polygon fill="midnightblue" stroke="midnightblue" points="408.776,-793.532 398.232,-794.564 407.118,-800.333 408.776,-793.532"/>
</g>
<!-- Node26 -->
<g id="node26" class="node"><title>Node26</title>
<g id="a_node26"><a xlink:href="../../df/dca/classinstructions_1_1commands_1_1_set_palette.html" target="_top" xlink:title="instructions.commands.Set\lPalette">
<polygon fill="white" stroke="black" points="486.5,-770 486.5,-800 635.5,-800 635.5,-770 486.5,-770"/>
<text text-anchor="start" x="494.5" y="-788" font-family="Helvetica,sans-Serif" font-size="10.00">instructions.commands.Set</text>
<text text-anchor="middle" x="561" y="-777" font-family="Helvetica,sans-Serif" font-size="10.00">Palette</text>
</a>
</g>
</g>
<!-- Node1&#45;&gt;Node26 -->
<g id="edge25" class="edge"><title>Node1&#45;&gt;Node26</title>
<path fill="none" stroke="midnightblue" d="M456.341,-785C466.426,-785 476.554,-785 486.318,-785"/>
<polygon fill="midnightblue" stroke="midnightblue" points="456.285,-781.5 446.285,-785 456.285,-788.5 456.285,-781.5"/>
</g>
<!-- Node27 -->
<g id="node27" class="node"><title>Node27</title>
<g id="a_node27"><a xlink:href="../../d6/d75/classinstructions_1_1commands_1_1_tell.html" target="_top" xlink:title="instructions.commands.Tell">
<polygon fill="white" stroke="black" points="488,-731.5 488,-750.5 634,-750.5 634,-731.5 488,-731.5"/>
<text text-anchor="middle" x="561" y="-738.5" font-family="Helvetica,sans-Serif" font-size="10.00">instructions.commands.Tell</text>
</a>
</g>
</g>
<!-- Node1&#45;&gt;Node27 -->
<g id="edge26" class="edge"><title>Node1&#45;&gt;Node27</title>
<path fill="none" stroke="midnightblue" d="M412.411,-773.308C444.926,-766.19 485.937,-757.213 516.471,-750.529"/>
<polygon fill="midnightblue" stroke="midnightblue" points="411.634,-769.895 402.614,-775.453 413.131,-776.733 411.634,-769.895"/>
</g>
<!-- Node29 -->
<g id="node29" class="node"><title>Node29</title>
<g id="a_node29"><a xlink:href="../../d0/d4c/classinstructions_1_1_unary_instruction.html" target="_top" xlink:title="instructions.UnaryInstruction">
<polygon fill="white" stroke="black" points="484,-505.5 484,-524.5 638,-524.5 638,-505.5 484,-505.5"/>
<text text-anchor="middle" x="561" y="-512.5" font-family="Helvetica,sans-Serif" font-size="10.00">instructions.UnaryInstruction</text>
</a>
</g>
</g>
<!-- Node1&#45;&gt;Node29 -->
<g id="edge28" class="edge"><title>Node1&#45;&gt;Node29</title>
<path fill="none" stroke="midnightblue" d="M372.313,-767.117C411.088,-715.032 523.067,-564.612 552.722,-524.776"/>
<polygon fill="midnightblue" stroke="midnightblue" points="369.318,-765.279 366.154,-775.391 374.933,-769.459 369.318,-765.279"/>
</g>
<!-- Node49 -->
<g id="node49" class="node"><title>Node49</title>
<g id="a_node49"><a xlink:href="../../df/dcf/classinstructions_1_1_user_defined_instruction.html" target="_top" xlink:title="instructions.UserDefined\lInstruction">
<polygon fill="white" stroke="black" points="494,-39 494,-69 628,-69 628,-39 494,-39"/>
<text text-anchor="start" x="502" y="-57" font-family="Helvetica,sans-Serif" font-size="10.00">instructions.UserDefined</text>
<text text-anchor="middle" x="561" y="-46" font-family="Helvetica,sans-Serif" font-size="10.00">Instruction</text>
</a>
</g>
</g>
<!-- Node1&#45;&gt;Node49 -->
<g id="edge48" class="edge"><title>Node1&#45;&gt;Node49</title>
<path fill="none" stroke="midnightblue" d="M364.324,-765.639C393.142,-660.832 530.115,-162.686 555.833,-69.1558"/>
<polygon fill="midnightblue" stroke="midnightblue" points="360.891,-764.92 361.615,-775.49 367.641,-766.776 360.891,-764.92"/>
</g>
<!-- Node2 -->
<g id="node2" class="node"><title>Node2</title>
<g id="a_node2"><a xlink:href="../../d2/d93/interfaceinstructions_1_1_instruction.html" target="_top" xlink:title="instructions.Instruction">
<polygon fill="white" stroke="black" points="108.5,-775.5 108.5,-794.5 233.5,-794.5 233.5,-775.5 108.5,-775.5"/>
<text text-anchor="middle" x="171" y="-782.5" font-family="Helvetica,sans-Serif" font-size="10.00">instructions.Instruction</text>
</a>
</g>
</g>
<!-- Node2&#45;&gt;Node1 -->
<g id="edge1" class="edge"><title>Node2&#45;&gt;Node1</title>
<path fill="none" stroke="midnightblue" d="M243.603,-785C252.239,-785 261.131,-785 269.957,-785"/>
<polygon fill="midnightblue" stroke="midnightblue" points="243.602,-781.5 233.602,-785 243.602,-788.5 243.602,-781.5"/>
</g>
<!-- Node3 -->
<g id="node3" class="node"><title>Node3</title>
<polygon fill="white" stroke="#bfbfbf" points="0.5,-775.5 0.5,-794.5 71.5,-794.5 71.5,-775.5 0.5,-775.5"/>
<text text-anchor="middle" x="36" y="-782.5" font-family="Helvetica,sans-Serif" font-size="10.00">Serializable</text>
</g>
<!-- Node3&#45;&gt;Node2 -->
<g id="edge2" class="edge"><title>Node3&#45;&gt;Node2</title>
<path fill="none" stroke="midnightblue" d="M81.697,-785C90.2324,-785 99.3067,-785 108.265,-785"/>
<polygon fill="midnightblue" stroke="midnightblue" points="81.597,-781.5 71.597,-785 81.597,-788.5 81.597,-781.5"/>
</g>
<!-- Node5 -->
<g id="node5" class="node"><title>Node5</title>
<g id="a_node5"><a xlink:href="../../d4/d40/classinstructions_1_1commands_1_1_and.html" target="_top" xlink:title="instructions.commands.And">
<polygon fill="white" stroke="black" points="696.5,-1681.5 696.5,-1700.5 847.5,-1700.5 847.5,-1681.5 696.5,-1681.5"/>
<text text-anchor="middle" x="772" y="-1688.5" font-family="Helvetica,sans-Serif" font-size="10.00">instructions.commands.And</text>
</a>
</g>
</g>
<!-- Node4&#45;&gt;Node5 -->
<g id="edge4" class="edge"><title>Node4&#45;&gt;Node5</title>
<path fill="none" stroke="midnightblue" d="M561.501,-1317.69C561.07,-1380.06 568.741,-1574.81 676,-1672 681.858,-1677.31 688.767,-1681.31 696.144,-1684.3"/>
<polygon fill="midnightblue" stroke="midnightblue" points="565.001,-1317.69 561.654,-1307.64 558.002,-1317.59 565.001,-1317.69"/>
</g>
<!-- Node6 -->
<g id="node6" class="node"><title>Node6</title>
<g id="a_node6"><a xlink:href="../../db/ddd/classinstructions_1_1commands_1_1_difference.html" target="_top" xlink:title="instructions.commands.Difference">
<polygon fill="white" stroke="black" points="681.5,-1643.5 681.5,-1662.5 862.5,-1662.5 862.5,-1643.5 681.5,-1643.5"/>
<text text-anchor="middle" x="772" y="-1650.5" font-family="Helvetica,sans-Serif" font-size="10.00">instructions.commands.Difference</text>
</a>
</g>
</g>
<!-- Node4&#45;&gt;Node6 -->
<g id="edge5" class="edge"><title>Node4&#45;&gt;Node6</title>
<path fill="none" stroke="midnightblue" d="M562.351,-1317.86C564.519,-1376.01 579.217,-1547.23 676,-1633 680.793,-1637.25 686.257,-1640.68 692.086,-1643.43"/>
<polygon fill="midnightblue" stroke="midnightblue" points="565.84,-1317.41 562.059,-1307.51 558.843,-1317.61 565.84,-1317.41"/>
</g>
<!-- Node7 -->
<g id="node7" class="node"><title>Node7</title>
<g id="a_node7"><a xlink:href="../../dd/de9/classinstructions_1_1commands_1_1_do_times.html" target="_top" xlink:title="instructions.commands.Do\lTimes">
<polygon fill="white" stroke="black" points="699,-1594 699,-1624 845,-1624 845,-1594 699,-1594"/>
<text text-anchor="start" x="707" y="-1612" font-family="Helvetica,sans-Serif" font-size="10.00">instructions.commands.Do</text>
<text text-anchor="middle" x="772" y="-1601" font-family="Helvetica,sans-Serif" font-size="10.00">Times</text>
</a>
</g>
</g>
<!-- Node4&#45;&gt;Node7 -->
<g id="edge6" class="edge"><title>Node4&#45;&gt;Node7</title>
<path fill="none" stroke="midnightblue" d="M563.876,-1317.82C569.882,-1369.77 593.383,-1510.89 676,-1584 682.641,-1589.88 690.504,-1594.4 698.819,-1597.87"/>
<polygon fill="midnightblue" stroke="midnightblue" points="567.331,-1317.21 562.796,-1307.63 560.37,-1317.95 567.331,-1317.21"/>
</g>
<!-- Node8 -->
<g id="node8" class="node"><title>Node8</title>
<g id="a_node8"><a xlink:href="../../dc/d8d/classinstructions_1_1commands_1_1_equal.html" target="_top" xlink:title="instructions.commands.Equal">
<polygon fill="white" stroke="black" points="693,-1555.5 693,-1574.5 851,-1574.5 851,-1555.5 693,-1555.5"/>
<text text-anchor="middle" x="772" y="-1562.5" font-family="Helvetica,sans-Serif" font-size="10.00">instructions.commands.Equal</text>
</a>
</g>
</g>
<!-- Node4&#45;&gt;Node8 -->
<g id="edge7" class="edge"><title>Node4&#45;&gt;Node8</title>
<path fill="none" stroke="midnightblue" d="M564.905,-1317.67C573.007,-1365.12 600.443,-1486.3 676,-1546 681.015,-1549.96 686.635,-1553.17 692.568,-1555.75"/>
<polygon fill="midnightblue" stroke="midnightblue" points="568.354,-1317.07 563.314,-1307.75 561.442,-1318.18 568.354,-1317.07"/>
</g>
<!-- Node9 -->
<g id="node9" class="node"><title>Node9</title>
<g id="a_node9"><a xlink:href="../../de/d23/classinstructions_1_1commands_1_1_for.html" target="_top" xlink:title="instructions.commands.For">
<polygon fill="white" stroke="black" points="698.5,-1517.5 698.5,-1536.5 845.5,-1536.5 845.5,-1517.5 698.5,-1517.5"/>
<text text-anchor="middle" x="772" y="-1524.5" font-family="Helvetica,sans-Serif" font-size="10.00">instructions.commands.For</text>
</a>
</g>
</g>
<!-- Node4&#45;&gt;Node9 -->
<g id="edge8" class="edge"><title>Node4&#45;&gt;Node9</title>
<path fill="none" stroke="midnightblue" d="M566.676,-1317.77C577.759,-1360.01 609.8,-1459.18 676,-1508 682.633,-1512.89 690.207,-1516.61 698.12,-1519.42"/>
<polygon fill="midnightblue" stroke="midnightblue" points="570.025,-1316.73 564.198,-1307.88 563.236,-1318.43 570.025,-1316.73"/>
</g>
<!-- Node10 -->
<g id="node10" class="node"><title>Node10</title>
<g id="a_node10"><a xlink:href="../../d0/d2d/classinstructions_1_1commands_1_1_greater_than.html" target="_top" xlink:title="instructions.commands.GreaterThan">
<polygon fill="white" stroke="black" points="676,-1479.5 676,-1498.5 868,-1498.5 868,-1479.5 676,-1479.5"/>
<text text-anchor="middle" x="772" y="-1486.5" font-family="Helvetica,sans-Serif" font-size="10.00">instructions.commands.GreaterThan</text>
</a>
</g>
</g>
<!-- Node4&#45;&gt;Node10 -->
<g id="edge9" class="edge"><title>Node4&#45;&gt;Node10</title>
<path fill="none" stroke="midnightblue" d="M568.896,-1317.15C582.973,-1353.3 618.617,-1431.46 676,-1470 681.725,-1473.84 688.052,-1476.95 694.643,-1479.44"/>
<polygon fill="midnightblue" stroke="midnightblue" points="572.156,-1315.87 565.358,-1307.74 565.605,-1318.34 572.156,-1315.87"/>
</g>
<!-- Node11 -->
<g id="node11" class="node"><title>Node11</title>
<g id="a_node11"><a xlink:href="../../d3/da3/classinstructions_1_1commands_1_1_if.html" target="_top" xlink:title="instructions.commands.If">
<polygon fill="white" stroke="black" points="703.5,-1441.5 703.5,-1460.5 840.5,-1460.5 840.5,-1441.5 703.5,-1441.5"/>
<text text-anchor="middle" x="772" y="-1448.5" font-family="Helvetica,sans-Serif" font-size="10.00">instructions.commands.If</text>
</a>
</g>
</g>
<!-- Node4&#45;&gt;Node11 -->
<g id="edge10" class="edge"><title>Node4&#45;&gt;Node11</title>
<path fill="none" stroke="midnightblue" d="M572.181,-1316.56C589.416,-1346.08 627.272,-1403.34 676,-1432 684.264,-1436.86 693.558,-1440.5 703.013,-1443.22"/>
<polygon fill="midnightblue" stroke="midnightblue" points="575.125,-1314.65 567.141,-1307.69 569.039,-1318.11 575.125,-1314.65"/>
</g>
<!-- Node12 -->
<g id="node12" class="node"><title>Node12</title>
<g id="a_node12"><a xlink:href="../../d1/d94/classinstructions_1_1commands_1_1_less_than.html" target="_top" xlink:title="instructions.commands.LessThan">
<polygon fill="white" stroke="black" points="683.5,-1403.5 683.5,-1422.5 860.5,-1422.5 860.5,-1403.5 683.5,-1403.5"/>
<text text-anchor="middle" x="772" y="-1410.5" font-family="Helvetica,sans-Serif" font-size="10.00">instructions.commands.LessThan</text>
</a>
</g>
</g>
<!-- Node4&#45;&gt;Node12 -->
<g id="edge11" class="edge"><title>Node4&#45;&gt;Node12</title>
<path fill="none" stroke="midnightblue" d="M577.25,-1315.06C597.579,-1336.68 635.704,-1373.48 676,-1393 685.025,-1397.37 694.987,-1400.79 704.963,-1403.47"/>
<polygon fill="midnightblue" stroke="midnightblue" points="579.712,-1312.56 570.362,-1307.58 574.564,-1317.31 579.712,-1312.56"/>
</g>
<!-- Node13 -->
<g id="node13" class="node"><title>Node13</title>
<g id="a_node13"><a xlink:href="../../df/d40/classinstructions_1_1commands_1_1_make_variable.html" target="_top" xlink:title="instructions.commands.Make\lVariable">
<polygon fill="white" stroke="black" points="693,-1354 693,-1384 851,-1384 851,-1354 693,-1354"/>
<text text-anchor="start" x="701" y="-1372" font-family="Helvetica,sans-Serif" font-size="10.00">instructions.commands.Make</text>
<text text-anchor="middle" x="772" y="-1361" font-family="Helvetica,sans-Serif" font-size="10.00">Variable</text>
</a>
</g>
</g>
<!-- Node4&#45;&gt;Node13 -->
<g id="edge12" class="edge"><title>Node4&#45;&gt;Node13</title>
<path fill="none" stroke="midnightblue" d="M592.999,-1311.75C615.704,-1321.51 647.415,-1334.51 676,-1344 686.683,-1347.55 698.172,-1350.92 709.341,-1353.99"/>
<polygon fill="midnightblue" stroke="midnightblue" points="594.117,-1308.42 583.55,-1307.65 591.331,-1314.84 594.117,-1308.42"/>
</g>
<!-- Node14 -->
<g id="node14" class="node"><title>Node14</title>
<g id="a_node14"><a xlink:href="../../d3/d06/classinstructions_1_1commands_1_1_not_equal.html" target="_top" xlink:title="instructions.commands.Not\lEqual">
<polygon fill="white" stroke="black" points="697.5,-1305 697.5,-1335 846.5,-1335 846.5,-1305 697.5,-1305"/>
<text text-anchor="start" x="705.5" y="-1323" font-family="Helvetica,sans-Serif" font-size="10.00">instructions.commands.Not</text>
<text text-anchor="middle" x="772" y="-1312" font-family="Helvetica,sans-Serif" font-size="10.00">Equal</text>
</a>
</g>
</g>
<!-- Node4&#45;&gt;Node14 -->
<g id="edge13" class="edge"><title>Node4&#45;&gt;Node14</title>
<path fill="none" stroke="midnightblue" d="M648.593,-1307.12C664.728,-1308.81 681.45,-1310.57 697.158,-1312.23"/>
<polygon fill="midnightblue" stroke="midnightblue" points="648.949,-1303.63 638.637,-1306.07 648.216,-1310.59 648.949,-1303.63"/>
</g>
<!-- Node15 -->
<g id="node15" class="node"><title>Node15</title>
<g id="a_node15"><a xlink:href="../../d8/d0d/classinstructions_1_1commands_1_1_or.html" target="_top" xlink:title="instructions.commands.Or">
<polygon fill="white" stroke="black" points="700.5,-1266.5 700.5,-1285.5 843.5,-1285.5 843.5,-1266.5 700.5,-1266.5"/>
<text text-anchor="middle" x="772" y="-1273.5" font-family="Helvetica,sans-Serif" font-size="10.00">instructions.commands.Or</text>
</a>
</g>
</g>
<!-- Node4&#45;&gt;Node15 -->
<g id="edge14" class="edge"><title>Node4&#45;&gt;Node15</title>
<path fill="none" stroke="midnightblue" d="M648.663,-1288.88C665.846,-1287.07 683.691,-1285.19 700.267,-1283.45"/>
<polygon fill="midnightblue" stroke="midnightblue" points="648.216,-1285.41 638.637,-1289.93 648.949,-1292.37 648.216,-1285.41"/>
</g>
<!-- Node16 -->
<g id="node16" class="node"><title>Node16</title>
<g id="a_node16"><a xlink:href="../../d4/d85/classinstructions_1_1commands_1_1_power.html" target="_top" xlink:title="instructions.commands.Power">
<polygon fill="white" stroke="black" points="691.5,-1228.5 691.5,-1247.5 852.5,-1247.5 852.5,-1228.5 691.5,-1228.5"/>
<text text-anchor="middle" x="772" y="-1235.5" font-family="Helvetica,sans-Serif" font-size="10.00">instructions.commands.Power</text>
</a>
</g>
</g>
<!-- Node4&#45;&gt;Node16 -->
<g id="edge15" class="edge"><title>Node4&#45;&gt;Node16</title>
<path fill="none" stroke="midnightblue" d="M594.691,-1284.79C617.259,-1276.03 648.111,-1264.76 676,-1257 688.882,-1253.42 702.925,-1250.23 716.166,-1247.53"/>
<polygon fill="midnightblue" stroke="midnightblue" points="593.282,-1281.58 585.252,-1288.49 595.84,-1288.09 593.282,-1281.58"/>
</g>
<!-- Node17 -->
<g id="node17" class="node"><title>Node17</title>
<g id="a_node17"><a xlink:href="../../db/d93/classinstructions_1_1commands_1_1_product.html" target="_top" xlink:title="instructions.commands.Product">
<polygon fill="white" stroke="black" points="687.5,-1190.5 687.5,-1209.5 856.5,-1209.5 856.5,-1190.5 687.5,-1190.5"/>
<text text-anchor="middle" x="772" y="-1197.5" font-family="Helvetica,sans-Serif" font-size="10.00">instructions.commands.Product</text>
</a>
</g>
</g>
<!-- Node4&#45;&gt;Node17 -->
<g id="edge16" class="edge"><title>Node4&#45;&gt;Node17</title>
<path fill="none" stroke="midnightblue" d="M580.392,-1281.65C601.819,-1263.5 639.021,-1234.71 676,-1219 685.134,-1215.12 695.103,-1212.02 705.038,-1209.54"/>
<polygon fill="midnightblue" stroke="midnightblue" points="578.017,-1279.07 572.731,-1288.26 582.589,-1284.37 578.017,-1279.07"/>
</g>
<!-- Node18 -->
<g id="node18" class="node"><title>Node18</title>
<g id="a_node18"><a xlink:href="../../d2/da3/classinstructions_1_1commands_1_1_quotient.html" target="_top" xlink:title="instructions.commands.Quotient">
<polygon fill="white" stroke="black" points="685.5,-1152.5 685.5,-1171.5 858.5,-1171.5 858.5,-1152.5 685.5,-1152.5"/>
<text text-anchor="middle" x="772" y="-1159.5" font-family="Helvetica,sans-Serif" font-size="10.00">instructions.commands.Quotient</text>
</a>
</g>
</g>
<!-- Node4&#45;&gt;Node18 -->
<g id="edge17" class="edge"><title>Node4&#45;&gt;Node18</title>
<path fill="none" stroke="midnightblue" d="M574.102,-1279.94C592.715,-1253.69 630.976,-1205.47 676,-1181 683.093,-1177.14 690.866,-1174.07 698.815,-1171.61"/>
<polygon fill="midnightblue" stroke="midnightblue" points="571.175,-1278.02 568.359,-1288.23 576.929,-1282 571.175,-1278.02"/>
</g>
<!-- Node19 -->
<g id="node19" class="node"><title>Node19</title>
<g id="a_node19"><a xlink:href="../../df/dc9/classinstructions_1_1commands_1_1_remainder.html" target="_top" xlink:title="instructions.commands.Remainder">
<polygon fill="white" stroke="black" points="680.5,-1114.5 680.5,-1133.5 863.5,-1133.5 863.5,-1114.5 680.5,-1114.5"/>
<text text-anchor="middle" x="772" y="-1121.5" font-family="Helvetica,sans-Serif" font-size="10.00">instructions.commands.Remainder</text>
</a>
</g>
</g>
<!-- Node4&#45;&gt;Node19 -->
<g id="edge18" class="edge"><title>Node4&#45;&gt;Node19</title>
<path fill="none" stroke="midnightblue" d="M570.274,-1278.94C585.797,-1245.59 622.608,-1177 676,-1143 682.101,-1139.12 688.832,-1136 695.81,-1133.5"/>
<polygon fill="midnightblue" stroke="midnightblue" points="566.911,-1277.88 565.988,-1288.43 573.291,-1280.76 566.911,-1277.88"/>
</g>
<!-- Node20 -->
<g id="node20" class="node"><title>Node20</title>
<g id="a_node20"><a xlink:href="../../dc/de7/classinstructions_1_1commands_1_1_repeat.html" target="_top" xlink:title="instructions.commands.Repeat">
<polygon fill="white" stroke="black" points="689.5,-1076.5 689.5,-1095.5 854.5,-1095.5 854.5,-1076.5 689.5,-1076.5"/>
<text text-anchor="middle" x="772" y="-1083.5" font-family="Helvetica,sans-Serif" font-size="10.00">instructions.commands.Repeat</text>
</a>
</g>
</g>
<!-- Node4&#45;&gt;Node20 -->
<g id="edge19" class="edge"><title>Node4&#45;&gt;Node20</title>
<path fill="none" stroke="midnightblue" d="M567.503,-1278.76C579.84,-1239.31 613.637,-1149.27 676,-1105 681.349,-1101.2 687.273,-1098.12 693.473,-1095.63"/>
<polygon fill="midnightblue" stroke="midnightblue" points="564.112,-1277.88 564.586,-1288.46 570.816,-1279.89 564.112,-1277.88"/>
</g>
<!-- Node21 -->
<g id="node21" class="node"><title>Node21</title>
<g id="a_node21"><a xlink:href="../../da/d22/classinstructions_1_1commands_1_1_set_position.html" target="_top" xlink:title="instructions.commands.Set\lPosition">
<polygon fill="white" stroke="black" points="697.5,-1027 697.5,-1057 846.5,-1057 846.5,-1027 697.5,-1027"/>
<text text-anchor="start" x="705.5" y="-1045" font-family="Helvetica,sans-Serif" font-size="10.00">instructions.commands.Set</text>
<text text-anchor="middle" x="772" y="-1034" font-family="Helvetica,sans-Serif" font-size="10.00">Position</text>
</a>
</g>
</g>
<!-- Node4&#45;&gt;Node21 -->
<g id="edge20" class="edge"><title>Node4&#45;&gt;Node21</title>
<path fill="none" stroke="midnightblue" d="M565.889,-1278.45C575.816,-1233.8 606.388,-1123.85 676,-1067 682.34,-1061.82 689.643,-1057.71 697.324,-1054.44"/>
<polygon fill="midnightblue" stroke="midnightblue" points="562.446,-1277.81 563.798,-1288.32 569.294,-1279.26 562.446,-1277.81"/>
</g>
<!-- Node22 -->
<g id="node22" class="node"><title>Node22</title>
<g id="a_node22"><a xlink:href="../../d2/d46/classinstructions_1_1commands_1_1_set_towards.html" target="_top" xlink:title="instructions.commands.Set\lTowards">
<polygon fill="white" stroke="black" points="697.5,-978 697.5,-1008 846.5,-1008 846.5,-978 697.5,-978"/>
<text text-anchor="start" x="705.5" y="-996" font-family="Helvetica,sans-Serif" font-size="10.00">instructions.commands.Set</text>
<text text-anchor="middle" x="772" y="-985" font-family="Helvetica,sans-Serif" font-size="10.00">Towards</text>
</a>
</g>
</g>
<!-- Node4&#45;&gt;Node22 -->
<g id="edge21" class="edge"><title>Node4&#45;&gt;Node22</title>
<path fill="none" stroke="midnightblue" d="M563.994,-1278.12C570.251,-1226.67 594.239,-1088.19 676,-1017 682.286,-1011.53 689.647,-1007.27 697.439,-1003.96"/>
<polygon fill="midnightblue" stroke="midnightblue" points="560.496,-1277.91 562.862,-1288.24 567.453,-1278.69 560.496,-1277.91"/>
</g>
<!-- Node23 -->
<g id="node23" class="node"><title>Node23</title>
<g id="a_node23"><a xlink:href="../../d4/d62/classinstructions_1_1commands_1_1_sum.html" target="_top" xlink:title="instructions.commands.Sum">
<polygon fill="white" stroke="black" points="694.5,-939.5 694.5,-958.5 849.5,-958.5 849.5,-939.5 694.5,-939.5"/>
<text text-anchor="middle" x="772" y="-946.5" font-family="Helvetica,sans-Serif" font-size="10.00">instructions.commands.Sum</text>
</a>
</g>
</g>
<!-- Node4&#45;&gt;Node23 -->
<g id="edge22" class="edge"><title>Node4&#45;&gt;Node23</title>
<path fill="none" stroke="midnightblue" d="M562.431,-1278C564.826,-1220.2 580.104,-1051.73 676,-968 681.448,-963.243 687.746,-959.548 694.455,-956.693"/>
<polygon fill="midnightblue" stroke="midnightblue" points="558.923,-1278.2 562.097,-1288.31 565.919,-1278.42 558.923,-1278.2"/>
</g>
<!-- Node28 -->
<g id="node28" class="node"><title>Node28</title>
<g id="a_node28"><a xlink:href="../../d1/dd6/classinstructions_1_1commands_1_1_ask.html" target="_top" xlink:title="instructions.commands.Ask">
<polygon fill="white" stroke="black" points="697.5,-901.5 697.5,-920.5 846.5,-920.5 846.5,-901.5 697.5,-901.5"/>
<text text-anchor="middle" x="772" y="-908.5" font-family="Helvetica,sans-Serif" font-size="10.00">instructions.commands.Ask</text>
</a>
</g>
</g>
<!-- Node27&#45;&gt;Node28 -->
<g id="edge27" class="edge"><title>Node27&#45;&gt;Node28</title>
<path fill="none" stroke="midnightblue" d="M635.365,-756.034C636.988,-757.26 638.538,-758.58 640,-760 683.315,-802.067 632.029,-849.62 676,-891 682.137,-896.775 689.501,-901.058 697.378,-904.21"/>
<polygon fill="midnightblue" stroke="midnightblue" points="637.054,-752.962 626.715,-750.648 633.355,-758.905 637.054,-752.962"/>
</g>
<!-- Node30 -->
<g id="node30" class="node"><title>Node30</title>
<g id="a_node30"><a xlink:href="../../de/d6a/classinstructions_1_1commands_1_1_arc_tangent.html" target="_top" xlink:title="instructions.commands.Arc\lTangent">
<polygon fill="white" stroke="black" points="698,-852 698,-882 846,-882 846,-852 698,-852"/>
<text text-anchor="start" x="706" y="-870" font-family="Helvetica,sans-Serif" font-size="10.00">instructions.commands.Arc</text>
<text text-anchor="middle" x="772" y="-859" font-family="Helvetica,sans-Serif" font-size="10.00">Tangent</text>
</a>
</g>
</g>
<!-- Node29&#45;&gt;Node30 -->
<g id="edge29" class="edge"><title>Node29&#45;&gt;Node30</title>
<path fill="none" stroke="midnightblue" d="M569.751,-534.222C584.307,-570.599 616.387,-652.13 640,-722 657.828,-774.751 635.961,-803.305 676,-842 682.254,-848.044 689.787,-852.673 697.841,-856.209"/>
<polygon fill="midnightblue" stroke="midnightblue" points="572.952,-532.8 565.978,-524.824 566.456,-535.408 572.952,-532.8"/>
</g>
<!-- Node31 -->
<g id="node31" class="node"><title>Node31</title>
<g id="a_node31"><a xlink:href="../../d9/da9/classinstructions_1_1commands_1_1_backward.html" target="_top" xlink:title="instructions.commands.Backward">
<polygon fill="white" stroke="black" points="683,-813.5 683,-832.5 861,-832.5 861,-813.5 683,-813.5"/>
<text text-anchor="middle" x="772" y="-820.5" font-family="Helvetica,sans-Serif" font-size="10.00">instructions.commands.Backward</text>
</a>
</g>
</g>
<!-- Node29&#45;&gt;Node31 -->
<g id="edge30" class="edge"><title>Node29&#45;&gt;Node31</title>
<path fill="none" stroke="midnightblue" d="M569.388,-534.454C593.769,-598.559 670.438,-799.351 676,-804 680.517,-807.775 685.574,-810.874 690.94,-813.409"/>
<polygon fill="midnightblue" stroke="midnightblue" points="572.53,-532.869 565.705,-524.765 565.987,-535.356 572.53,-532.869"/>
</g>
<!-- Node32 -->
<g id="node32" class="node"><title>Node32</title>
<g id="a_node32"><a xlink:href="../../d8/d4a/classinstructions_1_1commands_1_1_cosine.html" target="_top" xlink:title="instructions.commands.Cosine">
<polygon fill="white" stroke="black" points="690,-775.5 690,-794.5 854,-794.5 854,-775.5 690,-775.5"/>
<text text-anchor="middle" x="772" y="-782.5" font-family="Helvetica,sans-Serif" font-size="10.00">instructions.commands.Cosine</text>
</a>
</g>
</g>
<!-- Node29&#45;&gt;Node32 -->
<g id="edge31" class="edge"><title>Node29&#45;&gt;Node32</title>
<path fill="none" stroke="midnightblue" d="M568.132,-534.058C585.587,-587.152 636.809,-734.891 676,-766 680.743,-769.765 686.03,-772.846 691.615,-775.362"/>
<polygon fill="midnightblue" stroke="midnightblue" points="571.444,-532.926 565.02,-524.501 564.788,-535.094 571.444,-532.926"/>
</g>
<!-- Node33 -->
<g id="node33" class="node"><title>Node33</title>
<g id="a_node33"><a xlink:href="../../d7/dab/classinstructions_1_1commands_1_1_forward.html" target="_top" xlink:title="instructions.commands.Forward">
<polygon fill="white" stroke="black" points="687,-737.5 687,-756.5 857,-756.5 857,-737.5 687,-737.5"/>
<text text-anchor="middle" x="772" y="-744.5" font-family="Helvetica,sans-Serif" font-size="10.00">instructions.commands.Forward</text>
</a>
</g>
</g>
<!-- Node29&#45;&gt;Node33 -->
<g id="edge32" class="edge"><title>Node29&#45;&gt;Node33</title>
<path fill="none" stroke="midnightblue" d="M566.655,-534.9C577.696,-577.433 609.66,-677.353 676,-727 681.668,-731.241 688.033,-734.629 694.714,-737.33"/>
<polygon fill="midnightblue" stroke="midnightblue" points="569.991,-533.812 564.187,-524.949 563.197,-535.497 569.991,-533.812"/>
</g>
<!-- Node34 -->
<g id="node34" class="node"><title>Node34</title>
<g id="a_node34"><a xlink:href="../../df/d09/classinstructions_1_1commands_1_1_get_pen_color.html" target="_top" xlink:title="instructions.commands.Get\lPenColor">
<polygon fill="white" stroke="black" points="697.5,-688 697.5,-718 846.5,-718 846.5,-688 697.5,-688"/>
<text text-anchor="start" x="705.5" y="-706" font-family="Helvetica,sans-Serif" font-size="10.00">instructions.commands.Get</text>
<text text-anchor="middle" x="772" y="-695" font-family="Helvetica,sans-Serif" font-size="10.00">PenColor</text>
</a>
</g>
</g>
<!-- Node29&#45;&gt;Node34 -->
<g id="edge33" class="edge"><title>Node29&#45;&gt;Node34</title>
<path fill="none" stroke="midnightblue" d="M570.017,-534.263C585.332,-568.627 622.091,-640.41 676,-678 682.435,-682.487 689.625,-686.169 697.091,-689.19"/>
<polygon fill="midnightblue" stroke="midnightblue" points="573.141,-532.668 565.958,-524.88 566.716,-535.447 573.141,-532.668"/>
</g>
<!-- Node35 -->
<g id="node35" class="node"><title>Node35</title>
<g id="a_node35"><a xlink:href="../../de/d33/classinstructions_1_1commands_1_1_get_shape.html" target="_top" xlink:title="instructions.commands.Get\lShape">
<polygon fill="white" stroke="black" points="697.5,-639 697.5,-669 846.5,-669 846.5,-639 697.5,-639"/>
<text text-anchor="start" x="705.5" y="-657" font-family="Helvetica,sans-Serif" font-size="10.00">instructions.commands.Get</text>
<text text-anchor="middle" x="772" y="-646" font-family="Helvetica,sans-Serif" font-size="10.00">Shape</text>
</a>
</g>
</g>
<!-- Node29&#45;&gt;Node35 -->
<g id="edge34" class="edge"><title>Node29&#45;&gt;Node35</title>
<path fill="none" stroke="midnightblue" d="M574.94,-532.957C594.123,-558.245 632.551,-604.044 676,-629 682.655,-632.822 689.906,-636.073 697.337,-638.836"/>
<polygon fill="midnightblue" stroke="midnightblue" points="577.54,-530.588 568.77,-524.645 571.92,-534.761 577.54,-530.588"/>
</g>
<!-- Node36 -->
<g id="node36" class="node"><title>Node36</title>
<g id="a_node36"><a xlink:href="../../d8/dd0/classinstructions_1_1commands_1_1_left.html" target="_top" xlink:title="instructions.commands.Left">
<polygon fill="white" stroke="black" points="697,-600.5 697,-619.5 847,-619.5 847,-600.5 697,-600.5"/>
<text text-anchor="middle" x="772" y="-607.5" font-family="Helvetica,sans-Serif" font-size="10.00">instructions.commands.Left</text>
</a>
</g>
</g>
<!-- Node29&#45;&gt;Node36 -->
<g id="edge35" class="edge"><title>Node29&#45;&gt;Node36</title>
<path fill="none" stroke="midnightblue" d="M580.849,-530.982C602.43,-548.43 639.527,-575.892 676,-591 685.401,-594.894 695.665,-598.009 705.858,-600.495"/>
<polygon fill="midnightblue" stroke="midnightblue" points="583.058,-528.268 573.112,-524.616 578.61,-533.673 583.058,-528.268"/>
</g>
<!-- Node37 -->
<g id="node37" class="node"><title>Node37</title>
<g id="a_node37"><a xlink:href="../../d7/d10/classinstructions_1_1commands_1_1_minus.html" target="_top" xlink:title="instructions.commands.Minus">
<polygon fill="white" stroke="black" points="692,-562.5 692,-581.5 852,-581.5 852,-562.5 692,-562.5"/>
<text text-anchor="middle" x="772" y="-569.5" font-family="Helvetica,sans-Serif" font-size="10.00">instructions.commands.Minus</text>
</a>
</g>
</g>
<!-- Node29&#45;&gt;Node37 -->
<g id="edge36" class="edge"><title>Node29&#45;&gt;Node37</title>
<path fill="none" stroke="midnightblue" d="M596.95,-527.905C619.336,-535.858 649.127,-545.863 676,-553 689.168,-556.497 703.513,-559.683 716.973,-562.405"/>
<polygon fill="midnightblue" stroke="midnightblue" points="598.126,-524.609 587.531,-524.526 595.761,-531.198 598.126,-524.609"/>
</g>
<!-- Node38 -->
<g id="node38" class="node"><title>Node38</title>
<g id="a_node38"><a xlink:href="../../dc/ddb/classinstructions_1_1commands_1_1_natural_log.html" target="_top" xlink:title="instructions.commands.NaturalLog">
<polygon fill="white" stroke="black" points="679.5,-524.5 679.5,-543.5 864.5,-543.5 864.5,-524.5 679.5,-524.5"/>
<text text-anchor="middle" x="772" y="-531.5" font-family="Helvetica,sans-Serif" font-size="10.00">instructions.commands.NaturalLog</text>
</a>
</g>
</g>
<!-- Node29&#45;&gt;Node38 -->
<g id="edge37" class="edge"><title>Node29&#45;&gt;Node38</title>
<path fill="none" stroke="midnightblue" d="M648.223,-522.838C658.498,-523.773 669.017,-524.729 679.364,-525.669"/>
<polygon fill="midnightblue" stroke="midnightblue" points="648.321,-519.333 638.045,-521.913 647.687,-526.304 648.321,-519.333"/>
</g>
<!-- Node39 -->
<g id="node39" class="node"><title>Node39</title>
<g id="a_node39"><a xlink:href="../../db/d3d/classinstructions_1_1commands_1_1_not.html" target="_top" xlink:title="instructions.commands.Not">
<polygon fill="white" stroke="black" points="697.5,-486.5 697.5,-505.5 846.5,-505.5 846.5,-486.5 697.5,-486.5"/>
<text text-anchor="middle" x="772" y="-493.5" font-family="Helvetica,sans-Serif" font-size="10.00">instructions.commands.Not</text>
</a>
</g>
</g>
<!-- Node29&#45;&gt;Node39 -->
<g id="edge38" class="edge"><title>Node29&#45;&gt;Node39</title>
<path fill="none" stroke="midnightblue" d="M648.145,-507.169C664.52,-505.68 681.515,-504.135 697.455,-502.686"/>
<polygon fill="midnightblue" stroke="midnightblue" points="647.687,-503.696 638.045,-508.087 648.321,-510.667 647.687,-503.696"/>
</g>
<!-- Node40 -->
<g id="node40" class="node"><title>Node40</title>
<g id="a_node40"><a xlink:href="../../d8/d8d/classinstructions_1_1commands_1_1_random.html" target="_top" xlink:title="instructions.commands.Random">
<polygon fill="white" stroke="black" points="686,-448.5 686,-467.5 858,-467.5 858,-448.5 686,-448.5"/>
<text text-anchor="middle" x="772" y="-455.5" font-family="Helvetica,sans-Serif" font-size="10.00">instructions.commands.Random</text>
</a>
</g>
</g>
<!-- Node29&#45;&gt;Node40 -->
<g id="edge39" class="edge"><title>Node29&#45;&gt;Node40</title>
<path fill="none" stroke="midnightblue" d="M596.95,-502.095C619.336,-494.142 649.127,-484.137 676,-477 689.168,-473.503 703.513,-470.317 716.973,-467.595"/>
<polygon fill="midnightblue" stroke="midnightblue" points="595.761,-498.802 587.531,-505.474 598.126,-505.391 595.761,-498.802"/>
</g>
<!-- Node41 -->
<g id="node41" class="node"><title>Node41</title>
<g id="a_node41"><a xlink:href="../../df/dd2/classinstructions_1_1commands_1_1_right.html" target="_top" xlink:title="instructions.commands.Right">
<polygon fill="white" stroke="black" points="694,-410.5 694,-429.5 850,-429.5 850,-410.5 694,-410.5"/>
<text text-anchor="middle" x="772" y="-417.5" font-family="Helvetica,sans-Serif" font-size="10.00">instructions.commands.Right</text>
</a>
</g>
</g>
<!-- Node29&#45;&gt;Node41 -->
<g id="edge40" class="edge"><title>Node29&#45;&gt;Node41</title>
<path fill="none" stroke="midnightblue" d="M580.849,-499.018C602.43,-481.57 639.527,-454.108 676,-439 685.401,-435.106 695.665,-431.991 705.858,-429.505"/>
<polygon fill="midnightblue" stroke="midnightblue" points="578.61,-496.327 573.112,-505.384 583.058,-501.732 578.61,-496.327"/>
</g>
<!-- Node42 -->
<g id="node42" class="node"><title>Node42</title>
<g id="a_node42"><a xlink:href="../../dc/de0/classinstructions_1_1commands_1_1_set_background.html" target="_top" xlink:title="instructions.commands.Set\lBackground">
<polygon fill="white" stroke="black" points="697.5,-361 697.5,-391 846.5,-391 846.5,-361 697.5,-361"/>
<text text-anchor="start" x="705.5" y="-379" font-family="Helvetica,sans-Serif" font-size="10.00">instructions.commands.Set</text>
<text text-anchor="middle" x="772" y="-368" font-family="Helvetica,sans-Serif" font-size="10.00">Background</text>
</a>
</g>
</g>
<!-- Node29&#45;&gt;Node42 -->
<g id="edge41" class="edge"><title>Node29&#45;&gt;Node42</title>
<path fill="none" stroke="midnightblue" d="M574.94,-497.043C594.123,-471.755 632.551,-425.956 676,-401 682.655,-397.178 689.906,-393.927 697.337,-391.164"/>
<polygon fill="midnightblue" stroke="midnightblue" points="571.92,-495.239 568.77,-505.355 577.54,-499.412 571.92,-495.239"/>
</g>
<!-- Node43 -->
<g id="node43" class="node"><title>Node43</title>
<g id="a_node43"><a xlink:href="../../de/d12/classinstructions_1_1commands_1_1_set_heading.html" target="_top" xlink:title="instructions.commands.Set\lHeading">
<polygon fill="white" stroke="black" points="697.5,-312 697.5,-342 846.5,-342 846.5,-312 697.5,-312"/>
<text text-anchor="start" x="705.5" y="-330" font-family="Helvetica,sans-Serif" font-size="10.00">instructions.commands.Set</text>
<text text-anchor="middle" x="772" y="-319" font-family="Helvetica,sans-Serif" font-size="10.00">Heading</text>
</a>
</g>
</g>
<!-- Node29&#45;&gt;Node43 -->
<g id="edge42" class="edge"><title>Node29&#45;&gt;Node43</title>
<path fill="none" stroke="midnightblue" d="M569.732,-496.059C584.802,-461.598 621.479,-388.734 676,-351 682.434,-346.547 689.624,-342.919 697.089,-339.964"/>
<polygon fill="midnightblue" stroke="midnightblue" points="566.436,-494.866 565.752,-505.439 572.88,-497.6 566.436,-494.866"/>
</g>
<!-- Node44 -->
<g id="node44" class="node"><title>Node44</title>
<g id="a_node44"><a xlink:href="../../dd/df0/classinstructions_1_1commands_1_1_set_pen_color.html" target="_top" xlink:title="instructions.commands.Set\lPenColor">
<polygon fill="white" stroke="black" points="697.5,-263 697.5,-293 846.5,-293 846.5,-263 697.5,-263"/>
<text text-anchor="start" x="705.5" y="-281" font-family="Helvetica,sans-Serif" font-size="10.00">instructions.commands.Set</text>
<text text-anchor="middle" x="772" y="-270" font-family="Helvetica,sans-Serif" font-size="10.00">PenColor</text>
</a>
</g>
</g>
<!-- Node29&#45;&gt;Node44 -->
<g id="edge43" class="edge"><title>Node29&#45;&gt;Node44</title>
<path fill="none" stroke="midnightblue" d="M566.779,-495.21C578.064,-452.874 610.476,-353.213 676,-302 682.299,-297.076 689.488,-293.152 697.027,-290.025"/>
<polygon fill="midnightblue" stroke="midnightblue" points="563.334,-494.556 564.252,-505.111 570.117,-496.287 563.334,-494.556"/>
</g>
<!-- Node45 -->
<g id="node45" class="node"><title>Node45</title>
<g id="a_node45"><a xlink:href="../../d1/dde/classinstructions_1_1commands_1_1_set_pen_size.html" target="_top" xlink:title="instructions.commands.Set\lPenSize">
<polygon fill="white" stroke="black" points="697.5,-214 697.5,-244 846.5,-244 846.5,-214 697.5,-214"/>
<text text-anchor="start" x="705.5" y="-232" font-family="Helvetica,sans-Serif" font-size="10.00">instructions.commands.Set</text>
<text text-anchor="middle" x="772" y="-221" font-family="Helvetica,sans-Serif" font-size="10.00">PenSize</text>
</a>
</g>
</g>
<!-- Node29&#45;&gt;Node45 -->
<g id="edge44" class="edge"><title>Node29&#45;&gt;Node45</title>
<path fill="none" stroke="midnightblue" d="M564.636,-495.165C572.235,-446.148 598.807,-318.538 676,-253 682.225,-247.715 689.455,-243.569 697.095,-240.319"/>
<polygon fill="midnightblue" stroke="midnightblue" points="561.128,-494.968 563.158,-505.367 568.056,-495.972 561.128,-494.968"/>
</g>
<!-- Node46 -->
<g id="node46" class="node"><title>Node46</title>
<g id="a_node46"><a xlink:href="../../da/dff/classinstructions_1_1commands_1_1_set_shape.html" target="_top" xlink:title="instructions.commands.Set\lShape">
<polygon fill="white" stroke="black" points="697.5,-165 697.5,-195 846.5,-195 846.5,-165 697.5,-165"/>
<text text-anchor="start" x="705.5" y="-183" font-family="Helvetica,sans-Serif" font-size="10.00">instructions.commands.Set</text>
<text text-anchor="middle" x="772" y="-172" font-family="Helvetica,sans-Serif" font-size="10.00">Shape</text>
</a>
</g>
</g>
<!-- Node29&#45;&gt;Node46 -->
<g id="edge45" class="edge"><title>Node29&#45;&gt;Node46</title>
<path fill="none" stroke="midnightblue" d="M563.109,-495.268C567.297,-440.319 586.862,-284.327 676,-204 682.192,-198.42 689.494,-194.097 697.255,-190.754"/>
<polygon fill="midnightblue" stroke="midnightblue" points="559.607,-495.184 562.429,-505.396 566.591,-495.652 559.607,-495.184"/>
</g>
<!-- Node47 -->
<g id="node47" class="node"><title>Node47</title>
<g id="a_node47"><a xlink:href="../../d7/d67/classinstructions_1_1commands_1_1_sine.html" target="_top" xlink:title="instructions.commands.Sine">
<polygon fill="white" stroke="black" points="695.5,-126.5 695.5,-145.5 848.5,-145.5 848.5,-126.5 695.5,-126.5"/>
<text text-anchor="middle" x="772" y="-133.5" font-family="Helvetica,sans-Serif" font-size="10.00">instructions.commands.Sine</text>
</a>
</g>
</g>
<!-- Node29&#45;&gt;Node47 -->
<g id="edge46" class="edge"><title>Node29&#45;&gt;Node47</title>
<path fill="none" stroke="midnightblue" d="M561.771,-495.246C562.212,-434.328 572.348,-247.902 676,-155 681.636,-149.948 688.226,-146.085 695.261,-143.15"/>
<polygon fill="midnightblue" stroke="midnightblue" points="558.271,-495.406 561.784,-505.401 565.271,-495.397 558.271,-495.406"/>
</g>
<!-- Node48 -->
<g id="node48" class="node"><title>Node48</title>
<g id="a_node48"><a xlink:href="../../d2/da3/classinstructions_1_1commands_1_1_tangent.html" target="_top" xlink:title="instructions.commands.Tangent">
<polygon fill="white" stroke="black" points="687,-88.5 687,-107.5 857,-107.5 857,-88.5 687,-88.5"/>
<text text-anchor="middle" x="772" y="-95.5" font-family="Helvetica,sans-Serif" font-size="10.00">instructions.commands.Tangent</text>
</a>
</g>
</g>
<!-- Node29&#45;&gt;Node48 -->
<g id="edge47" class="edge"><title>Node29&#45;&gt;Node48</title>
<path fill="none" stroke="midnightblue" d="M564.932,-495.127C576.105,-422.114 618.305,-170.171 676,-117 680.082,-113.238 684.689,-110.131 689.62,-107.571"/>
<polygon fill="midnightblue" stroke="midnightblue" points="561.436,-494.842 563.408,-505.251 568.358,-495.884 561.436,-494.842"/>
</g>
<!-- Node50 -->
<g id="node50" class="node"><title>Node50</title>
<g id="a_node50"><a xlink:href="../../d2/d36/classinstructions_1_1_user_defined_command.html" target="_top" xlink:title="instructions.UserDefined\lCommand">
<polygon fill="white" stroke="black" points="705,-39 705,-69 839,-69 839,-39 705,-39"/>
<text text-anchor="start" x="713" y="-57" font-family="Helvetica,sans-Serif" font-size="10.00">instructions.UserDefined</text>
<text text-anchor="middle" x="772" y="-46" font-family="Helvetica,sans-Serif" font-size="10.00">Command</text>
</a>
</g>
</g>
<!-- Node49&#45;&gt;Node50 -->
<g id="edge49" class="edge"><title>Node49&#45;&gt;Node50</title>
<path fill="none" stroke="midnightblue" d="M638.351,-54C660.182,-54 683.784,-54 704.943,-54"/>
<polygon fill="midnightblue" stroke="midnightblue" points="638.129,-50.5001 628.129,-54 638.129,-57.5001 638.129,-50.5001"/>
</g>
<!-- Node51 -->
<g id="node51" class="node"><title>Node51</title>
<g id="a_node51"><a xlink:href="../../d4/d6d/classinstructions_1_1_variable_instruction.html" target="_top" xlink:title="instructions.VariableInstruction">
<polygon fill="white" stroke="black" points="690,-0.5 690,-19.5 854,-19.5 854,-0.5 690,-0.5"/>
<text text-anchor="middle" x="772" y="-7.5" font-family="Helvetica,sans-Serif" font-size="10.00">instructions.VariableInstruction</text>
</a>
</g>
</g>
<!-- Node49&#45;&gt;Node51 -->
<g id="edge50" class="edge"><title>Node49&#45;&gt;Node51</title>
<path fill="none" stroke="midnightblue" d="M638.274,-37.0689C650.869,-34.332 663.795,-31.5586 676,-29 690.98,-25.8597 707.315,-22.5511 722.147,-19.5907"/>
<polygon fill="midnightblue" stroke="midnightblue" points="637.29,-33.7013 628.265,-39.2513 638.781,-40.5406 637.29,-33.7013"/>
</g>
</g>
</svg>
