<?xml version="1.0" encoding="UTF-8" standalone="no"?>
<!DOCTYPE svg PUBLIC "-//W3C//DTD SVG 1.1//EN"
 "http://www.w3.org/Graphics/SVG/1.1/DTD/svg11.dtd">
<!-- Generated by graphviz version 2.36.0 (20140111.2315)
 -->
<!-- Title: instructions.commands.Difference Pages: 1 -->
<svg width="188pt" height="252pt"
 viewBox="0.00 0.00 188.00 252.00" xmlns="http://www.w3.org/2000/svg" xmlns:xlink="http://www.w3.org/1999/xlink">
<g id="graph0" class="graph" transform="scale(1 1) rotate(0) translate(4 248)">
<title>instructions.commands.Difference</title>
<polygon fill="white" stroke="none" points="-4,4 -4,-248 184,-248 184,4 -4,4"/>
<!-- Node1 -->
<g id="node1" class="node"><title>Node1</title>
<polygon fill="#bfbfbf" stroke="black" points="-0.5,-0.5 -0.5,-19.5 180.5,-19.5 180.5,-0.5 -0.5,-0.5"/>
<text text-anchor="middle" x="90" y="-7.5" font-family="Helvetica,sans-Serif" font-size="10.00">instructions.commands.Difference</text>
</g>
<!-- Node2 -->
<g id="node2" class="node"><title>Node2</title>
<g id="a_node2"><a xlink:href="../../d6/d3f/classinstructions_1_1_binary_instruction.html" target="_top" xlink:title="instructions.BinaryInstruction">
<polygon fill="white" stroke="black" points="12.5,-56.5 12.5,-75.5 167.5,-75.5 167.5,-56.5 12.5,-56.5"/>
<text text-anchor="middle" x="90" y="-63.5" font-family="Helvetica,sans-Serif" font-size="10.00">instructions.BinaryInstruction</text>
</a>
</g>
</g>
<!-- Node2&#45;&gt;Node1 -->
<g id="edge1" class="edge"><title>Node2&#45;&gt;Node1</title>
<path fill="none" stroke="midnightblue" d="M90,-45.8045C90,-36.9102 90,-26.7798 90,-19.7511"/>
<polygon fill="midnightblue" stroke="midnightblue" points="86.5001,-46.083 90,-56.083 93.5001,-46.083 86.5001,-46.083"/>
</g>
<!-- Node3 -->
<g id="node3" class="node"><title>Node3</title>
<g id="a_node3"><a xlink:href="../../d9/d85/classinstructions_1_1_parameter_instruction.html" target="_top" xlink:title="instructions.ParameterInstruction">
<polygon fill="white" stroke="black" points="2,-112.5 2,-131.5 178,-131.5 178,-112.5 2,-112.5"/>
<text text-anchor="middle" x="90" y="-119.5" font-family="Helvetica,sans-Serif" font-size="10.00">instructions.ParameterInstruction</text>
</a>
</g>
</g>
<!-- Node3&#45;&gt;Node2 -->
<g id="edge2" class="edge"><title>Node3&#45;&gt;Node2</title>
<path fill="none" stroke="midnightblue" d="M90,-101.805C90,-92.9102 90,-82.7798 90,-75.7511"/>
<polygon fill="midnightblue" stroke="midnightblue" points="86.5001,-102.083 90,-112.083 93.5001,-102.083 86.5001,-102.083"/>
</g>
<!-- Node4 -->
<g id="node4" class="node"><title>Node4</title>
<g id="a_node4"><a xlink:href="../../d2/d93/interfaceinstructions_1_1_instruction.html" target="_top" xlink:title="instructions.Instruction">
<polygon fill="white" stroke="black" points="27.5,-168.5 27.5,-187.5 152.5,-187.5 152.5,-168.5 27.5,-168.5"/>
<text text-anchor="middle" x="90" y="-175.5" font-family="Helvetica,sans-Serif" font-size="10.00">instructions.Instruction</text>
</a>
</g>
</g>
<!-- Node4&#45;&gt;Node3 -->
<g id="edge3" class="edge"><title>Node4&#45;&gt;Node3</title>
<path fill="none" stroke="midnightblue" d="M90,-157.805C90,-148.91 90,-138.78 90,-131.751"/>
<polygon fill="midnightblue" stroke="midnightblue" points="86.5001,-158.083 90,-168.083 93.5001,-158.083 86.5001,-158.083"/>
</g>
<!-- Node5 -->
<g id="node5" class="node"><title>Node5</title>
<polygon fill="white" stroke="#bfbfbf" points="54.5,-224.5 54.5,-243.5 125.5,-243.5 125.5,-224.5 54.5,-224.5"/>
<text text-anchor="middle" x="90" y="-231.5" font-family="Helvetica,sans-Serif" font-size="10.00">Serializable</text>
</g>
<!-- Node5&#45;&gt;Node4 -->
<g id="edge4" class="edge"><title>Node5&#45;&gt;Node4</title>
<path fill="none" stroke="midnightblue" d="M90,-213.805C90,-204.91 90,-194.78 90,-187.751"/>
<polygon fill="midnightblue" stroke="midnightblue" points="86.5001,-214.083 90,-224.083 93.5001,-214.083 86.5001,-214.083"/>
</g>
</g>
</svg>
