<?xml version="1.0" encoding="UTF-8" standalone="no"?>
<!DOCTYPE svg PUBLIC "-//W3C//DTD SVG 1.1//EN"
 "http://www.w3.org/Graphics/SVG/1.1/DTD/svg11.dtd">
<!-- Generated by graphviz version 2.36.0 (20140111.2315)
 -->
<!-- Title: instructions.commands.Heading.execute Pages: 1 -->
<svg width="404pt" height="77pt"
 viewBox="0.00 0.00 404.00 77.00" xmlns="http://www.w3.org/2000/svg" xmlns:xlink="http://www.w3.org/1999/xlink">
<g id="graph0" class="graph" transform="scale(1 1) rotate(0) translate(4 73)">
<title>instructions.commands.Heading.execute</title>
<polygon fill="white" stroke="none" points="-4,4 -4,-73 400,-73 400,4 -4,4"/>
<!-- Node1 -->
<g id="node1" class="node"><title>Node1</title>
<polygon fill="#bfbfbf" stroke="black" points="0.5,-27.5 0.5,-46.5 213.5,-46.5 213.5,-27.5 0.5,-27.5"/>
<text text-anchor="middle" x="107" y="-34.5" font-family="Helvetica,sans-Serif" font-size="10.00">instructions.commands.Heading.execute</text>
</g>
<!-- Node2 -->
<g id="node2" class="node"><title>Node2</title>
<g id="a_node2"><a xlink:href="../../d6/d34/classmodel_1_1_turtle.html#a61d79b71c878b0c64adeab038483da7a" target="_top" xlink:title="model.Turtle.getAngle">
<polygon fill="white" stroke="black" points="262.5,-49.5 262.5,-68.5 383.5,-68.5 383.5,-49.5 262.5,-49.5"/>
<text text-anchor="middle" x="323" y="-56.5" font-family="Helvetica,sans-Serif" font-size="10.00">model.Turtle.getAngle</text>
</a>
</g>
</g>
<!-- Node1&#45;&gt;Node2 -->
<g id="edge1" class="edge"><title>Node1&#45;&gt;Node2</title>
<path fill="none" stroke="midnightblue" d="M200.619,-46.5216C217.925,-48.3007 235.742,-50.1324 252.215,-51.8258"/>
<polygon fill="midnightblue" stroke="midnightblue" points="251.976,-55.3196 262.281,-52.8607 252.692,-48.3563 251.976,-55.3196"/>
</g>
<!-- Node3 -->
<g id="node3" class="node"><title>Node3</title>
<g id="a_node3"><a xlink:href="../../d8/d36/classmodel_1_1_observable_data.html#aa585e00721a74cba9ab459079945e15b" target="_top" xlink:title="model.ObservableData.get\lTurtle">
<polygon fill="white" stroke="black" points="250,-0 250,-30 396,-30 396,-0 250,-0"/>
<text text-anchor="start" x="258" y="-18" font-family="Helvetica,sans-Serif" font-size="10.00">model.ObservableData.get</text>
<text text-anchor="middle" x="323" y="-7" font-family="Helvetica,sans-Serif" font-size="10.00">Turtle</text>
</a>
</g>
</g>
<!-- Node1&#45;&gt;Node3 -->
<g id="edge2" class="edge"><title>Node1&#45;&gt;Node3</title>
<path fill="none" stroke="midnightblue" d="M200.619,-27.4784C213.632,-26.1406 226.935,-24.7731 239.737,-23.4569"/>
<polygon fill="midnightblue" stroke="midnightblue" points="240.293,-26.9183 249.883,-22.4139 239.577,-19.955 240.293,-26.9183"/>
</g>
</g>
</svg>
