<?xml version="1.0" encoding="UTF-8" standalone="no"?>
<!DOCTYPE svg PUBLIC "-//W3C//DTD SVG 1.1//EN"
 "http://www.w3.org/Graphics/SVG/1.1/DTD/svg11.dtd">
<!-- Generated by graphviz version 2.36.0 (20140111.2315)
 -->
<!-- Title: instructions.UserDefinedCommand.execute Pages: 1 -->
<svg width="516pt" height="202pt"
 viewBox="0.00 0.00 516.00 202.00" xmlns="http://www.w3.org/2000/svg" xmlns:xlink="http://www.w3.org/1999/xlink">
<g id="graph0" class="graph" transform="scale(1 1) rotate(0) translate(4 198)">
<title>instructions.UserDefinedCommand.execute</title>
<polygon fill="white" stroke="none" points="-4,4 -4,-198 512,-198 512,4 -4,4"/>
<!-- Node1 -->
<g id="node1" class="node"><title>Node1</title>
<polygon fill="#bfbfbf" stroke="black" points="0,-93 0,-123 134,-123 134,-93 0,-93"/>
<text text-anchor="start" x="8" y="-111" font-family="Helvetica,sans-Serif" font-size="10.00">instructions.UserDefined</text>
<text text-anchor="middle" x="67" y="-100" font-family="Helvetica,sans-Serif" font-size="10.00">Command.execute</text>
</g>
<!-- Node2 -->
<g id="node2" class="node"><title>Node2</title>
<g id="a_node2"><a xlink:href="../../d6/d2c/classmodel_1_1_variables_list.html#a7cb39d181119a5f57cce7e9b7be1e76e" target="_top" xlink:title="model.VariablesList.addScope">
<polygon fill="white" stroke="black" points="173.5,-174.5 173.5,-193.5 334.5,-193.5 334.5,-174.5 173.5,-174.5"/>
<text text-anchor="middle" x="254" y="-181.5" font-family="Helvetica,sans-Serif" font-size="10.00">model.VariablesList.addScope</text>
</a>
</g>
</g>
<!-- Node1&#45;&gt;Node2 -->
<g id="edge1" class="edge"><title>Node1&#45;&gt;Node2</title>
<path fill="none" stroke="midnightblue" d="M90.5761,-123.096C110.659,-135.908 141.222,-153.927 170,-165 176.734,-167.591 183.918,-169.885 191.135,-171.901"/>
<polygon fill="midnightblue" stroke="midnightblue" points="190.397,-175.326 200.958,-174.479 192.174,-168.555 190.397,-175.326"/>
</g>
<!-- Node3 -->
<g id="node3" class="node"><title>Node3</title>
<g id="a_node3"><a xlink:href="../../d2/d93/interfaceinstructions_1_1_instruction.html#ab47846ec32fac6e514e5ab7fe4db0254" target="_top" xlink:title="instructions.Instruction.execute">
<polygon fill="white" stroke="black" points="170.5,-136.5 170.5,-155.5 337.5,-155.5 337.5,-136.5 170.5,-136.5"/>
<text text-anchor="middle" x="254" y="-143.5" font-family="Helvetica,sans-Serif" font-size="10.00">instructions.Instruction.execute</text>
</a>
</g>
</g>
<!-- Node1&#45;&gt;Node3 -->
<g id="edge2" class="edge"><title>Node1&#45;&gt;Node3</title>
<path fill="none" stroke="midnightblue" d="M134.006,-121.558C154.418,-125.751 176.71,-130.33 196.425,-134.379"/>
<polygon fill="midnightblue" stroke="midnightblue" points="195.976,-137.86 206.476,-136.444 197.385,-131.003 195.976,-137.86"/>
</g>
<!-- Node4 -->
<g id="node4" class="node"><title>Node4</title>
<g id="a_node4"><a xlink:href="../../d6/d2c/classmodel_1_1_variables_list.html#a88d10c0a82c1d2a432f2127f522dfc20" target="_top" xlink:title="model.VariablesList.get">
<polygon fill="white" stroke="black" points="190,-98.5 190,-117.5 318,-117.5 318,-98.5 190,-98.5"/>
<text text-anchor="middle" x="254" y="-105.5" font-family="Helvetica,sans-Serif" font-size="10.00">model.VariablesList.get</text>
</a>
</g>
</g>
<!-- Node1&#45;&gt;Node4 -->
<g id="edge3" class="edge"><title>Node1&#45;&gt;Node4</title>
<path fill="none" stroke="midnightblue" d="M134.006,-108C148.76,-108 164.497,-108 179.533,-108"/>
<polygon fill="midnightblue" stroke="midnightblue" points="179.809,-111.5 189.809,-108 179.809,-104.5 179.809,-111.5"/>
</g>
<!-- Node5 -->
<g id="node5" class="node"><title>Node5</title>
<g id="a_node5"><a xlink:href="../../d6/d2c/classmodel_1_1_variables_list.html#a3864c1f30d2c2ef1a821c24c074fddb5" target="_top" xlink:title="model.VariablesList.remove\lScope">
<polygon fill="white" stroke="black" points="179.5,-49 179.5,-79 328.5,-79 328.5,-49 179.5,-49"/>
<text text-anchor="start" x="187.5" y="-67" font-family="Helvetica,sans-Serif" font-size="10.00">model.VariablesList.remove</text>
<text text-anchor="middle" x="254" y="-56" font-family="Helvetica,sans-Serif" font-size="10.00">Scope</text>
</a>
</g>
</g>
<!-- Node1&#45;&gt;Node5 -->
<g id="edge4" class="edge"><title>Node1&#45;&gt;Node5</title>
<path fill="none" stroke="midnightblue" d="M131.149,-92.9808C146.839,-89.2492 163.785,-85.2186 179.908,-81.384"/>
<polygon fill="midnightblue" stroke="midnightblue" points="180.903,-84.7451 189.822,-79.0262 179.283,-77.9351 180.903,-84.7451"/>
</g>
<!-- Node6 -->
<g id="node6" class="node"><title>Node6</title>
<g id="a_node6"><a xlink:href="../../d2/d36/classinstructions_1_1_user_defined_command.html#ab0d767a2ed4e744757c7809dc04cb215" target="_top" xlink:title="instructions.UserDefined\lCommand.setVariables">
<polygon fill="white" stroke="black" points="187,-0 187,-30 321,-30 321,-0 187,-0"/>
<text text-anchor="start" x="195" y="-18" font-family="Helvetica,sans-Serif" font-size="10.00">instructions.UserDefined</text>
<text text-anchor="middle" x="254" y="-7" font-family="Helvetica,sans-Serif" font-size="10.00">Command.setVariables</text>
</a>
</g>
</g>
<!-- Node1&#45;&gt;Node6 -->
<g id="edge5" class="edge"><title>Node1&#45;&gt;Node6</title>
<path fill="none" stroke="midnightblue" d="M86.9083,-92.8904C106.651,-77.7342 139.003,-54.6037 170,-40 174.935,-37.675 180.137,-35.5071 185.431,-33.4985"/>
<polygon fill="midnightblue" stroke="midnightblue" points="186.792,-36.7286 195.021,-30.0556 184.427,-30.1403 186.792,-36.7286"/>
</g>
<!-- Node7 -->
<g id="node7" class="node"><title>Node7</title>
<g id="a_node7"><a xlink:href="../../df/dcf/classinstructions_1_1_user_defined_instruction.html#ac2a1915074b04c4ceacfac5ef461a44b" target="_top" xlink:title="instructions.UserDefined\lInstruction.getName">
<polygon fill="white" stroke="black" points="374,-0 374,-30 508,-30 508,-0 374,-0"/>
<text text-anchor="start" x="382" y="-18" font-family="Helvetica,sans-Serif" font-size="10.00">instructions.UserDefined</text>
<text text-anchor="middle" x="441" y="-7" font-family="Helvetica,sans-Serif" font-size="10.00">Instruction.getName</text>
</a>
</g>
</g>
<!-- Node6&#45;&gt;Node7 -->
<g id="edge6" class="edge"><title>Node6&#45;&gt;Node7</title>
<path fill="none" stroke="midnightblue" d="M321.006,-15C334.783,-15 349.418,-15 363.537,-15"/>
<polygon fill="midnightblue" stroke="midnightblue" points="363.708,-18.5001 373.708,-15 363.708,-11.5001 363.708,-18.5001"/>
</g>
</g>
</svg>
