<?xml version="1.0" encoding="UTF-8" standalone="no"?>
<!DOCTYPE svg PUBLIC "-//W3C//DTD SVG 1.1//EN"
 "http://www.w3.org/Graphics/SVG/1.1/DTD/svg11.dtd">
<!-- Generated by graphviz version 2.36.0 (20140111.2315)
 -->
<!-- Title: instructions.UserDefinedCommand.defineFunction Pages: 1 -->
<svg width="364pt" height="87pt"
 viewBox="0.00 0.00 364.00 87.00" xmlns="http://www.w3.org/2000/svg" xmlns:xlink="http://www.w3.org/1999/xlink">
<g id="graph0" class="graph" transform="scale(1 1) rotate(0) translate(4 83)">
<title>instructions.UserDefinedCommand.defineFunction</title>
<polygon fill="white" stroke="none" points="-4,4 -4,-83 360,-83 360,4 -4,4"/>
<!-- Node1 -->
<g id="node1" class="node"><title>Node1</title>
<polygon fill="#bfbfbf" stroke="black" points="0.5,-24 0.5,-54 139.5,-54 139.5,-24 0.5,-24"/>
<text text-anchor="start" x="8.5" y="-42" font-family="Helvetica,sans-Serif" font-size="10.00">instructions.UserDefined</text>
<text text-anchor="middle" x="70" y="-31" font-family="Helvetica,sans-Serif" font-size="10.00">Command.defineFunction</text>
</g>
<!-- Node2 -->
<g id="node2" class="node"><title>Node2</title>
<g id="a_node2"><a xlink:href="../../dc/d89/classinstructions_1_1commands_1_1_make_user_instruction.html#a266ae5979c8a7fc525d334e2a0871680" target="_top" xlink:title="instructions.commands.Make\lUserInstruction.execute">
<polygon fill="white" stroke="black" points="187,-49 187,-79 345,-79 345,-49 187,-49"/>
<text text-anchor="start" x="195" y="-67" font-family="Helvetica,sans-Serif" font-size="10.00">instructions.commands.Make</text>
<text text-anchor="middle" x="266" y="-56" font-family="Helvetica,sans-Serif" font-size="10.00">UserInstruction.execute</text>
</a>
</g>
</g>
<!-- Node1&#45;&gt;Node2 -->
<g id="edge1" class="edge"><title>Node1&#45;&gt;Node2</title>
<path fill="none" stroke="midnightblue" d="M149.814,-49.1564C162.023,-50.7297 174.63,-52.3544 186.824,-53.9258"/>
<polygon fill="midnightblue" stroke="midnightblue" points="150.036,-45.6561 139.67,-47.8492 149.141,-52.5987 150.036,-45.6561"/>
</g>
<!-- Node3 -->
<g id="node3" class="node"><title>Node3</title>
<g id="a_node3"><a xlink:href="../../d2/d36/classinstructions_1_1_user_defined_command.html#a2241bf2f7cc594e80d517de87f8aef0e" target="_top" xlink:title="instructions.UserDefined\lCommand.UserDefinedCommand">
<polygon fill="white" stroke="black" points="176.5,-0 176.5,-30 355.5,-30 355.5,-0 176.5,-0"/>
<text text-anchor="start" x="184.5" y="-18" font-family="Helvetica,sans-Serif" font-size="10.00">instructions.UserDefined</text>
<text text-anchor="middle" x="266" y="-7" font-family="Helvetica,sans-Serif" font-size="10.00">Command.UserDefinedCommand</text>
</a>
</g>
</g>
<!-- Node1&#45;&gt;Node3 -->
<g id="edge2" class="edge"><title>Node1&#45;&gt;Node3</title>
<path fill="none" stroke="midnightblue" d="M149.824,-29.2485C158.569,-28.1667 167.519,-27.0595 176.375,-25.964"/>
<polygon fill="midnightblue" stroke="midnightblue" points="149.165,-25.8034 139.67,-30.5047 150.024,-32.7504 149.165,-25.8034"/>
</g>
</g>
</svg>
