<?xml version="1.0" encoding="UTF-8" standalone="no"?>
<!DOCTYPE svg PUBLIC "-//W3C//DTD SVG 1.1//EN"
 "http://www.w3.org/Graphics/SVG/1.1/DTD/svg11.dtd">
<!-- Generated by graphviz version 2.36.0 (20140111.2315)
 -->
<!-- Title: instructions.UnaryInstruction Pages: 1 -->
<svg width="866pt" height="802pt"
 viewBox="0.00 0.00 866.00 802.00" xmlns="http://www.w3.org/2000/svg" xmlns:xlink="http://www.w3.org/1999/xlink">
<g id="graph0" class="graph" transform="scale(1 1) rotate(0) translate(4 798)">
<title>instructions.UnaryInstruction</title>
<polygon fill="white" stroke="none" points="-4,4 -4,-798 862,-798 862,4 -4,4"/>
<!-- Node1 -->
<g id="node1" class="node"><title>Node1</title>
<polygon fill="#bfbfbf" stroke="black" points="482,-398.5 482,-417.5 636,-417.5 636,-398.5 482,-398.5"/>
<text text-anchor="middle" x="559" y="-405.5" font-family="Helvetica,sans-Serif" font-size="10.00">instructions.UnaryInstruction</text>
</g>
<!-- Node5 -->
<g id="node5" class="node"><title>Node5</title>
<g id="a_node5"><a xlink:href="../../de/d6a/classinstructions_1_1commands_1_1_arc_tangent.html" target="_top" xlink:title="instructions.commands.Arc\lTangent">
<polygon fill="white" stroke="black" points="691,-764 691,-794 839,-794 839,-764 691,-764"/>
<text text-anchor="start" x="699" y="-782" font-family="Helvetica,sans-Serif" font-size="10.00">instructions.commands.Arc</text>
<text text-anchor="middle" x="765" y="-771" font-family="Helvetica,sans-Serif" font-size="10.00">Tangent</text>
</a>
</g>
</g>
<!-- Node1&#45;&gt;Node5 -->
<g id="edge4" class="edge"><title>Node1&#45;&gt;Node5</title>
<path fill="none" stroke="midnightblue" d="M560.229,-427.846C562.024,-486.735 575.606,-662.1 672,-754 677.511,-759.254 684.011,-763.427 690.968,-766.737"/>
<polygon fill="midnightblue" stroke="midnightblue" points="563.724,-427.601 560.006,-417.68 556.726,-427.754 563.724,-427.601"/>
</g>
<!-- Node6 -->
<g id="node6" class="node"><title>Node6</title>
<g id="a_node6"><a xlink:href="../../d9/da9/classinstructions_1_1commands_1_1_backward.html" target="_top" xlink:title="instructions.commands.Backward">
<polygon fill="white" stroke="black" points="676,-725.5 676,-744.5 854,-744.5 854,-725.5 676,-725.5"/>
<text text-anchor="middle" x="765" y="-732.5" font-family="Helvetica,sans-Serif" font-size="10.00">instructions.commands.Backward</text>
</a>
</g>
</g>
<!-- Node1&#45;&gt;Node6 -->
<g id="edge5" class="edge"><title>Node1&#45;&gt;Node6</title>
<path fill="none" stroke="midnightblue" d="M560.86,-427.738C564.375,-482.666 582.186,-638.357 672,-716 676.318,-719.733 681.176,-722.801 686.344,-725.315"/>
<polygon fill="midnightblue" stroke="midnightblue" points="564.347,-427.404 560.306,-417.611 557.357,-427.787 564.347,-427.404"/>
</g>
<!-- Node7 -->
<g id="node7" class="node"><title>Node7</title>
<g id="a_node7"><a xlink:href="../../d8/d4a/classinstructions_1_1commands_1_1_cosine.html" target="_top" xlink:title="instructions.commands.Cosine">
<polygon fill="white" stroke="black" points="683,-687.5 683,-706.5 847,-706.5 847,-687.5 683,-687.5"/>
<text text-anchor="middle" x="765" y="-694.5" font-family="Helvetica,sans-Serif" font-size="10.00">instructions.commands.Cosine</text>
</a>
</g>
</g>
<!-- Node1&#45;&gt;Node7 -->
<g id="edge6" class="edge"><title>Node1&#45;&gt;Node7</title>
<path fill="none" stroke="midnightblue" d="M562.013,-427.966C568.221,-478.419 591.794,-611.72 672,-678 676.526,-681.74 681.598,-684.804 686.974,-687.308"/>
<polygon fill="midnightblue" stroke="midnightblue" points="565.46,-427.298 560.86,-417.754 558.504,-428.084 565.46,-427.298"/>
</g>
<!-- Node8 -->
<g id="node8" class="node"><title>Node8</title>
<g id="a_node8"><a xlink:href="../../d7/dab/classinstructions_1_1commands_1_1_forward.html" target="_top" xlink:title="instructions.commands.Forward">
<polygon fill="white" stroke="black" points="680,-649.5 680,-668.5 850,-668.5 850,-649.5 680,-649.5"/>
<text text-anchor="middle" x="765" y="-656.5" font-family="Helvetica,sans-Serif" font-size="10.00">instructions.commands.Forward</text>
</a>
</g>
</g>
<!-- Node1&#45;&gt;Node8 -->
<g id="edge7" class="edge"><title>Node1&#45;&gt;Node8</title>
<path fill="none" stroke="midnightblue" d="M563.543,-427.756C572.714,-472.826 601.61,-583.61 672,-639 677.395,-643.245 683.496,-646.636 689.926,-649.338"/>
<polygon fill="midnightblue" stroke="midnightblue" points="566.951,-426.944 561.624,-417.787 560.078,-428.268 566.951,-426.944"/>
</g>
<!-- Node9 -->
<g id="node9" class="node"><title>Node9</title>
<g id="a_node9"><a xlink:href="../../df/d09/classinstructions_1_1commands_1_1_get_pen_color.html" target="_top" xlink:title="instructions.commands.Get\lPenColor">
<polygon fill="white" stroke="black" points="690.5,-600 690.5,-630 839.5,-630 839.5,-600 690.5,-600"/>
<text text-anchor="start" x="698.5" y="-618" font-family="Helvetica,sans-Serif" font-size="10.00">instructions.commands.Get</text>
<text text-anchor="middle" x="765" y="-607" font-family="Helvetica,sans-Serif" font-size="10.00">PenColor</text>
</a>
</g>
</g>
<!-- Node1&#45;&gt;Node9 -->
<g id="edge8" class="edge"><title>Node1&#45;&gt;Node9</title>
<path fill="none" stroke="midnightblue" d="M566.413,-427.347C579.812,-464.714 614.406,-546.918 672,-590 677.567,-594.164 683.783,-597.634 690.286,-600.527"/>
<polygon fill="midnightblue" stroke="midnightblue" points="569.642,-425.977 563.062,-417.673 563.027,-428.268 569.642,-425.977"/>
</g>
<!-- Node10 -->
<g id="node10" class="node"><title>Node10</title>
<g id="a_node10"><a xlink:href="../../de/d33/classinstructions_1_1commands_1_1_get_shape.html" target="_top" xlink:title="instructions.commands.Get\lShape">
<polygon fill="white" stroke="black" points="690.5,-551 690.5,-581 839.5,-581 839.5,-551 690.5,-551"/>
<text text-anchor="start" x="698.5" y="-569" font-family="Helvetica,sans-Serif" font-size="10.00">instructions.commands.Get</text>
<text text-anchor="middle" x="765" y="-558" font-family="Helvetica,sans-Serif" font-size="10.00">Shape</text>
</a>
</g>
</g>
<!-- Node1&#45;&gt;Node10 -->
<g id="edge9" class="edge"><title>Node1&#45;&gt;Node10</title>
<path fill="none" stroke="midnightblue" d="M570.434,-426.467C587.732,-455.373 625.136,-511.086 672,-541 677.999,-544.829 684.579,-548.078 691.374,-550.832"/>
<polygon fill="midnightblue" stroke="midnightblue" points="573.419,-424.638 565.353,-417.768 567.374,-428.168 573.419,-424.638"/>
</g>
<!-- Node11 -->
<g id="node11" class="node"><title>Node11</title>
<g id="a_node11"><a xlink:href="../../d8/dd0/classinstructions_1_1commands_1_1_left.html" target="_top" xlink:title="instructions.commands.Left">
<polygon fill="white" stroke="black" points="690,-512.5 690,-531.5 840,-531.5 840,-512.5 690,-512.5"/>
<text text-anchor="middle" x="765" y="-519.5" font-family="Helvetica,sans-Serif" font-size="10.00">instructions.commands.Left</text>
</a>
</g>
</g>
<!-- Node1&#45;&gt;Node11 -->
<g id="edge10" class="edge"><title>Node1&#45;&gt;Node11</title>
<path fill="none" stroke="midnightblue" d="M574.907,-425.089C594.798,-446.745 632.167,-483.583 672,-503 679.917,-506.859 688.587,-509.935 697.341,-512.387"/>
<polygon fill="midnightblue" stroke="midnightblue" points="577.46,-422.694 568.17,-417.601 572.256,-427.376 577.46,-422.694"/>
</g>
<!-- Node12 -->
<g id="node12" class="node"><title>Node12</title>
<g id="a_node12"><a xlink:href="../../d7/d10/classinstructions_1_1commands_1_1_minus.html" target="_top" xlink:title="instructions.commands.Minus">
<polygon fill="white" stroke="black" points="685,-474.5 685,-493.5 845,-493.5 845,-474.5 685,-474.5"/>
<text text-anchor="middle" x="765" y="-481.5" font-family="Helvetica,sans-Serif" font-size="10.00">instructions.commands.Minus</text>
</a>
</g>
</g>
<!-- Node1&#45;&gt;Node12 -->
<g id="edge11" class="edge"><title>Node1&#45;&gt;Node12</title>
<path fill="none" stroke="midnightblue" d="M584.45,-422.861C606.59,-435.723 640.473,-453.947 672,-465 682.774,-468.777 694.534,-471.909 705.936,-474.467"/>
<polygon fill="midnightblue" stroke="midnightblue" points="586.113,-419.779 575.721,-417.714 582.557,-425.809 586.113,-419.779"/>
</g>
<!-- Node13 -->
<g id="node13" class="node"><title>Node13</title>
<g id="a_node13"><a xlink:href="../../dc/ddb/classinstructions_1_1commands_1_1_natural_log.html" target="_top" xlink:title="instructions.commands.NaturalLog">
<polygon fill="white" stroke="black" points="672.5,-436.5 672.5,-455.5 857.5,-455.5 857.5,-436.5 672.5,-436.5"/>
<text text-anchor="middle" x="765" y="-443.5" font-family="Helvetica,sans-Serif" font-size="10.00">instructions.commands.NaturalLog</text>
</a>
</g>
</g>
<!-- Node1&#45;&gt;Node13 -->
<g id="edge12" class="edge"><title>Node1&#45;&gt;Node13</title>
<path fill="none" stroke="midnightblue" d="M621.297,-419.418C650.486,-424.855 684.994,-431.283 712.764,-436.456"/>
<polygon fill="midnightblue" stroke="midnightblue" points="621.686,-415.93 611.214,-417.54 620.404,-422.812 621.686,-415.93"/>
</g>
<!-- Node14 -->
<g id="node14" class="node"><title>Node14</title>
<g id="a_node14"><a xlink:href="../../db/d3d/classinstructions_1_1commands_1_1_not.html" target="_top" xlink:title="instructions.commands.Not">
<polygon fill="white" stroke="black" points="690.5,-398.5 690.5,-417.5 839.5,-417.5 839.5,-398.5 690.5,-398.5"/>
<text text-anchor="middle" x="765" y="-405.5" font-family="Helvetica,sans-Serif" font-size="10.00">instructions.commands.Not</text>
</a>
</g>
</g>
<!-- Node1&#45;&gt;Node14 -->
<g id="edge13" class="edge"><title>Node1&#45;&gt;Node14</title>
<path fill="none" stroke="midnightblue" d="M646.284,-408C660.898,-408 675.953,-408 690.209,-408"/>
<polygon fill="midnightblue" stroke="midnightblue" points="646.252,-404.5 636.252,-408 646.252,-411.5 646.252,-404.5"/>
</g>
<!-- Node15 -->
<g id="node15" class="node"><title>Node15</title>
<g id="a_node15"><a xlink:href="../../d8/d8d/classinstructions_1_1commands_1_1_random.html" target="_top" xlink:title="instructions.commands.Random">
<polygon fill="white" stroke="black" points="679,-360.5 679,-379.5 851,-379.5 851,-360.5 679,-360.5"/>
<text text-anchor="middle" x="765" y="-367.5" font-family="Helvetica,sans-Serif" font-size="10.00">instructions.commands.Random</text>
</a>
</g>
</g>
<!-- Node1&#45;&gt;Node15 -->
<g id="edge14" class="edge"><title>Node1&#45;&gt;Node15</title>
<path fill="none" stroke="midnightblue" d="M621.297,-396.582C650.486,-391.145 684.994,-384.717 712.764,-379.544"/>
<polygon fill="midnightblue" stroke="midnightblue" points="620.404,-393.188 611.214,-398.46 621.686,-400.07 620.404,-393.188"/>
</g>
<!-- Node16 -->
<g id="node16" class="node"><title>Node16</title>
<g id="a_node16"><a xlink:href="../../df/dd2/classinstructions_1_1commands_1_1_right.html" target="_top" xlink:title="instructions.commands.Right">
<polygon fill="white" stroke="black" points="687,-322.5 687,-341.5 843,-341.5 843,-322.5 687,-322.5"/>
<text text-anchor="middle" x="765" y="-329.5" font-family="Helvetica,sans-Serif" font-size="10.00">instructions.commands.Right</text>
</a>
</g>
</g>
<!-- Node1&#45;&gt;Node16 -->
<g id="edge15" class="edge"><title>Node1&#45;&gt;Node16</title>
<path fill="none" stroke="midnightblue" d="M584.45,-393.139C606.59,-380.277 640.473,-362.053 672,-351 682.774,-347.223 694.534,-344.091 705.936,-341.533"/>
<polygon fill="midnightblue" stroke="midnightblue" points="582.557,-390.191 575.721,-398.286 586.113,-396.221 582.557,-390.191"/>
</g>
<!-- Node17 -->
<g id="node17" class="node"><title>Node17</title>
<g id="a_node17"><a xlink:href="../../dc/de0/classinstructions_1_1commands_1_1_set_background.html" target="_top" xlink:title="instructions.commands.Set\lBackground">
<polygon fill="white" stroke="black" points="690.5,-273 690.5,-303 839.5,-303 839.5,-273 690.5,-273"/>
<text text-anchor="start" x="698.5" y="-291" font-family="Helvetica,sans-Serif" font-size="10.00">instructions.commands.Set</text>
<text text-anchor="middle" x="765" y="-280" font-family="Helvetica,sans-Serif" font-size="10.00">Background</text>
</a>
</g>
</g>
<!-- Node1&#45;&gt;Node17 -->
<g id="edge16" class="edge"><title>Node1&#45;&gt;Node17</title>
<path fill="none" stroke="midnightblue" d="M575.407,-390.961C595.579,-369.667 632.985,-333.53 672,-313 679.324,-309.146 687.296,-305.844 695.384,-303.025"/>
<polygon fill="midnightblue" stroke="midnightblue" points="572.799,-388.626 568.552,-398.333 577.925,-393.393 572.799,-388.626"/>
</g>
<!-- Node18 -->
<g id="node18" class="node"><title>Node18</title>
<g id="a_node18"><a xlink:href="../../de/d12/classinstructions_1_1commands_1_1_set_heading.html" target="_top" xlink:title="instructions.commands.Set\lHeading">
<polygon fill="white" stroke="black" points="690.5,-224 690.5,-254 839.5,-254 839.5,-224 690.5,-224"/>
<text text-anchor="start" x="698.5" y="-242" font-family="Helvetica,sans-Serif" font-size="10.00">instructions.commands.Set</text>
<text text-anchor="middle" x="765" y="-231" font-family="Helvetica,sans-Serif" font-size="10.00">Heading</text>
</a>
</g>
</g>
<!-- Node1&#45;&gt;Node18 -->
<g id="edge17" class="edge"><title>Node1&#45;&gt;Node18</title>
<path fill="none" stroke="midnightblue" d="M569.242,-389.164C585.54,-357.97 622.414,-295.782 672,-263 677.646,-259.268 683.843,-256.115 690.27,-253.453"/>
<polygon fill="midnightblue" stroke="midnightblue" points="565.924,-387.966 564.515,-398.467 572.165,-391.137 565.924,-387.966"/>
</g>
<!-- Node19 -->
<g id="node19" class="node"><title>Node19</title>
<g id="a_node19"><a xlink:href="../../dd/df0/classinstructions_1_1commands_1_1_set_pen_color.html" target="_top" xlink:title="instructions.commands.Set\lPenColor">
<polygon fill="white" stroke="black" points="690.5,-175 690.5,-205 839.5,-205 839.5,-175 690.5,-175"/>
<text text-anchor="start" x="698.5" y="-193" font-family="Helvetica,sans-Serif" font-size="10.00">instructions.commands.Set</text>
<text text-anchor="middle" x="765" y="-182" font-family="Helvetica,sans-Serif" font-size="10.00">PenColor</text>
</a>
</g>
</g>
<!-- Node1&#45;&gt;Node19 -->
<g id="edge18" class="edge"><title>Node1&#45;&gt;Node19</title>
<path fill="none" stroke="midnightblue" d="M565.656,-388.404C578.063,-349.022 611.495,-260.111 672,-214 677.514,-209.798 683.695,-206.328 690.176,-203.464"/>
<polygon fill="midnightblue" stroke="midnightblue" points="562.262,-387.536 562.71,-398.122 568.961,-389.567 562.262,-387.536"/>
</g>
<!-- Node20 -->
<g id="node20" class="node"><title>Node20</title>
<g id="a_node20"><a xlink:href="../../d1/dde/classinstructions_1_1commands_1_1_set_pen_size.html" target="_top" xlink:title="instructions.commands.Set\lPenSize">
<polygon fill="white" stroke="black" points="690.5,-126 690.5,-156 839.5,-156 839.5,-126 690.5,-126"/>
<text text-anchor="start" x="698.5" y="-144" font-family="Helvetica,sans-Serif" font-size="10.00">instructions.commands.Set</text>
<text text-anchor="middle" x="765" y="-133" font-family="Helvetica,sans-Serif" font-size="10.00">PenSize</text>
</a>
</g>
</g>
<!-- Node1&#45;&gt;Node20 -->
<g id="edge19" class="edge"><title>Node1&#45;&gt;Node20</title>
<path fill="none" stroke="midnightblue" d="M563.203,-388.385C571.825,-342.077 599.94,-225.333 672,-165 677.442,-160.443 683.652,-156.741 690.218,-153.733"/>
<polygon fill="midnightblue" stroke="midnightblue" points="559.739,-387.877 561.454,-398.332 566.633,-389.089 559.739,-387.877"/>
</g>
<!-- Node21 -->
<g id="node21" class="node"><title>Node21</title>
<g id="a_node21"><a xlink:href="../../da/dff/classinstructions_1_1commands_1_1_set_shape.html" target="_top" xlink:title="instructions.commands.Set\lShape">
<polygon fill="white" stroke="black" points="690.5,-77 690.5,-107 839.5,-107 839.5,-77 690.5,-77"/>
<text text-anchor="start" x="698.5" y="-95" font-family="Helvetica,sans-Serif" font-size="10.00">instructions.commands.Set</text>
<text text-anchor="middle" x="765" y="-84" font-family="Helvetica,sans-Serif" font-size="10.00">Shape</text>
</a>
</g>
</g>
<!-- Node1&#45;&gt;Node21 -->
<g id="edge20" class="edge"><title>Node1&#45;&gt;Node21</title>
<path fill="none" stroke="midnightblue" d="M561.511,-388.459C566.646,-336.01 588.121,-191.044 672,-116 677.413,-111.157 683.683,-107.27 690.355,-104.154"/>
<polygon fill="midnightblue" stroke="midnightblue" points="558.023,-388.176 560.626,-398.446 564.995,-388.794 558.023,-388.176"/>
</g>
<!-- Node22 -->
<g id="node22" class="node"><title>Node22</title>
<g id="a_node22"><a xlink:href="../../d7/d67/classinstructions_1_1commands_1_1_sine.html" target="_top" xlink:title="instructions.commands.Sine">
<polygon fill="white" stroke="black" points="688.5,-38.5 688.5,-57.5 841.5,-57.5 841.5,-38.5 688.5,-38.5"/>
<text text-anchor="middle" x="765" y="-45.5" font-family="Helvetica,sans-Serif" font-size="10.00">instructions.commands.Sine</text>
</a>
</g>
</g>
<!-- Node1&#45;&gt;Node22 -->
<g id="edge21" class="edge"><title>Node1&#45;&gt;Node22</title>
<path fill="none" stroke="midnightblue" d="M560.073,-388.157C561.433,-329.325 573.927,-154.512 672,-67 676.868,-62.6566 682.46,-59.2066 688.432,-56.4769"/>
<polygon fill="midnightblue" stroke="midnightblue" points="556.571,-388.267 559.927,-398.316 563.57,-388.368 556.571,-388.267"/>
</g>
<!-- Node23 -->
<g id="node23" class="node"><title>Node23</title>
<g id="a_node23"><a xlink:href="../../d2/da3/classinstructions_1_1commands_1_1_tangent.html" target="_top" xlink:title="instructions.commands.Tangent">
<polygon fill="white" stroke="black" points="680,-0.5 680,-19.5 850,-19.5 850,-0.5 680,-0.5"/>
<text text-anchor="middle" x="765" y="-7.5" font-family="Helvetica,sans-Serif" font-size="10.00">instructions.commands.Tangent</text>
</a>
</g>
</g>
<!-- Node1&#45;&gt;Node23 -->
<g id="edge22" class="edge"><title>Node1&#45;&gt;Node23</title>
<path fill="none" stroke="midnightblue" d="M559.317,-388.09C558.315,-325.028 564.314,-128.032 672,-29 676.082,-25.2464 680.702,-22.1547 685.646,-19.6153"/>
<polygon fill="midnightblue" stroke="midnightblue" points="555.822,-388.34 559.562,-398.252 562.819,-388.171 555.822,-388.34"/>
</g>
<!-- Node2 -->
<g id="node2" class="node"><title>Node2</title>
<g id="a_node2"><a xlink:href="../../d9/d85/classinstructions_1_1_parameter_instruction.html" target="_top" xlink:title="instructions.ParameterInstruction">
<polygon fill="white" stroke="black" points="270,-398.5 270,-417.5 446,-417.5 446,-398.5 270,-398.5"/>
<text text-anchor="middle" x="358" y="-405.5" font-family="Helvetica,sans-Serif" font-size="10.00">instructions.ParameterInstruction</text>
</a>
</g>
</g>
<!-- Node2&#45;&gt;Node1 -->
<g id="edge1" class="edge"><title>Node2&#45;&gt;Node1</title>
<path fill="none" stroke="midnightblue" d="M456.56,-408C465.005,-408 473.468,-408 481.707,-408"/>
<polygon fill="midnightblue" stroke="midnightblue" points="456.284,-404.5 446.284,-408 456.284,-411.5 456.284,-404.5"/>
</g>
<!-- Node3 -->
<g id="node3" class="node"><title>Node3</title>
<g id="a_node3"><a xlink:href="../../d2/d93/interfaceinstructions_1_1_instruction.html" target="_top" xlink:title="instructions.Instruction">
<polygon fill="white" stroke="black" points="108.5,-398.5 108.5,-417.5 233.5,-417.5 233.5,-398.5 108.5,-398.5"/>
<text text-anchor="middle" x="171" y="-405.5" font-family="Helvetica,sans-Serif" font-size="10.00">instructions.Instruction</text>
</a>
</g>
</g>
<!-- Node3&#45;&gt;Node2 -->
<g id="edge2" class="edge"><title>Node3&#45;&gt;Node2</title>
<path fill="none" stroke="midnightblue" d="M243.603,-408C252.239,-408 261.131,-408 269.957,-408"/>
<polygon fill="midnightblue" stroke="midnightblue" points="243.602,-404.5 233.602,-408 243.602,-411.5 243.602,-404.5"/>
</g>
<!-- Node4 -->
<g id="node4" class="node"><title>Node4</title>
<polygon fill="white" stroke="#bfbfbf" points="0.5,-398.5 0.5,-417.5 71.5,-417.5 71.5,-398.5 0.5,-398.5"/>
<text text-anchor="middle" x="36" y="-405.5" font-family="Helvetica,sans-Serif" font-size="10.00">Serializable</text>
</g>
<!-- Node4&#45;&gt;Node3 -->
<g id="edge3" class="edge"><title>Node4&#45;&gt;Node3</title>
<path fill="none" stroke="midnightblue" d="M81.697,-408C90.2324,-408 99.3067,-408 108.265,-408"/>
<polygon fill="midnightblue" stroke="midnightblue" points="81.597,-404.5 71.597,-408 81.597,-411.5 81.597,-404.5"/>
</g>
</g>
</svg>
