<?xml version="1.0" encoding="UTF-8" standalone="no"?>
<!DOCTYPE svg PUBLIC "-//W3C//DTD SVG 1.1//EN"
 "http://www.w3.org/Graphics/SVG/1.1/DTD/svg11.dtd">
<!-- Generated by graphviz version 2.36.0 (20140111.2315)
 -->
<!-- Title: view.DataView.update Pages: 1 -->
<svg width="1010pt" height="154pt"
 viewBox="0.00 0.00 1010.00 154.00" xmlns="http://www.w3.org/2000/svg" xmlns:xlink="http://www.w3.org/1999/xlink">
<g id="graph0" class="graph" transform="scale(1 1) rotate(0) translate(4 150)">
<title>view.DataView.update</title>
<polygon fill="white" stroke="none" points="-4,4 -4,-150 1006,-150 1006,4 -4,4"/>
<!-- Node1 -->
<g id="node1" class="node"><title>Node1</title>
<polygon fill="#bfbfbf" stroke="black" points="0,-60.5 0,-79.5 120,-79.5 120,-60.5 0,-60.5"/>
<text text-anchor="middle" x="60" y="-67.5" font-family="Helvetica,sans-Serif" font-size="10.00">view.DataView.update</text>
</g>
<!-- Node2 -->
<g id="node2" class="node"><title>Node2</title>
<g id="a_node2"><a xlink:href="../../d9/dd3/classview_1_1_variables_view.html#a298237e15137e0cf00d29789d6359c7c" target="_top" xlink:title="view.VariablesView.update">
<polygon fill="white" stroke="black" points="175,-98.5 175,-117.5 315,-117.5 315,-98.5 175,-98.5"/>
<text text-anchor="middle" x="245" y="-105.5" font-family="Helvetica,sans-Serif" font-size="10.00">view.VariablesView.update</text>
</a>
</g>
</g>
<!-- Node1&#45;&gt;Node2 -->
<g id="edge1" class="edge"><title>Node1&#45;&gt;Node2</title>
<path fill="none" stroke="midnightblue" d="M107.179,-79.589C131.763,-84.6939 162.186,-91.0113 188.097,-96.3918"/>
<polygon fill="midnightblue" stroke="midnightblue" points="187.651,-99.8736 198.153,-98.4799 189.074,-93.0198 187.651,-99.8736"/>
</g>
<!-- Node7 -->
<g id="node7" class="node"><title>Node7</title>
<g id="a_node7"><a xlink:href="../../d9/d93/classview_1_1_basic_commands_view.html#a787c3d60d71cc35031fcc939758c25dc" target="_top" xlink:title="view.BasicCommandsView.update">
<polygon fill="white" stroke="black" points="156,-22.5 156,-41.5 334,-41.5 334,-22.5 156,-22.5"/>
<text text-anchor="middle" x="245" y="-29.5" font-family="Helvetica,sans-Serif" font-size="10.00">view.BasicCommandsView.update</text>
</a>
</g>
</g>
<!-- Node1&#45;&gt;Node7 -->
<g id="edge6" class="edge"><title>Node1&#45;&gt;Node7</title>
<path fill="none" stroke="midnightblue" d="M107.179,-60.411C131.763,-55.3061 162.186,-48.9887 188.097,-43.6082"/>
<polygon fill="midnightblue" stroke="midnightblue" points="189.074,-46.9802 198.153,-41.5201 187.651,-40.1264 189.074,-46.9802"/>
</g>
<!-- Node13 -->
<g id="node13" class="node"><title>Node13</title>
<g id="a_node13"><a xlink:href="../../d8/d0c/classview_1_1_u_d_commands_view.html#a07deb1195869f7a78443052e51e25fe8" target="_top" xlink:title="view.UDCommandsView.update">
<polygon fill="white" stroke="black" points="161.5,-60.5 161.5,-79.5 328.5,-79.5 328.5,-60.5 161.5,-60.5"/>
<text text-anchor="middle" x="245" y="-67.5" font-family="Helvetica,sans-Serif" font-size="10.00">view.UDCommandsView.update</text>
</a>
</g>
</g>
<!-- Node1&#45;&gt;Node13 -->
<g id="edge12" class="edge"><title>Node1&#45;&gt;Node13</title>
<path fill="none" stroke="midnightblue" d="M120.162,-70C130.133,-70 140.692,-70 151.273,-70"/>
<polygon fill="midnightblue" stroke="midnightblue" points="151.406,-73.5001 161.406,-70 151.406,-66.5001 151.406,-73.5001"/>
</g>
<!-- Node3 -->
<g id="node3" class="node"><title>Node3</title>
<g id="a_node3"><a xlink:href="../../d6/d2c/classmodel_1_1_variables_list.html#a0e44325b4baffec7b6e4820f863eefea" target="_top" xlink:title="model.VariablesList.generate">
<polygon fill="white" stroke="black" points="376,-126.5 376,-145.5 532,-145.5 532,-126.5 376,-126.5"/>
<text text-anchor="middle" x="454" y="-133.5" font-family="Helvetica,sans-Serif" font-size="10.00">model.VariablesList.generate</text>
</a>
</g>
</g>
<!-- Node2&#45;&gt;Node3 -->
<g id="edge2" class="edge"><title>Node2&#45;&gt;Node3</title>
<path fill="none" stroke="midnightblue" d="M315.216,-117.363C333.547,-119.842 353.496,-122.541 372.376,-125.094"/>
<polygon fill="midnightblue" stroke="midnightblue" points="372.057,-128.583 382.436,-126.455 372.996,-121.646 372.057,-128.583"/>
</g>
<!-- Node4 -->
<g id="node4" class="node"><title>Node4</title>
<g id="a_node4"><a xlink:href="../../d4/d36/classview_1_1_data_view_components.html#a05b49c46bdc53791b28b09bf91743124" target="_top" xlink:title="view.DataViewComponents.add\lTextBoxWithDeleteButton">
<polygon fill="white" stroke="black" points="370.5,-77 370.5,-107 537.5,-107 537.5,-77 370.5,-77"/>
<text text-anchor="start" x="378.5" y="-95" font-family="Helvetica,sans-Serif" font-size="10.00">view.DataViewComponents.add</text>
<text text-anchor="middle" x="454" y="-84" font-family="Helvetica,sans-Serif" font-size="10.00">TextBoxWithDeleteButton</text>
</a>
</g>
</g>
<!-- Node2&#45;&gt;Node4 -->
<g id="edge3" class="edge"><title>Node2&#45;&gt;Node4</title>
<path fill="none" stroke="midnightblue" d="M315.216,-102.65C329.54,-101.543 344.852,-100.359 359.87,-99.1985"/>
<polygon fill="midnightblue" stroke="midnightblue" points="360.503,-102.66 370.204,-98.3997 359.964,-95.6809 360.503,-102.66"/>
</g>
<!-- Node5 -->
<g id="node5" class="node"><title>Node5</title>
<g id="a_node5"><a xlink:href="../../d4/d36/classview_1_1_data_view_components.html#aaebf0a781dd02fe599176d57c2ea9a40" target="_top" xlink:title="view.DataViewComponents.make\lDeleteButton">
<polygon fill="white" stroke="black" points="598,-77 598,-107 774,-107 774,-77 598,-77"/>
<text text-anchor="start" x="606" y="-95" font-family="Helvetica,sans-Serif" font-size="10.00">view.DataViewComponents.make</text>
<text text-anchor="middle" x="686" y="-84" font-family="Helvetica,sans-Serif" font-size="10.00">DeleteButton</text>
</a>
</g>
</g>
<!-- Node4&#45;&gt;Node5 -->
<g id="edge4" class="edge"><title>Node4&#45;&gt;Node5</title>
<path fill="none" stroke="midnightblue" d="M537.71,-92C553.921,-92 571.064,-92 587.7,-92"/>
<polygon fill="midnightblue" stroke="midnightblue" points="587.98,-95.5001 597.98,-92 587.98,-88.5001 587.98,-95.5001"/>
</g>
<!-- Node6 -->
<g id="node6" class="node"><title>Node6</title>
<g id="a_node6"><a xlink:href="../../d1/d69/interfacemodel_1_1_feature.html#ad39db6a63efe12b76e6b070a633db99e" target="_top" xlink:title="model.Feature.remove">
<polygon fill="white" stroke="black" points="855.5,-82.5 855.5,-101.5 980.5,-101.5 980.5,-82.5 855.5,-82.5"/>
<text text-anchor="middle" x="918" y="-89.5" font-family="Helvetica,sans-Serif" font-size="10.00">model.Feature.remove</text>
</a>
</g>
</g>
<!-- Node5&#45;&gt;Node6 -->
<g id="edge5" class="edge"><title>Node5&#45;&gt;Node6</title>
<path fill="none" stroke="midnightblue" d="M774.281,-92C797.644,-92 822.63,-92 845.061,-92"/>
<polygon fill="midnightblue" stroke="midnightblue" points="845.173,-95.5001 855.173,-92 845.173,-88.5001 845.173,-95.5001"/>
</g>
<!-- Node8 -->
<g id="node8" class="node"><title>Node8</title>
<g id="a_node8"><a xlink:href="../../db/d98/classview_1_1_scroll_view.html#af810ea194b6bcd9c7c8da1f84ebd5ac2" target="_top" xlink:title="view.ScrollView.addTextBox">
<polygon fill="white" stroke="black" points="382,-0.5 382,-19.5 526,-19.5 526,-0.5 382,-0.5"/>
<text text-anchor="middle" x="454" y="-7.5" font-family="Helvetica,sans-Serif" font-size="10.00">view.ScrollView.addTextBox</text>
</a>
</g>
</g>
<!-- Node7&#45;&gt;Node8 -->
<g id="edge7" class="edge"><title>Node7&#45;&gt;Node8</title>
<path fill="none" stroke="midnightblue" d="M334.087,-22.6381C346.552,-21.3133 359.323,-19.956 371.653,-18.6456"/>
<polygon fill="midnightblue" stroke="midnightblue" points="372.317,-22.0948 381.891,-17.5575 371.577,-15.134 372.317,-22.0948"/>
</g>
<!-- Node11 -->
<g id="node11" class="node"><title>Node11</title>
<g id="a_node11"><a xlink:href="../../d6/df7/classmodel_1_1_commands_list.html#a0f1df4e3621e54ac0d52131830128d78" target="_top" xlink:title="model.CommandsList.generate">
<polygon fill="white" stroke="black" points="370,-38.5 370,-57.5 538,-57.5 538,-38.5 370,-38.5"/>
<text text-anchor="middle" x="454" y="-45.5" font-family="Helvetica,sans-Serif" font-size="10.00">model.CommandsList.generate</text>
</a>
</g>
</g>
<!-- Node7&#45;&gt;Node11 -->
<g id="edge10" class="edge"><title>Node7&#45;&gt;Node11</title>
<path fill="none" stroke="midnightblue" d="M334.087,-38.8086C342.629,-39.4689 351.314,-40.1402 359.902,-40.804"/>
<polygon fill="midnightblue" stroke="midnightblue" points="359.686,-44.2977 369.926,-41.5788 360.225,-37.3185 359.686,-44.2977"/>
</g>
<!-- Node9 -->
<g id="node9" class="node"><title>Node9</title>
<g id="a_node9"><a xlink:href="../../db/d98/classview_1_1_scroll_view.html#af8a9a83dc920350c521d6d78016cafce" target="_top" xlink:title="view.ScrollView.makeClickableText">
<polygon fill="white" stroke="black" points="597.5,-0.5 597.5,-19.5 774.5,-19.5 774.5,-0.5 597.5,-0.5"/>
<text text-anchor="middle" x="686" y="-7.5" font-family="Helvetica,sans-Serif" font-size="10.00">view.ScrollView.makeClickableText</text>
</a>
</g>
</g>
<!-- Node8&#45;&gt;Node9 -->
<g id="edge8" class="edge"><title>Node8&#45;&gt;Node9</title>
<path fill="none" stroke="midnightblue" d="M526.198,-10C545.385,-10 566.484,-10 586.861,-10"/>
<polygon fill="midnightblue" stroke="midnightblue" points="587.115,-13.5001 597.115,-10 587.115,-6.5001 587.115,-13.5001"/>
</g>
<!-- Node10 -->
<g id="node10" class="node"><title>Node10</title>
<g id="a_node10"><a xlink:href="../../d6/d0a/classview_1_1_input_view.html#a81954709509ce44f7fe364a24a613d66" target="_top" xlink:title="view.InputView.addAndShowText">
<polygon fill="white" stroke="black" points="834,-0.5 834,-19.5 1002,-19.5 1002,-0.5 834,-0.5"/>
<text text-anchor="middle" x="918" y="-7.5" font-family="Helvetica,sans-Serif" font-size="10.00">view.InputView.addAndShowText</text>
</a>
</g>
</g>
<!-- Node9&#45;&gt;Node10 -->
<g id="edge9" class="edge"><title>Node9&#45;&gt;Node10</title>
<path fill="none" stroke="midnightblue" d="M774.609,-10C790.694,-10 807.538,-10 823.78,-10"/>
<polygon fill="midnightblue" stroke="midnightblue" points="823.803,-13.5001 833.803,-10 823.803,-6.5001 823.803,-13.5001"/>
</g>
<!-- Node12 -->
<g id="node12" class="node"><title>Node12</title>
<g id="a_node12"><a xlink:href="../../d6/df7/classmodel_1_1_commands_list.html#afe889d0ea233be74e064b369e68ad9d6" target="_top" xlink:title="model.CommandsList.makeCommandsList">
<polygon fill="white" stroke="black" points="574,-38.5 574,-57.5 798,-57.5 798,-38.5 574,-38.5"/>
<text text-anchor="middle" x="686" y="-45.5" font-family="Helvetica,sans-Serif" font-size="10.00">model.CommandsList.makeCommandsList</text>
</a>
</g>
</g>
<!-- Node11&#45;&gt;Node12 -->
<g id="edge11" class="edge"><title>Node11&#45;&gt;Node12</title>
<path fill="none" stroke="midnightblue" d="M538.035,-48C546.359,-48 554.925,-48 563.54,-48"/>
<polygon fill="midnightblue" stroke="midnightblue" points="563.663,-51.5001 573.663,-48 563.663,-44.5001 563.663,-51.5001"/>
</g>
<!-- Node13&#45;&gt;Node4 -->
<g id="edge14" class="edge"><title>Node13&#45;&gt;Node4</title>
<path fill="none" stroke="midnightblue" d="M328.704,-78.7898C339.116,-79.8964 349.82,-81.034 360.372,-82.1554"/>
<polygon fill="midnightblue" stroke="midnightblue" points="360.113,-85.6476 370.427,-83.2241 360.853,-78.6868 360.113,-85.6476"/>
</g>
<!-- Node13&#45;&gt;Node11 -->
<g id="edge13" class="edge"><title>Node13&#45;&gt;Node11</title>
<path fill="none" stroke="midnightblue" d="M328.704,-61.2102C338.839,-60.133 349.252,-59.0264 359.531,-57.9339"/>
<polygon fill="midnightblue" stroke="midnightblue" points="360.177,-61.385 369.751,-56.8477 359.437,-54.4242 360.177,-61.385"/>
</g>
</g>
</svg>
