<?xml version="1.0" encoding="UTF-8" standalone="no"?>
<!DOCTYPE svg PUBLIC "-//W3C//DTD SVG 1.1//EN"
 "http://www.w3.org/Graphics/SVG/1.1/DTD/svg11.dtd">
<!-- Generated by graphviz version 2.36.0 (20140111.2315)
 -->
<!-- Title: view.KeyControls Pages: 1 -->
<svg width="1736pt" height="799pt"
 viewBox="0.00 0.00 1736.00 799.00" xmlns="http://www.w3.org/2000/svg" xmlns:xlink="http://www.w3.org/1999/xlink">
<g id="graph0" class="graph" transform="scale(1 1) rotate(0) translate(4 795)">
<title>view.KeyControls</title>
<polygon fill="white" stroke="none" points="-4,4 -4,-795 1732,-795 1732,4 -4,4"/>
<!-- Node1 -->
<g id="node1" class="node"><title>Node1</title>
<polygon fill="#bfbfbf" stroke="black" points="1632.5,-88.5 1632.5,-107.5 1727.5,-107.5 1727.5,-88.5 1632.5,-88.5"/>
<text text-anchor="middle" x="1680" y="-95.5" font-family="Helvetica,sans-Serif" font-size="10.00">view.KeyControls</text>
</g>
<!-- Node2 -->
<g id="node2" class="node"><title>Node2</title>
<g id="a_node2"><a xlink:href="../../d3/d88/classmodel_1_1_slogo_model.html" target="_top" xlink:title="model.SlogoModel">
<polygon fill="white" stroke="black" points="1390.5,-249.5 1390.5,-268.5 1495.5,-268.5 1495.5,-249.5 1390.5,-249.5"/>
<text text-anchor="middle" x="1443" y="-256.5" font-family="Helvetica,sans-Serif" font-size="10.00">model.SlogoModel</text>
</a>
</g>
</g>
<!-- Node2&#45;&gt;Node1 -->
<g id="edge1" class="edge"><title>Node2&#45;&gt;Node1</title>
<path fill="none" stroke="#9a32cd" stroke-dasharray="5,2" d="M1469.03,-244.086C1502.67,-223.788 1564.01,-185.873 1614,-150 1633.49,-136.014 1655.03,-118.301 1667.77,-107.576"/>
<polygon fill="#9a32cd" stroke="#9a32cd" points="1467.08,-241.176 1460.31,-249.327 1470.68,-247.175 1467.08,-241.176"/>
<text text-anchor="middle" x="1576" y="-203" font-family="Helvetica,sans-Serif" font-size="10.00"> myModel</text>
</g>
<!-- Node3 -->
<g id="node3" class="node"><title>Node3</title>
<polygon fill="white" stroke="#bfbfbf" points="1204.5,-287.5 1204.5,-306.5 1275.5,-306.5 1275.5,-287.5 1204.5,-287.5"/>
<text text-anchor="middle" x="1240" y="-294.5" font-family="Helvetica,sans-Serif" font-size="10.00">Observable</text>
</g>
<!-- Node3&#45;&gt;Node2 -->
<g id="edge2" class="edge"><title>Node3&#45;&gt;Node2</title>
<path fill="none" stroke="midnightblue" d="M1285.76,-288.537C1317.16,-282.601 1359.17,-274.659 1391.72,-268.505"/>
<polygon fill="midnightblue" stroke="midnightblue" points="1284.73,-285.171 1275.55,-290.468 1286.03,-292.049 1284.73,-285.171"/>
</g>
<!-- Node4 -->
<g id="node4" class="node"><title>Node4</title>
<polygon fill="white" stroke="#bfbfbf" points="508.5,-172.5 508.5,-191.5 555.5,-191.5 555.5,-172.5 508.5,-172.5"/>
<text text-anchor="middle" x="532" y="-179.5" font-family="Helvetica,sans-Serif" font-size="10.00">Locale</text>
</g>
<!-- Node4&#45;&gt;Node1 -->
<g id="edge34" class="edge"><title>Node4&#45;&gt;Node1</title>
<path fill="none" stroke="#9a32cd" stroke-dasharray="5,2" d="M565.205,-171.799C610.918,-158.248 697.468,-136 773,-136 773,-136 773,-136 1444,-136 1515.09,-136 1596.73,-118.846 1642.66,-107.589"/>
<polygon fill="#9a32cd" stroke="#9a32cd" points="564.119,-168.471 555.557,-174.711 566.141,-175.172 564.119,-168.471"/>
<text text-anchor="middle" x="1154" y="-139" font-family="Helvetica,sans-Serif" font-size="10.00"> myLocale</text>
</g>
<!-- Node4&#45;&gt;Node2 -->
<g id="edge3" class="edge"><title>Node4&#45;&gt;Node2</title>
<path fill="none" stroke="#9a32cd" stroke-dasharray="5,2" d="M565.872,-182C612.106,-182 698.975,-182 773,-182 773,-182 773,-182 1241,-182 1315.36,-182 1395.57,-228.528 1427.6,-249.248"/>
<polygon fill="#9a32cd" stroke="#9a32cd" points="565.833,-178.5 555.833,-182 565.833,-185.5 565.833,-178.5"/>
<text text-anchor="middle" x="1041" y="-185" font-family="Helvetica,sans-Serif" font-size="10.00"> myLocale</text>
</g>
<!-- Node9 -->
<g id="node9" class="node"><title>Node9</title>
<g id="a_node9"><a xlink:href="../../d8/d36/classmodel_1_1_observable_data.html" target="_top" xlink:title="model.ObservableData">
<polygon fill="white" stroke="black" points="710.5,-388.5 710.5,-407.5 837.5,-407.5 837.5,-388.5 710.5,-388.5"/>
<text text-anchor="middle" x="774" y="-395.5" font-family="Helvetica,sans-Serif" font-size="10.00">model.ObservableData</text>
</a>
</g>
</g>
<!-- Node4&#45;&gt;Node9 -->
<g id="edge28" class="edge"><title>Node4&#45;&gt;Node9</title>
<path fill="none" stroke="#9a32cd" stroke-dasharray="5,2" d="M551.279,-198.451C598.701,-241.131 724.595,-354.436 762.228,-388.305"/>
<polygon fill="#9a32cd" stroke="#9a32cd" points="553.397,-195.648 543.622,-191.56 548.714,-200.851 553.397,-195.648"/>
<text text-anchor="middle" x="662" y="-325" font-family="Helvetica,sans-Serif" font-size="10.00"> myLocale</text>
</g>
<!-- Node5 -->
<g id="node5" class="node"><title>Node5</title>
<g id="a_node5"><a xlink:href="../../d6/d95/classparser_1_1_parser.html" target="_top" xlink:title="parser.Parser">
<polygon fill="white" stroke="black" points="1200,-249.5 1200,-268.5 1280,-268.5 1280,-249.5 1200,-249.5"/>
<text text-anchor="middle" x="1240" y="-256.5" font-family="Helvetica,sans-Serif" font-size="10.00">parser.Parser</text>
</a>
</g>
</g>
<!-- Node5&#45;&gt;Node2 -->
<g id="edge4" class="edge"><title>Node5&#45;&gt;Node2</title>
<path fill="none" stroke="#9a32cd" stroke-dasharray="5,2" d="M1290.58,-259C1320.89,-259 1359.61,-259 1390.3,-259"/>
<polygon fill="#9a32cd" stroke="#9a32cd" points="1290.23,-255.5 1280.23,-259 1290.23,-262.5 1290.23,-255.5"/>
<text text-anchor="middle" x="1323" y="-262" font-family="Helvetica,sans-Serif" font-size="10.00"> myParser</text>
</g>
<!-- Node6 -->
<g id="node6" class="node"><title>Node6</title>
<polygon fill="white" stroke="#bfbfbf" points="4.5,-310.5 4.5,-329.5 75.5,-329.5 75.5,-310.5 4.5,-310.5"/>
<text text-anchor="middle" x="40" y="-317.5" font-family="Helvetica,sans-Serif" font-size="10.00">Serializable</text>
</g>
<!-- Node6&#45;&gt;Node5 -->
<g id="edge5" class="edge"><title>Node6&#45;&gt;Node5</title>
<path fill="none" stroke="midnightblue" d="M60.2471,-303.611C95.3211,-275.48 173.051,-221 249,-221 249,-221 249,-221 1042,-221 1101.91,-221 1170.25,-238.154 1208.64,-249.411"/>
<polygon fill="midnightblue" stroke="midnightblue" points="57.7903,-301.099 52.276,-310.146 62.2284,-306.512 57.7903,-301.099"/>
</g>
<!-- Node8 -->
<g id="node8" class="node"><title>Node8</title>
<g id="a_node8"><a xlink:href="../../d3/d96/classparser_1_1_instruction_factory.html" target="_top" xlink:title="parser.InstructionFactory">
<polygon fill="white" stroke="black" points="974,-334.5 974,-353.5 1108,-353.5 1108,-334.5 974,-334.5"/>
<text text-anchor="middle" x="1041" y="-341.5" font-family="Helvetica,sans-Serif" font-size="10.00">parser.InstructionFactory</text>
</a>
</g>
</g>
<!-- Node6&#45;&gt;Node8 -->
<g id="edge8" class="edge"><title>Node6&#45;&gt;Node8</title>
<path fill="none" stroke="midnightblue" d="M85.7317,-328.17C127.738,-335.126 192.415,-344 249,-344 249,-344 249,-344 775,-344 842.745,-344 920.232,-344 973.841,-344"/>
<polygon fill="midnightblue" stroke="midnightblue" points="86.2644,-324.711 75.8209,-326.495 85.0975,-331.613 86.2644,-324.711"/>
</g>
<!-- Node11 -->
<g id="node11" class="node"><title>Node11</title>
<g id="a_node11"><a xlink:href="../../d1/d69/interfacemodel_1_1_feature.html" target="_top" xlink:title="model.Feature">
<polygon fill="white" stroke="black" points="207,-486.5 207,-505.5 293,-505.5 293,-486.5 207,-486.5"/>
<text text-anchor="middle" x="250" y="-493.5" font-family="Helvetica,sans-Serif" font-size="10.00">model.Feature</text>
</a>
</g>
</g>
<!-- Node6&#45;&gt;Node11 -->
<g id="edge13" class="edge"><title>Node6&#45;&gt;Node11</title>
<path fill="none" stroke="midnightblue" d="M52.1751,-338.513C73.0539,-371.49 121.233,-440.367 180,-477 188.119,-482.061 197.596,-485.796 206.88,-488.546"/>
<polygon fill="midnightblue" stroke="midnightblue" points="55.0534,-336.514 46.8062,-329.863 49.1057,-340.205 55.0534,-336.514"/>
</g>
<!-- Node26 -->
<g id="node26" class="node"><title>Node26</title>
<g id="a_node26"><a xlink:href="../../de/d6b/classparser_1_1_tokenizer.html" target="_top" xlink:title="parser.Tokenizer">
<polygon fill="white" stroke="black" points="338,-276.5 338,-295.5 432,-295.5 432,-276.5 338,-276.5"/>
<text text-anchor="middle" x="385" y="-283.5" font-family="Helvetica,sans-Serif" font-size="10.00">parser.Tokenizer</text>
</a>
</g>
</g>
<!-- Node6&#45;&gt;Node26 -->
<g id="edge31" class="edge"><title>Node6&#45;&gt;Node26</title>
<path fill="none" stroke="midnightblue" d="M85.7559,-315.564C151.005,-309.096 271.651,-297.137 337.74,-290.586"/>
<polygon fill="midnightblue" stroke="midnightblue" points="85.3822,-312.083 75.7763,-316.553 86.0728,-319.049 85.3822,-312.083"/>
</g>
<!-- Node7 -->
<g id="node7" class="node"><title>Node7</title>
<polygon fill="white" stroke="#bfbfbf" points="727.5,-296.5 727.5,-315.5 820.5,-315.5 820.5,-296.5 727.5,-296.5"/>
<text text-anchor="middle" x="774" y="-303.5" font-family="Helvetica,sans-Serif" font-size="10.00">ResourceBundle</text>
</g>
<!-- Node7&#45;&gt;Node5 -->
<g id="edge6" class="edge"><title>Node7&#45;&gt;Node5</title>
<path fill="none" stroke="#9a32cd" stroke-dasharray="5,2" d="M830.944,-304.294C909.715,-301.25 1057.6,-293.187 1182,-273 1189.14,-271.841 1196.71,-270.248 1203.91,-268.551"/>
<polygon fill="#9a32cd" stroke="#9a32cd" points="830.623,-300.803 820.761,-304.674 830.884,-307.798 830.623,-300.803"/>
<text text-anchor="middle" x="1041" y="-299" font-family="Helvetica,sans-Serif" font-size="10.00"> myLanguageBundle</text>
</g>
<!-- Node7&#45;&gt;Node8 -->
<g id="edge9" class="edge"><title>Node7&#45;&gt;Node8</title>
<path fill="none" stroke="#9a32cd" stroke-dasharray="5,2" d="M831.012,-306.886C866.972,-308.225 914.534,-311.434 956,-319 975.609,-322.578 997.145,-329.041 1013.5,-334.499"/>
<polygon fill="#9a32cd" stroke="#9a32cd" points="830.831,-303.378 820.719,-306.542 830.597,-310.374 830.831,-303.378"/>
<text text-anchor="middle" x="906" y="-322" font-family="Helvetica,sans-Serif" font-size="10.00"> myLanguageBundle</text>
</g>
<!-- Node8&#45;&gt;Node5 -->
<g id="edge7" class="edge"><title>Node8&#45;&gt;Node5</title>
<path fill="none" stroke="#9a32cd" stroke-dasharray="5,2" d="M1118.52,-343.704C1140.87,-340.286 1164.08,-333.105 1182,-319 1197.64,-306.69 1186.21,-292.348 1200,-278 1203.55,-274.307 1207.96,-271.236 1212.54,-268.716"/>
<polygon fill="#9a32cd" stroke="#9a32cd" points="1117.8,-340.268 1108.33,-345.021 1118.7,-347.21 1117.8,-340.268"/>
<text text-anchor="middle" x="1154" y="-346" font-family="Helvetica,sans-Serif" font-size="10.00"> myIFactory</text>
</g>
<!-- Node9&#45;&gt;Node2 -->
<g id="edge32" class="edge"><title>Node9&#45;&gt;Node2</title>
<path fill="none" stroke="#9a32cd" stroke-dasharray="5,2" d="M847.557,-395.83C880.674,-394.47 920.371,-392.323 956,-389 1056.95,-379.585 1083.69,-382.777 1182,-358 1258.37,-338.753 1274.47,-324.202 1348,-296 1371.91,-286.831 1399.12,-276.086 1418.09,-268.545"/>
<polygon fill="#9a32cd" stroke="#9a32cd" points="847.356,-392.335 837.502,-396.227 847.632,-399.329 847.356,-392.335"/>
<text text-anchor="middle" x="1154" y="-374" font-family="Helvetica,sans-Serif" font-size="10.00"> myData</text>
</g>
<!-- Node9&#45;&gt;Node8 -->
<g id="edge10" class="edge"><title>Node9&#45;&gt;Node8</title>
<path fill="none" stroke="#9a32cd" stroke-dasharray="5,2" d="M821.295,-386.067C832.617,-383.288 844.72,-380.433 856,-378 898.552,-368.824 946.971,-359.938 983.456,-353.553"/>
<polygon fill="#9a32cd" stroke="#9a32cd" points="820.448,-382.671 811.586,-388.478 822.135,-389.465 820.448,-382.671"/>
<text text-anchor="middle" x="906" y="-381" font-family="Helvetica,sans-Serif" font-size="10.00"> myData</text>
</g>
<!-- Node10 -->
<g id="node10" class="node"><title>Node10</title>
<g id="a_node10"><a xlink:href="../../df/db7/classmodel_1_1_turtles_list.html" target="_top" xlink:title="model.TurtlesList">
<polygon fill="white" stroke="black" points="483.5,-416.5 483.5,-435.5 580.5,-435.5 580.5,-416.5 483.5,-416.5"/>
<text text-anchor="middle" x="532" y="-423.5" font-family="Helvetica,sans-Serif" font-size="10.00">model.TurtlesList</text>
</a>
</g>
</g>
<!-- Node10&#45;&gt;Node9 -->
<g id="edge11" class="edge"><title>Node10&#45;&gt;Node9</title>
<path fill="none" stroke="#9a32cd" stroke-dasharray="5,2" d="M591.064,-419.226C627.128,-415.018 673.475,-409.611 710.364,-405.308"/>
<polygon fill="#9a32cd" stroke="#9a32cd" points="590.23,-415.799 580.703,-420.435 591.041,-422.752 590.23,-415.799"/>
<text text-anchor="middle" x="662" y="-417" font-family="Helvetica,sans-Serif" font-size="10.00"> myTurtles</text>
</g>
<!-- Node11&#45;&gt;Node10 -->
<g id="edge12" class="edge"><title>Node11&#45;&gt;Node10</title>
<path fill="none" stroke="midnightblue" d="M303.091,-489.008C339.559,-483.507 389.217,-474.795 432,-463 459.064,-455.539 489.14,-443.78 508.961,-435.526"/>
<polygon fill="midnightblue" stroke="midnightblue" points="302.552,-485.55 293.171,-490.475 303.575,-492.475 302.552,-485.55"/>
</g>
<!-- Node15 -->
<g id="node15" class="node"><title>Node15</title>
<g id="a_node15"><a xlink:href="../../d6/d34/classmodel_1_1_turtle.html" target="_top" xlink:title="model.Turtle">
<polygon fill="white" stroke="black" points="494.5,-596.5 494.5,-615.5 569.5,-615.5 569.5,-596.5 494.5,-596.5"/>
<text text-anchor="middle" x="532" y="-603.5" font-family="Helvetica,sans-Serif" font-size="10.00">model.Turtle</text>
</a>
</g>
</g>
<!-- Node11&#45;&gt;Node15 -->
<g id="edge19" class="edge"><title>Node11&#45;&gt;Node15</title>
<path fill="none" stroke="midnightblue" d="M303.301,-504.618C340.27,-511.819 390.44,-523.868 432,-542 465.766,-556.731 500.992,-582.387 518.932,-596.322"/>
<polygon fill="midnightblue" stroke="midnightblue" points="303.719,-501.135 293.242,-502.714 302.417,-508.013 303.719,-501.135"/>
</g>
<!-- Node12 -->
<g id="node12" class="node"><title>Node12</title>
<polygon fill="white" stroke="#bfbfbf" points="193,-410.5 193,-429.5 307,-429.5 307,-410.5 193,-410.5"/>
<text text-anchor="middle" x="250" y="-417.5" font-family="Helvetica,sans-Serif" font-size="10.00">List&lt; model.Turtle &gt;</text>
</g>
<!-- Node12&#45;&gt;Node10 -->
<g id="edge14" class="edge"><title>Node12&#45;&gt;Node10</title>
<path fill="none" stroke="#9a32cd" stroke-dasharray="5,2" d="M317.606,-419.653C351.806,-419.656 394.139,-419.94 432,-421 448.773,-421.47 467.13,-422.307 483.431,-423.163"/>
<polygon fill="#9a32cd" stroke="#9a32cd" points="317.264,-416.153 307.267,-419.661 317.269,-423.153 317.264,-416.153"/>
<text text-anchor="middle" x="385" y="-424" font-family="Helvetica,sans-Serif" font-size="10.00"> allTurtles</text>
</g>
<!-- Node13 -->
<g id="node13" class="node"><title>Node13</title>
<polygon fill="white" stroke="#bfbfbf" points="180.5,-372.5 180.5,-391.5 319.5,-391.5 319.5,-372.5 180.5,-372.5"/>
<text text-anchor="middle" x="250" y="-379.5" font-family="Helvetica,sans-Serif" font-size="10.00">Stack&lt; List&lt; Integer &gt; &gt;</text>
</g>
<!-- Node13&#45;&gt;Node10 -->
<g id="edge15" class="edge"><title>Node13&#45;&gt;Node10</title>
<path fill="none" stroke="#9a32cd" stroke-dasharray="5,2" d="M329.674,-390.563C361.529,-394.403 398.604,-399.346 432,-405 451.056,-408.226 472.014,-412.557 489.721,-416.448"/>
<polygon fill="#9a32cd" stroke="#9a32cd" points="329.87,-387.061 319.526,-389.355 329.043,-394.012 329.87,-387.061"/>
<text text-anchor="middle" x="385" y="-408" font-family="Helvetica,sans-Serif" font-size="10.00"> turtleScope</text>
</g>
<!-- Node14 -->
<g id="node14" class="node"><title>Node14</title>
<polygon fill="white" stroke="#bfbfbf" points="205.5,-448.5 205.5,-467.5 294.5,-467.5 294.5,-448.5 205.5,-448.5"/>
<text text-anchor="middle" x="250" y="-455.5" font-family="Helvetica,sans-Serif" font-size="10.00">List&lt; Integer &gt;</text>
</g>
<!-- Node14&#45;&gt;Node10 -->
<g id="edge16" class="edge"><title>Node14&#45;&gt;Node10</title>
<path fill="none" stroke="#9a32cd" stroke-dasharray="5,2" d="M304.728,-451.86C356.411,-445.953 433.801,-437.108 483.343,-431.446"/>
<polygon fill="#9a32cd" stroke="#9a32cd" points="304.288,-448.387 294.75,-453 305.083,-455.342 304.288,-448.387"/>
<text text-anchor="middle" x="385" y="-451" font-family="Helvetica,sans-Serif" font-size="10.00"> activeIDs</text>
</g>
<!-- Node15&#45;&gt;Node9 -->
<g id="edge17" class="edge"><title>Node15&#45;&gt;Node9</title>
<path fill="none" stroke="#9a32cd" stroke-dasharray="5,2" d="M551.999,-589.535C599.768,-548.134 723.778,-440.659 761.771,-407.732"/>
<polygon fill="#9a32cd" stroke="#9a32cd" points="549.518,-587.052 544.254,-596.247 554.103,-592.342 549.518,-587.052"/>
<text text-anchor="middle" x="662" y="-518" font-family="Helvetica,sans-Serif" font-size="10.00"> myTurtle</text>
</g>
<!-- Node16 -->
<g id="node16" class="node"><title>Node16</title>
<g id="a_node16"><a xlink:href="../../d5/dad/classmodel_1_1_turtle_abstract.html" target="_top" xlink:title="model.TurtleAbstract">
<polygon fill="white" stroke="black" points="192,-771.5 192,-790.5 308,-790.5 308,-771.5 192,-771.5"/>
<text text-anchor="middle" x="250" y="-778.5" font-family="Helvetica,sans-Serif" font-size="10.00">model.TurtleAbstract</text>
</a>
</g>
</g>
<!-- Node16&#45;&gt;Node15 -->
<g id="edge18" class="edge"><title>Node16&#45;&gt;Node15</title>
<path fill="none" stroke="midnightblue" d="M318.596,-785.136C354.73,-784.271 398.536,-778.034 432,-757 487.468,-722.135 518.353,-643.554 527.823,-615.875"/>
<polygon fill="midnightblue" stroke="midnightblue" points="318.1,-781.641 308.137,-785.244 318.172,-788.641 318.1,-781.641"/>
</g>
<!-- Node17 -->
<g id="node17" class="node"><title>Node17</title>
<polygon fill="white" stroke="#bfbfbf" points="226.5,-733.5 226.5,-752.5 273.5,-752.5 273.5,-733.5 226.5,-733.5"/>
<text text-anchor="middle" x="250" y="-740.5" font-family="Helvetica,sans-Serif" font-size="10.00">Tooltip</text>
</g>
<!-- Node17&#45;&gt;Node15 -->
<g id="edge20" class="edge"><title>Node17&#45;&gt;Node15</title>
<path fill="none" stroke="#9a32cd" stroke-dasharray="5,2" d="M284.161,-744.843C322.142,-745.516 385.155,-742.141 432,-717 477.732,-692.456 512.681,-638.025 525.587,-615.77"/>
<polygon fill="#9a32cd" stroke="#9a32cd" points="283.781,-741.33 273.685,-744.542 283.58,-748.328 283.781,-741.33"/>
<text text-anchor="middle" x="385" y="-745" font-family="Helvetica,sans-Serif" font-size="10.00"> myTurtleInfo</text>
</g>
<!-- Node18 -->
<g id="node18" class="node"><title>Node18</title>
<polygon fill="white" stroke="#bfbfbf" points="216,-695.5 216,-714.5 284,-714.5 284,-695.5 216,-695.5"/>
<text text-anchor="middle" x="250" y="-702.5" font-family="Helvetica,sans-Serif" font-size="10.00">ImageView</text>
</g>
<!-- Node18&#45;&gt;Node15 -->
<g id="edge21" class="edge"><title>Node18&#45;&gt;Node15</title>
<path fill="none" stroke="#9a32cd" stroke-dasharray="5,2" d="M294.139,-705.411C331.844,-704.36 387.381,-699.345 432,-681 469.692,-665.503 505.69,-632.009 521.951,-615.538"/>
<polygon fill="#9a32cd" stroke="#9a32cd" points="293.931,-701.914 284.001,-705.61 294.068,-708.913 293.931,-701.914"/>
<text text-anchor="middle" x="385" y="-705" font-family="Helvetica,sans-Serif" font-size="10.00"> myImage</text>
</g>
<!-- Node19 -->
<g id="node19" class="node"><title>Node19</title>
<g id="a_node19"><a xlink:href="../../de/ded/classmodel_1_1_pen.html" target="_top" xlink:title="model.Pen">
<polygon fill="white" stroke="black" points="216,-524.5 216,-543.5 284,-543.5 284,-524.5 216,-524.5"/>
<text text-anchor="middle" x="250" y="-531.5" font-family="Helvetica,sans-Serif" font-size="10.00">model.Pen</text>
</a>
</g>
</g>
<!-- Node19&#45;&gt;Node15 -->
<g id="edge22" class="edge"><title>Node19&#45;&gt;Node15</title>
<path fill="none" stroke="#9a32cd" stroke-dasharray="5,2" d="M294.127,-539.043C331.164,-543.983 385.739,-552.723 432,-566 460.153,-574.08 491.265,-587.423 510.961,-596.455"/>
<polygon fill="#9a32cd" stroke="#9a32cd" points="294.535,-535.567 284.168,-537.75 293.634,-542.508 294.535,-535.567"/>
<text text-anchor="middle" x="385" y="-569" font-family="Helvetica,sans-Serif" font-size="10.00"> myPen</text>
</g>
<!-- Node20 -->
<g id="node20" class="node"><title>Node20</title>
<polygon fill="white" stroke="#bfbfbf" points="0,-543.5 0,-562.5 80,-562.5 80,-543.5 0,-543.5"/>
<text text-anchor="middle" x="40" y="-550.5" font-family="Helvetica,sans-Serif" font-size="10.00">List&lt; Color &gt;</text>
</g>
<!-- Node20&#45;&gt;Node19 -->
<g id="edge23" class="edge"><title>Node20&#45;&gt;Node19</title>
<path fill="none" stroke="#9a32cd" stroke-dasharray="5,2" d="M90.1563,-548.51C128.944,-544.967 181.989,-540.121 215.878,-537.026"/>
<polygon fill="#9a32cd" stroke="#9a32cd" points="89.7633,-545.031 80.1232,-549.426 90.4002,-552.002 89.7633,-545.031"/>
<text text-anchor="middle" x="130" y="-551" font-family="Helvetica,sans-Serif" font-size="10.00"> myCustom</text>
</g>
<!-- Node21 -->
<g id="node21" class="node"><title>Node21</title>
<polygon fill="white" stroke="#bfbfbf" points="19.5,-505.5 19.5,-524.5 60.5,-524.5 60.5,-505.5 19.5,-505.5"/>
<text text-anchor="middle" x="40" y="-512.5" font-family="Helvetica,sans-Serif" font-size="10.00">Color</text>
</g>
<!-- Node21&#45;&gt;Node19 -->
<g id="edge24" class="edge"><title>Node21&#45;&gt;Node19</title>
<path fill="none" stroke="#9a32cd" stroke-dasharray="5,2" d="M70.5888,-517.703C108.944,-521.206 175.648,-527.3 215.725,-530.96"/>
<polygon fill="#9a32cd" stroke="#9a32cd" points="70.8451,-514.212 60.5681,-516.787 70.2083,-521.183 70.8451,-514.212"/>
<text text-anchor="middle" x="130" y="-529" font-family="Helvetica,sans-Serif" font-size="10.00"> myLineColor</text>
</g>
<!-- Node22 -->
<g id="node22" class="node"><title>Node22</title>
<polygon fill="white" stroke="#bfbfbf" points="226.5,-652.5 226.5,-671.5 273.5,-671.5 273.5,-652.5 226.5,-652.5"/>
<text text-anchor="middle" x="250" y="-659.5" font-family="Helvetica,sans-Serif" font-size="10.00">Image</text>
</g>
<!-- Node22&#45;&gt;Node15 -->
<g id="edge25" class="edge"><title>Node22&#45;&gt;Node15</title>
<path fill="none" stroke="#9a32cd" stroke-dasharray="5,2" d="M283.626,-660.102C320.144,-657.501 380.896,-651.744 432,-640 458.567,-633.895 487.99,-623.271 507.801,-615.52"/>
<polygon fill="#9a32cd" stroke="#9a32cd" points="283.295,-656.616 273.553,-660.782 283.767,-663.6 283.295,-656.616"/>
<text text-anchor="middle" x="385" y="-669" font-family="Helvetica,sans-Serif" font-size="10.00"> myDefaultOn</text>
<text text-anchor="middle" x="385" y="-658" font-family="Helvetica,sans-Serif" font-size="10.00">myDefaultOff</text>
</g>
<!-- Node23 -->
<g id="node23" class="node"><title>Node23</title>
<polygon fill="white" stroke="#bfbfbf" points="227,-600.5 227,-619.5 273,-619.5 273,-600.5 227,-600.5"/>
<text text-anchor="middle" x="250" y="-607.5" font-family="Helvetica,sans-Serif" font-size="10.00">Group</text>
</g>
<!-- Node23&#45;&gt;Node15 -->
<g id="edge26" class="edge"><title>Node23&#45;&gt;Node15</title>
<path fill="none" stroke="#9a32cd" stroke-dasharray="5,2" d="M283.317,-608.66C299.697,-608.039 319.903,-607.359 338,-607 392.439,-605.921 455.531,-605.809 494.356,-605.871"/>
<polygon fill="#9a32cd" stroke="#9a32cd" points="283.021,-605.169 273.165,-609.057 283.294,-612.164 283.021,-605.169"/>
<text text-anchor="middle" x="385" y="-632" font-family="Helvetica,sans-Serif" font-size="10.00"> myLines</text>
<text text-anchor="middle" x="385" y="-621" font-family="Helvetica,sans-Serif" font-size="10.00">myStamps</text>
<text text-anchor="middle" x="385" y="-610" font-family="Helvetica,sans-Serif" font-size="10.00">myDrawing</text>
</g>
<!-- Node24 -->
<g id="node24" class="node"><title>Node24</title>
<polygon fill="white" stroke="#bfbfbf" points="180,-562.5 180,-581.5 320,-581.5 320,-562.5 180,-562.5"/>
<text text-anchor="middle" x="250" y="-569.5" font-family="Helvetica,sans-Serif" font-size="10.00">ObservableList&lt; Image &gt;</text>
</g>
<!-- Node24&#45;&gt;Node15 -->
<g id="edge27" class="edge"><title>Node24&#45;&gt;Node15</title>
<path fill="none" stroke="#9a32cd" stroke-dasharray="5,2" d="M330.364,-579.537C362.02,-582.751 398.772,-586.741 432,-591 452.691,-593.652 475.737,-597.114 494.384,-600.043"/>
<polygon fill="#9a32cd" stroke="#9a32cd" points="330.576,-576.041 320.276,-578.522 329.875,-583.006 330.576,-576.041"/>
<text text-anchor="middle" x="385" y="-594" font-family="Helvetica,sans-Serif" font-size="10.00"> myTurtleShapes</text>
</g>
<!-- Node25 -->
<g id="node25" class="node"><title>Node25</title>
<polygon fill="white" stroke="#bfbfbf" points="450.5,-378.5 450.5,-397.5 613.5,-397.5 613.5,-378.5 450.5,-378.5"/>
<text text-anchor="middle" x="532" y="-385.5" font-family="Helvetica,sans-Serif" font-size="10.00">Map&lt; String, model.Feature &gt;</text>
</g>
<!-- Node25&#45;&gt;Node9 -->
<g id="edge29" class="edge"><title>Node25&#45;&gt;Node9</title>
<path fill="none" stroke="#9a32cd" stroke-dasharray="5,2" d="M623.667,-388.656C646.017,-389.108 669.884,-389.837 692,-391 697.92,-391.311 704.078,-391.709 710.236,-392.156"/>
<polygon fill="#9a32cd" stroke="#9a32cd" points="623.58,-385.154 613.517,-388.467 623.45,-392.153 623.58,-385.154"/>
<text text-anchor="middle" x="662" y="-394" font-family="Helvetica,sans-Serif" font-size="10.00"> myFeatures</text>
</g>
<!-- Node26&#45;&gt;Node5 -->
<g id="edge30" class="edge"><title>Node26&#45;&gt;Node5</title>
<path fill="none" stroke="#9a32cd" stroke-dasharray="5,2" d="M442.333,-284.217C603.382,-279.119 1062.96,-264.572 1199.98,-260.235"/>
<polygon fill="#9a32cd" stroke="#9a32cd" points="442.048,-280.724 432.163,-284.539 442.269,-287.721 442.048,-280.724"/>
<text text-anchor="middle" x="774" y="-279" font-family="Helvetica,sans-Serif" font-size="10.00"> myTokenizer</text>
</g>
<!-- Node27 -->
<g id="node27" class="node"><title>Node27</title>
<polygon fill="white" stroke="#bfbfbf" points="1401,-88.5 1401,-107.5 1485,-107.5 1485,-88.5 1401,-88.5"/>
<text text-anchor="middle" x="1443" y="-95.5" font-family="Helvetica,sans-Serif" font-size="10.00">List&lt; String &gt;</text>
</g>
<!-- Node27&#45;&gt;Node1 -->
<g id="edge33" class="edge"><title>Node27&#45;&gt;Node1</title>
<path fill="none" stroke="#9a32cd" stroke-dasharray="5,2" d="M1495.21,-98C1535.99,-98 1592.61,-98 1632.19,-98"/>
<polygon fill="#9a32cd" stroke="#9a32cd" points="1495.2,-94.5001 1485.2,-98 1495.2,-101.5 1495.2,-94.5001"/>
<text text-anchor="middle" x="1576" y="-101" font-family="Helvetica,sans-Serif" font-size="10.00"> keyCommands</text>
</g>
<!-- Node28 -->
<g id="node28" class="node"><title>Node28</title>
<polygon fill="white" stroke="#bfbfbf" points="1366,-39 1366,-69 1520,-69 1520,-39 1366,-39"/>
<text text-anchor="start" x="1374" y="-57" font-family="Helvetica,sans-Serif" font-size="10.00">Map&lt; KeyCode, instructions.</text>
<text text-anchor="middle" x="1443" y="-46" font-family="Helvetica,sans-Serif" font-size="10.00">Instruction &gt;</text>
</g>
<!-- Node28&#45;&gt;Node1 -->
<g id="edge35" class="edge"><title>Node28&#45;&gt;Node1</title>
<path fill="none" stroke="#9a32cd" stroke-dasharray="5,2" d="M1530.47,-67.7565C1557.3,-72.2915 1586.93,-77.572 1614,-83 1622.18,-84.6393 1630.89,-86.543 1639.2,-88.4327"/>
<polygon fill="#9a32cd" stroke="#9a32cd" points="1530.78,-64.2592 1520.34,-66.0562 1529.62,-71.1627 1530.78,-64.2592"/>
<text text-anchor="middle" x="1576" y="-86" font-family="Helvetica,sans-Serif" font-size="10.00"> keyMap</text>
</g>
<!-- Node29 -->
<g id="node29" class="node"><title>Node29</title>
<polygon fill="white" stroke="#bfbfbf" points="1407,-0.5 1407,-19.5 1479,-19.5 1479,-0.5 1407,-0.5"/>
<text text-anchor="middle" x="1443" y="-7.5" font-family="Helvetica,sans-Serif" font-size="10.00">BorderPane</text>
</g>
<!-- Node29&#45;&gt;Node1 -->
<g id="edge36" class="edge"><title>Node29&#45;&gt;Node1</title>
<path fill="none" stroke="#9a32cd" stroke-dasharray="5,2" d="M1488.99,-17.6105C1524.1,-24.5561 1573.53,-36.5814 1614,-55 1633.7,-63.9686 1654.17,-78.5233 1666.75,-88.1782"/>
<polygon fill="#9a32cd" stroke="#9a32cd" points="1489.51,-14.1474 1479.03,-15.7009 1488.19,-21.0221 1489.51,-14.1474"/>
<text text-anchor="middle" x="1576" y="-58" font-family="Helvetica,sans-Serif" font-size="10.00"> myWindow</text>
</g>
</g>
</svg>
