<?xml version="1.0" encoding="UTF-8" standalone="no"?>
<!DOCTYPE svg PUBLIC "-//W3C//DTD SVG 1.1//EN"
 "http://www.w3.org/Graphics/SVG/1.1/DTD/svg11.dtd">
<!-- Generated by graphviz version 2.36.0 (20140111.2315)
 -->
<!-- Title: instructions.commands.For.execute Pages: 1 -->
<svg width="602pt" height="153pt"
 viewBox="0.00 0.00 602.00 153.00" xmlns="http://www.w3.org/2000/svg" xmlns:xlink="http://www.w3.org/1999/xlink">
<g id="graph0" class="graph" transform="scale(1 1) rotate(0) translate(4 149)">
<title>instructions.commands.For.execute</title>
<polygon fill="white" stroke="none" points="-4,4 -4,-149 598,-149 598,4 -4,4"/>
<!-- Node1 -->
<g id="node1" class="node"><title>Node1</title>
<polygon fill="#bfbfbf" stroke="black" points="0,-68.5 0,-87.5 188,-87.5 188,-68.5 0,-68.5"/>
<text text-anchor="middle" x="94" y="-75.5" font-family="Helvetica,sans-Serif" font-size="10.00">instructions.commands.For.execute</text>
</g>
<!-- Node2 -->
<g id="node2" class="node"><title>Node2</title>
<g id="a_node2"><a xlink:href="../../d6/d2c/classmodel_1_1_variables_list.html#af9f957dd4df52af1e32f23b03d7a5550" target="_top" xlink:title="model.VariablesList.add">
<polygon fill="white" stroke="black" points="261.5,-125.5 261.5,-144.5 392.5,-144.5 392.5,-125.5 261.5,-125.5"/>
<text text-anchor="middle" x="327" y="-132.5" font-family="Helvetica,sans-Serif" font-size="10.00">model.VariablesList.add</text>
</a>
</g>
</g>
<!-- Node1&#45;&gt;Node2 -->
<g id="edge1" class="edge"><title>Node1&#45;&gt;Node2</title>
<path fill="none" stroke="midnightblue" d="M124.229,-87.5409C150.227,-95.8029 189.377,-107.699 224,-116 235.245,-118.696 247.264,-121.235 258.962,-123.525"/>
<polygon fill="midnightblue" stroke="midnightblue" points="258.652,-127.03 269.132,-125.472 259.969,-120.154 258.652,-127.03"/>
</g>
<!-- Node3 -->
<g id="node3" class="node"><title>Node3</title>
<g id="a_node3"><a xlink:href="../../d4/d6d/classinstructions_1_1_variable_instruction.html#a358f18664885d2409d9551dcb93bf80b" target="_top" xlink:title="instructions.VariableInstruction.execute">
<polygon fill="white" stroke="black" points="224.5,-87.5 224.5,-106.5 429.5,-106.5 429.5,-87.5 224.5,-87.5"/>
<text text-anchor="middle" x="327" y="-94.5" font-family="Helvetica,sans-Serif" font-size="10.00">instructions.VariableInstruction.execute</text>
</a>
</g>
</g>
<!-- Node1&#45;&gt;Node3 -->
<g id="edge2" class="edge"><title>Node1&#45;&gt;Node3</title>
<path fill="none" stroke="midnightblue" d="M188.291,-85.6733C196.841,-86.3765 205.559,-87.0936 214.25,-87.8084"/>
<polygon fill="midnightblue" stroke="midnightblue" points="214.173,-91.3139 224.427,-88.6455 214.747,-84.3374 214.173,-91.3139"/>
</g>
<!-- Node4 -->
<g id="node4" class="node"><title>Node4</title>
<g id="a_node4"><a xlink:href="../../d6/d2c/classmodel_1_1_variables_list.html#a88d10c0a82c1d2a432f2127f522dfc20" target="_top" xlink:title="model.VariablesList.get">
<polygon fill="white" stroke="black" points="466,-68.5 466,-87.5 594,-87.5 594,-68.5 466,-68.5"/>
<text text-anchor="middle" x="530" y="-75.5" font-family="Helvetica,sans-Serif" font-size="10.00">model.VariablesList.get</text>
</a>
</g>
</g>
<!-- Node1&#45;&gt;Node4 -->
<g id="edge4" class="edge"><title>Node1&#45;&gt;Node4</title>
<path fill="none" stroke="midnightblue" d="M188.104,-78C268.151,-78 382.023,-78 455.717,-78"/>
<polygon fill="midnightblue" stroke="midnightblue" points="455.841,-81.5001 465.841,-78 455.841,-74.5001 455.841,-81.5001"/>
</g>
<!-- Node5 -->
<g id="node5" class="node"><title>Node5</title>
<g id="a_node5"><a xlink:href="../../df/dcf/classinstructions_1_1_user_defined_instruction.html#ac2a1915074b04c4ceacfac5ef461a44b" target="_top" xlink:title="instructions.UserDefined\lInstruction.getName">
<polygon fill="white" stroke="black" points="260,-0 260,-30 394,-30 394,-0 260,-0"/>
<text text-anchor="start" x="268" y="-18" font-family="Helvetica,sans-Serif" font-size="10.00">instructions.UserDefined</text>
<text text-anchor="middle" x="327" y="-7" font-family="Helvetica,sans-Serif" font-size="10.00">Instruction.getName</text>
</a>
</g>
</g>
<!-- Node1&#45;&gt;Node5 -->
<g id="edge5" class="edge"><title>Node1&#45;&gt;Node5</title>
<path fill="none" stroke="midnightblue" d="M130.084,-68.4317C164.743,-58.9791 218.583,-44.2956 261.057,-32.7117"/>
<polygon fill="midnightblue" stroke="midnightblue" points="262.035,-36.073 270.762,-30.065 260.193,-29.3196 262.035,-36.073"/>
</g>
<!-- Node3&#45;&gt;Node4 -->
<g id="edge3" class="edge"><title>Node3&#45;&gt;Node4</title>
<path fill="none" stroke="midnightblue" d="M428.794,-87.4722C437.876,-86.6137 446.955,-85.7555 455.734,-84.9256"/>
<polygon fill="midnightblue" stroke="midnightblue" points="456.258,-88.3918 465.884,-83.9661 455.599,-81.4228 456.258,-88.3918"/>
</g>
</g>
</svg>
