<?xml version="1.0" encoding="UTF-8" standalone="no"?>
<!DOCTYPE svg PUBLIC "-//W3C//DTD SVG 1.1//EN"
 "http://www.w3.org/Graphics/SVG/1.1/DTD/svg11.dtd">
<!-- Generated by graphviz version 2.36.0 (20140111.2315)
 -->
<!-- Title: view.UDCommandsView Pages: 1 -->
<svg width="2210pt" height="544pt"
 viewBox="0.00 0.00 2210.00 544.00" xmlns="http://www.w3.org/2000/svg" xmlns:xlink="http://www.w3.org/1999/xlink">
<g id="graph0" class="graph" transform="scale(1 1) rotate(0) translate(4 540)">
<title>view.UDCommandsView</title>
<polygon fill="white" stroke="none" points="-4,4 -4,-540 2206,-540 2206,4 -4,4"/>
<!-- Node1 -->
<g id="node1" class="node"><title>Node1</title>
<polygon fill="#bfbfbf" stroke="black" points="2070.5,-284.5 2070.5,-303.5 2201.5,-303.5 2201.5,-284.5 2070.5,-284.5"/>
<text text-anchor="middle" x="2136" y="-291.5" font-family="Helvetica,sans-Serif" font-size="10.00">view.UDCommandsView</text>
</g>
<!-- Node2 -->
<g id="node2" class="node"><title>Node2</title>
<g id="a_node2"><a xlink:href="../../d4/d36/classview_1_1_data_view_components.html" target="_top" xlink:title="view.DataViewComponents">
<polygon fill="white" stroke="black" points="1886,-284.5 1886,-303.5 2032,-303.5 2032,-284.5 1886,-284.5"/>
<text text-anchor="middle" x="1959" y="-291.5" font-family="Helvetica,sans-Serif" font-size="10.00">view.DataViewComponents</text>
</a>
</g>
</g>
<!-- Node2&#45;&gt;Node1 -->
<g id="edge1" class="edge"><title>Node2&#45;&gt;Node1</title>
<path fill="none" stroke="midnightblue" d="M2042.32,-294C2051.69,-294 2061.15,-294 2070.26,-294"/>
<polygon fill="midnightblue" stroke="midnightblue" points="2042.19,-290.5 2032.19,-294 2042.19,-297.5 2042.19,-290.5"/>
</g>
<!-- Node3 -->
<g id="node3" class="node"><title>Node3</title>
<g id="a_node3"><a xlink:href="../../db/d98/classview_1_1_scroll_view.html" target="_top" xlink:title="view.ScrollView">
<polygon fill="white" stroke="black" points="1760.5,-284.5 1760.5,-303.5 1847.5,-303.5 1847.5,-284.5 1760.5,-284.5"/>
<text text-anchor="middle" x="1804" y="-291.5" font-family="Helvetica,sans-Serif" font-size="10.00">view.ScrollView</text>
</a>
</g>
</g>
<!-- Node3&#45;&gt;Node2 -->
<g id="edge2" class="edge"><title>Node3&#45;&gt;Node2</title>
<path fill="none" stroke="midnightblue" d="M1857.9,-294C1866.88,-294 1876.34,-294 1885.72,-294"/>
<polygon fill="midnightblue" stroke="midnightblue" points="1857.62,-290.5 1847.62,-294 1857.62,-297.5 1857.62,-290.5"/>
</g>
<!-- Node4 -->
<g id="node4" class="node"><title>Node4</title>
<polygon fill="white" stroke="#bfbfbf" points="1604,-322.5 1604,-341.5 1670,-341.5 1670,-322.5 1604,-322.5"/>
<text text-anchor="middle" x="1637" y="-329.5" font-family="Helvetica,sans-Serif" font-size="10.00">ScrollPane</text>
</g>
<!-- Node4&#45;&gt;Node3 -->
<g id="edge3" class="edge"><title>Node4&#45;&gt;Node3</title>
<path fill="none" stroke="midnightblue" d="M1680.18,-322.906C1699.11,-318.766 1721.7,-313.74 1742,-309 1749.33,-307.289 1757.14,-305.411 1764.64,-303.579"/>
<polygon fill="midnightblue" stroke="midnightblue" points="1679.39,-319.496 1670.37,-325.046 1680.88,-326.336 1679.39,-319.496"/>
</g>
<!-- Node5 -->
<g id="node5" class="node"><title>Node5</title>
<polygon fill="white" stroke="#bfbfbf" points="1616.5,-284.5 1616.5,-303.5 1657.5,-303.5 1657.5,-284.5 1616.5,-284.5"/>
<text text-anchor="middle" x="1637" y="-291.5" font-family="Helvetica,sans-Serif" font-size="10.00">VBox</text>
</g>
<!-- Node5&#45;&gt;Node3 -->
<g id="edge4" class="edge"><title>Node5&#45;&gt;Node3</title>
<path fill="none" stroke="#9a32cd" stroke-dasharray="5,2" d="M1667.86,-294C1693.69,-294 1731.34,-294 1760.35,-294"/>
<polygon fill="#9a32cd" stroke="#9a32cd" points="1667.58,-290.5 1657.58,-294 1667.58,-297.5 1667.58,-290.5"/>
<text text-anchor="middle" x="1720" y="-297" font-family="Helvetica,sans-Serif" font-size="10.00"> myView</text>
</g>
<!-- Node6 -->
<g id="node6" class="node"><title>Node6</title>
<g id="a_node6"><a xlink:href="../../d6/d0a/classview_1_1_input_view.html" target="_top" xlink:title="view.InputView">
<polygon fill="white" stroke="black" points="1594.5,-246.5 1594.5,-265.5 1679.5,-265.5 1679.5,-246.5 1594.5,-246.5"/>
<text text-anchor="middle" x="1637" y="-253.5" font-family="Helvetica,sans-Serif" font-size="10.00">view.InputView</text>
</a>
</g>
</g>
<!-- Node6&#45;&gt;Node3 -->
<g id="edge5" class="edge"><title>Node6&#45;&gt;Node3</title>
<path fill="none" stroke="#9a32cd" stroke-dasharray="5,2" d="M1689.68,-267.179C1706.39,-270.861 1725,-275.031 1742,-279 1749.33,-280.711 1757.14,-282.589 1764.64,-284.421"/>
<polygon fill="#9a32cd" stroke="#9a32cd" points="1690.07,-263.68 1679.55,-264.955 1688.57,-270.517 1690.07,-263.68"/>
<text text-anchor="middle" x="1720" y="-282" font-family="Helvetica,sans-Serif" font-size="10.00"> myInput</text>
</g>
<!-- Node7 -->
<g id="node7" class="node"><title>Node7</title>
<g id="a_node7"><a xlink:href="../../dc/dc4/classview_1_1_pane_view.html" target="_top" xlink:title="view.PaneView">
<polygon fill="white" stroke="black" points="1377,-373.5 1377,-392.5 1461,-392.5 1461,-373.5 1377,-373.5"/>
<text text-anchor="middle" x="1419" y="-380.5" font-family="Helvetica,sans-Serif" font-size="10.00">view.PaneView</text>
</a>
</g>
</g>
<!-- Node7&#45;&gt;Node6 -->
<g id="edge6" class="edge"><title>Node7&#45;&gt;Node6</title>
<path fill="none" stroke="midnightblue" d="M1471.53,-388.946C1505.46,-389.875 1548.54,-384.899 1576,-359 1603.78,-332.802 1570.04,-304.724 1594,-275 1597.11,-271.137 1601.18,-268.031 1605.56,-265.541"/>
<polygon fill="midnightblue" stroke="midnightblue" points="1471.47,-385.44 1461.32,-388.485 1471.15,-392.433 1471.47,-385.44"/>
</g>
<!-- Node8 -->
<g id="node8" class="node"><title>Node8</title>
<polygon fill="white" stroke="#bfbfbf" points="1220,-373.5 1220,-392.5 1260,-392.5 1260,-373.5 1220,-373.5"/>
<text text-anchor="middle" x="1240" y="-380.5" font-family="Helvetica,sans-Serif" font-size="10.00">Pane</text>
</g>
<!-- Node8&#45;&gt;Node7 -->
<g id="edge7" class="edge"><title>Node8&#45;&gt;Node7</title>
<path fill="none" stroke="midnightblue" d="M1270.59,-383C1299.63,-383 1344.17,-383 1376.69,-383"/>
<polygon fill="midnightblue" stroke="midnightblue" points="1270.28,-379.5 1260.28,-383 1270.28,-386.5 1270.28,-379.5"/>
</g>
<!-- Node9 -->
<g id="node9" class="node"><title>Node9</title>
<g id="a_node9"><a xlink:href="../../d3/d88/classmodel_1_1_slogo_model.html" target="_top" xlink:title="model.SlogoModel">
<polygon fill="white" stroke="black" points="1366.5,-266.5 1366.5,-285.5 1471.5,-285.5 1471.5,-266.5 1366.5,-266.5"/>
<text text-anchor="middle" x="1419" y="-273.5" font-family="Helvetica,sans-Serif" font-size="10.00">model.SlogoModel</text>
</a>
</g>
</g>
<!-- Node9&#45;&gt;Node6 -->
<g id="edge8" class="edge"><title>Node9&#45;&gt;Node6</title>
<path fill="none" stroke="#9a32cd" stroke-dasharray="5,2" d="M1482.15,-270.246C1518.2,-266.908 1562.61,-262.795 1594.44,-259.848"/>
<polygon fill="#9a32cd" stroke="#9a32cd" points="1481.37,-266.802 1471.74,-271.21 1482.02,-273.773 1481.37,-266.802"/>
<text text-anchor="middle" x="1533" y="-271" font-family="Helvetica,sans-Serif" font-size="10.00"> myModel</text>
</g>
<!-- Node10 -->
<g id="node10" class="node"><title>Node10</title>
<polygon fill="white" stroke="#bfbfbf" points="1204.5,-73.5 1204.5,-92.5 1275.5,-92.5 1275.5,-73.5 1204.5,-73.5"/>
<text text-anchor="middle" x="1240" y="-80.5" font-family="Helvetica,sans-Serif" font-size="10.00">Observable</text>
</g>
<!-- Node10&#45;&gt;Node9 -->
<g id="edge9" class="edge"><title>Node10&#45;&gt;Node9</title>
<path fill="none" stroke="midnightblue" d="M1272.46,-97.28C1275.07,-98.7762 1277.62,-100.355 1280,-102 1314.15,-125.579 1327.9,-129.688 1348,-166 1367.96,-202.072 1339.19,-225.677 1366,-257 1369.31,-260.87 1373.48,-263.952 1378.01,-266.407"/>
<polygon fill="midnightblue" stroke="midnightblue" points="1273.99,-94.1276 1263.52,-92.5379 1270.71,-100.313 1273.99,-94.1276"/>
</g>
<!-- Node11 -->
<g id="node11" class="node"><title>Node11</title>
<polygon fill="white" stroke="#bfbfbf" points="508.5,-335.5 508.5,-354.5 555.5,-354.5 555.5,-335.5 508.5,-335.5"/>
<text text-anchor="middle" x="532" y="-342.5" font-family="Helvetica,sans-Serif" font-size="10.00">Locale</text>
</g>
<!-- Node11&#45;&gt;Node6 -->
<g id="edge41" class="edge"><title>Node11&#45;&gt;Node6</title>
<path fill="none" stroke="#9a32cd" stroke-dasharray="5,2" d="M565.872,-345C612.106,-345 698.975,-345 773,-345 773,-345 773,-345 1420,-345 1494.61,-345 1507.3,-312.093 1576,-283 1579.87,-281.363 1599.08,-272.703 1614.73,-265.626"/>
<polygon fill="#9a32cd" stroke="#9a32cd" points="565.833,-341.5 555.833,-345 565.833,-348.5 565.833,-341.5"/>
<text text-anchor="middle" x="1154" y="-348" font-family="Helvetica,sans-Serif" font-size="10.00"> myLocale</text>
</g>
<!-- Node11&#45;&gt;Node9 -->
<g id="edge10" class="edge"><title>Node11&#45;&gt;Node9</title>
<path fill="none" stroke="#9a32cd" stroke-dasharray="5,2" d="M565.666,-338.354C621.506,-327.219 733.144,-306 773,-306 773,-306 773,-306 1241,-306 1290.71,-306 1347.19,-294.354 1382.7,-285.575"/>
<polygon fill="#9a32cd" stroke="#9a32cd" points="564.716,-334.975 555.599,-340.373 566.092,-341.838 564.716,-334.975"/>
<text text-anchor="middle" x="1041" y="-309" font-family="Helvetica,sans-Serif" font-size="10.00"> myLocale</text>
</g>
<!-- Node16 -->
<g id="node16" class="node"><title>Node16</title>
<g id="a_node16"><a xlink:href="../../d8/d36/classmodel_1_1_observable_data.html" target="_top" xlink:title="model.ObservableData">
<polygon fill="white" stroke="black" points="710.5,-227.5 710.5,-246.5 837.5,-246.5 837.5,-227.5 710.5,-227.5"/>
<text text-anchor="middle" x="774" y="-234.5" font-family="Helvetica,sans-Serif" font-size="10.00">model.ObservableData</text>
</a>
</g>
</g>
<!-- Node11&#45;&gt;Node16 -->
<g id="edge35" class="edge"><title>Node11&#45;&gt;Node16</title>
<path fill="none" stroke="#9a32cd" stroke-dasharray="5,2" d="M565.931,-344.209C582.058,-342.232 600.795,-337.358 614,-326 630.331,-311.953 616.186,-295.626 632,-281 639.883,-273.709 697.813,-257.122 736.924,-246.526"/>
<polygon fill="#9a32cd" stroke="#9a32cd" points="565.436,-340.74 555.794,-345.13 566.069,-347.711 565.436,-340.74"/>
<text text-anchor="middle" x="662" y="-284" font-family="Helvetica,sans-Serif" font-size="10.00"> myLocale</text>
</g>
<!-- Node12 -->
<g id="node12" class="node"><title>Node12</title>
<g id="a_node12"><a xlink:href="../../d6/d95/classparser_1_1_parser.html" target="_top" xlink:title="parser.Parser">
<polygon fill="white" stroke="black" points="1200,-111.5 1200,-130.5 1280,-130.5 1280,-111.5 1200,-111.5"/>
<text text-anchor="middle" x="1240" y="-118.5" font-family="Helvetica,sans-Serif" font-size="10.00">parser.Parser</text>
</a>
</g>
</g>
<!-- Node12&#45;&gt;Node9 -->
<g id="edge11" class="edge"><title>Node12&#45;&gt;Node9</title>
<path fill="none" stroke="#9a32cd" stroke-dasharray="5,2" d="M1261.55,-137.124C1284.61,-155.953 1322.17,-188.892 1348,-223 1358.32,-236.631 1353.11,-245.763 1366,-257 1370.42,-260.853 1375.68,-263.949 1381.14,-266.429"/>
<polygon fill="#9a32cd" stroke="#9a32cd" points="1263.46,-134.168 1253.47,-130.625 1259.07,-139.622 1263.46,-134.168"/>
<text text-anchor="middle" x="1323" y="-226" font-family="Helvetica,sans-Serif" font-size="10.00"> myParser</text>
</g>
<!-- Node13 -->
<g id="node13" class="node"><title>Node13</title>
<polygon fill="white" stroke="#bfbfbf" points="4.5,-55.5 4.5,-74.5 75.5,-74.5 75.5,-55.5 4.5,-55.5"/>
<text text-anchor="middle" x="40" y="-62.5" font-family="Helvetica,sans-Serif" font-size="10.00">Serializable</text>
</g>
<!-- Node13&#45;&gt;Node12 -->
<g id="edge12" class="edge"><title>Node13&#45;&gt;Node12</title>
<path fill="none" stroke="midnightblue" d="M67.8544,-50.8459C106.699,-31.7235 181.338,-0 249,-0 249,-0 249,-0 1042,-0 1110.98,-0 1132.53,-18.9271 1182,-67 1194.54,-79.1904 1187.5,-89.7659 1200,-102 1203.77,-105.687 1208.39,-108.779 1213.12,-111.324"/>
<polygon fill="midnightblue" stroke="midnightblue" points="66.1389,-47.7908 58.7759,-55.409 69.2826,-54.0452 66.1389,-47.7908"/>
</g>
<!-- Node15 -->
<g id="node15" class="node"><title>Node15</title>
<g id="a_node15"><a xlink:href="../../d3/d96/classparser_1_1_instruction_factory.html" target="_top" xlink:title="parser.InstructionFactory">
<polygon fill="white" stroke="black" points="974,-132.5 974,-151.5 1108,-151.5 1108,-132.5 974,-132.5"/>
<text text-anchor="middle" x="1041" y="-139.5" font-family="Helvetica,sans-Serif" font-size="10.00">parser.InstructionFactory</text>
</a>
</g>
</g>
<!-- Node13&#45;&gt;Node15 -->
<g id="edge15" class="edge"><title>Node13&#45;&gt;Node15</title>
<path fill="none" stroke="midnightblue" d="M85.6616,-69.433C208.471,-81.4814 561.673,-115.184 856,-134 895.089,-136.499 938.901,-138.438 973.964,-139.781"/>
<polygon fill="midnightblue" stroke="midnightblue" points="85.8123,-65.931 75.5178,-68.4356 85.1273,-72.8974 85.8123,-65.931"/>
</g>
<!-- Node18 -->
<g id="node18" class="node"><title>Node18</title>
<g id="a_node18"><a xlink:href="../../d1/d69/interfacemodel_1_1_feature.html" target="_top" xlink:title="model.Feature">
<polygon fill="white" stroke="black" points="207,-226.5 207,-245.5 293,-245.5 293,-226.5 207,-226.5"/>
<text text-anchor="middle" x="250" y="-233.5" font-family="Helvetica,sans-Serif" font-size="10.00">model.Feature</text>
</a>
</g>
</g>
<!-- Node13&#45;&gt;Node18 -->
<g id="edge20" class="edge"><title>Node13&#45;&gt;Node18</title>
<path fill="none" stroke="midnightblue" d="M52.5978,-83.3262C73.8583,-115.395 122.236,-181.634 180,-217 188.159,-221.996 197.653,-225.705 206.94,-228.45"/>
<polygon fill="midnightblue" stroke="midnightblue" points="55.2738,-81.0208 46.89,-74.5429 49.4043,-84.8351 55.2738,-81.0208"/>
</g>
<!-- Node33 -->
<g id="node33" class="node"><title>Node33</title>
<g id="a_node33"><a xlink:href="../../de/d6b/classparser_1_1_tokenizer.html" target="_top" xlink:title="parser.Tokenizer">
<polygon fill="white" stroke="black" points="338,-36.5 338,-55.5 432,-55.5 432,-36.5 338,-36.5"/>
<text text-anchor="middle" x="385" y="-43.5" font-family="Helvetica,sans-Serif" font-size="10.00">parser.Tokenizer</text>
</a>
</g>
</g>
<!-- Node13&#45;&gt;Node33 -->
<g id="edge38" class="edge"><title>Node13&#45;&gt;Node33</title>
<path fill="none" stroke="midnightblue" d="M86.1594,-62.4985C151.502,-58.8789 271.787,-52.2159 337.74,-48.5625"/>
<polygon fill="midnightblue" stroke="midnightblue" points="85.5673,-59.0258 75.7763,-63.0736 85.9546,-66.0151 85.5673,-59.0258"/>
</g>
<!-- Node14 -->
<g id="node14" class="node"><title>Node14</title>
<polygon fill="white" stroke="#bfbfbf" points="727.5,-92.5 727.5,-111.5 820.5,-111.5 820.5,-92.5 727.5,-92.5"/>
<text text-anchor="middle" x="774" y="-99.5" font-family="Helvetica,sans-Serif" font-size="10.00">ResourceBundle</text>
</g>
<!-- Node14&#45;&gt;Node12 -->
<g id="edge13" class="edge"><title>Node14&#45;&gt;Node12</title>
<path fill="none" stroke="#9a32cd" stroke-dasharray="5,2" d="M830.744,-102.857C896.908,-104.063 1010.56,-106.731 1108,-112 1138.84,-113.668 1173.74,-116.092 1199.75,-118.004"/>
<polygon fill="#9a32cd" stroke="#9a32cd" points="830.604,-99.354 820.543,-102.676 830.479,-106.353 830.604,-99.354"/>
<text text-anchor="middle" x="1041" y="-115" font-family="Helvetica,sans-Serif" font-size="10.00"> myLanguageBundle</text>
</g>
<!-- Node14&#45;&gt;Node15 -->
<g id="edge16" class="edge"><title>Node14&#45;&gt;Node15</title>
<path fill="none" stroke="#9a32cd" stroke-dasharray="5,2" d="M830.837,-106.922C866.728,-110.468 914.278,-115.882 956,-123 971.034,-125.565 987.422,-129.102 1001.7,-132.43"/>
<polygon fill="#9a32cd" stroke="#9a32cd" points="830.858,-103.407 820.567,-105.926 830.182,-110.375 830.858,-103.407"/>
<text text-anchor="middle" x="906" y="-126" font-family="Helvetica,sans-Serif" font-size="10.00"> myLanguageBundle</text>
</g>
<!-- Node15&#45;&gt;Node12 -->
<g id="edge14" class="edge"><title>Node15&#45;&gt;Node12</title>
<path fill="none" stroke="#9a32cd" stroke-dasharray="5,2" d="M1118.27,-133.87C1146.11,-130.902 1176.44,-127.669 1199.74,-125.185"/>
<polygon fill="#9a32cd" stroke="#9a32cd" points="1117.72,-130.409 1108.15,-134.949 1118.46,-137.369 1117.72,-130.409"/>
<text text-anchor="middle" x="1154" y="-136" font-family="Helvetica,sans-Serif" font-size="10.00"> myIFactory</text>
</g>
<!-- Node16&#45;&gt;Node9 -->
<g id="edge39" class="edge"><title>Node16&#45;&gt;Node9</title>
<path fill="none" stroke="#9a32cd" stroke-dasharray="5,2" d="M847.878,-241.42C979.15,-249.382 1252.26,-265.948 1366.26,-272.862"/>
<polygon fill="#9a32cd" stroke="#9a32cd" points="847.724,-237.905 837.531,-240.793 847.3,-244.892 847.724,-237.905"/>
<text text-anchor="middle" x="1154" y="-264" font-family="Helvetica,sans-Serif" font-size="10.00"> myData</text>
</g>
<!-- Node16&#45;&gt;Node15 -->
<g id="edge17" class="edge"><title>Node16&#45;&gt;Node15</title>
<path fill="none" stroke="#9a32cd" stroke-dasharray="5,2" d="M811.404,-223.95C865.477,-204.565 965.752,-168.617 1013.45,-151.516"/>
<polygon fill="#9a32cd" stroke="#9a32cd" points="810.1,-220.699 801.868,-227.368 812.462,-227.288 810.1,-220.699"/>
<text text-anchor="middle" x="906" y="-209" font-family="Helvetica,sans-Serif" font-size="10.00"> myData</text>
</g>
<!-- Node17 -->
<g id="node17" class="node"><title>Node17</title>
<g id="a_node17"><a xlink:href="../../df/db7/classmodel_1_1_turtles_list.html" target="_top" xlink:title="model.TurtlesList">
<polygon fill="white" stroke="black" points="483.5,-164.5 483.5,-183.5 580.5,-183.5 580.5,-164.5 483.5,-164.5"/>
<text text-anchor="middle" x="532" y="-171.5" font-family="Helvetica,sans-Serif" font-size="10.00">model.TurtlesList</text>
</a>
</g>
</g>
<!-- Node17&#45;&gt;Node16 -->
<g id="edge18" class="edge"><title>Node17&#45;&gt;Node16</title>
<path fill="none" stroke="#9a32cd" stroke-dasharray="5,2" d="M590.708,-175.651C621.386,-177.827 659.395,-182.618 692,-193 717.313,-201.06 743.857,-217.168 759.391,-227.498"/>
<polygon fill="#9a32cd" stroke="#9a32cd" points="590.805,-172.15 580.604,-175.009 590.362,-179.136 590.805,-172.15"/>
<text text-anchor="middle" x="662" y="-196" font-family="Helvetica,sans-Serif" font-size="10.00"> myTurtles</text>
</g>
<!-- Node18&#45;&gt;Node17 -->
<g id="edge19" class="edge"><title>Node18&#45;&gt;Node17</title>
<path fill="none" stroke="midnightblue" d="M303.385,-232.829C340.393,-229.214 390.575,-221.489 432,-205 440.933,-201.444 441.179,-196.826 450,-193 460.469,-188.46 472.19,-184.912 483.394,-182.177"/>
<polygon fill="midnightblue" stroke="midnightblue" points="302.957,-229.354 293.314,-233.744 303.59,-236.325 302.957,-229.354"/>
</g>
<!-- Node22 -->
<g id="node22" class="node"><title>Node22</title>
<g id="a_node22"><a xlink:href="../../d6/d34/classmodel_1_1_turtle.html" target="_top" xlink:title="model.Turtle">
<polygon fill="white" stroke="black" points="494.5,-297.5 494.5,-316.5 569.5,-316.5 569.5,-297.5 494.5,-297.5"/>
<text text-anchor="middle" x="532" y="-304.5" font-family="Helvetica,sans-Serif" font-size="10.00">model.Turtle</text>
</a>
</g>
</g>
<!-- Node18&#45;&gt;Node22 -->
<g id="edge26" class="edge"><title>Node18&#45;&gt;Node22</title>
<path fill="none" stroke="midnightblue" d="M301.567,-247.895C337.917,-256.543 388.063,-268.671 432,-280 453.564,-285.56 477.673,-292.128 496.7,-297.394"/>
<polygon fill="midnightblue" stroke="midnightblue" points="302.234,-244.456 291.696,-245.552 300.617,-251.267 302.234,-244.456"/>
</g>
<!-- Node19 -->
<g id="node19" class="node"><title>Node19</title>
<polygon fill="white" stroke="#bfbfbf" points="193,-112.5 193,-131.5 307,-131.5 307,-112.5 193,-112.5"/>
<text text-anchor="middle" x="250" y="-119.5" font-family="Helvetica,sans-Serif" font-size="10.00">List&lt; model.Turtle &gt;</text>
</g>
<!-- Node19&#45;&gt;Node17 -->
<g id="edge21" class="edge"><title>Node19&#45;&gt;Node17</title>
<path fill="none" stroke="#9a32cd" stroke-dasharray="5,2" d="M317.113,-129.055C351.547,-133.253 394.238,-139.276 432,-147 455.039,-151.712 480.64,-158.744 500.036,-164.449"/>
<polygon fill="#9a32cd" stroke="#9a32cd" points="317.515,-125.578 307.17,-127.865 316.683,-132.529 317.515,-125.578"/>
<text text-anchor="middle" x="385" y="-150" font-family="Helvetica,sans-Serif" font-size="10.00"> allTurtles</text>
</g>
<!-- Node20 -->
<g id="node20" class="node"><title>Node20</title>
<polygon fill="white" stroke="#bfbfbf" points="180.5,-188.5 180.5,-207.5 319.5,-207.5 319.5,-188.5 180.5,-188.5"/>
<text text-anchor="middle" x="250" y="-195.5" font-family="Helvetica,sans-Serif" font-size="10.00">Stack&lt; List&lt; Integer &gt; &gt;</text>
</g>
<!-- Node20&#45;&gt;Node17 -->
<g id="edge22" class="edge"><title>Node20&#45;&gt;Node17</title>
<path fill="none" stroke="#9a32cd" stroke-dasharray="5,2" d="M329.855,-191.241C379.16,-187.015 441.056,-181.709 483.073,-178.108"/>
<polygon fill="#9a32cd" stroke="#9a32cd" points="329.519,-187.757 319.854,-192.098 330.117,-194.731 329.519,-187.757"/>
<text text-anchor="middle" x="385" y="-193" font-family="Helvetica,sans-Serif" font-size="10.00"> turtleScope</text>
</g>
<!-- Node21 -->
<g id="node21" class="node"><title>Node21</title>
<polygon fill="white" stroke="#bfbfbf" points="205.5,-150.5 205.5,-169.5 294.5,-169.5 294.5,-150.5 205.5,-150.5"/>
<text text-anchor="middle" x="250" y="-157.5" font-family="Helvetica,sans-Serif" font-size="10.00">List&lt; Integer &gt;</text>
</g>
<!-- Node21&#45;&gt;Node17 -->
<g id="edge23" class="edge"><title>Node21&#45;&gt;Node17</title>
<path fill="none" stroke="#9a32cd" stroke-dasharray="5,2" d="M304.84,-160.599C340.858,-161.219 389.301,-162.472 432,-165 448.798,-165.995 467.16,-167.537 483.46,-169.066"/>
<polygon fill="#9a32cd" stroke="#9a32cd" points="304.61,-157.095 294.555,-160.434 304.497,-164.094 304.61,-157.095"/>
<text text-anchor="middle" x="385" y="-168" font-family="Helvetica,sans-Serif" font-size="10.00"> activeIDs</text>
</g>
<!-- Node22&#45;&gt;Node16 -->
<g id="edge24" class="edge"><title>Node22&#45;&gt;Node16</title>
<path fill="none" stroke="#9a32cd" stroke-dasharray="5,2" d="M552.747,-291.105C571.797,-276.768 602.073,-256.515 632,-247 656.907,-239.081 685.494,-236.02 710.387,-235.146"/>
<polygon fill="#9a32cd" stroke="#9a32cd" points="550.362,-288.524 544.586,-297.406 554.641,-294.065 550.362,-288.524"/>
<text text-anchor="middle" x="662" y="-250" font-family="Helvetica,sans-Serif" font-size="10.00"> myTurtle</text>
</g>
<!-- Node23 -->
<g id="node23" class="node"><title>Node23</title>
<g id="a_node23"><a xlink:href="../../d5/dad/classmodel_1_1_turtle_abstract.html" target="_top" xlink:title="model.TurtleAbstract">
<polygon fill="white" stroke="black" points="192,-264.5 192,-283.5 308,-283.5 308,-264.5 192,-264.5"/>
<text text-anchor="middle" x="250" y="-271.5" font-family="Helvetica,sans-Serif" font-size="10.00">model.TurtleAbstract</text>
</a>
</g>
</g>
<!-- Node23&#45;&gt;Node22 -->
<g id="edge25" class="edge"><title>Node23&#45;&gt;Node22</title>
<path fill="none" stroke="midnightblue" d="M318.392,-281.943C373.604,-288.45 449.647,-297.412 494.238,-302.667"/>
<polygon fill="midnightblue" stroke="midnightblue" points="318.679,-278.452 308.338,-280.758 317.859,-285.404 318.679,-278.452"/>
</g>
<!-- Node24 -->
<g id="node24" class="node"><title>Node24</title>
<polygon fill="white" stroke="#bfbfbf" points="226.5,-507.5 226.5,-526.5 273.5,-526.5 273.5,-507.5 226.5,-507.5"/>
<text text-anchor="middle" x="250" y="-514.5" font-family="Helvetica,sans-Serif" font-size="10.00">Tooltip</text>
</g>
<!-- Node24&#45;&gt;Node22 -->
<g id="edge27" class="edge"><title>Node24&#45;&gt;Node22</title>
<path fill="none" stroke="#9a32cd" stroke-dasharray="5,2" d="M283.744,-523.031C324.634,-528.482 393.843,-530.477 432,-491 483.268,-437.958 401.108,-381.239 450,-326 461.009,-313.562 478.473,-308.464 494.371,-306.622"/>
<polygon fill="#9a32cd" stroke="#9a32cd" points="284.152,-519.554 273.748,-521.555 283.129,-526.479 284.152,-519.554"/>
<text text-anchor="middle" x="385" y="-528" font-family="Helvetica,sans-Serif" font-size="10.00"> myTurtleInfo</text>
</g>
<!-- Node25 -->
<g id="node25" class="node"><title>Node25</title>
<polygon fill="white" stroke="#bfbfbf" points="216,-431.5 216,-450.5 284,-450.5 284,-431.5 216,-431.5"/>
<text text-anchor="middle" x="250" y="-438.5" font-family="Helvetica,sans-Serif" font-size="10.00">ImageView</text>
</g>
<!-- Node25&#45;&gt;Node22 -->
<g id="edge28" class="edge"><title>Node25&#45;&gt;Node22</title>
<path fill="none" stroke="#9a32cd" stroke-dasharray="5,2" d="M294.51,-441.405C341.634,-440.888 412.679,-437.009 432,-419 462.796,-390.294 420.82,-356.347 450,-326 461.413,-314.13 478.724,-309.064 494.417,-307.096"/>
<polygon fill="#9a32cd" stroke="#9a32cd" points="294.239,-437.907 284.262,-441.47 294.284,-444.907 294.239,-437.907"/>
<text text-anchor="middle" x="385" y="-442" font-family="Helvetica,sans-Serif" font-size="10.00"> myImage</text>
</g>
<!-- Node26 -->
<g id="node26" class="node"><title>Node26</title>
<g id="a_node26"><a xlink:href="../../de/ded/classmodel_1_1_pen.html" target="_top" xlink:title="model.Pen">
<polygon fill="white" stroke="black" points="216,-469.5 216,-488.5 284,-488.5 284,-469.5 216,-469.5"/>
<text text-anchor="middle" x="250" y="-476.5" font-family="Helvetica,sans-Serif" font-size="10.00">model.Pen</text>
</a>
</g>
</g>
<!-- Node26&#45;&gt;Node22 -->
<g id="edge29" class="edge"><title>Node26&#45;&gt;Node22</title>
<path fill="none" stroke="#9a32cd" stroke-dasharray="5,2" d="M294.327,-478.826C341.642,-477.666 413.209,-472.745 432,-454 472.672,-413.428 411.261,-368.422 450,-326 461.104,-313.841 478.381,-308.743 494.131,-306.829"/>
<polygon fill="#9a32cd" stroke="#9a32cd" points="293.97,-475.333 284.041,-479.029 294.108,-482.331 293.97,-475.333"/>
<text text-anchor="middle" x="385" y="-479" font-family="Helvetica,sans-Serif" font-size="10.00"> myPen</text>
</g>
<!-- Node27 -->
<g id="node27" class="node"><title>Node27</title>
<polygon fill="white" stroke="#bfbfbf" points="0,-488.5 0,-507.5 80,-507.5 80,-488.5 0,-488.5"/>
<text text-anchor="middle" x="40" y="-495.5" font-family="Helvetica,sans-Serif" font-size="10.00">List&lt; Color &gt;</text>
</g>
<!-- Node27&#45;&gt;Node26 -->
<g id="edge30" class="edge"><title>Node27&#45;&gt;Node26</title>
<path fill="none" stroke="#9a32cd" stroke-dasharray="5,2" d="M90.1563,-493.51C128.944,-489.967 181.989,-485.121 215.878,-482.026"/>
<polygon fill="#9a32cd" stroke="#9a32cd" points="89.7633,-490.031 80.1232,-494.426 90.4002,-497.002 89.7633,-490.031"/>
<text text-anchor="middle" x="130" y="-495" font-family="Helvetica,sans-Serif" font-size="10.00"> myCustom</text>
</g>
<!-- Node28 -->
<g id="node28" class="node"><title>Node28</title>
<polygon fill="white" stroke="#bfbfbf" points="19.5,-450.5 19.5,-469.5 60.5,-469.5 60.5,-450.5 19.5,-450.5"/>
<text text-anchor="middle" x="40" y="-457.5" font-family="Helvetica,sans-Serif" font-size="10.00">Color</text>
</g>
<!-- Node28&#45;&gt;Node26 -->
<g id="edge31" class="edge"><title>Node28&#45;&gt;Node26</title>
<path fill="none" stroke="#9a32cd" stroke-dasharray="5,2" d="M70.5888,-462.703C108.944,-466.206 175.648,-472.3 215.725,-475.96"/>
<polygon fill="#9a32cd" stroke="#9a32cd" points="70.8451,-459.212 60.5681,-461.787 70.2083,-466.183 70.8451,-459.212"/>
<text text-anchor="middle" x="130" y="-473" font-family="Helvetica,sans-Serif" font-size="10.00"> myLineColor</text>
</g>
<!-- Node29 -->
<g id="node29" class="node"><title>Node29</title>
<polygon fill="white" stroke="#bfbfbf" points="226.5,-387.5 226.5,-406.5 273.5,-406.5 273.5,-387.5 226.5,-387.5"/>
<text text-anchor="middle" x="250" y="-394.5" font-family="Helvetica,sans-Serif" font-size="10.00">Image</text>
</g>
<!-- Node29&#45;&gt;Node22 -->
<g id="edge32" class="edge"><title>Node29&#45;&gt;Node22</title>
<path fill="none" stroke="#9a32cd" stroke-dasharray="5,2" d="M283.835,-396.575C329.654,-395.338 409.671,-390.634 432,-373 449.555,-359.137 433.15,-340.711 450,-326 462.078,-315.455 478.91,-310.483 494.103,-308.233"/>
<polygon fill="#9a32cd" stroke="#9a32cd" points="283.711,-393.077 273.794,-396.806 283.871,-400.075 283.711,-393.077"/>
<text text-anchor="middle" x="385" y="-407" font-family="Helvetica,sans-Serif" font-size="10.00"> myDefaultOn</text>
<text text-anchor="middle" x="385" y="-396" font-family="Helvetica,sans-Serif" font-size="10.00">myDefaultOff</text>
</g>
<!-- Node30 -->
<g id="node30" class="node"><title>Node30</title>
<polygon fill="white" stroke="#bfbfbf" points="227,-340.5 227,-359.5 273,-359.5 273,-340.5 227,-340.5"/>
<text text-anchor="middle" x="250" y="-347.5" font-family="Helvetica,sans-Serif" font-size="10.00">Group</text>
</g>
<!-- Node30&#45;&gt;Node22 -->
<g id="edge33" class="edge"><title>Node30&#45;&gt;Node22</title>
<path fill="none" stroke="#9a32cd" stroke-dasharray="5,2" d="M283.533,-345.004C336.003,-336.946 438.989,-321.13 494.113,-312.665"/>
<polygon fill="#9a32cd" stroke="#9a32cd" points="282.793,-341.576 273.44,-346.554 283.856,-348.495 282.793,-341.576"/>
<text text-anchor="middle" x="385" y="-361" font-family="Helvetica,sans-Serif" font-size="10.00"> myLines</text>
<text text-anchor="middle" x="385" y="-350" font-family="Helvetica,sans-Serif" font-size="10.00">myStamps</text>
<text text-anchor="middle" x="385" y="-339" font-family="Helvetica,sans-Serif" font-size="10.00">myDrawing</text>
</g>
<!-- Node31 -->
<g id="node31" class="node"><title>Node31</title>
<polygon fill="white" stroke="#bfbfbf" points="180,-302.5 180,-321.5 320,-321.5 320,-302.5 180,-302.5"/>
<text text-anchor="middle" x="250" y="-309.5" font-family="Helvetica,sans-Serif" font-size="10.00">ObservableList&lt; Image &gt;</text>
</g>
<!-- Node31&#45;&gt;Node22 -->
<g id="edge34" class="edge"><title>Node31&#45;&gt;Node22</title>
<path fill="none" stroke="#9a32cd" stroke-dasharray="5,2" d="M330.356,-308.217C332.934,-308.137 335.487,-308.064 338,-308 392.432,-306.608 455.526,-306.58 494.353,-306.746"/>
<polygon fill="#9a32cd" stroke="#9a32cd" points="330.198,-304.72 320.323,-308.558 330.436,-311.716 330.198,-304.72"/>
<text text-anchor="middle" x="385" y="-311" font-family="Helvetica,sans-Serif" font-size="10.00"> myTurtleShapes</text>
</g>
<!-- Node32 -->
<g id="node32" class="node"><title>Node32</title>
<polygon fill="white" stroke="#bfbfbf" points="450.5,-202.5 450.5,-221.5 613.5,-221.5 613.5,-202.5 450.5,-202.5"/>
<text text-anchor="middle" x="532" y="-209.5" font-family="Helvetica,sans-Serif" font-size="10.00">Map&lt; String, model.Feature &gt;</text>
</g>
<!-- Node32&#45;&gt;Node16 -->
<g id="edge36" class="edge"><title>Node32&#45;&gt;Node16</title>
<path fill="none" stroke="#9a32cd" stroke-dasharray="5,2" d="M623.967,-208.174C646.308,-208.443 670.096,-209.753 692,-213 711.006,-215.818 731.771,-222.036 747.518,-227.437"/>
<polygon fill="#9a32cd" stroke="#9a32cd" points="623.835,-204.673 613.817,-208.121 623.798,-211.673 623.835,-204.673"/>
<text text-anchor="middle" x="662" y="-216" font-family="Helvetica,sans-Serif" font-size="10.00"> myFeatures</text>
</g>
<!-- Node33&#45;&gt;Node12 -->
<g id="edge37" class="edge"><title>Node33&#45;&gt;Node12</title>
<path fill="none" stroke="#9a32cd" stroke-dasharray="5,2" d="M442.568,-46C498.164,-46 585.424,-46 661,-46 661,-46 661,-46 1042,-46 1078.32,-46 1176.76,-91.0923 1219.15,-111.349"/>
<polygon fill="#9a32cd" stroke="#9a32cd" points="442.224,-42.5001 432.224,-46 442.224,-49.5001 442.224,-42.5001"/>
<text text-anchor="middle" x="774" y="-49" font-family="Helvetica,sans-Serif" font-size="10.00"> myTokenizer</text>
</g>
<!-- Node34 -->
<g id="node34" class="node"><title>Node34</title>
<polygon fill="white" stroke="#bfbfbf" points="1394.5,-228.5 1394.5,-247.5 1443.5,-247.5 1443.5,-228.5 1394.5,-228.5"/>
<text text-anchor="middle" x="1419" y="-235.5" font-family="Helvetica,sans-Serif" font-size="10.00">Button</text>
</g>
<!-- Node34&#45;&gt;Node6 -->
<g id="edge40" class="edge"><title>Node34&#45;&gt;Node6</title>
<path fill="none" stroke="#9a32cd" stroke-dasharray="5,2" d="M1453.71,-236.466C1485.42,-235.537 1534.14,-235.438 1576,-241 1585.05,-242.202 1594.7,-244.26 1603.56,-246.472"/>
<polygon fill="#9a32cd" stroke="#9a32cd" points="1453.52,-232.97 1443.65,-236.805 1453.76,-239.966 1453.52,-232.97"/>
<text text-anchor="middle" x="1533" y="-244" font-family="Helvetica,sans-Serif" font-size="10.00"> mySubmitButton</text>
</g>
<!-- Node35 -->
<g id="node35" class="node"><title>Node35</title>
<polygon fill="white" stroke="#bfbfbf" points="1390,-190.5 1390,-209.5 1448,-209.5 1448,-190.5 1390,-190.5"/>
<text text-anchor="middle" x="1419" y="-197.5" font-family="Helvetica,sans-Serif" font-size="10.00">TextArea</text>
</g>
<!-- Node35&#45;&gt;Node6 -->
<g id="edge42" class="edge"><title>Node35&#45;&gt;Node6</title>
<path fill="none" stroke="#9a32cd" stroke-dasharray="5,2" d="M1458.45,-200.554C1490.65,-202.041 1537.41,-206.611 1576,-220 1593.67,-226.132 1611.8,-237.914 1623.43,-246.329"/>
<polygon fill="#9a32cd" stroke="#9a32cd" points="1458.25,-197.044 1448.12,-200.16 1457.98,-204.039 1458.25,-197.044"/>
<text text-anchor="middle" x="1533" y="-223" font-family="Helvetica,sans-Serif" font-size="10.00"> myInput</text>
</g>
<!-- Node36 -->
<g id="node36" class="node"><title>Node36</title>
<polygon fill="white" stroke="#bfbfbf" points="1398,-152.5 1398,-171.5 1440,-171.5 1440,-152.5 1398,-152.5"/>
<text text-anchor="middle" x="1419" y="-159.5" font-family="Helvetica,sans-Serif" font-size="10.00">HBox</text>
</g>
<!-- Node36&#45;&gt;Node6 -->
<g id="edge43" class="edge"><title>Node36&#45;&gt;Node6</title>
<path fill="none" stroke="#9a32cd" stroke-dasharray="5,2" d="M1450.46,-161.194C1483.41,-161.607 1536.52,-166.101 1576,-188 1601.33,-202.053 1621.25,-231.034 1630.44,-246.224"/>
<polygon fill="#9a32cd" stroke="#9a32cd" points="1450.1,-157.694 1440.1,-161.191 1450.1,-164.694 1450.1,-157.694"/>
<text text-anchor="middle" x="1533" y="-191" font-family="Helvetica,sans-Serif" font-size="10.00"> myView</text>
</g>
</g>
</svg>
