<?xml version="1.0" encoding="UTF-8" standalone="no"?>
<!DOCTYPE svg PUBLIC "-//W3C//DTD SVG 1.1//EN"
 "http://www.w3.org/Graphics/SVG/1.1/DTD/svg11.dtd">
<!-- Generated by graphviz version 2.36.0 (20140111.2315)
 -->
<!-- Title: model.TurtlesList.addTurtle Pages: 1 -->
<svg width="336pt" height="66pt"
 viewBox="0.00 0.00 336.00 66.00" xmlns="http://www.w3.org/2000/svg" xmlns:xlink="http://www.w3.org/1999/xlink">
<g id="graph0" class="graph" transform="scale(1 1) rotate(0) translate(4 62)">
<title>model.TurtlesList.addTurtle</title>
<polygon fill="white" stroke="none" points="-4,4 -4,-62 332,-62 332,4 -4,4"/>
<!-- Node1 -->
<g id="node1" class="node"><title>Node1</title>
<polygon fill="#bfbfbf" stroke="black" points="0.5,-19.5 0.5,-38.5 143.5,-38.5 143.5,-19.5 0.5,-19.5"/>
<text text-anchor="middle" x="72" y="-26.5" font-family="Helvetica,sans-Serif" font-size="10.00">model.TurtlesList.addTurtle</text>
</g>
<!-- Node2 -->
<g id="node2" class="node"><title>Node2</title>
<g id="a_node2"><a xlink:href="../../df/db7/classmodel_1_1_turtles_list.html#a331353c4ac4cf8e9a3d1a8ca80f0c76a" target="_top" xlink:title="model.TurtlesList.clear">
<polygon fill="white" stroke="black" points="192.5,-38.5 192.5,-57.5 315.5,-57.5 315.5,-38.5 192.5,-38.5"/>
<text text-anchor="middle" x="254" y="-45.5" font-family="Helvetica,sans-Serif" font-size="10.00">model.TurtlesList.clear</text>
</a>
</g>
</g>
<!-- Node1&#45;&gt;Node2 -->
<g id="edge1" class="edge"><title>Node1&#45;&gt;Node2</title>
<path fill="none" stroke="midnightblue" d="M153.942,-37.5438C166.9,-38.9117 180.112,-40.3063 192.487,-41.6126"/>
<polygon fill="midnightblue" stroke="midnightblue" points="153.936,-34.0239 143.624,-36.4548 153.201,-40.9852 153.936,-34.0239"/>
</g>
<!-- Node3 -->
<g id="node3" class="node"><title>Node3</title>
<g id="a_node3"><a xlink:href="../../df/db7/classmodel_1_1_turtles_list.html#a7570e98d09b85c201289b741caf8acfa" target="_top" xlink:title="model.TurtlesList.TurtlesList">
<polygon fill="white" stroke="black" points="180.5,-0.5 180.5,-19.5 327.5,-19.5 327.5,-0.5 180.5,-0.5"/>
<text text-anchor="middle" x="254" y="-7.5" font-family="Helvetica,sans-Serif" font-size="10.00">model.TurtlesList.TurtlesList</text>
</a>
</g>
</g>
<!-- Node1&#45;&gt;Node3 -->
<g id="edge2" class="edge"><title>Node1&#45;&gt;Node3</title>
<path fill="none" stroke="midnightblue" d="M153.571,-20.4953C162.444,-19.5587 171.441,-18.609 180.211,-17.6833"/>
<polygon fill="midnightblue" stroke="midnightblue" points="153.201,-17.0148 143.624,-21.5452 153.936,-23.9761 153.201,-17.0148"/>
</g>
</g>
</svg>
