<?xml version="1.0" encoding="UTF-8" standalone="no"?>
<!DOCTYPE svg PUBLIC "-//W3C//DTD SVG 1.1//EN"
 "http://www.w3.org/Graphics/SVG/1.1/DTD/svg11.dtd">
<!-- Generated by graphviz version 2.36.0 (20140111.2315)
 -->
<!-- Title: model.TurtlesList.setActive Pages: 1 -->
<svg width="604pt" height="66pt"
 viewBox="0.00 0.00 604.00 66.00" xmlns="http://www.w3.org/2000/svg" xmlns:xlink="http://www.w3.org/1999/xlink">
<g id="graph0" class="graph" transform="scale(1 1) rotate(0) translate(4 62)">
<title>model.TurtlesList.setActive</title>
<polygon fill="white" stroke="none" points="-4,4 -4,-62 600,-62 600,4 -4,4"/>
<!-- Node1 -->
<g id="node1" class="node"><title>Node1</title>
<polygon fill="#bfbfbf" stroke="black" points="0,-19.5 0,-38.5 144,-38.5 144,-19.5 0,-19.5"/>
<text text-anchor="middle" x="72" y="-26.5" font-family="Helvetica,sans-Serif" font-size="10.00">model.TurtlesList.setActive</text>
</g>
<!-- Node2 -->
<g id="node2" class="node"><title>Node2</title>
<g id="a_node2"><a xlink:href="../../df/db7/classmodel_1_1_turtles_list.html#aa87ee4e1a6d9318419946ad23a9fbed4" target="_top" xlink:title="model.TurtlesList.addScope">
<polygon fill="white" stroke="black" points="200,-38.5 200,-57.5 348,-57.5 348,-38.5 200,-38.5"/>
<text text-anchor="middle" x="274" y="-45.5" font-family="Helvetica,sans-Serif" font-size="10.00">model.TurtlesList.addScope</text>
</a>
</g>
</g>
<!-- Node1&#45;&gt;Node2 -->
<g id="edge1" class="edge"><title>Node1&#45;&gt;Node2</title>
<path fill="none" stroke="midnightblue" d="M154.372,-36.7303C169.403,-38.1583 185.017,-39.6417 199.789,-41.045"/>
<polygon fill="midnightblue" stroke="midnightblue" points="154.362,-33.2137 144.076,-35.7522 153.7,-40.1823 154.362,-33.2137"/>
</g>
<!-- Node4 -->
<g id="node4" class="node"><title>Node4</title>
<g id="a_node4"><a xlink:href="../../d6/d75/classinstructions_1_1commands_1_1_tell.html#a662583c3632eee012239f2b7fda7ef9c" target="_top" xlink:title="instructions.commands.Tell.execute">
<polygon fill="white" stroke="black" points="180,-0.5 180,-19.5 368,-19.5 368,-0.5 180,-0.5"/>
<text text-anchor="middle" x="274" y="-7.5" font-family="Helvetica,sans-Serif" font-size="10.00">instructions.commands.Tell.execute</text>
</a>
</g>
</g>
<!-- Node1&#45;&gt;Node4 -->
<g id="edge3" class="edge"><title>Node1&#45;&gt;Node4</title>
<path fill="none" stroke="midnightblue" d="M154.229,-21.2832C162.641,-20.4841 171.238,-19.6674 179.768,-18.857"/>
<polygon fill="midnightblue" stroke="midnightblue" points="153.7,-17.8177 144.076,-22.2478 154.362,-24.7863 153.7,-17.8177"/>
</g>
<!-- Node3 -->
<g id="node3" class="node"><title>Node3</title>
<g id="a_node3"><a xlink:href="../../d1/dd6/classinstructions_1_1commands_1_1_ask.html#a16dcfbc02bf650551f9cfc63e46ee433" target="_top" xlink:title="instructions.commands.Ask.execute">
<polygon fill="white" stroke="black" points="404.5,-38.5 404.5,-57.5 595.5,-57.5 595.5,-38.5 404.5,-38.5"/>
<text text-anchor="middle" x="500" y="-45.5" font-family="Helvetica,sans-Serif" font-size="10.00">instructions.commands.Ask.execute</text>
</a>
</g>
</g>
<!-- Node2&#45;&gt;Node3 -->
<g id="edge2" class="edge"><title>Node2&#45;&gt;Node3</title>
<path fill="none" stroke="midnightblue" d="M358.309,-48C373.34,-48 389.11,-48 404.433,-48"/>
<polygon fill="midnightblue" stroke="midnightblue" points="358.036,-44.5001 348.036,-48 358.036,-51.5001 358.036,-44.5001"/>
</g>
</g>
</svg>
