<?xml version="1.0" encoding="UTF-8" standalone="no"?>
<!DOCTYPE svg PUBLIC "-//W3C//DTD SVG 1.1//EN"
 "http://www.w3.org/Graphics/SVG/1.1/DTD/svg11.dtd">
<!-- Generated by graphviz version 2.36.0 (20140111.2315)
 -->
<!-- Title: instructions.commands.SetPenColor Pages: 1 -->
<svg width="315pt" height="282pt"
 viewBox="0.00 0.00 315.00 282.00" xmlns="http://www.w3.org/2000/svg" xmlns:xlink="http://www.w3.org/1999/xlink">
<g id="graph0" class="graph" transform="scale(1 1) rotate(0) translate(4 278)">
<title>instructions.commands.SetPenColor</title>
<polygon fill="white" stroke="none" points="-4,4 -4,-278 311,-278 311,4 -4,4"/>
<!-- Node1 -->
<g id="node1" class="node"><title>Node1</title>
<polygon fill="#bfbfbf" stroke="black" points="109.5,-1 109.5,-31 258.5,-31 258.5,-1 109.5,-1"/>
<text text-anchor="start" x="117.5" y="-19" font-family="Helvetica,sans-Serif" font-size="10.00">instructions.commands.Set</text>
<text text-anchor="middle" x="184" y="-8" font-family="Helvetica,sans-Serif" font-size="10.00">PenColor</text>
</g>
<!-- Node2 -->
<g id="node2" class="node"><title>Node2</title>
<g id="a_node2"><a xlink:href="../../d0/d4c/classinstructions_1_1_unary_instruction.html" target="_top" xlink:title="instructions.UnaryInstruction">
<polygon fill="white" stroke="black" points="107,-70.5 107,-89.5 261,-89.5 261,-70.5 107,-70.5"/>
<text text-anchor="middle" x="184" y="-77.5" font-family="Helvetica,sans-Serif" font-size="10.00">instructions.UnaryInstruction</text>
</a>
</g>
</g>
<!-- Node2&#45;&gt;Node1 -->
<g id="edge1" class="edge"><title>Node2&#45;&gt;Node1</title>
<path fill="none" stroke="midnightblue" d="M184,-60.1826C184,-50.8859 184,-39.8507 184,-31.263"/>
<polygon fill="midnightblue" stroke="midnightblue" points="180.5,-60.3791 184,-70.3792 187.5,-60.3792 180.5,-60.3791"/>
</g>
<!-- Node3 -->
<g id="node3" class="node"><title>Node3</title>
<g id="a_node3"><a xlink:href="../../d9/d85/classinstructions_1_1_parameter_instruction.html" target="_top" xlink:title="instructions.ParameterInstruction">
<polygon fill="white" stroke="black" points="96,-128.5 96,-147.5 272,-147.5 272,-128.5 96,-128.5"/>
<text text-anchor="middle" x="184" y="-135.5" font-family="Helvetica,sans-Serif" font-size="10.00">instructions.ParameterInstruction</text>
</a>
</g>
</g>
<!-- Node3&#45;&gt;Node2 -->
<g id="edge2" class="edge"><title>Node3&#45;&gt;Node2</title>
<path fill="none" stroke="midnightblue" d="M184,-117.953C184,-108.287 184,-97.0312 184,-89.5052"/>
<polygon fill="midnightblue" stroke="midnightblue" points="180.5,-118.25 184,-128.25 187.5,-118.25 180.5,-118.25"/>
</g>
<!-- Node4 -->
<g id="node4" class="node"><title>Node4</title>
<g id="a_node4"><a xlink:href="../../d2/d93/interfaceinstructions_1_1_instruction.html" target="_top" xlink:title="instructions.Instruction">
<polygon fill="white" stroke="black" points="-0.5,-196.5 -0.5,-215.5 124.5,-215.5 124.5,-196.5 -0.5,-196.5"/>
<text text-anchor="middle" x="62" y="-203.5" font-family="Helvetica,sans-Serif" font-size="10.00">instructions.Instruction</text>
</a>
</g>
</g>
<!-- Node4&#45;&gt;Node3 -->
<g id="edge3" class="edge"><title>Node4&#45;&gt;Node3</title>
<path fill="none" stroke="midnightblue" d="M86.9271,-191.515C111.213,-178.377 147.404,-158.798 168.047,-147.63"/>
<polygon fill="midnightblue" stroke="midnightblue" points="85.0794,-188.535 77.9494,-196.372 88.4102,-194.692 85.0794,-188.535"/>
</g>
<!-- Node5 -->
<g id="node5" class="node"><title>Node5</title>
<polygon fill="white" stroke="#bfbfbf" points="26.5,-254.5 26.5,-273.5 97.5,-273.5 97.5,-254.5 26.5,-254.5"/>
<text text-anchor="middle" x="62" y="-261.5" font-family="Helvetica,sans-Serif" font-size="10.00">Serializable</text>
</g>
<!-- Node5&#45;&gt;Node4 -->
<g id="edge4" class="edge"><title>Node5&#45;&gt;Node4</title>
<path fill="none" stroke="midnightblue" d="M62,-243.953C62,-234.287 62,-223.031 62,-215.505"/>
<polygon fill="midnightblue" stroke="midnightblue" points="58.5001,-244.25 62,-254.25 65.5001,-244.25 58.5001,-244.25"/>
</g>
<!-- Node6 -->
<g id="node6" class="node"><title>Node6</title>
<polygon fill="white" stroke="#bfbfbf" points="143,-196.5 143,-215.5 307,-215.5 307,-196.5 143,-196.5"/>
<text text-anchor="middle" x="225" y="-203.5" font-family="Helvetica,sans-Serif" font-size="10.00">List&lt; instructions.Instruction &gt;</text>
</g>
<!-- Node6&#45;&gt;Node3 -->
<g id="edge5" class="edge"><title>Node6&#45;&gt;Node3</title>
<path fill="none" stroke="#9a32cd" stroke-dasharray="5,2" d="M214.168,-187.563C206.228,-174.781 195.778,-157.96 189.492,-147.841"/>
<polygon fill="#9a32cd" stroke="#9a32cd" points="211.39,-189.724 219.64,-196.372 217.336,-186.03 211.39,-189.724"/>
<text text-anchor="middle" x="236.5" y="-169.5" font-family="Helvetica,sans-Serif" font-size="10.00"> myParams</text>
</g>
</g>
</svg>
