<?xml version="1.0" encoding="UTF-8" standalone="no"?>
<!DOCTYPE svg PUBLIC "-//W3C//DTD SVG 1.1//EN"
 "http://www.w3.org/Graphics/SVG/1.1/DTD/svg11.dtd">
<!-- Generated by graphviz version 2.36.0 (20140111.2315)
 -->
<!-- Title: model.VariablesList Pages: 1 -->
<svg width="376pt" height="166pt"
 viewBox="0.00 0.00 376.00 166.00" xmlns="http://www.w3.org/2000/svg" xmlns:xlink="http://www.w3.org/1999/xlink">
<g id="graph0" class="graph" transform="scale(1 1) rotate(0) translate(4 162)">
<title>model.VariablesList</title>
<polygon fill="white" stroke="none" points="-4,4 -4,-162 372,-162 372,4 -4,4"/>
<!-- Node1 -->
<g id="node1" class="node"><title>Node1</title>
<polygon fill="#bfbfbf" stroke="black" points="108,-0.5 108,-19.5 218,-19.5 218,-0.5 108,-0.5"/>
<text text-anchor="middle" x="163" y="-7.5" font-family="Helvetica,sans-Serif" font-size="10.00">model.VariablesList</text>
</g>
<!-- Node2 -->
<g id="node2" class="node"><title>Node2</title>
<g id="a_node2"><a xlink:href="../../d1/d69/interfacemodel_1_1_feature.html" target="_top" xlink:title="model.Feature">
<polygon fill="white" stroke="black" points="0,-74.5 0,-93.5 86,-93.5 86,-74.5 0,-74.5"/>
<text text-anchor="middle" x="43" y="-81.5" font-family="Helvetica,sans-Serif" font-size="10.00">model.Feature</text>
</a>
</g>
</g>
<!-- Node2&#45;&gt;Node1 -->
<g id="edge1" class="edge"><title>Node2&#45;&gt;Node1</title>
<path fill="none" stroke="midnightblue" d="M65.8782,-69.2731C90.3243,-54.6054 128.313,-31.8119 148.782,-19.531"/>
<polygon fill="midnightblue" stroke="midnightblue" points="64.011,-66.3117 57.2368,-74.4579 67.6125,-72.3141 64.011,-66.3117"/>
</g>
<!-- Node3 -->
<g id="node3" class="node"><title>Node3</title>
<polygon fill="white" stroke="#bfbfbf" points="7.5,-138.5 7.5,-157.5 78.5,-157.5 78.5,-138.5 7.5,-138.5"/>
<text text-anchor="middle" x="43" y="-145.5" font-family="Helvetica,sans-Serif" font-size="10.00">Serializable</text>
</g>
<!-- Node3&#45;&gt;Node2 -->
<g id="edge2" class="edge"><title>Node3&#45;&gt;Node2</title>
<path fill="none" stroke="midnightblue" d="M43,-128.037C43,-116.53 43,-102.403 43,-93.5476"/>
<polygon fill="midnightblue" stroke="midnightblue" points="39.5001,-128.379 43,-138.379 46.5001,-128.379 39.5001,-128.379"/>
</g>
<!-- Node4 -->
<g id="node4" class="node"><title>Node4</title>
<polygon fill="white" stroke="#bfbfbf" points="104,-69 104,-99 222,-99 222,-69 104,-69"/>
<text text-anchor="start" x="112" y="-87" font-family="Helvetica,sans-Serif" font-size="10.00">Stack&lt; Map&lt; String,</text>
<text text-anchor="middle" x="163" y="-76" font-family="Helvetica,sans-Serif" font-size="10.00"> Double &gt; &gt;</text>
</g>
<!-- Node4&#45;&gt;Node1 -->
<g id="edge3" class="edge"><title>Node4&#45;&gt;Node1</title>
<path fill="none" stroke="#9a32cd" stroke-dasharray="5,2" d="M163,-58.6883C163,-45.2526 163,-29.3805 163,-19.7589"/>
<polygon fill="#9a32cd" stroke="#9a32cd" points="159.5,-58.7751 163,-68.7751 166.5,-58.7752 159.5,-58.7751"/>
<text text-anchor="middle" x="187.5" y="-41.5" font-family="Helvetica,sans-Serif" font-size="10.00"> myScope</text>
</g>
<!-- Node5 -->
<g id="node5" class="node"><title>Node5</title>
<polygon fill="white" stroke="#bfbfbf" points="240,-74.5 240,-93.5 368,-93.5 368,-74.5 240,-74.5"/>
<text text-anchor="middle" x="304" y="-81.5" font-family="Helvetica,sans-Serif" font-size="10.00">Map&lt; String, Double &gt;</text>
</g>
<!-- Node5&#45;&gt;Node1 -->
<g id="edge4" class="edge"><title>Node5&#45;&gt;Node1</title>
<path fill="none" stroke="#9a32cd" stroke-dasharray="5,2" d="M278.086,-69.7355C260.561,-60.768 236.891,-48.6627 216,-38 203.859,-31.8032 190.147,-24.8184 179.713,-19.5057"/>
<polygon fill="#9a32cd" stroke="#9a32cd" points="276.637,-72.9256 287.134,-74.3655 279.826,-66.6942 276.637,-72.9256"/>
<text text-anchor="middle" x="268" y="-41.5" font-family="Helvetica,sans-Serif" font-size="10.00"> myVariables</text>
</g>
</g>
</svg>
