<?xml version="1.0" encoding="UTF-8" standalone="no"?>
<!DOCTYPE svg PUBLIC "-//W3C//DTD SVG 1.1//EN"
 "http://www.w3.org/Graphics/SVG/1.1/DTD/svg11.dtd">
<!-- Generated by graphviz version 2.36.0 (20140111.2315)
 -->
<!-- Title: instructions.commands.ClearStamps.execute Pages: 1 -->
<svg width="348pt" height="77pt"
 viewBox="0.00 0.00 348.00 77.00" xmlns="http://www.w3.org/2000/svg" xmlns:xlink="http://www.w3.org/1999/xlink">
<g id="graph0" class="graph" transform="scale(1 1) rotate(0) translate(4 73)">
<title>instructions.commands.ClearStamps.execute</title>
<polygon fill="white" stroke="none" points="-4,4 -4,-73 344,-73 344,4 -4,4"/>
<!-- Node1 -->
<g id="node1" class="node"><title>Node1</title>
<polygon fill="#bfbfbf" stroke="black" points="0.5,-22 0.5,-52 157.5,-52 157.5,-22 0.5,-22"/>
<text text-anchor="start" x="8.5" y="-40" font-family="Helvetica,sans-Serif" font-size="10.00">instructions.commands.Clear</text>
<text text-anchor="middle" x="79" y="-29" font-family="Helvetica,sans-Serif" font-size="10.00">Stamps.execute</text>
</g>
<!-- Node2 -->
<g id="node2" class="node"><title>Node2</title>
<g id="a_node2"><a xlink:href="../../d6/d34/classmodel_1_1_turtle.html#ac2303b3049b56a9156491059230a948e" target="_top" xlink:title="model.Turtle.clearStamp">
<polygon fill="white" stroke="black" points="200,-49.5 200,-68.5 334,-68.5 334,-49.5 200,-49.5"/>
<text text-anchor="middle" x="267" y="-56.5" font-family="Helvetica,sans-Serif" font-size="10.00">model.Turtle.clearStamp</text>
</a>
</g>
</g>
<!-- Node1&#45;&gt;Node2 -->
<g id="edge1" class="edge"><title>Node1&#45;&gt;Node2</title>
<path fill="none" stroke="midnightblue" d="M157.534,-46.1707C168.185,-47.4305 179.114,-48.7232 189.742,-49.9803"/>
<polygon fill="midnightblue" stroke="midnightblue" points="189.478,-53.4734 199.82,-51.1723 190.301,-46.5218 189.478,-53.4734"/>
</g>
<!-- Node3 -->
<g id="node3" class="node"><title>Node3</title>
<g id="a_node3"><a xlink:href="../../d8/d36/classmodel_1_1_observable_data.html#aa585e00721a74cba9ab459079945e15b" target="_top" xlink:title="model.ObservableData.get\lTurtle">
<polygon fill="white" stroke="black" points="194,-0 194,-30 340,-30 340,-0 194,-0"/>
<text text-anchor="start" x="202" y="-18" font-family="Helvetica,sans-Serif" font-size="10.00">model.ObservableData.get</text>
<text text-anchor="middle" x="267" y="-7" font-family="Helvetica,sans-Serif" font-size="10.00">Turtle</text>
</a>
</g>
</g>
<!-- Node1&#45;&gt;Node3 -->
<g id="edge2" class="edge"><title>Node1&#45;&gt;Node3</title>
<path fill="none" stroke="midnightblue" d="M157.534,-27.8293C166.203,-26.804 175.056,-25.7568 183.782,-24.7247"/>
<polygon fill="midnightblue" stroke="midnightblue" points="184.427,-28.1729 193.947,-23.5224 183.605,-21.2214 184.427,-28.1729"/>
</g>
</g>
</svg>
