<?xml version="1.0" encoding="UTF-8" standalone="no"?>
<!DOCTYPE svg PUBLIC "-//W3C//DTD SVG 1.1//EN"
 "http://www.w3.org/Graphics/SVG/1.1/DTD/svg11.dtd">
<!-- Generated by graphviz version 2.36.0 (20140111.2315)
 -->
<!-- Title: instructions.commands.ShowTurtle.execute Pages: 1 -->
<svg width="348pt" height="154pt"
 viewBox="0.00 0.00 348.00 154.00" xmlns="http://www.w3.org/2000/svg" xmlns:xlink="http://www.w3.org/1999/xlink">
<g id="graph0" class="graph" transform="scale(1 1) rotate(0) translate(4 150)">
<title>instructions.commands.ShowTurtle.execute</title>
<polygon fill="white" stroke="none" points="-4,4 -4,-150 344,-150 344,4 -4,4"/>
<!-- Node1 -->
<g id="node1" class="node"><title>Node1</title>
<polygon fill="#bfbfbf" stroke="black" points="0,-55 0,-85 158,-85 158,-55 0,-55"/>
<text text-anchor="start" x="8" y="-73" font-family="Helvetica,sans-Serif" font-size="10.00">instructions.commands.Show</text>
<text text-anchor="middle" x="79" y="-62" font-family="Helvetica,sans-Serif" font-size="10.00">Turtle.execute</text>
</g>
<!-- Node2 -->
<g id="node2" class="node"><title>Node2</title>
<g id="a_node2"><a xlink:href="../../d6/d34/classmodel_1_1_turtle.html#a874d4e1cf7547bbbf4f046d1d7b20e6e" target="_top" xlink:title="model.Turtle.getDrawing">
<polygon fill="white" stroke="black" points="201,-126.5 201,-145.5 333,-145.5 333,-126.5 201,-126.5"/>
<text text-anchor="middle" x="267" y="-133.5" font-family="Helvetica,sans-Serif" font-size="10.00">model.Turtle.getDrawing</text>
</a>
</g>
</g>
<!-- Node1&#45;&gt;Node2 -->
<g id="edge1" class="edge"><title>Node1&#45;&gt;Node2</title>
<path fill="none" stroke="midnightblue" d="M114.293,-85.0145C136.73,-94.5443 166.818,-106.773 194,-116 201.86,-118.668 210.289,-121.252 218.512,-123.627"/>
<polygon fill="midnightblue" stroke="midnightblue" points="217.812,-127.066 228.386,-126.412 219.712,-120.329 217.812,-127.066"/>
</g>
<!-- Node3 -->
<g id="node3" class="node"><title>Node3</title>
<g id="a_node3"><a xlink:href="../../d8/d36/classmodel_1_1_observable_data.html#aa585e00721a74cba9ab459079945e15b" target="_top" xlink:title="model.ObservableData.get\lTurtle">
<polygon fill="white" stroke="black" points="194,-77 194,-107 340,-107 340,-77 194,-77"/>
<text text-anchor="start" x="202" y="-95" font-family="Helvetica,sans-Serif" font-size="10.00">model.ObservableData.get</text>
<text text-anchor="middle" x="267" y="-84" font-family="Helvetica,sans-Serif" font-size="10.00">Turtle</text>
</a>
</g>
</g>
<!-- Node1&#45;&gt;Node3 -->
<g id="edge2" class="edge"><title>Node1&#45;&gt;Node3</title>
<path fill="none" stroke="midnightblue" d="M158.072,-79.2344C166.575,-80.2401 175.25,-81.2661 183.8,-82.2774"/>
<polygon fill="midnightblue" stroke="midnightblue" points="183.422,-85.757 193.764,-83.4559 184.244,-78.8054 183.422,-85.757"/>
</g>
<!-- Node4 -->
<g id="node4" class="node"><title>Node4</title>
<g id="a_node4"><a xlink:href="../../d6/d34/classmodel_1_1_turtle.html#a78e4cb5da4bfc50682b9cd4c05cbcbfd" target="_top" xlink:title="model.Turtle.getTurtleImg">
<polygon fill="white" stroke="black" points="198.5,-38.5 198.5,-57.5 335.5,-57.5 335.5,-38.5 198.5,-38.5"/>
<text text-anchor="middle" x="267" y="-45.5" font-family="Helvetica,sans-Serif" font-size="10.00">model.Turtle.getTurtleImg</text>
</a>
</g>
</g>
<!-- Node1&#45;&gt;Node4 -->
<g id="edge3" class="edge"><title>Node1&#45;&gt;Node4</title>
<path fill="none" stroke="midnightblue" d="M158.072,-60.7656C168.138,-59.5751 178.444,-58.3561 188.5,-57.1666"/>
<polygon fill="midnightblue" stroke="midnightblue" points="188.936,-60.6396 198.456,-55.9891 188.114,-53.688 188.936,-60.6396"/>
</g>
<!-- Node5 -->
<g id="node5" class="node"><title>Node5</title>
<g id="a_node5"><a xlink:href="../../d6/d34/classmodel_1_1_turtle.html#a772aad8bba7b5bc7bd3e95408478324f" target="_top" xlink:title="model.Turtle.setVisible">
<polygon fill="white" stroke="black" points="205,-0.5 205,-19.5 329,-19.5 329,-0.5 205,-0.5"/>
<text text-anchor="middle" x="267" y="-7.5" font-family="Helvetica,sans-Serif" font-size="10.00">model.Turtle.setVisible</text>
</a>
</g>
</g>
<!-- Node1&#45;&gt;Node5 -->
<g id="edge4" class="edge"><title>Node1&#45;&gt;Node5</title>
<path fill="none" stroke="midnightblue" d="M119.283,-54.915C141.128,-46.7686 168.896,-36.8103 194,-29 201.551,-26.6507 209.605,-24.3392 217.489,-22.1817"/>
<polygon fill="midnightblue" stroke="midnightblue" points="218.584,-25.5118 227.336,-19.5399 216.77,-18.7509 218.584,-25.5118"/>
</g>
</g>
</svg>
