<?xml version="1.0" encoding="UTF-8" standalone="no"?>
<!DOCTYPE svg PUBLIC "-//W3C//DTD SVG 1.1//EN"
 "http://www.w3.org/Graphics/SVG/1.1/DTD/svg11.dtd">
<!-- Generated by graphviz version 2.36.0 (20140111.2315)
 -->
<!-- Title: view.SlogoView Pages: 1 -->
<svg width="221pt" height="96pt"
 viewBox="0.00 0.00 221.00 96.00" xmlns="http://www.w3.org/2000/svg" xmlns:xlink="http://www.w3.org/1999/xlink">
<g id="graph0" class="graph" transform="scale(1 1) rotate(0) translate(4 92)">
<title>view.SlogoView</title>
<polygon fill="white" stroke="none" points="-4,4 -4,-92 217,-92 217,4 -4,4"/>
<!-- Node1 -->
<g id="node1" class="node"><title>Node1</title>
<polygon fill="#bfbfbf" stroke="black" points="51,-0.5 51,-19.5 139,-19.5 139,-0.5 51,-0.5"/>
<text text-anchor="middle" x="95" y="-7.5" font-family="Helvetica,sans-Serif" font-size="10.00">view.SlogoView</text>
</g>
<!-- Node2 -->
<g id="node2" class="node"><title>Node2</title>
<polygon fill="white" stroke="#bfbfbf" points="-0.5,-68.5 -0.5,-87.5 46.5,-87.5 46.5,-68.5 -0.5,-68.5"/>
<text text-anchor="middle" x="23" y="-75.5" font-family="Helvetica,sans-Serif" font-size="10.00">Scene</text>
</g>
<!-- Node2&#45;&gt;Node1 -->
<g id="edge1" class="edge"><title>Node2&#45;&gt;Node1</title>
<path fill="none" stroke="#9a32cd" stroke-dasharray="5,2" d="M29.0352,-58.6861C32.0671,-51.578 36.3262,-43.7759 42,-38 49.8879,-29.9702 60.6671,-23.8835 70.4455,-19.5409"/>
<polygon fill="#9a32cd" stroke="#9a32cd" points="25.6695,-57.6943 25.4491,-68.2869 32.227,-60.1437 25.6695,-57.6943"/>
<text text-anchor="middle" x="66.5" y="-41.5" font-family="Helvetica,sans-Serif" font-size="10.00"> myScene</text>
</g>
<!-- Node3 -->
<g id="node3" class="node"><title>Node3</title>
<polygon fill="white" stroke="#bfbfbf" points="67,-68.5 67,-87.5 123,-87.5 123,-68.5 67,-68.5"/>
<text text-anchor="middle" x="95" y="-75.5" font-family="Helvetica,sans-Serif" font-size="10.00">TabPane</text>
</g>
<!-- Node3&#45;&gt;Node1 -->
<g id="edge2" class="edge"><title>Node3&#45;&gt;Node1</title>
<path fill="none" stroke="#9a32cd" stroke-dasharray="5,2" d="M95,-58.0413C95,-45.4724 95,-29.5631 95,-19.8411"/>
<polygon fill="#9a32cd" stroke="#9a32cd" points="91.5001,-58.3716 95,-68.3717 98.5001,-58.3717 91.5001,-58.3716"/>
<text text-anchor="middle" x="115" y="-41.5" font-family="Helvetica,sans-Serif" font-size="10.00"> myTabs</text>
</g>
<!-- Node4 -->
<g id="node4" class="node"><title>Node4</title>
<polygon fill="white" stroke="#bfbfbf" points="141,-68.5 141,-87.5 213,-87.5 213,-68.5 141,-68.5"/>
<text text-anchor="middle" x="177" y="-75.5" font-family="Helvetica,sans-Serif" font-size="10.00">BorderPane</text>
</g>
<!-- Node4&#45;&gt;Node1 -->
<g id="edge3" class="edge"><title>Node4&#45;&gt;Node1</title>
<path fill="none" stroke="#9a32cd" stroke-dasharray="5,2" d="M162.587,-60.4405C155.809,-53.1342 147.385,-44.7035 139,-38 130.319,-31.0606 119.725,-24.509 111.107,-19.5977"/>
<polygon fill="#9a32cd" stroke="#9a32cd" points="160.396,-63.2379 169.686,-68.3302 165.599,-58.5556 160.396,-63.2379"/>
<text text-anchor="middle" x="173" y="-41.5" font-family="Helvetica,sans-Serif" font-size="10.00"> myRoot</text>
</g>
</g>
</svg>
