<?xml version="1.0" encoding="UTF-8" standalone="no"?>
<!DOCTYPE svg PUBLIC "-//W3C//DTD SVG 1.1//EN"
 "http://www.w3.org/Graphics/SVG/1.1/DTD/svg11.dtd">
<!-- Generated by graphviz version 2.36.0 (20140111.2315)
 -->
<!-- Title: instructions.commands.Backward.execute Pages: 1 -->
<svg width="950pt" height="135pt"
 viewBox="0.00 0.00 950.00 135.00" xmlns="http://www.w3.org/2000/svg" xmlns:xlink="http://www.w3.org/1999/xlink">
<g id="graph0" class="graph" transform="scale(1 1) rotate(0) translate(4 131)">
<title>instructions.commands.Backward.execute</title>
<polygon fill="white" stroke="none" points="-4,4 -4,-131 946,-131 946,4 -4,4"/>
<!-- Node1 -->
<g id="node1" class="node"><title>Node1</title>
<polygon fill="#bfbfbf" stroke="black" points="0.5,-63.5 0.5,-82.5 219.5,-82.5 219.5,-63.5 0.5,-63.5"/>
<text text-anchor="middle" x="110" y="-70.5" font-family="Helvetica,sans-Serif" font-size="10.00">instructions.commands.Backward.execute</text>
</g>
<!-- Node2 -->
<g id="node2" class="node"><title>Node2</title>
<g id="a_node2"><a xlink:href="../../d2/d93/interfaceinstructions_1_1_instruction.html#ab47846ec32fac6e514e5ab7fe4db0254" target="_top" xlink:title="instructions.Instruction.execute">
<polygon fill="white" stroke="black" points="256.5,-85.5 256.5,-104.5 423.5,-104.5 423.5,-85.5 256.5,-85.5"/>
<text text-anchor="middle" x="340" y="-92.5" font-family="Helvetica,sans-Serif" font-size="10.00">instructions.Instruction.execute</text>
</a>
</g>
</g>
<!-- Node1&#45;&gt;Node2 -->
<g id="edge1" class="edge"><title>Node1&#45;&gt;Node2</title>
<path fill="none" stroke="midnightblue" d="M209.678,-82.5216C221.807,-83.6919 234.172,-84.885 246.21,-86.0465"/>
<polygon fill="midnightblue" stroke="midnightblue" points="245.942,-89.5369 256.232,-87.0136 246.615,-82.5693 245.942,-89.5369"/>
</g>
<!-- Node3 -->
<g id="node3" class="node"><title>Node3</title>
<g id="a_node3"><a xlink:href="../../d6/d34/classmodel_1_1_turtle.html#ac03d013ad4b739b9d269ba8af8119ddb" target="_top" xlink:title="model.Turtle.moveTurtleAnd\lDrawLine">
<polygon fill="white" stroke="black" points="265.5,-36 265.5,-66 414.5,-66 414.5,-36 265.5,-36"/>
<text text-anchor="start" x="273.5" y="-54" font-family="Helvetica,sans-Serif" font-size="10.00">model.Turtle.moveTurtleAnd</text>
<text text-anchor="middle" x="340" y="-43" font-family="Helvetica,sans-Serif" font-size="10.00">DrawLine</text>
</a>
</g>
</g>
<!-- Node1&#45;&gt;Node3 -->
<g id="edge2" class="edge"><title>Node1&#45;&gt;Node3</title>
<path fill="none" stroke="midnightblue" d="M209.678,-63.4784C224.835,-62.0159 240.359,-60.5179 255.154,-59.0904"/>
<polygon fill="midnightblue" stroke="midnightblue" points="255.649,-62.559 265.266,-58.1146 254.976,-55.5914 255.649,-62.559"/>
</g>
<!-- Node4 -->
<g id="node4" class="node"><title>Node4</title>
<g id="a_node4"><a xlink:href="../../de/ded/classmodel_1_1_pen.html#ac3ec9470d841cd296e05db47a03596f9" target="_top" xlink:title="model.Pen.drawLine">
<polygon fill="white" stroke="black" points="479.5,-107.5 479.5,-126.5 592.5,-126.5 592.5,-107.5 479.5,-107.5"/>
<text text-anchor="middle" x="536" y="-114.5" font-family="Helvetica,sans-Serif" font-size="10.00">model.Pen.drawLine</text>
</a>
</g>
</g>
<!-- Node3&#45;&gt;Node4 -->
<g id="edge3" class="edge"><title>Node3&#45;&gt;Node4</title>
<path fill="none" stroke="midnightblue" d="M397.455,-66.044C406.463,-69.0019 415.582,-72.3381 424,-76 440.986,-83.3889 442.898,-89.8834 460,-97 466.757,-99.812 474.023,-102.331 481.278,-104.555"/>
<polygon fill="midnightblue" stroke="midnightblue" points="480.536,-107.984 491.114,-107.404 482.483,-101.26 480.536,-107.984"/>
</g>
<!-- Node6 -->
<g id="node6" class="node"><title>Node6</title>
<g id="a_node6"><a xlink:href="../../d6/d34/classmodel_1_1_turtle.html#a1f264343c6daebe6a1b07db29b7cbb30" target="_top" xlink:title="model.Turtle.calculateEnd\lCoord">
<polygon fill="white" stroke="black" points="466.5,-58 466.5,-88 605.5,-88 605.5,-58 466.5,-58"/>
<text text-anchor="start" x="474.5" y="-76" font-family="Helvetica,sans-Serif" font-size="10.00">model.Turtle.calculateEnd</text>
<text text-anchor="middle" x="536" y="-65" font-family="Helvetica,sans-Serif" font-size="10.00">Coord</text>
</a>
</g>
</g>
<!-- Node3&#45;&gt;Node6 -->
<g id="edge5" class="edge"><title>Node3&#45;&gt;Node6</title>
<path fill="none" stroke="midnightblue" d="M414.62,-59.3486C428.116,-60.8791 442.254,-62.4824 455.902,-64.0301"/>
<polygon fill="midnightblue" stroke="midnightblue" points="455.893,-67.5515 466.224,-65.2007 456.682,-60.5961 455.893,-67.5515"/>
</g>
<!-- Node7 -->
<g id="node7" class="node"><title>Node7</title>
<g id="a_node7"><a xlink:href="../../d6/d34/classmodel_1_1_turtle.html#abf987ba62d49c24804d43b464f9b7410" target="_top" xlink:title="model.Turtle.setCoordinates">
<polygon fill="white" stroke="black" points="460.5,-19.5 460.5,-38.5 611.5,-38.5 611.5,-19.5 460.5,-19.5"/>
<text text-anchor="middle" x="536" y="-26.5" font-family="Helvetica,sans-Serif" font-size="10.00">model.Turtle.setCoordinates</text>
</a>
</g>
</g>
<!-- Node3&#45;&gt;Node7 -->
<g id="edge6" class="edge"><title>Node3&#45;&gt;Node7</title>
<path fill="none" stroke="midnightblue" d="M414.62,-42.6514C426.344,-41.3219 438.552,-39.9374 450.503,-38.5821"/>
<polygon fill="midnightblue" stroke="midnightblue" points="450.923,-42.057 460.465,-37.4524 450.134,-35.1016 450.923,-42.057"/>
</g>
<!-- Node8 -->
<g id="node8" class="node"><title>Node8</title>
<g id="a_node8"><a xlink:href="../../d6/d34/classmodel_1_1_turtle.html#a138e6be2a3c83aea4ef698bf9e499bcf" target="_top" xlink:title="model.Turtle.setTurtleInfo">
<polygon fill="white" stroke="black" points="648,-0.5 648,-19.5 784,-19.5 784,-0.5 648,-0.5"/>
<text text-anchor="middle" x="716" y="-7.5" font-family="Helvetica,sans-Serif" font-size="10.00">model.Turtle.setTurtleInfo</text>
</a>
</g>
</g>
<!-- Node3&#45;&gt;Node8 -->
<g id="edge9" class="edge"><title>Node3&#45;&gt;Node8</title>
<path fill="none" stroke="midnightblue" d="M374.84,-35.9675C398.236,-26.4215 430.367,-14.9618 460,-10 519.026,-0.116652 586.822,-0.67155 637.665,-3.39647"/>
<polygon fill="midnightblue" stroke="midnightblue" points="637.738,-6.90643 647.923,-3.98785 638.141,0.0819663 637.738,-6.90643"/>
</g>
<!-- Node5 -->
<g id="node5" class="node"><title>Node5</title>
<g id="a_node5"><a xlink:href="../../de/ded/classmodel_1_1_pen.html#ad9374c4c077137d9af9d671f600858ec" target="_top" xlink:title="model.Pen.createLine">
<polygon fill="white" stroke="black" points="655.5,-107.5 655.5,-126.5 776.5,-126.5 776.5,-107.5 655.5,-107.5"/>
<text text-anchor="middle" x="716" y="-114.5" font-family="Helvetica,sans-Serif" font-size="10.00">model.Pen.createLine</text>
</a>
</g>
</g>
<!-- Node4&#45;&gt;Node5 -->
<g id="edge4" class="edge"><title>Node4&#45;&gt;Node5</title>
<path fill="none" stroke="midnightblue" d="M592.832,-117C609.452,-117 627.872,-117 645.262,-117"/>
<polygon fill="midnightblue" stroke="midnightblue" points="645.36,-120.5 655.36,-117 645.36,-113.5 645.36,-120.5"/>
</g>
<!-- Node7&#45;&gt;Node8 -->
<g id="edge7" class="edge"><title>Node7&#45;&gt;Node8</title>
<path fill="none" stroke="midnightblue" d="M611.714,-21.0249C620.33,-20.1052 629.13,-19.1659 637.778,-18.2428"/>
<polygon fill="midnightblue" stroke="midnightblue" points="638.27,-21.7103 647.842,-17.1686 637.527,-14.7498 638.27,-21.7103"/>
</g>
<!-- Node9 -->
<g id="node9" class="node"><title>Node9</title>
<g id="a_node9"><a xlink:href="../../d6/d34/classmodel_1_1_turtle.html#a61d79b71c878b0c64adeab038483da7a" target="_top" xlink:title="model.Turtle.getAngle">
<polygon fill="white" stroke="black" points="820.5,-0.5 820.5,-19.5 941.5,-19.5 941.5,-0.5 820.5,-0.5"/>
<text text-anchor="middle" x="881" y="-7.5" font-family="Helvetica,sans-Serif" font-size="10.00">model.Turtle.getAngle</text>
</a>
</g>
</g>
<!-- Node8&#45;&gt;Node9 -->
<g id="edge8" class="edge"><title>Node8&#45;&gt;Node9</title>
<path fill="none" stroke="midnightblue" d="M784.239,-10C792.875,-10 801.73,-10 810.402,-10"/>
<polygon fill="midnightblue" stroke="midnightblue" points="810.474,-13.5001 820.474,-10 810.474,-6.5001 810.474,-13.5001"/>
</g>
</g>
</svg>
