<?xml version="1.0" encoding="UTF-8" standalone="no"?>
<!DOCTYPE svg PUBLIC "-//W3C//DTD SVG 1.1//EN"
 "http://www.w3.org/Graphics/SVG/1.1/DTD/svg11.dtd">
<!-- Generated by graphviz version 2.36.0 (20140111.2315)
 -->
<!-- Title: model.BackgroundColor Pages: 1 -->
<svg width="319pt" height="154pt"
 viewBox="0.00 0.00 319.00 154.00" xmlns="http://www.w3.org/2000/svg" xmlns:xlink="http://www.w3.org/1999/xlink">
<g id="graph0" class="graph" transform="scale(1 1) rotate(0) translate(4 150)">
<title>model.BackgroundColor</title>
<polygon fill="white" stroke="none" points="-4,4 -4,-150 315,-150 315,4 -4,4"/>
<!-- Node1 -->
<g id="node1" class="node"><title>Node1</title>
<polygon fill="#bfbfbf" stroke="black" points="78.5,-0.5 78.5,-19.5 209.5,-19.5 209.5,-0.5 78.5,-0.5"/>
<text text-anchor="middle" x="144" y="-7.5" font-family="Helvetica,sans-Serif" font-size="10.00">model.BackgroundColor</text>
</g>
<!-- Node2 -->
<g id="node2" class="node"><title>Node2</title>
<g id="a_node2"><a xlink:href="../../d1/d69/interfacemodel_1_1_feature.html" target="_top" xlink:title="model.Feature">
<polygon fill="white" stroke="black" points="0,-68.5 0,-87.5 86,-87.5 86,-68.5 0,-68.5"/>
<text text-anchor="middle" x="43" y="-75.5" font-family="Helvetica,sans-Serif" font-size="10.00">model.Feature</text>
</a>
</g>
</g>
<!-- Node2&#45;&gt;Node1 -->
<g id="edge1" class="edge"><title>Node2&#45;&gt;Node1</title>
<path fill="none" stroke="midnightblue" d="M64.713,-62.8113C84.7982,-49.6863 114.005,-30.6004 130.793,-19.6305"/>
<polygon fill="midnightblue" stroke="midnightblue" points="62.6606,-59.9714 56.204,-68.3717 66.4898,-65.8313 62.6606,-59.9714"/>
</g>
<!-- Node3 -->
<g id="node3" class="node"><title>Node3</title>
<polygon fill="white" stroke="#bfbfbf" points="7.5,-126.5 7.5,-145.5 78.5,-145.5 78.5,-126.5 7.5,-126.5"/>
<text text-anchor="middle" x="43" y="-133.5" font-family="Helvetica,sans-Serif" font-size="10.00">Serializable</text>
</g>
<!-- Node3&#45;&gt;Node2 -->
<g id="edge2" class="edge"><title>Node3&#45;&gt;Node2</title>
<path fill="none" stroke="midnightblue" d="M43,-115.953C43,-106.287 43,-95.0312 43,-87.5052"/>
<polygon fill="midnightblue" stroke="midnightblue" points="39.5001,-116.25 43,-126.25 46.5001,-116.25 39.5001,-116.25"/>
</g>
<!-- Node4 -->
<g id="node4" class="node"><title>Node4</title>
<polygon fill="white" stroke="#bfbfbf" points="104,-68.5 104,-87.5 184,-87.5 184,-68.5 104,-68.5"/>
<text text-anchor="middle" x="144" y="-75.5" font-family="Helvetica,sans-Serif" font-size="10.00">List&lt; Color &gt;</text>
</g>
<!-- Node4&#45;&gt;Node1 -->
<g id="edge3" class="edge"><title>Node4&#45;&gt;Node1</title>
<path fill="none" stroke="#9a32cd" stroke-dasharray="5,2" d="M144,-58.0413C144,-45.4724 144,-29.5631 144,-19.8411"/>
<polygon fill="#9a32cd" stroke="#9a32cd" points="140.5,-58.3716 144,-68.3717 147.5,-58.3717 140.5,-58.3716"/>
<text text-anchor="middle" x="172" y="-41.5" font-family="Helvetica,sans-Serif" font-size="10.00"> myCustom</text>
</g>
<!-- Node5 -->
<g id="node5" class="node"><title>Node5</title>
<polygon fill="white" stroke="#bfbfbf" points="202.5,-68.5 202.5,-87.5 243.5,-87.5 243.5,-68.5 202.5,-68.5"/>
<text text-anchor="middle" x="223" y="-75.5" font-family="Helvetica,sans-Serif" font-size="10.00">Color</text>
</g>
<!-- Node5&#45;&gt;Node1 -->
<g id="edge4" class="edge"><title>Node5&#45;&gt;Node1</title>
<path fill="none" stroke="#9a32cd" stroke-dasharray="5,2" d="M215.801,-59.1001C212.2,-51.8476 207.258,-43.8275 201,-38 192.345,-29.9409 180.848,-23.8762 170.447,-19.5576"/>
<polygon fill="#9a32cd" stroke="#9a32cd" points="212.607,-60.531 219.879,-68.2361 218.999,-57.6779 212.607,-60.531"/>
<text text-anchor="middle" x="261" y="-41.5" font-family="Helvetica,sans-Serif" font-size="10.00"> myBackgroundColor</text>
</g>
</g>
</svg>
