<?xml version="1.0" encoding="UTF-8" standalone="no"?>
<!DOCTYPE svg PUBLIC "-//W3C//DTD SVG 1.1//EN"
 "http://www.w3.org/Graphics/SVG/1.1/DTD/svg11.dtd">
<!-- Generated by graphviz version 2.36.0 (20140111.2315)
 -->
<!-- Title: view.MenuView Pages: 1 -->
<svg width="549pt" height="96pt"
 viewBox="0.00 0.00 549.00 96.00" xmlns="http://www.w3.org/2000/svg" xmlns:xlink="http://www.w3.org/1999/xlink">
<g id="graph0" class="graph" transform="scale(1 1) rotate(0) translate(4 92)">
<title>view.MenuView</title>
<polygon fill="white" stroke="none" points="-4,4 -4,-92 545,-92 545,4 -4,4"/>
<!-- Node1 -->
<g id="node1" class="node"><title>Node1</title>
<polygon fill="#bfbfbf" stroke="black" points="239.5,-0.5 239.5,-19.5 326.5,-19.5 326.5,-0.5 239.5,-0.5"/>
<text text-anchor="middle" x="283" y="-7.5" font-family="Helvetica,sans-Serif" font-size="10.00">view.MenuView</text>
</g>
<!-- Node2 -->
<g id="node2" class="node"><title>Node2</title>
<polygon fill="white" stroke="#bfbfbf" points="-0.5,-68.5 -0.5,-87.5 58.5,-87.5 58.5,-68.5 -0.5,-68.5"/>
<text text-anchor="middle" x="29" y="-75.5" font-family="Helvetica,sans-Serif" font-size="10.00">MenuBar</text>
</g>
<!-- Node2&#45;&gt;Node1 -->
<g id="edge1" class="edge"><title>Node2&#45;&gt;Node1</title>
<path fill="none" stroke="midnightblue" d="M56.5222,-64.2633C75.8765,-55.752 102.577,-44.8927 127,-38 164.298,-27.4738 207.834,-20.3521 239.422,-16.0779"/>
<polygon fill="midnightblue" stroke="midnightblue" points="55.0894,-61.07 47.3879,-68.3458 57.9458,-67.4607 55.0894,-61.07"/>
</g>
<!-- Node3 -->
<g id="node3" class="node"><title>Node3</title>
<polygon fill="white" stroke="#bfbfbf" points="76.5,-68.5 76.5,-87.5 169.5,-87.5 169.5,-68.5 76.5,-68.5"/>
<text text-anchor="middle" x="123" y="-75.5" font-family="Helvetica,sans-Serif" font-size="10.00">ResourceBundle</text>
</g>
<!-- Node3&#45;&gt;Node1 -->
<g id="edge2" class="edge"><title>Node3&#45;&gt;Node1</title>
<path fill="none" stroke="#9a32cd" stroke-dasharray="5,2" d="M126.492,-58.6691C128.824,-51.2107 132.674,-43.1512 139,-38 154.088,-25.7132 202.577,-18.4687 239.153,-14.6282"/>
<polygon fill="#9a32cd" stroke="#9a32cd" points="123.077,-57.9015 124.108,-68.4461 129.878,-59.56 123.077,-57.9015"/>
<text text-anchor="middle" x="179.5" y="-41.5" font-family="Helvetica,sans-Serif" font-size="10.00"> languageBundle</text>
</g>
<!-- Node4 -->
<g id="node4" class="node"><title>Node4</title>
<polygon fill="white" stroke="#bfbfbf" points="187.5,-68.5 187.5,-87.5 258.5,-87.5 258.5,-68.5 187.5,-68.5"/>
<text text-anchor="middle" x="223" y="-75.5" font-family="Helvetica,sans-Serif" font-size="10.00">FileChooser</text>
</g>
<!-- Node4&#45;&gt;Node1 -->
<g id="edge3" class="edge"><title>Node4&#45;&gt;Node1</title>
<path fill="none" stroke="#9a32cd" stroke-dasharray="5,2" d="M222.377,-58.3676C222.992,-51.4179 224.763,-43.8126 229,-38 235.113,-29.6147 244.573,-23.677 253.878,-19.5479"/>
<polygon fill="#9a32cd" stroke="#9a32cd" points="218.878,-58.3281 222.175,-68.3968 225.876,-58.4697 218.878,-58.3281"/>
<text text-anchor="middle" x="265.5" y="-41.5" font-family="Helvetica,sans-Serif" font-size="10.00"> myFileChooser</text>
</g>
<!-- Node5 -->
<g id="node5" class="node"><title>Node5</title>
<polygon fill="white" stroke="#bfbfbf" points="276.5,-68.5 276.5,-87.5 401.5,-87.5 401.5,-68.5 276.5,-68.5"/>
<text text-anchor="middle" x="339" y="-75.5" font-family="Helvetica,sans-Serif" font-size="10.00">Map&lt; String, Locale &gt;</text>
</g>
<!-- Node5&#45;&gt;Node1 -->
<g id="edge4" class="edge"><title>Node5&#45;&gt;Node1</title>
<path fill="none" stroke="#9a32cd" stroke-dasharray="5,2" d="M325.153,-60.68C314.205,-47.7768 299.34,-30.2575 290.502,-19.8411"/>
<polygon fill="#9a32cd" stroke="#9a32cd" points="322.54,-63.011 331.679,-68.3717 327.878,-58.4821 322.54,-63.011"/>
<text text-anchor="middle" x="343" y="-41.5" font-family="Helvetica,sans-Serif" font-size="10.00"> localeMap</text>
</g>
<!-- Node6 -->
<g id="node6" class="node"><title>Node6</title>
<polygon fill="white" stroke="#bfbfbf" points="419.5,-68.5 419.5,-87.5 466.5,-87.5 466.5,-68.5 419.5,-68.5"/>
<text text-anchor="middle" x="443" y="-75.5" font-family="Helvetica,sans-Serif" font-size="10.00">Locale</text>
</g>
<!-- Node6&#45;&gt;Node1 -->
<g id="edge5" class="edge"><title>Node6&#45;&gt;Node1</title>
<path fill="none" stroke="#9a32cd" stroke-dasharray="5,2" d="M421.179,-63.2252C407.672,-55.1123 389.762,-45.0848 373,-38 355.269,-30.506 334.762,-24.184 317.806,-19.5458"/>
<polygon fill="#9a32cd" stroke="#9a32cd" points="419.402,-66.2413 429.758,-68.4763 423.056,-60.2707 419.402,-66.2413"/>
<text text-anchor="middle" x="421.5" y="-41.5" font-family="Helvetica,sans-Serif" font-size="10.00"> myLocale</text>
</g>
<!-- Node7 -->
<g id="node7" class="node"><title>Node7</title>
<polygon fill="white" stroke="#bfbfbf" points="486,-68.5 486,-87.5 542,-87.5 542,-68.5 486,-68.5"/>
<text text-anchor="middle" x="514" y="-75.5" font-family="Helvetica,sans-Serif" font-size="10.00">TabPane</text>
</g>
<!-- Node7&#45;&gt;Node1 -->
<g id="edge6" class="edge"><title>Node7&#45;&gt;Node1</title>
<path fill="none" stroke="#9a32cd" stroke-dasharray="5,2" d="M494.474,-62.3489C482.295,-53.9313 465.951,-43.8913 450,-38 409.776,-23.1443 361.115,-16.4514 326.723,-13.4426"/>
<polygon fill="#9a32cd" stroke="#9a32cd" points="492.73,-65.4043 502.9,-68.3741 496.801,-59.7103 492.73,-65.4043"/>
<text text-anchor="middle" x="495" y="-41.5" font-family="Helvetica,sans-Serif" font-size="10.00"> myTabs</text>
</g>
</g>
</svg>
