<?xml version="1.0" encoding="UTF-8" standalone="no"?>
<!DOCTYPE svg PUBLIC "-//W3C//DTD SVG 1.1//EN"
 "http://www.w3.org/Graphics/SVG/1.1/DTD/svg11.dtd">
<!-- Generated by graphviz version 2.36.0 (20140111.2315)
 -->
<!-- Title: model.BackgroundColor.getCustom Pages: 1 -->
<svg width="344pt" height="38pt"
 viewBox="0.00 0.00 344.00 38.00" xmlns="http://www.w3.org/2000/svg" xmlns:xlink="http://www.w3.org/1999/xlink">
<g id="graph0" class="graph" transform="scale(1 1) rotate(0) translate(4 34)">
<title>model.BackgroundColor.getCustom</title>
<polygon fill="white" stroke="none" points="-4,4 -4,-34 340,-34 340,4 -4,4"/>
<!-- Node1 -->
<g id="node1" class="node"><title>Node1</title>
<polygon fill="#bfbfbf" stroke="black" points="0.5,-0 0.5,-30 149.5,-30 149.5,-0 0.5,-0"/>
<text text-anchor="start" x="8.5" y="-18" font-family="Helvetica,sans-Serif" font-size="10.00">model.BackgroundColor.get</text>
<text text-anchor="middle" x="75" y="-7" font-family="Helvetica,sans-Serif" font-size="10.00">Custom</text>
</g>
<!-- Node2 -->
<g id="node2" class="node"><title>Node2</title>
<g id="a_node2"><a xlink:href="../../dc/de0/classinstructions_1_1commands_1_1_set_background.html#afb213c417b91879562db3b309d8ed5fb" target="_top" xlink:title="instructions.commands.Set\lBackground.execute">
<polygon fill="white" stroke="black" points="186.5,-0 186.5,-30 335.5,-30 335.5,-0 186.5,-0"/>
<text text-anchor="start" x="194.5" y="-18" font-family="Helvetica,sans-Serif" font-size="10.00">instructions.commands.Set</text>
<text text-anchor="middle" x="261" y="-7" font-family="Helvetica,sans-Serif" font-size="10.00">Background.execute</text>
</a>
</g>
</g>
<!-- Node1&#45;&gt;Node2 -->
<g id="edge1" class="edge"><title>Node1&#45;&gt;Node2</title>
<path fill="none" stroke="midnightblue" d="M159.533,-15C168.462,-15 177.498,-15 186.302,-15"/>
<polygon fill="midnightblue" stroke="midnightblue" points="159.515,-11.5001 149.515,-15 159.515,-18.5001 159.515,-11.5001"/>
</g>
</g>
</svg>
