<?xml version="1.0" encoding="UTF-8" standalone="no"?>
<!DOCTYPE svg PUBLIC "-//W3C//DTD SVG 1.1//EN"
 "http://www.w3.org/Graphics/SVG/1.1/DTD/svg11.dtd">
<!-- Generated by graphviz version 2.36.0 (20140111.2315)
 -->
<!-- Title: model.CommandsList.loadResourceBundle Pages: 1 -->
<svg width="430pt" height="77pt"
 viewBox="0.00 0.00 430.00 77.00" xmlns="http://www.w3.org/2000/svg" xmlns:xlink="http://www.w3.org/1999/xlink">
<g id="graph0" class="graph" transform="scale(1 1) rotate(0) translate(4 73)">
<title>model.CommandsList.loadResourceBundle</title>
<polygon fill="white" stroke="none" points="-4,4 -4,-73 426,-73 426,4 -4,4"/>
<!-- Node1 -->
<g id="node1" class="node"><title>Node1</title>
<polygon fill="#bfbfbf" stroke="black" points="0,-17 0,-47 188,-47 188,-17 0,-17"/>
<text text-anchor="start" x="8" y="-35" font-family="Helvetica,sans-Serif" font-size="10.00">model.CommandsList.loadResource</text>
<text text-anchor="middle" x="94" y="-24" font-family="Helvetica,sans-Serif" font-size="10.00">Bundle</text>
</g>
<!-- Node2 -->
<g id="node2" class="node"><title>Node2</title>
<g id="a_node2"><a xlink:href="../../d6/df7/classmodel_1_1_commands_list.html#a0a2513ec3a81972bf36dfcc588720d08" target="_top" xlink:title="model.CommandsList.change\lLanguage">
<polygon fill="white" stroke="black" points="243,-39 243,-69 403,-69 403,-39 243,-39"/>
<text text-anchor="start" x="251" y="-57" font-family="Helvetica,sans-Serif" font-size="10.00">model.CommandsList.change</text>
<text text-anchor="middle" x="323" y="-46" font-family="Helvetica,sans-Serif" font-size="10.00">Language</text>
</a>
</g>
</g>
<!-- Node1&#45;&gt;Node2 -->
<g id="edge1" class="edge"><title>Node1&#45;&gt;Node2</title>
<path fill="none" stroke="midnightblue" d="M198.554,-42.0361C213.42,-43.4768 228.515,-44.9397 242.808,-46.325"/>
<polygon fill="midnightblue" stroke="midnightblue" points="198.603,-38.5245 188.312,-41.0435 197.928,-45.4919 198.603,-38.5245"/>
</g>
<!-- Node3 -->
<g id="node3" class="node"><title>Node3</title>
<g id="a_node3"><a xlink:href="../../d6/df7/classmodel_1_1_commands_list.html#a3567510e0166360dce3e77df1af6e162" target="_top" xlink:title="model.CommandsList.CommandsList">
<polygon fill="white" stroke="black" points="224.5,-0.5 224.5,-19.5 421.5,-19.5 421.5,-0.5 224.5,-0.5"/>
<text text-anchor="middle" x="323" y="-7.5" font-family="Helvetica,sans-Serif" font-size="10.00">model.CommandsList.CommandsList</text>
</a>
</g>
</g>
<!-- Node1&#45;&gt;Node3 -->
<g id="edge2" class="edge"><title>Node1&#45;&gt;Node3</title>
<path fill="none" stroke="midnightblue" d="M198.381,-21.9807C206.998,-21.1455 215.694,-20.3027 224.268,-19.4718"/>
<polygon fill="midnightblue" stroke="midnightblue" points="197.928,-18.5081 188.312,-22.9565 198.603,-25.4755 197.928,-18.5081"/>
</g>
</g>
</svg>
