<?xml version="1.0" encoding="UTF-8" standalone="no"?>
<!DOCTYPE svg PUBLIC "-//W3C//DTD SVG 1.1//EN"
 "http://www.w3.org/Graphics/SVG/1.1/DTD/svg11.dtd">
<!-- Generated by graphviz version 2.36.0 (20140111.2315)
 -->
<!-- Title: model.CommandsList.makeCommandsList Pages: 1 -->
<svg width="980pt" height="66pt"
 viewBox="0.00 0.00 980.00 66.00" xmlns="http://www.w3.org/2000/svg" xmlns:xlink="http://www.w3.org/1999/xlink">
<g id="graph0" class="graph" transform="scale(1 1) rotate(0) translate(4 62)">
<title>model.CommandsList.makeCommandsList</title>
<polygon fill="white" stroke="none" points="-4,4 -4,-62 976,-62 976,4 -4,4"/>
<!-- Node1 -->
<g id="node1" class="node"><title>Node1</title>
<polygon fill="#bfbfbf" stroke="black" points="0,-19.5 0,-38.5 224,-38.5 224,-19.5 0,-19.5"/>
<text text-anchor="middle" x="112" y="-26.5" font-family="Helvetica,sans-Serif" font-size="10.00">model.CommandsList.makeCommandsList</text>
</g>
<!-- Node2 -->
<g id="node2" class="node"><title>Node2</title>
<g id="a_node2"><a xlink:href="../../d6/df7/classmodel_1_1_commands_list.html#a0f1df4e3621e54ac0d52131830128d78" target="_top" xlink:title="model.CommandsList.generate">
<polygon fill="white" stroke="black" points="260,-19.5 260,-38.5 428,-38.5 428,-19.5 260,-19.5"/>
<text text-anchor="middle" x="344" y="-26.5" font-family="Helvetica,sans-Serif" font-size="10.00">model.CommandsList.generate</text>
</a>
</g>
</g>
<!-- Node1&#45;&gt;Node2 -->
<g id="edge1" class="edge"><title>Node1&#45;&gt;Node2</title>
<path fill="none" stroke="midnightblue" d="M234.358,-29C242.921,-29 251.437,-29 259.716,-29"/>
<polygon fill="midnightblue" stroke="midnightblue" points="234.295,-25.5001 224.295,-29 234.294,-32.5001 234.295,-25.5001"/>
</g>
<!-- Node3 -->
<g id="node3" class="node"><title>Node3</title>
<g id="a_node3"><a xlink:href="../../d9/d93/classview_1_1_basic_commands_view.html#a787c3d60d71cc35031fcc939758c25dc" target="_top" xlink:title="view.BasicCommandsView.update">
<polygon fill="white" stroke="black" points="464,-38.5 464,-57.5 642,-57.5 642,-38.5 464,-38.5"/>
<text text-anchor="middle" x="553" y="-45.5" font-family="Helvetica,sans-Serif" font-size="10.00">view.BasicCommandsView.update</text>
</a>
</g>
</g>
<!-- Node2&#45;&gt;Node3 -->
<g id="edge2" class="edge"><title>Node2&#45;&gt;Node3</title>
<path fill="none" stroke="midnightblue" d="M438.041,-37.54C446.642,-38.3295 455.341,-39.1279 463.897,-39.9132"/>
<polygon fill="midnightblue" stroke="midnightblue" points="438.28,-34.0473 428.002,-36.6185 437.64,-41.018 438.28,-34.0473"/>
</g>
<!-- Node6 -->
<g id="node6" class="node"><title>Node6</title>
<g id="a_node6"><a xlink:href="../../d8/d0c/classview_1_1_u_d_commands_view.html#a07deb1195869f7a78443052e51e25fe8" target="_top" xlink:title="view.UDCommandsView.update">
<polygon fill="white" stroke="black" points="469.5,-0.5 469.5,-19.5 636.5,-19.5 636.5,-0.5 469.5,-0.5"/>
<text text-anchor="middle" x="553" y="-7.5" font-family="Helvetica,sans-Serif" font-size="10.00">view.UDCommandsView.update</text>
</a>
</g>
</g>
<!-- Node2&#45;&gt;Node6 -->
<g id="edge5" class="edge"><title>Node2&#45;&gt;Node6</title>
<path fill="none" stroke="midnightblue" d="M437.963,-20.4672C448.414,-19.5079 459.009,-18.5354 469.317,-17.5893"/>
<polygon fill="midnightblue" stroke="midnightblue" points="437.64,-16.982 428.002,-21.3815 438.28,-23.9527 437.64,-16.982"/>
</g>
<!-- Node4 -->
<g id="node4" class="node"><title>Node4</title>
<g id="a_node4"><a xlink:href="../../de/d2f/classview_1_1_data_view.html#ab1acc31f3125a6a1d52e21b05bae379b" target="_top" xlink:title="view.DataView.update">
<polygon fill="white" stroke="black" points="678,-19.5 678,-38.5 798,-38.5 798,-19.5 678,-19.5"/>
<text text-anchor="middle" x="738" y="-26.5" font-family="Helvetica,sans-Serif" font-size="10.00">view.DataView.update</text>
</a>
</g>
</g>
<!-- Node3&#45;&gt;Node4 -->
<g id="edge3" class="edge"><title>Node3&#45;&gt;Node4</title>
<path fill="none" stroke="midnightblue" d="M652.007,-37.8245C660.841,-36.9073 669.593,-35.9985 677.933,-35.1326"/>
<polygon fill="midnightblue" stroke="midnightblue" points="651.601,-34.3477 642.016,-38.8617 652.324,-41.3102 651.601,-34.3477"/>
</g>
<!-- Node5 -->
<g id="node5" class="node"><title>Node5</title>
<g id="a_node5"><a xlink:href="../../d0/dfc/classview_1_1_slogo_window.html#a1605d0405c7961727ef7c3d96e41b743" target="_top" xlink:title="view.SlogoWindow.update">
<polygon fill="white" stroke="black" points="834.5,-19.5 834.5,-38.5 971.5,-38.5 971.5,-19.5 834.5,-19.5"/>
<text text-anchor="middle" x="903" y="-26.5" font-family="Helvetica,sans-Serif" font-size="10.00">view.SlogoWindow.update</text>
</a>
</g>
</g>
<!-- Node4&#45;&gt;Node5 -->
<g id="edge4" class="edge"><title>Node4&#45;&gt;Node5</title>
<path fill="none" stroke="midnightblue" d="M808.349,-29C816.997,-29 825.831,-29 834.45,-29"/>
<polygon fill="midnightblue" stroke="midnightblue" points="808.308,-25.5001 798.308,-29 808.308,-32.5001 808.308,-25.5001"/>
</g>
<!-- Node6&#45;&gt;Node4 -->
<g id="edge6" class="edge"><title>Node6&#45;&gt;Node4</title>
<path fill="none" stroke="midnightblue" d="M646.812,-19.6363C657.407,-20.7363 667.978,-21.8338 677.958,-22.8699"/>
<polygon fill="midnightblue" stroke="midnightblue" points="646.974,-16.1343 636.666,-18.5828 646.251,-23.0969 646.974,-16.1343"/>
</g>
</g>
</svg>
