<?xml version="1.0" encoding="UTF-8" standalone="no"?>
<!DOCTYPE svg PUBLIC "-//W3C//DTD SVG 1.1//EN"
 "http://www.w3.org/Graphics/SVG/1.1/DTD/svg11.dtd">
<!-- Generated by graphviz version 2.36.0 (20140111.2315)
 -->
<!-- Title: model.CommandsList.generate Pages: 1 -->
<svg width="720pt" height="66pt"
 viewBox="0.00 0.00 720.00 66.00" xmlns="http://www.w3.org/2000/svg" xmlns:xlink="http://www.w3.org/1999/xlink">
<g id="graph0" class="graph" transform="scale(1 1) rotate(0) translate(4 62)">
<title>model.CommandsList.generate</title>
<polygon fill="white" stroke="none" points="-4,4 -4,-62 716,-62 716,4 -4,4"/>
<!-- Node1 -->
<g id="node1" class="node"><title>Node1</title>
<polygon fill="#bfbfbf" stroke="black" points="0,-19.5 0,-38.5 168,-38.5 168,-19.5 0,-19.5"/>
<text text-anchor="middle" x="84" y="-26.5" font-family="Helvetica,sans-Serif" font-size="10.00">model.CommandsList.generate</text>
</g>
<!-- Node2 -->
<g id="node2" class="node"><title>Node2</title>
<g id="a_node2"><a xlink:href="../../d9/d93/classview_1_1_basic_commands_view.html#a787c3d60d71cc35031fcc939758c25dc" target="_top" xlink:title="view.BasicCommandsView.update">
<polygon fill="white" stroke="black" points="204,-38.5 204,-57.5 382,-57.5 382,-38.5 204,-38.5"/>
<text text-anchor="middle" x="293" y="-45.5" font-family="Helvetica,sans-Serif" font-size="10.00">view.BasicCommandsView.update</text>
</a>
</g>
</g>
<!-- Node1&#45;&gt;Node2 -->
<g id="edge1" class="edge"><title>Node1&#45;&gt;Node2</title>
<path fill="none" stroke="midnightblue" d="M178.041,-37.54C186.642,-38.3295 195.341,-39.1279 203.897,-39.9132"/>
<polygon fill="midnightblue" stroke="midnightblue" points="178.28,-34.0473 168.002,-36.6185 177.64,-41.018 178.28,-34.0473"/>
</g>
<!-- Node5 -->
<g id="node5" class="node"><title>Node5</title>
<g id="a_node5"><a xlink:href="../../d8/d0c/classview_1_1_u_d_commands_view.html#a07deb1195869f7a78443052e51e25fe8" target="_top" xlink:title="view.UDCommandsView.update">
<polygon fill="white" stroke="black" points="209.5,-0.5 209.5,-19.5 376.5,-19.5 376.5,-0.5 209.5,-0.5"/>
<text text-anchor="middle" x="293" y="-7.5" font-family="Helvetica,sans-Serif" font-size="10.00">view.UDCommandsView.update</text>
</a>
</g>
</g>
<!-- Node1&#45;&gt;Node5 -->
<g id="edge4" class="edge"><title>Node1&#45;&gt;Node5</title>
<path fill="none" stroke="midnightblue" d="M177.963,-20.4672C188.414,-19.5079 199.009,-18.5354 209.317,-17.5893"/>
<polygon fill="midnightblue" stroke="midnightblue" points="177.64,-16.982 168.002,-21.3815 178.28,-23.9527 177.64,-16.982"/>
</g>
<!-- Node3 -->
<g id="node3" class="node"><title>Node3</title>
<g id="a_node3"><a xlink:href="../../de/d2f/classview_1_1_data_view.html#ab1acc31f3125a6a1d52e21b05bae379b" target="_top" xlink:title="view.DataView.update">
<polygon fill="white" stroke="black" points="418,-19.5 418,-38.5 538,-38.5 538,-19.5 418,-19.5"/>
<text text-anchor="middle" x="478" y="-26.5" font-family="Helvetica,sans-Serif" font-size="10.00">view.DataView.update</text>
</a>
</g>
</g>
<!-- Node2&#45;&gt;Node3 -->
<g id="edge2" class="edge"><title>Node2&#45;&gt;Node3</title>
<path fill="none" stroke="midnightblue" d="M392.007,-37.8245C400.841,-36.9073 409.593,-35.9985 417.933,-35.1326"/>
<polygon fill="midnightblue" stroke="midnightblue" points="391.601,-34.3477 382.016,-38.8617 392.324,-41.3102 391.601,-34.3477"/>
</g>
<!-- Node4 -->
<g id="node4" class="node"><title>Node4</title>
<g id="a_node4"><a xlink:href="../../d0/dfc/classview_1_1_slogo_window.html#a1605d0405c7961727ef7c3d96e41b743" target="_top" xlink:title="view.SlogoWindow.update">
<polygon fill="white" stroke="black" points="574.5,-19.5 574.5,-38.5 711.5,-38.5 711.5,-19.5 574.5,-19.5"/>
<text text-anchor="middle" x="643" y="-26.5" font-family="Helvetica,sans-Serif" font-size="10.00">view.SlogoWindow.update</text>
</a>
</g>
</g>
<!-- Node3&#45;&gt;Node4 -->
<g id="edge3" class="edge"><title>Node3&#45;&gt;Node4</title>
<path fill="none" stroke="midnightblue" d="M548.349,-29C556.997,-29 565.831,-29 574.45,-29"/>
<polygon fill="midnightblue" stroke="midnightblue" points="548.308,-25.5001 538.308,-29 548.308,-32.5001 548.308,-25.5001"/>
</g>
<!-- Node5&#45;&gt;Node3 -->
<g id="edge5" class="edge"><title>Node5&#45;&gt;Node3</title>
<path fill="none" stroke="midnightblue" d="M386.812,-19.6363C397.407,-20.7363 407.978,-21.8338 417.958,-22.8699"/>
<polygon fill="midnightblue" stroke="midnightblue" points="386.974,-16.1343 376.666,-18.5828 386.251,-23.0969 386.974,-16.1343"/>
</g>
</g>
</svg>
