<?xml version="1.0" encoding="UTF-8" standalone="no"?>
<!DOCTYPE svg PUBLIC "-//W3C//DTD SVG 1.1//EN"
 "http://www.w3.org/Graphics/SVG/1.1/DTD/svg11.dtd">
<!-- Generated by graphviz version 2.36.0 (20140111.2315)
 -->
<!-- Title: model.CommandsList.makeCommandsList Pages: 1 -->
<!--zoomable 66 -->
<svg id="main" version="1.1" xmlns="http://www.w3.org/2000/svg" xmlns:xlink="http://www.w3.org/1999/xlink" xml:space="preserve" onload="init(evt)">
<style type="text/css"><![CDATA[
.edge:hover path { stroke: red; }
.edge:hover polygon { stroke: red; fill: red; }
]]></style>
<script type="text/javascript"><![CDATA[
var edges = document.getElementsByTagName('g');
if (edges && edges.length) {
  for (var i=0;i<edges.length;i++) {
    if (edges[i].id.substr(0,4)=='edge') {
      edges[i].setAttribute('class','edge');
    }
  }
}
]]></script>
        <defs>
                <circle id="rim" cx="0" cy="0" r="7"/>
                <circle id="rim2" cx="0" cy="0" r="3.5"/>
                <g id="zoomPlus">
                        <use xlink:href="#rim" fill="#404040">
                                <set attributeName="fill" to="#808080" begin="zoomplus.mouseover" end="zoomplus.mouseout"/>
                        </use>
                        <path d="M-4,0h8M0,-4v8" fill="none" stroke="white" stroke-width="1.5" pointer-events="none"/>
                </g>
                <g id="zoomMin">
                        <use xlink:href="#rim" fill="#404040">
                                <set attributeName="fill" to="#808080" begin="zoomminus.mouseover" end="zoomminus.mouseout"/>
                        </use>
                        <path d="M-4,0h8" fill="none" stroke="white" stroke-width="1.5" pointer-events="none"/>
                </g>
                <g id="dirArrow">
                        <path fill="none" stroke="white" stroke-width="1.5" d="M0,-3.0v7 M-2.5,-0.5L0,-3.0L2.5,-0.5"/>
                </g>
               <g id="resetDef">
                       <use xlink:href="#rim2" fill="#404040">
                               <set attributeName="fill" to="#808080" begin="reset.mouseover" end="reset.mouseout"/>
                       </use>
               </g>
        </defs>

<script type="text/javascript">
var viewWidth = 980;
var viewHeight = 66;
var sectionId = 'dynsection-11';
</script>
<script xlink:href="../../svgpan.js"/>
<svg id="graph" class="graph">
<g id="viewport">
<title>model.CommandsList.makeCommandsList</title>
<polygon fill="white" stroke="none" points="-4,4 -4,-62 976,-62 976,4 -4,4"/>
<!-- Node1 -->
<g id="node1" class="node"><title>Node1</title>
<polygon fill="#bfbfbf" stroke="black" points="0,-19.5 0,-38.5 224,-38.5 224,-19.5 0,-19.5"/>
<text text-anchor="middle" x="112" y="-26.5" font-family="Helvetica,sans-Serif" font-size="10.00">model.CommandsList.makeCommandsList</text>
</g>
<!-- Node2 -->
<g id="node2" class="node"><title>Node2</title>
<g id="a_node2"><a xlink:href="../../d6/df7/classmodel_1_1_commands_list.html#a0f1df4e3621e54ac0d52131830128d78" target="_top" xlink:title="model.CommandsList.generate">
<polygon fill="white" stroke="black" points="260,-19.5 260,-38.5 428,-38.5 428,-19.5 260,-19.5"/>
<text text-anchor="middle" x="344" y="-26.5" font-family="Helvetica,sans-Serif" font-size="10.00">model.CommandsList.generate</text>
</a>
</g>
</g>
<!-- Node1&#45;&gt;Node2 -->
<g id="edge1" class="edge"><title>Node1&#45;&gt;Node2</title>
<path fill="none" stroke="midnightblue" d="M234.358,-29C242.921,-29 251.437,-29 259.716,-29"/>
<polygon fill="midnightblue" stroke="midnightblue" points="234.295,-25.5001 224.295,-29 234.294,-32.5001 234.295,-25.5001"/>
</g>
<!-- Node3 -->
<g id="node3" class="node"><title>Node3</title>
<g id="a_node3"><a xlink:href="../../d9/d93/classview_1_1_basic_commands_view.html#a787c3d60d71cc35031fcc939758c25dc" target="_top" xlink:title="view.BasicCommandsView.update">
<polygon fill="white" stroke="black" points="464,-38.5 464,-57.5 642,-57.5 642,-38.5 464,-38.5"/>
<text text-anchor="middle" x="553" y="-45.5" font-family="Helvetica,sans-Serif" font-size="10.00">view.BasicCommandsView.update</text>
</a>
</g>
</g>
<!-- Node2&#45;&gt;Node3 -->
<g id="edge2" class="edge"><title>Node2&#45;&gt;Node3</title>
<path fill="none" stroke="midnightblue" d="M438.041,-37.54C446.642,-38.3295 455.341,-39.1279 463.897,-39.9132"/>
<polygon fill="midnightblue" stroke="midnightblue" points="438.28,-34.0473 428.002,-36.6185 437.64,-41.018 438.28,-34.0473"/>
</g>
<!-- Node6 -->
<g id="node6" class="node"><title>Node6</title>
<g id="a_node6"><a xlink:href="../../d8/d0c/classview_1_1_u_d_commands_view.html#a07deb1195869f7a78443052e51e25fe8" target="_top" xlink:title="view.UDCommandsView.update">
<polygon fill="white" stroke="black" points="469.5,-0.5 469.5,-19.5 636.5,-19.5 636.5,-0.5 469.5,-0.5"/>
<text text-anchor="middle" x="553" y="-7.5" font-family="Helvetica,sans-Serif" font-size="10.00">view.UDCommandsView.update</text>
</a>
</g>
</g>
<!-- Node2&#45;&gt;Node6 -->
<g id="edge5" class="edge"><title>Node2&#45;&gt;Node6</title>
<path fill="none" stroke="midnightblue" d="M437.963,-20.4672C448.414,-19.5079 459.009,-18.5354 469.317,-17.5893"/>
<polygon fill="midnightblue" stroke="midnightblue" points="437.64,-16.982 428.002,-21.3815 438.28,-23.9527 437.64,-16.982"/>
</g>
<!-- Node4 -->
<g id="node4" class="node"><title>Node4</title>
<g id="a_node4"><a xlink:href="../../de/d2f/classview_1_1_data_view.html#ab1acc31f3125a6a1d52e21b05bae379b" target="_top" xlink:title="view.DataView.update">
<polygon fill="white" stroke="black" points="678,-19.5 678,-38.5 798,-38.5 798,-19.5 678,-19.5"/>
<text text-anchor="middle" x="738" y="-26.5" font-family="Helvetica,sans-Serif" font-size="10.00">view.DataView.update</text>
</a>
</g>
</g>
<!-- Node3&#45;&gt;Node4 -->
<g id="edge3" class="edge"><title>Node3&#45;&gt;Node4</title>
<path fill="none" stroke="midnightblue" d="M652.007,-37.8245C660.841,-36.9073 669.593,-35.9985 677.933,-35.1326"/>
<polygon fill="midnightblue" stroke="midnightblue" points="651.601,-34.3477 642.016,-38.8617 652.324,-41.3102 651.601,-34.3477"/>
</g>
<!-- Node5 -->
<g id="node5" class="node"><title>Node5</title>
<g id="a_node5"><a xlink:href="../../d0/dfc/classview_1_1_slogo_window.html#a1605d0405c7961727ef7c3d96e41b743" target="_top" xlink:title="view.SlogoWindow.update">
<polygon fill="white" stroke="black" points="834.5,-19.5 834.5,-38.5 971.5,-38.5 971.5,-19.5 834.5,-19.5"/>
<text text-anchor="middle" x="903" y="-26.5" font-family="Helvetica,sans-Serif" font-size="10.00">view.SlogoWindow.update</text>
</a>
</g>
</g>
<!-- Node4&#45;&gt;Node5 -->
<g id="edge4" class="edge"><title>Node4&#45;&gt;Node5</title>
<path fill="none" stroke="midnightblue" d="M808.349,-29C816.997,-29 825.831,-29 834.45,-29"/>
<polygon fill="midnightblue" stroke="midnightblue" points="808.308,-25.5001 798.308,-29 808.308,-32.5001 808.308,-25.5001"/>
</g>
<!-- Node6&#45;&gt;Node4 -->
<g id="edge6" class="edge"><title>Node6&#45;&gt;Node4</title>
<path fill="none" stroke="midnightblue" d="M646.812,-19.6363C657.407,-20.7363 667.978,-21.8338 677.958,-22.8699"/>
<polygon fill="midnightblue" stroke="midnightblue" points="646.974,-16.1343 636.666,-18.5828 646.251,-23.0969 646.974,-16.1343"/>
</g>
</g>
</svg>
        <g id="navigator" transform="translate(0 0)" fill="#404254">
                <rect fill="#f2f5e9" fill-opacity="0.5" stroke="#606060" stroke-width=".5" x="0" y="0" width="60" height="60"/>
                <use id="zoomplus" xlink:href="#zoomPlus" x="17" y="9" onmousedown="handleZoom(evt,'in')"/>
                <use id="zoomminus" xlink:href="#zoomMin" x="42" y="9" onmousedown="handleZoom(evt,'out')"/>
                <use id="reset" xlink:href="#resetDef" x="30" y="36" onmousedown="handleReset()"/>
                <g id="arrowUp" xlink:href="#dirArrow" transform="translate(30 24)" onmousedown="handlePan(0,-1)">
                  <use xlink:href="#rim" fill="#404040">
                        <set attributeName="fill" to="#808080" begin="arrowUp.mouseover" end="arrowUp.mouseout"/>
                  </use>
                  <path fill="none" stroke="white" stroke-width="1.5" d="M0,-3.0v7 M-2.5,-0.5L0,-3.0L2.5,-0.5"/>
                </g>
                <g id="arrowRight" xlink:href="#dirArrow" transform="rotate(90) translate(36 -43)" onmousedown="handlePan(1,0)">
                  <use xlink:href="#rim" fill="#404040">
                        <set attributeName="fill" to="#808080" begin="arrowRight.mouseover" end="arrowRight.mouseout"/>
                  </use>
                  <path fill="none" stroke="white" stroke-width="1.5" d="M0,-3.0v7 M-2.5,-0.5L0,-3.0L2.5,-0.5"/>
                </g>
                <g id="arrowDown" xlink:href="#dirArrow" transform="rotate(180) translate(-30 -48)" onmousedown="handlePan(0,1)">
                  <use xlink:href="#rim" fill="#404040">
                        <set attributeName="fill" to="#808080" begin="arrowDown.mouseover" end="arrowDown.mouseout"/>
                  </use>
                  <path fill="none" stroke="white" stroke-width="1.5" d="M0,-3.0v7 M-2.5,-0.5L0,-3.0L2.5,-0.5"/>
                </g>
                <g id="arrowLeft" xlink:href="#dirArrow" transform="rotate(270) translate(-36 17)" onmousedown="handlePan(-1,0)">
                  <use xlink:href="#rim" fill="#404040">
                        <set attributeName="fill" to="#808080" begin="arrowLeft.mouseover" end="arrowLeft.mouseout"/>
                  </use>
                  <path fill="none" stroke="white" stroke-width="1.5" d="M0,-3.0v7 M-2.5,-0.5L0,-3.0L2.5,-0.5"/>
                </g>
        </g>
        <svg viewBox="0 0 15 15" width="100%" height="30px" preserveAspectRatio="xMaxYMin meet">
         <g id="arrow_out" transform="scale(0.3 0.3)">
          <a xlink:href="classmodel_1_1_commands_list_afe889d0ea233be74e064b369e68ad9d6_icgraph_org.svg" target="_base">
           <rect id="button" ry="5" rx="5" y="6" x="6" height="38" width="38"
                fill="#f2f5e9" fill-opacity="0.5" stroke="#606060" stroke-width="1.0"/>
           <path id="arrow"
             d="M 11.500037,31.436501 C 11.940474,20.09759 22.043105,11.32322 32.158766,21.979434 L 37.068811,17.246167 C 37.068811,17.246167 37.088388,32 37.088388,32 L 22.160133,31.978069 C 22.160133,31.978069 26.997745,27.140456 26.997745,27.140456 C 18.528582,18.264221 13.291696,25.230495 11.500037,31.436501 z"
             style="fill:#404040;"/>
          </a>
         </g>
        </svg>
</svg>
