<?xml version="1.0" encoding="UTF-8" standalone="no"?>
<!DOCTYPE svg PUBLIC "-//W3C//DTD SVG 1.1//EN"
 "http://www.w3.org/Graphics/SVG/1.1/DTD/svg11.dtd">
<!-- Generated by graphviz version 2.36.0 (20140111.2315)
 -->
<!-- Title: model.CommandsList.get Pages: 1 -->
<svg width="1232pt" height="134pt"
 viewBox="0.00 0.00 1232.00 134.00" xmlns="http://www.w3.org/2000/svg" xmlns:xlink="http://www.w3.org/1999/xlink">
<g id="graph0" class="graph" transform="scale(1 1) rotate(0) translate(4 130)">
<title>model.CommandsList.get</title>
<polygon fill="white" stroke="none" points="-4,4 -4,-130 1228,-130 1228,4 -4,4"/>
<!-- Node1 -->
<g id="node1" class="node"><title>Node1</title>
<polygon fill="#bfbfbf" stroke="black" points="0,-52.5 0,-71.5 140,-71.5 140,-52.5 0,-52.5"/>
<text text-anchor="middle" x="70" y="-59.5" font-family="Helvetica,sans-Serif" font-size="10.00">model.CommandsList.get</text>
</g>
<!-- Node2 -->
<g id="node2" class="node"><title>Node2</title>
<g id="a_node2"><a xlink:href="../../dc/d89/classinstructions_1_1commands_1_1_make_user_instruction.html#a266ae5979c8a7fc525d334e2a0871680" target="_top" xlink:title="instructions.commands.Make\lUserInstruction.execute">
<polygon fill="white" stroke="black" points="179,-96 179,-126 337,-126 337,-96 179,-96"/>
<text text-anchor="start" x="187" y="-114" font-family="Helvetica,sans-Serif" font-size="10.00">instructions.commands.Make</text>
<text text-anchor="middle" x="258" y="-103" font-family="Helvetica,sans-Serif" font-size="10.00">UserInstruction.execute</text>
</a>
</g>
</g>
<!-- Node1&#45;&gt;Node2 -->
<g id="edge1" class="edge"><title>Node1&#45;&gt;Node2</title>
<path fill="none" stroke="midnightblue" d="M117.271,-74.1896C142.291,-80.7808 173.407,-88.9782 199.921,-95.963"/>
<polygon fill="midnightblue" stroke="midnightblue" points="117.866,-70.7271 107.304,-71.564 116.083,-77.4961 117.866,-70.7271"/>
</g>
<!-- Node3 -->
<g id="node3" class="node"><title>Node3</title>
<g id="a_node3"><a xlink:href="../../d3/d96/classparser_1_1_instruction_factory.html#a4b06d4f5f8e173824966dd0ec1e00255" target="_top" xlink:title="parser.InstructionFactory.make\lInstruction">
<polygon fill="white" stroke="black" points="176.5,-47 176.5,-77 339.5,-77 339.5,-47 176.5,-47"/>
<text text-anchor="start" x="184.5" y="-65" font-family="Helvetica,sans-Serif" font-size="10.00">parser.InstructionFactory.make</text>
<text text-anchor="middle" x="258" y="-54" font-family="Helvetica,sans-Serif" font-size="10.00">Instruction</text>
</a>
</g>
</g>
<!-- Node1&#45;&gt;Node3 -->
<g id="edge2" class="edge"><title>Node1&#45;&gt;Node3</title>
<path fill="none" stroke="midnightblue" d="M150.305,-62C158.941,-62 167.738,-62 176.39,-62"/>
<polygon fill="midnightblue" stroke="midnightblue" points="150.26,-58.5001 140.26,-62 150.259,-65.5001 150.26,-58.5001"/>
</g>
<!-- Node9 -->
<g id="node9" class="node"><title>Node9</title>
<g id="a_node9"><a xlink:href="../../d4/d90/classview_1_1_key_controls.html#a0c3663cb62e91e8919b0296aad899a8f" target="_top" xlink:title="view.KeyControls.makeKey\lCommands">
<polygon fill="white" stroke="black" points="890,-0 890,-30 1032,-30 1032,-0 890,-0"/>
<text text-anchor="start" x="898" y="-18" font-family="Helvetica,sans-Serif" font-size="10.00">view.KeyControls.makeKey</text>
<text text-anchor="middle" x="961" y="-7" font-family="Helvetica,sans-Serif" font-size="10.00">Commands</text>
</a>
</g>
</g>
<!-- Node1&#45;&gt;Node9 -->
<g id="edge12" class="edge"><title>Node1&#45;&gt;Node9</title>
<path fill="none" stroke="midnightblue" d="M114.965,-49.915C133.651,-45.2013 155.757,-40.1771 176,-37 294.907,-18.3373 325.638,-16 446,-16 446,-16 446,-16 610,-16 707.071,-16 819.284,-15.6106 889.942,-15.3178"/>
<polygon fill="midnightblue" stroke="midnightblue" points="114.066,-46.5324 105.253,-52.4138 115.81,-53.3116 114.066,-46.5324"/>
</g>
<!-- Node4 -->
<g id="node4" class="node"><title>Node4</title>
<g id="a_node4"><a xlink:href="../../d6/d95/classparser_1_1_parser.html#a0b953b563fd9171ad113c168900ba0ad" target="_top" xlink:title="parser.Parser.parseTokens">
<polygon fill="white" stroke="black" points="376.5,-52.5 376.5,-71.5 517.5,-71.5 517.5,-52.5 376.5,-52.5"/>
<text text-anchor="middle" x="447" y="-59.5" font-family="Helvetica,sans-Serif" font-size="10.00">parser.Parser.parseTokens</text>
</a>
</g>
</g>
<!-- Node3&#45;&gt;Node4 -->
<g id="edge3" class="edge"><title>Node3&#45;&gt;Node4</title>
<path fill="none" stroke="midnightblue" d="M349.766,-62C358.744,-62 367.756,-62 376.47,-62"/>
<polygon fill="midnightblue" stroke="midnightblue" points="349.662,-58.5001 339.662,-62 349.662,-65.5001 349.662,-58.5001"/>
</g>
<!-- Node5 -->
<g id="node5" class="node"><title>Node5</title>
<g id="a_node5"><a xlink:href="../../d6/d95/classparser_1_1_parser.html#aec8f2721f51a8a257b572c73d80d5d98" target="_top" xlink:title="parser.Parser.parse">
<polygon fill="white" stroke="black" points="554.5,-52.5 554.5,-71.5 663.5,-71.5 663.5,-52.5 554.5,-52.5"/>
<text text-anchor="middle" x="609" y="-59.5" font-family="Helvetica,sans-Serif" font-size="10.00">parser.Parser.parse</text>
</a>
</g>
</g>
<!-- Node4&#45;&gt;Node5 -->
<g id="edge4" class="edge"><title>Node4&#45;&gt;Node5</title>
<path fill="none" stroke="midnightblue" d="M527.848,-62C536.848,-62 545.85,-62 554.399,-62"/>
<polygon fill="midnightblue" stroke="midnightblue" points="527.713,-58.5001 517.713,-62 527.713,-65.5001 527.713,-58.5001"/>
</g>
<!-- Node6 -->
<g id="node6" class="node"><title>Node6</title>
<g id="a_node6"><a xlink:href="../../d3/d88/classmodel_1_1_slogo_model.html#ad096dbf0a253635d346a622540f472bd" target="_top" xlink:title="model.SlogoModel.parseAnd\lExecute">
<polygon fill="white" stroke="black" points="700,-47 700,-77 854,-77 854,-47 700,-47"/>
<text text-anchor="start" x="708" y="-65" font-family="Helvetica,sans-Serif" font-size="10.00">model.SlogoModel.parseAnd</text>
<text text-anchor="middle" x="777" y="-54" font-family="Helvetica,sans-Serif" font-size="10.00">Execute</text>
</a>
</g>
</g>
<!-- Node5&#45;&gt;Node6 -->
<g id="edge5" class="edge"><title>Node5&#45;&gt;Node6</title>
<path fill="none" stroke="midnightblue" d="M674.016,-62C682.446,-62 691.153,-62 699.761,-62"/>
<polygon fill="midnightblue" stroke="midnightblue" points="673.895,-58.5001 663.895,-62 673.895,-65.5001 673.895,-58.5001"/>
</g>
<!-- Node11 -->
<g id="node11" class="node"><title>Node11</title>
<g id="a_node11"><a xlink:href="../../d4/d90/classview_1_1_key_controls.html#a5139ba2a7cd205b996395f4f3e7f406c" target="_top" xlink:title="view.KeyControls.setKeyMap">
<polygon fill="white" stroke="black" points="702,-97.5 702,-116.5 852,-116.5 852,-97.5 702,-97.5"/>
<text text-anchor="middle" x="777" y="-104.5" font-family="Helvetica,sans-Serif" font-size="10.00">view.KeyControls.setKeyMap</text>
</a>
</g>
</g>
<!-- Node5&#45;&gt;Node11 -->
<g id="edge10" class="edge"><title>Node5&#45;&gt;Node11</title>
<path fill="none" stroke="midnightblue" d="M655.175,-74.2461C682.139,-81.5558 715.879,-90.7021 740.846,-97.4704"/>
<polygon fill="midnightblue" stroke="midnightblue" points="655.772,-70.7817 645.204,-71.5433 653.94,-77.5379 655.772,-70.7817"/>
</g>
<!-- Node7 -->
<g id="node7" class="node"><title>Node7</title>
<g id="a_node7"><a xlink:href="../../d6/d0a/classview_1_1_input_view.html#a948930c9b825f34ef8f5def96910471b" target="_top" xlink:title="view.InputView.initSubmit\lButton">
<polygon fill="white" stroke="black" points="893,-49 893,-79 1029,-79 1029,-49 893,-49"/>
<text text-anchor="start" x="901" y="-67" font-family="Helvetica,sans-Serif" font-size="10.00">view.InputView.initSubmit</text>
<text text-anchor="middle" x="961" y="-56" font-family="Helvetica,sans-Serif" font-size="10.00">Button</text>
</a>
</g>
</g>
<!-- Node6&#45;&gt;Node7 -->
<g id="edge6" class="edge"><title>Node6&#45;&gt;Node7</title>
<path fill="none" stroke="midnightblue" d="M864.137,-62.9466C873.784,-63.0526 883.503,-63.1594 892.86,-63.2622"/>
<polygon fill="midnightblue" stroke="midnightblue" points="864.168,-59.4468 854.13,-62.8366 864.091,-66.4464 864.168,-59.4468"/>
</g>
<!-- Node6&#45;&gt;Node9 -->
<g id="edge8" class="edge"><title>Node6&#45;&gt;Node9</title>
<path fill="none" stroke="midnightblue" d="M845.86,-44.4758C864.265,-39.7227 884.023,-34.6204 901.841,-30.019"/>
<polygon fill="midnightblue" stroke="midnightblue" points="844.894,-41.1104 836.086,-46.9997 846.644,-47.888 844.894,-41.1104"/>
</g>
<!-- Node8 -->
<g id="node8" class="node"><title>Node8</title>
<g id="a_node8"><a xlink:href="../../d6/d0a/classview_1_1_input_view.html#ac75e6562ed83ace6cb0a0ac886780054" target="_top" xlink:title="view.InputView.InputView">
<polygon fill="white" stroke="black" points="1079.5,-54.5 1079.5,-73.5 1212.5,-73.5 1212.5,-54.5 1079.5,-54.5"/>
<text text-anchor="middle" x="1146" y="-61.5" font-family="Helvetica,sans-Serif" font-size="10.00">view.InputView.InputView</text>
</a>
</g>
</g>
<!-- Node7&#45;&gt;Node8 -->
<g id="edge7" class="edge"><title>Node7&#45;&gt;Node8</title>
<path fill="none" stroke="midnightblue" d="M1039.23,-64C1052.61,-64 1066.4,-64 1079.43,-64"/>
<polygon fill="midnightblue" stroke="midnightblue" points="1039.1,-60.5001 1029.1,-64 1039.1,-67.5001 1039.1,-60.5001"/>
</g>
<!-- Node10 -->
<g id="node10" class="node"><title>Node10</title>
<g id="a_node10"><a xlink:href="../../d4/d90/classview_1_1_key_controls.html#a4b73546f8ba8feee9e878b3cf743fb61" target="_top" xlink:title="view.KeyControls.KeyControls">
<polygon fill="white" stroke="black" points="1068.5,-11.5 1068.5,-30.5 1223.5,-30.5 1223.5,-11.5 1068.5,-11.5"/>
<text text-anchor="middle" x="1146" y="-18.5" font-family="Helvetica,sans-Serif" font-size="10.00">view.KeyControls.KeyControls</text>
</a>
</g>
</g>
<!-- Node9&#45;&gt;Node10 -->
<g id="edge9" class="edge"><title>Node9&#45;&gt;Node10</title>
<path fill="none" stroke="midnightblue" d="M1042.28,-17.6321C1050.91,-17.9151 1059.67,-18.2024 1068.26,-18.484"/>
<polygon fill="midnightblue" stroke="midnightblue" points="1042.34,-14.1323 1032.23,-17.3026 1042.11,-21.1285 1042.34,-14.1323"/>
</g>
<!-- Node11&#45;&gt;Node10 -->
<g id="edge11" class="edge"><title>Node11&#45;&gt;Node10</title>
<path fill="none" stroke="midnightblue" d="M862.278,-116.697C913.975,-118.885 979.997,-114.693 1032,-88 1054.17,-76.6183 1047.26,-58.8248 1068,-45 1077.32,-38.7867 1088.34,-34.113 1099.08,-30.6233"/>
<polygon fill="midnightblue" stroke="midnightblue" points="862.303,-113.194 852.138,-116.179 861.946,-120.185 862.303,-113.194"/>
</g>
</g>
</svg>
