<?xml version="1.0" encoding="UTF-8" standalone="no"?>
<!DOCTYPE svg PUBLIC "-//W3C//DTD SVG 1.1//EN"
 "http://www.w3.org/Graphics/SVG/1.1/DTD/svg11.dtd">
<!-- Generated by graphviz version 2.36.0 (20140111.2315)
 -->
<!-- Title: model.CommandsList.CommandsList Pages: 1 -->
<svg width="458pt" height="77pt"
 viewBox="0.00 0.00 458.00 77.00" xmlns="http://www.w3.org/2000/svg" xmlns:xlink="http://www.w3.org/1999/xlink">
<g id="graph0" class="graph" transform="scale(1 1) rotate(0) translate(4 73)">
<title>model.CommandsList.CommandsList</title>
<polygon fill="white" stroke="none" points="-4,4 -4,-73 454,-73 454,4 -4,4"/>
<!-- Node1 -->
<g id="node1" class="node"><title>Node1</title>
<polygon fill="#bfbfbf" stroke="black" points="0.5,-27.5 0.5,-46.5 197.5,-46.5 197.5,-27.5 0.5,-27.5"/>
<text text-anchor="middle" x="99" y="-34.5" font-family="Helvetica,sans-Serif" font-size="10.00">model.CommandsList.CommandsList</text>
</g>
<!-- Node2 -->
<g id="node2" class="node"><title>Node2</title>
<g id="a_node2"><a xlink:href="../../d6/df7/classmodel_1_1_commands_list.html#a29dc3829a29a19028ee4e016175b868c" target="_top" xlink:title="model.CommandsList.initCommandsMap">
<polygon fill="white" stroke="black" points="234.5,-49.5 234.5,-68.5 449.5,-68.5 449.5,-49.5 234.5,-49.5"/>
<text text-anchor="middle" x="342" y="-56.5" font-family="Helvetica,sans-Serif" font-size="10.00">model.CommandsList.initCommandsMap</text>
</a>
</g>
</g>
<!-- Node1&#45;&gt;Node2 -->
<g id="edge1" class="edge"><title>Node1&#45;&gt;Node2</title>
<path fill="none" stroke="midnightblue" d="M197.677,-45.9165C207.264,-46.7917 217.051,-47.6851 226.783,-48.5736"/>
<polygon fill="midnightblue" stroke="midnightblue" points="226.618,-52.0729 236.895,-49.4966 227.254,-45.1019 226.618,-52.0729"/>
</g>
<!-- Node3 -->
<g id="node3" class="node"><title>Node3</title>
<g id="a_node3"><a xlink:href="../../d6/df7/classmodel_1_1_commands_list.html#a3d06776e7eb3d8199573c06d81ae0fc3" target="_top" xlink:title="model.CommandsList.loadResource\lBundle">
<polygon fill="white" stroke="black" points="248,-0 248,-30 436,-30 436,-0 248,-0"/>
<text text-anchor="start" x="256" y="-18" font-family="Helvetica,sans-Serif" font-size="10.00">model.CommandsList.loadResource</text>
<text text-anchor="middle" x="342" y="-7" font-family="Helvetica,sans-Serif" font-size="10.00">Bundle</text>
</a>
</g>
</g>
<!-- Node1&#45;&gt;Node3 -->
<g id="edge2" class="edge"><title>Node1&#45;&gt;Node3</title>
<path fill="none" stroke="midnightblue" d="M197.677,-28.0835C210.881,-26.8781 224.466,-25.638 237.763,-24.4241"/>
<polygon fill="midnightblue" stroke="midnightblue" points="238.225,-27.8966 247.866,-23.5019 237.589,-20.9256 238.225,-27.8966"/>
</g>
</g>
</svg>
