<?xml version="1.0" encoding="UTF-8" standalone="no"?>
<!DOCTYPE svg PUBLIC "-//W3C//DTD SVG 1.1//EN"
 "http://www.w3.org/Graphics/SVG/1.1/DTD/svg11.dtd">
<!-- Generated by graphviz version 2.36.0 (20140111.2315)
 -->
<!-- Title: model.CommandsList.changeLanguage Pages: 1 -->
<svg width="392pt" height="38pt"
 viewBox="0.00 0.00 392.00 38.00" xmlns="http://www.w3.org/2000/svg" xmlns:xlink="http://www.w3.org/1999/xlink">
<g id="graph0" class="graph" transform="scale(1 1) rotate(0) translate(4 34)">
<title>model.CommandsList.changeLanguage</title>
<polygon fill="white" stroke="none" points="-4,4 -4,-34 388,-34 388,4 -4,4"/>
<!-- Node1 -->
<g id="node1" class="node"><title>Node1</title>
<polygon fill="#bfbfbf" stroke="black" points="0,-0 0,-30 160,-30 160,-0 0,-0"/>
<text text-anchor="start" x="8" y="-18" font-family="Helvetica,sans-Serif" font-size="10.00">model.CommandsList.change</text>
<text text-anchor="middle" x="80" y="-7" font-family="Helvetica,sans-Serif" font-size="10.00">Language</text>
</g>
<!-- Node2 -->
<g id="node2" class="node"><title>Node2</title>
<g id="a_node2"><a xlink:href="../../d6/df7/classmodel_1_1_commands_list.html#a3d06776e7eb3d8199573c06d81ae0fc3" target="_top" xlink:title="model.CommandsList.loadResource\lBundle">
<polygon fill="white" stroke="black" points="196,-0 196,-30 384,-30 384,-0 196,-0"/>
<text text-anchor="start" x="204" y="-18" font-family="Helvetica,sans-Serif" font-size="10.00">model.CommandsList.loadResource</text>
<text text-anchor="middle" x="290" y="-7" font-family="Helvetica,sans-Serif" font-size="10.00">Bundle</text>
</a>
</g>
</g>
<!-- Node1&#45;&gt;Node2 -->
<g id="edge1" class="edge"><title>Node1&#45;&gt;Node2</title>
<path fill="none" stroke="midnightblue" d="M160.229,-15C168.563,-15 177.123,-15 185.676,-15"/>
<polygon fill="midnightblue" stroke="midnightblue" points="185.701,-18.5001 195.701,-15 185.701,-11.5001 185.701,-18.5001"/>
</g>
</g>
</svg>
