<?xml version="1.0" encoding="UTF-8" standalone="no"?>
<!DOCTYPE svg PUBLIC "-//W3C//DTD SVG 1.1//EN"
 "http://www.w3.org/Graphics/SVG/1.1/DTD/svg11.dtd">
<!-- Generated by graphviz version 2.36.0 (20140111.2315)
 -->
<!-- Title: instructions.commands.DoTimes.execute Pages: 1 -->
<svg width="560pt" height="202pt"
 viewBox="0.00 0.00 560.00 202.00" xmlns="http://www.w3.org/2000/svg" xmlns:xlink="http://www.w3.org/1999/xlink">
<g id="graph0" class="graph" transform="scale(1 1) rotate(0) translate(4 198)">
<title>instructions.commands.DoTimes.execute</title>
<polygon fill="white" stroke="none" points="-4,4 -4,-198 556,-198 556,4 -4,4"/>
<!-- Node1 -->
<g id="node1" class="node"><title>Node1</title>
<polygon fill="#bfbfbf" stroke="black" points="0,-93 0,-123 146,-123 146,-93 0,-93"/>
<text text-anchor="start" x="8" y="-111" font-family="Helvetica,sans-Serif" font-size="10.00">instructions.commands.Do</text>
<text text-anchor="middle" x="73" y="-100" font-family="Helvetica,sans-Serif" font-size="10.00">Times.execute</text>
</g>
<!-- Node2 -->
<g id="node2" class="node"><title>Node2</title>
<g id="a_node2"><a xlink:href="../../d6/d2c/classmodel_1_1_variables_list.html#af9f957dd4df52af1e32f23b03d7a5550" target="_top" xlink:title="model.VariablesList.add">
<polygon fill="white" stroke="black" points="219.5,-174.5 219.5,-193.5 350.5,-193.5 350.5,-174.5 219.5,-174.5"/>
<text text-anchor="middle" x="285" y="-181.5" font-family="Helvetica,sans-Serif" font-size="10.00">model.VariablesList.add</text>
</a>
</g>
</g>
<!-- Node1&#45;&gt;Node2 -->
<g id="edge1" class="edge"><title>Node1&#45;&gt;Node2</title>
<path fill="none" stroke="midnightblue" d="M97.5029,-123.079C118.771,-136.061 151.364,-154.339 182,-165 190.683,-168.022 199.958,-170.594 209.244,-172.775"/>
<polygon fill="midnightblue" stroke="midnightblue" points="208.778,-176.256 219.297,-174.992 210.285,-169.421 208.778,-176.256"/>
</g>
<!-- Node3 -->
<g id="node3" class="node"><title>Node3</title>
<g id="a_node3"><a xlink:href="../../d4/d6d/classinstructions_1_1_variable_instruction.html#a358f18664885d2409d9551dcb93bf80b" target="_top" xlink:title="instructions.VariableInstruction.execute">
<polygon fill="white" stroke="black" points="182.5,-136.5 182.5,-155.5 387.5,-155.5 387.5,-136.5 182.5,-136.5"/>
<text text-anchor="middle" x="285" y="-143.5" font-family="Helvetica,sans-Serif" font-size="10.00">instructions.VariableInstruction.execute</text>
</a>
</g>
</g>
<!-- Node1&#45;&gt;Node3 -->
<g id="edge2" class="edge"><title>Node1&#45;&gt;Node3</title>
<path fill="none" stroke="midnightblue" d="M146.27,-121.077C170.77,-125.511 197.911,-130.422 221.578,-134.705"/>
<polygon fill="midnightblue" stroke="midnightblue" points="221.027,-138.162 231.491,-136.498 222.274,-131.274 221.027,-138.162"/>
</g>
<!-- Node4 -->
<g id="node4" class="node"><title>Node4</title>
<g id="a_node4"><a xlink:href="../../d6/d2c/classmodel_1_1_variables_list.html#a88d10c0a82c1d2a432f2127f522dfc20" target="_top" xlink:title="model.VariablesList.get">
<polygon fill="white" stroke="black" points="424,-117.5 424,-136.5 552,-136.5 552,-117.5 424,-117.5"/>
<text text-anchor="middle" x="488" y="-124.5" font-family="Helvetica,sans-Serif" font-size="10.00">model.VariablesList.get</text>
</a>
</g>
</g>
<!-- Node1&#45;&gt;Node4 -->
<g id="edge4" class="edge"><title>Node1&#45;&gt;Node4</title>
<path fill="none" stroke="midnightblue" d="M146.412,-111.331C221.424,-114.782 338.025,-120.146 413.453,-123.616"/>
<polygon fill="midnightblue" stroke="midnightblue" points="413.664,-127.13 423.815,-124.093 413.986,-120.137 413.664,-127.13"/>
</g>
<!-- Node5 -->
<g id="node5" class="node"><title>Node5</title>
<g id="a_node5"><a xlink:href="../../dc/dc1/classinstructions_1_1_list_instruction.html#a6242d687504eb6c42cd3834b3ddbfbbe" target="_top" xlink:title="instructions.ListInstruction.get\lInstructionList">
<polygon fill="white" stroke="black" points="204.5,-49 204.5,-79 365.5,-79 365.5,-49 204.5,-49"/>
<text text-anchor="start" x="212.5" y="-67" font-family="Helvetica,sans-Serif" font-size="10.00">instructions.ListInstruction.get</text>
<text text-anchor="middle" x="285" y="-56" font-family="Helvetica,sans-Serif" font-size="10.00">InstructionList</text>
</a>
</g>
</g>
<!-- Node1&#45;&gt;Node5 -->
<g id="edge5" class="edge"><title>Node1&#45;&gt;Node5</title>
<path fill="none" stroke="midnightblue" d="M145.683,-92.9808C163.913,-89.1612 183.637,-85.0284 202.324,-81.1131"/>
<polygon fill="midnightblue" stroke="midnightblue" points="203.214,-84.5026 212.284,-79.0262 201.779,-77.6514 203.214,-84.5026"/>
</g>
<!-- Node6 -->
<g id="node6" class="node"><title>Node6</title>
<g id="a_node6"><a xlink:href="../../df/dcf/classinstructions_1_1_user_defined_instruction.html#ac2a1915074b04c4ceacfac5ef461a44b" target="_top" xlink:title="instructions.UserDefined\lInstruction.getName">
<polygon fill="white" stroke="black" points="218,-0 218,-30 352,-30 352,-0 218,-0"/>
<text text-anchor="start" x="226" y="-18" font-family="Helvetica,sans-Serif" font-size="10.00">instructions.UserDefined</text>
<text text-anchor="middle" x="285" y="-7" font-family="Helvetica,sans-Serif" font-size="10.00">Instruction.getName</text>
</a>
</g>
</g>
<!-- Node1&#45;&gt;Node6 -->
<g id="edge6" class="edge"><title>Node1&#45;&gt;Node6</title>
<path fill="none" stroke="midnightblue" d="M93.6244,-92.8973C114.484,-77.5234 148.955,-54.0156 182,-40 190.32,-36.471 199.243,-33.3713 208.223,-30.667"/>
<polygon fill="midnightblue" stroke="midnightblue" points="209.308,-33.997 217.963,-27.8861 207.386,-27.2659 209.308,-33.997"/>
</g>
<!-- Node3&#45;&gt;Node4 -->
<g id="edge3" class="edge"><title>Node3&#45;&gt;Node4</title>
<path fill="none" stroke="midnightblue" d="M386.794,-136.472C395.876,-135.614 404.955,-134.755 413.734,-133.926"/>
<polygon fill="midnightblue" stroke="midnightblue" points="414.258,-137.392 423.884,-132.966 413.599,-130.423 414.258,-137.392"/>
</g>
</g>
</svg>
