<?xml version="1.0" encoding="UTF-8" standalone="no"?>
<!DOCTYPE svg PUBLIC "-//W3C//DTD SVG 1.1//EN"
 "http://www.w3.org/Graphics/SVG/1.1/DTD/svg11.dtd">
<!-- Generated by graphviz version 2.36.0 (20140111.2315)
 -->
<!-- Title: instructions.commands.Ask.execute Pages: 1 -->
<svg width="564pt" height="77pt"
 viewBox="0.00 0.00 564.00 77.00" xmlns="http://www.w3.org/2000/svg" xmlns:xlink="http://www.w3.org/1999/xlink">
<g id="graph0" class="graph" transform="scale(1 1) rotate(0) translate(4 73)">
<title>instructions.commands.Ask.execute</title>
<polygon fill="white" stroke="none" points="-4,4 -4,-73 560,-73 560,4 -4,4"/>
<!-- Node1 -->
<g id="node1" class="node"><title>Node1</title>
<polygon fill="#bfbfbf" stroke="black" points="0.5,-27.5 0.5,-46.5 191.5,-46.5 191.5,-27.5 0.5,-27.5"/>
<text text-anchor="middle" x="96" y="-34.5" font-family="Helvetica,sans-Serif" font-size="10.00">instructions.commands.Ask.execute</text>
</g>
<!-- Node2 -->
<g id="node2" class="node"><title>Node2</title>
<g id="a_node2"><a xlink:href="../../df/db7/classmodel_1_1_turtles_list.html#aa87ee4e1a6d9318419946ad23a9fbed4" target="_top" xlink:title="model.TurtlesList.addScope">
<polygon fill="white" stroke="black" points="228,-49.5 228,-68.5 376,-68.5 376,-49.5 228,-49.5"/>
<text text-anchor="middle" x="302" y="-56.5" font-family="Helvetica,sans-Serif" font-size="10.00">model.TurtlesList.addScope</text>
</a>
</g>
</g>
<!-- Node1&#45;&gt;Node2 -->
<g id="edge1" class="edge"><title>Node1&#45;&gt;Node2</title>
<path fill="none" stroke="midnightblue" d="M185.291,-46.5216C196.062,-47.6832 207.042,-48.8673 217.737,-50.0206"/>
<polygon fill="midnightblue" stroke="midnightblue" points="217.569,-53.5228 227.887,-51.1153 218.32,-46.5631 217.569,-53.5228"/>
</g>
<!-- Node4 -->
<g id="node4" class="node"><title>Node4</title>
<g id="a_node4"><a xlink:href="../../df/db7/classmodel_1_1_turtles_list.html#a58ce38d8e7f46c0464022db8a079bf37" target="_top" xlink:title="model.TurtlesList.remove\lScope">
<polygon fill="white" stroke="black" points="233.5,-0 233.5,-30 370.5,-30 370.5,-0 233.5,-0"/>
<text text-anchor="start" x="241.5" y="-18" font-family="Helvetica,sans-Serif" font-size="10.00">model.TurtlesList.remove</text>
<text text-anchor="middle" x="302" y="-7" font-family="Helvetica,sans-Serif" font-size="10.00">Scope</text>
</a>
</g>
</g>
<!-- Node1&#45;&gt;Node4 -->
<g id="edge3" class="edge"><title>Node1&#45;&gt;Node4</title>
<path fill="none" stroke="midnightblue" d="M185.291,-27.4784C197.91,-26.1176 210.814,-24.7259 223.212,-23.3889"/>
<polygon fill="midnightblue" stroke="midnightblue" points="223.922,-26.8327 233.489,-22.2806 223.172,-19.873 223.922,-26.8327"/>
</g>
<!-- Node3 -->
<g id="node3" class="node"><title>Node3</title>
<g id="a_node3"><a xlink:href="../../df/db7/classmodel_1_1_turtles_list.html#a45041fe0cefc4a5b04cf27f63297f3a4" target="_top" xlink:title="model.TurtlesList.setActive">
<polygon fill="white" stroke="black" points="412,-49.5 412,-68.5 556,-68.5 556,-49.5 412,-49.5"/>
<text text-anchor="middle" x="484" y="-56.5" font-family="Helvetica,sans-Serif" font-size="10.00">model.TurtlesList.setActive</text>
</a>
</g>
</g>
<!-- Node2&#45;&gt;Node3 -->
<g id="edge2" class="edge"><title>Node2&#45;&gt;Node3</title>
<path fill="none" stroke="midnightblue" d="M376.213,-59C384.586,-59 393.16,-59 401.63,-59"/>
<polygon fill="midnightblue" stroke="midnightblue" points="401.892,-62.5001 411.892,-59 401.892,-55.5001 401.892,-62.5001"/>
</g>
</g>
</svg>
