<?xml version="1.0" encoding="UTF-8" standalone="no"?>
<!DOCTYPE svg PUBLIC "-//W3C//DTD SVG 1.1//EN"
 "http://www.w3.org/Graphics/SVG/1.1/DTD/svg11.dtd">
<!-- Generated by graphviz version 2.36.0 (20140111.2315)
 -->
<!-- Title: instructions.VariableInstruction Pages: 1 -->
<svg width="182pt" height="264pt"
 viewBox="0.00 0.00 182.00 264.00" xmlns="http://www.w3.org/2000/svg" xmlns:xlink="http://www.w3.org/1999/xlink">
<g id="graph0" class="graph" transform="scale(1 1) rotate(0) translate(4 260)">
<title>instructions.VariableInstruction</title>
<polygon fill="white" stroke="none" points="-4,4 -4,-260 178,-260 178,4 -4,4"/>
<!-- Node1 -->
<g id="node1" class="node"><title>Node1</title>
<polygon fill="#bfbfbf" stroke="black" points="5,-0.5 5,-19.5 169,-19.5 169,-0.5 5,-0.5"/>
<text text-anchor="middle" x="87" y="-7.5" font-family="Helvetica,sans-Serif" font-size="10.00">instructions.VariableInstruction</text>
</g>
<!-- Node2 -->
<g id="node2" class="node"><title>Node2</title>
<g id="a_node2"><a xlink:href="../../df/dcf/classinstructions_1_1_user_defined_instruction.html" target="_top" xlink:title="instructions.UserDefined\lInstruction">
<polygon fill="white" stroke="black" points="20,-57 20,-87 154,-87 154,-57 20,-57"/>
<text text-anchor="start" x="28" y="-75" font-family="Helvetica,sans-Serif" font-size="10.00">instructions.UserDefined</text>
<text text-anchor="middle" x="87" y="-64" font-family="Helvetica,sans-Serif" font-size="10.00">Instruction</text>
</a>
</g>
</g>
<!-- Node2&#45;&gt;Node1 -->
<g id="edge1" class="edge"><title>Node2&#45;&gt;Node1</title>
<path fill="none" stroke="midnightblue" d="M87,-46.5858C87,-37.0743 87,-26.7864 87,-19.7305"/>
<polygon fill="midnightblue" stroke="midnightblue" points="83.5001,-46.7808 87,-56.7808 90.5001,-46.7809 83.5001,-46.7808"/>
</g>
<!-- Node3 -->
<g id="node3" class="node"><title>Node3</title>
<g id="a_node3"><a xlink:href="../../d9/d85/classinstructions_1_1_parameter_instruction.html" target="_top" xlink:title="instructions.ParameterInstruction">
<polygon fill="white" stroke="black" points="-1,-124.5 -1,-143.5 175,-143.5 175,-124.5 -1,-124.5"/>
<text text-anchor="middle" x="87" y="-131.5" font-family="Helvetica,sans-Serif" font-size="10.00">instructions.ParameterInstruction</text>
</a>
</g>
</g>
<!-- Node3&#45;&gt;Node2 -->
<g id="edge2" class="edge"><title>Node3&#45;&gt;Node2</title>
<path fill="none" stroke="midnightblue" d="M87,-114.371C87,-105.585 87,-95.2721 87,-87.1408"/>
<polygon fill="midnightblue" stroke="midnightblue" points="83.5001,-114.403 87,-124.403 90.5001,-114.403 83.5001,-114.403"/>
</g>
<!-- Node4 -->
<g id="node4" class="node"><title>Node4</title>
<g id="a_node4"><a xlink:href="../../d2/d93/interfaceinstructions_1_1_instruction.html" target="_top" xlink:title="instructions.Instruction">
<polygon fill="white" stroke="black" points="24.5,-180.5 24.5,-199.5 149.5,-199.5 149.5,-180.5 24.5,-180.5"/>
<text text-anchor="middle" x="87" y="-187.5" font-family="Helvetica,sans-Serif" font-size="10.00">instructions.Instruction</text>
</a>
</g>
</g>
<!-- Node4&#45;&gt;Node3 -->
<g id="edge3" class="edge"><title>Node4&#45;&gt;Node3</title>
<path fill="none" stroke="midnightblue" d="M87,-169.805C87,-160.91 87,-150.78 87,-143.751"/>
<polygon fill="midnightblue" stroke="midnightblue" points="83.5001,-170.083 87,-180.083 90.5001,-170.083 83.5001,-170.083"/>
</g>
<!-- Node5 -->
<g id="node5" class="node"><title>Node5</title>
<polygon fill="white" stroke="#bfbfbf" points="51.5,-236.5 51.5,-255.5 122.5,-255.5 122.5,-236.5 51.5,-236.5"/>
<text text-anchor="middle" x="87" y="-243.5" font-family="Helvetica,sans-Serif" font-size="10.00">Serializable</text>
</g>
<!-- Node5&#45;&gt;Node4 -->
<g id="edge4" class="edge"><title>Node5&#45;&gt;Node4</title>
<path fill="none" stroke="midnightblue" d="M87,-225.805C87,-216.91 87,-206.78 87,-199.751"/>
<polygon fill="midnightblue" stroke="midnightblue" points="83.5001,-226.083 87,-236.083 90.5001,-226.083 83.5001,-226.083"/>
</g>
</g>
</svg>
