<?xml version="1.0" encoding="UTF-8" standalone="no"?>
<!DOCTYPE svg PUBLIC "-//W3C//DTD SVG 1.1//EN"
 "http://www.w3.org/Graphics/SVG/1.1/DTD/svg11.dtd">
<!-- Generated by graphviz version 2.36.0 (20140111.2315)
 -->
<!-- Title: instructions.commands.ArcTangent Pages: 1 -->
<svg width="182pt" height="264pt"
 viewBox="0.00 0.00 182.00 264.00" xmlns="http://www.w3.org/2000/svg" xmlns:xlink="http://www.w3.org/1999/xlink">
<g id="graph0" class="graph" transform="scale(1 1) rotate(0) translate(4 260)">
<title>instructions.commands.ArcTangent</title>
<polygon fill="white" stroke="none" points="-4,4 -4,-260 178,-260 178,4 -4,4"/>
<!-- Node1 -->
<g id="node1" class="node"><title>Node1</title>
<polygon fill="#bfbfbf" stroke="black" points="13,-1 13,-31 161,-31 161,-1 13,-1"/>
<text text-anchor="start" x="21" y="-19" font-family="Helvetica,sans-Serif" font-size="10.00">instructions.commands.Arc</text>
<text text-anchor="middle" x="87" y="-8" font-family="Helvetica,sans-Serif" font-size="10.00">Tangent</text>
</g>
<!-- Node2 -->
<g id="node2" class="node"><title>Node2</title>
<g id="a_node2"><a xlink:href="../../d0/d4c/classinstructions_1_1_unary_instruction.html" target="_top" xlink:title="instructions.UnaryInstruction">
<polygon fill="white" stroke="black" points="10,-68.5 10,-87.5 164,-87.5 164,-68.5 10,-68.5"/>
<text text-anchor="middle" x="87" y="-75.5" font-family="Helvetica,sans-Serif" font-size="10.00">instructions.UnaryInstruction</text>
</a>
</g>
</g>
<!-- Node2&#45;&gt;Node1 -->
<g id="edge1" class="edge"><title>Node2&#45;&gt;Node1</title>
<path fill="none" stroke="midnightblue" d="M87,-58.3707C87,-49.5849 87,-39.2721 87,-31.1408"/>
<polygon fill="midnightblue" stroke="midnightblue" points="83.5001,-58.4034 87,-68.4035 90.5001,-58.4035 83.5001,-58.4034"/>
</g>
<!-- Node3 -->
<g id="node3" class="node"><title>Node3</title>
<g id="a_node3"><a xlink:href="../../d9/d85/classinstructions_1_1_parameter_instruction.html" target="_top" xlink:title="instructions.ParameterInstruction">
<polygon fill="white" stroke="black" points="-1,-124.5 -1,-143.5 175,-143.5 175,-124.5 -1,-124.5"/>
<text text-anchor="middle" x="87" y="-131.5" font-family="Helvetica,sans-Serif" font-size="10.00">instructions.ParameterInstruction</text>
</a>
</g>
</g>
<!-- Node3&#45;&gt;Node2 -->
<g id="edge2" class="edge"><title>Node3&#45;&gt;Node2</title>
<path fill="none" stroke="midnightblue" d="M87,-113.805C87,-104.91 87,-94.7798 87,-87.7511"/>
<polygon fill="midnightblue" stroke="midnightblue" points="83.5001,-114.083 87,-124.083 90.5001,-114.083 83.5001,-114.083"/>
</g>
<!-- Node4 -->
<g id="node4" class="node"><title>Node4</title>
<g id="a_node4"><a xlink:href="../../d2/d93/interfaceinstructions_1_1_instruction.html" target="_top" xlink:title="instructions.Instruction">
<polygon fill="white" stroke="black" points="24.5,-180.5 24.5,-199.5 149.5,-199.5 149.5,-180.5 24.5,-180.5"/>
<text text-anchor="middle" x="87" y="-187.5" font-family="Helvetica,sans-Serif" font-size="10.00">instructions.Instruction</text>
</a>
</g>
</g>
<!-- Node4&#45;&gt;Node3 -->
<g id="edge3" class="edge"><title>Node4&#45;&gt;Node3</title>
<path fill="none" stroke="midnightblue" d="M87,-169.805C87,-160.91 87,-150.78 87,-143.751"/>
<polygon fill="midnightblue" stroke="midnightblue" points="83.5001,-170.083 87,-180.083 90.5001,-170.083 83.5001,-170.083"/>
</g>
<!-- Node5 -->
<g id="node5" class="node"><title>Node5</title>
<polygon fill="white" stroke="#bfbfbf" points="51.5,-236.5 51.5,-255.5 122.5,-255.5 122.5,-236.5 51.5,-236.5"/>
<text text-anchor="middle" x="87" y="-243.5" font-family="Helvetica,sans-Serif" font-size="10.00">Serializable</text>
</g>
<!-- Node5&#45;&gt;Node4 -->
<g id="edge4" class="edge"><title>Node5&#45;&gt;Node4</title>
<path fill="none" stroke="midnightblue" d="M87,-225.805C87,-216.91 87,-206.78 87,-199.751"/>
<polygon fill="midnightblue" stroke="midnightblue" points="83.5001,-226.083 87,-236.083 90.5001,-226.083 83.5001,-226.083"/>
</g>
</g>
</svg>
