<?xml version="1.0" encoding="UTF-8" standalone="no"?>
<!DOCTYPE svg PUBLIC "-//W3C//DTD SVG 1.1//EN"
 "http://www.w3.org/Graphics/SVG/1.1/DTD/svg11.dtd">
<!-- Generated by graphviz version 2.36.0 (20140111.2315)
 -->
<!-- Title: model.Pen.setPenDown Pages: 1 -->
<svg width="716pt" height="150pt"
 viewBox="0.00 0.00 716.00 150.00" xmlns="http://www.w3.org/2000/svg" xmlns:xlink="http://www.w3.org/1999/xlink">
<g id="graph0" class="graph" transform="scale(1 1) rotate(0) translate(4 146)">
<title>model.Pen.setPenDown</title>
<polygon fill="white" stroke="none" points="-4,4 -4,-146 712,-146 712,4 -4,4"/>
<!-- Node1 -->
<g id="node1" class="node"><title>Node1</title>
<polygon fill="#bfbfbf" stroke="black" points="0,-76.5 0,-95.5 130,-95.5 130,-76.5 0,-76.5"/>
<text text-anchor="middle" x="65" y="-83.5" font-family="Helvetica,sans-Serif" font-size="10.00">model.Pen.setPenDown</text>
</g>
<!-- Node2 -->
<g id="node2" class="node"><title>Node2</title>
<g id="a_node2"><a xlink:href="../../dd/dc5/classview_1_1_settings_view.html#a8b044653bb3dcbb300082c4103d14249" target="_top" xlink:title="view.SettingsView.addLine\lProperty">
<polygon fill="white" stroke="black" points="368,-112 368,-142 508,-142 508,-112 368,-112"/>
<text text-anchor="start" x="376" y="-130" font-family="Helvetica,sans-Serif" font-size="10.00">view.SettingsView.addLine</text>
<text text-anchor="middle" x="438" y="-119" font-family="Helvetica,sans-Serif" font-size="10.00">Property</text>
</a>
</g>
</g>
<!-- Node1&#45;&gt;Node2 -->
<g id="edge1" class="edge"><title>Node1&#45;&gt;Node2</title>
<path fill="none" stroke="midnightblue" d="M92.3621,-100.127C112.03,-109.832 139.896,-121.856 166,-127 233.626,-140.325 312.601,-138.399 367.789,-134.314"/>
<polygon fill="midnightblue" stroke="midnightblue" points="93.9115,-96.9889 83.4094,-95.59 90.7469,-103.233 93.9115,-96.9889"/>
</g>
<!-- Node4 -->
<g id="node4" class="node"><title>Node4</title>
<g id="a_node4"><a xlink:href="../../de/ded/classmodel_1_1_pen.html#a29799b12d4e0880c5479a4c059f5b8d2" target="_top" xlink:title="model.Pen.changeLineProperty">
<polygon fill="white" stroke="black" points="166,-98.5 166,-117.5 332,-117.5 332,-98.5 166,-98.5"/>
<text text-anchor="middle" x="249" y="-105.5" font-family="Helvetica,sans-Serif" font-size="10.00">model.Pen.changeLineProperty</text>
</a>
</g>
</g>
<!-- Node1&#45;&gt;Node4 -->
<g id="edge3" class="edge"><title>Node1&#45;&gt;Node4</title>
<path fill="none" stroke="midnightblue" d="M140.336,-94.9857C149.818,-96.1318 159.549,-97.3081 169.099,-98.4626"/>
<polygon fill="midnightblue" stroke="midnightblue" points="140.514,-91.4818 130.166,-93.7564 139.674,-98.4312 140.514,-91.4818"/>
</g>
<!-- Node5 -->
<g id="node5" class="node"><title>Node5</title>
<g id="a_node5"><a xlink:href="../../d6/d1f/classinstructions_1_1commands_1_1_pen_up.html#a83de05f9c5b0b6454ac03f3c38d8dfb1" target="_top" xlink:title="instructions.commands.Pen\lUp.execute">
<polygon fill="white" stroke="black" points="174,-49 174,-79 324,-79 324,-49 174,-49"/>
<text text-anchor="start" x="182" y="-67" font-family="Helvetica,sans-Serif" font-size="10.00">instructions.commands.Pen</text>
<text text-anchor="middle" x="249" y="-56" font-family="Helvetica,sans-Serif" font-size="10.00">Up.execute</text>
</a>
</g>
</g>
<!-- Node1&#45;&gt;Node5 -->
<g id="edge5" class="edge"><title>Node1&#45;&gt;Node5</title>
<path fill="none" stroke="midnightblue" d="M140.233,-77.0268C151.321,-75.6864 162.754,-74.3045 173.84,-72.9644"/>
<polygon fill="midnightblue" stroke="midnightblue" points="139.674,-73.5688 130.166,-78.2436 140.514,-80.5182 139.674,-73.5688"/>
</g>
<!-- Node6 -->
<g id="node6" class="node"><title>Node6</title>
<g id="a_node6"><a xlink:href="../../dc/df9/classinstructions_1_1commands_1_1_pen_down.html#a24297ec2491de8ad2c63f3f1a26b71f1" target="_top" xlink:title="instructions.commands.Pen\lDown.execute">
<polygon fill="white" stroke="black" points="174,-0 174,-30 324,-30 324,-0 174,-0"/>
<text text-anchor="start" x="182" y="-18" font-family="Helvetica,sans-Serif" font-size="10.00">instructions.commands.Pen</text>
<text text-anchor="middle" x="249" y="-7" font-family="Helvetica,sans-Serif" font-size="10.00">Down.execute</text>
</a>
</g>
</g>
<!-- Node1&#45;&gt;Node6 -->
<g id="edge6" class="edge"><title>Node1&#45;&gt;Node6</title>
<path fill="none" stroke="midnightblue" d="M93.9198,-71.9218C113.739,-62.235 141.134,-49.46 166,-40 175.181,-36.5072 185.078,-33.1537 194.712,-30.0999"/>
<polygon fill="midnightblue" stroke="midnightblue" points="92.2618,-68.837 84.8431,-76.401 95.3596,-75.1143 92.2618,-68.837"/>
</g>
<!-- Node3 -->
<g id="node3" class="node"><title>Node3</title>
<g id="a_node3"><a xlink:href="../../dd/dc5/classview_1_1_settings_view.html#a34b8df753ce7a3b7d917a01ff315edc8" target="_top" xlink:title="view.SettingsView.SettingsView">
<polygon fill="white" stroke="black" points="544,-117.5 544,-136.5 708,-136.5 708,-117.5 544,-117.5"/>
<text text-anchor="middle" x="626" y="-124.5" font-family="Helvetica,sans-Serif" font-size="10.00">view.SettingsView.SettingsView</text>
</a>
</g>
</g>
<!-- Node2&#45;&gt;Node3 -->
<g id="edge2" class="edge"><title>Node2&#45;&gt;Node3</title>
<path fill="none" stroke="midnightblue" d="M518.404,-127C526.797,-127 535.342,-127 543.756,-127"/>
<polygon fill="midnightblue" stroke="midnightblue" points="518.26,-123.5 508.26,-127 518.26,-130.5 518.26,-123.5"/>
</g>
<!-- Node4&#45;&gt;Node2 -->
<g id="edge4" class="edge"><title>Node4&#45;&gt;Node2</title>
<path fill="none" stroke="midnightblue" d="M342.165,-117.364C350.828,-118.245 359.506,-119.126 367.901,-119.979"/>
<polygon fill="midnightblue" stroke="midnightblue" points="342.324,-113.863 332.021,-116.334 341.616,-120.827 342.324,-113.863"/>
</g>
</g>
</svg>
