<?xml version="1.0" encoding="UTF-8" standalone="no"?>
<!DOCTYPE svg PUBLIC "-//W3C//DTD SVG 1.1//EN"
 "http://www.w3.org/Graphics/SVG/1.1/DTD/svg11.dtd">
<!-- Generated by graphviz version 2.36.0 (20140111.2315)
 -->
<!-- Title: model.Pen.setStrokeWidth Pages: 1 -->
<svg width="726pt" height="82pt"
 viewBox="0.00 0.00 726.00 82.00" xmlns="http://www.w3.org/2000/svg" xmlns:xlink="http://www.w3.org/1999/xlink">
<g id="graph0" class="graph" transform="scale(1 1) rotate(0) translate(4 78)">
<title>model.Pen.setStrokeWidth</title>
<polygon fill="white" stroke="none" points="-4,4 -4,-78 722,-78 722,4 -4,4"/>
<!-- Node1 -->
<g id="node1" class="node"><title>Node1</title>
<polygon fill="#bfbfbf" stroke="black" points="0.5,-27.5 0.5,-46.5 143.5,-46.5 143.5,-27.5 0.5,-27.5"/>
<text text-anchor="middle" x="72" y="-34.5" font-family="Helvetica,sans-Serif" font-size="10.00">model.Pen.setStrokeWidth</text>
</g>
<!-- Node2 -->
<g id="node2" class="node"><title>Node2</title>
<g id="a_node2"><a xlink:href="../../d1/dde/classinstructions_1_1commands_1_1_set_pen_size.html#a491d90c5cafa9267a7f135a660f5085f" target="_top" xlink:title="instructions.commands.Set\lPenSize.execute">
<polygon fill="white" stroke="black" points="186.5,-44 186.5,-74 335.5,-74 335.5,-44 186.5,-44"/>
<text text-anchor="start" x="194.5" y="-62" font-family="Helvetica,sans-Serif" font-size="10.00">instructions.commands.Set</text>
<text text-anchor="middle" x="261" y="-51" font-family="Helvetica,sans-Serif" font-size="10.00">PenSize.execute</text>
</a>
</g>
</g>
<!-- Node1&#45;&gt;Node2 -->
<g id="edge1" class="edge"><title>Node1&#45;&gt;Node2</title>
<path fill="none" stroke="midnightblue" d="M153.949,-46.5235C164.736,-47.7924 175.749,-49.0881 186.401,-50.3413"/>
<polygon fill="midnightblue" stroke="midnightblue" points="154.037,-43.0097 143.697,-45.3173 153.219,-49.9618 154.037,-43.0097"/>
</g>
<!-- Node3 -->
<g id="node3" class="node"><title>Node3</title>
<g id="a_node3"><a xlink:href="../../d3/d88/classmodel_1_1_slogo_model.html#a57ae2fb85245476c02d5e7208bf64be3" target="_top" xlink:title="model.SlogoModel.setPenSize">
<polygon fill="white" stroke="black" points="180.5,-5.5 180.5,-24.5 341.5,-24.5 341.5,-5.5 180.5,-5.5"/>
<text text-anchor="middle" x="261" y="-12.5" font-family="Helvetica,sans-Serif" font-size="10.00">model.SlogoModel.setPenSize</text>
</a>
</g>
</g>
<!-- Node1&#45;&gt;Node3 -->
<g id="edge2" class="edge"><title>Node1&#45;&gt;Node3</title>
<path fill="none" stroke="midnightblue" d="M153.641,-27.5129C162.523,-26.4679 171.563,-25.4043 180.432,-24.3609"/>
<polygon fill="midnightblue" stroke="midnightblue" points="153.219,-24.0382 143.697,-28.6827 154.037,-30.9903 153.219,-24.0382"/>
</g>
<!-- Node4 -->
<g id="node4" class="node"><title>Node4</title>
<g id="a_node4"><a xlink:href="../../dd/dc5/classview_1_1_settings_view.html#af8bf8067258762b6b65bd149d2e5fbe8" target="_top" xlink:title="view.SettingsView.addPen\lSlider">
<polygon fill="white" stroke="black" points="378.5,-0 378.5,-30 517.5,-30 517.5,-0 378.5,-0"/>
<text text-anchor="start" x="386.5" y="-18" font-family="Helvetica,sans-Serif" font-size="10.00">view.SettingsView.addPen</text>
<text text-anchor="middle" x="448" y="-7" font-family="Helvetica,sans-Serif" font-size="10.00">Slider</text>
</a>
</g>
</g>
<!-- Node3&#45;&gt;Node4 -->
<g id="edge3" class="edge"><title>Node3&#45;&gt;Node4</title>
<path fill="none" stroke="midnightblue" d="M351.624,-15C360.593,-15 369.598,-15 378.302,-15"/>
<polygon fill="midnightblue" stroke="midnightblue" points="351.53,-11.5001 341.53,-15 351.53,-18.5001 351.53,-11.5001"/>
</g>
<!-- Node5 -->
<g id="node5" class="node"><title>Node5</title>
<g id="a_node5"><a xlink:href="../../dd/dc5/classview_1_1_settings_view.html#a34b8df753ce7a3b7d917a01ff315edc8" target="_top" xlink:title="view.SettingsView.SettingsView">
<polygon fill="white" stroke="black" points="554,-5.5 554,-24.5 718,-24.5 718,-5.5 554,-5.5"/>
<text text-anchor="middle" x="636" y="-12.5" font-family="Helvetica,sans-Serif" font-size="10.00">view.SettingsView.SettingsView</text>
</a>
</g>
</g>
<!-- Node4&#45;&gt;Node5 -->
<g id="edge4" class="edge"><title>Node4&#45;&gt;Node5</title>
<path fill="none" stroke="midnightblue" d="M527.799,-15C536.458,-15 545.284,-15 553.969,-15"/>
<polygon fill="midnightblue" stroke="midnightblue" points="527.731,-11.5001 517.731,-15 527.731,-18.5001 527.731,-11.5001"/>
</g>
</g>
</svg>
