<?xml version="1.0" encoding="UTF-8" standalone="no"?>
<!DOCTYPE svg PUBLIC "-//W3C//DTD SVG 1.1//EN"
 "http://www.w3.org/Graphics/SVG/1.1/DTD/svg11.dtd">
<!-- Generated by graphviz version 2.36.0 (20140111.2315)
 -->
<!-- Title: model.Pen.clear Pages: 1 -->
<svg width="664pt" height="28pt"
 viewBox="0.00 0.00 664.00 28.00" xmlns="http://www.w3.org/2000/svg" xmlns:xlink="http://www.w3.org/1999/xlink">
<g id="graph0" class="graph" transform="scale(1 1) rotate(0) translate(4 24)">
<title>model.Pen.clear</title>
<polygon fill="white" stroke="none" points="-4,4 -4,-24 660,-24 660,4 -4,4"/>
<!-- Node1 -->
<g id="node1" class="node"><title>Node1</title>
<polygon fill="#bfbfbf" stroke="black" points="0,-0.5 0,-19.5 94,-19.5 94,-0.5 0,-0.5"/>
<text text-anchor="middle" x="47" y="-7.5" font-family="Helvetica,sans-Serif" font-size="10.00">model.Pen.clear</text>
</g>
<!-- Node2 -->
<g id="node2" class="node"><title>Node2</title>
<g id="a_node2"><a xlink:href="../../d3/d88/classmodel_1_1_slogo_model.html#abfeceb3da7ed60166c8137597cacc2fc" target="_top" xlink:title="model.SlogoModel.clear">
<polygon fill="white" stroke="black" points="130.5,-0.5 130.5,-19.5 261.5,-19.5 261.5,-0.5 130.5,-0.5"/>
<text text-anchor="middle" x="196" y="-7.5" font-family="Helvetica,sans-Serif" font-size="10.00">model.SlogoModel.clear</text>
</a>
</g>
</g>
<!-- Node1&#45;&gt;Node2 -->
<g id="edge1" class="edge"><title>Node1&#45;&gt;Node2</title>
<path fill="none" stroke="midnightblue" d="M104.342,-10C112.892,-10 121.77,-10 130.478,-10"/>
<polygon fill="midnightblue" stroke="midnightblue" points="104.108,-6.5001 94.1084,-10 104.108,-13.5001 104.108,-6.5001"/>
</g>
<!-- Node3 -->
<g id="node3" class="node"><title>Node3</title>
<g id="a_node3"><a xlink:href="../../dd/dc5/classview_1_1_settings_view.html#a4ad3e69e9ba90e013df06b1f7b5ef6d0" target="_top" xlink:title="view.SettingsView.addButtons">
<polygon fill="white" stroke="black" points="298,-0.5 298,-19.5 456,-19.5 456,-0.5 298,-0.5"/>
<text text-anchor="middle" x="377" y="-7.5" font-family="Helvetica,sans-Serif" font-size="10.00">view.SettingsView.addButtons</text>
</a>
</g>
</g>
<!-- Node2&#45;&gt;Node3 -->
<g id="edge2" class="edge"><title>Node2&#45;&gt;Node3</title>
<path fill="none" stroke="midnightblue" d="M271.636,-10C280.256,-10 289.065,-10 297.732,-10"/>
<polygon fill="midnightblue" stroke="midnightblue" points="271.623,-6.5001 261.623,-10 271.623,-13.5001 271.623,-6.5001"/>
</g>
<!-- Node4 -->
<g id="node4" class="node"><title>Node4</title>
<g id="a_node4"><a xlink:href="../../dd/dc5/classview_1_1_settings_view.html#a34b8df753ce7a3b7d917a01ff315edc8" target="_top" xlink:title="view.SettingsView.SettingsView">
<polygon fill="white" stroke="black" points="492,-0.5 492,-19.5 656,-19.5 656,-0.5 492,-0.5"/>
<text text-anchor="middle" x="574" y="-7.5" font-family="Helvetica,sans-Serif" font-size="10.00">view.SettingsView.SettingsView</text>
</a>
</g>
</g>
<!-- Node3&#45;&gt;Node4 -->
<g id="edge3" class="edge"><title>Node3&#45;&gt;Node4</title>
<path fill="none" stroke="midnightblue" d="M466.191,-10C474.761,-10 483.428,-10 491.924,-10"/>
<polygon fill="midnightblue" stroke="midnightblue" points="466.19,-6.5001 456.19,-10 466.19,-13.5001 466.19,-6.5001"/>
</g>
</g>
</svg>
