<?xml version="1.0" encoding="UTF-8" standalone="no"?>
<!DOCTYPE svg PUBLIC "-//W3C//DTD SVG 1.1//EN"
 "http://www.w3.org/Graphics/SVG/1.1/DTD/svg11.dtd">
<!-- Generated by graphviz version 2.36.0 (20140111.2315)
 -->
<!-- Title: model.Pen.getCustom Pages: 1 -->
<svg width="318pt" height="136pt"
 viewBox="0.00 0.00 318.00 136.00" xmlns="http://www.w3.org/2000/svg" xmlns:xlink="http://www.w3.org/1999/xlink">
<g id="graph0" class="graph" transform="scale(1 1) rotate(0) translate(4 132)">
<title>model.Pen.getCustom</title>
<polygon fill="white" stroke="none" points="-4,4 -4,-132 314,-132 314,4 -4,4"/>
<!-- Node1 -->
<g id="node1" class="node"><title>Node1</title>
<polygon fill="#bfbfbf" stroke="black" points="0,-54.5 0,-73.5 124,-73.5 124,-54.5 0,-54.5"/>
<text text-anchor="middle" x="62" y="-61.5" font-family="Helvetica,sans-Serif" font-size="10.00">model.Pen.getCustom</text>
</g>
<!-- Node2 -->
<g id="node2" class="node"><title>Node2</title>
<g id="a_node2"><a xlink:href="../../df/d09/classinstructions_1_1commands_1_1_get_pen_color.html#ad9f94dfe9b9366da3b40f79e13302959" target="_top" xlink:title="instructions.commands.Get\lPenColor.execute">
<polygon fill="white" stroke="black" points="160.5,-98 160.5,-128 309.5,-128 309.5,-98 160.5,-98"/>
<text text-anchor="start" x="168.5" y="-116" font-family="Helvetica,sans-Serif" font-size="10.00">instructions.commands.Get</text>
<text text-anchor="middle" x="235" y="-105" font-family="Helvetica,sans-Serif" font-size="10.00">PenColor.execute</text>
</a>
</g>
</g>
<!-- Node1&#45;&gt;Node2 -->
<g id="edge1" class="edge"><title>Node1&#45;&gt;Node2</title>
<path fill="none" stroke="midnightblue" d="M106.154,-76.3657C129.05,-82.9265 157.365,-91.0403 181.524,-97.963"/>
<polygon fill="midnightblue" stroke="midnightblue" points="106.954,-72.9541 96.3765,-73.564 105.025,-79.6833 106.954,-72.9541"/>
</g>
<!-- Node3 -->
<g id="node3" class="node"><title>Node3</title>
<g id="a_node3"><a xlink:href="../../dd/df0/classinstructions_1_1commands_1_1_set_pen_color.html#a2326a0264733fd837335ad87d31ef961" target="_top" xlink:title="instructions.commands.Set\lPenColor.execute">
<polygon fill="white" stroke="black" points="160.5,-49 160.5,-79 309.5,-79 309.5,-49 160.5,-49"/>
<text text-anchor="start" x="168.5" y="-67" font-family="Helvetica,sans-Serif" font-size="10.00">instructions.commands.Set</text>
<text text-anchor="middle" x="235" y="-56" font-family="Helvetica,sans-Serif" font-size="10.00">PenColor.execute</text>
</a>
</g>
</g>
<!-- Node1&#45;&gt;Node3 -->
<g id="edge2" class="edge"><title>Node1&#45;&gt;Node3</title>
<path fill="none" stroke="midnightblue" d="M134.532,-64C143.057,-64 151.773,-64 160.327,-64"/>
<polygon fill="midnightblue" stroke="midnightblue" points="134.252,-60.5001 124.252,-64 134.252,-67.5001 134.252,-60.5001"/>
</g>
<!-- Node4 -->
<g id="node4" class="node"><title>Node4</title>
<g id="a_node4"><a xlink:href="../../df/dca/classinstructions_1_1commands_1_1_set_palette.html#a863f29c53f1bf59564ff2fc62f45526f" target="_top" xlink:title="instructions.commands.Set\lPalette.execute">
<polygon fill="white" stroke="black" points="160.5,-0 160.5,-30 309.5,-30 309.5,-0 160.5,-0"/>
<text text-anchor="start" x="168.5" y="-18" font-family="Helvetica,sans-Serif" font-size="10.00">instructions.commands.Set</text>
<text text-anchor="middle" x="235" y="-7" font-family="Helvetica,sans-Serif" font-size="10.00">Palette.execute</text>
</a>
</g>
</g>
<!-- Node1&#45;&gt;Node4 -->
<g id="edge3" class="edge"><title>Node1&#45;&gt;Node4</title>
<path fill="none" stroke="midnightblue" d="M106.154,-51.6343C129.05,-45.0735 157.365,-36.9597 181.524,-30.037"/>
<polygon fill="midnightblue" stroke="midnightblue" points="105.025,-48.3167 96.3765,-54.436 106.954,-55.0459 105.025,-48.3167"/>
</g>
</g>
</svg>
