<?xml version="1.0" encoding="UTF-8" standalone="no"?>
<!DOCTYPE svg PUBLIC "-//W3C//DTD SVG 1.1//EN"
 "http://www.w3.org/Graphics/SVG/1.1/DTD/svg11.dtd">
<!-- Generated by graphviz version 2.36.0 (20140111.2315)
 -->
<!-- Title: model.Pen.setCustom Pages: 1 -->
<svg width="876pt" height="38pt"
 viewBox="0.00 0.00 876.00 38.00" xmlns="http://www.w3.org/2000/svg" xmlns:xlink="http://www.w3.org/1999/xlink">
<g id="graph0" class="graph" transform="scale(1 1) rotate(0) translate(4 34)">
<title>model.Pen.setCustom</title>
<polygon fill="white" stroke="none" points="-4,4 -4,-34 872,-34 872,4 -4,4"/>
<!-- Node1 -->
<g id="node1" class="node"><title>Node1</title>
<polygon fill="#bfbfbf" stroke="black" points="0.5,-5.5 0.5,-24.5 123.5,-24.5 123.5,-5.5 0.5,-5.5"/>
<text text-anchor="middle" x="62" y="-12.5" font-family="Helvetica,sans-Serif" font-size="10.00">model.Pen.setCustom</text>
</g>
<!-- Node2 -->
<g id="node2" class="node"><title>Node2</title>
<g id="a_node2"><a xlink:href="../../d6/d34/classmodel_1_1_turtle.html#ad38145f0d661fccdc638b4e3b814620d" target="_top" xlink:title="model.Turtle.setPenCustom">
<polygon fill="white" stroke="black" points="160.5,-5.5 160.5,-24.5 309.5,-24.5 309.5,-5.5 160.5,-5.5"/>
<text text-anchor="middle" x="235" y="-12.5" font-family="Helvetica,sans-Serif" font-size="10.00">model.Turtle.setPenCustom</text>
</a>
</g>
</g>
<!-- Node1&#45;&gt;Node2 -->
<g id="edge1" class="edge"><title>Node1&#45;&gt;Node2</title>
<path fill="none" stroke="midnightblue" d="M133.873,-15C142.581,-15 151.497,-15 160.246,-15"/>
<polygon fill="midnightblue" stroke="midnightblue" points="133.77,-11.5001 123.77,-15 133.77,-18.5001 133.77,-11.5001"/>
</g>
<!-- Node3 -->
<g id="node3" class="node"><title>Node3</title>
<g id="a_node3"><a xlink:href="../../d3/d88/classmodel_1_1_slogo_model.html#af0ff8ea4a04df315002c19967df477ee" target="_top" xlink:title="model.SlogoModel.initialize\lPenColor">
<polygon fill="white" stroke="black" points="346,-0 346,-30 492,-30 492,-0 346,-0"/>
<text text-anchor="start" x="354" y="-18" font-family="Helvetica,sans-Serif" font-size="10.00">model.SlogoModel.initialize</text>
<text text-anchor="middle" x="419" y="-7" font-family="Helvetica,sans-Serif" font-size="10.00">PenColor</text>
</a>
</g>
</g>
<!-- Node2&#45;&gt;Node3 -->
<g id="edge2" class="edge"><title>Node2&#45;&gt;Node3</title>
<path fill="none" stroke="midnightblue" d="M319.738,-15C328.51,-15 337.373,-15 345.997,-15"/>
<polygon fill="midnightblue" stroke="midnightblue" points="319.502,-11.5001 309.502,-15 319.502,-18.5001 319.502,-11.5001"/>
</g>
<!-- Node4 -->
<g id="node4" class="node"><title>Node4</title>
<g id="a_node4"><a xlink:href="../../dd/dc5/classview_1_1_settings_view.html#a1c1243dd0938a2644f0bebe8feca5737" target="_top" xlink:title="view.SettingsView.addPen\lColorPicker">
<polygon fill="white" stroke="black" points="528.5,-0 528.5,-30 667.5,-30 667.5,-0 528.5,-0"/>
<text text-anchor="start" x="536.5" y="-18" font-family="Helvetica,sans-Serif" font-size="10.00">view.SettingsView.addPen</text>
<text text-anchor="middle" x="598" y="-7" font-family="Helvetica,sans-Serif" font-size="10.00">ColorPicker</text>
</a>
</g>
</g>
<!-- Node3&#45;&gt;Node4 -->
<g id="edge3" class="edge"><title>Node3&#45;&gt;Node4</title>
<path fill="none" stroke="midnightblue" d="M502.407,-15C511.108,-15 519.889,-15 528.41,-15"/>
<polygon fill="midnightblue" stroke="midnightblue" points="502.248,-11.5001 492.248,-15 502.248,-18.5001 502.248,-11.5001"/>
</g>
<!-- Node5 -->
<g id="node5" class="node"><title>Node5</title>
<g id="a_node5"><a xlink:href="../../dd/dc5/classview_1_1_settings_view.html#a34b8df753ce7a3b7d917a01ff315edc8" target="_top" xlink:title="view.SettingsView.SettingsView">
<polygon fill="white" stroke="black" points="704,-5.5 704,-24.5 868,-24.5 868,-5.5 704,-5.5"/>
<text text-anchor="middle" x="786" y="-12.5" font-family="Helvetica,sans-Serif" font-size="10.00">view.SettingsView.SettingsView</text>
</a>
</g>
</g>
<!-- Node4&#45;&gt;Node5 -->
<g id="edge4" class="edge"><title>Node4&#45;&gt;Node5</title>
<path fill="none" stroke="midnightblue" d="M677.799,-15C686.458,-15 695.284,-15 703.969,-15"/>
<polygon fill="midnightblue" stroke="midnightblue" points="677.731,-11.5001 667.731,-15 677.731,-18.5001 677.731,-11.5001"/>
</g>
</g>
</svg>
