<?xml version="1.0" encoding="UTF-8" standalone="no"?>
<!DOCTYPE svg PUBLIC "-//W3C//DTD SVG 1.1//EN"
 "http://www.w3.org/Graphics/SVG/1.1/DTD/svg11.dtd">
<!-- Generated by graphviz version 2.36.0 (20140111.2315)
 -->
<!-- Title: model.Pen.createLine Pages: 1 -->
<svg width="722pt" height="66pt"
 viewBox="0.00 0.00 722.00 66.00" xmlns="http://www.w3.org/2000/svg" xmlns:xlink="http://www.w3.org/1999/xlink">
<g id="graph0" class="graph" transform="scale(1 1) rotate(0) translate(4 62)">
<title>model.Pen.createLine</title>
<polygon fill="white" stroke="none" points="-4,4 -4,-62 718,-62 718,4 -4,4"/>
<!-- Node1 -->
<g id="node1" class="node"><title>Node1</title>
<polygon fill="#bfbfbf" stroke="black" points="0.5,-19.5 0.5,-38.5 121.5,-38.5 121.5,-19.5 0.5,-19.5"/>
<text text-anchor="middle" x="61" y="-26.5" font-family="Helvetica,sans-Serif" font-size="10.00">model.Pen.createLine</text>
</g>
<!-- Node2 -->
<g id="node2" class="node"><title>Node2</title>
<g id="a_node2"><a xlink:href="../../de/ded/classmodel_1_1_pen.html#ac3ec9470d841cd296e05db47a03596f9" target="_top" xlink:title="model.Pen.drawLine">
<polygon fill="white" stroke="black" points="158.5,-19.5 158.5,-38.5 271.5,-38.5 271.5,-19.5 158.5,-19.5"/>
<text text-anchor="middle" x="215" y="-26.5" font-family="Helvetica,sans-Serif" font-size="10.00">model.Pen.drawLine</text>
</a>
</g>
</g>
<!-- Node1&#45;&gt;Node2 -->
<g id="edge1" class="edge"><title>Node1&#45;&gt;Node2</title>
<path fill="none" stroke="midnightblue" d="M131.85,-29C140.617,-29 149.493,-29 158.008,-29"/>
<polygon fill="midnightblue" stroke="midnightblue" points="131.638,-25.5001 121.638,-29 131.638,-32.5001 131.638,-25.5001"/>
</g>
<!-- Node3 -->
<g id="node3" class="node"><title>Node3</title>
<g id="a_node3"><a xlink:href="../../d6/d34/classmodel_1_1_turtle.html#ac03d013ad4b739b9d269ba8af8119ddb" target="_top" xlink:title="model.Turtle.moveTurtleAnd\lDrawLine">
<polygon fill="white" stroke="black" points="308.5,-14 308.5,-44 457.5,-44 457.5,-14 308.5,-14"/>
<text text-anchor="start" x="316.5" y="-32" font-family="Helvetica,sans-Serif" font-size="10.00">model.Turtle.moveTurtleAnd</text>
<text text-anchor="middle" x="383" y="-21" font-family="Helvetica,sans-Serif" font-size="10.00">DrawLine</text>
</a>
</g>
</g>
<!-- Node2&#45;&gt;Node3 -->
<g id="edge2" class="edge"><title>Node2&#45;&gt;Node3</title>
<path fill="none" stroke="midnightblue" d="M281.842,-29C290.575,-29 299.572,-29 308.424,-29"/>
<polygon fill="midnightblue" stroke="midnightblue" points="281.737,-25.5001 271.737,-29 281.737,-32.5001 281.737,-25.5001"/>
</g>
<!-- Node4 -->
<g id="node4" class="node"><title>Node4</title>
<g id="a_node4"><a xlink:href="../../d9/da9/classinstructions_1_1commands_1_1_backward.html#a8f3dbbeb56ad5c4b7a64cabcc2d63daa" target="_top" xlink:title="instructions.commands.Backward.execute">
<polygon fill="white" stroke="black" points="494.5,-38.5 494.5,-57.5 713.5,-57.5 713.5,-38.5 494.5,-38.5"/>
<text text-anchor="middle" x="604" y="-45.5" font-family="Helvetica,sans-Serif" font-size="10.00">instructions.commands.Backward.execute</text>
</a>
</g>
</g>
<!-- Node3&#45;&gt;Node4 -->
<g id="edge3" class="edge"><title>Node3&#45;&gt;Node4</title>
<path fill="none" stroke="midnightblue" d="M467.628,-36.2554C476.33,-37.0104 485.263,-37.7854 494.19,-38.5599"/>
<polygon fill="midnightblue" stroke="midnightblue" points="467.798,-32.7571 457.533,-35.3796 467.193,-39.7309 467.798,-32.7571"/>
</g>
<!-- Node5 -->
<g id="node5" class="node"><title>Node5</title>
<g id="a_node5"><a xlink:href="../../d7/dab/classinstructions_1_1commands_1_1_forward.html#a8dd30560e81b026bf436c1502534cdfd" target="_top" xlink:title="instructions.commands.Forward.execute">
<polygon fill="white" stroke="black" points="498.5,-0.5 498.5,-19.5 709.5,-19.5 709.5,-0.5 498.5,-0.5"/>
<text text-anchor="middle" x="604" y="-7.5" font-family="Helvetica,sans-Serif" font-size="10.00">instructions.commands.Forward.execute</text>
</a>
</g>
</g>
<!-- Node3&#45;&gt;Node5 -->
<g id="edge4" class="edge"><title>Node3&#45;&gt;Node5</title>
<path fill="none" stroke="midnightblue" d="M467.762,-21.7329C477.697,-20.871 487.931,-19.9832 498.112,-19.0999"/>
<polygon fill="midnightblue" stroke="midnightblue" points="467.193,-18.2691 457.533,-22.6204 467.798,-25.2429 467.193,-18.2691"/>
</g>
</g>
</svg>
