<?xml version="1.0" encoding="UTF-8" standalone="no"?>
<!DOCTYPE svg PUBLIC "-//W3C//DTD SVG 1.1//EN"
 "http://www.w3.org/Graphics/SVG/1.1/DTD/svg11.dtd">
<!-- Generated by graphviz version 2.36.0 (20140111.2315)
 -->
<!-- Title: model.Pen.drawLine Pages: 1 -->
<svg width="564pt" height="66pt"
 viewBox="0.00 0.00 564.00 66.00" xmlns="http://www.w3.org/2000/svg" xmlns:xlink="http://www.w3.org/1999/xlink">
<g id="graph0" class="graph" transform="scale(1 1) rotate(0) translate(4 62)">
<title>model.Pen.drawLine</title>
<polygon fill="white" stroke="none" points="-4,4 -4,-62 560,-62 560,4 -4,4"/>
<!-- Node1 -->
<g id="node1" class="node"><title>Node1</title>
<polygon fill="#bfbfbf" stroke="black" points="0.5,-19.5 0.5,-38.5 113.5,-38.5 113.5,-19.5 0.5,-19.5"/>
<text text-anchor="middle" x="57" y="-26.5" font-family="Helvetica,sans-Serif" font-size="10.00">model.Pen.drawLine</text>
</g>
<!-- Node2 -->
<g id="node2" class="node"><title>Node2</title>
<g id="a_node2"><a xlink:href="../../d6/d34/classmodel_1_1_turtle.html#ac03d013ad4b739b9d269ba8af8119ddb" target="_top" xlink:title="model.Turtle.moveTurtleAnd\lDrawLine">
<polygon fill="white" stroke="black" points="150.5,-14 150.5,-44 299.5,-44 299.5,-14 150.5,-14"/>
<text text-anchor="start" x="158.5" y="-32" font-family="Helvetica,sans-Serif" font-size="10.00">model.Turtle.moveTurtleAnd</text>
<text text-anchor="middle" x="225" y="-21" font-family="Helvetica,sans-Serif" font-size="10.00">DrawLine</text>
</a>
</g>
</g>
<!-- Node1&#45;&gt;Node2 -->
<g id="edge1" class="edge"><title>Node1&#45;&gt;Node2</title>
<path fill="none" stroke="midnightblue" d="M123.842,-29C132.575,-29 141.572,-29 150.424,-29"/>
<polygon fill="midnightblue" stroke="midnightblue" points="123.737,-25.5001 113.737,-29 123.737,-32.5001 123.737,-25.5001"/>
</g>
<!-- Node3 -->
<g id="node3" class="node"><title>Node3</title>
<g id="a_node3"><a xlink:href="../../d9/da9/classinstructions_1_1commands_1_1_backward.html#a8f3dbbeb56ad5c4b7a64cabcc2d63daa" target="_top" xlink:title="instructions.commands.Backward.execute">
<polygon fill="white" stroke="black" points="336.5,-38.5 336.5,-57.5 555.5,-57.5 555.5,-38.5 336.5,-38.5"/>
<text text-anchor="middle" x="446" y="-45.5" font-family="Helvetica,sans-Serif" font-size="10.00">instructions.commands.Backward.execute</text>
</a>
</g>
</g>
<!-- Node2&#45;&gt;Node3 -->
<g id="edge2" class="edge"><title>Node2&#45;&gt;Node3</title>
<path fill="none" stroke="midnightblue" d="M309.628,-36.2554C318.33,-37.0104 327.263,-37.7854 336.19,-38.5599"/>
<polygon fill="midnightblue" stroke="midnightblue" points="309.798,-32.7571 299.533,-35.3796 309.193,-39.7309 309.798,-32.7571"/>
</g>
<!-- Node4 -->
<g id="node4" class="node"><title>Node4</title>
<g id="a_node4"><a xlink:href="../../d7/dab/classinstructions_1_1commands_1_1_forward.html#a8dd30560e81b026bf436c1502534cdfd" target="_top" xlink:title="instructions.commands.Forward.execute">
<polygon fill="white" stroke="black" points="340.5,-0.5 340.5,-19.5 551.5,-19.5 551.5,-0.5 340.5,-0.5"/>
<text text-anchor="middle" x="446" y="-7.5" font-family="Helvetica,sans-Serif" font-size="10.00">instructions.commands.Forward.execute</text>
</a>
</g>
</g>
<!-- Node2&#45;&gt;Node4 -->
<g id="edge3" class="edge"><title>Node2&#45;&gt;Node4</title>
<path fill="none" stroke="midnightblue" d="M309.762,-21.7329C319.697,-20.871 329.931,-19.9832 340.112,-19.0999"/>
<polygon fill="midnightblue" stroke="midnightblue" points="309.193,-18.2691 299.533,-22.6204 309.798,-25.2429 309.193,-18.2691"/>
</g>
</g>
</svg>
