<?xml version="1.0" encoding="UTF-8" standalone="no"?>
<!DOCTYPE svg PUBLIC "-//W3C//DTD SVG 1.1//EN"
 "http://www.w3.org/Graphics/SVG/1.1/DTD/svg11.dtd">
<!-- Generated by graphviz version 2.36.0 (20140111.2315)
 -->
<!-- Title: model.Pen.setPenColor Pages: 1 -->
<svg width="890pt" height="123pt"
 viewBox="0.00 0.00 890.00 123.00" xmlns="http://www.w3.org/2000/svg" xmlns:xlink="http://www.w3.org/1999/xlink">
<g id="graph0" class="graph" transform="scale(1 1) rotate(0) translate(4 119)">
<title>model.Pen.setPenColor</title>
<polygon fill="white" stroke="none" points="-4,4 -4,-119 886,-119 886,4 -4,4"/>
<!-- Node1 -->
<g id="node1" class="node"><title>Node1</title>
<polygon fill="#bfbfbf" stroke="black" points="0,-49.5 0,-68.5 128,-68.5 128,-49.5 0,-49.5"/>
<text text-anchor="middle" x="64" y="-56.5" font-family="Helvetica,sans-Serif" font-size="10.00">model.Pen.setPenColor</text>
</g>
<!-- Node2 -->
<g id="node2" class="node"><title>Node2</title>
<g id="a_node2"><a xlink:href="../../d6/d34/classmodel_1_1_turtle.html#aa3553e012611632ba498177bfb768339" target="_top" xlink:title="model.Turtle.changePenColor">
<polygon fill="white" stroke="black" points="164,-88.5 164,-107.5 320,-107.5 320,-88.5 164,-88.5"/>
<text text-anchor="middle" x="242" y="-95.5" font-family="Helvetica,sans-Serif" font-size="10.00">model.Turtle.changePenColor</text>
</a>
</g>
</g>
<!-- Node1&#45;&gt;Node2 -->
<g id="edge1" class="edge"><title>Node1&#45;&gt;Node2</title>
<path fill="none" stroke="midnightblue" d="M117.98,-70.7398C143.596,-76.4161 173.942,-83.1406 198.085,-88.4905"/>
<polygon fill="midnightblue" stroke="midnightblue" points="118.575,-67.2869 108.054,-68.5405 117.06,-74.1211 118.575,-67.2869"/>
</g>
<!-- Node5 -->
<g id="node5" class="node"><title>Node5</title>
<g id="a_node5"><a xlink:href="../../de/ded/classmodel_1_1_pen.html#a92a7e8dd0f123fdd06a56982944a9128" target="_top" xlink:title="model.Pen.clear">
<polygon fill="white" stroke="black" points="195,-49.5 195,-68.5 289,-68.5 289,-49.5 195,-49.5"/>
<text text-anchor="middle" x="242" y="-56.5" font-family="Helvetica,sans-Serif" font-size="10.00">model.Pen.clear</text>
</a>
</g>
</g>
<!-- Node1&#45;&gt;Node5 -->
<g id="edge4" class="edge"><title>Node1&#45;&gt;Node5</title>
<path fill="none" stroke="midnightblue" d="M138.278,-59C157.475,-59 177.634,-59 194.959,-59"/>
<polygon fill="midnightblue" stroke="midnightblue" points="138.043,-55.5001 128.043,-59 138.043,-62.5001 138.043,-55.5001"/>
</g>
<!-- Node8 -->
<g id="node8" class="node"><title>Node8</title>
<g id="a_node8"><a xlink:href="../../dd/df0/classinstructions_1_1commands_1_1_set_pen_color.html#a2326a0264733fd837335ad87d31ef961" target="_top" xlink:title="instructions.commands.Set\lPenColor.execute">
<polygon fill="white" stroke="black" points="167.5,-0 167.5,-30 316.5,-30 316.5,-0 167.5,-0"/>
<text text-anchor="start" x="175.5" y="-18" font-family="Helvetica,sans-Serif" font-size="10.00">instructions.commands.Set</text>
<text text-anchor="middle" x="242" y="-7" font-family="Helvetica,sans-Serif" font-size="10.00">PenColor.execute</text>
</a>
</g>
</g>
<!-- Node1&#45;&gt;Node8 -->
<g id="edge8" class="edge"><title>Node1&#45;&gt;Node8</title>
<path fill="none" stroke="midnightblue" d="M113.105,-46.9739C133.981,-41.7547 158.658,-35.5856 180.739,-30.0654"/>
<polygon fill="midnightblue" stroke="midnightblue" points="112.042,-43.6317 103.189,-49.4527 113.74,-50.4227 112.042,-43.6317"/>
</g>
<!-- Node3 -->
<g id="node3" class="node"><title>Node3</title>
<g id="a_node3"><a xlink:href="../../dd/dc5/classview_1_1_settings_view.html#a1c1243dd0938a2644f0bebe8feca5737" target="_top" xlink:title="view.SettingsView.addPen\lColorPicker">
<polygon fill="white" stroke="black" points="533.5,-85 533.5,-115 672.5,-115 672.5,-85 533.5,-85"/>
<text text-anchor="start" x="541.5" y="-103" font-family="Helvetica,sans-Serif" font-size="10.00">view.SettingsView.addPen</text>
<text text-anchor="middle" x="603" y="-92" font-family="Helvetica,sans-Serif" font-size="10.00">ColorPicker</text>
</a>
</g>
</g>
<!-- Node2&#45;&gt;Node3 -->
<g id="edge2" class="edge"><title>Node2&#45;&gt;Node3</title>
<path fill="none" stroke="midnightblue" d="M330.243,-98.486C392.673,-98.8338 475.551,-99.2955 533.3,-99.6173"/>
<polygon fill="midnightblue" stroke="midnightblue" points="330.034,-94.9849 320.015,-98.4291 329.995,-101.985 330.034,-94.9849"/>
</g>
<!-- Node4 -->
<g id="node4" class="node"><title>Node4</title>
<g id="a_node4"><a xlink:href="../../dd/dc5/classview_1_1_settings_view.html#a34b8df753ce7a3b7d917a01ff315edc8" target="_top" xlink:title="view.SettingsView.SettingsView">
<polygon fill="white" stroke="black" points="718,-68.5 718,-87.5 882,-87.5 882,-68.5 718,-68.5"/>
<text text-anchor="middle" x="800" y="-75.5" font-family="Helvetica,sans-Serif" font-size="10.00">view.SettingsView.SettingsView</text>
</a>
</g>
</g>
<!-- Node3&#45;&gt;Node4 -->
<g id="edge3" class="edge"><title>Node3&#45;&gt;Node4</title>
<path fill="none" stroke="midnightblue" d="M682.79,-91.1109C694.341,-89.8076 706.257,-88.4633 717.854,-87.1549"/>
<polygon fill="midnightblue" stroke="midnightblue" points="682.294,-87.6445 672.75,-92.2436 683.079,-94.6004 682.294,-87.6445"/>
</g>
<!-- Node6 -->
<g id="node6" class="node"><title>Node6</title>
<g id="a_node6"><a xlink:href="../../d3/d88/classmodel_1_1_slogo_model.html#abfeceb3da7ed60166c8137597cacc2fc" target="_top" xlink:title="model.SlogoModel.clear">
<polygon fill="white" stroke="black" points="356.5,-46.5 356.5,-65.5 487.5,-65.5 487.5,-46.5 356.5,-46.5"/>
<text text-anchor="middle" x="422" y="-53.5" font-family="Helvetica,sans-Serif" font-size="10.00">model.SlogoModel.clear</text>
</a>
</g>
</g>
<!-- Node5&#45;&gt;Node6 -->
<g id="edge5" class="edge"><title>Node5&#45;&gt;Node6</title>
<path fill="none" stroke="midnightblue" d="M299.379,-58.0498C317.432,-57.7455 337.563,-57.4062 356.169,-57.0927"/>
<polygon fill="midnightblue" stroke="midnightblue" points="299.242,-54.5515 289.303,-58.2196 299.36,-61.5505 299.242,-54.5515"/>
</g>
<!-- Node7 -->
<g id="node7" class="node"><title>Node7</title>
<g id="a_node7"><a xlink:href="../../dd/dc5/classview_1_1_settings_view.html#a4ad3e69e9ba90e013df06b1f7b5ef6d0" target="_top" xlink:title="view.SettingsView.addButtons">
<polygon fill="white" stroke="black" points="524,-46.5 524,-65.5 682,-65.5 682,-46.5 524,-46.5"/>
<text text-anchor="middle" x="603" y="-53.5" font-family="Helvetica,sans-Serif" font-size="10.00">view.SettingsView.addButtons</text>
</a>
</g>
</g>
<!-- Node6&#45;&gt;Node7 -->
<g id="edge6" class="edge"><title>Node6&#45;&gt;Node7</title>
<path fill="none" stroke="midnightblue" d="M497.636,-56C506.256,-56 515.065,-56 523.732,-56"/>
<polygon fill="midnightblue" stroke="midnightblue" points="497.623,-52.5001 487.623,-56 497.623,-59.5001 497.623,-52.5001"/>
</g>
<!-- Node7&#45;&gt;Node4 -->
<g id="edge7" class="edge"><title>Node7&#45;&gt;Node4</title>
<path fill="none" stroke="midnightblue" d="M692.191,-65.9497C700.761,-66.9166 709.428,-67.8944 717.924,-68.8529"/>
<polygon fill="midnightblue" stroke="midnightblue" points="692.52,-62.4647 682.19,-64.8215 691.735,-69.4206 692.52,-62.4647"/>
</g>
</g>
</svg>
