<?xml version="1.0" encoding="UTF-8" standalone="no"?>
<!DOCTYPE svg PUBLIC "-//W3C//DTD SVG 1.1//EN"
 "http://www.w3.org/Graphics/SVG/1.1/DTD/svg11.dtd">
<!-- Generated by graphviz version 2.36.0 (20140111.2315)
 -->
<!-- Title: instructions.commands.NumTurtles Pages: 1 -->
<svg width="186pt" height="208pt"
 viewBox="0.00 0.00 186.00 208.00" xmlns="http://www.w3.org/2000/svg" xmlns:xlink="http://www.w3.org/1999/xlink">
<g id="graph0" class="graph" transform="scale(1 1) rotate(0) translate(4 204)">
<title>instructions.commands.NumTurtles</title>
<polygon fill="white" stroke="none" points="-4,4 -4,-204 182,-204 182,4 -4,4"/>
<!-- Node1 -->
<g id="node1" class="node"><title>Node1</title>
<polygon fill="#bfbfbf" stroke="black" points="11.5,-1 11.5,-31 166.5,-31 166.5,-1 11.5,-1"/>
<text text-anchor="start" x="19.5" y="-19" font-family="Helvetica,sans-Serif" font-size="10.00">instructions.commands.Num</text>
<text text-anchor="middle" x="89" y="-8" font-family="Helvetica,sans-Serif" font-size="10.00">Turtles</text>
</g>
<!-- Node2 -->
<g id="node2" class="node"><title>Node2</title>
<g id="a_node2"><a xlink:href="../../dc/d59/classinstructions_1_1_zero_param_instruction.html" target="_top" xlink:title="instructions.ZeroParamInstruction">
<polygon fill="white" stroke="black" points="-0.5,-68.5 -0.5,-87.5 178.5,-87.5 178.5,-68.5 -0.5,-68.5"/>
<text text-anchor="middle" x="89" y="-75.5" font-family="Helvetica,sans-Serif" font-size="10.00">instructions.ZeroParamInstruction</text>
</a>
</g>
</g>
<!-- Node2&#45;&gt;Node1 -->
<g id="edge1" class="edge"><title>Node2&#45;&gt;Node1</title>
<path fill="none" stroke="midnightblue" d="M89,-58.3707C89,-49.5849 89,-39.2721 89,-31.1408"/>
<polygon fill="midnightblue" stroke="midnightblue" points="85.5001,-58.4034 89,-68.4035 92.5001,-58.4035 85.5001,-58.4034"/>
</g>
<!-- Node3 -->
<g id="node3" class="node"><title>Node3</title>
<g id="a_node3"><a xlink:href="../../d2/d93/interfaceinstructions_1_1_instruction.html" target="_top" xlink:title="instructions.Instruction">
<polygon fill="white" stroke="black" points="26.5,-124.5 26.5,-143.5 151.5,-143.5 151.5,-124.5 26.5,-124.5"/>
<text text-anchor="middle" x="89" y="-131.5" font-family="Helvetica,sans-Serif" font-size="10.00">instructions.Instruction</text>
</a>
</g>
</g>
<!-- Node3&#45;&gt;Node2 -->
<g id="edge2" class="edge"><title>Node3&#45;&gt;Node2</title>
<path fill="none" stroke="midnightblue" d="M89,-113.805C89,-104.91 89,-94.7798 89,-87.7511"/>
<polygon fill="midnightblue" stroke="midnightblue" points="85.5001,-114.083 89,-124.083 92.5001,-114.083 85.5001,-114.083"/>
</g>
<!-- Node4 -->
<g id="node4" class="node"><title>Node4</title>
<polygon fill="white" stroke="#bfbfbf" points="53.5,-180.5 53.5,-199.5 124.5,-199.5 124.5,-180.5 53.5,-180.5"/>
<text text-anchor="middle" x="89" y="-187.5" font-family="Helvetica,sans-Serif" font-size="10.00">Serializable</text>
</g>
<!-- Node4&#45;&gt;Node3 -->
<g id="edge3" class="edge"><title>Node4&#45;&gt;Node3</title>
<path fill="none" stroke="midnightblue" d="M89,-169.805C89,-160.91 89,-150.78 89,-143.751"/>
<polygon fill="midnightblue" stroke="midnightblue" points="85.5001,-170.083 89,-180.083 92.5001,-170.083 85.5001,-170.083"/>
</g>
</g>
</svg>
