<?xml version="1.0" encoding="UTF-8" standalone="no"?>
<!DOCTYPE svg PUBLIC "-//W3C//DTD SVG 1.1//EN"
 "http://www.w3.org/Graphics/SVG/1.1/DTD/svg11.dtd">
<!-- Generated by graphviz version 2.36.0 (20140111.2315)
 -->
<!-- Title: instructions.commands.Right.execute Pages: 1 -->
<svg width="680pt" height="28pt"
 viewBox="0.00 0.00 680.00 28.00" xmlns="http://www.w3.org/2000/svg" xmlns:xlink="http://www.w3.org/1999/xlink">
<g id="graph0" class="graph" transform="scale(1 1) rotate(0) translate(4 24)">
<title>instructions.commands.Right.execute</title>
<polygon fill="white" stroke="none" points="-4,4 -4,-24 676,-24 676,4 -4,4"/>
<!-- Node1 -->
<g id="node1" class="node"><title>Node1</title>
<polygon fill="#bfbfbf" stroke="black" points="0.5,-0.5 0.5,-19.5 197.5,-19.5 197.5,-0.5 0.5,-0.5"/>
<text text-anchor="middle" x="99" y="-7.5" font-family="Helvetica,sans-Serif" font-size="10.00">instructions.commands.Right.execute</text>
</g>
<!-- Node2 -->
<g id="node2" class="node"><title>Node2</title>
<g id="a_node2"><a xlink:href="../../d6/d34/classmodel_1_1_turtle.html#a83b066c32b3610e2b890169df88b94ed" target="_top" xlink:title="model.Turtle.rotate">
<polygon fill="white" stroke="black" points="234.5,-0.5 234.5,-19.5 341.5,-19.5 341.5,-0.5 234.5,-0.5"/>
<text text-anchor="middle" x="288" y="-7.5" font-family="Helvetica,sans-Serif" font-size="10.00">model.Turtle.rotate</text>
</a>
</g>
</g>
<!-- Node1&#45;&gt;Node2 -->
<g id="edge1" class="edge"><title>Node1&#45;&gt;Node2</title>
<path fill="none" stroke="midnightblue" d="M197.608,-10C206.548,-10 215.438,-10 223.95,-10"/>
<polygon fill="midnightblue" stroke="midnightblue" points="224.123,-13.5001 234.123,-10 224.123,-6.5001 224.123,-13.5001"/>
</g>
<!-- Node3 -->
<g id="node3" class="node"><title>Node3</title>
<g id="a_node3"><a xlink:href="../../d6/d34/classmodel_1_1_turtle.html#a138e6be2a3c83aea4ef698bf9e499bcf" target="_top" xlink:title="model.Turtle.setTurtleInfo">
<polygon fill="white" stroke="black" points="378,-0.5 378,-19.5 514,-19.5 514,-0.5 378,-0.5"/>
<text text-anchor="middle" x="446" y="-7.5" font-family="Helvetica,sans-Serif" font-size="10.00">model.Turtle.setTurtleInfo</text>
</a>
</g>
</g>
<!-- Node2&#45;&gt;Node3 -->
<g id="edge2" class="edge"><title>Node2&#45;&gt;Node3</title>
<path fill="none" stroke="midnightblue" d="M341.814,-10C350.137,-10 358.888,-10 367.629,-10"/>
<polygon fill="midnightblue" stroke="midnightblue" points="367.859,-13.5001 377.859,-10 367.859,-6.5001 367.859,-13.5001"/>
</g>
<!-- Node4 -->
<g id="node4" class="node"><title>Node4</title>
<g id="a_node4"><a xlink:href="../../d6/d34/classmodel_1_1_turtle.html#a61d79b71c878b0c64adeab038483da7a" target="_top" xlink:title="model.Turtle.getAngle">
<polygon fill="white" stroke="black" points="550.5,-0.5 550.5,-19.5 671.5,-19.5 671.5,-0.5 550.5,-0.5"/>
<text text-anchor="middle" x="611" y="-7.5" font-family="Helvetica,sans-Serif" font-size="10.00">model.Turtle.getAngle</text>
</a>
</g>
</g>
<!-- Node3&#45;&gt;Node4 -->
<g id="edge3" class="edge"><title>Node3&#45;&gt;Node4</title>
<path fill="none" stroke="midnightblue" d="M514.239,-10C522.875,-10 531.73,-10 540.402,-10"/>
<polygon fill="midnightblue" stroke="midnightblue" points="540.474,-13.5001 550.474,-10 540.474,-6.5001 540.474,-13.5001"/>
</g>
</g>
</svg>
