<?xml version="1.0" encoding="UTF-8" standalone="no"?>
<!DOCTYPE svg PUBLIC "-//W3C//DTD SVG 1.1//EN"
 "http://www.w3.org/Graphics/SVG/1.1/DTD/svg11.dtd">
<!-- Generated by graphviz version 2.36.0 (20140111.2315)
 -->
<!-- Title: instructions.commands.SetPosition.execute Pages: 1 -->
<svg width="876pt" height="66pt"
 viewBox="0.00 0.00 876.00 66.00" xmlns="http://www.w3.org/2000/svg" xmlns:xlink="http://www.w3.org/1999/xlink">
<g id="graph0" class="graph" transform="scale(1 1) rotate(0) translate(4 62)">
<title>instructions.commands.SetPosition.execute</title>
<polygon fill="white" stroke="none" points="-4,4 -4,-62 872,-62 872,4 -4,4"/>
<!-- Node1 -->
<g id="node1" class="node"><title>Node1</title>
<polygon fill="#bfbfbf" stroke="black" points="0.5,-14 0.5,-44 149.5,-44 149.5,-14 0.5,-14"/>
<text text-anchor="start" x="8.5" y="-32" font-family="Helvetica,sans-Serif" font-size="10.00">instructions.commands.Set</text>
<text text-anchor="middle" x="75" y="-21" font-family="Helvetica,sans-Serif" font-size="10.00">Position.execute</text>
</g>
<!-- Node2 -->
<g id="node2" class="node"><title>Node2</title>
<g id="a_node2"><a xlink:href="../../d6/d34/classmodel_1_1_turtle.html#a2577f617a1e32c900f0841f835c7643a" target="_top" xlink:title="model.Turtle.calculateDistance">
<polygon fill="white" stroke="black" points="186.5,-38.5 186.5,-57.5 349.5,-57.5 349.5,-38.5 186.5,-38.5"/>
<text text-anchor="middle" x="268" y="-45.5" font-family="Helvetica,sans-Serif" font-size="10.00">model.Turtle.calculateDistance</text>
</a>
</g>
</g>
<!-- Node1&#45;&gt;Node2 -->
<g id="edge1" class="edge"><title>Node1&#45;&gt;Node2</title>
<path fill="none" stroke="midnightblue" d="M149.572,-36.3187C158.353,-37.1922 167.395,-38.0917 176.379,-38.9854"/>
<polygon fill="midnightblue" stroke="midnightblue" points="176.184,-42.4832 186.482,-39.9903 176.877,-35.5175 176.184,-42.4832"/>
</g>
<!-- Node3 -->
<g id="node3" class="node"><title>Node3</title>
<g id="a_node3"><a xlink:href="../../d6/d34/classmodel_1_1_turtle.html#a3024f63f36d1f06f8df9951c98538acf" target="_top" xlink:title="model.Turtle.getCoordList">
<polygon fill="white" stroke="black" points="198.5,-0.5 198.5,-19.5 337.5,-19.5 337.5,-0.5 198.5,-0.5"/>
<text text-anchor="middle" x="268" y="-7.5" font-family="Helvetica,sans-Serif" font-size="10.00">model.Turtle.getCoordList</text>
</a>
</g>
</g>
<!-- Node1&#45;&gt;Node3 -->
<g id="edge2" class="edge"><title>Node1&#45;&gt;Node3</title>
<path fill="none" stroke="midnightblue" d="M149.572,-21.6813C162.259,-20.4192 175.492,-19.1029 188.308,-17.828"/>
<polygon fill="midnightblue" stroke="midnightblue" points="188.874,-21.2891 198.478,-16.8163 188.181,-14.3235 188.874,-21.2891"/>
</g>
<!-- Node4 -->
<g id="node4" class="node"><title>Node4</title>
<g id="a_node4"><a xlink:href="../../d6/d34/classmodel_1_1_turtle.html#abf987ba62d49c24804d43b464f9b7410" target="_top" xlink:title="model.Turtle.setCoordinates">
<polygon fill="white" stroke="black" points="386.5,-0.5 386.5,-19.5 537.5,-19.5 537.5,-0.5 386.5,-0.5"/>
<text text-anchor="middle" x="462" y="-7.5" font-family="Helvetica,sans-Serif" font-size="10.00">model.Turtle.setCoordinates</text>
</a>
</g>
</g>
<!-- Node3&#45;&gt;Node4 -->
<g id="edge3" class="edge"><title>Node3&#45;&gt;Node4</title>
<path fill="none" stroke="midnightblue" d="M337.503,-10C349.995,-10 363.165,-10 376.065,-10"/>
<polygon fill="midnightblue" stroke="midnightblue" points="376.335,-13.5001 386.335,-10 376.335,-6.5001 376.335,-13.5001"/>
</g>
<!-- Node5 -->
<g id="node5" class="node"><title>Node5</title>
<g id="a_node5"><a xlink:href="../../d6/d34/classmodel_1_1_turtle.html#a138e6be2a3c83aea4ef698bf9e499bcf" target="_top" xlink:title="model.Turtle.setTurtleInfo">
<polygon fill="white" stroke="black" points="574,-0.5 574,-19.5 710,-19.5 710,-0.5 574,-0.5"/>
<text text-anchor="middle" x="642" y="-7.5" font-family="Helvetica,sans-Serif" font-size="10.00">model.Turtle.setTurtleInfo</text>
</a>
</g>
</g>
<!-- Node4&#45;&gt;Node5 -->
<g id="edge4" class="edge"><title>Node4&#45;&gt;Node5</title>
<path fill="none" stroke="midnightblue" d="M537.714,-10C546.33,-10 555.13,-10 563.778,-10"/>
<polygon fill="midnightblue" stroke="midnightblue" points="563.842,-13.5001 573.842,-10 563.842,-6.5001 563.842,-13.5001"/>
</g>
<!-- Node6 -->
<g id="node6" class="node"><title>Node6</title>
<g id="a_node6"><a xlink:href="../../d6/d34/classmodel_1_1_turtle.html#a61d79b71c878b0c64adeab038483da7a" target="_top" xlink:title="model.Turtle.getAngle">
<polygon fill="white" stroke="black" points="746.5,-0.5 746.5,-19.5 867.5,-19.5 867.5,-0.5 746.5,-0.5"/>
<text text-anchor="middle" x="807" y="-7.5" font-family="Helvetica,sans-Serif" font-size="10.00">model.Turtle.getAngle</text>
</a>
</g>
</g>
<!-- Node5&#45;&gt;Node6 -->
<g id="edge5" class="edge"><title>Node5&#45;&gt;Node6</title>
<path fill="none" stroke="midnightblue" d="M710.239,-10C718.875,-10 727.73,-10 736.402,-10"/>
<polygon fill="midnightblue" stroke="midnightblue" points="736.474,-13.5001 746.474,-10 736.474,-6.5001 736.474,-13.5001"/>
</g>
</g>
</svg>
