<?xml version="1.0" encoding="UTF-8" standalone="no"?>
<!DOCTYPE svg PUBLIC "-//W3C//DTD SVG 1.1//EN"
 "http://www.w3.org/Graphics/SVG/1.1/DTD/svg11.dtd">
<!-- Generated by graphviz version 2.36.0 (20140111.2315)
 -->
<!-- Title: model.VariablesList.get Pages: 1 -->
<svg width="602pt" height="190pt"
 viewBox="0.00 0.00 602.00 190.32" xmlns="http://www.w3.org/2000/svg" xmlns:xlink="http://www.w3.org/1999/xlink">
<g id="graph0" class="graph" transform="scale(1 1) rotate(0) translate(4 186.32)">
<title>model.VariablesList.get</title>
<polygon fill="white" stroke="none" points="-4,4 -4,-186.32 598,-186.32 598,4 -4,4"/>
<!-- Node1 -->
<g id="node1" class="node"><title>Node1</title>
<polygon fill="#bfbfbf" stroke="black" points="0,-87.5 0,-106.5 128,-106.5 128,-87.5 0,-87.5"/>
<text text-anchor="middle" x="64" y="-94.5" font-family="Helvetica,sans-Serif" font-size="10.00">model.VariablesList.get</text>
</g>
<!-- Node2 -->
<g id="node2" class="node"><title>Node2</title>
<g id="a_node2"><a xlink:href="../../dd/de9/classinstructions_1_1commands_1_1_do_times.html#ae42180528b9ce237a22652ccf7c4048a" target="_top" xlink:title="instructions.commands.Do\lTimes.execute">
<polygon fill="white" stroke="black" points="427,-138 427,-168 573,-168 573,-138 427,-138"/>
<text text-anchor="start" x="435" y="-156" font-family="Helvetica,sans-Serif" font-size="10.00">instructions.commands.Do</text>
<text text-anchor="middle" x="500" y="-145" font-family="Helvetica,sans-Serif" font-size="10.00">Times.execute</text>
</a>
</g>
</g>
<!-- Node1&#45;&gt;Node2 -->
<g id="edge1" class="edge"><title>Node1&#45;&gt;Node2</title>
<path fill="none" stroke="midnightblue" d="M82.1361,-113.671C100.6,-130.367 131.706,-154.977 164,-165 253.903,-192.902 363.936,-180.754 432.77,-168.028"/>
<polygon fill="midnightblue" stroke="midnightblue" points="84.2868,-110.891 74.5831,-106.638 79.5165,-116.014 84.2868,-110.891"/>
</g>
<!-- Node3 -->
<g id="node3" class="node"><title>Node3</title>
<g id="a_node3"><a xlink:href="../../df/d40/classinstructions_1_1commands_1_1_make_variable.html#ab41d20d8160cb52fc4e0d7656236795c" target="_top" xlink:title="instructions.commands.Make\lVariable.execute">
<polygon fill="white" stroke="black" points="188,-126 188,-156 346,-156 346,-126 188,-126"/>
<text text-anchor="start" x="196" y="-144" font-family="Helvetica,sans-Serif" font-size="10.00">instructions.commands.Make</text>
<text text-anchor="middle" x="267" y="-133" font-family="Helvetica,sans-Serif" font-size="10.00">Variable.execute</text>
</a>
</g>
</g>
<!-- Node1&#45;&gt;Node3 -->
<g id="edge2" class="edge"><title>Node1&#45;&gt;Node3</title>
<path fill="none" stroke="midnightblue" d="M118.642,-108.742C142.754,-114.021 171.503,-120.314 197.179,-125.935"/>
<polygon fill="midnightblue" stroke="midnightblue" points="119.131,-105.267 108.614,-106.547 117.634,-112.105 119.131,-105.267"/>
</g>
<!-- Node4 -->
<g id="node4" class="node"><title>Node4</title>
<g id="a_node4"><a xlink:href="../../de/d23/classinstructions_1_1commands_1_1_for.html#afcedd294e27c3810d9f5c48ba871ad3a" target="_top" xlink:title="instructions.commands.For.execute">
<polygon fill="white" stroke="black" points="406,-68.5 406,-87.5 594,-87.5 594,-68.5 406,-68.5"/>
<text text-anchor="middle" x="500" y="-75.5" font-family="Helvetica,sans-Serif" font-size="10.00">instructions.commands.For.execute</text>
</a>
</g>
</g>
<!-- Node1&#45;&gt;Node4 -->
<g id="edge3" class="edge"><title>Node1&#45;&gt;Node4</title>
<path fill="none" stroke="midnightblue" d="M115.161,-85.462C130.724,-82.3989 147.993,-79.5221 164,-78 245.492,-70.2508 338.64,-71.0227 405.994,-73.2882"/>
<polygon fill="midnightblue" stroke="midnightblue" points="114.31,-82.0633 105.211,-87.4894 115.708,-88.9224 114.31,-82.0633"/>
</g>
<!-- Node5 -->
<g id="node5" class="node"><title>Node5</title>
<g id="a_node5"><a xlink:href="../../d4/d6d/classinstructions_1_1_variable_instruction.html#a358f18664885d2409d9551dcb93bf80b" target="_top" xlink:title="instructions.VariableInstruction.execute">
<polygon fill="white" stroke="black" points="164.5,-87.5 164.5,-106.5 369.5,-106.5 369.5,-87.5 164.5,-87.5"/>
<text text-anchor="middle" x="267" y="-94.5" font-family="Helvetica,sans-Serif" font-size="10.00">instructions.VariableInstruction.execute</text>
</a>
</g>
</g>
<!-- Node1&#45;&gt;Node5 -->
<g id="edge4" class="edge"><title>Node1&#45;&gt;Node5</title>
<path fill="none" stroke="midnightblue" d="M138.204,-97C146.66,-97 155.395,-97 164.143,-97"/>
<polygon fill="midnightblue" stroke="midnightblue" points="138.046,-93.5001 128.046,-97 138.046,-100.5 138.046,-93.5001"/>
</g>
<!-- Node6 -->
<g id="node6" class="node"><title>Node6</title>
<g id="a_node6"><a xlink:href="../../d2/d36/classinstructions_1_1_user_defined_command.html#afe96555346246fb88ab982a75b5189ef" target="_top" xlink:title="instructions.UserDefined\lCommand.execute">
<polygon fill="white" stroke="black" points="200,-0 200,-30 334,-30 334,-0 200,-0"/>
<text text-anchor="start" x="208" y="-18" font-family="Helvetica,sans-Serif" font-size="10.00">instructions.UserDefined</text>
<text text-anchor="middle" x="267" y="-7" font-family="Helvetica,sans-Serif" font-size="10.00">Command.execute</text>
</a>
</g>
</g>
<!-- Node1&#45;&gt;Node6 -->
<g id="edge7" class="edge"><title>Node1&#45;&gt;Node6</title>
<path fill="none" stroke="midnightblue" d="M89.8856,-82.1644C109.521,-70.8965 137.866,-55.5853 164,-45 177.858,-39.387 193.158,-34.3226 207.6,-30.0216"/>
<polygon fill="midnightblue" stroke="midnightblue" points="87.8805,-79.2815 80.9936,-87.3327 91.3982,-85.3335 87.8805,-79.2815"/>
</g>
<!-- Node5&#45;&gt;Node2 -->
<g id="edge5" class="edge"><title>Node5&#45;&gt;Node2</title>
<path fill="none" stroke="midnightblue" d="M330.677,-108.484C343.714,-111.098 357.337,-113.997 370,-117 396.131,-123.198 424.941,-131.131 448.694,-137.972"/>
<polygon fill="midnightblue" stroke="midnightblue" points="331.336,-105.046 320.847,-106.543 329.98,-111.914 331.336,-105.046"/>
</g>
<!-- Node5&#45;&gt;Node4 -->
<g id="edge6" class="edge"><title>Node5&#45;&gt;Node4</title>
<path fill="none" stroke="midnightblue" d="M379.803,-87.8041C388.468,-87.0914 397.16,-86.3764 405.685,-85.6752"/>
<polygon fill="midnightblue" stroke="midnightblue" points="379.336,-84.3306 369.656,-88.6387 379.909,-91.3071 379.336,-84.3306"/>
</g>
</g>
</svg>
