<?xml version="1.0" encoding="UTF-8" standalone="no"?>
<!DOCTYPE svg PUBLIC "-//W3C//DTD SVG 1.1//EN"
 "http://www.w3.org/Graphics/SVG/1.1/DTD/svg11.dtd">
<!-- Generated by graphviz version 2.36.0 (20140111.2315)
 -->
<!-- Title: model.VariablesList.get Pages: 1 -->
<!--zoomable 190 -->
<svg id="main" version="1.1" xmlns="http://www.w3.org/2000/svg" xmlns:xlink="http://www.w3.org/1999/xlink" xml:space="preserve" onload="init(evt)">
<style type="text/css"><![CDATA[
.edge:hover path { stroke: red; }
.edge:hover polygon { stroke: red; fill: red; }
]]></style>
<script type="text/javascript"><![CDATA[
var edges = document.getElementsByTagName('g');
if (edges && edges.length) {
  for (var i=0;i<edges.length;i++) {
    if (edges[i].id.substr(0,4)=='edge') {
      edges[i].setAttribute('class','edge');
    }
  }
}
]]></script>
        <defs>
                <circle id="rim" cx="0" cy="0" r="7"/>
                <circle id="rim2" cx="0" cy="0" r="3.5"/>
                <g id="zoomPlus">
                        <use xlink:href="#rim" fill="#404040">
                                <set attributeName="fill" to="#808080" begin="zoomplus.mouseover" end="zoomplus.mouseout"/>
                        </use>
                        <path d="M-4,0h8M0,-4v8" fill="none" stroke="white" stroke-width="1.5" pointer-events="none"/>
                </g>
                <g id="zoomMin">
                        <use xlink:href="#rim" fill="#404040">
                                <set attributeName="fill" to="#808080" begin="zoomminus.mouseover" end="zoomminus.mouseout"/>
                        </use>
                        <path d="M-4,0h8" fill="none" stroke="white" stroke-width="1.5" pointer-events="none"/>
                </g>
                <g id="dirArrow">
                        <path fill="none" stroke="white" stroke-width="1.5" d="M0,-3.0v7 M-2.5,-0.5L0,-3.0L2.5,-0.5"/>
                </g>
               <g id="resetDef">
                       <use xlink:href="#rim2" fill="#404040">
                               <set attributeName="fill" to="#808080" begin="reset.mouseover" end="reset.mouseout"/>
                       </use>
               </g>
        </defs>

<script type="text/javascript">
var viewWidth = 602;
var viewHeight = 190;
var sectionId = 'dynsection-5';
</script>
<script xlink:href="../../svgpan.js"/>
<svg id="graph" class="graph">
<g id="viewport">
<title>model.VariablesList.get</title>
<polygon fill="white" stroke="none" points="-4,4 -4,-186.32 598,-186.32 598,4 -4,4"/>
<!-- Node1 -->
<g id="node1" class="node"><title>Node1</title>
<polygon fill="#bfbfbf" stroke="black" points="0,-87.5 0,-106.5 128,-106.5 128,-87.5 0,-87.5"/>
<text text-anchor="middle" x="64" y="-94.5" font-family="Helvetica,sans-Serif" font-size="10.00">model.VariablesList.get</text>
</g>
<!-- Node2 -->
<g id="node2" class="node"><title>Node2</title>
<g id="a_node2"><a xlink:href="../../dd/de9/classinstructions_1_1commands_1_1_do_times.html#ae42180528b9ce237a22652ccf7c4048a" target="_top" xlink:title="instructions.commands.Do\lTimes.execute">
<polygon fill="white" stroke="black" points="427,-138 427,-168 573,-168 573,-138 427,-138"/>
<text text-anchor="start" x="435" y="-156" font-family="Helvetica,sans-Serif" font-size="10.00">instructions.commands.Do</text>
<text text-anchor="middle" x="500" y="-145" font-family="Helvetica,sans-Serif" font-size="10.00">Times.execute</text>
</a>
</g>
</g>
<!-- Node1&#45;&gt;Node2 -->
<g id="edge1" class="edge"><title>Node1&#45;&gt;Node2</title>
<path fill="none" stroke="midnightblue" d="M82.1361,-113.671C100.6,-130.367 131.706,-154.977 164,-165 253.903,-192.902 363.936,-180.754 432.77,-168.028"/>
<polygon fill="midnightblue" stroke="midnightblue" points="84.2868,-110.891 74.5831,-106.638 79.5165,-116.014 84.2868,-110.891"/>
</g>
<!-- Node3 -->
<g id="node3" class="node"><title>Node3</title>
<g id="a_node3"><a xlink:href="../../df/d40/classinstructions_1_1commands_1_1_make_variable.html#ab41d20d8160cb52fc4e0d7656236795c" target="_top" xlink:title="instructions.commands.Make\lVariable.execute">
<polygon fill="white" stroke="black" points="188,-126 188,-156 346,-156 346,-126 188,-126"/>
<text text-anchor="start" x="196" y="-144" font-family="Helvetica,sans-Serif" font-size="10.00">instructions.commands.Make</text>
<text text-anchor="middle" x="267" y="-133" font-family="Helvetica,sans-Serif" font-size="10.00">Variable.execute</text>
</a>
</g>
</g>
<!-- Node1&#45;&gt;Node3 -->
<g id="edge2" class="edge"><title>Node1&#45;&gt;Node3</title>
<path fill="none" stroke="midnightblue" d="M118.642,-108.742C142.754,-114.021 171.503,-120.314 197.179,-125.935"/>
<polygon fill="midnightblue" stroke="midnightblue" points="119.131,-105.267 108.614,-106.547 117.634,-112.105 119.131,-105.267"/>
</g>
<!-- Node4 -->
<g id="node4" class="node"><title>Node4</title>
<g id="a_node4"><a xlink:href="../../de/d23/classinstructions_1_1commands_1_1_for.html#afcedd294e27c3810d9f5c48ba871ad3a" target="_top" xlink:title="instructions.commands.For.execute">
<polygon fill="white" stroke="black" points="406,-68.5 406,-87.5 594,-87.5 594,-68.5 406,-68.5"/>
<text text-anchor="middle" x="500" y="-75.5" font-family="Helvetica,sans-Serif" font-size="10.00">instructions.commands.For.execute</text>
</a>
</g>
</g>
<!-- Node1&#45;&gt;Node4 -->
<g id="edge3" class="edge"><title>Node1&#45;&gt;Node4</title>
<path fill="none" stroke="midnightblue" d="M115.161,-85.462C130.724,-82.3989 147.993,-79.5221 164,-78 245.492,-70.2508 338.64,-71.0227 405.994,-73.2882"/>
<polygon fill="midnightblue" stroke="midnightblue" points="114.31,-82.0633 105.211,-87.4894 115.708,-88.9224 114.31,-82.0633"/>
</g>
<!-- Node5 -->
<g id="node5" class="node"><title>Node5</title>
<g id="a_node5"><a xlink:href="../../d4/d6d/classinstructions_1_1_variable_instruction.html#a358f18664885d2409d9551dcb93bf80b" target="_top" xlink:title="instructions.VariableInstruction.execute">
<polygon fill="white" stroke="black" points="164.5,-87.5 164.5,-106.5 369.5,-106.5 369.5,-87.5 164.5,-87.5"/>
<text text-anchor="middle" x="267" y="-94.5" font-family="Helvetica,sans-Serif" font-size="10.00">instructions.VariableInstruction.execute</text>
</a>
</g>
</g>
<!-- Node1&#45;&gt;Node5 -->
<g id="edge4" class="edge"><title>Node1&#45;&gt;Node5</title>
<path fill="none" stroke="midnightblue" d="M138.204,-97C146.66,-97 155.395,-97 164.143,-97"/>
<polygon fill="midnightblue" stroke="midnightblue" points="138.046,-93.5001 128.046,-97 138.046,-100.5 138.046,-93.5001"/>
</g>
<!-- Node6 -->
<g id="node6" class="node"><title>Node6</title>
<g id="a_node6"><a xlink:href="../../d2/d36/classinstructions_1_1_user_defined_command.html#afe96555346246fb88ab982a75b5189ef" target="_top" xlink:title="instructions.UserDefined\lCommand.execute">
<polygon fill="white" stroke="black" points="200,-0 200,-30 334,-30 334,-0 200,-0"/>
<text text-anchor="start" x="208" y="-18" font-family="Helvetica,sans-Serif" font-size="10.00">instructions.UserDefined</text>
<text text-anchor="middle" x="267" y="-7" font-family="Helvetica,sans-Serif" font-size="10.00">Command.execute</text>
</a>
</g>
</g>
<!-- Node1&#45;&gt;Node6 -->
<g id="edge7" class="edge"><title>Node1&#45;&gt;Node6</title>
<path fill="none" stroke="midnightblue" d="M89.8856,-82.1644C109.521,-70.8965 137.866,-55.5853 164,-45 177.858,-39.387 193.158,-34.3226 207.6,-30.0216"/>
<polygon fill="midnightblue" stroke="midnightblue" points="87.8805,-79.2815 80.9936,-87.3327 91.3982,-85.3335 87.8805,-79.2815"/>
</g>
<!-- Node5&#45;&gt;Node2 -->
<g id="edge5" class="edge"><title>Node5&#45;&gt;Node2</title>
<path fill="none" stroke="midnightblue" d="M330.677,-108.484C343.714,-111.098 357.337,-113.997 370,-117 396.131,-123.198 424.941,-131.131 448.694,-137.972"/>
<polygon fill="midnightblue" stroke="midnightblue" points="331.336,-105.046 320.847,-106.543 329.98,-111.914 331.336,-105.046"/>
</g>
<!-- Node5&#45;&gt;Node4 -->
<g id="edge6" class="edge"><title>Node5&#45;&gt;Node4</title>
<path fill="none" stroke="midnightblue" d="M379.803,-87.8041C388.468,-87.0914 397.16,-86.3764 405.685,-85.6752"/>
<polygon fill="midnightblue" stroke="midnightblue" points="379.336,-84.3306 369.656,-88.6387 379.909,-91.3071 379.336,-84.3306"/>
</g>
</g>
</svg>
        <g id="navigator" transform="translate(0 0)" fill="#404254">
                <rect fill="#f2f5e9" fill-opacity="0.5" stroke="#606060" stroke-width=".5" x="0" y="0" width="60" height="60"/>
                <use id="zoomplus" xlink:href="#zoomPlus" x="17" y="9" onmousedown="handleZoom(evt,'in')"/>
                <use id="zoomminus" xlink:href="#zoomMin" x="42" y="9" onmousedown="handleZoom(evt,'out')"/>
                <use id="reset" xlink:href="#resetDef" x="30" y="36" onmousedown="handleReset()"/>
                <g id="arrowUp" xlink:href="#dirArrow" transform="translate(30 24)" onmousedown="handlePan(0,-1)">
                  <use xlink:href="#rim" fill="#404040">
                        <set attributeName="fill" to="#808080" begin="arrowUp.mouseover" end="arrowUp.mouseout"/>
                  </use>
                  <path fill="none" stroke="white" stroke-width="1.5" d="M0,-3.0v7 M-2.5,-0.5L0,-3.0L2.5,-0.5"/>
                </g>
                <g id="arrowRight" xlink:href="#dirArrow" transform="rotate(90) translate(36 -43)" onmousedown="handlePan(1,0)">
                  <use xlink:href="#rim" fill="#404040">
                        <set attributeName="fill" to="#808080" begin="arrowRight.mouseover" end="arrowRight.mouseout"/>
                  </use>
                  <path fill="none" stroke="white" stroke-width="1.5" d="M0,-3.0v7 M-2.5,-0.5L0,-3.0L2.5,-0.5"/>
                </g>
                <g id="arrowDown" xlink:href="#dirArrow" transform="rotate(180) translate(-30 -48)" onmousedown="handlePan(0,1)">
                  <use xlink:href="#rim" fill="#404040">
                        <set attributeName="fill" to="#808080" begin="arrowDown.mouseover" end="arrowDown.mouseout"/>
                  </use>
                  <path fill="none" stroke="white" stroke-width="1.5" d="M0,-3.0v7 M-2.5,-0.5L0,-3.0L2.5,-0.5"/>
                </g>
                <g id="arrowLeft" xlink:href="#dirArrow" transform="rotate(270) translate(-36 17)" onmousedown="handlePan(-1,0)">
                  <use xlink:href="#rim" fill="#404040">
                        <set attributeName="fill" to="#808080" begin="arrowLeft.mouseover" end="arrowLeft.mouseout"/>
                  </use>
                  <path fill="none" stroke="white" stroke-width="1.5" d="M0,-3.0v7 M-2.5,-0.5L0,-3.0L2.5,-0.5"/>
                </g>
        </g>
        <svg viewBox="0 0 15 15" width="100%" height="30px" preserveAspectRatio="xMaxYMin meet">
         <g id="arrow_out" transform="scale(0.3 0.3)">
          <a xlink:href="classmodel_1_1_variables_list_a88d10c0a82c1d2a432f2127f522dfc20_icgraph_org.svg" target="_base">
           <rect id="button" ry="5" rx="5" y="6" x="6" height="38" width="38"
                fill="#f2f5e9" fill-opacity="0.5" stroke="#606060" stroke-width="1.0"/>
           <path id="arrow"
             d="M 11.500037,31.436501 C 11.940474,20.09759 22.043105,11.32322 32.158766,21.979434 L 37.068811,17.246167 C 37.068811,17.246167 37.088388,32 37.088388,32 L 22.160133,31.978069 C 22.160133,31.978069 26.997745,27.140456 26.997745,27.140456 C 18.528582,18.264221 13.291696,25.230495 11.500037,31.436501 z"
             style="fill:#404040;"/>
          </a>
         </g>
        </svg>
</svg>
