<?xml version="1.0" encoding="UTF-8" standalone="no"?>
<!DOCTYPE svg PUBLIC "-//W3C//DTD SVG 1.1//EN"
 "http://www.w3.org/Graphics/SVG/1.1/DTD/svg11.dtd">
<!-- Generated by graphviz version 2.36.0 (20140111.2315)
 -->
<!-- Title: model.VariablesList.add Pages: 1 -->
<svg width="364pt" height="126pt"
 viewBox="0.00 0.00 364.00 126.00" xmlns="http://www.w3.org/2000/svg" xmlns:xlink="http://www.w3.org/1999/xlink">
<g id="graph0" class="graph" transform="scale(1 1) rotate(0) translate(4 122)">
<title>model.VariablesList.add</title>
<polygon fill="white" stroke="none" points="-4,4 -4,-122 360,-122 360,4 -4,4"/>
<!-- Node1 -->
<g id="node1" class="node"><title>Node1</title>
<polygon fill="#bfbfbf" stroke="black" points="0.5,-44.5 0.5,-63.5 131.5,-63.5 131.5,-44.5 0.5,-44.5"/>
<text text-anchor="middle" x="66" y="-51.5" font-family="Helvetica,sans-Serif" font-size="10.00">model.VariablesList.add</text>
</g>
<!-- Node2 -->
<g id="node2" class="node"><title>Node2</title>
<g id="a_node2"><a xlink:href="../../dd/de9/classinstructions_1_1commands_1_1_do_times.html#ae42180528b9ce237a22652ccf7c4048a" target="_top" xlink:title="instructions.commands.Do\lTimes.execute">
<polygon fill="white" stroke="black" points="189,-88 189,-118 335,-118 335,-88 189,-88"/>
<text text-anchor="start" x="197" y="-106" font-family="Helvetica,sans-Serif" font-size="10.00">instructions.commands.Do</text>
<text text-anchor="middle" x="262" y="-95" font-family="Helvetica,sans-Serif" font-size="10.00">Times.execute</text>
</a>
</g>
</g>
<!-- Node1&#45;&gt;Node2 -->
<g id="edge1" class="edge"><title>Node1&#45;&gt;Node2</title>
<path fill="none" stroke="midnightblue" d="M114.566,-66.0142C140.779,-72.635 173.566,-80.9161 201.466,-87.963"/>
<polygon fill="midnightblue" stroke="midnightblue" points="115.418,-62.6195 104.866,-63.564 113.704,-69.4064 115.418,-62.6195"/>
</g>
<!-- Node3 -->
<g id="node3" class="node"><title>Node3</title>
<g id="a_node3"><a xlink:href="../../df/d40/classinstructions_1_1commands_1_1_make_variable.html#ab41d20d8160cb52fc4e0d7656236795c" target="_top" xlink:title="instructions.commands.Make\lVariable.execute">
<polygon fill="white" stroke="black" points="183,-39 183,-69 341,-69 341,-39 183,-39"/>
<text text-anchor="start" x="191" y="-57" font-family="Helvetica,sans-Serif" font-size="10.00">instructions.commands.Make</text>
<text text-anchor="middle" x="262" y="-46" font-family="Helvetica,sans-Serif" font-size="10.00">Variable.execute</text>
</a>
</g>
</g>
<!-- Node1&#45;&gt;Node3 -->
<g id="edge2" class="edge"><title>Node1&#45;&gt;Node3</title>
<path fill="none" stroke="midnightblue" d="M141.762,-54C155.23,-54 169.303,-54 182.864,-54"/>
<polygon fill="midnightblue" stroke="midnightblue" points="141.599,-50.5001 131.599,-54 141.599,-57.5001 141.599,-50.5001"/>
</g>
<!-- Node4 -->
<g id="node4" class="node"><title>Node4</title>
<g id="a_node4"><a xlink:href="../../de/d23/classinstructions_1_1commands_1_1_for.html#afcedd294e27c3810d9f5c48ba871ad3a" target="_top" xlink:title="instructions.commands.For.execute">
<polygon fill="white" stroke="black" points="168,-0.5 168,-19.5 356,-19.5 356,-0.5 168,-0.5"/>
<text text-anchor="middle" x="262" y="-7.5" font-family="Helvetica,sans-Serif" font-size="10.00">instructions.commands.For.execute</text>
</a>
</g>
</g>
<!-- Node1&#45;&gt;Node4 -->
<g id="edge3" class="edge"><title>Node1&#45;&gt;Node4</title>
<path fill="none" stroke="midnightblue" d="M116.235,-42.0769C132.679,-38.1545 151.114,-33.8216 168,-30 183.463,-26.5005 200.407,-22.8131 215.547,-19.5709"/>
<polygon fill="midnightblue" stroke="midnightblue" points="115.196,-38.7265 106.286,-44.4578 116.826,-45.5343 115.196,-38.7265"/>
</g>
</g>
</svg>
