<?xml version="1.0" encoding="UTF-8" standalone="no"?>
<!DOCTYPE svg PUBLIC "-//W3C//DTD SVG 1.1//EN"
 "http://www.w3.org/Graphics/SVG/1.1/DTD/svg11.dtd">
<!-- Generated by graphviz version 2.36.0 (20140111.2315)
 -->
<!-- Title: instructions.commands.XCoordinate.execute Pages: 1 -->
<svg width="428pt" height="77pt"
 viewBox="0.00 0.00 428.00 77.00" xmlns="http://www.w3.org/2000/svg" xmlns:xlink="http://www.w3.org/1999/xlink">
<g id="graph0" class="graph" transform="scale(1 1) rotate(0) translate(4 73)">
<title>instructions.commands.XCoordinate.execute</title>
<polygon fill="white" stroke="none" points="-4,4 -4,-73 424,-73 424,4 -4,4"/>
<!-- Node1 -->
<g id="node1" class="node"><title>Node1</title>
<polygon fill="#bfbfbf" stroke="black" points="0.5,-27.5 0.5,-46.5 231.5,-46.5 231.5,-27.5 0.5,-27.5"/>
<text text-anchor="middle" x="116" y="-34.5" font-family="Helvetica,sans-Serif" font-size="10.00">instructions.commands.XCoordinate.execute</text>
</g>
<!-- Node2 -->
<g id="node2" class="node"><title>Node2</title>
<g id="a_node2"><a xlink:href="../../d6/d34/classmodel_1_1_turtle.html#af4d13fd725022de1c10e3a4d26e4cd05" target="_top" xlink:title="model.Turtle.getCoordinates">
<polygon fill="white" stroke="black" points="268,-49.5 268,-68.5 420,-68.5 420,-49.5 268,-49.5"/>
<text text-anchor="middle" x="344" y="-56.5" font-family="Helvetica,sans-Serif" font-size="10.00">model.Turtle.getCoordinates</text>
</a>
</g>
</g>
<!-- Node1&#45;&gt;Node2 -->
<g id="edge1" class="edge"><title>Node1&#45;&gt;Node2</title>
<path fill="none" stroke="midnightblue" d="M214.812,-46.5216C229.116,-47.9139 243.75,-49.3385 257.775,-50.7038"/>
<polygon fill="midnightblue" stroke="midnightblue" points="257.575,-54.2007 267.867,-51.6861 258.253,-47.2336 257.575,-54.2007"/>
</g>
<!-- Node3 -->
<g id="node3" class="node"><title>Node3</title>
<g id="a_node3"><a xlink:href="../../d8/d36/classmodel_1_1_observable_data.html#aa585e00721a74cba9ab459079945e15b" target="_top" xlink:title="model.ObservableData.get\lTurtle">
<polygon fill="white" stroke="black" points="271,-0 271,-30 417,-30 417,-0 271,-0"/>
<text text-anchor="start" x="279" y="-18" font-family="Helvetica,sans-Serif" font-size="10.00">model.ObservableData.get</text>
<text text-anchor="middle" x="344" y="-7" font-family="Helvetica,sans-Serif" font-size="10.00">Turtle</text>
</a>
</g>
</g>
<!-- Node1&#45;&gt;Node3 -->
<g id="edge2" class="edge"><title>Node1&#45;&gt;Node3</title>
<path fill="none" stroke="midnightblue" d="M214.812,-27.4784C230.127,-25.9876 245.821,-24.4599 260.74,-23.0076"/>
<polygon fill="midnightblue" stroke="midnightblue" points="261.318,-26.468 270.932,-22.0155 260.639,-19.5009 261.318,-26.468"/>
</g>
</g>
</svg>
