<?xml version="1.0" encoding="UTF-8" standalone="no"?>
<!DOCTYPE svg PUBLIC "-//W3C//DTD SVG 1.1//EN"
 "http://www.w3.org/Graphics/SVG/1.1/DTD/svg11.dtd">
<!-- Generated by graphviz version 2.36.0 (20140111.2315)
 -->
<!-- Title: instructions.commands.Tell.getAskedIDs Pages: 1 -->
<svg width="372pt" height="38pt"
 viewBox="0.00 0.00 372.00 38.00" xmlns="http://www.w3.org/2000/svg" xmlns:xlink="http://www.w3.org/1999/xlink">
<g id="graph0" class="graph" transform="scale(1 1) rotate(0) translate(4 34)">
<title>instructions.commands.Tell.getAskedIDs</title>
<polygon fill="white" stroke="none" points="-4,4 -4,-34 368,-34 368,4 -4,4"/>
<!-- Node1 -->
<g id="node1" class="node"><title>Node1</title>
<polygon fill="#bfbfbf" stroke="black" points="0.5,-0 0.5,-30 165.5,-30 165.5,-0 0.5,-0"/>
<text text-anchor="start" x="8.5" y="-18" font-family="Helvetica,sans-Serif" font-size="10.00">instructions.commands.Tell.get</text>
<text text-anchor="middle" x="83" y="-7" font-family="Helvetica,sans-Serif" font-size="10.00">AskedIDs</text>
</g>
<!-- Node2 -->
<g id="node2" class="node"><title>Node2</title>
<g id="a_node2"><a xlink:href="../../dc/dc1/classinstructions_1_1_list_instruction.html#a6242d687504eb6c42cd3834b3ddbfbbe" target="_top" xlink:title="instructions.ListInstruction.get\lInstructionList">
<polygon fill="white" stroke="black" points="202.5,-0 202.5,-30 363.5,-30 363.5,-0 202.5,-0"/>
<text text-anchor="start" x="210.5" y="-18" font-family="Helvetica,sans-Serif" font-size="10.00">instructions.ListInstruction.get</text>
<text text-anchor="middle" x="283" y="-7" font-family="Helvetica,sans-Serif" font-size="10.00">InstructionList</text>
</a>
</g>
</g>
<!-- Node1&#45;&gt;Node2 -->
<g id="edge1" class="edge"><title>Node1&#45;&gt;Node2</title>
<path fill="none" stroke="midnightblue" d="M165.677,-15C174.501,-15 183.514,-15 192.424,-15"/>
<polygon fill="midnightblue" stroke="midnightblue" points="192.424,-18.5001 202.424,-15 192.424,-11.5001 192.424,-18.5001"/>
</g>
</g>
</svg>
