<?xml version="1.0" encoding="UTF-8" standalone="no"?>
<!DOCTYPE svg PUBLIC "-//W3C//DTD SVG 1.1//EN"
 "http://www.w3.org/Graphics/SVG/1.1/DTD/svg11.dtd">
<!-- Generated by graphviz version 2.36.0 (20140111.2315)
 -->
<!-- Title: instructions.commands.Tell.execute Pages: 1 -->
<svg width="596pt" height="77pt"
 viewBox="0.00 0.00 596.00 77.00" xmlns="http://www.w3.org/2000/svg" xmlns:xlink="http://www.w3.org/1999/xlink">
<g id="graph0" class="graph" transform="scale(1 1) rotate(0) translate(4 73)">
<title>instructions.commands.Tell.execute</title>
<polygon fill="white" stroke="none" points="-4,4 -4,-73 592,-73 592,4 -4,4"/>
<!-- Node1 -->
<g id="node1" class="node"><title>Node1</title>
<polygon fill="#bfbfbf" stroke="black" points="0,-22.5 0,-41.5 188,-41.5 188,-22.5 0,-22.5"/>
<text text-anchor="middle" x="94" y="-29.5" font-family="Helvetica,sans-Serif" font-size="10.00">instructions.commands.Tell.execute</text>
</g>
<!-- Node2 -->
<g id="node2" class="node"><title>Node2</title>
<g id="a_node2"><a xlink:href="../../d6/d75/classinstructions_1_1commands_1_1_tell.html#a840450d41463156112f5130fa78d720f" target="_top" xlink:title="instructions.commands.Tell.get\lAskedIDs">
<polygon fill="white" stroke="black" points="224.5,-39 224.5,-69 389.5,-69 389.5,-39 224.5,-39"/>
<text text-anchor="start" x="232.5" y="-57" font-family="Helvetica,sans-Serif" font-size="10.00">instructions.commands.Tell.get</text>
<text text-anchor="middle" x="307" y="-46" font-family="Helvetica,sans-Serif" font-size="10.00">AskedIDs</text>
</a>
</g>
</g>
<!-- Node1&#45;&gt;Node2 -->
<g id="edge1" class="edge"><title>Node1&#45;&gt;Node2</title>
<path fill="none" stroke="midnightblue" d="M186.32,-41.5216C195.645,-42.4938 205.12,-43.4817 214.447,-44.4541"/>
<polygon fill="midnightblue" stroke="midnightblue" points="214.186,-47.9459 224.495,-45.5018 214.912,-40.9836 214.186,-47.9459"/>
</g>
<!-- Node4 -->
<g id="node4" class="node"><title>Node4</title>
<g id="a_node4"><a xlink:href="../../df/db7/classmodel_1_1_turtles_list.html#a45041fe0cefc4a5b04cf27f63297f3a4" target="_top" xlink:title="model.TurtlesList.setActive">
<polygon fill="white" stroke="black" points="235,-0.5 235,-19.5 379,-19.5 379,-0.5 235,-0.5"/>
<text text-anchor="middle" x="307" y="-7.5" font-family="Helvetica,sans-Serif" font-size="10.00">model.TurtlesList.setActive</text>
</a>
</g>
</g>
<!-- Node1&#45;&gt;Node4 -->
<g id="edge3" class="edge"><title>Node1&#45;&gt;Node4</title>
<path fill="none" stroke="midnightblue" d="M186.32,-22.4784C199.152,-21.1406 212.268,-19.7731 224.891,-18.4569"/>
<polygon fill="midnightblue" stroke="midnightblue" points="225.311,-21.9322 234.894,-17.4139 224.585,-14.9699 225.311,-21.9322"/>
</g>
<!-- Node3 -->
<g id="node3" class="node"><title>Node3</title>
<g id="a_node3"><a xlink:href="../../dc/dc1/classinstructions_1_1_list_instruction.html#a6242d687504eb6c42cd3834b3ddbfbbe" target="_top" xlink:title="instructions.ListInstruction.get\lInstructionList">
<polygon fill="white" stroke="black" points="426.5,-39 426.5,-69 587.5,-69 587.5,-39 426.5,-39"/>
<text text-anchor="start" x="434.5" y="-57" font-family="Helvetica,sans-Serif" font-size="10.00">instructions.ListInstruction.get</text>
<text text-anchor="middle" x="507" y="-46" font-family="Helvetica,sans-Serif" font-size="10.00">InstructionList</text>
</a>
</g>
</g>
<!-- Node2&#45;&gt;Node3 -->
<g id="edge2" class="edge"><title>Node2&#45;&gt;Node3</title>
<path fill="none" stroke="midnightblue" d="M389.677,-54C398.501,-54 407.514,-54 416.424,-54"/>
<polygon fill="midnightblue" stroke="midnightblue" points="416.424,-57.5001 426.424,-54 416.424,-50.5001 416.424,-57.5001"/>
</g>
</g>
</svg>
