<?xml version="1.0" encoding="UTF-8" standalone="no"?>
<!DOCTYPE svg PUBLIC "-//W3C//DTD SVG 1.1//EN"
 "http://www.w3.org/Graphics/SVG/1.1/DTD/svg11.dtd">
<!-- Generated by graphviz version 2.36.0 (20140111.2315)
 -->
<!-- Title: view.SlogoWindow.update Pages: 1 -->
<!--zoomable 241 -->
<svg id="main" version="1.1" xmlns="http://www.w3.org/2000/svg" xmlns:xlink="http://www.w3.org/1999/xlink" xml:space="preserve" onload="init(evt)">
<style type="text/css"><![CDATA[
.edge:hover path { stroke: red; }
.edge:hover polygon { stroke: red; fill: red; }
]]></style>
<script type="text/javascript"><![CDATA[
var edges = document.getElementsByTagName('g');
if (edges && edges.length) {
  for (var i=0;i<edges.length;i++) {
    if (edges[i].id.substr(0,4)=='edge') {
      edges[i].setAttribute('class','edge');
    }
  }
}
]]></script>
        <defs>
                <circle id="rim" cx="0" cy="0" r="7"/>
                <circle id="rim2" cx="0" cy="0" r="3.5"/>
                <g id="zoomPlus">
                        <use xlink:href="#rim" fill="#404040">
                                <set attributeName="fill" to="#808080" begin="zoomplus.mouseover" end="zoomplus.mouseout"/>
                        </use>
                        <path d="M-4,0h8M0,-4v8" fill="none" stroke="white" stroke-width="1.5" pointer-events="none"/>
                </g>
                <g id="zoomMin">
                        <use xlink:href="#rim" fill="#404040">
                                <set attributeName="fill" to="#808080" begin="zoomminus.mouseover" end="zoomminus.mouseout"/>
                        </use>
                        <path d="M-4,0h8" fill="none" stroke="white" stroke-width="1.5" pointer-events="none"/>
                </g>
                <g id="dirArrow">
                        <path fill="none" stroke="white" stroke-width="1.5" d="M0,-3.0v7 M-2.5,-0.5L0,-3.0L2.5,-0.5"/>
                </g>
               <g id="resetDef">
                       <use xlink:href="#rim2" fill="#404040">
                               <set attributeName="fill" to="#808080" begin="reset.mouseover" end="reset.mouseout"/>
                       </use>
               </g>
        </defs>

<script type="text/javascript">
var viewWidth = 1228;
var viewHeight = 241;
var sectionId = 'dynsection-7';
</script>
<script xlink:href="../../svgpan.js"/>
<svg id="graph" class="graph">
<g id="viewport">
<title>view.SlogoWindow.update</title>
<polygon fill="white" stroke="none" points="-4,4 -4,-237 1224,-237 1224,4 -4,4"/>
<!-- Node1 -->
<g id="node1" class="node"><title>Node1</title>
<polygon fill="#bfbfbf" stroke="black" points="0.5,-98.5 0.5,-117.5 137.5,-117.5 137.5,-98.5 0.5,-98.5"/>
<text text-anchor="middle" x="69" y="-105.5" font-family="Helvetica,sans-Serif" font-size="10.00">view.SlogoWindow.update</text>
</g>
<!-- Node2 -->
<g id="node2" class="node"><title>Node2</title>
<g id="a_node2"><a xlink:href="../../dd/dc5/classview_1_1_settings_view.html#ab1c00b7b751c37129b76da3a5c9534a6" target="_top" xlink:title="view.SettingsView.change\lBGPicked">
<polygon fill="white" stroke="black" points="187,-203 187,-233 325,-233 325,-203 187,-203"/>
<text text-anchor="start" x="195" y="-221" font-family="Helvetica,sans-Serif" font-size="10.00">view.SettingsView.change</text>
<text text-anchor="middle" x="256" y="-210" font-family="Helvetica,sans-Serif" font-size="10.00">BGPicked</text>
</a>
</g>
</g>
<!-- Node1&#45;&gt;Node2 -->
<g id="edge1" class="edge"><title>Node1&#45;&gt;Node2</title>
<path fill="none" stroke="midnightblue" d="M79.1182,-117.585C96.176,-134.994 134.75,-171.949 174,-193 178.158,-195.23 182.546,-197.294 187.039,-199.198"/>
<polygon fill="midnightblue" stroke="midnightblue" points="185.787,-202.466 196.373,-202.884 188.358,-195.956 185.787,-202.466"/>
</g>
<!-- Node3 -->
<g id="node3" class="node"><title>Node3</title>
<g id="a_node3"><a xlink:href="../../d8/df7/classview_1_1_turtle_view.html#a1c3a12923246ff8b10715ee6568e11a1" target="_top" xlink:title="view.TurtleView.changeColor">
<polygon fill="white" stroke="black" points="181.5,-164.5 181.5,-183.5 330.5,-183.5 330.5,-164.5 181.5,-164.5"/>
<text text-anchor="middle" x="256" y="-171.5" font-family="Helvetica,sans-Serif" font-size="10.00">view.TurtleView.changeColor</text>
</a>
</g>
</g>
<!-- Node1&#45;&gt;Node3 -->
<g id="edge2" class="edge"><title>Node1&#45;&gt;Node3</title>
<path fill="none" stroke="midnightblue" d="M89.1468,-117.682C109.712,-127.791 143.548,-143.595 174,-154 182.465,-156.892 191.56,-159.553 200.488,-161.926"/>
<polygon fill="midnightblue" stroke="midnightblue" points="199.899,-165.388 210.455,-164.479 201.636,-158.607 199.899,-165.388"/>
</g>
<!-- Node4 -->
<g id="node4" class="node"><title>Node4</title>
<g id="a_node4"><a xlink:href="../../dd/dc5/classview_1_1_settings_view.html#a5c3f196137bc82a4c2c3c02bded8364d" target="_top" xlink:title="view.SettingsView.change\lPenPicked">
<polygon fill="white" stroke="black" points="187,-115 187,-145 325,-145 325,-115 187,-115"/>
<text text-anchor="start" x="195" y="-133" font-family="Helvetica,sans-Serif" font-size="10.00">view.SettingsView.change</text>
<text text-anchor="middle" x="256" y="-122" font-family="Helvetica,sans-Serif" font-size="10.00">PenPicked</text>
</a>
</g>
</g>
<!-- Node1&#45;&gt;Node4 -->
<g id="edge3" class="edge"><title>Node1&#45;&gt;Node4</title>
<path fill="none" stroke="midnightblue" d="M137.575,-116.036C150.406,-117.562 163.929,-119.17 177.051,-120.73"/>
<polygon fill="midnightblue" stroke="midnightblue" points="176.646,-124.207 186.989,-121.912 177.472,-117.256 176.646,-124.207"/>
</g>
<!-- Node5 -->
<g id="node5" class="node"><title>Node5</title>
<g id="a_node5"><a xlink:href="../../de/d2f/classview_1_1_data_view.html#ab1acc31f3125a6a1d52e21b05bae379b" target="_top" xlink:title="view.DataView.update">
<polygon fill="white" stroke="black" points="196,-76.5 196,-95.5 316,-95.5 316,-76.5 196,-76.5"/>
<text text-anchor="middle" x="256" y="-83.5" font-family="Helvetica,sans-Serif" font-size="10.00">view.DataView.update</text>
</a>
</g>
</g>
<!-- Node1&#45;&gt;Node5 -->
<g id="edge4" class="edge"><title>Node1&#45;&gt;Node5</title>
<path fill="none" stroke="midnightblue" d="M137.575,-99.9641C153.239,-98.1013 169.933,-96.116 185.672,-94.2445"/>
<polygon fill="midnightblue" stroke="midnightblue" points="186.339,-97.6899 195.855,-93.0334 185.512,-90.7389 186.339,-97.6899"/>
</g>
<!-- Node18 -->
<g id="node18" class="node"><title>Node18</title>
<g id="a_node18"><a xlink:href="../../dc/da8/classview_1_1_history_results_view.html#a6a4386f2ddde878a8c42ca401a79aee5" target="_top" xlink:title="view.HistoryResultsView.update">
<polygon fill="white" stroke="black" points="174,-38.5 174,-57.5 338,-57.5 338,-38.5 174,-38.5"/>
<text text-anchor="middle" x="256" y="-45.5" font-family="Helvetica,sans-Serif" font-size="10.00">view.HistoryResultsView.update</text>
</a>
</g>
</g>
<!-- Node1&#45;&gt;Node18 -->
<g id="edge19" class="edge"><title>Node1&#45;&gt;Node18</title>
<path fill="none" stroke="midnightblue" d="M91.5824,-98.4262C112.39,-89.4519 144.917,-76.0909 174,-67 182.125,-64.4601 190.803,-62.0827 199.347,-59.9275"/>
<polygon fill="midnightblue" stroke="midnightblue" points="200.391,-63.2755 209.275,-57.5032 198.731,-56.4753 200.391,-63.2755"/>
</g>
<!-- Node21 -->
<g id="node21" class="node"><title>Node21</title>
<g id="a_node21"><a xlink:href="../../d8/df7/classview_1_1_turtle_view.html#a8c458059cd43cec20a2c14212fa23910" target="_top" xlink:title="view.TurtleView.update">
<polygon fill="white" stroke="black" points="195,-0.5 195,-19.5 317,-19.5 317,-0.5 195,-0.5"/>
<text text-anchor="middle" x="256" y="-7.5" font-family="Helvetica,sans-Serif" font-size="10.00">view.TurtleView.update</text>
</a>
</g>
</g>
<!-- Node1&#45;&gt;Node21 -->
<g id="edge23" class="edge"><title>Node1&#45;&gt;Node21</title>
<path fill="none" stroke="midnightblue" d="M79.6749,-98.3497C97.0192,-81.6144 135.228,-47.2537 174,-29 179.274,-26.5169 184.899,-24.3445 190.632,-22.4465"/>
<polygon fill="midnightblue" stroke="midnightblue" points="191.785,-25.7544 200.341,-19.5051 189.755,-19.0551 191.785,-25.7544"/>
</g>
<!-- Node6 -->
<g id="node6" class="node"><title>Node6</title>
<g id="a_node6"><a xlink:href="../../d9/dd3/classview_1_1_variables_view.html#a298237e15137e0cf00d29789d6359c7c" target="_top" xlink:title="view.VariablesView.update">
<polygon fill="white" stroke="black" points="393,-152.5 393,-171.5 533,-171.5 533,-152.5 393,-152.5"/>
<text text-anchor="middle" x="463" y="-159.5" font-family="Helvetica,sans-Serif" font-size="10.00">view.VariablesView.update</text>
</a>
</g>
</g>
<!-- Node5&#45;&gt;Node6 -->
<g id="edge5" class="edge"><title>Node5&#45;&gt;Node6</title>
<path fill="none" stroke="midnightblue" d="M316.075,-95.5636C323.722,-98.0234 331.237,-101.115 338,-105 358.173,-116.588 353.725,-131.591 374,-143 378.016,-145.26 382.275,-147.251 386.666,-149.006"/>
<polygon fill="midnightblue" stroke="midnightblue" points="385.856,-152.432 396.45,-152.482 388.199,-145.836 385.856,-152.432"/>
</g>
<!-- Node11 -->
<g id="node11" class="node"><title>Node11</title>
<g id="a_node11"><a xlink:href="../../d9/d93/classview_1_1_basic_commands_view.html#a787c3d60d71cc35031fcc939758c25dc" target="_top" xlink:title="view.BasicCommandsView.update">
<polygon fill="white" stroke="black" points="374,-76.5 374,-95.5 552,-95.5 552,-76.5 374,-76.5"/>
<text text-anchor="middle" x="463" y="-83.5" font-family="Helvetica,sans-Serif" font-size="10.00">view.BasicCommandsView.update</text>
</a>
</g>
</g>
<!-- Node5&#45;&gt;Node11 -->
<g id="edge10" class="edge"><title>Node5&#45;&gt;Node11</title>
<path fill="none" stroke="midnightblue" d="M316.019,-86C330.908,-86 347.3,-86 363.555,-86"/>
<polygon fill="midnightblue" stroke="midnightblue" points="363.644,-89.5001 373.644,-86 363.644,-82.5001 363.644,-89.5001"/>
</g>
<!-- Node17 -->
<g id="node17" class="node"><title>Node17</title>
<g id="a_node17"><a xlink:href="../../d8/d0c/classview_1_1_u_d_commands_view.html#a07deb1195869f7a78443052e51e25fe8" target="_top" xlink:title="view.UDCommandsView.update">
<polygon fill="white" stroke="black" points="379.5,-114.5 379.5,-133.5 546.5,-133.5 546.5,-114.5 379.5,-114.5"/>
<text text-anchor="middle" x="463" y="-121.5" font-family="Helvetica,sans-Serif" font-size="10.00">view.UDCommandsView.update</text>
</a>
</g>
</g>
<!-- Node5&#45;&gt;Node17 -->
<g id="edge16" class="edge"><title>Node5&#45;&gt;Node17</title>
<path fill="none" stroke="midnightblue" d="M308.466,-95.54C336.368,-100.712 371.045,-107.14 400.38,-112.578"/>
<polygon fill="midnightblue" stroke="midnightblue" points="400.043,-116.075 410.513,-114.456 401.319,-109.192 400.043,-116.075"/>
</g>
<!-- Node7 -->
<g id="node7" class="node"><title>Node7</title>
<g id="a_node7"><a xlink:href="../../d6/d2c/classmodel_1_1_variables_list.html#a0e44325b4baffec7b6e4820f863eefea" target="_top" xlink:title="model.VariablesList.generate">
<polygon fill="white" stroke="black" points="594,-164.5 594,-183.5 750,-183.5 750,-164.5 594,-164.5"/>
<text text-anchor="middle" x="672" y="-171.5" font-family="Helvetica,sans-Serif" font-size="10.00">model.VariablesList.generate</text>
</a>
</g>
</g>
<!-- Node6&#45;&gt;Node7 -->
<g id="edge6" class="edge"><title>Node6&#45;&gt;Node7</title>
<path fill="none" stroke="midnightblue" d="M533.216,-166.013C549.275,-166.944 566.577,-167.946 583.313,-168.917"/>
<polygon fill="midnightblue" stroke="midnightblue" points="583.458,-172.431 593.644,-169.516 583.864,-165.443 583.458,-172.431"/>
</g>
<!-- Node8 -->
<g id="node8" class="node"><title>Node8</title>
<g id="a_node8"><a xlink:href="../../d4/d36/classview_1_1_data_view_components.html#a05b49c46bdc53791b28b09bf91743124" target="_top" xlink:title="view.DataViewComponents.add\lTextBoxWithDeleteButton">
<polygon fill="white" stroke="black" points="588.5,-115 588.5,-145 755.5,-145 755.5,-115 588.5,-115"/>
<text text-anchor="start" x="596.5" y="-133" font-family="Helvetica,sans-Serif" font-size="10.00">view.DataViewComponents.add</text>
<text text-anchor="middle" x="672" y="-122" font-family="Helvetica,sans-Serif" font-size="10.00">TextBoxWithDeleteButton</text>
</a>
</g>
</g>
<!-- Node6&#45;&gt;Node8 -->
<g id="edge7" class="edge"><title>Node6&#45;&gt;Node8</title>
<path fill="none" stroke="midnightblue" d="M525.546,-152.486C541.984,-149.944 560.122,-147.141 577.85,-144.4"/>
<polygon fill="midnightblue" stroke="midnightblue" points="578.877,-147.783 588.225,-142.796 577.807,-140.865 578.877,-147.783"/>
</g>
<!-- Node9 -->
<g id="node9" class="node"><title>Node9</title>
<g id="a_node9"><a xlink:href="../../d4/d36/classview_1_1_data_view_components.html#aaebf0a781dd02fe599176d57c2ea9a40" target="_top" xlink:title="view.DataViewComponents.make\lDeleteButton">
<polygon fill="white" stroke="black" points="816,-115 816,-145 992,-145 992,-115 816,-115"/>
<text text-anchor="start" x="824" y="-133" font-family="Helvetica,sans-Serif" font-size="10.00">view.DataViewComponents.make</text>
<text text-anchor="middle" x="904" y="-122" font-family="Helvetica,sans-Serif" font-size="10.00">DeleteButton</text>
</a>
</g>
</g>
<!-- Node8&#45;&gt;Node9 -->
<g id="edge8" class="edge"><title>Node8&#45;&gt;Node9</title>
<path fill="none" stroke="midnightblue" d="M755.71,-130C771.921,-130 789.064,-130 805.7,-130"/>
<polygon fill="midnightblue" stroke="midnightblue" points="805.98,-133.5 815.98,-130 805.98,-126.5 805.98,-133.5"/>
</g>
<!-- Node10 -->
<g id="node10" class="node"><title>Node10</title>
<g id="a_node10"><a xlink:href="../../d1/d69/interfacemodel_1_1_feature.html#ad39db6a63efe12b76e6b070a633db99e" target="_top" xlink:title="model.Feature.remove">
<polygon fill="white" stroke="black" points="1073.5,-120.5 1073.5,-139.5 1198.5,-139.5 1198.5,-120.5 1073.5,-120.5"/>
<text text-anchor="middle" x="1136" y="-127.5" font-family="Helvetica,sans-Serif" font-size="10.00">model.Feature.remove</text>
</a>
</g>
</g>
<!-- Node9&#45;&gt;Node10 -->
<g id="edge9" class="edge"><title>Node9&#45;&gt;Node10</title>
<path fill="none" stroke="midnightblue" d="M992.281,-130C1015.64,-130 1040.63,-130 1063.06,-130"/>
<polygon fill="midnightblue" stroke="midnightblue" points="1063.17,-133.5 1073.17,-130 1063.17,-126.5 1063.17,-133.5"/>
</g>
<!-- Node12 -->
<g id="node12" class="node"><title>Node12</title>
<g id="a_node12"><a xlink:href="../../db/d98/classview_1_1_scroll_view.html#af810ea194b6bcd9c7c8da1f84ebd5ac2" target="_top" xlink:title="view.ScrollView.addTextBox">
<polygon fill="white" stroke="black" points="600,-38.5 600,-57.5 744,-57.5 744,-38.5 600,-38.5"/>
<text text-anchor="middle" x="672" y="-45.5" font-family="Helvetica,sans-Serif" font-size="10.00">view.ScrollView.addTextBox</text>
</a>
</g>
</g>
<!-- Node11&#45;&gt;Node12 -->
<g id="edge11" class="edge"><title>Node11&#45;&gt;Node12</title>
<path fill="none" stroke="midnightblue" d="M515.968,-76.46C544.266,-71.2652 579.464,-64.8037 609.167,-59.3511"/>
<polygon fill="midnightblue" stroke="midnightblue" points="609.807,-62.792 619.011,-57.5439 608.543,-55.9071 609.807,-62.792"/>
</g>
<!-- Node15 -->
<g id="node15" class="node"><title>Node15</title>
<g id="a_node15"><a xlink:href="../../d6/df7/classmodel_1_1_commands_list.html#a0f1df4e3621e54ac0d52131830128d78" target="_top" xlink:title="model.CommandsList.generate">
<polygon fill="white" stroke="black" points="588,-76.5 588,-95.5 756,-95.5 756,-76.5 588,-76.5"/>
<text text-anchor="middle" x="672" y="-83.5" font-family="Helvetica,sans-Serif" font-size="10.00">model.CommandsList.generate</text>
</a>
</g>
</g>
<!-- Node11&#45;&gt;Node15 -->
<g id="edge14" class="edge"><title>Node11&#45;&gt;Node15</title>
<path fill="none" stroke="midnightblue" d="M552.087,-86C560.629,-86 569.314,-86 577.902,-86"/>
<polygon fill="midnightblue" stroke="midnightblue" points="577.926,-89.5001 587.926,-86 577.926,-82.5001 577.926,-89.5001"/>
</g>
<!-- Node13 -->
<g id="node13" class="node"><title>Node13</title>
<g id="a_node13"><a xlink:href="../../db/d98/classview_1_1_scroll_view.html#af8a9a83dc920350c521d6d78016cafce" target="_top" xlink:title="view.ScrollView.makeClickableText">
<polygon fill="white" stroke="black" points="815.5,-38.5 815.5,-57.5 992.5,-57.5 992.5,-38.5 815.5,-38.5"/>
<text text-anchor="middle" x="904" y="-45.5" font-family="Helvetica,sans-Serif" font-size="10.00">view.ScrollView.makeClickableText</text>
</a>
</g>
</g>
<!-- Node12&#45;&gt;Node13 -->
<g id="edge12" class="edge"><title>Node12&#45;&gt;Node13</title>
<path fill="none" stroke="midnightblue" d="M744.198,-48C763.385,-48 784.484,-48 804.861,-48"/>
<polygon fill="midnightblue" stroke="midnightblue" points="805.115,-51.5001 815.115,-48 805.115,-44.5001 805.115,-51.5001"/>
</g>
<!-- Node14 -->
<g id="node14" class="node"><title>Node14</title>
<g id="a_node14"><a xlink:href="../../d6/d0a/classview_1_1_input_view.html#a81954709509ce44f7fe364a24a613d66" target="_top" xlink:title="view.InputView.addAndShowText">
<polygon fill="white" stroke="black" points="1052,-38.5 1052,-57.5 1220,-57.5 1220,-38.5 1052,-38.5"/>
<text text-anchor="middle" x="1136" y="-45.5" font-family="Helvetica,sans-Serif" font-size="10.00">view.InputView.addAndShowText</text>
</a>
</g>
</g>
<!-- Node13&#45;&gt;Node14 -->
<g id="edge13" class="edge"><title>Node13&#45;&gt;Node14</title>
<path fill="none" stroke="midnightblue" d="M992.609,-48C1008.69,-48 1025.54,-48 1041.78,-48"/>
<polygon fill="midnightblue" stroke="midnightblue" points="1041.8,-51.5001 1051.8,-48 1041.8,-44.5001 1041.8,-51.5001"/>
</g>
<!-- Node16 -->
<g id="node16" class="node"><title>Node16</title>
<g id="a_node16"><a xlink:href="../../d6/df7/classmodel_1_1_commands_list.html#afe889d0ea233be74e064b369e68ad9d6" target="_top" xlink:title="model.CommandsList.makeCommandsList">
<polygon fill="white" stroke="black" points="792,-76.5 792,-95.5 1016,-95.5 1016,-76.5 792,-76.5"/>
<text text-anchor="middle" x="904" y="-83.5" font-family="Helvetica,sans-Serif" font-size="10.00">model.CommandsList.makeCommandsList</text>
</a>
</g>
</g>
<!-- Node15&#45;&gt;Node16 -->
<g id="edge15" class="edge"><title>Node15&#45;&gt;Node16</title>
<path fill="none" stroke="midnightblue" d="M756.035,-86C764.359,-86 772.925,-86 781.54,-86"/>
<polygon fill="midnightblue" stroke="midnightblue" points="781.663,-89.5001 791.663,-86 781.663,-82.5001 781.663,-89.5001"/>
</g>
<!-- Node17&#45;&gt;Node8 -->
<g id="edge18" class="edge"><title>Node17&#45;&gt;Node8</title>
<path fill="none" stroke="midnightblue" d="M546.704,-126.397C557.116,-126.699 567.82,-127.009 578.372,-127.315"/>
<polygon fill="midnightblue" stroke="midnightblue" points="578.33,-130.815 588.427,-127.607 578.533,-123.818 578.33,-130.815"/>
</g>
<!-- Node17&#45;&gt;Node15 -->
<g id="edge17" class="edge"><title>Node17&#45;&gt;Node15</title>
<path fill="none" stroke="midnightblue" d="M515.968,-114.46C544.266,-109.265 579.464,-102.804 609.167,-97.3511"/>
<polygon fill="midnightblue" stroke="midnightblue" points="609.807,-100.792 619.011,-95.5439 608.543,-93.9071 609.807,-100.792"/>
</g>
<!-- Node19 -->
<g id="node19" class="node"><title>Node19</title>
<g id="a_node19"><a xlink:href="../../d1/d0e/classview_1_1_history_view.html#abfcd825b67237a6c1a803a1314b223f3" target="_top" xlink:title="view.HistoryView.update">
<polygon fill="white" stroke="black" points="397.5,-38.5 397.5,-57.5 528.5,-57.5 528.5,-38.5 397.5,-38.5"/>
<text text-anchor="middle" x="463" y="-45.5" font-family="Helvetica,sans-Serif" font-size="10.00">view.HistoryView.update</text>
</a>
</g>
</g>
<!-- Node18&#45;&gt;Node19 -->
<g id="edge20" class="edge"><title>Node18&#45;&gt;Node19</title>
<path fill="none" stroke="midnightblue" d="M338.021,-48C354.179,-48 371.083,-48 387.027,-48"/>
<polygon fill="midnightblue" stroke="midnightblue" points="387.348,-51.5001 397.348,-48 387.348,-44.5001 387.348,-51.5001"/>
</g>
<!-- Node20 -->
<g id="node20" class="node"><title>Node20</title>
<g id="a_node20"><a xlink:href="../../d0/d12/classview_1_1_results_view.html#ae7a880bc8b3e73a919f9cea7c46703f9" target="_top" xlink:title="view.ResultsView.update">
<polygon fill="white" stroke="black" points="397.5,-0.5 397.5,-19.5 528.5,-19.5 528.5,-0.5 397.5,-0.5"/>
<text text-anchor="middle" x="463" y="-7.5" font-family="Helvetica,sans-Serif" font-size="10.00">view.ResultsView.update</text>
</a>
</g>
</g>
<!-- Node18&#45;&gt;Node20 -->
<g id="edge22" class="edge"><title>Node18&#45;&gt;Node20</title>
<path fill="none" stroke="midnightblue" d="M308.466,-38.46C336.368,-33.2878 371.045,-26.8599 400.38,-21.4222"/>
<polygon fill="midnightblue" stroke="midnightblue" points="401.319,-24.8079 410.513,-19.5439 400.043,-17.9252 401.319,-24.8079"/>
</g>
<!-- Node19&#45;&gt;Node12 -->
<g id="edge21" class="edge"><title>Node19&#45;&gt;Node12</title>
<path fill="none" stroke="midnightblue" d="M528.645,-48C547.926,-48 569.312,-48 589.523,-48"/>
<polygon fill="midnightblue" stroke="midnightblue" points="589.65,-51.5001 599.65,-48 589.65,-44.5001 589.65,-51.5001"/>
</g>
</g>
</svg>
        <g id="navigator" transform="translate(0 0)" fill="#404254">
                <rect fill="#f2f5e9" fill-opacity="0.5" stroke="#606060" stroke-width=".5" x="0" y="0" width="60" height="60"/>
                <use id="zoomplus" xlink:href="#zoomPlus" x="17" y="9" onmousedown="handleZoom(evt,'in')"/>
                <use id="zoomminus" xlink:href="#zoomMin" x="42" y="9" onmousedown="handleZoom(evt,'out')"/>
                <use id="reset" xlink:href="#resetDef" x="30" y="36" onmousedown="handleReset()"/>
                <g id="arrowUp" xlink:href="#dirArrow" transform="translate(30 24)" onmousedown="handlePan(0,-1)">
                  <use xlink:href="#rim" fill="#404040">
                        <set attributeName="fill" to="#808080" begin="arrowUp.mouseover" end="arrowUp.mouseout"/>
                  </use>
                  <path fill="none" stroke="white" stroke-width="1.5" d="M0,-3.0v7 M-2.5,-0.5L0,-3.0L2.5,-0.5"/>
                </g>
                <g id="arrowRight" xlink:href="#dirArrow" transform="rotate(90) translate(36 -43)" onmousedown="handlePan(1,0)">
                  <use xlink:href="#rim" fill="#404040">
                        <set attributeName="fill" to="#808080" begin="arrowRight.mouseover" end="arrowRight.mouseout"/>
                  </use>
                  <path fill="none" stroke="white" stroke-width="1.5" d="M0,-3.0v7 M-2.5,-0.5L0,-3.0L2.5,-0.5"/>
                </g>
                <g id="arrowDown" xlink:href="#dirArrow" transform="rotate(180) translate(-30 -48)" onmousedown="handlePan(0,1)">
                  <use xlink:href="#rim" fill="#404040">
                        <set attributeName="fill" to="#808080" begin="arrowDown.mouseover" end="arrowDown.mouseout"/>
                  </use>
                  <path fill="none" stroke="white" stroke-width="1.5" d="M0,-3.0v7 M-2.5,-0.5L0,-3.0L2.5,-0.5"/>
                </g>
                <g id="arrowLeft" xlink:href="#dirArrow" transform="rotate(270) translate(-36 17)" onmousedown="handlePan(-1,0)">
                  <use xlink:href="#rim" fill="#404040">
                        <set attributeName="fill" to="#808080" begin="arrowLeft.mouseover" end="arrowLeft.mouseout"/>
                  </use>
                  <path fill="none" stroke="white" stroke-width="1.5" d="M0,-3.0v7 M-2.5,-0.5L0,-3.0L2.5,-0.5"/>
                </g>
        </g>
        <svg viewBox="0 0 15 15" width="100%" height="30px" preserveAspectRatio="xMaxYMin meet">
         <g id="arrow_out" transform="scale(0.3 0.3)">
          <a xlink:href="classview_1_1_slogo_window_a1605d0405c7961727ef7c3d96e41b743_cgraph_org.svg" target="_base">
           <rect id="button" ry="5" rx="5" y="6" x="6" height="38" width="38"
                fill="#f2f5e9" fill-opacity="0.5" stroke="#606060" stroke-width="1.0"/>
           <path id="arrow"
             d="M 11.500037,31.436501 C 11.940474,20.09759 22.043105,11.32322 32.158766,21.979434 L 37.068811,17.246167 C 37.068811,17.246167 37.088388,32 37.088388,32 L 22.160133,31.978069 C 22.160133,31.978069 26.997745,27.140456 26.997745,27.140456 C 18.528582,18.264221 13.291696,25.230495 11.500037,31.436501 z"
             style="fill:#404040;"/>
          </a>
         </g>
        </svg>
</svg>
