<?xml version="1.0" encoding="UTF-8" standalone="no"?>
<!DOCTYPE svg PUBLIC "-//W3C//DTD SVG 1.1//EN"
 "http://www.w3.org/Graphics/SVG/1.1/DTD/svg11.dtd">
<!-- Generated by graphviz version 2.36.0 (20140111.2315)
 -->
<!-- Title: view.SlogoWindow.SlogoWindow Pages: 1 -->
<svg width="546pt" height="91pt"
 viewBox="0.00 0.00 546.00 91.00" xmlns="http://www.w3.org/2000/svg" xmlns:xlink="http://www.w3.org/1999/xlink">
<g id="graph0" class="graph" transform="scale(1 1) rotate(0) translate(4 87)">
<title>view.SlogoWindow.SlogoWindow</title>
<polygon fill="white" stroke="none" points="-4,4 -4,-87 542,-87 542,4 -4,4"/>
<!-- Node1 -->
<g id="node1" class="node"><title>Node1</title>
<polygon fill="#bfbfbf" stroke="black" points="0,-41.5 0,-60.5 166,-60.5 166,-41.5 0,-41.5"/>
<text text-anchor="middle" x="83" y="-48.5" font-family="Helvetica,sans-Serif" font-size="10.00">view.SlogoWindow.SlogoWindow</text>
</g>
<!-- Node2 -->
<g id="node2" class="node"><title>Node2</title>
<g id="a_node2"><a xlink:href="../../d3/d88/classmodel_1_1_slogo_model.html#a5a328c6f896a5c150e95b49db71dea8f" target="_top" xlink:title="model.SlogoModel.load">
<polygon fill="white" stroke="black" points="207,-63.5 207,-82.5 335,-82.5 335,-63.5 207,-63.5"/>
<text text-anchor="middle" x="271" y="-70.5" font-family="Helvetica,sans-Serif" font-size="10.00">model.SlogoModel.load</text>
</a>
</g>
</g>
<!-- Node1&#45;&gt;Node2 -->
<g id="edge1" class="edge"><title>Node1&#45;&gt;Node2</title>
<path fill="none" stroke="midnightblue" d="M164.501,-60.5216C175.215,-61.7888 186.154,-63.0827 196.736,-64.3344"/>
<polygon fill="midnightblue" stroke="midnightblue" points="196.411,-67.8203 206.753,-65.5192 197.233,-60.8687 196.411,-67.8203"/>
</g>
<!-- Node3 -->
<g id="node3" class="node"><title>Node3</title>
<g id="a_node3"><a xlink:href="../../d0/dfc/classview_1_1_slogo_window.html#ac299c416ca174b4ebe51eaf7d2700af3" target="_top" xlink:title="view.SlogoWindow.onClick\lCommand">
<polygon fill="white" stroke="black" points="202.5,-14 202.5,-44 339.5,-44 339.5,-14 202.5,-14"/>
<text text-anchor="start" x="210.5" y="-32" font-family="Helvetica,sans-Serif" font-size="10.00">view.SlogoWindow.onClick</text>
<text text-anchor="middle" x="271" y="-21" font-family="Helvetica,sans-Serif" font-size="10.00">Command</text>
</a>
</g>
</g>
<!-- Node1&#45;&gt;Node3 -->
<g id="edge2" class="edge"><title>Node1&#45;&gt;Node3</title>
<path fill="none" stroke="midnightblue" d="M164.501,-41.4784C173.802,-40.3783 183.273,-39.2581 192.532,-38.1629"/>
<polygon fill="midnightblue" stroke="midnightblue" points="192.959,-41.6368 202.479,-36.9864 192.137,-34.6853 192.959,-41.6368"/>
</g>
<!-- Node4 -->
<g id="node4" class="node"><title>Node4</title>
<g id="a_node4"><a xlink:href="../../d3/d88/classmodel_1_1_slogo_model.html#a356fe9ced691a6dba1992d41db95d5f7" target="_top" xlink:title="model.SlogoModel.getMyData">
<polygon fill="white" stroke="black" points="376.5,-38.5 376.5,-57.5 537.5,-57.5 537.5,-38.5 376.5,-38.5"/>
<text text-anchor="middle" x="457" y="-45.5" font-family="Helvetica,sans-Serif" font-size="10.00">model.SlogoModel.getMyData</text>
</a>
</g>
</g>
<!-- Node3&#45;&gt;Node4 -->
<g id="edge3" class="edge"><title>Node3&#45;&gt;Node4</title>
<path fill="none" stroke="midnightblue" d="M339.731,-35.994C348.367,-36.8857 357.311,-37.8093 366.226,-38.7299"/>
<polygon fill="midnightblue" stroke="midnightblue" points="365.956,-42.2205 376.263,-39.7663 366.675,-35.2575 365.956,-42.2205"/>
</g>
<!-- Node5 -->
<g id="node5" class="node"><title>Node5</title>
<g id="a_node5"><a xlink:href="../../d8/d36/classmodel_1_1_observable_data.html#aa526df8e1adab74d19f2d89071560dcb" target="_top" xlink:title="model.ObservableData.get">
<polygon fill="white" stroke="black" points="384,-0.5 384,-19.5 530,-19.5 530,-0.5 384,-0.5"/>
<text text-anchor="middle" x="457" y="-7.5" font-family="Helvetica,sans-Serif" font-size="10.00">model.ObservableData.get</text>
</a>
</g>
</g>
<!-- Node3&#45;&gt;Node5 -->
<g id="edge4" class="edge"><title>Node3&#45;&gt;Node5</title>
<path fill="none" stroke="midnightblue" d="M339.731,-22.006C350.826,-20.8603 362.429,-19.6622 373.828,-18.4851"/>
<polygon fill="midnightblue" stroke="midnightblue" points="374.188,-21.9667 383.776,-17.458 373.469,-15.0037 374.188,-21.9667"/>
</g>
</g>
</svg>
