<?xml version="1.0" encoding="UTF-8" standalone="no"?>
<!DOCTYPE svg PUBLIC "-//W3C//DTD SVG 1.1//EN"
 "http://www.w3.org/Graphics/SVG/1.1/DTD/svg11.dtd">
<!-- Generated by graphviz version 2.36.0 (20140111.2315)
 -->
<!-- Title: instructions.UserDefinedInstruction Pages: 1 -->
<svg width="324pt" height="276pt"
 viewBox="0.00 0.00 324.00 276.00" xmlns="http://www.w3.org/2000/svg" xmlns:xlink="http://www.w3.org/1999/xlink">
<g id="graph0" class="graph" transform="scale(1 1) rotate(0) translate(4 272)">
<title>instructions.UserDefinedInstruction</title>
<polygon fill="white" stroke="none" points="-4,4 -4,-272 320,-272 320,4 -4,4"/>
<!-- Node1 -->
<g id="node1" class="node"><title>Node1</title>
<polygon fill="#bfbfbf" stroke="black" points="83,-69 83,-99 217,-99 217,-69 83,-69"/>
<text text-anchor="start" x="91" y="-87" font-family="Helvetica,sans-Serif" font-size="10.00">instructions.UserDefined</text>
<text text-anchor="middle" x="150" y="-76" font-family="Helvetica,sans-Serif" font-size="10.00">Instruction</text>
</g>
<!-- Node5 -->
<g id="node5" class="node"><title>Node5</title>
<g id="a_node5"><a xlink:href="../../d2/d36/classinstructions_1_1_user_defined_command.html" target="_top" xlink:title="instructions.UserDefined\lCommand">
<polygon fill="white" stroke="black" points="0,-1 0,-31 134,-31 134,-1 0,-1"/>
<text text-anchor="start" x="8" y="-19" font-family="Helvetica,sans-Serif" font-size="10.00">instructions.UserDefined</text>
<text text-anchor="middle" x="67" y="-8" font-family="Helvetica,sans-Serif" font-size="10.00">Command</text>
</a>
</g>
</g>
<!-- Node1&#45;&gt;Node5 -->
<g id="edge4" class="edge"><title>Node1&#45;&gt;Node5</title>
<path fill="none" stroke="midnightblue" d="M123.98,-62.3094C111.194,-52.1426 96.1207,-40.1562 84.6895,-31.0663"/>
<polygon fill="midnightblue" stroke="midnightblue" points="121.985,-65.1945 131.99,-68.679 126.342,-59.7155 121.985,-65.1945"/>
</g>
<!-- Node6 -->
<g id="node6" class="node"><title>Node6</title>
<g id="a_node6"><a xlink:href="../../d4/d6d/classinstructions_1_1_variable_instruction.html" target="_top" xlink:title="instructions.VariableInstruction">
<polygon fill="white" stroke="black" points="152,-6.5 152,-25.5 316,-25.5 316,-6.5 152,-6.5"/>
<text text-anchor="middle" x="234" y="-13.5" font-family="Helvetica,sans-Serif" font-size="10.00">instructions.VariableInstruction</text>
</a>
</g>
</g>
<!-- Node1&#45;&gt;Node6 -->
<g id="edge5" class="edge"><title>Node1&#45;&gt;Node6</title>
<path fill="none" stroke="midnightblue" d="M176.482,-62.1927C192.076,-49.9403 210.991,-35.0785 222.764,-25.8283"/>
<polygon fill="midnightblue" stroke="midnightblue" points="173.928,-59.7486 168.227,-68.679 178.252,-65.2529 173.928,-59.7486"/>
</g>
<!-- Node2 -->
<g id="node2" class="node"><title>Node2</title>
<g id="a_node2"><a xlink:href="../../d9/d85/classinstructions_1_1_parameter_instruction.html" target="_top" xlink:title="instructions.ParameterInstruction">
<polygon fill="white" stroke="black" points="62,-136.5 62,-155.5 238,-155.5 238,-136.5 62,-136.5"/>
<text text-anchor="middle" x="150" y="-143.5" font-family="Helvetica,sans-Serif" font-size="10.00">instructions.ParameterInstruction</text>
</a>
</g>
</g>
<!-- Node2&#45;&gt;Node1 -->
<g id="edge1" class="edge"><title>Node2&#45;&gt;Node1</title>
<path fill="none" stroke="midnightblue" d="M150,-126.371C150,-117.585 150,-107.272 150,-99.1408"/>
<polygon fill="midnightblue" stroke="midnightblue" points="146.5,-126.403 150,-136.403 153.5,-126.403 146.5,-126.403"/>
</g>
<!-- Node3 -->
<g id="node3" class="node"><title>Node3</title>
<g id="a_node3"><a xlink:href="../../d2/d93/interfaceinstructions_1_1_instruction.html" target="_top" xlink:title="instructions.Instruction">
<polygon fill="white" stroke="black" points="87.5,-192.5 87.5,-211.5 212.5,-211.5 212.5,-192.5 87.5,-192.5"/>
<text text-anchor="middle" x="150" y="-199.5" font-family="Helvetica,sans-Serif" font-size="10.00">instructions.Instruction</text>
</a>
</g>
</g>
<!-- Node3&#45;&gt;Node2 -->
<g id="edge2" class="edge"><title>Node3&#45;&gt;Node2</title>
<path fill="none" stroke="midnightblue" d="M150,-181.805C150,-172.91 150,-162.78 150,-155.751"/>
<polygon fill="midnightblue" stroke="midnightblue" points="146.5,-182.083 150,-192.083 153.5,-182.083 146.5,-182.083"/>
</g>
<!-- Node4 -->
<g id="node4" class="node"><title>Node4</title>
<polygon fill="white" stroke="#bfbfbf" points="114.5,-248.5 114.5,-267.5 185.5,-267.5 185.5,-248.5 114.5,-248.5"/>
<text text-anchor="middle" x="150" y="-255.5" font-family="Helvetica,sans-Serif" font-size="10.00">Serializable</text>
</g>
<!-- Node4&#45;&gt;Node3 -->
<g id="edge3" class="edge"><title>Node4&#45;&gt;Node3</title>
<path fill="none" stroke="midnightblue" d="M150,-237.805C150,-228.91 150,-218.78 150,-211.751"/>
<polygon fill="midnightblue" stroke="midnightblue" points="146.5,-238.083 150,-248.083 153.5,-238.083 146.5,-238.083"/>
</g>
</g>
</svg>
