<?xml version="1.0" encoding="UTF-8" standalone="no"?>
<!DOCTYPE svg PUBLIC "-//W3C//DTD SVG 1.1//EN"
 "http://www.w3.org/Graphics/SVG/1.1/DTD/svg11.dtd">
<!-- Generated by graphviz version 2.36.0 (20140111.2315)
 -->
<!-- Title: instructions.commands.MakeVariable.execute Pages: 1 -->
<svg width="370pt" height="153pt"
 viewBox="0.00 0.00 370.00 153.00" xmlns="http://www.w3.org/2000/svg" xmlns:xlink="http://www.w3.org/1999/xlink">
<g id="graph0" class="graph" transform="scale(1 1) rotate(0) translate(4 149)">
<title>instructions.commands.MakeVariable.execute</title>
<polygon fill="white" stroke="none" points="-4,4 -4,-149 366,-149 366,4 -4,4"/>
<!-- Node1 -->
<g id="node1" class="node"><title>Node1</title>
<polygon fill="#bfbfbf" stroke="black" points="0,-63 0,-93 158,-93 158,-63 0,-63"/>
<text text-anchor="start" x="8" y="-81" font-family="Helvetica,sans-Serif" font-size="10.00">instructions.commands.Make</text>
<text text-anchor="middle" x="79" y="-70" font-family="Helvetica,sans-Serif" font-size="10.00">Variable.execute</text>
</g>
<!-- Node2 -->
<g id="node2" class="node"><title>Node2</title>
<g id="a_node2"><a xlink:href="../../d6/d2c/classmodel_1_1_variables_list.html#af9f957dd4df52af1e32f23b03d7a5550" target="_top" xlink:title="model.VariablesList.add">
<polygon fill="white" stroke="black" points="212.5,-125.5 212.5,-144.5 343.5,-144.5 343.5,-125.5 212.5,-125.5"/>
<text text-anchor="middle" x="278" y="-132.5" font-family="Helvetica,sans-Serif" font-size="10.00">model.VariablesList.add</text>
</a>
</g>
</g>
<!-- Node1&#45;&gt;Node2 -->
<g id="edge1" class="edge"><title>Node1&#45;&gt;Node2</title>
<path fill="none" stroke="midnightblue" d="M121.928,-93.0559C143.34,-100.469 169.895,-109.241 194,-116 202.885,-118.491 212.372,-120.898 221.638,-123.112"/>
<polygon fill="midnightblue" stroke="midnightblue" points="221.035,-126.565 231.569,-125.434 222.629,-119.749 221.035,-126.565"/>
</g>
<!-- Node3 -->
<g id="node3" class="node"><title>Node3</title>
<g id="a_node3"><a xlink:href="../../d2/d93/interfaceinstructions_1_1_instruction.html#ab47846ec32fac6e514e5ab7fe4db0254" target="_top" xlink:title="instructions.Instruction.execute">
<polygon fill="white" stroke="black" points="194.5,-87.5 194.5,-106.5 361.5,-106.5 361.5,-87.5 194.5,-87.5"/>
<text text-anchor="middle" x="278" y="-94.5" font-family="Helvetica,sans-Serif" font-size="10.00">instructions.Instruction.execute</text>
</a>
</g>
</g>
<!-- Node1&#45;&gt;Node3 -->
<g id="edge2" class="edge"><title>Node1&#45;&gt;Node3</title>
<path fill="none" stroke="midnightblue" d="M158.143,-85.5366C166.713,-86.3632 175.498,-87.2105 184.224,-88.052"/>
<polygon fill="midnightblue" stroke="midnightblue" points="184.133,-91.5594 194.423,-89.0357 184.805,-84.5917 184.133,-91.5594"/>
</g>
<!-- Node4 -->
<g id="node4" class="node"><title>Node4</title>
<g id="a_node4"><a xlink:href="../../d6/d2c/classmodel_1_1_variables_list.html#a88d10c0a82c1d2a432f2127f522dfc20" target="_top" xlink:title="model.VariablesList.get">
<polygon fill="white" stroke="black" points="214,-49.5 214,-68.5 342,-68.5 342,-49.5 214,-49.5"/>
<text text-anchor="middle" x="278" y="-56.5" font-family="Helvetica,sans-Serif" font-size="10.00">model.VariablesList.get</text>
</a>
</g>
</g>
<!-- Node1&#45;&gt;Node4 -->
<g id="edge3" class="edge"><title>Node1&#45;&gt;Node4</title>
<path fill="none" stroke="midnightblue" d="M158.143,-70.4634C173.155,-69.0155 188.827,-67.504 203.681,-66.0714"/>
<polygon fill="midnightblue" stroke="midnightblue" points="204.197,-69.5379 213.815,-65.094 203.525,-62.5703 204.197,-69.5379"/>
</g>
<!-- Node5 -->
<g id="node5" class="node"><title>Node5</title>
<g id="a_node5"><a xlink:href="../../df/dcf/classinstructions_1_1_user_defined_instruction.html#ac2a1915074b04c4ceacfac5ef461a44b" target="_top" xlink:title="instructions.UserDefined\lInstruction.getName">
<polygon fill="white" stroke="black" points="211,-0 211,-30 345,-30 345,-0 211,-0"/>
<text text-anchor="start" x="219" y="-18" font-family="Helvetica,sans-Serif" font-size="10.00">instructions.UserDefined</text>
<text text-anchor="middle" x="278" y="-7" font-family="Helvetica,sans-Serif" font-size="10.00">Instruction.getName</text>
</a>
</g>
</g>
<!-- Node1&#45;&gt;Node5 -->
<g id="edge4" class="edge"><title>Node1&#45;&gt;Node5</title>
<path fill="none" stroke="midnightblue" d="M124.023,-62.9925C145.143,-55.8783 170.833,-47.3485 194,-40 201.181,-37.7221 208.728,-35.3791 216.223,-33.0835"/>
<polygon fill="midnightblue" stroke="midnightblue" points="217.464,-36.3643 226.01,-30.1025 215.424,-29.668 217.464,-36.3643"/>
</g>
</g>
</svg>
