<?xml version="1.0" encoding="UTF-8" standalone="no"?>
<!DOCTYPE svg PUBLIC "-//W3C//DTD SVG 1.1//EN"
 "http://www.w3.org/Graphics/SVG/1.1/DTD/svg11.dtd">
<!-- Generated by graphviz version 2.36.0 (20140111.2315)
 -->
<!-- Title: model.SlogoModel.showOnView Pages: 1 -->
<svg width="378pt" height="77pt"
 viewBox="0.00 0.00 378.00 77.00" xmlns="http://www.w3.org/2000/svg" xmlns:xlink="http://www.w3.org/1999/xlink">
<g id="graph0" class="graph" transform="scale(1 1) rotate(0) translate(4 73)">
<title>model.SlogoModel.showOnView</title>
<polygon fill="white" stroke="none" points="-4,4 -4,-73 374,-73 374,4 -4,4"/>
<!-- Node1 -->
<g id="node1" class="node"><title>Node1</title>
<polygon fill="#bfbfbf" stroke="black" points="0.5,-22.5 0.5,-41.5 167.5,-41.5 167.5,-22.5 0.5,-22.5"/>
<text text-anchor="middle" x="84" y="-29.5" font-family="Helvetica,sans-Serif" font-size="10.00">model.SlogoModel.showOnView</text>
</g>
<!-- Node2 -->
<g id="node2" class="node"><title>Node2</title>
<g id="a_node2"><a xlink:href="../../d8/d36/classmodel_1_1_observable_data.html#a575297a6d90ca0223478c397de4a8296" target="_top" xlink:title="model.ObservableData.change\lReturn">
<polygon fill="white" stroke="black" points="204.5,-39 204.5,-69 369.5,-69 369.5,-39 204.5,-39"/>
<text text-anchor="start" x="212.5" y="-57" font-family="Helvetica,sans-Serif" font-size="10.00">model.ObservableData.change</text>
<text text-anchor="middle" x="287" y="-46" font-family="Helvetica,sans-Serif" font-size="10.00">Return</text>
</a>
</g>
</g>
<!-- Node1&#45;&gt;Node2 -->
<g id="edge1" class="edge"><title>Node1&#45;&gt;Node2</title>
<path fill="none" stroke="midnightblue" d="M167.625,-41.0435C176.436,-42.0079 185.436,-42.993 194.343,-43.9679"/>
<polygon fill="midnightblue" stroke="midnightblue" points="194.024,-47.4538 204.345,-45.0627 194.785,-40.4953 194.024,-47.4538"/>
</g>
<!-- Node3 -->
<g id="node3" class="node"><title>Node3</title>
<g id="a_node3"><a xlink:href="../../d3/d88/classmodel_1_1_slogo_model.html#a5a328c6f896a5c150e95b49db71dea8f" target="_top" xlink:title="model.SlogoModel.load">
<polygon fill="white" stroke="black" points="223,-0.5 223,-19.5 351,-19.5 351,-0.5 223,-0.5"/>
<text text-anchor="middle" x="287" y="-7.5" font-family="Helvetica,sans-Serif" font-size="10.00">model.SlogoModel.load</text>
</a>
</g>
</g>
<!-- Node1&#45;&gt;Node3 -->
<g id="edge2" class="edge"><title>Node1&#45;&gt;Node3</title>
<path fill="none" stroke="midnightblue" d="M167.625,-22.9565C182.58,-21.3195 198.082,-19.6228 212.747,-18.0178"/>
<polygon fill="midnightblue" stroke="midnightblue" points="213.188,-21.4904 222.748,-16.9231 212.427,-14.532 213.188,-21.4904"/>
</g>
</g>
</svg>
