<?xml version="1.0" encoding="UTF-8" standalone="no"?>
<!DOCTYPE svg PUBLIC "-//W3C//DTD SVG 1.1//EN"
 "http://www.w3.org/Graphics/SVG/1.1/DTD/svg11.dtd">
<!-- Generated by graphviz version 2.36.0 (20140111.2315)
 -->
<!-- Title: model.SlogoModel.load Pages: 1 -->
<svg width="1144pt" height="218pt"
 viewBox="0.00 0.00 1144.00 218.00" xmlns="http://www.w3.org/2000/svg" xmlns:xlink="http://www.w3.org/1999/xlink">
<g id="graph0" class="graph" transform="scale(1 1) rotate(0) translate(4 214)">
<title>model.SlogoModel.load</title>
<polygon fill="white" stroke="none" points="-4,4 -4,-214 1140,-214 1140,4 -4,4"/>
<!-- Node1 -->
<g id="node1" class="node"><title>Node1</title>
<polygon fill="#bfbfbf" stroke="black" points="0,-95.5 0,-114.5 128,-114.5 128,-95.5 0,-95.5"/>
<text text-anchor="middle" x="64" y="-102.5" font-family="Helvetica,sans-Serif" font-size="10.00">model.SlogoModel.load</text>
</g>
<!-- Node2 -->
<g id="node2" class="node"><title>Node2</title>
<g id="a_node2"><a xlink:href="../../d3/d88/classmodel_1_1_slogo_model.html#abfeceb3da7ed60166c8137597cacc2fc" target="_top" xlink:title="model.SlogoModel.clear">
<polygon fill="white" stroke="black" points="182.5,-190.5 182.5,-209.5 313.5,-209.5 313.5,-190.5 182.5,-190.5"/>
<text text-anchor="middle" x="248" y="-197.5" font-family="Helvetica,sans-Serif" font-size="10.00">model.SlogoModel.clear</text>
</a>
</g>
</g>
<!-- Node1&#45;&gt;Node2 -->
<g id="edge1" class="edge"><title>Node1&#45;&gt;Node2</title>
<path fill="none" stroke="midnightblue" d="M81.7898,-121.603C100.351,-139.01 131.893,-165.89 164,-181 172.159,-184.84 181.142,-187.929 190.094,-190.406"/>
<polygon fill="midnightblue" stroke="midnightblue" points="84.0857,-118.956 74.4428,-114.566 79.2438,-124.011 84.0857,-118.956"/>
</g>
<!-- Node5 -->
<g id="node5" class="node"><title>Node5</title>
<g id="a_node5"><a xlink:href="../../d3/d88/classmodel_1_1_slogo_model.html#a407690ec446fa165e17c41f6bc1f37cd" target="_top" xlink:title="model.SlogoModel.rerun">
<polygon fill="white" stroke="black" points="181,-152.5 181,-171.5 315,-171.5 315,-152.5 181,-152.5"/>
<text text-anchor="middle" x="248" y="-159.5" font-family="Helvetica,sans-Serif" font-size="10.00">model.SlogoModel.rerun</text>
</a>
</g>
</g>
<!-- Node1&#45;&gt;Node5 -->
<g id="edge4" class="edge"><title>Node1&#45;&gt;Node5</title>
<path fill="none" stroke="midnightblue" d="M96.5736,-118.433C115.822,-126.291 141.055,-136.009 164,-143 175.595,-146.533 188.278,-149.752 200.162,-152.496"/>
<polygon fill="midnightblue" stroke="midnightblue" points="97.6758,-115.101 87.0971,-114.517 95.0027,-121.571 97.6758,-115.101"/>
</g>
<!-- Node6 -->
<g id="node6" class="node"><title>Node6</title>
<g id="a_node6"><a xlink:href="../../d3/d88/classmodel_1_1_slogo_model.html#ad52954c6dbfb83f7aa97a85116c25eb8" target="_top" xlink:title="model.SlogoModel.showOnView">
<polygon fill="white" stroke="black" points="164.5,-0.5 164.5,-19.5 331.5,-19.5 331.5,-0.5 164.5,-0.5"/>
<text text-anchor="middle" x="248" y="-7.5" font-family="Helvetica,sans-Serif" font-size="10.00">model.SlogoModel.showOnView</text>
</a>
</g>
</g>
<!-- Node1&#45;&gt;Node6 -->
<g id="edge5" class="edge"><title>Node1&#45;&gt;Node6</title>
<path fill="none" stroke="midnightblue" d="M81.7898,-88.3968C100.351,-70.9897 131.893,-44.1105 164,-29 172.159,-25.1602 181.142,-22.0715 190.094,-19.594"/>
<polygon fill="midnightblue" stroke="midnightblue" points="79.2438,-85.9889 74.4428,-95.4336 84.0857,-91.0443 79.2438,-85.9889"/>
</g>
<!-- Node13 -->
<g id="node13" class="node"><title>Node13</title>
<g id="a_node13"><a xlink:href="../../d3/d88/classmodel_1_1_slogo_model.html#a396654689e37ebdc837f5623a25d08d3" target="_top" xlink:title="model.SlogoModel.showToHistoryView">
<polygon fill="white" stroke="black" points="368.5,-75.5 368.5,-94.5 565.5,-94.5 565.5,-75.5 368.5,-75.5"/>
<text text-anchor="middle" x="467" y="-82.5" font-family="Helvetica,sans-Serif" font-size="10.00">model.SlogoModel.showToHistoryView</text>
</a>
</g>
</g>
<!-- Node1&#45;&gt;Node13 -->
<g id="edge12" class="edge"><title>Node1&#45;&gt;Node13</title>
<path fill="none" stroke="midnightblue" d="M138.183,-101.35C202.676,-98.1334 297.147,-93.4216 368.125,-89.8816"/>
<polygon fill="midnightblue" stroke="midnightblue" points="137.911,-97.8591 128.097,-101.853 138.259,-104.85 137.911,-97.8591"/>
</g>
<!-- Node14 -->
<g id="node14" class="node"><title>Node14</title>
<g id="a_node14"><a xlink:href="../../d0/dfc/classview_1_1_slogo_window.html#ad49eb4482b8bf39443afcdac5018e410" target="_top" xlink:title="view.SlogoWindow.SlogoWindow">
<polygon fill="white" stroke="black" points="165,-38.5 165,-57.5 331,-57.5 331,-38.5 165,-38.5"/>
<text text-anchor="middle" x="248" y="-45.5" font-family="Helvetica,sans-Serif" font-size="10.00">view.SlogoWindow.SlogoWindow</text>
</a>
</g>
</g>
<!-- Node1&#45;&gt;Node14 -->
<g id="edge14" class="edge"><title>Node1&#45;&gt;Node14</title>
<path fill="none" stroke="midnightblue" d="M102.178,-92.2133C120.7,-85.9437 143.471,-78.3869 164,-72 180.042,-67.0093 197.934,-61.7918 212.986,-57.501"/>
<polygon fill="midnightblue" stroke="midnightblue" points="100.983,-88.9228 92.6413,-95.4547 103.236,-95.5505 100.983,-88.9228"/>
</g>
<!-- Node15 -->
<g id="node15" class="node"><title>Node15</title>
<g id="a_node15"><a xlink:href="../../d3/d88/classmodel_1_1_slogo_model.html#a4dd110d0980b463d7b3130e3ad3393e6" target="_top" xlink:title="model.SlogoModel.toggleTurtle">
<polygon fill="white" stroke="black" points="166,-114.5 166,-133.5 330,-133.5 330,-114.5 166,-114.5"/>
<text text-anchor="middle" x="248" y="-121.5" font-family="Helvetica,sans-Serif" font-size="10.00">model.SlogoModel.toggleTurtle</text>
</a>
</g>
</g>
<!-- Node1&#45;&gt;Node15 -->
<g id="edge15" class="edge"><title>Node1&#45;&gt;Node15</title>
<path fill="none" stroke="midnightblue" d="M138.225,-112.644C147.264,-113.588 156.546,-114.557 165.696,-115.512"/>
<polygon fill="midnightblue" stroke="midnightblue" points="138.453,-109.149 128.144,-111.592 137.726,-116.111 138.453,-109.149"/>
</g>
<!-- Node3 -->
<g id="node3" class="node"><title>Node3</title>
<g id="a_node3"><a xlink:href="../../dd/dc5/classview_1_1_settings_view.html#a4ad3e69e9ba90e013df06b1f7b5ef6d0" target="_top" xlink:title="view.SettingsView.addButtons">
<polygon fill="white" stroke="black" points="388,-117.5 388,-136.5 546,-136.5 546,-117.5 388,-117.5"/>
<text text-anchor="middle" x="467" y="-124.5" font-family="Helvetica,sans-Serif" font-size="10.00">view.SettingsView.addButtons</text>
</a>
</g>
</g>
<!-- Node2&#45;&gt;Node3 -->
<g id="edge2" class="edge"><title>Node2&#45;&gt;Node3</title>
<path fill="none" stroke="midnightblue" d="M306.691,-188.035C315.236,-185.905 323.89,-183.545 332,-181 372.923,-168.159 418.964,-148.379 445.026,-136.659"/>
<polygon fill="midnightblue" stroke="midnightblue" points="305.654,-184.685 296.75,-190.427 307.291,-191.491 305.654,-184.685"/>
</g>
<!-- Node4 -->
<g id="node4" class="node"><title>Node4</title>
<g id="a_node4"><a xlink:href="../../dd/dc5/classview_1_1_settings_view.html#a34b8df753ce7a3b7d917a01ff315edc8" target="_top" xlink:title="view.SettingsView.SettingsView">
<polygon fill="white" stroke="black" points="602,-117.5 602,-136.5 766,-136.5 766,-117.5 602,-117.5"/>
<text text-anchor="middle" x="684" y="-124.5" font-family="Helvetica,sans-Serif" font-size="10.00">view.SettingsView.SettingsView</text>
</a>
</g>
</g>
<!-- Node3&#45;&gt;Node4 -->
<g id="edge3" class="edge"><title>Node3&#45;&gt;Node4</title>
<path fill="none" stroke="midnightblue" d="M556.538,-127C571.57,-127 587.112,-127 601.939,-127"/>
<polygon fill="midnightblue" stroke="midnightblue" points="556.228,-123.5 546.228,-127 556.228,-130.5 556.228,-123.5"/>
</g>
<!-- Node7 -->
<g id="node7" class="node"><title>Node7</title>
<g id="a_node7"><a xlink:href="../../d3/d88/classmodel_1_1_slogo_model.html#a54085c9bf13d8dcfd7deed3623be36f1" target="_top" xlink:title="model.SlogoModel.execute\lCommands">
<polygon fill="white" stroke="black" points="394,-10 394,-40 540,-40 540,-10 394,-10"/>
<text text-anchor="start" x="402" y="-28" font-family="Helvetica,sans-Serif" font-size="10.00">model.SlogoModel.execute</text>
<text text-anchor="middle" x="467" y="-17" font-family="Helvetica,sans-Serif" font-size="10.00">Commands</text>
</a>
</g>
</g>
<!-- Node6&#45;&gt;Node7 -->
<g id="edge6" class="edge"><title>Node6&#45;&gt;Node7</title>
<path fill="none" stroke="midnightblue" d="M341.829,-16.4168C359.237,-17.6201 377.195,-18.8614 393.859,-20.0133"/>
<polygon fill="midnightblue" stroke="midnightblue" points="341.875,-12.9117 331.657,-15.7136 341.392,-19.895 341.875,-12.9117"/>
</g>
<!-- Node8 -->
<g id="node8" class="node"><title>Node8</title>
<g id="a_node8"><a xlink:href="../../d3/d88/classmodel_1_1_slogo_model.html#ad096dbf0a253635d346a622540f472bd" target="_top" xlink:title="model.SlogoModel.parseAnd\lExecute">
<polygon fill="white" stroke="black" points="607,-39 607,-69 761,-69 761,-39 607,-39"/>
<text text-anchor="start" x="615" y="-57" font-family="Helvetica,sans-Serif" font-size="10.00">model.SlogoModel.parseAnd</text>
<text text-anchor="middle" x="684" y="-46" font-family="Helvetica,sans-Serif" font-size="10.00">Execute</text>
</a>
</g>
</g>
<!-- Node7&#45;&gt;Node8 -->
<g id="edge7" class="edge"><title>Node7&#45;&gt;Node8</title>
<path fill="none" stroke="midnightblue" d="M550.136,-36.0788C568.803,-38.5967 588.552,-41.2605 606.953,-43.7425"/>
<polygon fill="midnightblue" stroke="midnightblue" points="550.568,-32.6055 540.19,-34.7373 549.632,-39.5427 550.568,-32.6055"/>
</g>
<!-- Node9 -->
<g id="node9" class="node"><title>Node9</title>
<g id="a_node9"><a xlink:href="../../d6/d0a/classview_1_1_input_view.html#a948930c9b825f34ef8f5def96910471b" target="_top" xlink:title="view.InputView.initSubmit\lButton">
<polygon fill="white" stroke="black" points="805,-64 805,-94 941,-94 941,-64 805,-64"/>
<text text-anchor="start" x="813" y="-82" font-family="Helvetica,sans-Serif" font-size="10.00">view.InputView.initSubmit</text>
<text text-anchor="middle" x="873" y="-71" font-family="Helvetica,sans-Serif" font-size="10.00">Button</text>
</a>
</g>
</g>
<!-- Node8&#45;&gt;Node9 -->
<g id="edge8" class="edge"><title>Node8&#45;&gt;Node9</title>
<path fill="none" stroke="midnightblue" d="M771.303,-65.5379C782.52,-67.0375 793.876,-68.5556 804.72,-70.0053"/>
<polygon fill="midnightblue" stroke="midnightblue" points="771.436,-62.0245 761.06,-64.1685 770.508,-68.9628 771.436,-62.0245"/>
</g>
<!-- Node11 -->
<g id="node11" class="node"><title>Node11</title>
<g id="a_node11"><a xlink:href="../../d4/d90/classview_1_1_key_controls.html#a0c3663cb62e91e8919b0296aad899a8f" target="_top" xlink:title="view.KeyControls.makeKey\lCommands">
<polygon fill="white" stroke="black" points="802,-15 802,-45 944,-45 944,-15 802,-15"/>
<text text-anchor="start" x="810" y="-33" font-family="Helvetica,sans-Serif" font-size="10.00">view.KeyControls.makeKey</text>
<text text-anchor="middle" x="873" y="-22" font-family="Helvetica,sans-Serif" font-size="10.00">Commands</text>
</a>
</g>
</g>
<!-- Node8&#45;&gt;Node11 -->
<g id="edge10" class="edge"><title>Node8&#45;&gt;Node11</title>
<path fill="none" stroke="midnightblue" d="M771.222,-42.9341C781.441,-41.6226 791.776,-40.2961 801.736,-39.0178"/>
<polygon fill="midnightblue" stroke="midnightblue" points="770.533,-39.4937 761.06,-44.2383 771.424,-46.4367 770.533,-39.4937"/>
</g>
<!-- Node10 -->
<g id="node10" class="node"><title>Node10</title>
<g id="a_node10"><a xlink:href="../../d6/d0a/classview_1_1_input_view.html#ac75e6562ed83ace6cb0a0ac886780054" target="_top" xlink:title="view.InputView.InputView">
<polygon fill="white" stroke="black" points="991.5,-69.5 991.5,-88.5 1124.5,-88.5 1124.5,-69.5 991.5,-69.5"/>
<text text-anchor="middle" x="1058" y="-76.5" font-family="Helvetica,sans-Serif" font-size="10.00">view.InputView.InputView</text>
</a>
</g>
</g>
<!-- Node9&#45;&gt;Node10 -->
<g id="edge9" class="edge"><title>Node9&#45;&gt;Node10</title>
<path fill="none" stroke="midnightblue" d="M951.232,-79C964.608,-79 978.402,-79 991.432,-79"/>
<polygon fill="midnightblue" stroke="midnightblue" points="951.103,-75.5001 941.103,-79 951.103,-82.5001 951.103,-75.5001"/>
</g>
<!-- Node12 -->
<g id="node12" class="node"><title>Node12</title>
<g id="a_node12"><a xlink:href="../../d4/d90/classview_1_1_key_controls.html#a4b73546f8ba8feee9e878b3cf743fb61" target="_top" xlink:title="view.KeyControls.KeyControls">
<polygon fill="white" stroke="black" points="980.5,-20.5 980.5,-39.5 1135.5,-39.5 1135.5,-20.5 980.5,-20.5"/>
<text text-anchor="middle" x="1058" y="-27.5" font-family="Helvetica,sans-Serif" font-size="10.00">view.KeyControls.KeyControls</text>
</a>
</g>
</g>
<!-- Node11&#45;&gt;Node12 -->
<g id="edge11" class="edge"><title>Node11&#45;&gt;Node12</title>
<path fill="none" stroke="midnightblue" d="M954.279,-30C962.909,-30 971.674,-30 980.261,-30"/>
<polygon fill="midnightblue" stroke="midnightblue" points="954.229,-26.5001 944.229,-30 954.229,-33.5001 954.229,-26.5001"/>
</g>
<!-- Node13&#45;&gt;Node8 -->
<g id="edge13" class="edge"><title>Node13&#45;&gt;Node8</title>
<path fill="none" stroke="midnightblue" d="M543.871,-74.0605C564.347,-71.108 586.505,-67.9132 606.989,-64.9597"/>
<polygon fill="midnightblue" stroke="midnightblue" points="543.366,-70.5969 533.968,-75.4883 544.365,-77.5253 543.366,-70.5969"/>
</g>
<!-- Node15&#45;&gt;Node3 -->
<g id="edge16" class="edge"><title>Node15&#45;&gt;Node3</title>
<path fill="none" stroke="midnightblue" d="M340.4,-125.264C356.187,-125.482 372.47,-125.707 387.866,-125.92"/>
<polygon fill="midnightblue" stroke="midnightblue" points="340.159,-121.76 330.111,-125.121 340.062,-128.759 340.159,-121.76"/>
</g>
</g>
</svg>
