<?xml version="1.0" encoding="UTF-8" standalone="no"?>
<!DOCTYPE svg PUBLIC "-//W3C//DTD SVG 1.1//EN"
 "http://www.w3.org/Graphics/SVG/1.1/DTD/svg11.dtd">
<!-- Generated by graphviz version 2.36.0 (20140111.2315)
 -->
<!-- Title: model.SlogoModel.initializePenColor Pages: 1 -->
<svg width="530pt" height="38pt"
 viewBox="0.00 0.00 530.00 38.00" xmlns="http://www.w3.org/2000/svg" xmlns:xlink="http://www.w3.org/1999/xlink">
<g id="graph0" class="graph" transform="scale(1 1) rotate(0) translate(4 34)">
<title>model.SlogoModel.initializePenColor</title>
<polygon fill="white" stroke="none" points="-4,4 -4,-34 526,-34 526,4 -4,4"/>
<!-- Node1 -->
<g id="node1" class="node"><title>Node1</title>
<polygon fill="#bfbfbf" stroke="black" points="0,-0 0,-30 146,-30 146,-0 0,-0"/>
<text text-anchor="start" x="8" y="-18" font-family="Helvetica,sans-Serif" font-size="10.00">model.SlogoModel.initialize</text>
<text text-anchor="middle" x="73" y="-7" font-family="Helvetica,sans-Serif" font-size="10.00">PenColor</text>
</g>
<!-- Node2 -->
<g id="node2" class="node"><title>Node2</title>
<g id="a_node2"><a xlink:href="../../dd/dc5/classview_1_1_settings_view.html#a1c1243dd0938a2644f0bebe8feca5737" target="_top" xlink:title="view.SettingsView.addPen\lColorPicker">
<polygon fill="white" stroke="black" points="182.5,-0 182.5,-30 321.5,-30 321.5,-0 182.5,-0"/>
<text text-anchor="start" x="190.5" y="-18" font-family="Helvetica,sans-Serif" font-size="10.00">view.SettingsView.addPen</text>
<text text-anchor="middle" x="252" y="-7" font-family="Helvetica,sans-Serif" font-size="10.00">ColorPicker</text>
</a>
</g>
</g>
<!-- Node1&#45;&gt;Node2 -->
<g id="edge1" class="edge"><title>Node1&#45;&gt;Node2</title>
<path fill="none" stroke="midnightblue" d="M156.407,-15C165.108,-15 173.889,-15 182.41,-15"/>
<polygon fill="midnightblue" stroke="midnightblue" points="156.248,-11.5001 146.248,-15 156.248,-18.5001 156.248,-11.5001"/>
</g>
<!-- Node3 -->
<g id="node3" class="node"><title>Node3</title>
<g id="a_node3"><a xlink:href="../../dd/dc5/classview_1_1_settings_view.html#a34b8df753ce7a3b7d917a01ff315edc8" target="_top" xlink:title="view.SettingsView.SettingsView">
<polygon fill="white" stroke="black" points="358,-5.5 358,-24.5 522,-24.5 522,-5.5 358,-5.5"/>
<text text-anchor="middle" x="440" y="-12.5" font-family="Helvetica,sans-Serif" font-size="10.00">view.SettingsView.SettingsView</text>
</a>
</g>
</g>
<!-- Node2&#45;&gt;Node3 -->
<g id="edge2" class="edge"><title>Node2&#45;&gt;Node3</title>
<path fill="none" stroke="midnightblue" d="M331.799,-15C340.458,-15 349.284,-15 357.969,-15"/>
<polygon fill="midnightblue" stroke="midnightblue" points="331.731,-11.5001 321.731,-15 331.731,-18.5001 331.731,-11.5001"/>
</g>
</g>
</svg>
