<?xml version="1.0" encoding="UTF-8" standalone="no"?>
<!DOCTYPE svg PUBLIC "-//W3C//DTD SVG 1.1//EN"
 "http://www.w3.org/Graphics/SVG/1.1/DTD/svg11.dtd">
<!-- Generated by graphviz version 2.36.0 (20140111.2315)
 -->
<!-- Title: model.SlogoModel.clear Pages: 1 -->
<svg width="534pt" height="28pt"
 viewBox="0.00 0.00 534.00 28.00" xmlns="http://www.w3.org/2000/svg" xmlns:xlink="http://www.w3.org/1999/xlink">
<g id="graph0" class="graph" transform="scale(1 1) rotate(0) translate(4 24)">
<title>model.SlogoModel.clear</title>
<polygon fill="white" stroke="none" points="-4,4 -4,-24 530,-24 530,4 -4,4"/>
<!-- Node1 -->
<g id="node1" class="node"><title>Node1</title>
<polygon fill="#bfbfbf" stroke="black" points="0.5,-0.5 0.5,-19.5 131.5,-19.5 131.5,-0.5 0.5,-0.5"/>
<text text-anchor="middle" x="66" y="-7.5" font-family="Helvetica,sans-Serif" font-size="10.00">model.SlogoModel.clear</text>
</g>
<!-- Node2 -->
<g id="node2" class="node"><title>Node2</title>
<g id="a_node2"><a xlink:href="../../dd/dc5/classview_1_1_settings_view.html#a4ad3e69e9ba90e013df06b1f7b5ef6d0" target="_top" xlink:title="view.SettingsView.addButtons">
<polygon fill="white" stroke="black" points="168,-0.5 168,-19.5 326,-19.5 326,-0.5 168,-0.5"/>
<text text-anchor="middle" x="247" y="-7.5" font-family="Helvetica,sans-Serif" font-size="10.00">view.SettingsView.addButtons</text>
</a>
</g>
</g>
<!-- Node1&#45;&gt;Node2 -->
<g id="edge1" class="edge"><title>Node1&#45;&gt;Node2</title>
<path fill="none" stroke="midnightblue" d="M141.636,-10C150.256,-10 159.065,-10 167.732,-10"/>
<polygon fill="midnightblue" stroke="midnightblue" points="141.623,-6.5001 131.623,-10 141.623,-13.5001 141.623,-6.5001"/>
</g>
<!-- Node3 -->
<g id="node3" class="node"><title>Node3</title>
<g id="a_node3"><a xlink:href="../../dd/dc5/classview_1_1_settings_view.html#a34b8df753ce7a3b7d917a01ff315edc8" target="_top" xlink:title="view.SettingsView.SettingsView">
<polygon fill="white" stroke="black" points="362,-0.5 362,-19.5 526,-19.5 526,-0.5 362,-0.5"/>
<text text-anchor="middle" x="444" y="-7.5" font-family="Helvetica,sans-Serif" font-size="10.00">view.SettingsView.SettingsView</text>
</a>
</g>
</g>
<!-- Node2&#45;&gt;Node3 -->
<g id="edge2" class="edge"><title>Node2&#45;&gt;Node3</title>
<path fill="none" stroke="midnightblue" d="M336.191,-10C344.761,-10 353.428,-10 361.924,-10"/>
<polygon fill="midnightblue" stroke="midnightblue" points="336.19,-6.5001 326.19,-10 336.19,-13.5001 336.19,-6.5001"/>
</g>
</g>
</svg>
