<?xml version="1.0" encoding="UTF-8" standalone="no"?>
<!DOCTYPE svg PUBLIC "-//W3C//DTD SVG 1.1//EN"
 "http://www.w3.org/Graphics/SVG/1.1/DTD/svg11.dtd">
<!-- Generated by graphviz version 2.36.0 (20140111.2315)
 -->
<!-- Title: model.SlogoModel.setPenSize Pages: 1 -->
<svg width="352pt" height="116pt"
 viewBox="0.00 0.00 352.00 116.00" xmlns="http://www.w3.org/2000/svg" xmlns:xlink="http://www.w3.org/1999/xlink">
<g id="graph0" class="graph" transform="scale(1 1) rotate(0) translate(4 112)">
<title>model.SlogoModel.setPenSize</title>
<polygon fill="white" stroke="none" points="-4,4 -4,-112 348,-112 348,4 -4,4"/>
<!-- Node1 -->
<g id="node1" class="node"><title>Node1</title>
<polygon fill="#bfbfbf" stroke="black" points="0.5,-44.5 0.5,-63.5 161.5,-63.5 161.5,-44.5 0.5,-44.5"/>
<text text-anchor="middle" x="81" y="-51.5" font-family="Helvetica,sans-Serif" font-size="10.00">model.SlogoModel.setPenSize</text>
</g>
<!-- Node2 -->
<g id="node2" class="node"><title>Node2</title>
<g id="a_node2"><a xlink:href="../../d6/d34/classmodel_1_1_turtle.html#a3feaf892f3049394737e61453a1c320d" target="_top" xlink:title="model.Turtle.getPen">
<polygon fill="white" stroke="black" points="215,-88.5 215,-107.5 327,-107.5 327,-88.5 215,-88.5"/>
<text text-anchor="middle" x="271" y="-95.5" font-family="Helvetica,sans-Serif" font-size="10.00">model.Turtle.getPen</text>
</a>
</g>
</g>
<!-- Node1&#45;&gt;Node2 -->
<g id="edge1" class="edge"><title>Node1&#45;&gt;Node2</title>
<path fill="none" stroke="midnightblue" d="M122.793,-63.5473C151.124,-70.1781 189.071,-79.0591 219.34,-86.1435"/>
<polygon fill="midnightblue" stroke="midnightblue" points="218.752,-89.6003 229.286,-88.4713 220.347,-82.7845 218.752,-89.6003"/>
</g>
<!-- Node3 -->
<g id="node3" class="node"><title>Node3</title>
<g id="a_node3"><a xlink:href="../../d8/d36/classmodel_1_1_observable_data.html#aa585e00721a74cba9ab459079945e15b" target="_top" xlink:title="model.ObservableData.get\lTurtle">
<polygon fill="white" stroke="black" points="198,-39 198,-69 344,-69 344,-39 198,-39"/>
<text text-anchor="start" x="206" y="-57" font-family="Helvetica,sans-Serif" font-size="10.00">model.ObservableData.get</text>
<text text-anchor="middle" x="271" y="-46" font-family="Helvetica,sans-Serif" font-size="10.00">Turtle</text>
</a>
</g>
</g>
<!-- Node1&#45;&gt;Node3 -->
<g id="edge2" class="edge"><title>Node1&#45;&gt;Node3</title>
<path fill="none" stroke="midnightblue" d="M161.729,-54C170.361,-54 179.157,-54 187.817,-54"/>
<polygon fill="midnightblue" stroke="midnightblue" points="187.902,-57.5001 197.902,-54 187.902,-50.5001 187.902,-57.5001"/>
</g>
<!-- Node4 -->
<g id="node4" class="node"><title>Node4</title>
<g id="a_node4"><a xlink:href="../../de/ded/classmodel_1_1_pen.html#aea4cc5396f9133c8695ee1c5ef5c95d5" target="_top" xlink:title="model.Pen.setStrokeWidth">
<polygon fill="white" stroke="black" points="199.5,-0.5 199.5,-19.5 342.5,-19.5 342.5,-0.5 199.5,-0.5"/>
<text text-anchor="middle" x="271" y="-7.5" font-family="Helvetica,sans-Serif" font-size="10.00">model.Pen.setStrokeWidth</text>
</a>
</g>
</g>
<!-- Node1&#45;&gt;Node4 -->
<g id="edge3" class="edge"><title>Node1&#45;&gt;Node4</title>
<path fill="none" stroke="midnightblue" d="M122.793,-44.4527C151.124,-37.8219 189.071,-28.9409 219.34,-21.8565"/>
<polygon fill="midnightblue" stroke="midnightblue" points="220.347,-25.2155 229.286,-19.5287 218.752,-18.3997 220.347,-25.2155"/>
</g>
</g>
</svg>
