<?xml version="1.0" encoding="UTF-8" standalone="no"?>
<!DOCTYPE svg PUBLIC "-//W3C//DTD SVG 1.1//EN"
 "http://www.w3.org/Graphics/SVG/1.1/DTD/svg11.dtd">
<!-- Generated by graphviz version 2.36.0 (20140111.2315)
 -->
<!-- Title: model.SlogoModel.getMyData Pages: 1 -->
<!--zoomable 322 -->
<svg id="main" version="1.1" xmlns="http://www.w3.org/2000/svg" xmlns:xlink="http://www.w3.org/1999/xlink" xml:space="preserve" onload="init(evt)">
<style type="text/css"><![CDATA[
.edge:hover path { stroke: red; }
.edge:hover polygon { stroke: red; fill: red; }
]]></style>
<script type="text/javascript"><![CDATA[
var edges = document.getElementsByTagName('g');
if (edges && edges.length) {
  for (var i=0;i<edges.length;i++) {
    if (edges[i].id.substr(0,4)=='edge') {
      edges[i].setAttribute('class','edge');
    }
  }
}
]]></script>
        <defs>
                <circle id="rim" cx="0" cy="0" r="7"/>
                <circle id="rim2" cx="0" cy="0" r="3.5"/>
                <g id="zoomPlus">
                        <use xlink:href="#rim" fill="#404040">
                                <set attributeName="fill" to="#808080" begin="zoomplus.mouseover" end="zoomplus.mouseout"/>
                        </use>
                        <path d="M-4,0h8M0,-4v8" fill="none" stroke="white" stroke-width="1.5" pointer-events="none"/>
                </g>
                <g id="zoomMin">
                        <use xlink:href="#rim" fill="#404040">
                                <set attributeName="fill" to="#808080" begin="zoomminus.mouseover" end="zoomminus.mouseout"/>
                        </use>
                        <path d="M-4,0h8" fill="none" stroke="white" stroke-width="1.5" pointer-events="none"/>
                </g>
                <g id="dirArrow">
                        <path fill="none" stroke="white" stroke-width="1.5" d="M0,-3.0v7 M-2.5,-0.5L0,-3.0L2.5,-0.5"/>
                </g>
               <g id="resetDef">
                       <use xlink:href="#rim2" fill="#404040">
                               <set attributeName="fill" to="#808080" begin="reset.mouseover" end="reset.mouseout"/>
                       </use>
               </g>
        </defs>

<script type="text/javascript">
var viewWidth = 568;
var viewHeight = 322;
var sectionId = 'dynsection-7';
</script>
<script xlink:href="../../svgpan.js"/>
<svg id="graph" class="graph">
<g id="viewport">
<title>model.SlogoModel.getMyData</title>
<polygon fill="white" stroke="none" points="-4,4 -4,-318 564,-318 564,4 -4,4"/>
<!-- Node1 -->
<g id="node1" class="node"><title>Node1</title>
<polygon fill="#bfbfbf" stroke="black" points="0.5,-142.5 0.5,-161.5 161.5,-161.5 161.5,-142.5 0.5,-142.5"/>
<text text-anchor="middle" x="81" y="-149.5" font-family="Helvetica,sans-Serif" font-size="10.00">model.SlogoModel.getMyData</text>
</g>
<!-- Node2 -->
<g id="node2" class="node"><title>Node2</title>
<g id="a_node2"><a xlink:href="../../dd/dc5/classview_1_1_settings_view.html#a1ade97b4c15b11449f1124a6b6eb5e93" target="_top" xlink:title="view.SettingsView.addBGColor\lPicker">
<polygon fill="white" stroke="black" points="198,-284 198,-314 358,-314 358,-284 198,-284"/>
<text text-anchor="start" x="206" y="-302" font-family="Helvetica,sans-Serif" font-size="10.00">view.SettingsView.addBGColor</text>
<text text-anchor="middle" x="278" y="-291" font-family="Helvetica,sans-Serif" font-size="10.00">Picker</text>
</a>
</g>
</g>
<!-- Node1&#45;&gt;Node2 -->
<g id="edge1" class="edge"><title>Node1&#45;&gt;Node2</title>
<path fill="none" stroke="midnightblue" d="M94.5813,-170.194C113.86,-196.753 153.215,-246.013 198,-274 204.1,-277.812 210.83,-281.088 217.713,-283.893"/>
<polygon fill="midnightblue" stroke="midnightblue" points="97.2722,-167.939 88.6237,-161.819 91.5681,-171.996 97.2722,-167.939"/>
</g>
<!-- Node4 -->
<g id="node4" class="node"><title>Node4</title>
<g id="a_node4"><a xlink:href="../../dd/dc5/classview_1_1_settings_view.html#a8b044653bb3dcbb300082c4103d14249" target="_top" xlink:title="view.SettingsView.addLine\lProperty">
<polygon fill="white" stroke="black" points="208,-235 208,-265 348,-265 348,-235 208,-235"/>
<text text-anchor="start" x="216" y="-253" font-family="Helvetica,sans-Serif" font-size="10.00">view.SettingsView.addLine</text>
<text text-anchor="middle" x="278" y="-242" font-family="Helvetica,sans-Serif" font-size="10.00">Property</text>
</a>
</g>
</g>
<!-- Node1&#45;&gt;Node4 -->
<g id="edge3" class="edge"><title>Node1&#45;&gt;Node4</title>
<path fill="none" stroke="midnightblue" d="M103.106,-167.611C125.664,-183.726 162.933,-208.744 198,-225 205.831,-228.63 214.331,-231.932 222.756,-234.86"/>
<polygon fill="midnightblue" stroke="midnightblue" points="105.094,-164.729 94.9398,-161.705 100.992,-170.402 105.094,-164.729"/>
</g>
<!-- Node5 -->
<g id="node5" class="node"><title>Node5</title>
<g id="a_node5"><a xlink:href="../../dd/dc5/classview_1_1_settings_view.html#a1c1243dd0938a2644f0bebe8feca5737" target="_top" xlink:title="view.SettingsView.addPen\lColorPicker">
<polygon fill="white" stroke="black" points="208.5,-186 208.5,-216 347.5,-216 347.5,-186 208.5,-186"/>
<text text-anchor="start" x="216.5" y="-204" font-family="Helvetica,sans-Serif" font-size="10.00">view.SettingsView.addPen</text>
<text text-anchor="middle" x="278" y="-193" font-family="Helvetica,sans-Serif" font-size="10.00">ColorPicker</text>
</a>
</g>
</g>
<!-- Node1&#45;&gt;Node5 -->
<g id="edge5" class="edge"><title>Node1&#45;&gt;Node5</title>
<path fill="none" stroke="midnightblue" d="M129.812,-164.014C156.16,-170.635 189.115,-178.916 217.159,-185.963"/>
<polygon fill="midnightblue" stroke="midnightblue" points="130.612,-160.607 120.061,-161.564 128.906,-167.396 130.612,-160.607"/>
</g>
<!-- Node6 -->
<g id="node6" class="node"><title>Node6</title>
<g id="a_node6"><a xlink:href="../../dd/dc5/classview_1_1_settings_view.html#a2647759701975998ceb6d36b40aa98ea" target="_top" xlink:title="view.SettingsView.addTurtle\lChoices">
<polygon fill="white" stroke="black" points="205,-137 205,-167 351,-167 351,-137 205,-137"/>
<text text-anchor="start" x="213" y="-155" font-family="Helvetica,sans-Serif" font-size="10.00">view.SettingsView.addTurtle</text>
<text text-anchor="middle" x="278" y="-144" font-family="Helvetica,sans-Serif" font-size="10.00">Choices</text>
</a>
</g>
</g>
<!-- Node1&#45;&gt;Node6 -->
<g id="edge7" class="edge"><title>Node1&#45;&gt;Node6</title>
<path fill="none" stroke="midnightblue" d="M171.737,-152C182.84,-152 194.078,-152 204.87,-152"/>
<polygon fill="midnightblue" stroke="midnightblue" points="171.595,-148.5 161.595,-152 171.595,-155.5 171.595,-148.5"/>
</g>
<!-- Node7 -->
<g id="node7" class="node"><title>Node7</title>
<g id="a_node7"><a xlink:href="../../d0/dfc/classview_1_1_slogo_window.html#a4e82e7457d8111608df4750c10008869" target="_top" xlink:title="view.SlogoWindow.loadFile">
<polygon fill="white" stroke="black" points="208.5,-98.5 208.5,-117.5 347.5,-117.5 347.5,-98.5 208.5,-98.5"/>
<text text-anchor="middle" x="278" y="-105.5" font-family="Helvetica,sans-Serif" font-size="10.00">view.SlogoWindow.loadFile</text>
</a>
</g>
</g>
<!-- Node1&#45;&gt;Node7 -->
<g id="edge9" class="edge"><title>Node1&#45;&gt;Node7</title>
<path fill="none" stroke="midnightblue" d="M134.225,-140.216C165.703,-133.113 205.275,-124.184 234.77,-117.529"/>
<polygon fill="midnightblue" stroke="midnightblue" points="133.296,-136.837 124.312,-142.453 134.837,-143.666 133.296,-136.837"/>
</g>
<!-- Node8 -->
<g id="node8" class="node"><title>Node8</title>
<g id="a_node8"><a xlink:href="../../d4/d90/classview_1_1_key_controls.html#a0c3663cb62e91e8919b0296aad899a8f" target="_top" xlink:title="view.KeyControls.makeKey\lCommands">
<polygon fill="white" stroke="black" points="207,-49 207,-79 349,-79 349,-49 207,-49"/>
<text text-anchor="start" x="215" y="-67" font-family="Helvetica,sans-Serif" font-size="10.00">view.KeyControls.makeKey</text>
<text text-anchor="middle" x="278" y="-56" font-family="Helvetica,sans-Serif" font-size="10.00">Commands</text>
</a>
</g>
</g>
<!-- Node1&#45;&gt;Node8 -->
<g id="edge10" class="edge"><title>Node1&#45;&gt;Node8</title>
<path fill="none" stroke="midnightblue" d="M106.015,-137.192C129.016,-123.439 165.005,-103.028 198,-89 206.473,-85.3977 215.647,-82.034 224.642,-79.0148"/>
<polygon fill="midnightblue" stroke="midnightblue" points="104.038,-134.297 97.2889,-142.463 107.658,-140.288 104.038,-134.297"/>
</g>
<!-- Node10 -->
<g id="node10" class="node"><title>Node10</title>
<g id="a_node10"><a xlink:href="../../d0/dfc/classview_1_1_slogo_window.html#ac299c416ca174b4ebe51eaf7d2700af3" target="_top" xlink:title="view.SlogoWindow.onClick\lCommand">
<polygon fill="white" stroke="black" points="209.5,-0 209.5,-30 346.5,-30 346.5,-0 209.5,-0"/>
<text text-anchor="start" x="217.5" y="-18" font-family="Helvetica,sans-Serif" font-size="10.00">view.SlogoWindow.onClick</text>
<text text-anchor="middle" x="278" y="-7" font-family="Helvetica,sans-Serif" font-size="10.00">Command</text>
</a>
</g>
</g>
<!-- Node1&#45;&gt;Node10 -->
<g id="edge12" class="edge"><title>Node1&#45;&gt;Node10</title>
<path fill="none" stroke="midnightblue" d="M95.7024,-134.063C115.608,-109.205 154.883,-64.473 198,-39 203.8,-35.5732 210.134,-32.5957 216.609,-30.018"/>
<polygon fill="midnightblue" stroke="midnightblue" points="92.6972,-132.223 89.2741,-142.25 98.2028,-136.546 92.6972,-132.223"/>
</g>
<!-- Node3 -->
<g id="node3" class="node"><title>Node3</title>
<g id="a_node3"><a xlink:href="../../dd/dc5/classview_1_1_settings_view.html#a34b8df753ce7a3b7d917a01ff315edc8" target="_top" xlink:title="view.SettingsView.SettingsView">
<polygon fill="white" stroke="black" points="395,-215.5 395,-234.5 559,-234.5 559,-215.5 395,-215.5"/>
<text text-anchor="middle" x="477" y="-222.5" font-family="Helvetica,sans-Serif" font-size="10.00">view.SettingsView.SettingsView</text>
</a>
</g>
</g>
<!-- Node2&#45;&gt;Node3 -->
<g id="edge2" class="edge"><title>Node2&#45;&gt;Node3</title>
<path fill="none" stroke="midnightblue" d="M338.563,-280.764C345.149,-278.566 351.735,-276.287 358,-274 392.173,-261.525 430.989,-244.924 454.475,-234.603"/>
<polygon fill="midnightblue" stroke="midnightblue" points="337.361,-277.475 328.951,-283.918 339.543,-284.125 337.361,-277.475"/>
</g>
<!-- Node4&#45;&gt;Node3 -->
<g id="edge4" class="edge"><title>Node4&#45;&gt;Node3</title>
<path fill="none" stroke="midnightblue" d="M358.312,-239.935C372.386,-238.149 387.004,-236.294 400.955,-234.523"/>
<polygon fill="midnightblue" stroke="midnightblue" points="357.658,-236.49 348.178,-241.221 358.539,-243.434 357.658,-236.49"/>
</g>
<!-- Node5&#45;&gt;Node3 -->
<g id="edge6" class="edge"><title>Node5&#45;&gt;Node3</title>
<path fill="none" stroke="midnightblue" d="M357.635,-210.58C370.874,-212.193 384.613,-213.867 397.841,-215.478"/>
<polygon fill="midnightblue" stroke="midnightblue" points="357.974,-207.095 347.624,-209.36 357.128,-214.044 357.974,-207.095"/>
</g>
<!-- Node6&#45;&gt;Node3 -->
<g id="edge8" class="edge"><title>Node6&#45;&gt;Node3</title>
<path fill="none" stroke="midnightblue" d="M338.26,-170.187C344.944,-172.406 351.636,-174.703 358,-177 391.908,-189.24 430.475,-205.353 454.021,-215.444"/>
<polygon fill="midnightblue" stroke="midnightblue" points="339.102,-166.78 328.51,-167 336.928,-173.434 339.102,-166.78"/>
</g>
<!-- Node9 -->
<g id="node9" class="node"><title>Node9</title>
<g id="a_node9"><a xlink:href="../../d4/d90/classview_1_1_key_controls.html#a4b73546f8ba8feee9e878b3cf743fb61" target="_top" xlink:title="view.KeyControls.KeyControls">
<polygon fill="white" stroke="black" points="399.5,-54.5 399.5,-73.5 554.5,-73.5 554.5,-54.5 399.5,-54.5"/>
<text text-anchor="middle" x="477" y="-61.5" font-family="Helvetica,sans-Serif" font-size="10.00">view.KeyControls.KeyControls</text>
</a>
</g>
</g>
<!-- Node8&#45;&gt;Node9 -->
<g id="edge11" class="edge"><title>Node8&#45;&gt;Node9</title>
<path fill="none" stroke="midnightblue" d="M359.04,-64C372.296,-64 386.015,-64 399.189,-64"/>
<polygon fill="midnightblue" stroke="midnightblue" points="359.01,-60.5001 349.01,-64 359.009,-67.5001 359.01,-60.5001"/>
</g>
<!-- Node11 -->
<g id="node11" class="node"><title>Node11</title>
<g id="a_node11"><a xlink:href="../../d0/dfc/classview_1_1_slogo_window.html#ad49eb4482b8bf39443afcdac5018e410" target="_top" xlink:title="view.SlogoWindow.SlogoWindow">
<polygon fill="white" stroke="black" points="394,-5.5 394,-24.5 560,-24.5 560,-5.5 394,-5.5"/>
<text text-anchor="middle" x="477" y="-12.5" font-family="Helvetica,sans-Serif" font-size="10.00">view.SlogoWindow.SlogoWindow</text>
</a>
</g>
</g>
<!-- Node10&#45;&gt;Node11 -->
<g id="edge13" class="edge"><title>Node10&#45;&gt;Node11</title>
<path fill="none" stroke="midnightblue" d="M356.675,-15C368.911,-15 381.596,-15 393.928,-15"/>
<polygon fill="midnightblue" stroke="midnightblue" points="356.521,-11.5001 346.521,-15 356.521,-18.5001 356.521,-11.5001"/>
</g>
</g>
</svg>
        <g id="navigator" transform="translate(0 0)" fill="#404254">
                <rect fill="#f2f5e9" fill-opacity="0.5" stroke="#606060" stroke-width=".5" x="0" y="0" width="60" height="60"/>
                <use id="zoomplus" xlink:href="#zoomPlus" x="17" y="9" onmousedown="handleZoom(evt,'in')"/>
                <use id="zoomminus" xlink:href="#zoomMin" x="42" y="9" onmousedown="handleZoom(evt,'out')"/>
                <use id="reset" xlink:href="#resetDef" x="30" y="36" onmousedown="handleReset()"/>
                <g id="arrowUp" xlink:href="#dirArrow" transform="translate(30 24)" onmousedown="handlePan(0,-1)">
                  <use xlink:href="#rim" fill="#404040">
                        <set attributeName="fill" to="#808080" begin="arrowUp.mouseover" end="arrowUp.mouseout"/>
                  </use>
                  <path fill="none" stroke="white" stroke-width="1.5" d="M0,-3.0v7 M-2.5,-0.5L0,-3.0L2.5,-0.5"/>
                </g>
                <g id="arrowRight" xlink:href="#dirArrow" transform="rotate(90) translate(36 -43)" onmousedown="handlePan(1,0)">
                  <use xlink:href="#rim" fill="#404040">
                        <set attributeName="fill" to="#808080" begin="arrowRight.mouseover" end="arrowRight.mouseout"/>
                  </use>
                  <path fill="none" stroke="white" stroke-width="1.5" d="M0,-3.0v7 M-2.5,-0.5L0,-3.0L2.5,-0.5"/>
                </g>
                <g id="arrowDown" xlink:href="#dirArrow" transform="rotate(180) translate(-30 -48)" onmousedown="handlePan(0,1)">
                  <use xlink:href="#rim" fill="#404040">
                        <set attributeName="fill" to="#808080" begin="arrowDown.mouseover" end="arrowDown.mouseout"/>
                  </use>
                  <path fill="none" stroke="white" stroke-width="1.5" d="M0,-3.0v7 M-2.5,-0.5L0,-3.0L2.5,-0.5"/>
                </g>
                <g id="arrowLeft" xlink:href="#dirArrow" transform="rotate(270) translate(-36 17)" onmousedown="handlePan(-1,0)">
                  <use xlink:href="#rim" fill="#404040">
                        <set attributeName="fill" to="#808080" begin="arrowLeft.mouseover" end="arrowLeft.mouseout"/>
                  </use>
                  <path fill="none" stroke="white" stroke-width="1.5" d="M0,-3.0v7 M-2.5,-0.5L0,-3.0L2.5,-0.5"/>
                </g>
        </g>
        <svg viewBox="0 0 15 15" width="100%" height="30px" preserveAspectRatio="xMaxYMin meet">
         <g id="arrow_out" transform="scale(0.3 0.3)">
          <a xlink:href="classmodel_1_1_slogo_model_a356fe9ced691a6dba1992d41db95d5f7_icgraph_org.svg" target="_base">
           <rect id="button" ry="5" rx="5" y="6" x="6" height="38" width="38"
                fill="#f2f5e9" fill-opacity="0.5" stroke="#606060" stroke-width="1.0"/>
           <path id="arrow"
             d="M 11.500037,31.436501 C 11.940474,20.09759 22.043105,11.32322 32.158766,21.979434 L 37.068811,17.246167 C 37.068811,17.246167 37.088388,32 37.088388,32 L 22.160133,31.978069 C 22.160133,31.978069 26.997745,27.140456 26.997745,27.140456 C 18.528582,18.264221 13.291696,25.230495 11.500037,31.436501 z"
             style="fill:#404040;"/>
          </a>
         </g>
        </svg>
</svg>
