<?xml version="1.0" encoding="UTF-8" standalone="no"?>
<!DOCTYPE svg PUBLIC "-//W3C//DTD SVG 1.1//EN"
 "http://www.w3.org/Graphics/SVG/1.1/DTD/svg11.dtd">
<!-- Generated by graphviz version 2.36.0 (20140111.2315)
 -->
<!-- Title: model.SlogoModel.executeCommands Pages: 1 -->
<svg width="560pt" height="126pt"
 viewBox="0.00 0.00 560.00 126.00" xmlns="http://www.w3.org/2000/svg" xmlns:xlink="http://www.w3.org/1999/xlink">
<g id="graph0" class="graph" transform="scale(1 1) rotate(0) translate(4 122)">
<title>model.SlogoModel.executeCommands</title>
<polygon fill="white" stroke="none" points="-4,4 -4,-122 556,-122 556,4 -4,4"/>
<!-- Node1 -->
<g id="node1" class="node"><title>Node1</title>
<polygon fill="#bfbfbf" stroke="black" points="0,-55 0,-85 146,-85 146,-55 0,-55"/>
<text text-anchor="start" x="8" y="-73" font-family="Helvetica,sans-Serif" font-size="10.00">model.SlogoModel.execute</text>
<text text-anchor="middle" x="73" y="-62" font-family="Helvetica,sans-Serif" font-size="10.00">Commands</text>
</g>
<!-- Node2 -->
<g id="node2" class="node"><title>Node2</title>
<g id="a_node2"><a xlink:href="../../d2/d93/interfaceinstructions_1_1_instruction.html#ab47846ec32fac6e514e5ab7fe4db0254" target="_top" xlink:title="instructions.Instruction.execute">
<polygon fill="white" stroke="black" points="182.5,-98.5 182.5,-117.5 349.5,-117.5 349.5,-98.5 182.5,-98.5"/>
<text text-anchor="middle" x="266" y="-105.5" font-family="Helvetica,sans-Serif" font-size="10.00">instructions.Instruction.execute</text>
</a>
</g>
</g>
<!-- Node1&#45;&gt;Node2 -->
<g id="edge1" class="edge"><title>Node1&#45;&gt;Node2</title>
<path fill="none" stroke="midnightblue" d="M146.209,-84.3662C166.267,-88.3569 187.786,-92.638 206.923,-96.4453"/>
<polygon fill="midnightblue" stroke="midnightblue" points="206.497,-99.9291 216.988,-98.4478 207.863,-93.0637 206.497,-99.9291"/>
</g>
<!-- Node3 -->
<g id="node3" class="node"><title>Node3</title>
<g id="a_node3"><a xlink:href="../../d8/d36/classmodel_1_1_observable_data.html#aa526df8e1adab74d19f2d89071560dcb" target="_top" xlink:title="model.ObservableData.get">
<polygon fill="white" stroke="black" points="193,-60.5 193,-79.5 339,-79.5 339,-60.5 193,-60.5"/>
<text text-anchor="middle" x="266" y="-67.5" font-family="Helvetica,sans-Serif" font-size="10.00">model.ObservableData.get</text>
</a>
</g>
</g>
<!-- Node1&#45;&gt;Node3 -->
<g id="edge2" class="edge"><title>Node1&#45;&gt;Node3</title>
<path fill="none" stroke="midnightblue" d="M146.209,-70C158.093,-70 170.49,-70 182.601,-70"/>
<polygon fill="midnightblue" stroke="midnightblue" points="182.689,-73.5001 192.689,-70 182.689,-66.5001 182.689,-73.5001"/>
</g>
<!-- Node4 -->
<g id="node4" class="node"><title>Node4</title>
<g id="a_node4"><a xlink:href="../../d3/d88/classmodel_1_1_slogo_model.html#ad52954c6dbfb83f7aa97a85116c25eb8" target="_top" xlink:title="model.SlogoModel.showOnView">
<polygon fill="white" stroke="black" points="182.5,-22.5 182.5,-41.5 349.5,-41.5 349.5,-22.5 182.5,-22.5"/>
<text text-anchor="middle" x="266" y="-29.5" font-family="Helvetica,sans-Serif" font-size="10.00">model.SlogoModel.showOnView</text>
</a>
</g>
</g>
<!-- Node1&#45;&gt;Node4 -->
<g id="edge3" class="edge"><title>Node1&#45;&gt;Node4</title>
<path fill="none" stroke="midnightblue" d="M146.209,-55.6338C166.267,-51.6431 187.786,-47.362 206.923,-43.5547"/>
<polygon fill="midnightblue" stroke="midnightblue" points="207.863,-46.9363 216.988,-41.5522 206.497,-40.0709 207.863,-46.9363"/>
</g>
<!-- Node5 -->
<g id="node5" class="node"><title>Node5</title>
<g id="a_node5"><a xlink:href="../../d8/d36/classmodel_1_1_observable_data.html#a575297a6d90ca0223478c397de4a8296" target="_top" xlink:title="model.ObservableData.change\lReturn">
<polygon fill="white" stroke="black" points="386.5,-39 386.5,-69 551.5,-69 551.5,-39 386.5,-39"/>
<text text-anchor="start" x="394.5" y="-57" font-family="Helvetica,sans-Serif" font-size="10.00">model.ObservableData.change</text>
<text text-anchor="middle" x="469" y="-46" font-family="Helvetica,sans-Serif" font-size="10.00">Return</text>
</a>
</g>
</g>
<!-- Node4&#45;&gt;Node5 -->
<g id="edge4" class="edge"><title>Node4&#45;&gt;Node5</title>
<path fill="none" stroke="midnightblue" d="M349.625,-41.0435C358.436,-42.0079 367.436,-42.993 376.343,-43.9679"/>
<polygon fill="midnightblue" stroke="midnightblue" points="376.024,-47.4538 386.345,-45.0627 376.785,-40.4953 376.024,-47.4538"/>
</g>
<!-- Node6 -->
<g id="node6" class="node"><title>Node6</title>
<g id="a_node6"><a xlink:href="../../d3/d88/classmodel_1_1_slogo_model.html#a5a328c6f896a5c150e95b49db71dea8f" target="_top" xlink:title="model.SlogoModel.load">
<polygon fill="white" stroke="black" points="405,-0.5 405,-19.5 533,-19.5 533,-0.5 405,-0.5"/>
<text text-anchor="middle" x="469" y="-7.5" font-family="Helvetica,sans-Serif" font-size="10.00">model.SlogoModel.load</text>
</a>
</g>
</g>
<!-- Node4&#45;&gt;Node6 -->
<g id="edge5" class="edge"><title>Node4&#45;&gt;Node6</title>
<path fill="none" stroke="midnightblue" d="M349.625,-22.9565C364.58,-21.3195 380.082,-19.6228 394.747,-18.0178"/>
<polygon fill="midnightblue" stroke="midnightblue" points="395.188,-21.4904 404.748,-16.9231 394.427,-14.532 395.188,-21.4904"/>
</g>
</g>
</svg>
