<?xml version="1.0" encoding="UTF-8" standalone="no"?>
<!DOCTYPE svg PUBLIC "-//W3C//DTD SVG 1.1//EN"
 "http://www.w3.org/Graphics/SVG/1.1/DTD/svg11.dtd">
<!-- Generated by graphviz version 2.36.0 (20140111.2315)
 -->
<!-- Title: model.SlogoModel.initializePenColor Pages: 1 -->
<svg width="500pt" height="77pt"
 viewBox="0.00 0.00 500.00 77.00" xmlns="http://www.w3.org/2000/svg" xmlns:xlink="http://www.w3.org/1999/xlink">
<g id="graph0" class="graph" transform="scale(1 1) rotate(0) translate(4 73)">
<title>model.SlogoModel.initializePenColor</title>
<polygon fill="white" stroke="none" points="-4,4 -4,-73 496,-73 496,4 -4,4"/>
<!-- Node1 -->
<g id="node1" class="node"><title>Node1</title>
<polygon fill="#bfbfbf" stroke="black" points="0,-17 0,-47 146,-47 146,-17 0,-17"/>
<text text-anchor="start" x="8" y="-35" font-family="Helvetica,sans-Serif" font-size="10.00">model.SlogoModel.initialize</text>
<text text-anchor="middle" x="73" y="-24" font-family="Helvetica,sans-Serif" font-size="10.00">PenColor</text>
</g>
<!-- Node2 -->
<g id="node2" class="node"><title>Node2</title>
<g id="a_node2"><a xlink:href="../../d8/d36/classmodel_1_1_observable_data.html#aa585e00721a74cba9ab459079945e15b" target="_top" xlink:title="model.ObservableData.get\lTurtle">
<polygon fill="white" stroke="black" points="184,-39 184,-69 330,-69 330,-39 184,-39"/>
<text text-anchor="start" x="192" y="-57" font-family="Helvetica,sans-Serif" font-size="10.00">model.ObservableData.get</text>
<text text-anchor="middle" x="257" y="-46" font-family="Helvetica,sans-Serif" font-size="10.00">Turtle</text>
</a>
</g>
</g>
<!-- Node1&#45;&gt;Node2 -->
<g id="edge1" class="edge"><title>Node1&#45;&gt;Node2</title>
<path fill="none" stroke="midnightblue" d="M146.193,-40.7266C155.303,-41.8278 164.676,-42.9609 173.925,-44.0789"/>
<polygon fill="midnightblue" stroke="midnightblue" points="173.547,-47.5585 183.895,-45.284 174.387,-40.6091 173.547,-47.5585"/>
</g>
<!-- Node3 -->
<g id="node3" class="node"><title>Node3</title>
<g id="a_node3"><a xlink:href="../../d6/d34/classmodel_1_1_turtle.html#ad38145f0d661fccdc638b4e3b814620d" target="_top" xlink:title="model.Turtle.setPenCustom">
<polygon fill="white" stroke="black" points="182.5,-0.5 182.5,-19.5 331.5,-19.5 331.5,-0.5 182.5,-0.5"/>
<text text-anchor="middle" x="257" y="-7.5" font-family="Helvetica,sans-Serif" font-size="10.00">model.Turtle.setPenCustom</text>
</a>
</g>
</g>
<!-- Node1&#45;&gt;Node3 -->
<g id="edge2" class="edge"><title>Node1&#45;&gt;Node3</title>
<path fill="none" stroke="midnightblue" d="M146.193,-23.2734C154.752,-22.2387 163.544,-21.1759 172.248,-20.1239"/>
<polygon fill="midnightblue" stroke="midnightblue" points="172.896,-23.5711 182.404,-18.8962 172.056,-16.6217 172.896,-23.5711"/>
</g>
<!-- Node4 -->
<g id="node4" class="node"><title>Node4</title>
<g id="a_node4"><a xlink:href="../../de/ded/classmodel_1_1_pen.html#a81b3b2c7a645a33687ca88624c0944d3" target="_top" xlink:title="model.Pen.setCustom">
<polygon fill="white" stroke="black" points="368.5,-0.5 368.5,-19.5 491.5,-19.5 491.5,-0.5 368.5,-0.5"/>
<text text-anchor="middle" x="430" y="-7.5" font-family="Helvetica,sans-Serif" font-size="10.00">model.Pen.setCustom</text>
</a>
</g>
</g>
<!-- Node3&#45;&gt;Node4 -->
<g id="edge3" class="edge"><title>Node3&#45;&gt;Node4</title>
<path fill="none" stroke="midnightblue" d="M331.512,-10C340.36,-10 349.383,-10 358.192,-10"/>
<polygon fill="midnightblue" stroke="midnightblue" points="358.411,-13.5001 368.411,-10 358.411,-6.5001 358.411,-13.5001"/>
</g>
</g>
</svg>
