<?xml version="1.0" encoding="UTF-8" standalone="no"?>
<!DOCTYPE svg PUBLIC "-//W3C//DTD SVG 1.1//EN"
 "http://www.w3.org/Graphics/SVG/1.1/DTD/svg11.dtd">
<!-- Generated by graphviz version 2.36.0 (20140111.2315)
 -->
<!-- Title: instructions.commands.GreaterThan Pages: 1 -->
<svg width="200pt" height="252pt"
 viewBox="0.00 0.00 200.00 252.00" xmlns="http://www.w3.org/2000/svg" xmlns:xlink="http://www.w3.org/1999/xlink">
<g id="graph0" class="graph" transform="scale(1 1) rotate(0) translate(4 248)">
<title>instructions.commands.GreaterThan</title>
<polygon fill="white" stroke="none" points="-4,4 -4,-248 196,-248 196,4 -4,4"/>
<!-- Node1 -->
<g id="node1" class="node"><title>Node1</title>
<polygon fill="#bfbfbf" stroke="black" points="0,-0.5 0,-19.5 192,-19.5 192,-0.5 0,-0.5"/>
<text text-anchor="middle" x="96" y="-7.5" font-family="Helvetica,sans-Serif" font-size="10.00">instructions.commands.GreaterThan</text>
</g>
<!-- Node2 -->
<g id="node2" class="node"><title>Node2</title>
<g id="a_node2"><a xlink:href="../../d6/d3f/classinstructions_1_1_binary_instruction.html" target="_top" xlink:title="instructions.BinaryInstruction">
<polygon fill="white" stroke="black" points="18.5,-56.5 18.5,-75.5 173.5,-75.5 173.5,-56.5 18.5,-56.5"/>
<text text-anchor="middle" x="96" y="-63.5" font-family="Helvetica,sans-Serif" font-size="10.00">instructions.BinaryInstruction</text>
</a>
</g>
</g>
<!-- Node2&#45;&gt;Node1 -->
<g id="edge1" class="edge"><title>Node2&#45;&gt;Node1</title>
<path fill="none" stroke="midnightblue" d="M96,-45.8045C96,-36.9102 96,-26.7798 96,-19.7511"/>
<polygon fill="midnightblue" stroke="midnightblue" points="92.5001,-46.083 96,-56.083 99.5001,-46.083 92.5001,-46.083"/>
</g>
<!-- Node3 -->
<g id="node3" class="node"><title>Node3</title>
<g id="a_node3"><a xlink:href="../../d9/d85/classinstructions_1_1_parameter_instruction.html" target="_top" xlink:title="instructions.ParameterInstruction">
<polygon fill="white" stroke="black" points="8,-112.5 8,-131.5 184,-131.5 184,-112.5 8,-112.5"/>
<text text-anchor="middle" x="96" y="-119.5" font-family="Helvetica,sans-Serif" font-size="10.00">instructions.ParameterInstruction</text>
</a>
</g>
</g>
<!-- Node3&#45;&gt;Node2 -->
<g id="edge2" class="edge"><title>Node3&#45;&gt;Node2</title>
<path fill="none" stroke="midnightblue" d="M96,-101.805C96,-92.9102 96,-82.7798 96,-75.7511"/>
<polygon fill="midnightblue" stroke="midnightblue" points="92.5001,-102.083 96,-112.083 99.5001,-102.083 92.5001,-102.083"/>
</g>
<!-- Node4 -->
<g id="node4" class="node"><title>Node4</title>
<g id="a_node4"><a xlink:href="../../d2/d93/interfaceinstructions_1_1_instruction.html" target="_top" xlink:title="instructions.Instruction">
<polygon fill="white" stroke="black" points="33.5,-168.5 33.5,-187.5 158.5,-187.5 158.5,-168.5 33.5,-168.5"/>
<text text-anchor="middle" x="96" y="-175.5" font-family="Helvetica,sans-Serif" font-size="10.00">instructions.Instruction</text>
</a>
</g>
</g>
<!-- Node4&#45;&gt;Node3 -->
<g id="edge3" class="edge"><title>Node4&#45;&gt;Node3</title>
<path fill="none" stroke="midnightblue" d="M96,-157.805C96,-148.91 96,-138.78 96,-131.751"/>
<polygon fill="midnightblue" stroke="midnightblue" points="92.5001,-158.083 96,-168.083 99.5001,-158.083 92.5001,-158.083"/>
</g>
<!-- Node5 -->
<g id="node5" class="node"><title>Node5</title>
<polygon fill="white" stroke="#bfbfbf" points="60.5,-224.5 60.5,-243.5 131.5,-243.5 131.5,-224.5 60.5,-224.5"/>
<text text-anchor="middle" x="96" y="-231.5" font-family="Helvetica,sans-Serif" font-size="10.00">Serializable</text>
</g>
<!-- Node5&#45;&gt;Node4 -->
<g id="edge4" class="edge"><title>Node5&#45;&gt;Node4</title>
<path fill="none" stroke="midnightblue" d="M96,-213.805C96,-204.91 96,-194.78 96,-187.751"/>
<polygon fill="midnightblue" stroke="midnightblue" points="92.5001,-214.083 96,-224.083 99.5001,-214.083 92.5001,-214.083"/>
</g>
</g>
</svg>
