<?xml version="1.0" encoding="UTF-8" standalone="no"?>
<!DOCTYPE svg PUBLIC "-//W3C//DTD SVG 1.1//EN"
 "http://www.w3.org/Graphics/SVG/1.1/DTD/svg11.dtd">
<!-- Generated by graphviz version 2.36.0 (20140111.2315)
 -->
<!-- Title: view.SettingsView.addPenSlider Pages: 1 -->
<svg width="528pt" height="116pt"
 viewBox="0.00 0.00 528.00 116.00" xmlns="http://www.w3.org/2000/svg" xmlns:xlink="http://www.w3.org/1999/xlink">
<g id="graph0" class="graph" transform="scale(1 1) rotate(0) translate(4 112)">
<title>view.SettingsView.addPenSlider</title>
<polygon fill="white" stroke="none" points="-4,4 -4,-112 524,-112 524,4 -4,4"/>
<!-- Node1 -->
<g id="node1" class="node"><title>Node1</title>
<polygon fill="#bfbfbf" stroke="black" points="0.5,-39 0.5,-69 139.5,-69 139.5,-39 0.5,-39"/>
<text text-anchor="start" x="8.5" y="-57" font-family="Helvetica,sans-Serif" font-size="10.00">view.SettingsView.addPen</text>
<text text-anchor="middle" x="70" y="-46" font-family="Helvetica,sans-Serif" font-size="10.00">Slider</text>
</g>
<!-- Node2 -->
<g id="node2" class="node"><title>Node2</title>
<g id="a_node2"><a xlink:href="../../d3/d88/classmodel_1_1_slogo_model.html#a57ae2fb85245476c02d5e7208bf64be3" target="_top" xlink:title="model.SlogoModel.setPenSize">
<polygon fill="white" stroke="black" points="176.5,-44.5 176.5,-63.5 337.5,-63.5 337.5,-44.5 176.5,-44.5"/>
<text text-anchor="middle" x="257" y="-51.5" font-family="Helvetica,sans-Serif" font-size="10.00">model.SlogoModel.setPenSize</text>
</a>
</g>
</g>
<!-- Node1&#45;&gt;Node2 -->
<g id="edge1" class="edge"><title>Node1&#45;&gt;Node2</title>
<path fill="none" stroke="midnightblue" d="M139.624,-54C148.291,-54 157.258,-54 166.191,-54"/>
<polygon fill="midnightblue" stroke="midnightblue" points="166.245,-57.5001 176.245,-54 166.245,-50.5001 166.245,-57.5001"/>
</g>
<!-- Node3 -->
<g id="node3" class="node"><title>Node3</title>
<g id="a_node3"><a xlink:href="../../d6/d34/classmodel_1_1_turtle.html#a3feaf892f3049394737e61453a1c320d" target="_top" xlink:title="model.Turtle.getPen">
<polygon fill="white" stroke="black" points="391,-88.5 391,-107.5 503,-107.5 503,-88.5 391,-88.5"/>
<text text-anchor="middle" x="447" y="-95.5" font-family="Helvetica,sans-Serif" font-size="10.00">model.Turtle.getPen</text>
</a>
</g>
</g>
<!-- Node2&#45;&gt;Node3 -->
<g id="edge2" class="edge"><title>Node2&#45;&gt;Node3</title>
<path fill="none" stroke="midnightblue" d="M298.793,-63.5473C327.124,-70.1781 365.071,-79.0591 395.34,-86.1435"/>
<polygon fill="midnightblue" stroke="midnightblue" points="394.752,-89.6003 405.286,-88.4713 396.347,-82.7845 394.752,-89.6003"/>
</g>
<!-- Node4 -->
<g id="node4" class="node"><title>Node4</title>
<g id="a_node4"><a xlink:href="../../d8/d36/classmodel_1_1_observable_data.html#aa585e00721a74cba9ab459079945e15b" target="_top" xlink:title="model.ObservableData.get\lTurtle">
<polygon fill="white" stroke="black" points="374,-39 374,-69 520,-69 520,-39 374,-39"/>
<text text-anchor="start" x="382" y="-57" font-family="Helvetica,sans-Serif" font-size="10.00">model.ObservableData.get</text>
<text text-anchor="middle" x="447" y="-46" font-family="Helvetica,sans-Serif" font-size="10.00">Turtle</text>
</a>
</g>
</g>
<!-- Node2&#45;&gt;Node4 -->
<g id="edge3" class="edge"><title>Node2&#45;&gt;Node4</title>
<path fill="none" stroke="midnightblue" d="M337.729,-54C346.361,-54 355.157,-54 363.817,-54"/>
<polygon fill="midnightblue" stroke="midnightblue" points="363.902,-57.5001 373.902,-54 363.902,-50.5001 363.902,-57.5001"/>
</g>
<!-- Node5 -->
<g id="node5" class="node"><title>Node5</title>
<g id="a_node5"><a xlink:href="../../de/ded/classmodel_1_1_pen.html#aea4cc5396f9133c8695ee1c5ef5c95d5" target="_top" xlink:title="model.Pen.setStrokeWidth">
<polygon fill="white" stroke="black" points="375.5,-0.5 375.5,-19.5 518.5,-19.5 518.5,-0.5 375.5,-0.5"/>
<text text-anchor="middle" x="447" y="-7.5" font-family="Helvetica,sans-Serif" font-size="10.00">model.Pen.setStrokeWidth</text>
</a>
</g>
</g>
<!-- Node2&#45;&gt;Node5 -->
<g id="edge4" class="edge"><title>Node2&#45;&gt;Node5</title>
<path fill="none" stroke="midnightblue" d="M298.793,-44.4527C327.124,-37.8219 365.071,-28.9409 395.34,-21.8565"/>
<polygon fill="midnightblue" stroke="midnightblue" points="396.347,-25.2155 405.286,-19.5287 394.752,-18.3997 396.347,-25.2155"/>
</g>
</g>
</svg>
