<?xml version="1.0" encoding="UTF-8" standalone="no"?>
<!DOCTYPE svg PUBLIC "-//W3C//DTD SVG 1.1//EN"
 "http://www.w3.org/Graphics/SVG/1.1/DTD/svg11.dtd">
<!-- Generated by graphviz version 2.36.0 (20140111.2315)
 -->
<!-- Title: view.SettingsView.SettingsView Pages: 1 -->
<svg width="1468pt" height="824pt"
 viewBox="0.00 0.00 1468.00 824.00" xmlns="http://www.w3.org/2000/svg" xmlns:xlink="http://www.w3.org/1999/xlink">
<g id="graph0" class="graph" transform="scale(1 1) rotate(0) translate(4 820)">
<title>view.SettingsView.SettingsView</title>
<polygon fill="white" stroke="none" points="-4,4 -4,-820 1464,-820 1464,4 -4,4"/>
<!-- Node1 -->
<g id="node1" class="node"><title>Node1</title>
<polygon fill="#bfbfbf" stroke="black" points="0,-228.5 0,-247.5 164,-247.5 164,-228.5 0,-228.5"/>
<text text-anchor="middle" x="82" y="-235.5" font-family="Helvetica,sans-Serif" font-size="10.00">view.SettingsView.SettingsView</text>
</g>
<!-- Node2 -->
<g id="node2" class="node"><title>Node2</title>
<g id="a_node2"><a xlink:href="../../dd/dc5/classview_1_1_settings_view.html#a1ade97b4c15b11449f1124a6b6eb5e93" target="_top" xlink:title="view.SettingsView.addBGColor\lPicker">
<polygon fill="white" stroke="black" points="200,-681 200,-711 360,-711 360,-681 200,-681"/>
<text text-anchor="start" x="208" y="-699" font-family="Helvetica,sans-Serif" font-size="10.00">view.SettingsView.addBGColor</text>
<text text-anchor="middle" x="280" y="-688" font-family="Helvetica,sans-Serif" font-size="10.00">Picker</text>
</a>
</g>
</g>
<!-- Node1&#45;&gt;Node2 -->
<g id="edge1" class="edge"><title>Node1&#45;&gt;Node2</title>
<path fill="none" stroke="midnightblue" d="M85.0608,-247.621C94.306,-289.697 134.395,-461.079 200,-588 216.386,-619.7 241.551,-652.243 259.06,-673.203"/>
<polygon fill="midnightblue" stroke="midnightblue" points="256.454,-675.542 265.589,-680.909 261.795,-671.017 256.454,-675.542"/>
</g>
<!-- Node8 -->
<g id="node8" class="node"><title>Node8</title>
<g id="a_node8"><a xlink:href="../../dd/dc5/classview_1_1_settings_view.html#a4ad3e69e9ba90e013df06b1f7b5ef6d0" target="_top" xlink:title="view.SettingsView.addButtons">
<polygon fill="white" stroke="black" points="201,-144.5 201,-163.5 359,-163.5 359,-144.5 201,-144.5"/>
<text text-anchor="middle" x="280" y="-151.5" font-family="Helvetica,sans-Serif" font-size="10.00">view.SettingsView.addButtons</text>
</a>
</g>
</g>
<!-- Node1&#45;&gt;Node8 -->
<g id="edge8" class="edge"><title>Node1&#45;&gt;Node8</title>
<path fill="none" stroke="midnightblue" d="M102.226,-228.326C125.22,-216.905 164.998,-197.618 200,-183 213.322,-177.436 228.129,-171.847 241.291,-167.081"/>
<polygon fill="midnightblue" stroke="midnightblue" points="242.748,-170.277 250.983,-163.611 240.388,-163.687 242.748,-170.277"/>
</g>
<!-- Node27 -->
<g id="node27" class="node"><title>Node27</title>
<g id="a_node27"><a xlink:href="../../dd/dc5/classview_1_1_settings_view.html#a8b044653bb3dcbb300082c4103d14249" target="_top" xlink:title="view.SettingsView.addLine\lProperty">
<polygon fill="white" stroke="black" points="210,-394 210,-424 350,-424 350,-394 210,-394"/>
<text text-anchor="start" x="218" y="-412" font-family="Helvetica,sans-Serif" font-size="10.00">view.SettingsView.addLine</text>
<text text-anchor="middle" x="280" y="-401" font-family="Helvetica,sans-Serif" font-size="10.00">Property</text>
</a>
</g>
</g>
<!-- Node1&#45;&gt;Node27 -->
<g id="edge30" class="edge"><title>Node1&#45;&gt;Node27</title>
<path fill="none" stroke="midnightblue" d="M94.0994,-247.684C124.683,-274.366 210.749,-349.455 253.808,-387.021"/>
<polygon fill="midnightblue" stroke="midnightblue" points="251.735,-389.858 261.571,-393.794 256.337,-384.583 251.735,-389.858"/>
</g>
<!-- Node30 -->
<g id="node30" class="node"><title>Node30</title>
<g id="a_node30"><a xlink:href="../../dd/dc5/classview_1_1_settings_view.html#a1c1243dd0938a2644f0bebe8feca5737" target="_top" xlink:title="view.SettingsView.addPen\lColorPicker">
<polygon fill="white" stroke="black" points="210.5,-549 210.5,-579 349.5,-579 349.5,-549 210.5,-549"/>
<text text-anchor="start" x="218.5" y="-567" font-family="Helvetica,sans-Serif" font-size="10.00">view.SettingsView.addPen</text>
<text text-anchor="middle" x="280" y="-556" font-family="Helvetica,sans-Serif" font-size="10.00">ColorPicker</text>
</a>
</g>
</g>
<!-- Node1&#45;&gt;Node30 -->
<g id="edge37" class="edge"><title>Node1&#45;&gt;Node30</title>
<path fill="none" stroke="midnightblue" d="M88.8358,-247.744C105.911,-276.25 157.264,-361.954 200,-433 222.434,-470.295 248.519,-513.523 264.387,-539.805"/>
<polygon fill="midnightblue" stroke="midnightblue" points="261.58,-541.928 269.746,-548.679 267.573,-538.31 261.58,-541.928"/>
</g>
<!-- Node35 -->
<g id="node35" class="node"><title>Node35</title>
<g id="a_node35"><a xlink:href="../../dd/dc5/classview_1_1_settings_view.html#af8bf8067258762b6b65bd149d2e5fbe8" target="_top" xlink:title="view.SettingsView.addPen\lSlider">
<polygon fill="white" stroke="black" points="210.5,-193 210.5,-223 349.5,-223 349.5,-193 210.5,-193"/>
<text text-anchor="start" x="218.5" y="-211" font-family="Helvetica,sans-Serif" font-size="10.00">view.SettingsView.addPen</text>
<text text-anchor="middle" x="280" y="-200" font-family="Helvetica,sans-Serif" font-size="10.00">Slider</text>
</a>
</g>
</g>
<!-- Node1&#45;&gt;Node35 -->
<g id="edge47" class="edge"><title>Node1&#45;&gt;Node35</title>
<path fill="none" stroke="midnightblue" d="M145.285,-228.467C162.782,-225.788 182.039,-222.841 200.356,-220.037"/>
<polygon fill="midnightblue" stroke="midnightblue" points="201.063,-223.47 210.418,-218.497 200.004,-216.551 201.063,-223.47"/>
</g>
<!-- Node38 -->
<g id="node38" class="node"><title>Node38</title>
<g id="a_node38"><a xlink:href="../../dd/dc5/classview_1_1_settings_view.html#a2647759701975998ceb6d36b40aa98ea" target="_top" xlink:title="view.SettingsView.addTurtle\lChoices">
<polygon fill="white" stroke="black" points="207,-261 207,-291 353,-291 353,-261 207,-261"/>
<text text-anchor="start" x="215" y="-279" font-family="Helvetica,sans-Serif" font-size="10.00">view.SettingsView.addTurtle</text>
<text text-anchor="middle" x="280" y="-268" font-family="Helvetica,sans-Serif" font-size="10.00">Choices</text>
</a>
</g>
</g>
<!-- Node1&#45;&gt;Node38 -->
<g id="edge52" class="edge"><title>Node1&#45;&gt;Node38</title>
<path fill="none" stroke="midnightblue" d="M132.206,-247.54C151.775,-251.334 174.829,-255.804 196.795,-260.062"/>
<polygon fill="midnightblue" stroke="midnightblue" points="196.311,-263.534 206.795,-262.001 197.644,-256.662 196.311,-263.534"/>
</g>
<!-- Node41 -->
<g id="node41" class="node"><title>Node41</title>
<g id="a_node41"><a xlink:href="../../dd/dc5/classview_1_1_settings_view.html#a3cdbbe3ef53f7528da751bafbebae3ab" target="_top" xlink:title="view.SettingsView.addTurtle\lUpload">
<polygon fill="white" stroke="black" points="207,-95 207,-125 353,-125 353,-95 207,-95"/>
<text text-anchor="start" x="215" y="-113" font-family="Helvetica,sans-Serif" font-size="10.00">view.SettingsView.addTurtle</text>
<text text-anchor="middle" x="280" y="-102" font-family="Helvetica,sans-Serif" font-size="10.00">Upload</text>
</a>
</g>
</g>
<!-- Node1&#45;&gt;Node41 -->
<g id="edge57" class="edge"><title>Node1&#45;&gt;Node41</title>
<path fill="none" stroke="midnightblue" d="M91.3823,-228.287C109.319,-208.08 153.581,-161.22 200,-135 203.734,-132.891 207.67,-130.934 211.71,-129.122"/>
<polygon fill="midnightblue" stroke="midnightblue" points="213.382,-132.218 221.279,-125.156 210.701,-125.752 213.382,-132.218"/>
</g>
<!-- Node42 -->
<g id="node42" class="node"><title>Node42</title>
<g id="a_node42"><a xlink:href="../../dd/dc5/classview_1_1_settings_view.html#a236ea3c70494a780bc38616b1f638a85" target="_top" xlink:title="view.SettingsView.setView">
<polygon fill="white" stroke="black" points="210,-56.5 210,-75.5 350,-75.5 350,-56.5 210,-56.5"/>
<text text-anchor="middle" x="280" y="-63.5" font-family="Helvetica,sans-Serif" font-size="10.00">view.SettingsView.setView</text>
</a>
</g>
</g>
<!-- Node1&#45;&gt;Node42 -->
<g id="edge58" class="edge"><title>Node1&#45;&gt;Node42</title>
<path fill="none" stroke="midnightblue" d="M87.46,-228.277C100.51,-200.976 141.427,-123.124 200,-85 203.14,-82.956 206.48,-81.1316 209.943,-79.5033"/>
<polygon fill="midnightblue" stroke="midnightblue" points="211.43,-82.6759 219.347,-75.6347 208.767,-76.2023 211.43,-82.6759"/>
</g>
<!-- Node3 -->
<g id="node3" class="node"><title>Node3</title>
<g id="a_node3"><a xlink:href="../../d8/df7/classview_1_1_turtle_view.html#a1c3a12923246ff8b10715ee6568e11a1" target="_top" xlink:title="view.TurtleView.changeColor">
<polygon fill="white" stroke="black" points="416.5,-708.5 416.5,-727.5 565.5,-727.5 565.5,-708.5 416.5,-708.5"/>
<text text-anchor="middle" x="491" y="-715.5" font-family="Helvetica,sans-Serif" font-size="10.00">view.TurtleView.changeColor</text>
</a>
</g>
</g>
<!-- Node2&#45;&gt;Node3 -->
<g id="edge2" class="edge"><title>Node2&#45;&gt;Node3</title>
<path fill="none" stroke="midnightblue" d="M360.014,-704.317C375.186,-705.914 391.121,-707.592 406.431,-709.203"/>
<polygon fill="midnightblue" stroke="midnightblue" points="406.076,-712.685 416.388,-710.251 406.809,-705.724 406.076,-712.685"/>
</g>
<!-- Node4 -->
<g id="node4" class="node"><title>Node4</title>
<g id="a_node4"><a xlink:href="../../d3/d88/classmodel_1_1_slogo_model.html#a356fe9ced691a6dba1992d41db95d5f7" target="_top" xlink:title="model.SlogoModel.getMyData">
<polygon fill="white" stroke="black" points="410.5,-494.5 410.5,-513.5 571.5,-513.5 571.5,-494.5 410.5,-494.5"/>
<text text-anchor="middle" x="491" y="-501.5" font-family="Helvetica,sans-Serif" font-size="10.00">model.SlogoModel.getMyData</text>
</a>
</g>
</g>
<!-- Node2&#45;&gt;Node4 -->
<g id="edge3" class="edge"><title>Node2&#45;&gt;Node4</title>
<path fill="none" stroke="midnightblue" d="M291.402,-680.849C310.124,-654.325 351.688,-598.716 396,-561 415.984,-543.991 441.618,-528.809 461.068,-518.399"/>
<polygon fill="midnightblue" stroke="midnightblue" points="462.834,-521.426 470.068,-513.685 459.586,-515.225 462.834,-521.426"/>
</g>
<!-- Node5 -->
<g id="node5" class="node"><title>Node5</title>
<g id="a_node5"><a xlink:href="../../d8/d36/classmodel_1_1_observable_data.html#aa526df8e1adab74d19f2d89071560dcb" target="_top" xlink:title="model.ObservableData.get">
<polygon fill="white" stroke="black" points="627,-768.5 627,-787.5 773,-787.5 773,-768.5 627,-768.5"/>
<text text-anchor="middle" x="700" y="-775.5" font-family="Helvetica,sans-Serif" font-size="10.00">model.ObservableData.get</text>
</a>
</g>
</g>
<!-- Node2&#45;&gt;Node5 -->
<g id="edge4" class="edge"><title>Node2&#45;&gt;Node5</title>
<path fill="none" stroke="midnightblue" d="M317.18,-711.088C339.538,-719.858 369.019,-730.441 396,-737 469.658,-754.907 555.421,-765.594 616.866,-771.544"/>
<polygon fill="midnightblue" stroke="midnightblue" points="616.61,-775.035 626.895,-772.494 617.27,-768.066 616.61,-775.035"/>
</g>
<!-- Node6 -->
<g id="node6" class="node"><title>Node6</title>
<g id="a_node6"><a xlink:href="../../d3/d88/classmodel_1_1_slogo_model.html#a80d95a95345028893cb013833fd32165" target="_top" xlink:title="model.SlogoModel.initialize\lBGColor">
<polygon fill="white" stroke="black" points="418,-785 418,-815 564,-815 564,-785 418,-785"/>
<text text-anchor="start" x="426" y="-803" font-family="Helvetica,sans-Serif" font-size="10.00">model.SlogoModel.initialize</text>
<text text-anchor="middle" x="491" y="-792" font-family="Helvetica,sans-Serif" font-size="10.00">BGColor</text>
</a>
</g>
</g>
<!-- Node2&#45;&gt;Node6 -->
<g id="edge5" class="edge"><title>Node2&#45;&gt;Node6</title>
<path fill="none" stroke="midnightblue" d="M300.83,-711.074C323.033,-727.388 360.563,-753.302 396,-770 405.065,-774.272 414.896,-778.158 424.669,-781.611"/>
<polygon fill="midnightblue" stroke="midnightblue" points="423.798,-785.012 434.392,-784.919 426.052,-778.385 423.798,-785.012"/>
</g>
<!-- Node7 -->
<g id="node7" class="node"><title>Node7</title>
<g id="a_node7"><a xlink:href="../../dd/dc5/classview_1_1_settings_view.html#a2006562a7c50b7df6ddaa49b173fbe5f" target="_top" xlink:title="view.SettingsView.getCustom\lColors">
<polygon fill="white" stroke="black" points="413,-659 413,-689 569,-689 569,-659 413,-659"/>
<text text-anchor="start" x="421" y="-677" font-family="Helvetica,sans-Serif" font-size="10.00">view.SettingsView.getCustom</text>
<text text-anchor="middle" x="491" y="-666" font-family="Helvetica,sans-Serif" font-size="10.00">Colors</text>
</a>
</g>
</g>
<!-- Node2&#45;&gt;Node7 -->
<g id="edge7" class="edge"><title>Node2&#45;&gt;Node7</title>
<path fill="none" stroke="midnightblue" d="M360.014,-687.683C373.967,-686.214 388.565,-684.677 402.729,-683.186"/>
<polygon fill="midnightblue" stroke="midnightblue" points="403.372,-686.638 412.951,-682.11 402.639,-679.677 403.372,-686.638"/>
</g>
<!-- Node6&#45;&gt;Node5 -->
<g id="edge6" class="edge"><title>Node6&#45;&gt;Node5</title>
<path fill="none" stroke="midnightblue" d="M564.108,-792.336C581.079,-790.533 599.295,-788.597 616.677,-786.749"/>
<polygon fill="midnightblue" stroke="midnightblue" points="617.226,-790.211 626.8,-785.673 616.486,-783.25 617.226,-790.211"/>
</g>
<!-- Node9 -->
<g id="node9" class="node"><title>Node9</title>
<g id="a_node9"><a xlink:href="../../dd/dc5/classview_1_1_settings_view.html#a4bbbc6b58b5c37cd6049dd9651e61b40" target="_top" xlink:title="view.SettingsView.makeButton">
<polygon fill="white" stroke="black" points="410,-152.5 410,-171.5 572,-171.5 572,-152.5 410,-152.5"/>
<text text-anchor="middle" x="491" y="-159.5" font-family="Helvetica,sans-Serif" font-size="10.00">view.SettingsView.makeButton</text>
</a>
</g>
</g>
<!-- Node8&#45;&gt;Node9 -->
<g id="edge9" class="edge"><title>Node8&#45;&gt;Node9</title>
<path fill="none" stroke="midnightblue" d="M359.121,-156.99C372.333,-157.496 386.147,-158.025 399.641,-158.541"/>
<polygon fill="midnightblue" stroke="midnightblue" points="399.756,-162.048 409.882,-158.933 400.023,-155.053 399.756,-162.048"/>
</g>
<!-- Node10 -->
<g id="node10" class="node"><title>Node10</title>
<g id="a_node10"><a xlink:href="../../d3/d88/classmodel_1_1_slogo_model.html#a4dd110d0980b463d7b3130e3ad3393e6" target="_top" xlink:title="model.SlogoModel.toggleTurtle">
<polygon fill="white" stroke="black" points="409,-0.5 409,-19.5 573,-19.5 573,-0.5 409,-0.5"/>
<text text-anchor="middle" x="491" y="-7.5" font-family="Helvetica,sans-Serif" font-size="10.00">model.SlogoModel.toggleTurtle</text>
</a>
</g>
</g>
<!-- Node8&#45;&gt;Node10 -->
<g id="edge10" class="edge"><title>Node8&#45;&gt;Node10</title>
<path fill="none" stroke="midnightblue" d="M343.99,-144.426C349.839,-141.727 355.317,-138.313 360,-134 396.29,-100.581 358.91,-61.5285 396,-29 397.729,-27.4837 399.545,-26.0756 401.434,-24.7687"/>
<polygon fill="midnightblue" stroke="midnightblue" points="403.282,-27.7424 410.135,-19.6628 399.739,-21.7049 403.282,-27.7424"/>
</g>
<!-- Node15 -->
<g id="node15" class="node"><title>Node15</title>
<g id="a_node15"><a xlink:href="../../d8/df7/classview_1_1_turtle_view.html#a3f0d6f14ae9d464b889b846b10bf9492" target="_top" xlink:title="view.TurtleView.toggleGrid">
<polygon fill="white" stroke="black" points="422,-76.5 422,-95.5 560,-95.5 560,-76.5 422,-76.5"/>
<text text-anchor="middle" x="491" y="-83.5" font-family="Helvetica,sans-Serif" font-size="10.00">view.TurtleView.toggleGrid</text>
</a>
</g>
</g>
<!-- Node8&#45;&gt;Node15 -->
<g id="edge15" class="edge"><title>Node8&#45;&gt;Node15</title>
<path fill="none" stroke="midnightblue" d="M332.313,-144.436C341.784,-141.723 351.392,-138.297 360,-134 378.382,-124.823 377.401,-113.729 396,-105 401.311,-102.508 406.94,-100.342 412.7,-98.4591"/>
<polygon fill="midnightblue" stroke="midnightblue" points="413.895,-101.755 422.483,-95.5511 411.901,-95.0454 413.895,-101.755"/>
</g>
<!-- Node16 -->
<g id="node16" class="node"><title>Node16</title>
<g id="a_node16"><a xlink:href="../../d3/d88/classmodel_1_1_slogo_model.html#abfeceb3da7ed60166c8137597cacc2fc" target="_top" xlink:title="model.SlogoModel.clear">
<polygon fill="white" stroke="black" points="425.5,-114.5 425.5,-133.5 556.5,-133.5 556.5,-114.5 425.5,-114.5"/>
<text text-anchor="middle" x="491" y="-121.5" font-family="Helvetica,sans-Serif" font-size="10.00">model.SlogoModel.clear</text>
</a>
</g>
</g>
<!-- Node8&#45;&gt;Node16 -->
<g id="edge16" class="edge"><title>Node8&#45;&gt;Node16</title>
<path fill="none" stroke="midnightblue" d="M347.416,-144.467C368.976,-141.372 393.041,-137.918 415.171,-134.741"/>
<polygon fill="midnightblue" stroke="midnightblue" points="415.785,-138.189 425.186,-133.303 414.791,-131.26 415.785,-138.189"/>
</g>
<!-- Node26 -->
<g id="node26" class="node"><title>Node26</title>
<g id="a_node26"><a xlink:href="../../d3/d88/classmodel_1_1_slogo_model.html#a6d2121ec86dd818cfb06a4fe610b62a8" target="_top" xlink:title="model.SlogoModel.accessHelpHTML">
<polygon fill="white" stroke="black" points="396.5,-38.5 396.5,-57.5 585.5,-57.5 585.5,-38.5 396.5,-38.5"/>
<text text-anchor="middle" x="491" y="-45.5" font-family="Helvetica,sans-Serif" font-size="10.00">model.SlogoModel.accessHelpHTML</text>
</a>
</g>
</g>
<!-- Node8&#45;&gt;Node26 -->
<g id="edge29" class="edge"><title>Node8&#45;&gt;Node26</title>
<path fill="none" stroke="midnightblue" d="M341.305,-144.447C348.012,-141.769 354.424,-138.353 360,-134 386.646,-113.198 368.858,-87.1495 396,-67 398.381,-65.2323 400.886,-63.6185 403.486,-62.1459"/>
<polygon fill="midnightblue" stroke="midnightblue" points="405.205,-65.2018 412.65,-57.6642 402.129,-58.9135 405.205,-65.2018"/>
</g>
<!-- Node11 -->
<g id="node11" class="node"><title>Node11</title>
<g id="a_node11"><a xlink:href="../../d8/d36/classmodel_1_1_observable_data.html#aa585e00721a74cba9ab459079945e15b" target="_top" xlink:title="model.ObservableData.get\lTurtle">
<polygon fill="white" stroke="black" points="627,-337 627,-367 773,-367 773,-337 627,-337"/>
<text text-anchor="start" x="635" y="-355" font-family="Helvetica,sans-Serif" font-size="10.00">model.ObservableData.get</text>
<text text-anchor="middle" x="700" y="-344" font-family="Helvetica,sans-Serif" font-size="10.00">Turtle</text>
</a>
</g>
</g>
<!-- Node10&#45;&gt;Node11 -->
<g id="edge11" class="edge"><title>Node10&#45;&gt;Node11</title>
<path fill="none" stroke="midnightblue" d="M573.064,-19.1028C577.816,-21.7723 582.199,-25.0326 586,-29 656.971,-103.078 580.275,-163.28 622,-257 634.542,-285.171 657.64,-311.957 675.278,-329.861"/>
<polygon fill="midnightblue" stroke="midnightblue" points="672.887,-332.42 682.456,-336.969 677.812,-327.446 672.887,-332.42"/>
</g>
<!-- Node12 -->
<g id="node12" class="node"><title>Node12</title>
<g id="a_node12"><a xlink:href="../../d3/d88/classmodel_1_1_slogo_model.html#a5a328c6f896a5c150e95b49db71dea8f" target="_top" xlink:title="model.SlogoModel.load">
<polygon fill="white" stroke="black" points="636,-57.5 636,-76.5 764,-76.5 764,-57.5 636,-57.5"/>
<text text-anchor="middle" x="700" y="-64.5" font-family="Helvetica,sans-Serif" font-size="10.00">model.SlogoModel.load</text>
</a>
</g>
</g>
<!-- Node10&#45;&gt;Node12 -->
<g id="edge12" class="edge"><title>Node10&#45;&gt;Node12</title>
<path fill="none" stroke="midnightblue" d="M544.969,-19.5012C558.43,-22.245 572.813,-25.4648 586,-29 612.525,-36.1108 641.909,-46.0582 664.063,-53.9918"/>
<polygon fill="midnightblue" stroke="midnightblue" points="663.102,-57.3663 673.697,-57.4778 665.484,-50.784 663.102,-57.3663"/>
</g>
<!-- Node13 -->
<g id="node13" class="node"><title>Node13</title>
<g id="a_node13"><a xlink:href="../../d6/d34/classmodel_1_1_turtle.html#a0550d3e5a9d973a1774ae8f6f5d571df" target="_top" xlink:title="model.Turtle.toggleVisible">
<polygon fill="white" stroke="black" points="630.5,-0.5 630.5,-19.5 769.5,-19.5 769.5,-0.5 630.5,-0.5"/>
<text text-anchor="middle" x="700" y="-7.5" font-family="Helvetica,sans-Serif" font-size="10.00">model.Turtle.toggleVisible</text>
</a>
</g>
</g>
<!-- Node10&#45;&gt;Node13 -->
<g id="edge13" class="edge"><title>Node10&#45;&gt;Node13</title>
<path fill="none" stroke="midnightblue" d="M573.218,-10C588.734,-10 604.952,-10 620.386,-10"/>
<polygon fill="midnightblue" stroke="midnightblue" points="620.399,-13.5001 630.399,-10 620.399,-6.5001 620.399,-13.5001"/>
</g>
<!-- Node14 -->
<g id="node14" class="node"><title>Node14</title>
<g id="a_node14"><a xlink:href="../../d6/d34/classmodel_1_1_turtle.html#a772aad8bba7b5bc7bd3e95408478324f" target="_top" xlink:title="model.Turtle.setVisible">
<polygon fill="white" stroke="black" points="816,-0.5 816,-19.5 940,-19.5 940,-0.5 816,-0.5"/>
<text text-anchor="middle" x="878" y="-7.5" font-family="Helvetica,sans-Serif" font-size="10.00">model.Turtle.setVisible</text>
</a>
</g>
</g>
<!-- Node13&#45;&gt;Node14 -->
<g id="edge14" class="edge"><title>Node13&#45;&gt;Node14</title>
<path fill="none" stroke="midnightblue" d="M769.55,-10C781.345,-10 793.631,-10 805.501,-10"/>
<polygon fill="midnightblue" stroke="midnightblue" points="805.803,-13.5001 815.803,-10 805.803,-6.5001 805.803,-13.5001"/>
</g>
<!-- Node16&#45;&gt;Node11 -->
<g id="edge27" class="edge"><title>Node16&#45;&gt;Node11</title>
<path fill="none" stroke="midnightblue" d="M556.973,-127.723C567.621,-130.833 577.828,-135.654 586,-143 625.516,-178.519 596.83,-210.207 622,-257 636.565,-284.077 659.292,-310.921 676.286,-329.13"/>
<polygon fill="midnightblue" stroke="midnightblue" points="674.212,-332.028 683.641,-336.859 679.283,-327.202 674.212,-332.028"/>
</g>
<!-- Node16&#45;&gt;Node12 -->
<g id="edge28" class="edge"><title>Node16&#45;&gt;Node12</title>
<path fill="none" stroke="midnightblue" d="M544.969,-114.499C558.43,-111.755 572.813,-108.535 586,-105 612.525,-97.8892 641.909,-87.9418 664.063,-80.0082"/>
<polygon fill="midnightblue" stroke="midnightblue" points="665.484,-83.216 673.697,-76.5222 663.102,-76.6337 665.484,-83.216"/>
</g>
<!-- Node17 -->
<g id="node17" class="node"><title>Node17</title>
<g id="a_node17"><a xlink:href="../../d8/d36/classmodel_1_1_observable_data.html#ad2bff2456394e252a20722f2b15e61d5" target="_top" xlink:title="model.ObservableData.clear">
<polygon fill="white" stroke="black" points="623.5,-114.5 623.5,-133.5 776.5,-133.5 776.5,-114.5 623.5,-114.5"/>
<text text-anchor="middle" x="700" y="-121.5" font-family="Helvetica,sans-Serif" font-size="10.00">model.ObservableData.clear</text>
</a>
</g>
</g>
<!-- Node16&#45;&gt;Node17 -->
<g id="edge17" class="edge"><title>Node16&#45;&gt;Node17</title>
<path fill="none" stroke="midnightblue" d="M556.645,-124C574.543,-124 594.255,-124 613.158,-124"/>
<polygon fill="midnightblue" stroke="midnightblue" points="613.256,-127.5 623.256,-124 613.256,-120.5 613.256,-127.5"/>
</g>
<!-- Node23 -->
<g id="node23" class="node"><title>Node23</title>
<g id="a_node23"><a xlink:href="../../de/ded/classmodel_1_1_pen.html#a92a7e8dd0f123fdd06a56982944a9128" target="_top" xlink:title="model.Pen.clear">
<polygon fill="white" stroke="black" points="653,-152.5 653,-171.5 747,-171.5 747,-152.5 653,-152.5"/>
<text text-anchor="middle" x="700" y="-159.5" font-family="Helvetica,sans-Serif" font-size="10.00">model.Pen.clear</text>
</a>
</g>
</g>
<!-- Node16&#45;&gt;Node23 -->
<g id="edge24" class="edge"><title>Node16&#45;&gt;Node23</title>
<path fill="none" stroke="midnightblue" d="M543.968,-133.54C573.987,-139.051 611.772,-145.987 642.524,-151.632"/>
<polygon fill="midnightblue" stroke="midnightblue" points="642.194,-155.13 652.661,-153.493 643.458,-148.245 642.194,-155.13"/>
</g>
<!-- Node25 -->
<g id="node25" class="node"><title>Node25</title>
<g id="a_node25"><a xlink:href="../../d6/d34/classmodel_1_1_turtle.html#a3feaf892f3049394737e61453a1c320d" target="_top" xlink:title="model.Turtle.getPen">
<polygon fill="white" stroke="black" points="644,-190.5 644,-209.5 756,-209.5 756,-190.5 644,-190.5"/>
<text text-anchor="middle" x="700" y="-197.5" font-family="Helvetica,sans-Serif" font-size="10.00">model.Turtle.getPen</text>
</a>
</g>
</g>
<!-- Node16&#45;&gt;Node25 -->
<g id="edge26" class="edge"><title>Node16&#45;&gt;Node25</title>
<path fill="none" stroke="midnightblue" d="M556.574,-131.578C566.801,-134.304 576.971,-137.997 586,-143 606.35,-154.274 601.894,-169.296 622,-181 625.853,-183.243 629.962,-185.222 634.202,-186.969"/>
<polygon fill="midnightblue" stroke="midnightblue" points="633.05,-190.274 643.644,-190.433 635.461,-183.702 633.05,-190.274"/>
</g>
<!-- Node18 -->
<g id="node18" class="node"><title>Node18</title>
<g id="a_node18"><a xlink:href="../../d6/d34/classmodel_1_1_turtle.html#aa12e02cec0c9313dbd61f53df171b1bd" target="_top" xlink:title="model.Turtle.clear">
<polygon fill="white" stroke="black" points="827.5,-114.5 827.5,-133.5 928.5,-133.5 928.5,-114.5 827.5,-114.5"/>
<text text-anchor="middle" x="878" y="-121.5" font-family="Helvetica,sans-Serif" font-size="10.00">model.Turtle.clear</text>
</a>
</g>
</g>
<!-- Node17&#45;&gt;Node18 -->
<g id="edge18" class="edge"><title>Node17&#45;&gt;Node18</title>
<path fill="none" stroke="midnightblue" d="M776.661,-124C790.188,-124 804.112,-124 817.119,-124"/>
<polygon fill="midnightblue" stroke="midnightblue" points="817.33,-127.5 827.33,-124 817.33,-120.5 817.33,-127.5"/>
</g>
<!-- Node19 -->
<g id="node19" class="node"><title>Node19</title>
<g id="a_node19"><a xlink:href="../../d6/d34/classmodel_1_1_turtle.html#a561398015768e49764442dfa298f1bd3" target="_top" xlink:title="model.Turtle.setAngle">
<polygon fill="white" stroke="black" points="994,-152.5 994,-171.5 1114,-171.5 1114,-152.5 994,-152.5"/>
<text text-anchor="middle" x="1054" y="-159.5" font-family="Helvetica,sans-Serif" font-size="10.00">model.Turtle.setAngle</text>
</a>
</g>
</g>
<!-- Node18&#45;&gt;Node19 -->
<g id="edge19" class="edge"><title>Node18&#45;&gt;Node19</title>
<path fill="none" stroke="midnightblue" d="M922.908,-133.589C946.179,-138.671 974.954,-144.955 999.519,-150.32"/>
<polygon fill="midnightblue" stroke="midnightblue" points="998.892,-153.766 1009.41,-152.48 1000.39,-146.927 998.892,-153.766"/>
</g>
<!-- Node20 -->
<g id="node20" class="node"><title>Node20</title>
<g id="a_node20"><a xlink:href="../../d6/d34/classmodel_1_1_turtle.html#abf987ba62d49c24804d43b464f9b7410" target="_top" xlink:title="model.Turtle.setCoordinates">
<polygon fill="white" stroke="black" points="978.5,-114.5 978.5,-133.5 1129.5,-133.5 1129.5,-114.5 978.5,-114.5"/>
<text text-anchor="middle" x="1054" y="-121.5" font-family="Helvetica,sans-Serif" font-size="10.00">model.Turtle.setCoordinates</text>
</a>
</g>
</g>
<!-- Node18&#45;&gt;Node20 -->
<g id="edge20" class="edge"><title>Node18&#45;&gt;Node20</title>
<path fill="none" stroke="midnightblue" d="M928.861,-124C941.185,-124 954.733,-124 968.21,-124"/>
<polygon fill="midnightblue" stroke="midnightblue" points="968.481,-127.5 978.481,-124 968.481,-120.5 968.481,-127.5"/>
</g>
<!-- Node21 -->
<g id="node21" class="node"><title>Node21</title>
<g id="a_node21"><a xlink:href="../../d6/d34/classmodel_1_1_turtle.html#a138e6be2a3c83aea4ef698bf9e499bcf" target="_top" xlink:title="model.Turtle.setTurtleInfo">
<polygon fill="white" stroke="black" points="1166,-95.5 1166,-114.5 1302,-114.5 1302,-95.5 1166,-95.5"/>
<text text-anchor="middle" x="1234" y="-102.5" font-family="Helvetica,sans-Serif" font-size="10.00">model.Turtle.setTurtleInfo</text>
</a>
</g>
</g>
<!-- Node18&#45;&gt;Node21 -->
<g id="edge23" class="edge"><title>Node18&#45;&gt;Node21</title>
<path fill="none" stroke="midnightblue" d="M919.211,-114.489C937.098,-110.724 958.487,-106.856 978,-105 1037.48,-99.3443 1105.11,-99.6515 1155.77,-101.207"/>
<polygon fill="midnightblue" stroke="midnightblue" points="1155.88,-104.712 1165.99,-101.544 1156.11,-97.7158 1155.88,-104.712"/>
</g>
<!-- Node20&#45;&gt;Node21 -->
<g id="edge21" class="edge"><title>Node20&#45;&gt;Node21</title>
<path fill="none" stroke="midnightblue" d="M1129.71,-116.025C1138.33,-115.105 1147.13,-114.166 1155.78,-113.243"/>
<polygon fill="midnightblue" stroke="midnightblue" points="1156.27,-116.71 1165.84,-112.169 1155.53,-109.75 1156.27,-116.71"/>
</g>
<!-- Node22 -->
<g id="node22" class="node"><title>Node22</title>
<g id="a_node22"><a xlink:href="../../d6/d34/classmodel_1_1_turtle.html#a61d79b71c878b0c64adeab038483da7a" target="_top" xlink:title="model.Turtle.getAngle">
<polygon fill="white" stroke="black" points="1338.5,-95.5 1338.5,-114.5 1459.5,-114.5 1459.5,-95.5 1338.5,-95.5"/>
<text text-anchor="middle" x="1399" y="-102.5" font-family="Helvetica,sans-Serif" font-size="10.00">model.Turtle.getAngle</text>
</a>
</g>
</g>
<!-- Node21&#45;&gt;Node22 -->
<g id="edge22" class="edge"><title>Node21&#45;&gt;Node22</title>
<path fill="none" stroke="midnightblue" d="M1302.24,-105C1310.87,-105 1319.73,-105 1328.4,-105"/>
<polygon fill="midnightblue" stroke="midnightblue" points="1328.47,-108.5 1338.47,-105 1328.47,-101.5 1328.47,-108.5"/>
</g>
<!-- Node24 -->
<g id="node24" class="node"><title>Node24</title>
<g id="a_node24"><a xlink:href="../../de/ded/classmodel_1_1_pen.html#a66364a974714d2b44c00ee26a57e5654" target="_top" xlink:title="model.Pen.setPenColor">
<polygon fill="white" stroke="black" points="814,-497.5 814,-516.5 942,-516.5 942,-497.5 814,-497.5"/>
<text text-anchor="middle" x="878" y="-504.5" font-family="Helvetica,sans-Serif" font-size="10.00">model.Pen.setPenColor</text>
</a>
</g>
</g>
<!-- Node23&#45;&gt;Node24 -->
<g id="edge25" class="edge"><title>Node23&#45;&gt;Node24</title>
<path fill="none" stroke="midnightblue" d="M747.205,-165.427C758.433,-168.259 769.608,-173.041 778,-181 867.937,-266.3 876.97,-430.403 877.287,-487.131"/>
<polygon fill="midnightblue" stroke="midnightblue" points="873.787,-487.254 877.252,-497.266 880.787,-487.278 873.787,-487.254"/>
</g>
<!-- Node27&#45;&gt;Node4 -->
<g id="edge31" class="edge"><title>Node27&#45;&gt;Node4</title>
<path fill="none" stroke="midnightblue" d="M301.158,-424.091C323.346,-440.052 360.58,-464.96 396,-480 407.022,-484.68 419.171,-488.612 430.972,-491.85"/>
<polygon fill="midnightblue" stroke="midnightblue" points="430.211,-495.268 440.771,-494.407 431.979,-488.495 430.211,-495.268"/>
</g>
<!-- Node27&#45;&gt;Node11 -->
<g id="edge32" class="edge"><title>Node27&#45;&gt;Node11</title>
<path fill="none" stroke="midnightblue" d="M350.024,-399.588C423.146,-389.616 538.575,-373.876 616.459,-363.256"/>
<polygon fill="midnightblue" stroke="midnightblue" points="617.28,-366.676 626.716,-361.857 616.334,-359.74 617.28,-366.676"/>
</g>
<!-- Node27&#45;&gt;Node25 -->
<g id="edge33" class="edge"><title>Node27&#45;&gt;Node25</title>
<path fill="none" stroke="midnightblue" d="M320.076,-393.911C342.308,-385.361 370.684,-374.506 396,-365 480.249,-333.364 519.586,-355.728 586,-295 613.583,-269.779 593.06,-242.652 622,-219 625.798,-215.896 630.03,-213.288 634.502,-211.098"/>
<polygon fill="midnightblue" stroke="midnightblue" points="636.067,-214.238 643.956,-207.165 633.378,-207.775 636.067,-214.238"/>
</g>
<!-- Node28 -->
<g id="node28" class="node"><title>Node28</title>
<g id="a_node28"><a xlink:href="../../de/ded/classmodel_1_1_pen.html#a29799b12d4e0880c5479a4c059f5b8d2" target="_top" xlink:title="model.Pen.changeLineProperty">
<polygon fill="white" stroke="black" points="408,-418.5 408,-437.5 574,-437.5 574,-418.5 408,-418.5"/>
<text text-anchor="middle" x="491" y="-425.5" font-family="Helvetica,sans-Serif" font-size="10.00">model.Pen.changeLineProperty</text>
</a>
</g>
</g>
<!-- Node27&#45;&gt;Node28 -->
<g id="edge34" class="edge"><title>Node27&#45;&gt;Node28</title>
<path fill="none" stroke="midnightblue" d="M350.014,-415.274C365.374,-416.67 381.895,-418.172 398.014,-419.638"/>
<polygon fill="midnightblue" stroke="midnightblue" points="397.708,-423.124 407.983,-420.544 398.341,-416.153 397.708,-423.124"/>
</g>
<!-- Node29 -->
<g id="node29" class="node"><title>Node29</title>
<g id="a_node29"><a xlink:href="../../de/ded/classmodel_1_1_pen.html#ad799d84679d9e8332c9cd2b428ea7384" target="_top" xlink:title="model.Pen.setPenDown">
<polygon fill="white" stroke="black" points="635,-437.5 635,-456.5 765,-456.5 765,-437.5 635,-437.5"/>
<text text-anchor="middle" x="700" y="-444.5" font-family="Helvetica,sans-Serif" font-size="10.00">model.Pen.setPenDown</text>
</a>
</g>
</g>
<!-- Node27&#45;&gt;Node29 -->
<g id="edge36" class="edge"><title>Node27&#45;&gt;Node29</title>
<path fill="none" stroke="midnightblue" d="M316.518,-424.006C338.878,-432.625 368.597,-442.59 396,-447 473.362,-459.451 563.282,-457.412 624.953,-453.53"/>
<polygon fill="midnightblue" stroke="midnightblue" points="625.235,-457.019 634.983,-452.867 624.773,-450.035 625.235,-457.019"/>
</g>
<!-- Node28&#45;&gt;Node29 -->
<g id="edge35" class="edge"><title>Node28&#45;&gt;Node29</title>
<path fill="none" stroke="midnightblue" d="M574.109,-435.537C590.841,-437.072 608.354,-438.68 624.792,-440.189"/>
<polygon fill="midnightblue" stroke="midnightblue" points="624.593,-443.685 634.871,-441.114 625.233,-436.714 624.593,-443.685"/>
</g>
<!-- Node30&#45;&gt;Node4 -->
<g id="edge38" class="edge"><title>Node30&#45;&gt;Node4</title>
<path fill="none" stroke="midnightblue" d="M326.996,-548.984C347.965,-542.297 373.158,-534.486 396,-528 410.481,-523.888 426.308,-519.722 440.776,-516.041"/>
<polygon fill="midnightblue" stroke="midnightblue" points="441.702,-519.417 450.542,-513.576 439.99,-512.629 441.702,-519.417"/>
</g>
<!-- Node30&#45;&gt;Node7 -->
<g id="edge46" class="edge"><title>Node30&#45;&gt;Node7</title>
<path fill="none" stroke="midnightblue" d="M299.047,-579.137C320.829,-596.774 359.14,-625.813 396,-644 404.756,-648.321 414.274,-652.204 423.779,-655.632"/>
<polygon fill="midnightblue" stroke="midnightblue" points="422.656,-658.947 433.251,-658.906 424.943,-652.331 422.656,-658.947"/>
</g>
<!-- Node30&#45;&gt;Node11 -->
<g id="edge39" class="edge"><title>Node30&#45;&gt;Node11</title>
<path fill="none" stroke="midnightblue" d="M349.788,-562.765C428.328,-560.002 550.539,-551.157 586,-523 621.36,-494.922 597.366,-465.84 622,-428 635.439,-407.357 655.315,-387.92 671.507,-373.87"/>
<polygon fill="midnightblue" stroke="midnightblue" points="674.211,-376.167 679.585,-367.036 669.69,-370.823 674.211,-376.167"/>
</g>
<!-- Node31 -->
<g id="node31" class="node"><title>Node31</title>
<g id="a_node31"><a xlink:href="../../d6/d34/classmodel_1_1_turtle.html#aa3553e012611632ba498177bfb768339" target="_top" xlink:title="model.Turtle.changePenColor">
<polygon fill="white" stroke="black" points="622,-497.5 622,-516.5 778,-516.5 778,-497.5 622,-497.5"/>
<text text-anchor="middle" x="700" y="-504.5" font-family="Helvetica,sans-Serif" font-size="10.00">model.Turtle.changePenColor</text>
</a>
</g>
</g>
<!-- Node30&#45;&gt;Node31 -->
<g id="edge40" class="edge"><title>Node30&#45;&gt;Node31</title>
<path fill="none" stroke="midnightblue" d="M310.748,-579.138C367.207,-605.628 492.598,-653.617 586,-610 608.583,-599.454 604.069,-584.313 622,-567 639.179,-550.413 660.775,-533.908 676.72,-522.42"/>
<polygon fill="midnightblue" stroke="midnightblue" points="678.808,-525.23 684.934,-516.585 674.754,-519.523 678.808,-525.23"/>
</g>
<!-- Node32 -->
<g id="node32" class="node"><title>Node32</title>
<g id="a_node32"><a xlink:href="../../d3/d88/classmodel_1_1_slogo_model.html#af0ff8ea4a04df315002c19967df477ee" target="_top" xlink:title="model.SlogoModel.initialize\lPenColor">
<polygon fill="white" stroke="black" points="418,-571 418,-601 564,-601 564,-571 418,-571"/>
<text text-anchor="start" x="426" y="-589" font-family="Helvetica,sans-Serif" font-size="10.00">model.SlogoModel.initialize</text>
<text text-anchor="middle" x="491" y="-578" font-family="Helvetica,sans-Serif" font-size="10.00">PenColor</text>
</a>
</g>
</g>
<!-- Node30&#45;&gt;Node32 -->
<g id="edge42" class="edge"><title>Node30&#45;&gt;Node32</title>
<path fill="none" stroke="midnightblue" d="M349.724,-571.234C368.18,-573.177 388.328,-575.298 407.45,-577.311"/>
<polygon fill="midnightblue" stroke="midnightblue" points="407.333,-580.817 417.645,-578.384 408.066,-573.856 407.333,-580.817"/>
</g>
<!-- Node31&#45;&gt;Node24 -->
<g id="edge41" class="edge"><title>Node31&#45;&gt;Node24</title>
<path fill="none" stroke="midnightblue" d="M778.196,-507C786.667,-507 795.273,-507 803.694,-507"/>
<polygon fill="midnightblue" stroke="midnightblue" points="803.853,-510.5 813.853,-507 803.853,-503.5 803.853,-510.5"/>
</g>
<!-- Node32&#45;&gt;Node11 -->
<g id="edge43" class="edge"><title>Node32&#45;&gt;Node11</title>
<path fill="none" stroke="midnightblue" d="M564.151,-571.417C572.259,-567.449 579.812,-562.407 586,-556 627.055,-513.493 591.97,-478.897 622,-428 634.468,-406.869 654.26,-387.515 670.655,-373.626"/>
<polygon fill="midnightblue" stroke="midnightblue" points="672.889,-376.321 678.384,-367.263 668.44,-370.917 672.889,-376.321"/>
</g>
<!-- Node33 -->
<g id="node33" class="node"><title>Node33</title>
<g id="a_node33"><a xlink:href="../../d6/d34/classmodel_1_1_turtle.html#ad38145f0d661fccdc638b4e3b814620d" target="_top" xlink:title="model.Turtle.setPenCustom">
<polygon fill="white" stroke="black" points="625.5,-576.5 625.5,-595.5 774.5,-595.5 774.5,-576.5 625.5,-576.5"/>
<text text-anchor="middle" x="700" y="-583.5" font-family="Helvetica,sans-Serif" font-size="10.00">model.Turtle.setPenCustom</text>
</a>
</g>
</g>
<!-- Node32&#45;&gt;Node33 -->
<g id="edge44" class="edge"><title>Node32&#45;&gt;Node33</title>
<path fill="none" stroke="midnightblue" d="M564.108,-586C580.534,-586 598.126,-586 615,-586"/>
<polygon fill="midnightblue" stroke="midnightblue" points="615.397,-589.5 625.397,-586 615.397,-582.5 615.397,-589.5"/>
</g>
<!-- Node34 -->
<g id="node34" class="node"><title>Node34</title>
<g id="a_node34"><a xlink:href="../../de/ded/classmodel_1_1_pen.html#a81b3b2c7a645a33687ca88624c0944d3" target="_top" xlink:title="model.Pen.setCustom">
<polygon fill="white" stroke="black" points="816.5,-576.5 816.5,-595.5 939.5,-595.5 939.5,-576.5 816.5,-576.5"/>
<text text-anchor="middle" x="878" y="-583.5" font-family="Helvetica,sans-Serif" font-size="10.00">model.Pen.setCustom</text>
</a>
</g>
</g>
<!-- Node33&#45;&gt;Node34 -->
<g id="edge45" class="edge"><title>Node33&#45;&gt;Node34</title>
<path fill="none" stroke="midnightblue" d="M774.62,-586C785.076,-586 795.81,-586 806.21,-586"/>
<polygon fill="midnightblue" stroke="midnightblue" points="806.477,-589.5 816.477,-586 806.477,-582.5 806.477,-589.5"/>
</g>
<!-- Node36 -->
<g id="node36" class="node"><title>Node36</title>
<g id="a_node36"><a xlink:href="../../d3/d88/classmodel_1_1_slogo_model.html#a57ae2fb85245476c02d5e7208bf64be3" target="_top" xlink:title="model.SlogoModel.setPenSize">
<polygon fill="white" stroke="black" points="410.5,-190.5 410.5,-209.5 571.5,-209.5 571.5,-190.5 410.5,-190.5"/>
<text text-anchor="middle" x="491" y="-197.5" font-family="Helvetica,sans-Serif" font-size="10.00">model.SlogoModel.setPenSize</text>
</a>
</g>
</g>
<!-- Node35&#45;&gt;Node36 -->
<g id="edge48" class="edge"><title>Node35&#45;&gt;Node36</title>
<path fill="none" stroke="midnightblue" d="M349.724,-205.369C365.784,-204.755 383.126,-204.091 399.957,-203.447"/>
<polygon fill="midnightblue" stroke="midnightblue" points="400.497,-206.929 410.355,-203.049 400.229,-199.934 400.497,-206.929"/>
</g>
<!-- Node36&#45;&gt;Node11 -->
<g id="edge50" class="edge"><title>Node36&#45;&gt;Node11</title>
<path fill="none" stroke="midnightblue" d="M564.669,-209.524C572.143,-212.002 579.404,-215.109 586,-219 598.08,-226.126 651.798,-292.518 680.604,-328.718"/>
<polygon fill="midnightblue" stroke="midnightblue" points="678.058,-331.141 687.017,-336.797 683.54,-326.788 678.058,-331.141"/>
</g>
<!-- Node36&#45;&gt;Node25 -->
<g id="edge49" class="edge"><title>Node36&#45;&gt;Node25</title>
<path fill="none" stroke="midnightblue" d="M571.736,-200C592.297,-200 614.18,-200 633.898,-200"/>
<polygon fill="midnightblue" stroke="midnightblue" points="633.993,-203.5 643.993,-200 633.993,-196.5 633.993,-203.5"/>
</g>
<!-- Node37 -->
<g id="node37" class="node"><title>Node37</title>
<g id="a_node37"><a xlink:href="../../de/ded/classmodel_1_1_pen.html#aea4cc5396f9133c8695ee1c5ef5c95d5" target="_top" xlink:title="model.Pen.setStrokeWidth">
<polygon fill="white" stroke="black" points="628.5,-228.5 628.5,-247.5 771.5,-247.5 771.5,-228.5 628.5,-228.5"/>
<text text-anchor="middle" x="700" y="-235.5" font-family="Helvetica,sans-Serif" font-size="10.00">model.Pen.setStrokeWidth</text>
</a>
</g>
</g>
<!-- Node36&#45;&gt;Node37 -->
<g id="edge51" class="edge"><title>Node36&#45;&gt;Node37</title>
<path fill="none" stroke="midnightblue" d="M543.968,-209.54C572.266,-214.735 607.464,-221.196 637.167,-226.649"/>
<polygon fill="midnightblue" stroke="midnightblue" points="636.543,-230.093 647.011,-228.456 637.807,-223.208 636.543,-230.093"/>
</g>
<!-- Node38&#45;&gt;Node4 -->
<g id="edge53" class="edge"><title>Node38&#45;&gt;Node4</title>
<path fill="none" stroke="midnightblue" d="M293.078,-291.35C309.085,-311.947 337.879,-349.891 360,-384 377.547,-411.057 373.494,-423.903 396,-447 413.856,-465.326 438.789,-480.089 458.49,-489.996"/>
<polygon fill="midnightblue" stroke="midnightblue" points="457.163,-493.243 467.687,-494.464 460.222,-486.946 457.163,-493.243"/>
</g>
<!-- Node38&#45;&gt;Node11 -->
<g id="edge54" class="edge"><title>Node38&#45;&gt;Node11</title>
<path fill="none" stroke="midnightblue" d="M353.333,-289.151C426.682,-302.488 540.023,-323.095 616.747,-337.045"/>
<polygon fill="midnightblue" stroke="midnightblue" points="616.388,-340.537 626.853,-338.882 617.641,-333.65 616.388,-340.537"/>
</g>
<!-- Node39 -->
<g id="node39" class="node"><title>Node39</title>
<g id="a_node39"><a xlink:href="../../d6/d34/classmodel_1_1_turtle.html#a9b238ef75e28c6c81ea8ad6ee41a7ff1" target="_top" xlink:title="model.Turtle.setShape">
<polygon fill="white" stroke="black" points="429,-266.5 429,-285.5 553,-285.5 553,-266.5 429,-266.5"/>
<text text-anchor="middle" x="491" y="-273.5" font-family="Helvetica,sans-Serif" font-size="10.00">model.Turtle.setShape</text>
</a>
</g>
</g>
<!-- Node38&#45;&gt;Node39 -->
<g id="edge55" class="edge"><title>Node38&#45;&gt;Node39</title>
<path fill="none" stroke="midnightblue" d="M353.219,-276C374.411,-276 397.567,-276 418.701,-276"/>
<polygon fill="midnightblue" stroke="midnightblue" points="418.896,-279.5 428.896,-276 418.896,-272.5 418.896,-279.5"/>
</g>
<!-- Node40 -->
<g id="node40" class="node"><title>Node40</title>
<g id="a_node40"><a xlink:href="../../d6/d34/classmodel_1_1_turtle.html#a7262b3f5790af08bcc64462f8674b4e4" target="_top" xlink:title="model.Turtle.initListofTurtles">
<polygon fill="white" stroke="black" points="416.5,-228.5 416.5,-247.5 565.5,-247.5 565.5,-228.5 416.5,-228.5"/>
<text text-anchor="middle" x="491" y="-235.5" font-family="Helvetica,sans-Serif" font-size="10.00">model.Turtle.initListofTurtles</text>
</a>
</g>
</g>
<!-- Node38&#45;&gt;Node40 -->
<g id="edge56" class="edge"><title>Node38&#45;&gt;Node40</title>
<path fill="none" stroke="midnightblue" d="M353.219,-262.869C377.372,-258.478 404.076,-253.622 427.431,-249.376"/>
<polygon fill="midnightblue" stroke="midnightblue" points="428.348,-252.767 437.56,-247.534 427.095,-245.88 428.348,-252.767"/>
</g>
</g>
</svg>
