<?xml version="1.0" encoding="UTF-8" standalone="no"?>
<!DOCTYPE svg PUBLIC "-//W3C//DTD SVG 1.1//EN"
 "http://www.w3.org/Graphics/SVG/1.1/DTD/svg11.dtd">
<!-- Generated by graphviz version 2.36.0 (20140111.2315)
 -->
<!-- Title: view.SettingsView.makeButton Pages: 1 -->
<svg width="564pt" height="28pt"
 viewBox="0.00 0.00 564.00 28.00" xmlns="http://www.w3.org/2000/svg" xmlns:xlink="http://www.w3.org/1999/xlink">
<g id="graph0" class="graph" transform="scale(1 1) rotate(0) translate(4 24)">
<title>view.SettingsView.makeButton</title>
<polygon fill="white" stroke="none" points="-4,4 -4,-24 560,-24 560,4 -4,4"/>
<!-- Node1 -->
<g id="node1" class="node"><title>Node1</title>
<polygon fill="#bfbfbf" stroke="black" points="0,-0.5 0,-19.5 162,-19.5 162,-0.5 0,-0.5"/>
<text text-anchor="middle" x="81" y="-7.5" font-family="Helvetica,sans-Serif" font-size="10.00">view.SettingsView.makeButton</text>
</g>
<!-- Node2 -->
<g id="node2" class="node"><title>Node2</title>
<g id="a_node2"><a xlink:href="../../dd/dc5/classview_1_1_settings_view.html#a4ad3e69e9ba90e013df06b1f7b5ef6d0" target="_top" xlink:title="view.SettingsView.addButtons">
<polygon fill="white" stroke="black" points="198,-0.5 198,-19.5 356,-19.5 356,-0.5 198,-0.5"/>
<text text-anchor="middle" x="277" y="-7.5" font-family="Helvetica,sans-Serif" font-size="10.00">view.SettingsView.addButtons</text>
</a>
</g>
</g>
<!-- Node1&#45;&gt;Node2 -->
<g id="edge1" class="edge"><title>Node1&#45;&gt;Node2</title>
<path fill="none" stroke="midnightblue" d="M172.045,-10C180.62,-10 189.268,-10 197.72,-10"/>
<polygon fill="midnightblue" stroke="midnightblue" points="172.027,-6.5001 162.027,-10 172.027,-13.5001 172.027,-6.5001"/>
</g>
<!-- Node3 -->
<g id="node3" class="node"><title>Node3</title>
<g id="a_node3"><a xlink:href="../../dd/dc5/classview_1_1_settings_view.html#a34b8df753ce7a3b7d917a01ff315edc8" target="_top" xlink:title="view.SettingsView.SettingsView">
<polygon fill="white" stroke="black" points="392,-0.5 392,-19.5 556,-19.5 556,-0.5 392,-0.5"/>
<text text-anchor="middle" x="474" y="-7.5" font-family="Helvetica,sans-Serif" font-size="10.00">view.SettingsView.SettingsView</text>
</a>
</g>
</g>
<!-- Node2&#45;&gt;Node3 -->
<g id="edge2" class="edge"><title>Node2&#45;&gt;Node3</title>
<path fill="none" stroke="midnightblue" d="M366.191,-10C374.761,-10 383.428,-10 391.924,-10"/>
<polygon fill="midnightblue" stroke="midnightblue" points="366.19,-6.5001 356.19,-10 366.19,-13.5001 366.19,-6.5001"/>
</g>
</g>
</svg>
