<?xml version="1.0" encoding="UTF-8" standalone="no"?>
<!DOCTYPE svg PUBLIC "-//W3C//DTD SVG 1.1//EN"
 "http://www.w3.org/Graphics/SVG/1.1/DTD/svg11.dtd">
<!-- Generated by graphviz version 2.36.0 (20140111.2315)
 -->
<!-- Title: view.SettingsView.addLineProperty Pages: 1 -->
<svg width="516pt" height="191pt"
 viewBox="0.00 0.00 516.00 191.00" xmlns="http://www.w3.org/2000/svg" xmlns:xlink="http://www.w3.org/1999/xlink">
<g id="graph0" class="graph" transform="scale(1 1) rotate(0) translate(4 187)">
<title>view.SettingsView.addLineProperty</title>
<polygon fill="white" stroke="none" points="-4,4 -4,-187 512,-187 512,4 -4,4"/>
<!-- Node1 -->
<g id="node1" class="node"><title>Node1</title>
<polygon fill="#bfbfbf" stroke="black" points="0,-82 0,-112 140,-112 140,-82 0,-82"/>
<text text-anchor="start" x="8" y="-100" font-family="Helvetica,sans-Serif" font-size="10.00">view.SettingsView.addLine</text>
<text text-anchor="middle" x="70" y="-89" font-family="Helvetica,sans-Serif" font-size="10.00">Property</text>
</g>
<!-- Node2 -->
<g id="node2" class="node"><title>Node2</title>
<g id="a_node2"><a xlink:href="../../de/ded/classmodel_1_1_pen.html#a29799b12d4e0880c5479a4c059f5b8d2" target="_top" xlink:title="model.Pen.changeLineProperty">
<polygon fill="white" stroke="black" points="176,-163.5 176,-182.5 342,-182.5 342,-163.5 176,-163.5"/>
<text text-anchor="middle" x="259" y="-170.5" font-family="Helvetica,sans-Serif" font-size="10.00">model.Pen.changeLineProperty</text>
</a>
</g>
</g>
<!-- Node1&#45;&gt;Node2 -->
<g id="edge1" class="edge"><title>Node1&#45;&gt;Node2</title>
<path fill="none" stroke="midnightblue" d="M98.0393,-112.032C118.902,-123.224 148.714,-138.345 176,-149 187.007,-153.298 199.105,-157.246 210.548,-160.644"/>
<polygon fill="midnightblue" stroke="midnightblue" points="209.813,-164.075 220.391,-163.484 211.754,-157.349 209.813,-164.075"/>
</g>
<!-- Node3 -->
<g id="node3" class="node"><title>Node3</title>
<g id="a_node3"><a xlink:href="../../de/ded/classmodel_1_1_pen.html#ad799d84679d9e8332c9cd2b428ea7384" target="_top" xlink:title="model.Pen.setPenDown">
<polygon fill="white" stroke="black" points="378,-144.5 378,-163.5 508,-163.5 508,-144.5 378,-144.5"/>
<text text-anchor="middle" x="443" y="-151.5" font-family="Helvetica,sans-Serif" font-size="10.00">model.Pen.setPenDown</text>
</a>
</g>
</g>
<!-- Node1&#45;&gt;Node3 -->
<g id="edge6" class="edge"><title>Node1&#45;&gt;Node3</title>
<path fill="none" stroke="midnightblue" d="M140.126,-109.885C152.076,-112.004 164.388,-114.121 176,-116 240.677,-126.468 314.45,-136.887 367.872,-144.161"/>
<polygon fill="midnightblue" stroke="midnightblue" points="367.56,-147.651 377.939,-145.527 368.501,-140.714 367.56,-147.651"/>
</g>
<!-- Node4 -->
<g id="node4" class="node"><title>Node4</title>
<g id="a_node4"><a xlink:href="../../d3/d88/classmodel_1_1_slogo_model.html#a356fe9ced691a6dba1992d41db95d5f7" target="_top" xlink:title="model.SlogoModel.getMyData">
<polygon fill="white" stroke="black" points="178.5,-87.5 178.5,-106.5 339.5,-106.5 339.5,-87.5 178.5,-87.5"/>
<text text-anchor="middle" x="259" y="-94.5" font-family="Helvetica,sans-Serif" font-size="10.00">model.SlogoModel.getMyData</text>
</a>
</g>
</g>
<!-- Node1&#45;&gt;Node4 -->
<g id="edge3" class="edge"><title>Node1&#45;&gt;Node4</title>
<path fill="none" stroke="midnightblue" d="M140.101,-97C149.269,-97 158.775,-97 168.229,-97"/>
<polygon fill="midnightblue" stroke="midnightblue" points="168.449,-100.5 178.449,-97 168.449,-93.5001 168.449,-100.5"/>
</g>
<!-- Node5 -->
<g id="node5" class="node"><title>Node5</title>
<g id="a_node5"><a xlink:href="../../d6/d34/classmodel_1_1_turtle.html#a3feaf892f3049394737e61453a1c320d" target="_top" xlink:title="model.Turtle.getPen">
<polygon fill="white" stroke="black" points="203,-49.5 203,-68.5 315,-68.5 315,-49.5 203,-49.5"/>
<text text-anchor="middle" x="259" y="-56.5" font-family="Helvetica,sans-Serif" font-size="10.00">model.Turtle.getPen</text>
</a>
</g>
</g>
<!-- Node1&#45;&gt;Node5 -->
<g id="edge4" class="edge"><title>Node1&#45;&gt;Node5</title>
<path fill="none" stroke="midnightblue" d="M140.101,-82.9582C160.212,-78.8713 181.943,-74.4553 201.204,-70.5413"/>
<polygon fill="midnightblue" stroke="midnightblue" points="201.927,-73.9661 211.03,-68.5447 200.533,-67.1063 201.927,-73.9661"/>
</g>
<!-- Node6 -->
<g id="node6" class="node"><title>Node6</title>
<g id="a_node6"><a xlink:href="../../d8/d36/classmodel_1_1_observable_data.html#aa585e00721a74cba9ab459079945e15b" target="_top" xlink:title="model.ObservableData.get\lTurtle">
<polygon fill="white" stroke="black" points="186,-0 186,-30 332,-30 332,-0 186,-0"/>
<text text-anchor="start" x="194" y="-18" font-family="Helvetica,sans-Serif" font-size="10.00">model.ObservableData.get</text>
<text text-anchor="middle" x="259" y="-7" font-family="Helvetica,sans-Serif" font-size="10.00">Turtle</text>
</a>
</g>
</g>
<!-- Node1&#45;&gt;Node6 -->
<g id="edge5" class="edge"><title>Node1&#45;&gt;Node6</title>
<path fill="none" stroke="midnightblue" d="M95.3377,-81.9574C116.186,-69.523 147.302,-52.0194 176,-40 181.676,-37.6229 187.657,-35.3616 193.696,-33.2406"/>
<polygon fill="midnightblue" stroke="midnightblue" points="194.849,-36.5457 203.201,-30.0267 192.606,-29.9146 194.849,-36.5457"/>
</g>
<!-- Node2&#45;&gt;Node3 -->
<g id="edge2" class="edge"><title>Node2&#45;&gt;Node3</title>
<path fill="none" stroke="midnightblue" d="M342.214,-164.417C350.72,-163.529 359.328,-162.631 367.74,-161.752"/>
<polygon fill="midnightblue" stroke="midnightblue" points="368.299,-165.213 377.881,-160.694 367.572,-158.251 368.299,-165.213"/>
</g>
</g>
</svg>
