<?xml version="1.0" encoding="UTF-8" standalone="no"?>
<!DOCTYPE svg PUBLIC "-//W3C//DTD SVG 1.1//EN"
 "http://www.w3.org/Graphics/SVG/1.1/DTD/svg11.dtd">
<!-- Generated by graphviz version 2.36.0 (20140111.2315)
 -->
<!-- Title: view.SettingsView.addBGColorPicker Pages: 1 -->
<svg width="548pt" height="203pt"
 viewBox="0.00 0.00 548.00 203.00" xmlns="http://www.w3.org/2000/svg" xmlns:xlink="http://www.w3.org/1999/xlink">
<g id="graph0" class="graph" transform="scale(1 1) rotate(0) translate(4 199)">
<title>view.SettingsView.addBGColorPicker</title>
<polygon fill="white" stroke="none" points="-4,4 -4,-199 544,-199 544,4 -4,4"/>
<!-- Node1 -->
<g id="node1" class="node"><title>Node1</title>
<polygon fill="#bfbfbf" stroke="black" points="0,-88 0,-118 160,-118 160,-88 0,-88"/>
<text text-anchor="start" x="8" y="-106" font-family="Helvetica,sans-Serif" font-size="10.00">view.SettingsView.addBGColor</text>
<text text-anchor="middle" x="80" y="-95" font-family="Helvetica,sans-Serif" font-size="10.00">Picker</text>
</g>
<!-- Node2 -->
<g id="node2" class="node"><title>Node2</title>
<g id="a_node2"><a xlink:href="../../d8/df7/classview_1_1_turtle_view.html#a1c3a12923246ff8b10715ee6568e11a1" target="_top" xlink:title="view.TurtleView.changeColor">
<polygon fill="white" stroke="black" points="202.5,-175.5 202.5,-194.5 351.5,-194.5 351.5,-175.5 202.5,-175.5"/>
<text text-anchor="middle" x="277" y="-182.5" font-family="Helvetica,sans-Serif" font-size="10.00">view.TurtleView.changeColor</text>
</a>
</g>
</g>
<!-- Node1&#45;&gt;Node2 -->
<g id="edge1" class="edge"><title>Node1&#45;&gt;Node2</title>
<path fill="none" stroke="midnightblue" d="M107.796,-118.209C130.716,-130.803 164.843,-148.581 196,-161 206.731,-165.277 218.53,-169.216 229.693,-172.614"/>
<polygon fill="midnightblue" stroke="midnightblue" points="228.715,-175.974 239.297,-175.455 230.701,-169.262 228.715,-175.974"/>
</g>
<!-- Node3 -->
<g id="node3" class="node"><title>Node3</title>
<g id="a_node3"><a xlink:href="../../d8/d36/classmodel_1_1_observable_data.html#aa526df8e1adab74d19f2d89071560dcb" target="_top" xlink:title="model.ObservableData.get">
<polygon fill="white" stroke="black" points="394,-71.5 394,-90.5 540,-90.5 540,-71.5 394,-71.5"/>
<text text-anchor="middle" x="467" y="-78.5" font-family="Helvetica,sans-Serif" font-size="10.00">model.ObservableData.get</text>
</a>
</g>
</g>
<!-- Node1&#45;&gt;Node3 -->
<g id="edge2" class="edge"><title>Node1&#45;&gt;Node3</title>
<path fill="none" stroke="midnightblue" d="M141.005,-118.018C197.498,-129.852 284.219,-142.058 358,-127 387.611,-120.957 419.155,-106.48 440.457,-95.3678"/>
<polygon fill="midnightblue" stroke="midnightblue" points="442.314,-98.3442 449.48,-90.5413 439.012,-92.1718 442.314,-98.3442"/>
</g>
<!-- Node4 -->
<g id="node4" class="node"><title>Node4</title>
<g id="a_node4"><a xlink:href="../../dd/dc5/classview_1_1_settings_view.html#a2006562a7c50b7df6ddaa49b173fbe5f" target="_top" xlink:title="view.SettingsView.getCustom\lColors">
<polygon fill="white" stroke="black" points="199,-88 199,-118 355,-118 355,-88 199,-88"/>
<text text-anchor="start" x="207" y="-106" font-family="Helvetica,sans-Serif" font-size="10.00">view.SettingsView.getCustom</text>
<text text-anchor="middle" x="277" y="-95" font-family="Helvetica,sans-Serif" font-size="10.00">Colors</text>
</a>
</g>
</g>
<!-- Node1&#45;&gt;Node4 -->
<g id="edge3" class="edge"><title>Node1&#45;&gt;Node4</title>
<path fill="none" stroke="midnightblue" d="M160.033,-103C169.414,-103 179.032,-103 188.522,-103"/>
<polygon fill="midnightblue" stroke="midnightblue" points="188.752,-106.5 198.752,-103 188.752,-99.5001 188.752,-106.5"/>
</g>
<!-- Node5 -->
<g id="node5" class="node"><title>Node5</title>
<g id="a_node5"><a xlink:href="../../d3/d88/classmodel_1_1_slogo_model.html#a356fe9ced691a6dba1992d41db95d5f7" target="_top" xlink:title="model.SlogoModel.getMyData">
<polygon fill="white" stroke="black" points="196.5,-49.5 196.5,-68.5 357.5,-68.5 357.5,-49.5 196.5,-49.5"/>
<text text-anchor="middle" x="277" y="-56.5" font-family="Helvetica,sans-Serif" font-size="10.00">model.SlogoModel.getMyData</text>
</a>
</g>
</g>
<!-- Node1&#45;&gt;Node5 -->
<g id="edge4" class="edge"><title>Node1&#45;&gt;Node5</title>
<path fill="none" stroke="midnightblue" d="M147.563,-87.9808C172.567,-82.3388 200.599,-76.0136 224.08,-70.7153"/>
<polygon fill="midnightblue" stroke="midnightblue" points="224.858,-74.1277 233.843,-68.5124 223.318,-67.2994 224.858,-74.1277"/>
</g>
<!-- Node6 -->
<g id="node6" class="node"><title>Node6</title>
<g id="a_node6"><a xlink:href="../../d3/d88/classmodel_1_1_slogo_model.html#a80d95a95345028893cb013833fd32165" target="_top" xlink:title="model.SlogoModel.initialize\lBGColor">
<polygon fill="white" stroke="black" points="204,-0 204,-30 350,-30 350,-0 204,-0"/>
<text text-anchor="start" x="212" y="-18" font-family="Helvetica,sans-Serif" font-size="10.00">model.SlogoModel.initialize</text>
<text text-anchor="middle" x="277" y="-7" font-family="Helvetica,sans-Serif" font-size="10.00">BGColor</text>
</a>
</g>
</g>
<!-- Node1&#45;&gt;Node6 -->
<g id="edge5" class="edge"><title>Node1&#45;&gt;Node6</title>
<path fill="none" stroke="midnightblue" d="M105.413,-87.7662C128.219,-73.9897 163.528,-53.8068 196,-40 201.405,-37.7021 207.093,-35.5073 212.843,-33.4403"/>
<polygon fill="midnightblue" stroke="midnightblue" points="214.229,-36.6641 222.535,-30.0867 211.941,-30.0489 214.229,-36.6641"/>
</g>
<!-- Node6&#45;&gt;Node3 -->
<g id="edge6" class="edge"><title>Node6&#45;&gt;Node3</title>
<path fill="none" stroke="midnightblue" d="M327.655,-30.009C337.734,-33.1981 348.236,-36.6243 358,-40 383.2,-48.7119 411.353,-59.4327 432.595,-67.7263"/>
<polygon fill="midnightblue" stroke="midnightblue" points="431.542,-71.0725 442.129,-71.4664 434.098,-64.556 431.542,-71.0725"/>
</g>
</g>
</svg>
