<?xml version="1.0" encoding="UTF-8" standalone="no"?>
<!DOCTYPE svg PUBLIC "-//W3C//DTD SVG 1.1//EN"
 "http://www.w3.org/Graphics/SVG/1.1/DTD/svg11.dtd">
<!-- Generated by graphviz version 2.36.0 (20140111.2315)
 -->
<!-- Title: view.SettingsView.addTurtleChoices Pages: 1 -->
<svg width="352pt" height="154pt"
 viewBox="0.00 0.00 352.00 154.00" xmlns="http://www.w3.org/2000/svg" xmlns:xlink="http://www.w3.org/1999/xlink">
<g id="graph0" class="graph" transform="scale(1 1) rotate(0) translate(4 150)">
<title>view.SettingsView.addTurtleChoices</title>
<polygon fill="white" stroke="none" points="-4,4 -4,-150 348,-150 348,4 -4,4"/>
<!-- Node1 -->
<g id="node1" class="node"><title>Node1</title>
<polygon fill="#bfbfbf" stroke="black" points="0,-55 0,-85 146,-85 146,-55 0,-55"/>
<text text-anchor="start" x="8" y="-73" font-family="Helvetica,sans-Serif" font-size="10.00">view.SettingsView.addTurtle</text>
<text text-anchor="middle" x="73" y="-62" font-family="Helvetica,sans-Serif" font-size="10.00">Choices</text>
</g>
<!-- Node2 -->
<g id="node2" class="node"><title>Node2</title>
<g id="a_node2"><a xlink:href="../../d3/d88/classmodel_1_1_slogo_model.html#a356fe9ced691a6dba1992d41db95d5f7" target="_top" xlink:title="model.SlogoModel.getMyData">
<polygon fill="white" stroke="black" points="182.5,-126.5 182.5,-145.5 343.5,-145.5 343.5,-126.5 182.5,-126.5"/>
<text text-anchor="middle" x="263" y="-133.5" font-family="Helvetica,sans-Serif" font-size="10.00">model.SlogoModel.getMyData</text>
</a>
</g>
</g>
<!-- Node1&#45;&gt;Node2 -->
<g id="edge1" class="edge"><title>Node1&#45;&gt;Node2</title>
<path fill="none" stroke="midnightblue" d="M105.623,-85.0332C126.886,-94.7497 155.724,-107.181 182,-116 190.481,-118.846 199.587,-121.495 208.509,-123.872"/>
<polygon fill="midnightblue" stroke="midnightblue" points="207.903,-127.33 218.461,-126.437 209.651,-120.552 207.903,-127.33"/>
</g>
<!-- Node3 -->
<g id="node3" class="node"><title>Node3</title>
<g id="a_node3"><a xlink:href="../../d8/d36/classmodel_1_1_observable_data.html#aa585e00721a74cba9ab459079945e15b" target="_top" xlink:title="model.ObservableData.get\lTurtle">
<polygon fill="white" stroke="black" points="190,-77 190,-107 336,-107 336,-77 190,-77"/>
<text text-anchor="start" x="198" y="-95" font-family="Helvetica,sans-Serif" font-size="10.00">model.ObservableData.get</text>
<text text-anchor="middle" x="263" y="-84" font-family="Helvetica,sans-Serif" font-size="10.00">Turtle</text>
</a>
</g>
</g>
<!-- Node1&#45;&gt;Node3 -->
<g id="edge2" class="edge"><title>Node1&#45;&gt;Node3</title>
<path fill="none" stroke="midnightblue" d="M146.148,-78.4429C157.089,-79.7231 168.447,-81.0523 179.586,-82.3558"/>
<polygon fill="midnightblue" stroke="midnightblue" points="179.395,-85.8573 189.734,-83.5434 180.209,-78.9047 179.395,-85.8573"/>
</g>
<!-- Node4 -->
<g id="node4" class="node"><title>Node4</title>
<g id="a_node4"><a xlink:href="../../d6/d34/classmodel_1_1_turtle.html#a7262b3f5790af08bcc64462f8674b4e4" target="_top" xlink:title="model.Turtle.initListofTurtles">
<polygon fill="white" stroke="black" points="188.5,-38.5 188.5,-57.5 337.5,-57.5 337.5,-38.5 188.5,-38.5"/>
<text text-anchor="middle" x="263" y="-45.5" font-family="Helvetica,sans-Serif" font-size="10.00">model.Turtle.initListofTurtles</text>
</a>
</g>
</g>
<!-- Node1&#45;&gt;Node4 -->
<g id="edge3" class="edge"><title>Node1&#45;&gt;Node4</title>
<path fill="none" stroke="midnightblue" d="M146.148,-61.5571C156.663,-60.3267 167.564,-59.051 178.285,-57.7964"/>
<polygon fill="midnightblue" stroke="midnightblue" points="178.964,-61.2409 188.49,-56.6023 178.151,-54.2884 178.964,-61.2409"/>
</g>
<!-- Node5 -->
<g id="node5" class="node"><title>Node5</title>
<g id="a_node5"><a xlink:href="../../d6/d34/classmodel_1_1_turtle.html#a9b238ef75e28c6c81ea8ad6ee41a7ff1" target="_top" xlink:title="model.Turtle.setShape">
<polygon fill="white" stroke="black" points="201,-0.5 201,-19.5 325,-19.5 325,-0.5 201,-0.5"/>
<text text-anchor="middle" x="263" y="-7.5" font-family="Helvetica,sans-Serif" font-size="10.00">model.Turtle.setShape</text>
</a>
</g>
</g>
<!-- Node1&#45;&gt;Node5 -->
<g id="edge4" class="edge"><title>Node1&#45;&gt;Node5</title>
<path fill="none" stroke="midnightblue" d="M110.085,-54.9566C130.882,-46.6274 157.652,-36.4785 182,-29 190.141,-26.4996 198.832,-24.1328 207.374,-21.973"/>
<polygon fill="midnightblue" stroke="midnightblue" points="208.416,-25.3213 217.293,-19.5372 206.746,-18.5233 208.416,-25.3213"/>
</g>
</g>
</svg>
