<?xml version="1.0" encoding="UTF-8" standalone="no"?>
<!DOCTYPE svg PUBLIC "-//W3C//DTD SVG 1.1//EN"
 "http://www.w3.org/Graphics/SVG/1.1/DTD/svg11.dtd">
<!-- Generated by graphviz version 2.36.0 (20140111.2315)
 -->
<!-- Title: view.SettingsView.addPenColorPicker Pages: 1 -->
<svg width="692pt" height="203pt"
 viewBox="0.00 0.00 692.00 203.00" xmlns="http://www.w3.org/2000/svg" xmlns:xlink="http://www.w3.org/1999/xlink">
<g id="graph0" class="graph" transform="scale(1 1) rotate(0) translate(4 199)">
<title>view.SettingsView.addPenColorPicker</title>
<polygon fill="white" stroke="none" points="-4,4 -4,-199 688,-199 688,4 -4,4"/>
<!-- Node1 -->
<g id="node1" class="node"><title>Node1</title>
<polygon fill="#bfbfbf" stroke="black" points="0.5,-82 0.5,-112 139.5,-112 139.5,-82 0.5,-82"/>
<text text-anchor="start" x="8.5" y="-100" font-family="Helvetica,sans-Serif" font-size="10.00">view.SettingsView.addPen</text>
<text text-anchor="middle" x="70" y="-89" font-family="Helvetica,sans-Serif" font-size="10.00">ColorPicker</text>
</g>
<!-- Node2 -->
<g id="node2" class="node"><title>Node2</title>
<g id="a_node2"><a xlink:href="../../d6/d34/classmodel_1_1_turtle.html#aa3553e012611632ba498177bfb768339" target="_top" xlink:title="model.Turtle.changePenColor">
<polygon fill="white" stroke="black" points="179,-175.5 179,-194.5 335,-194.5 335,-175.5 179,-175.5"/>
<text text-anchor="middle" x="257" y="-182.5" font-family="Helvetica,sans-Serif" font-size="10.00">model.Turtle.changePenColor</text>
</a>
</g>
</g>
<!-- Node1&#45;&gt;Node2 -->
<g id="edge1" class="edge"><title>Node1&#45;&gt;Node2</title>
<path fill="none" stroke="midnightblue" d="M90.0216,-112.101C110.255,-127.474 143.73,-150.981 176,-165 182.68,-167.902 189.865,-170.441 197.09,-172.646"/>
<polygon fill="midnightblue" stroke="midnightblue" points="196.346,-176.073 206.923,-175.448 198.265,-169.341 196.346,-176.073"/>
</g>
<!-- Node4 -->
<g id="node4" class="node"><title>Node4</title>
<g id="a_node4"><a xlink:href="../../dd/dc5/classview_1_1_settings_view.html#a2006562a7c50b7df6ddaa49b173fbe5f" target="_top" xlink:title="view.SettingsView.getCustom\lColors">
<polygon fill="white" stroke="black" points="179,-126 179,-156 335,-156 335,-126 179,-126"/>
<text text-anchor="start" x="187" y="-144" font-family="Helvetica,sans-Serif" font-size="10.00">view.SettingsView.getCustom</text>
<text text-anchor="middle" x="257" y="-133" font-family="Helvetica,sans-Serif" font-size="10.00">Colors</text>
</a>
</g>
</g>
<!-- Node1&#45;&gt;Node4 -->
<g id="edge3" class="edge"><title>Node1&#45;&gt;Node4</title>
<path fill="none" stroke="midnightblue" d="M134.149,-112.019C149.839,-115.751 166.785,-119.781 182.908,-123.616"/>
<polygon fill="midnightblue" stroke="midnightblue" points="182.283,-127.065 192.822,-125.974 183.903,-120.255 182.283,-127.065"/>
</g>
<!-- Node5 -->
<g id="node5" class="node"><title>Node5</title>
<g id="a_node5"><a xlink:href="../../d3/d88/classmodel_1_1_slogo_model.html#a356fe9ced691a6dba1992d41db95d5f7" target="_top" xlink:title="model.SlogoModel.getMyData">
<polygon fill="white" stroke="black" points="176.5,-87.5 176.5,-106.5 337.5,-106.5 337.5,-87.5 176.5,-87.5"/>
<text text-anchor="middle" x="257" y="-94.5" font-family="Helvetica,sans-Serif" font-size="10.00">model.SlogoModel.getMyData</text>
</a>
</g>
</g>
<!-- Node1&#45;&gt;Node5 -->
<g id="edge4" class="edge"><title>Node1&#45;&gt;Node5</title>
<path fill="none" stroke="midnightblue" d="M139.624,-97C148.291,-97 157.258,-97 166.191,-97"/>
<polygon fill="midnightblue" stroke="midnightblue" points="166.245,-100.5 176.245,-97 166.245,-93.5001 166.245,-100.5"/>
</g>
<!-- Node6 -->
<g id="node6" class="node"><title>Node6</title>
<g id="a_node6"><a xlink:href="../../d8/d36/classmodel_1_1_observable_data.html#aa585e00721a74cba9ab459079945e15b" target="_top" xlink:title="model.ObservableData.get\lTurtle">
<polygon fill="white" stroke="black" points="376,-44 376,-74 522,-74 522,-44 376,-44"/>
<text text-anchor="start" x="384" y="-62" font-family="Helvetica,sans-Serif" font-size="10.00">model.ObservableData.get</text>
<text text-anchor="middle" x="449" y="-51" font-family="Helvetica,sans-Serif" font-size="10.00">Turtle</text>
</a>
</g>
</g>
<!-- Node1&#45;&gt;Node6 -->
<g id="edge5" class="edge"><title>Node1&#45;&gt;Node6</title>
<path fill="none" stroke="midnightblue" d="M139.741,-83.4508C151.791,-81.3938 164.235,-79.4708 176,-78 239.433,-70.0694 311.634,-65.2186 365.7,-62.4052"/>
<polygon fill="midnightblue" stroke="midnightblue" points="366.111,-65.889 375.92,-61.8864 365.756,-58.898 366.111,-65.889"/>
</g>
<!-- Node7 -->
<g id="node7" class="node"><title>Node7</title>
<g id="a_node7"><a xlink:href="../../d3/d88/classmodel_1_1_slogo_model.html#af0ff8ea4a04df315002c19967df477ee" target="_top" xlink:title="model.SlogoModel.initialize\lPenColor">
<polygon fill="white" stroke="black" points="184,-0 184,-30 330,-30 330,-0 184,-0"/>
<text text-anchor="start" x="192" y="-18" font-family="Helvetica,sans-Serif" font-size="10.00">model.SlogoModel.initialize</text>
<text text-anchor="middle" x="257" y="-7" font-family="Helvetica,sans-Serif" font-size="10.00">PenColor</text>
</a>
</g>
</g>
<!-- Node1&#45;&gt;Node7 -->
<g id="edge6" class="edge"><title>Node1&#45;&gt;Node7</title>
<path fill="none" stroke="midnightblue" d="M99.5996,-81.8577C120.506,-71.0301 149.687,-56.4147 176,-45 184.888,-41.1445 194.448,-37.3036 203.758,-33.7207"/>
<polygon fill="midnightblue" stroke="midnightblue" points="205.223,-36.9088 213.332,-30.0907 202.741,-30.3635 205.223,-36.9088"/>
</g>
<!-- Node3 -->
<g id="node3" class="node"><title>Node3</title>
<g id="a_node3"><a xlink:href="../../de/ded/classmodel_1_1_pen.html#a66364a974714d2b44c00ee26a57e5654" target="_top" xlink:title="model.Pen.setPenColor">
<polygon fill="white" stroke="black" points="385,-175.5 385,-194.5 513,-194.5 513,-175.5 385,-175.5"/>
<text text-anchor="middle" x="449" y="-182.5" font-family="Helvetica,sans-Serif" font-size="10.00">model.Pen.setPenColor</text>
</a>
</g>
</g>
<!-- Node2&#45;&gt;Node3 -->
<g id="edge2" class="edge"><title>Node2&#45;&gt;Node3</title>
<path fill="none" stroke="midnightblue" d="M335.006,-185C348.074,-185 361.614,-185 374.586,-185"/>
<polygon fill="midnightblue" stroke="midnightblue" points="374.849,-188.5 384.849,-185 374.849,-181.5 374.849,-188.5"/>
</g>
<!-- Node7&#45;&gt;Node6 -->
<g id="edge7" class="edge"><title>Node7&#45;&gt;Node6</title>
<path fill="none" stroke="midnightblue" d="M322.856,-30.0192C338.97,-33.7508 356.374,-37.7814 372.933,-41.616"/>
<polygon fill="midnightblue" stroke="midnightblue" points="372.582,-45.1274 383.114,-43.9738 374.162,-38.3079 372.582,-45.1274"/>
</g>
<!-- Node8 -->
<g id="node8" class="node"><title>Node8</title>
<g id="a_node8"><a xlink:href="../../d6/d34/classmodel_1_1_turtle.html#ad38145f0d661fccdc638b4e3b814620d" target="_top" xlink:title="model.Turtle.setPenCustom">
<polygon fill="white" stroke="black" points="374.5,-5.5 374.5,-24.5 523.5,-24.5 523.5,-5.5 374.5,-5.5"/>
<text text-anchor="middle" x="449" y="-12.5" font-family="Helvetica,sans-Serif" font-size="10.00">model.Turtle.setPenCustom</text>
</a>
</g>
</g>
<!-- Node7&#45;&gt;Node8 -->
<g id="edge8" class="edge"><title>Node7&#45;&gt;Node8</title>
<path fill="none" stroke="midnightblue" d="M330.102,-15C341.194,-15 352.728,-15 364.05,-15"/>
<polygon fill="midnightblue" stroke="midnightblue" points="364.37,-18.5001 374.37,-15 364.37,-11.5001 364.37,-18.5001"/>
</g>
<!-- Node9 -->
<g id="node9" class="node"><title>Node9</title>
<g id="a_node9"><a xlink:href="../../de/ded/classmodel_1_1_pen.html#a81b3b2c7a645a33687ca88624c0944d3" target="_top" xlink:title="model.Pen.setCustom">
<polygon fill="white" stroke="black" points="560.5,-5.5 560.5,-24.5 683.5,-24.5 683.5,-5.5 560.5,-5.5"/>
<text text-anchor="middle" x="622" y="-12.5" font-family="Helvetica,sans-Serif" font-size="10.00">model.Pen.setCustom</text>
</a>
</g>
</g>
<!-- Node8&#45;&gt;Node9 -->
<g id="edge9" class="edge"><title>Node8&#45;&gt;Node9</title>
<path fill="none" stroke="midnightblue" d="M523.512,-15C532.36,-15 541.383,-15 550.192,-15"/>
<polygon fill="midnightblue" stroke="midnightblue" points="550.411,-18.5001 560.411,-15 550.411,-11.5001 550.411,-18.5001"/>
</g>
</g>
</svg>
