<?xml version="1.0" encoding="UTF-8" standalone="no"?>
<!DOCTYPE svg PUBLIC "-//W3C//DTD SVG 1.1//EN"
 "http://www.w3.org/Graphics/SVG/1.1/DTD/svg11.dtd">
<!-- Generated by graphviz version 2.36.0 (20140111.2315)
 -->
<!-- Title: view.SettingsView.addLineProperty Pages: 1 -->
<!--zoomable 191 -->
<svg id="main" version="1.1" xmlns="http://www.w3.org/2000/svg" xmlns:xlink="http://www.w3.org/1999/xlink" xml:space="preserve" onload="init(evt)">
<style type="text/css"><![CDATA[
.edge:hover path { stroke: red; }
.edge:hover polygon { stroke: red; fill: red; }
]]></style>
<script type="text/javascript"><![CDATA[
var edges = document.getElementsByTagName('g');
if (edges && edges.length) {
  for (var i=0;i<edges.length;i++) {
    if (edges[i].id.substr(0,4)=='edge') {
      edges[i].setAttribute('class','edge');
    }
  }
}
]]></script>
        <defs>
                <circle id="rim" cx="0" cy="0" r="7"/>
                <circle id="rim2" cx="0" cy="0" r="3.5"/>
                <g id="zoomPlus">
                        <use xlink:href="#rim" fill="#404040">
                                <set attributeName="fill" to="#808080" begin="zoomplus.mouseover" end="zoomplus.mouseout"/>
                        </use>
                        <path d="M-4,0h8M0,-4v8" fill="none" stroke="white" stroke-width="1.5" pointer-events="none"/>
                </g>
                <g id="zoomMin">
                        <use xlink:href="#rim" fill="#404040">
                                <set attributeName="fill" to="#808080" begin="zoomminus.mouseover" end="zoomminus.mouseout"/>
                        </use>
                        <path d="M-4,0h8" fill="none" stroke="white" stroke-width="1.5" pointer-events="none"/>
                </g>
                <g id="dirArrow">
                        <path fill="none" stroke="white" stroke-width="1.5" d="M0,-3.0v7 M-2.5,-0.5L0,-3.0L2.5,-0.5"/>
                </g>
               <g id="resetDef">
                       <use xlink:href="#rim2" fill="#404040">
                               <set attributeName="fill" to="#808080" begin="reset.mouseover" end="reset.mouseout"/>
                       </use>
               </g>
        </defs>

<script type="text/javascript">
var viewWidth = 516;
var viewHeight = 191;
var sectionId = 'dynsection-7';
</script>
<script xlink:href="../../svgpan.js"/>
<svg id="graph" class="graph">
<g id="viewport">
<title>view.SettingsView.addLineProperty</title>
<polygon fill="white" stroke="none" points="-4,4 -4,-187 512,-187 512,4 -4,4"/>
<!-- Node1 -->
<g id="node1" class="node"><title>Node1</title>
<polygon fill="#bfbfbf" stroke="black" points="0,-82 0,-112 140,-112 140,-82 0,-82"/>
<text text-anchor="start" x="8" y="-100" font-family="Helvetica,sans-Serif" font-size="10.00">view.SettingsView.addLine</text>
<text text-anchor="middle" x="70" y="-89" font-family="Helvetica,sans-Serif" font-size="10.00">Property</text>
</g>
<!-- Node2 -->
<g id="node2" class="node"><title>Node2</title>
<g id="a_node2"><a xlink:href="../../de/ded/classmodel_1_1_pen.html#a29799b12d4e0880c5479a4c059f5b8d2" target="_top" xlink:title="model.Pen.changeLineProperty">
<polygon fill="white" stroke="black" points="176,-163.5 176,-182.5 342,-182.5 342,-163.5 176,-163.5"/>
<text text-anchor="middle" x="259" y="-170.5" font-family="Helvetica,sans-Serif" font-size="10.00">model.Pen.changeLineProperty</text>
</a>
</g>
</g>
<!-- Node1&#45;&gt;Node2 -->
<g id="edge1" class="edge"><title>Node1&#45;&gt;Node2</title>
<path fill="none" stroke="midnightblue" d="M98.0393,-112.032C118.902,-123.224 148.714,-138.345 176,-149 187.007,-153.298 199.105,-157.246 210.548,-160.644"/>
<polygon fill="midnightblue" stroke="midnightblue" points="209.813,-164.075 220.391,-163.484 211.754,-157.349 209.813,-164.075"/>
</g>
<!-- Node3 -->
<g id="node3" class="node"><title>Node3</title>
<g id="a_node3"><a xlink:href="../../de/ded/classmodel_1_1_pen.html#ad799d84679d9e8332c9cd2b428ea7384" target="_top" xlink:title="model.Pen.setPenDown">
<polygon fill="white" stroke="black" points="378,-144.5 378,-163.5 508,-163.5 508,-144.5 378,-144.5"/>
<text text-anchor="middle" x="443" y="-151.5" font-family="Helvetica,sans-Serif" font-size="10.00">model.Pen.setPenDown</text>
</a>
</g>
</g>
<!-- Node1&#45;&gt;Node3 -->
<g id="edge6" class="edge"><title>Node1&#45;&gt;Node3</title>
<path fill="none" stroke="midnightblue" d="M140.126,-109.885C152.076,-112.004 164.388,-114.121 176,-116 240.677,-126.468 314.45,-136.887 367.872,-144.161"/>
<polygon fill="midnightblue" stroke="midnightblue" points="367.56,-147.651 377.939,-145.527 368.501,-140.714 367.56,-147.651"/>
</g>
<!-- Node4 -->
<g id="node4" class="node"><title>Node4</title>
<g id="a_node4"><a xlink:href="../../d3/d88/classmodel_1_1_slogo_model.html#a356fe9ced691a6dba1992d41db95d5f7" target="_top" xlink:title="model.SlogoModel.getMyData">
<polygon fill="white" stroke="black" points="178.5,-87.5 178.5,-106.5 339.5,-106.5 339.5,-87.5 178.5,-87.5"/>
<text text-anchor="middle" x="259" y="-94.5" font-family="Helvetica,sans-Serif" font-size="10.00">model.SlogoModel.getMyData</text>
</a>
</g>
</g>
<!-- Node1&#45;&gt;Node4 -->
<g id="edge3" class="edge"><title>Node1&#45;&gt;Node4</title>
<path fill="none" stroke="midnightblue" d="M140.101,-97C149.269,-97 158.775,-97 168.229,-97"/>
<polygon fill="midnightblue" stroke="midnightblue" points="168.449,-100.5 178.449,-97 168.449,-93.5001 168.449,-100.5"/>
</g>
<!-- Node5 -->
<g id="node5" class="node"><title>Node5</title>
<g id="a_node5"><a xlink:href="../../d6/d34/classmodel_1_1_turtle.html#a3feaf892f3049394737e61453a1c320d" target="_top" xlink:title="model.Turtle.getPen">
<polygon fill="white" stroke="black" points="203,-49.5 203,-68.5 315,-68.5 315,-49.5 203,-49.5"/>
<text text-anchor="middle" x="259" y="-56.5" font-family="Helvetica,sans-Serif" font-size="10.00">model.Turtle.getPen</text>
</a>
</g>
</g>
<!-- Node1&#45;&gt;Node5 -->
<g id="edge4" class="edge"><title>Node1&#45;&gt;Node5</title>
<path fill="none" stroke="midnightblue" d="M140.101,-82.9582C160.212,-78.8713 181.943,-74.4553 201.204,-70.5413"/>
<polygon fill="midnightblue" stroke="midnightblue" points="201.927,-73.9661 211.03,-68.5447 200.533,-67.1063 201.927,-73.9661"/>
</g>
<!-- Node6 -->
<g id="node6" class="node"><title>Node6</title>
<g id="a_node6"><a xlink:href="../../d8/d36/classmodel_1_1_observable_data.html#aa585e00721a74cba9ab459079945e15b" target="_top" xlink:title="model.ObservableData.get\lTurtle">
<polygon fill="white" stroke="black" points="186,-0 186,-30 332,-30 332,-0 186,-0"/>
<text text-anchor="start" x="194" y="-18" font-family="Helvetica,sans-Serif" font-size="10.00">model.ObservableData.get</text>
<text text-anchor="middle" x="259" y="-7" font-family="Helvetica,sans-Serif" font-size="10.00">Turtle</text>
</a>
</g>
</g>
<!-- Node1&#45;&gt;Node6 -->
<g id="edge5" class="edge"><title>Node1&#45;&gt;Node6</title>
<path fill="none" stroke="midnightblue" d="M95.3377,-81.9574C116.186,-69.523 147.302,-52.0194 176,-40 181.676,-37.6229 187.657,-35.3616 193.696,-33.2406"/>
<polygon fill="midnightblue" stroke="midnightblue" points="194.849,-36.5457 203.201,-30.0267 192.606,-29.9146 194.849,-36.5457"/>
</g>
<!-- Node2&#45;&gt;Node3 -->
<g id="edge2" class="edge"><title>Node2&#45;&gt;Node3</title>
<path fill="none" stroke="midnightblue" d="M342.214,-164.417C350.72,-163.529 359.328,-162.631 367.74,-161.752"/>
<polygon fill="midnightblue" stroke="midnightblue" points="368.299,-165.213 377.881,-160.694 367.572,-158.251 368.299,-165.213"/>
</g>
</g>
</svg>
        <g id="navigator" transform="translate(0 0)" fill="#404254">
                <rect fill="#f2f5e9" fill-opacity="0.5" stroke="#606060" stroke-width=".5" x="0" y="0" width="60" height="60"/>
                <use id="zoomplus" xlink:href="#zoomPlus" x="17" y="9" onmousedown="handleZoom(evt,'in')"/>
                <use id="zoomminus" xlink:href="#zoomMin" x="42" y="9" onmousedown="handleZoom(evt,'out')"/>
                <use id="reset" xlink:href="#resetDef" x="30" y="36" onmousedown="handleReset()"/>
                <g id="arrowUp" xlink:href="#dirArrow" transform="translate(30 24)" onmousedown="handlePan(0,-1)">
                  <use xlink:href="#rim" fill="#404040">
                        <set attributeName="fill" to="#808080" begin="arrowUp.mouseover" end="arrowUp.mouseout"/>
                  </use>
                  <path fill="none" stroke="white" stroke-width="1.5" d="M0,-3.0v7 M-2.5,-0.5L0,-3.0L2.5,-0.5"/>
                </g>
                <g id="arrowRight" xlink:href="#dirArrow" transform="rotate(90) translate(36 -43)" onmousedown="handlePan(1,0)">
                  <use xlink:href="#rim" fill="#404040">
                        <set attributeName="fill" to="#808080" begin="arrowRight.mouseover" end="arrowRight.mouseout"/>
                  </use>
                  <path fill="none" stroke="white" stroke-width="1.5" d="M0,-3.0v7 M-2.5,-0.5L0,-3.0L2.5,-0.5"/>
                </g>
                <g id="arrowDown" xlink:href="#dirArrow" transform="rotate(180) translate(-30 -48)" onmousedown="handlePan(0,1)">
                  <use xlink:href="#rim" fill="#404040">
                        <set attributeName="fill" to="#808080" begin="arrowDown.mouseover" end="arrowDown.mouseout"/>
                  </use>
                  <path fill="none" stroke="white" stroke-width="1.5" d="M0,-3.0v7 M-2.5,-0.5L0,-3.0L2.5,-0.5"/>
                </g>
                <g id="arrowLeft" xlink:href="#dirArrow" transform="rotate(270) translate(-36 17)" onmousedown="handlePan(-1,0)">
                  <use xlink:href="#rim" fill="#404040">
                        <set attributeName="fill" to="#808080" begin="arrowLeft.mouseover" end="arrowLeft.mouseout"/>
                  </use>
                  <path fill="none" stroke="white" stroke-width="1.5" d="M0,-3.0v7 M-2.5,-0.5L0,-3.0L2.5,-0.5"/>
                </g>
        </g>
        <svg viewBox="0 0 15 15" width="100%" height="30px" preserveAspectRatio="xMaxYMin meet">
         <g id="arrow_out" transform="scale(0.3 0.3)">
          <a xlink:href="classview_1_1_settings_view_a8b044653bb3dcbb300082c4103d14249_cgraph_org.svg" target="_base">
           <rect id="button" ry="5" rx="5" y="6" x="6" height="38" width="38"
                fill="#f2f5e9" fill-opacity="0.5" stroke="#606060" stroke-width="1.0"/>
           <path id="arrow"
             d="M 11.500037,31.436501 C 11.940474,20.09759 22.043105,11.32322 32.158766,21.979434 L 37.068811,17.246167 C 37.068811,17.246167 37.088388,32 37.088388,32 L 22.160133,31.978069 C 22.160133,31.978069 26.997745,27.140456 26.997745,27.140456 C 18.528582,18.264221 13.291696,25.230495 11.500037,31.436501 z"
             style="fill:#404040;"/>
          </a>
         </g>
        </svg>
</svg>
