<?xml version="1.0" encoding="UTF-8" standalone="no"?>
<!DOCTYPE svg PUBLIC "-//W3C//DTD SVG 1.1//EN"
 "http://www.w3.org/Graphics/SVG/1.1/DTD/svg11.dtd">
<!-- Generated by graphviz version 2.36.0 (20140111.2315)
 -->
<!-- Title: view.SettingsView.addButtons Pages: 1 -->
<!--zoomable 281 -->
<svg id="main" version="1.1" xmlns="http://www.w3.org/2000/svg" xmlns:xlink="http://www.w3.org/1999/xlink" xml:space="preserve" onload="init(evt)">
<style type="text/css"><![CDATA[
.edge:hover path { stroke: red; }
.edge:hover polygon { stroke: red; fill: red; }
]]></style>
<script type="text/javascript"><![CDATA[
var edges = document.getElementsByTagName('g');
if (edges && edges.length) {
  for (var i=0;i<edges.length;i++) {
    if (edges[i].id.substr(0,4)=='edge') {
      edges[i].setAttribute('class','edge');
    }
  }
}
]]></script>
        <defs>
                <circle id="rim" cx="0" cy="0" r="7"/>
                <circle id="rim2" cx="0" cy="0" r="3.5"/>
                <g id="zoomPlus">
                        <use xlink:href="#rim" fill="#404040">
                                <set attributeName="fill" to="#808080" begin="zoomplus.mouseover" end="zoomplus.mouseout"/>
                        </use>
                        <path d="M-4,0h8M0,-4v8" fill="none" stroke="white" stroke-width="1.5" pointer-events="none"/>
                </g>
                <g id="zoomMin">
                        <use xlink:href="#rim" fill="#404040">
                                <set attributeName="fill" to="#808080" begin="zoomminus.mouseover" end="zoomminus.mouseout"/>
                        </use>
                        <path d="M-4,0h8" fill="none" stroke="white" stroke-width="1.5" pointer-events="none"/>
                </g>
                <g id="dirArrow">
                        <path fill="none" stroke="white" stroke-width="1.5" d="M0,-3.0v7 M-2.5,-0.5L0,-3.0L2.5,-0.5"/>
                </g>
               <g id="resetDef">
                       <use xlink:href="#rim2" fill="#404040">
                               <set attributeName="fill" to="#808080" begin="reset.mouseover" end="reset.mouseout"/>
                       </use>
               </g>
        </defs>

<script type="text/javascript">
var viewWidth = 1264;
var viewHeight = 281;
var sectionId = 'dynsection-5';
</script>
<script xlink:href="../../svgpan.js"/>
<svg id="graph" class="graph">
<g id="viewport">
<title>view.SettingsView.addButtons</title>
<polygon fill="white" stroke="none" points="-4,4 -4,-277 1260,-277 1260,4 -4,4"/>
<!-- Node1 -->
<g id="node1" class="node"><title>Node1</title>
<polygon fill="#bfbfbf" stroke="black" points="0,-76.5 0,-95.5 158,-95.5 158,-76.5 0,-76.5"/>
<text text-anchor="middle" x="79" y="-83.5" font-family="Helvetica,sans-Serif" font-size="10.00">view.SettingsView.addButtons</text>
</g>
<!-- Node2 -->
<g id="node2" class="node"><title>Node2</title>
<g id="a_node2"><a xlink:href="../../d3/d88/classmodel_1_1_slogo_model.html#a6d2121ec86dd818cfb06a4fe610b62a8" target="_top" xlink:title="model.SlogoModel.accessHelpHTML">
<polygon fill="white" stroke="black" points="194.5,-152.5 194.5,-171.5 383.5,-171.5 383.5,-152.5 194.5,-152.5"/>
<text text-anchor="middle" x="289" y="-159.5" font-family="Helvetica,sans-Serif" font-size="10.00">model.SlogoModel.accessHelpHTML</text>
</a>
</g>
</g>
<!-- Node1&#45;&gt;Node2 -->
<g id="edge1" class="edge"><title>Node1&#45;&gt;Node2</title>
<path fill="none" stroke="midnightblue" d="M95.6522,-95.5063C117.102,-108.136 157.176,-130.323 194,-143 201.921,-145.727 210.359,-148.115 218.805,-150.194"/>
<polygon fill="midnightblue" stroke="midnightblue" points="218.16,-153.637 228.693,-152.493 219.745,-146.819 218.16,-153.637"/>
</g>
<!-- Node3 -->
<g id="node3" class="node"><title>Node3</title>
<g id="a_node3"><a xlink:href="../../d3/d88/classmodel_1_1_slogo_model.html#abfeceb3da7ed60166c8137597cacc2fc" target="_top" xlink:title="model.SlogoModel.clear">
<polygon fill="white" stroke="black" points="223.5,-114.5 223.5,-133.5 354.5,-133.5 354.5,-114.5 223.5,-114.5"/>
<text text-anchor="middle" x="289" y="-121.5" font-family="Helvetica,sans-Serif" font-size="10.00">model.SlogoModel.clear</text>
</a>
</g>
</g>
<!-- Node1&#45;&gt;Node3 -->
<g id="edge2" class="edge"><title>Node1&#45;&gt;Node3</title>
<path fill="none" stroke="midnightblue" d="M132.219,-95.54C160.654,-100.735 196.022,-107.196 225.868,-112.649"/>
<polygon fill="midnightblue" stroke="midnightblue" points="225.294,-116.102 235.76,-114.456 226.552,-109.216 225.294,-116.102"/>
</g>
<!-- Node15 -->
<g id="node15" class="node"><title>Node15</title>
<g id="a_node15"><a xlink:href="../../dd/dc5/classview_1_1_settings_view.html#a4bbbc6b58b5c37cd6049dd9651e61b40" target="_top" xlink:title="view.SettingsView.makeButton">
<polygon fill="white" stroke="black" points="208,-38.5 208,-57.5 370,-57.5 370,-38.5 208,-38.5"/>
<text text-anchor="middle" x="289" y="-45.5" font-family="Helvetica,sans-Serif" font-size="10.00">view.SettingsView.makeButton</text>
</a>
</g>
</g>
<!-- Node1&#45;&gt;Node15 -->
<g id="edge15" class="edge"><title>Node1&#45;&gt;Node15</title>
<path fill="none" stroke="midnightblue" d="M132.219,-76.46C160.654,-71.2652 196.022,-64.8037 225.868,-59.3511"/>
<polygon fill="midnightblue" stroke="midnightblue" points="226.552,-62.7842 235.76,-57.5439 225.294,-55.8981 226.552,-62.7842"/>
</g>
<!-- Node16 -->
<g id="node16" class="node"><title>Node16</title>
<g id="a_node16"><a xlink:href="../../d8/df7/classview_1_1_turtle_view.html#a3f0d6f14ae9d464b889b846b10bf9492" target="_top" xlink:title="view.TurtleView.toggleGrid">
<polygon fill="white" stroke="black" points="220,-0.5 220,-19.5 358,-19.5 358,-0.5 220,-0.5"/>
<text text-anchor="middle" x="289" y="-7.5" font-family="Helvetica,sans-Serif" font-size="10.00">view.TurtleView.toggleGrid</text>
</a>
</g>
</g>
<!-- Node1&#45;&gt;Node16 -->
<g id="edge16" class="edge"><title>Node1&#45;&gt;Node16</title>
<path fill="none" stroke="midnightblue" d="M95.6522,-76.4937C117.102,-63.8643 157.176,-41.6767 194,-29 201.921,-26.2733 210.359,-23.8845 218.805,-21.8062"/>
<polygon fill="midnightblue" stroke="midnightblue" points="219.745,-25.1809 228.693,-19.5072 218.16,-18.3627 219.745,-25.1809"/>
</g>
<!-- Node17 -->
<g id="node17" class="node"><title>Node17</title>
<g id="a_node17"><a xlink:href="../../d3/d88/classmodel_1_1_slogo_model.html#a4dd110d0980b463d7b3130e3ad3393e6" target="_top" xlink:title="model.SlogoModel.toggleTurtle">
<polygon fill="white" stroke="black" points="207,-76.5 207,-95.5 371,-95.5 371,-76.5 207,-76.5"/>
<text text-anchor="middle" x="289" y="-83.5" font-family="Helvetica,sans-Serif" font-size="10.00">model.SlogoModel.toggleTurtle</text>
</a>
</g>
</g>
<!-- Node1&#45;&gt;Node17 -->
<g id="edge17" class="edge"><title>Node1&#45;&gt;Node17</title>
<path fill="none" stroke="midnightblue" d="M158.043,-86C170.596,-86 183.687,-86 196.52,-86"/>
<polygon fill="midnightblue" stroke="midnightblue" points="196.742,-89.5001 206.742,-86 196.742,-82.5001 196.742,-89.5001"/>
</g>
<!-- Node4 -->
<g id="node4" class="node"><title>Node4</title>
<g id="a_node4"><a xlink:href="../../d8/d36/classmodel_1_1_observable_data.html#ad2bff2456394e252a20722f2b15e61d5" target="_top" xlink:title="model.ObservableData.clear">
<polygon fill="white" stroke="black" points="420.5,-215.5 420.5,-234.5 573.5,-234.5 573.5,-215.5 420.5,-215.5"/>
<text text-anchor="middle" x="497" y="-222.5" font-family="Helvetica,sans-Serif" font-size="10.00">model.ObservableData.clear</text>
</a>
</g>
</g>
<!-- Node3&#45;&gt;Node4 -->
<g id="edge3" class="edge"><title>Node3&#45;&gt;Node4</title>
<path fill="none" stroke="midnightblue" d="M354.736,-129.502C365.168,-132.454 375.362,-136.761 384,-143 410.142,-161.883 394.294,-186.527 420,-206 422.468,-207.87 425.098,-209.557 427.842,-211.08"/>
<polygon fill="midnightblue" stroke="midnightblue" points="426.399,-214.269 436.933,-215.404 429.406,-207.948 426.399,-214.269"/>
</g>
<!-- Node10 -->
<g id="node10" class="node"><title>Node10</title>
<g id="a_node10"><a xlink:href="../../de/ded/classmodel_1_1_pen.html#a92a7e8dd0f123fdd06a56982944a9128" target="_top" xlink:title="model.Pen.clear">
<polygon fill="white" stroke="black" points="450,-177.5 450,-196.5 544,-196.5 544,-177.5 450,-177.5"/>
<text text-anchor="middle" x="497" y="-184.5" font-family="Helvetica,sans-Serif" font-size="10.00">model.Pen.clear</text>
</a>
</g>
</g>
<!-- Node3&#45;&gt;Node10 -->
<g id="edge10" class="edge"><title>Node3&#45;&gt;Node10</title>
<path fill="none" stroke="midnightblue" d="M354.771,-133.465C364.766,-135.954 374.811,-139.08 384,-143 401.917,-150.643 402.261,-159.951 420,-168 426.241,-170.832 432.97,-173.285 439.752,-175.399"/>
<polygon fill="midnightblue" stroke="midnightblue" points="439.099,-178.853 449.677,-178.258 441.037,-172.127 439.099,-178.853"/>
</g>
<!-- Node12 -->
<g id="node12" class="node"><title>Node12</title>
<g id="a_node12"><a xlink:href="../../d6/d34/classmodel_1_1_turtle.html#a3feaf892f3049394737e61453a1c320d" target="_top" xlink:title="model.Turtle.getPen">
<polygon fill="white" stroke="black" points="441,-139.5 441,-158.5 553,-158.5 553,-139.5 441,-139.5"/>
<text text-anchor="middle" x="497" y="-146.5" font-family="Helvetica,sans-Serif" font-size="10.00">model.Turtle.getPen</text>
</a>
</g>
</g>
<!-- Node3&#45;&gt;Node12 -->
<g id="edge12" class="edge"><title>Node3&#45;&gt;Node12</title>
<path fill="none" stroke="midnightblue" d="M354.614,-131.842C378.877,-134.786 406.456,-138.133 430.773,-141.084"/>
<polygon fill="midnightblue" stroke="midnightblue" points="430.628,-144.592 440.977,-142.322 431.471,-137.643 430.628,-144.592"/>
</g>
<!-- Node13 -->
<g id="node13" class="node"><title>Node13</title>
<g id="a_node13"><a xlink:href="../../d8/d36/classmodel_1_1_observable_data.html#aa585e00721a74cba9ab459079945e15b" target="_top" xlink:title="model.ObservableData.get\lTurtle">
<polygon fill="white" stroke="black" points="424,-90 424,-120 570,-120 570,-90 424,-90"/>
<text text-anchor="start" x="432" y="-108" font-family="Helvetica,sans-Serif" font-size="10.00">model.ObservableData.get</text>
<text text-anchor="middle" x="497" y="-97" font-family="Helvetica,sans-Serif" font-size="10.00">Turtle</text>
</a>
</g>
</g>
<!-- Node3&#45;&gt;Node13 -->
<g id="edge13" class="edge"><title>Node3&#45;&gt;Node13</title>
<path fill="none" stroke="midnightblue" d="M354.614,-118.04C373.304,-116.317 393.96,-114.411 413.579,-112.602"/>
<polygon fill="midnightblue" stroke="midnightblue" points="414.091,-116.07 423.727,-111.666 413.448,-109.099 414.091,-116.07"/>
</g>
<!-- Node14 -->
<g id="node14" class="node"><title>Node14</title>
<g id="a_node14"><a xlink:href="../../d3/d88/classmodel_1_1_slogo_model.html#a5a328c6f896a5c150e95b49db71dea8f" target="_top" xlink:title="model.SlogoModel.load">
<polygon fill="white" stroke="black" points="433,-51.5 433,-70.5 561,-70.5 561,-51.5 433,-51.5"/>
<text text-anchor="middle" x="497" y="-58.5" font-family="Helvetica,sans-Serif" font-size="10.00">model.SlogoModel.load</text>
</a>
</g>
</g>
<!-- Node3&#45;&gt;Node14 -->
<g id="edge14" class="edge"><title>Node3&#45;&gt;Node14</title>
<path fill="none" stroke="midnightblue" d="M354.771,-114.535C364.766,-112.046 374.811,-108.92 384,-105 401.917,-97.3566 402.261,-88.0493 420,-80 425.395,-77.5518 431.155,-75.3866 436.999,-73.4791"/>
<polygon fill="midnightblue" stroke="midnightblue" points="438.299,-76.743 446.864,-70.5075 436.28,-70.0405 438.299,-76.743"/>
</g>
<!-- Node5 -->
<g id="node5" class="node"><title>Node5</title>
<g id="a_node5"><a xlink:href="../../d6/d34/classmodel_1_1_turtle.html#aa12e02cec0c9313dbd61f53df171b1bd" target="_top" xlink:title="model.Turtle.clear">
<polygon fill="white" stroke="black" points="623.5,-215.5 623.5,-234.5 724.5,-234.5 724.5,-215.5 623.5,-215.5"/>
<text text-anchor="middle" x="674" y="-222.5" font-family="Helvetica,sans-Serif" font-size="10.00">model.Turtle.clear</text>
</a>
</g>
</g>
<!-- Node4&#45;&gt;Node5 -->
<g id="edge4" class="edge"><title>Node4&#45;&gt;Node5</title>
<path fill="none" stroke="midnightblue" d="M573.74,-225C587.006,-225 600.639,-225 613.389,-225"/>
<polygon fill="midnightblue" stroke="midnightblue" points="613.402,-228.5 623.402,-225 613.402,-221.5 613.402,-228.5"/>
</g>
<!-- Node6 -->
<g id="node6" class="node"><title>Node6</title>
<g id="a_node6"><a xlink:href="../../d6/d34/classmodel_1_1_turtle.html#a561398015768e49764442dfa298f1bd3" target="_top" xlink:title="model.Turtle.setAngle">
<polygon fill="white" stroke="black" points="790,-253.5 790,-272.5 910,-272.5 910,-253.5 790,-253.5"/>
<text text-anchor="middle" x="850" y="-260.5" font-family="Helvetica,sans-Serif" font-size="10.00">model.Turtle.setAngle</text>
</a>
</g>
</g>
<!-- Node5&#45;&gt;Node6 -->
<g id="edge5" class="edge"><title>Node5&#45;&gt;Node6</title>
<path fill="none" stroke="midnightblue" d="M718.908,-234.589C742.179,-239.671 770.954,-245.955 795.519,-251.32"/>
<polygon fill="midnightblue" stroke="midnightblue" points="794.892,-254.766 805.408,-253.48 796.385,-247.927 794.892,-254.766"/>
</g>
<!-- Node7 -->
<g id="node7" class="node"><title>Node7</title>
<g id="a_node7"><a xlink:href="../../d6/d34/classmodel_1_1_turtle.html#abf987ba62d49c24804d43b464f9b7410" target="_top" xlink:title="model.Turtle.setCoordinates">
<polygon fill="white" stroke="black" points="774.5,-215.5 774.5,-234.5 925.5,-234.5 925.5,-215.5 774.5,-215.5"/>
<text text-anchor="middle" x="850" y="-222.5" font-family="Helvetica,sans-Serif" font-size="10.00">model.Turtle.setCoordinates</text>
</a>
</g>
</g>
<!-- Node5&#45;&gt;Node7 -->
<g id="edge6" class="edge"><title>Node5&#45;&gt;Node7</title>
<path fill="none" stroke="midnightblue" d="M724.861,-225C737.185,-225 750.733,-225 764.21,-225"/>
<polygon fill="midnightblue" stroke="midnightblue" points="764.481,-228.5 774.481,-225 764.481,-221.5 764.481,-228.5"/>
</g>
<!-- Node8 -->
<g id="node8" class="node"><title>Node8</title>
<g id="a_node8"><a xlink:href="../../d6/d34/classmodel_1_1_turtle.html#a138e6be2a3c83aea4ef698bf9e499bcf" target="_top" xlink:title="model.Turtle.setTurtleInfo">
<polygon fill="white" stroke="black" points="962,-196.5 962,-215.5 1098,-215.5 1098,-196.5 962,-196.5"/>
<text text-anchor="middle" x="1030" y="-203.5" font-family="Helvetica,sans-Serif" font-size="10.00">model.Turtle.setTurtleInfo</text>
</a>
</g>
</g>
<!-- Node5&#45;&gt;Node8 -->
<g id="edge9" class="edge"><title>Node5&#45;&gt;Node8</title>
<path fill="none" stroke="midnightblue" d="M715.211,-215.489C733.098,-211.724 754.487,-207.856 774,-206 833.476,-200.344 901.109,-200.651 951.771,-202.207"/>
<polygon fill="midnightblue" stroke="midnightblue" points="951.882,-205.712 961.992,-202.544 952.113,-198.716 951.882,-205.712"/>
</g>
<!-- Node7&#45;&gt;Node8 -->
<g id="edge7" class="edge"><title>Node7&#45;&gt;Node8</title>
<path fill="none" stroke="midnightblue" d="M925.714,-217.025C934.33,-216.105 943.13,-215.166 951.778,-214.243"/>
<polygon fill="midnightblue" stroke="midnightblue" points="952.27,-217.71 961.842,-213.169 951.527,-210.75 952.27,-217.71"/>
</g>
<!-- Node9 -->
<g id="node9" class="node"><title>Node9</title>
<g id="a_node9"><a xlink:href="../../d6/d34/classmodel_1_1_turtle.html#a61d79b71c878b0c64adeab038483da7a" target="_top" xlink:title="model.Turtle.getAngle">
<polygon fill="white" stroke="black" points="1134.5,-196.5 1134.5,-215.5 1255.5,-215.5 1255.5,-196.5 1134.5,-196.5"/>
<text text-anchor="middle" x="1195" y="-203.5" font-family="Helvetica,sans-Serif" font-size="10.00">model.Turtle.getAngle</text>
</a>
</g>
</g>
<!-- Node8&#45;&gt;Node9 -->
<g id="edge8" class="edge"><title>Node8&#45;&gt;Node9</title>
<path fill="none" stroke="midnightblue" d="M1098.24,-206C1106.87,-206 1115.73,-206 1124.4,-206"/>
<polygon fill="midnightblue" stroke="midnightblue" points="1124.47,-209.5 1134.47,-206 1124.47,-202.5 1124.47,-209.5"/>
</g>
<!-- Node11 -->
<g id="node11" class="node"><title>Node11</title>
<g id="a_node11"><a xlink:href="../../de/ded/classmodel_1_1_pen.html#a66364a974714d2b44c00ee26a57e5654" target="_top" xlink:title="model.Pen.setPenColor">
<polygon fill="white" stroke="black" points="610,-177.5 610,-196.5 738,-196.5 738,-177.5 610,-177.5"/>
<text text-anchor="middle" x="674" y="-184.5" font-family="Helvetica,sans-Serif" font-size="10.00">model.Pen.setPenColor</text>
</a>
</g>
</g>
<!-- Node10&#45;&gt;Node11 -->
<g id="edge11" class="edge"><title>Node10&#45;&gt;Node11</title>
<path fill="none" stroke="midnightblue" d="M544.437,-187C561.432,-187 581.1,-187 599.862,-187"/>
<polygon fill="midnightblue" stroke="midnightblue" points="599.869,-190.5 609.869,-187 599.869,-183.5 599.869,-190.5"/>
</g>
<!-- Node17&#45;&gt;Node13 -->
<g id="edge18" class="edge"><title>Node17&#45;&gt;Node13</title>
<path fill="none" stroke="midnightblue" d="M371.121,-93.482C385.164,-94.7773 399.776,-96.125 413.846,-97.4227"/>
<polygon fill="midnightblue" stroke="midnightblue" points="413.701,-100.924 423.98,-98.3574 414.344,-93.9537 413.701,-100.924"/>
</g>
<!-- Node17&#45;&gt;Node14 -->
<g id="edge19" class="edge"><title>Node17&#45;&gt;Node14</title>
<path fill="none" stroke="midnightblue" d="M368.467,-76.4773C386.241,-74.3202 405.05,-72.0376 422.605,-69.9071"/>
<polygon fill="midnightblue" stroke="midnightblue" points="423.274,-73.3518 432.779,-68.6725 422.43,-66.4028 423.274,-73.3518"/>
</g>
<!-- Node18 -->
<g id="node18" class="node"><title>Node18</title>
<g id="a_node18"><a xlink:href="../../d6/d34/classmodel_1_1_turtle.html#a0550d3e5a9d973a1774ae8f6f5d571df" target="_top" xlink:title="model.Turtle.toggleVisible">
<polygon fill="white" stroke="black" points="427.5,-13.5 427.5,-32.5 566.5,-32.5 566.5,-13.5 427.5,-13.5"/>
<text text-anchor="middle" x="497" y="-20.5" font-family="Helvetica,sans-Serif" font-size="10.00">model.Turtle.toggleVisible</text>
</a>
</g>
</g>
<!-- Node17&#45;&gt;Node18 -->
<g id="edge20" class="edge"><title>Node17&#45;&gt;Node18</title>
<path fill="none" stroke="midnightblue" d="M355.271,-76.4099C365.101,-73.9414 374.965,-70.8544 384,-67 401.917,-59.3566 402.261,-50.0493 420,-42 425.395,-39.5518 431.155,-37.3866 436.999,-35.4791"/>
<polygon fill="midnightblue" stroke="midnightblue" points="438.299,-38.743 446.864,-32.5075 436.28,-32.0405 438.299,-38.743"/>
</g>
<!-- Node19 -->
<g id="node19" class="node"><title>Node19</title>
<g id="a_node19"><a xlink:href="../../d6/d34/classmodel_1_1_turtle.html#a772aad8bba7b5bc7bd3e95408478324f" target="_top" xlink:title="model.Turtle.setVisible">
<polygon fill="white" stroke="black" points="612,-13.5 612,-32.5 736,-32.5 736,-13.5 612,-13.5"/>
<text text-anchor="middle" x="674" y="-20.5" font-family="Helvetica,sans-Serif" font-size="10.00">model.Turtle.setVisible</text>
</a>
</g>
</g>
<!-- Node18&#45;&gt;Node19 -->
<g id="edge21" class="edge"><title>Node18&#45;&gt;Node19</title>
<path fill="none" stroke="midnightblue" d="M566.662,-23C578.216,-23 590.23,-23 601.845,-23"/>
<polygon fill="midnightblue" stroke="midnightblue" points="601.928,-26.5001 611.928,-23 601.928,-19.5001 601.928,-26.5001"/>
</g>
</g>
</svg>
        <g id="navigator" transform="translate(0 0)" fill="#404254">
                <rect fill="#f2f5e9" fill-opacity="0.5" stroke="#606060" stroke-width=".5" x="0" y="0" width="60" height="60"/>
                <use id="zoomplus" xlink:href="#zoomPlus" x="17" y="9" onmousedown="handleZoom(evt,'in')"/>
                <use id="zoomminus" xlink:href="#zoomMin" x="42" y="9" onmousedown="handleZoom(evt,'out')"/>
                <use id="reset" xlink:href="#resetDef" x="30" y="36" onmousedown="handleReset()"/>
                <g id="arrowUp" xlink:href="#dirArrow" transform="translate(30 24)" onmousedown="handlePan(0,-1)">
                  <use xlink:href="#rim" fill="#404040">
                        <set attributeName="fill" to="#808080" begin="arrowUp.mouseover" end="arrowUp.mouseout"/>
                  </use>
                  <path fill="none" stroke="white" stroke-width="1.5" d="M0,-3.0v7 M-2.5,-0.5L0,-3.0L2.5,-0.5"/>
                </g>
                <g id="arrowRight" xlink:href="#dirArrow" transform="rotate(90) translate(36 -43)" onmousedown="handlePan(1,0)">
                  <use xlink:href="#rim" fill="#404040">
                        <set attributeName="fill" to="#808080" begin="arrowRight.mouseover" end="arrowRight.mouseout"/>
                  </use>
                  <path fill="none" stroke="white" stroke-width="1.5" d="M0,-3.0v7 M-2.5,-0.5L0,-3.0L2.5,-0.5"/>
                </g>
                <g id="arrowDown" xlink:href="#dirArrow" transform="rotate(180) translate(-30 -48)" onmousedown="handlePan(0,1)">
                  <use xlink:href="#rim" fill="#404040">
                        <set attributeName="fill" to="#808080" begin="arrowDown.mouseover" end="arrowDown.mouseout"/>
                  </use>
                  <path fill="none" stroke="white" stroke-width="1.5" d="M0,-3.0v7 M-2.5,-0.5L0,-3.0L2.5,-0.5"/>
                </g>
                <g id="arrowLeft" xlink:href="#dirArrow" transform="rotate(270) translate(-36 17)" onmousedown="handlePan(-1,0)">
                  <use xlink:href="#rim" fill="#404040">
                        <set attributeName="fill" to="#808080" begin="arrowLeft.mouseover" end="arrowLeft.mouseout"/>
                  </use>
                  <path fill="none" stroke="white" stroke-width="1.5" d="M0,-3.0v7 M-2.5,-0.5L0,-3.0L2.5,-0.5"/>
                </g>
        </g>
        <svg viewBox="0 0 15 15" width="100%" height="30px" preserveAspectRatio="xMaxYMin meet">
         <g id="arrow_out" transform="scale(0.3 0.3)">
          <a xlink:href="classview_1_1_settings_view_a4ad3e69e9ba90e013df06b1f7b5ef6d0_cgraph_org.svg" target="_base">
           <rect id="button" ry="5" rx="5" y="6" x="6" height="38" width="38"
                fill="#f2f5e9" fill-opacity="0.5" stroke="#606060" stroke-width="1.0"/>
           <path id="arrow"
             d="M 11.500037,31.436501 C 11.940474,20.09759 22.043105,11.32322 32.158766,21.979434 L 37.068811,17.246167 C 37.068811,17.246167 37.088388,32 37.088388,32 L 22.160133,31.978069 C 22.160133,31.978069 26.997745,27.140456 26.997745,27.140456 C 18.528582,18.264221 13.291696,25.230495 11.500037,31.436501 z"
             style="fill:#404040;"/>
          </a>
         </g>
        </svg>
</svg>
