<?xml version="1.0" encoding="UTF-8" standalone="no"?>
<!DOCTYPE svg PUBLIC "-//W3C//DTD SVG 1.1//EN"
 "http://www.w3.org/Graphics/SVG/1.1/DTD/svg11.dtd">
<!-- Generated by graphviz version 2.36.0 (20140111.2315)
 -->
<!-- Title: model.ObservableData Pages: 1 -->
<!--zoomable 433 -->
<svg id="main" version="1.1" xmlns="http://www.w3.org/2000/svg" xmlns:xlink="http://www.w3.org/1999/xlink" xml:space="preserve" onload="init(evt)">
<style type="text/css"><![CDATA[
.edge:hover path { stroke: red; }
.edge:hover polygon { stroke: red; fill: red; }
]]></style>
<script type="text/javascript"><![CDATA[
var edges = document.getElementsByTagName('g');
if (edges && edges.length) {
  for (var i=0;i<edges.length;i++) {
    if (edges[i].id.substr(0,4)=='edge') {
      edges[i].setAttribute('class','edge');
    }
  }
}
]]></script>
        <defs>
                <circle id="rim" cx="0" cy="0" r="7"/>
                <circle id="rim2" cx="0" cy="0" r="3.5"/>
                <g id="zoomPlus">
                        <use xlink:href="#rim" fill="#404040">
                                <set attributeName="fill" to="#808080" begin="zoomplus.mouseover" end="zoomplus.mouseout"/>
                        </use>
                        <path d="M-4,0h8M0,-4v8" fill="none" stroke="white" stroke-width="1.5" pointer-events="none"/>
                </g>
                <g id="zoomMin">
                        <use xlink:href="#rim" fill="#404040">
                                <set attributeName="fill" to="#808080" begin="zoomminus.mouseover" end="zoomminus.mouseout"/>
                        </use>
                        <path d="M-4,0h8" fill="none" stroke="white" stroke-width="1.5" pointer-events="none"/>
                </g>
                <g id="dirArrow">
                        <path fill="none" stroke="white" stroke-width="1.5" d="M0,-3.0v7 M-2.5,-0.5L0,-3.0L2.5,-0.5"/>
                </g>
               <g id="resetDef">
                       <use xlink:href="#rim2" fill="#404040">
                               <set attributeName="fill" to="#808080" begin="reset.mouseover" end="reset.mouseout"/>
                       </use>
               </g>
        </defs>

<script type="text/javascript">
var viewWidth = 832;
var viewHeight = 433;
var sectionId = 'dynsection-0';
</script>
<script xlink:href="../../svgpan.js"/>
<svg id="graph" class="graph">
<g id="viewport">
<title>model.ObservableData</title>
<polygon fill="white" stroke="none" points="-4,4 -4,-429 828,-429 828,4 -4,4"/>
<!-- Node1 -->
<g id="node1" class="node"><title>Node1</title>
<polygon fill="#bfbfbf" stroke="black" points="696.5,-56.5 696.5,-75.5 823.5,-75.5 823.5,-56.5 696.5,-56.5"/>
<text text-anchor="middle" x="760" y="-63.5" font-family="Helvetica,sans-Serif" font-size="10.00">model.ObservableData</text>
</g>
<!-- Node2 -->
<g id="node2" class="node"><title>Node2</title>
<g id="a_node2"><a xlink:href="../../df/db7/classmodel_1_1_turtles_list.html" target="_top" xlink:title="model.TurtlesList">
<polygon fill="white" stroke="black" points="469.5,-76.5 469.5,-95.5 566.5,-95.5 566.5,-76.5 469.5,-76.5"/>
<text text-anchor="middle" x="518" y="-83.5" font-family="Helvetica,sans-Serif" font-size="10.00">model.TurtlesList</text>
</a>
</g>
</g>
<!-- Node2&#45;&gt;Node1 -->
<g id="edge1" class="edge"><title>Node2&#45;&gt;Node1</title>
<path fill="none" stroke="#9a32cd" stroke-dasharray="5,2" d="M577.064,-81.1614C613.128,-78.156 659.475,-74.2938 696.364,-71.2197"/>
<polygon fill="#9a32cd" stroke="#9a32cd" points="576.378,-77.7063 566.703,-82.0247 576.959,-84.6821 576.378,-77.7063"/>
<text text-anchor="middle" x="648" y="-81" font-family="Helvetica,sans-Serif" font-size="10.00"> myTurtles</text>
</g>
<!-- Node3 -->
<g id="node3" class="node"><title>Node3</title>
<g id="a_node3"><a xlink:href="../../d1/d69/interfacemodel_1_1_feature.html" target="_top" xlink:title="model.Feature">
<polygon fill="white" stroke="black" points="207,-119.5 207,-138.5 293,-138.5 293,-119.5 207,-119.5"/>
<text text-anchor="middle" x="250" y="-126.5" font-family="Helvetica,sans-Serif" font-size="10.00">model.Feature</text>
</a>
</g>
</g>
<!-- Node3&#45;&gt;Node2 -->
<g id="edge2" class="edge"><title>Node3&#45;&gt;Node2</title>
<path fill="none" stroke="midnightblue" d="M303.073,-120.582C351.291,-112.787 422.405,-101.292 469.206,-93.7261"/>
<polygon fill="midnightblue" stroke="midnightblue" points="302.462,-117.135 293.148,-122.187 303.579,-124.046 302.462,-117.135"/>
</g>
<!-- Node8 -->
<g id="node8" class="node"><title>Node8</title>
<g id="a_node8"><a xlink:href="../../d6/d34/classmodel_1_1_turtle.html" target="_top" xlink:title="model.Turtle">
<polygon fill="white" stroke="black" points="480.5,-250.5 480.5,-269.5 555.5,-269.5 555.5,-250.5 480.5,-250.5"/>
<text text-anchor="middle" x="518" y="-257.5" font-family="Helvetica,sans-Serif" font-size="10.00">model.Turtle</text>
</a>
</g>
</g>
<!-- Node3&#45;&gt;Node8 -->
<g id="edge9" class="edge"><title>Node3&#45;&gt;Node8</title>
<path fill="none" stroke="midnightblue" d="M303.415,-135.503C337.564,-141.311 382.249,-151.962 418,-171 457.371,-191.966 493.647,-231.905 509.117,-250.292"/>
<polygon fill="midnightblue" stroke="midnightblue" points="303.607,-131.988 293.177,-133.851 302.492,-138.899 303.607,-131.988"/>
</g>
<!-- Node4 -->
<g id="node4" class="node"><title>Node4</title>
<polygon fill="white" stroke="#bfbfbf" points="4.5,-119.5 4.5,-138.5 75.5,-138.5 75.5,-119.5 4.5,-119.5"/>
<text text-anchor="middle" x="40" y="-126.5" font-family="Helvetica,sans-Serif" font-size="10.00">Serializable</text>
</g>
<!-- Node4&#45;&gt;Node3 -->
<g id="edge3" class="edge"><title>Node4&#45;&gt;Node3</title>
<path fill="none" stroke="midnightblue" d="M86.0046,-129C121.891,-129 171.78,-129 206.885,-129"/>
<polygon fill="midnightblue" stroke="midnightblue" points="85.8146,-125.5 75.8145,-129 85.8145,-132.5 85.8146,-125.5"/>
</g>
<!-- Node5 -->
<g id="node5" class="node"><title>Node5</title>
<polygon fill="white" stroke="#bfbfbf" points="193,-78.5 193,-97.5 307,-97.5 307,-78.5 193,-78.5"/>
<text text-anchor="middle" x="250" y="-85.5" font-family="Helvetica,sans-Serif" font-size="10.00">List&lt; model.Turtle &gt;</text>
</g>
<!-- Node5&#45;&gt;Node2 -->
<g id="edge4" class="edge"><title>Node5&#45;&gt;Node2</title>
<path fill="none" stroke="#9a32cd" stroke-dasharray="5,2" d="M317.338,-87.1969C324.314,-87.1246 331.302,-87.0572 338,-87 382.438,-86.6205 433.084,-86.3529 469.135,-86.1907"/>
<polygon fill="#9a32cd" stroke="#9a32cd" points="317.122,-83.6989 307.16,-87.3058 317.197,-90.6985 317.122,-83.6989"/>
<text text-anchor="middle" x="378" y="-90" font-family="Helvetica,sans-Serif" font-size="10.00"> allTurtles</text>
</g>
<!-- Node6 -->
<g id="node6" class="node"><title>Node6</title>
<polygon fill="white" stroke="#bfbfbf" points="180.5,-40.5 180.5,-59.5 319.5,-59.5 319.5,-40.5 180.5,-40.5"/>
<text text-anchor="middle" x="250" y="-47.5" font-family="Helvetica,sans-Serif" font-size="10.00">Stack&lt; List&lt; Integer &gt; &gt;</text>
</g>
<!-- Node6&#45;&gt;Node2 -->
<g id="edge5" class="edge"><title>Node6&#45;&gt;Node2</title>
<path fill="none" stroke="#9a32cd" stroke-dasharray="5,2" d="M329.768,-60.2203C357.647,-63.879 389.227,-68.0704 418,-72 434.769,-74.2902 453.125,-76.8666 469.427,-79.1791"/>
<polygon fill="#9a32cd" stroke="#9a32cd" points="330.047,-56.7269 319.677,-58.8979 329.137,-63.6676 330.047,-56.7269"/>
<text text-anchor="middle" x="378" y="-75" font-family="Helvetica,sans-Serif" font-size="10.00"> turtleScope</text>
</g>
<!-- Node7 -->
<g id="node7" class="node"><title>Node7</title>
<polygon fill="white" stroke="#bfbfbf" points="205.5,-2.5 205.5,-21.5 294.5,-21.5 294.5,-2.5 205.5,-2.5"/>
<text text-anchor="middle" x="250" y="-9.5" font-family="Helvetica,sans-Serif" font-size="10.00">List&lt; Integer &gt;</text>
</g>
<!-- Node7&#45;&gt;Node2 -->
<g id="edge6" class="edge"><title>Node7&#45;&gt;Node2</title>
<path fill="none" stroke="#9a32cd" stroke-dasharray="5,2" d="M305.098,-14.768C339.372,-18.5203 383.565,-27.1793 418,-47 428.364,-52.9658 425.707,-60.9112 436,-67 446.07,-72.9569 457.876,-77.0463 469.313,-79.8537"/>
<polygon fill="#9a32cd" stroke="#9a32cd" points="305.096,-11.251 294.801,-13.754 304.41,-18.2173 305.096,-11.251"/>
<text text-anchor="middle" x="378" y="-50" font-family="Helvetica,sans-Serif" font-size="10.00"> activeIDs</text>
</g>
<!-- Node8&#45;&gt;Node1 -->
<g id="edge7" class="edge"><title>Node8&#45;&gt;Node1</title>
<path fill="none" stroke="#9a32cd" stroke-dasharray="5,2" d="M538.71,-244.068C586.676,-205.296 708.377,-106.92 747.027,-75.6786"/>
<polygon fill="#9a32cd" stroke="#9a32cd" points="536.478,-241.371 530.902,-250.38 540.879,-246.815 536.478,-241.371"/>
<text text-anchor="middle" x="648" y="-177" font-family="Helvetica,sans-Serif" font-size="10.00"> myTurtle</text>
</g>
<!-- Node9 -->
<g id="node9" class="node"><title>Node9</title>
<g id="a_node9"><a xlink:href="../../d5/dad/classmodel_1_1_turtle_abstract.html" target="_top" xlink:title="model.TurtleAbstract">
<polygon fill="white" stroke="black" points="192,-405.5 192,-424.5 308,-424.5 308,-405.5 192,-405.5"/>
<text text-anchor="middle" x="250" y="-412.5" font-family="Helvetica,sans-Serif" font-size="10.00">model.TurtleAbstract</text>
</a>
</g>
</g>
<!-- Node9&#45;&gt;Node8 -->
<g id="edge8" class="edge"><title>Node9&#45;&gt;Node8</title>
<path fill="none" stroke="midnightblue" d="M318.405,-411.712C350.447,-407.636 388.169,-399.002 418,-381 465.175,-352.532 499.784,-293.128 512.093,-269.751"/>
<polygon fill="midnightblue" stroke="midnightblue" points="317.754,-408.264 308.219,-412.882 318.553,-415.218 317.754,-408.264"/>
</g>
<!-- Node10 -->
<g id="node10" class="node"><title>Node10</title>
<polygon fill="white" stroke="#bfbfbf" points="226.5,-367.5 226.5,-386.5 273.5,-386.5 273.5,-367.5 226.5,-367.5"/>
<text text-anchor="middle" x="250" y="-374.5" font-family="Helvetica,sans-Serif" font-size="10.00">Tooltip</text>
</g>
<!-- Node10&#45;&gt;Node8 -->
<g id="edge10" class="edge"><title>Node10&#45;&gt;Node8</title>
<path fill="none" stroke="#9a32cd" stroke-dasharray="5,2" d="M283.782,-374.516C318.568,-370.856 374.415,-362.002 418,-341 456.011,-322.684 492.133,-286.938 508.232,-269.723"/>
<polygon fill="#9a32cd" stroke="#9a32cd" points="283.316,-371.045 273.7,-375.493 283.991,-378.012 283.316,-371.045"/>
<text text-anchor="middle" x="378" y="-369" font-family="Helvetica,sans-Serif" font-size="10.00"> myTurtleInfo</text>
</g>
<!-- Node11 -->
<g id="node11" class="node"><title>Node11</title>
<polygon fill="white" stroke="#bfbfbf" points="216,-329.5 216,-348.5 284,-348.5 284,-329.5 216,-329.5"/>
<text text-anchor="middle" x="250" y="-336.5" font-family="Helvetica,sans-Serif" font-size="10.00">ImageView</text>
</g>
<!-- Node11&#45;&gt;Node8 -->
<g id="edge11" class="edge"><title>Node11&#45;&gt;Node8</title>
<path fill="none" stroke="#9a32cd" stroke-dasharray="5,2" d="M294.414,-334.184C328.595,-329.623 377.125,-321.432 418,-308 448.486,-297.982 481.595,-280.441 500.755,-269.565"/>
<polygon fill="#9a32cd" stroke="#9a32cd" points="293.763,-330.739 284.291,-335.485 294.655,-337.682 293.763,-330.739"/>
<text text-anchor="middle" x="378" y="-329" font-family="Helvetica,sans-Serif" font-size="10.00"> myImage</text>
</g>
<!-- Node12 -->
<g id="node12" class="node"><title>Node12</title>
<g id="a_node12"><a xlink:href="../../de/ded/classmodel_1_1_pen.html" target="_top" xlink:title="model.Pen">
<polygon fill="white" stroke="black" points="216,-291.5 216,-310.5 284,-310.5 284,-291.5 216,-291.5"/>
<text text-anchor="middle" x="250" y="-298.5" font-family="Helvetica,sans-Serif" font-size="10.00">model.Pen</text>
</a>
</g>
</g>
<!-- Node12&#45;&gt;Node8 -->
<g id="edge12" class="edge"><title>Node12&#45;&gt;Node8</title>
<path fill="none" stroke="#9a32cd" stroke-dasharray="5,2" d="M294.133,-297.793C327.971,-294.93 376.18,-290.085 418,-283 438.877,-279.463 461.935,-274.188 480.541,-269.582"/>
<polygon fill="#9a32cd" stroke="#9a32cd" points="293.795,-294.309 284.116,-298.618 294.37,-301.285 293.795,-294.309"/>
<text text-anchor="middle" x="378" y="-296" font-family="Helvetica,sans-Serif" font-size="10.00"> myPen</text>
</g>
<!-- Node13 -->
<g id="node13" class="node"><title>Node13</title>
<polygon fill="white" stroke="#bfbfbf" points="0,-310.5 0,-329.5 80,-329.5 80,-310.5 0,-310.5"/>
<text text-anchor="middle" x="40" y="-317.5" font-family="Helvetica,sans-Serif" font-size="10.00">List&lt; Color &gt;</text>
</g>
<!-- Node13&#45;&gt;Node12 -->
<g id="edge13" class="edge"><title>Node13&#45;&gt;Node12</title>
<path fill="none" stroke="#9a32cd" stroke-dasharray="5,2" d="M90.1563,-315.51C128.944,-311.967 181.989,-307.121 215.878,-304.026"/>
<polygon fill="#9a32cd" stroke="#9a32cd" points="89.7633,-312.031 80.1232,-316.426 90.4002,-319.002 89.7633,-312.031"/>
<text text-anchor="middle" x="130" y="-317" font-family="Helvetica,sans-Serif" font-size="10.00"> myCustom</text>
</g>
<!-- Node14 -->
<g id="node14" class="node"><title>Node14</title>
<polygon fill="white" stroke="#bfbfbf" points="19.5,-272.5 19.5,-291.5 60.5,-291.5 60.5,-272.5 19.5,-272.5"/>
<text text-anchor="middle" x="40" y="-279.5" font-family="Helvetica,sans-Serif" font-size="10.00">Color</text>
</g>
<!-- Node14&#45;&gt;Node12 -->
<g id="edge14" class="edge"><title>Node14&#45;&gt;Node12</title>
<path fill="none" stroke="#9a32cd" stroke-dasharray="5,2" d="M70.5888,-284.703C108.944,-288.206 175.648,-294.3 215.725,-297.96"/>
<polygon fill="#9a32cd" stroke="#9a32cd" points="70.8451,-281.212 60.5681,-283.787 70.2083,-288.183 70.8451,-281.212"/>
<text text-anchor="middle" x="130" y="-295" font-family="Helvetica,sans-Serif" font-size="10.00"> myLineColor</text>
</g>
<!-- Node15 -->
<g id="node15" class="node"><title>Node15</title>
<polygon fill="white" stroke="#bfbfbf" points="226.5,-250.5 226.5,-269.5 273.5,-269.5 273.5,-250.5 226.5,-250.5"/>
<text text-anchor="middle" x="250" y="-257.5" font-family="Helvetica,sans-Serif" font-size="10.00">Image</text>
</g>
<!-- Node15&#45;&gt;Node8 -->
<g id="edge15" class="edge"><title>Node15&#45;&gt;Node8</title>
<path fill="none" stroke="#9a32cd" stroke-dasharray="5,2" d="M283.896,-260C333.733,-260 428.063,-260 480.145,-260"/>
<polygon fill="#9a32cd" stroke="#9a32cd" points="283.679,-256.5 273.679,-260 283.679,-263.5 283.679,-256.5"/>
<text text-anchor="middle" x="378" y="-274" font-family="Helvetica,sans-Serif" font-size="10.00"> myDefaultOn</text>
<text text-anchor="middle" x="378" y="-263" font-family="Helvetica,sans-Serif" font-size="10.00">myDefaultOff</text>
</g>
<!-- Node16 -->
<g id="node16" class="node"><title>Node16</title>
<polygon fill="white" stroke="#bfbfbf" points="227,-196.5 227,-215.5 273,-215.5 273,-196.5 227,-196.5"/>
<text text-anchor="middle" x="250" y="-203.5" font-family="Helvetica,sans-Serif" font-size="10.00">Group</text>
</g>
<!-- Node16&#45;&gt;Node8 -->
<g id="edge16" class="edge"><title>Node16&#45;&gt;Node8</title>
<path fill="none" stroke="#9a32cd" stroke-dasharray="5,2" d="M283.436,-206.849C317.383,-208.305 372.035,-212.259 418,-223 445.873,-229.513 476.538,-241.828 496.242,-250.455"/>
<polygon fill="#9a32cd" stroke="#9a32cd" points="283.305,-203.341 273.179,-206.458 283.039,-210.336 283.305,-203.341"/>
<text text-anchor="middle" x="378" y="-248" font-family="Helvetica,sans-Serif" font-size="10.00"> myLines</text>
<text text-anchor="middle" x="378" y="-237" font-family="Helvetica,sans-Serif" font-size="10.00">myStamps</text>
<text text-anchor="middle" x="378" y="-226" font-family="Helvetica,sans-Serif" font-size="10.00">myDrawing</text>
</g>
<!-- Node17 -->
<g id="node17" class="node"><title>Node17</title>
<polygon fill="white" stroke="#bfbfbf" points="180,-158.5 180,-177.5 320,-177.5 320,-158.5 180,-158.5"/>
<text text-anchor="middle" x="250" y="-165.5" font-family="Helvetica,sans-Serif" font-size="10.00">ObservableList&lt; Image &gt;</text>
</g>
<!-- Node17&#45;&gt;Node8 -->
<g id="edge17" class="edge"><title>Node17&#45;&gt;Node8</title>
<path fill="none" stroke="#9a32cd" stroke-dasharray="5,2" d="M330.424,-173.934C358.751,-177.833 390.449,-184.294 418,-195 453.072,-208.629 488.591,-235.988 505.996,-250.483"/>
<polygon fill="#9a32cd" stroke="#9a32cd" points="330.519,-170.417 320.154,-172.61 329.624,-177.36 330.519,-170.417"/>
<text text-anchor="middle" x="378" y="-198" font-family="Helvetica,sans-Serif" font-size="10.00"> myTurtleShapes</text>
</g>
<!-- Node18 -->
<g id="node18" class="node"><title>Node18</title>
<polygon fill="white" stroke="#bfbfbf" points="494.5,-38.5 494.5,-57.5 541.5,-57.5 541.5,-38.5 494.5,-38.5"/>
<text text-anchor="middle" x="518" y="-45.5" font-family="Helvetica,sans-Serif" font-size="10.00">Locale</text>
</g>
<!-- Node18&#45;&gt;Node1 -->
<g id="edge18" class="edge"><title>Node18&#45;&gt;Node1</title>
<path fill="none" stroke="#9a32cd" stroke-dasharray="5,2" d="M551.906,-47.0502C584.126,-46.49 634.566,-46.5987 678,-51 689.952,-52.2111 702.782,-54.2425 714.626,-56.4253"/>
<polygon fill="#9a32cd" stroke="#9a32cd" points="551.64,-43.5548 541.714,-47.2606 551.784,-50.5533 551.64,-43.5548"/>
<text text-anchor="middle" x="648" y="-54" font-family="Helvetica,sans-Serif" font-size="10.00"> myLocale</text>
</g>
<!-- Node19 -->
<g id="node19" class="node"><title>Node19</title>
<polygon fill="white" stroke="#bfbfbf" points="436.5,-0.5 436.5,-19.5 599.5,-19.5 599.5,-0.5 436.5,-0.5"/>
<text text-anchor="middle" x="518" y="-7.5" font-family="Helvetica,sans-Serif" font-size="10.00">Map&lt; String, model.Feature &gt;</text>
</g>
<!-- Node19&#45;&gt;Node1 -->
<g id="edge19" class="edge"><title>Node19&#45;&gt;Node1</title>
<path fill="none" stroke="#9a32cd" stroke-dasharray="5,2" d="M610.048,-19.2897C632.482,-22.6386 656.293,-27.1028 678,-33 699.687,-38.8918 723.371,-49.0007 739.495,-56.4816"/>
<polygon fill="#9a32cd" stroke="#9a32cd" points="610.246,-15.7823 599.85,-17.8284 609.253,-22.7116 610.246,-15.7823"/>
<text text-anchor="middle" x="648" y="-36" font-family="Helvetica,sans-Serif" font-size="10.00"> myFeatures</text>
</g>
</g>
</svg>
        <g id="navigator" transform="translate(0 0)" fill="#404254">
                <rect fill="#f2f5e9" fill-opacity="0.5" stroke="#606060" stroke-width=".5" x="0" y="0" width="60" height="60"/>
                <use id="zoomplus" xlink:href="#zoomPlus" x="17" y="9" onmousedown="handleZoom(evt,'in')"/>
                <use id="zoomminus" xlink:href="#zoomMin" x="42" y="9" onmousedown="handleZoom(evt,'out')"/>
                <use id="reset" xlink:href="#resetDef" x="30" y="36" onmousedown="handleReset()"/>
                <g id="arrowUp" xlink:href="#dirArrow" transform="translate(30 24)" onmousedown="handlePan(0,-1)">
                  <use xlink:href="#rim" fill="#404040">
                        <set attributeName="fill" to="#808080" begin="arrowUp.mouseover" end="arrowUp.mouseout"/>
                  </use>
                  <path fill="none" stroke="white" stroke-width="1.5" d="M0,-3.0v7 M-2.5,-0.5L0,-3.0L2.5,-0.5"/>
                </g>
                <g id="arrowRight" xlink:href="#dirArrow" transform="rotate(90) translate(36 -43)" onmousedown="handlePan(1,0)">
                  <use xlink:href="#rim" fill="#404040">
                        <set attributeName="fill" to="#808080" begin="arrowRight.mouseover" end="arrowRight.mouseout"/>
                  </use>
                  <path fill="none" stroke="white" stroke-width="1.5" d="M0,-3.0v7 M-2.5,-0.5L0,-3.0L2.5,-0.5"/>
                </g>
                <g id="arrowDown" xlink:href="#dirArrow" transform="rotate(180) translate(-30 -48)" onmousedown="handlePan(0,1)">
                  <use xlink:href="#rim" fill="#404040">
                        <set attributeName="fill" to="#808080" begin="arrowDown.mouseover" end="arrowDown.mouseout"/>
                  </use>
                  <path fill="none" stroke="white" stroke-width="1.5" d="M0,-3.0v7 M-2.5,-0.5L0,-3.0L2.5,-0.5"/>
                </g>
                <g id="arrowLeft" xlink:href="#dirArrow" transform="rotate(270) translate(-36 17)" onmousedown="handlePan(-1,0)">
                  <use xlink:href="#rim" fill="#404040">
                        <set attributeName="fill" to="#808080" begin="arrowLeft.mouseover" end="arrowLeft.mouseout"/>
                  </use>
                  <path fill="none" stroke="white" stroke-width="1.5" d="M0,-3.0v7 M-2.5,-0.5L0,-3.0L2.5,-0.5"/>
                </g>
        </g>
        <svg viewBox="0 0 15 15" width="100%" height="30px" preserveAspectRatio="xMaxYMin meet">
         <g id="arrow_out" transform="scale(0.3 0.3)">
          <a xlink:href="classmodel_1_1_observable_data__coll__graph_org.svg" target="_base">
           <rect id="button" ry="5" rx="5" y="6" x="6" height="38" width="38"
                fill="#f2f5e9" fill-opacity="0.5" stroke="#606060" stroke-width="1.0"/>
           <path id="arrow"
             d="M 11.500037,31.436501 C 11.940474,20.09759 22.043105,11.32322 32.158766,21.979434 L 37.068811,17.246167 C 37.068811,17.246167 37.088388,32 37.088388,32 L 22.160133,31.978069 C 22.160133,31.978069 26.997745,27.140456 26.997745,27.140456 C 18.528582,18.264221 13.291696,25.230495 11.500037,31.436501 z"
             style="fill:#404040;"/>
          </a>
         </g>
        </svg>
</svg>
