<?xml version="1.0" encoding="UTF-8" standalone="no"?>
<!DOCTYPE svg PUBLIC "-//W3C//DTD SVG 1.1//EN"
 "http://www.w3.org/Graphics/SVG/1.1/DTD/svg11.dtd">
<!-- Generated by graphviz version 2.36.0 (20140111.2315)
 -->
<!-- Title: view.HistoryResultsView Pages: 1 -->
<!--zoomable 554 -->
<svg id="main" version="1.1" xmlns="http://www.w3.org/2000/svg" xmlns:xlink="http://www.w3.org/1999/xlink" xml:space="preserve" onload="init(evt)">
<style type="text/css"><![CDATA[
.edge:hover path { stroke: red; }
.edge:hover polygon { stroke: red; fill: red; }
]]></style>
<script type="text/javascript"><![CDATA[
var edges = document.getElementsByTagName('g');
if (edges && edges.length) {
  for (var i=0;i<edges.length;i++) {
    if (edges[i].id.substr(0,4)=='edge') {
      edges[i].setAttribute('class','edge');
    }
  }
}
]]></script>
        <defs>
                <circle id="rim" cx="0" cy="0" r="7"/>
                <circle id="rim2" cx="0" cy="0" r="3.5"/>
                <g id="zoomPlus">
                        <use xlink:href="#rim" fill="#404040">
                                <set attributeName="fill" to="#808080" begin="zoomplus.mouseover" end="zoomplus.mouseout"/>
                        </use>
                        <path d="M-4,0h8M0,-4v8" fill="none" stroke="white" stroke-width="1.5" pointer-events="none"/>
                </g>
                <g id="zoomMin">
                        <use xlink:href="#rim" fill="#404040">
                                <set attributeName="fill" to="#808080" begin="zoomminus.mouseover" end="zoomminus.mouseout"/>
                        </use>
                        <path d="M-4,0h8" fill="none" stroke="white" stroke-width="1.5" pointer-events="none"/>
                </g>
                <g id="dirArrow">
                        <path fill="none" stroke="white" stroke-width="1.5" d="M0,-3.0v7 M-2.5,-0.5L0,-3.0L2.5,-0.5"/>
                </g>
               <g id="resetDef">
                       <use xlink:href="#rim2" fill="#404040">
                               <set attributeName="fill" to="#808080" begin="reset.mouseover" end="reset.mouseout"/>
                       </use>
               </g>
        </defs>

<script type="text/javascript">
var viewWidth = 2256;
var viewHeight = 554;
var sectionId = 'dynsection-1';
</script>
<script xlink:href="../../svgpan.js"/>
<svg id="graph" class="graph">
<g id="viewport">
<title>view.HistoryResultsView</title>
<polygon fill="white" stroke="none" points="-4,4 -4,-549.731 2252,-549.731 2252,4 -4,4"/>
<!-- Node1 -->
<g id="node1" class="node"><title>Node1</title>
<polygon fill="#bfbfbf" stroke="black" points="2120,-262.231 2120,-281.231 2248,-281.231 2248,-262.231 2120,-262.231"/>
<text text-anchor="middle" x="2184" y="-269.231" font-family="Helvetica,sans-Serif" font-size="10.00">view.HistoryResultsView</text>
</g>
<!-- Node2 -->
<g id="node2" class="node"><title>Node2</title>
<g id="a_node2"><a xlink:href="../../dc/dc4/classview_1_1_pane_view.html" target="_top" xlink:title="view.PaneView">
<polygon fill="white" stroke="black" points="1377,-360.231 1377,-379.231 1461,-379.231 1461,-360.231 1377,-360.231"/>
<text text-anchor="middle" x="1419" y="-367.231" font-family="Helvetica,sans-Serif" font-size="10.00">view.PaneView</text>
</a>
</g>
</g>
<!-- Node2&#45;&gt;Node1 -->
<g id="edge1" class="edge"><title>Node2&#45;&gt;Node1</title>
<path fill="none" stroke="midnightblue" d="M1471.11,-369.731C1514.88,-369.731 1579.59,-369.731 1636,-369.731 1636,-369.731 1636,-369.731 1985,-369.731 2064.01,-369.731 2144.07,-306.274 2172.33,-281.486"/>
<polygon fill="midnightblue" stroke="midnightblue" points="1471.01,-366.231 1461.01,-369.731 1471.01,-373.231 1471.01,-366.231"/>
</g>
<!-- Node8 -->
<g id="node8" class="node"><title>Node8</title>
<g id="a_node8"><a xlink:href="../../d6/d0a/classview_1_1_input_view.html" target="_top" xlink:title="view.InputView">
<polygon fill="white" stroke="black" points="1594.5,-234.231 1594.5,-253.231 1679.5,-253.231 1679.5,-234.231 1594.5,-234.231"/>
<text text-anchor="middle" x="1637" y="-241.231" font-family="Helvetica,sans-Serif" font-size="10.00">view.InputView</text>
</a>
</g>
</g>
<!-- Node2&#45;&gt;Node8 -->
<g id="edge9" class="edge"><title>Node2&#45;&gt;Node8</title>
<path fill="none" stroke="midnightblue" d="M1471.18,-359.288C1513.68,-350.183 1568.36,-337.283 1576,-329.731 1597.93,-308.054 1574.04,-286.23 1594,-262.731 1597.21,-258.95 1601.33,-255.885 1605.73,-253.413"/>
<polygon fill="midnightblue" stroke="midnightblue" points="1470.28,-355.901 1461.23,-361.4 1471.74,-362.749 1470.28,-355.901"/>
</g>
<!-- Node3 -->
<g id="node3" class="node"><title>Node3</title>
<polygon fill="white" stroke="#bfbfbf" points="1220,-465.231 1220,-484.231 1260,-484.231 1260,-465.231 1220,-465.231"/>
<text text-anchor="middle" x="1240" y="-472.231" font-family="Helvetica,sans-Serif" font-size="10.00">Pane</text>
</g>
<!-- Node3&#45;&gt;Node2 -->
<g id="edge2" class="edge"><title>Node3&#45;&gt;Node2</title>
<path fill="none" stroke="midnightblue" d="M1270.24,-468.696C1292.67,-463.195 1323.79,-453.622 1348,-438.731 1374.45,-422.462 1398.67,-394.45 1410.47,-379.616"/>
<polygon fill="midnightblue" stroke="midnightblue" points="1269.24,-465.334 1260.3,-471.009 1270.83,-472.152 1269.24,-465.334"/>
</g>
<!-- Node4 -->
<g id="node4" class="node"><title>Node4</title>
<polygon fill="white" stroke="#bfbfbf" points="1616.5,-317.231 1616.5,-336.231 1657.5,-336.231 1657.5,-317.231 1616.5,-317.231"/>
<text text-anchor="middle" x="1637" y="-324.231" font-family="Helvetica,sans-Serif" font-size="10.00">VBox</text>
</g>
<!-- Node4&#45;&gt;Node1 -->
<g id="edge3" class="edge"><title>Node4&#45;&gt;Node1</title>
<path fill="none" stroke="#9a32cd" stroke-dasharray="5,2" d="M1667.91,-325.162C1741.82,-321.066 1938.91,-308.809 2102,-286.731 2113.05,-285.235 2124.89,-283.258 2136.01,-281.232"/>
<polygon fill="#9a32cd" stroke="#9a32cd" points="1667.32,-321.689 1657.52,-325.729 1667.7,-328.679 1667.32,-321.689"/>
<text text-anchor="middle" x="1892" y="-313.731" font-family="Helvetica,sans-Serif" font-size="10.00"> myView</text>
</g>
<!-- Node6 -->
<g id="node6" class="node"><title>Node6</title>
<g id="a_node6"><a xlink:href="../../db/d98/classview_1_1_scroll_view.html" target="_top" xlink:title="view.ScrollView">
<polygon fill="white" stroke="black" points="1760.5,-262.231 1760.5,-281.231 1847.5,-281.231 1847.5,-262.231 1760.5,-262.231"/>
<text text-anchor="middle" x="1804" y="-269.231" font-family="Helvetica,sans-Serif" font-size="10.00">view.ScrollView</text>
</a>
</g>
</g>
<!-- Node4&#45;&gt;Node6 -->
<g id="edge7" class="edge"><title>Node4&#45;&gt;Node6</title>
<path fill="none" stroke="#9a32cd" stroke-dasharray="5,2" d="M1667.33,-316.312C1677.07,-312.892 1687.99,-309.104 1698,-305.731 1723.06,-297.29 1751.61,-288.07 1772.61,-281.363"/>
<polygon fill="#9a32cd" stroke="#9a32cd" points="1665.95,-313.084 1657.69,-319.71 1668.28,-319.686 1665.95,-313.084"/>
<text text-anchor="middle" x="1720" y="-308.731" font-family="Helvetica,sans-Serif" font-size="10.00"> myView</text>
</g>
<!-- Node5 -->
<g id="node5" class="node"><title>Node5</title>
<g id="a_node5"><a xlink:href="../../d1/d0e/classview_1_1_history_view.html" target="_top" xlink:title="view.HistoryView">
<polygon fill="white" stroke="black" points="1936.5,-262.231 1936.5,-281.231 2031.5,-281.231 2031.5,-262.231 1936.5,-262.231"/>
<text text-anchor="middle" x="1984" y="-269.231" font-family="Helvetica,sans-Serif" font-size="10.00">view.HistoryView</text>
</a>
</g>
</g>
<!-- Node5&#45;&gt;Node1 -->
<g id="edge4" class="edge"><title>Node5&#45;&gt;Node1</title>
<path fill="none" stroke="#9a32cd" stroke-dasharray="5,2" d="M2041.84,-271.731C2066.2,-271.731 2094.75,-271.731 2119.78,-271.731"/>
<polygon fill="#9a32cd" stroke="#9a32cd" points="2041.67,-268.231 2031.67,-271.731 2041.67,-275.231 2041.67,-268.231"/>
<text text-anchor="middle" x="2076" y="-274.731" font-family="Helvetica,sans-Serif" font-size="10.00"> myHistory</text>
</g>
<!-- Node6&#45;&gt;Node5 -->
<g id="edge5" class="edge"><title>Node6&#45;&gt;Node5</title>
<path fill="none" stroke="midnightblue" d="M1857.66,-271.731C1882.63,-271.731 1912.19,-271.731 1936.34,-271.731"/>
<polygon fill="midnightblue" stroke="midnightblue" points="1857.64,-268.231 1847.64,-271.731 1857.64,-275.231 1857.64,-268.231"/>
</g>
<!-- Node7 -->
<g id="node7" class="node"><title>Node7</title>
<polygon fill="white" stroke="#bfbfbf" points="1604,-272.231 1604,-291.231 1670,-291.231 1670,-272.231 1604,-272.231"/>
<text text-anchor="middle" x="1637" y="-279.231" font-family="Helvetica,sans-Serif" font-size="10.00">ScrollPane</text>
</g>
<!-- Node7&#45;&gt;Node6 -->
<g id="edge6" class="edge"><title>Node7&#45;&gt;Node6</title>
<path fill="none" stroke="midnightblue" d="M1680.3,-279.168C1704.83,-277.681 1735.64,-275.813 1760.25,-274.322"/>
<polygon fill="midnightblue" stroke="midnightblue" points="1679.98,-275.681 1670.21,-279.779 1680.4,-282.668 1679.98,-275.681"/>
</g>
<!-- Node8&#45;&gt;Node6 -->
<g id="edge8" class="edge"><title>Node8&#45;&gt;Node6</title>
<path fill="none" stroke="#9a32cd" stroke-dasharray="5,2" d="M1689.7,-251.251C1706.41,-253.798 1725.01,-256.755 1742,-259.731 1747.95,-260.774 1754.22,-261.935 1760.38,-263.113"/>
<polygon fill="#9a32cd" stroke="#9a32cd" points="1689.97,-247.753 1679.56,-249.721 1688.93,-254.675 1689.97,-247.753"/>
<text text-anchor="middle" x="1720" y="-262.731" font-family="Helvetica,sans-Serif" font-size="10.00"> myInput</text>
</g>
<!-- Node9 -->
<g id="node9" class="node"><title>Node9</title>
<g id="a_node9"><a xlink:href="../../d3/d88/classmodel_1_1_slogo_model.html" target="_top" xlink:title="model.SlogoModel">
<polygon fill="white" stroke="black" points="1366.5,-234.231 1366.5,-253.231 1471.5,-253.231 1471.5,-234.231 1366.5,-234.231"/>
<text text-anchor="middle" x="1419" y="-241.231" font-family="Helvetica,sans-Serif" font-size="10.00">model.SlogoModel</text>
</a>
</g>
</g>
<!-- Node9&#45;&gt;Node8 -->
<g id="edge10" class="edge"><title>Node9&#45;&gt;Node8</title>
<path fill="none" stroke="#9a32cd" stroke-dasharray="5,2" d="M1482.15,-243.731C1518.2,-243.731 1562.61,-243.731 1594.44,-243.731"/>
<polygon fill="#9a32cd" stroke="#9a32cd" points="1481.74,-240.231 1471.74,-243.731 1481.74,-247.231 1481.74,-240.231"/>
<text text-anchor="middle" x="1533" y="-246.731" font-family="Helvetica,sans-Serif" font-size="10.00"> myModel</text>
</g>
<!-- Node10 -->
<g id="node10" class="node"><title>Node10</title>
<polygon fill="white" stroke="#bfbfbf" points="1204.5,-215.231 1204.5,-234.231 1275.5,-234.231 1275.5,-215.231 1204.5,-215.231"/>
<text text-anchor="middle" x="1240" y="-222.231" font-family="Helvetica,sans-Serif" font-size="10.00">Observable</text>
</g>
<!-- Node10&#45;&gt;Node9 -->
<g id="edge11" class="edge"><title>Node10&#45;&gt;Node9</title>
<path fill="none" stroke="midnightblue" d="M1285.68,-229.527C1310.25,-232.165 1340.85,-235.449 1366.43,-238.196"/>
<polygon fill="midnightblue" stroke="midnightblue" points="1285.86,-226.027 1275.55,-228.44 1285.12,-232.987 1285.86,-226.027"/>
</g>
<!-- Node11 -->
<g id="node11" class="node"><title>Node11</title>
<polygon fill="white" stroke="#bfbfbf" points="508.5,-175.231 508.5,-194.231 555.5,-194.231 555.5,-175.231 508.5,-175.231"/>
<text text-anchor="middle" x="532" y="-182.231" font-family="Helvetica,sans-Serif" font-size="10.00">Locale</text>
</g>
<!-- Node11&#45;&gt;Node1 -->
<g id="edge46" class="edge"><title>Node11&#45;&gt;Node1</title>
<path fill="none" stroke="#9a32cd" stroke-dasharray="5,2" d="M565.384,-172.183C610.977,-155.674 697.025,-128.731 773,-128.731 773,-128.731 773,-128.731 1985,-128.731 2076.17,-128.731 2153.86,-229.594 2176.41,-261.902"/>
<polygon fill="#9a32cd" stroke="#9a32cd" points="563.926,-168.99 555.755,-175.734 566.348,-175.558 563.926,-168.99"/>
<text text-anchor="middle" x="1419" y="-131.731" font-family="Helvetica,sans-Serif" font-size="10.00"> myLocale</text>
</g>
<!-- Node11&#45;&gt;Node8 -->
<g id="edge43" class="edge"><title>Node11&#45;&gt;Node8</title>
<path fill="none" stroke="#9a32cd" stroke-dasharray="5,2" d="M565.871,-185.178C612.104,-185.768 698.972,-186.731 773,-186.731 773,-186.731 773,-186.731 1155,-186.731 1318.56,-186.731 1511.24,-219.634 1594.38,-235.443"/>
<polygon fill="#9a32cd" stroke="#9a32cd" points="565.877,-181.678 555.833,-185.048 565.786,-188.678 565.877,-181.678"/>
<text text-anchor="middle" x="1154" y="-189.731" font-family="Helvetica,sans-Serif" font-size="10.00"> myLocale</text>
</g>
<!-- Node11&#45;&gt;Node9 -->
<g id="edge12" class="edge"><title>Node11&#45;&gt;Node9</title>
<path fill="none" stroke="#9a32cd" stroke-dasharray="5,2" d="M565.346,-191.347C580.272,-194.647 598.157,-198.954 614,-203.731 686.166,-225.491 697.625,-262.731 773,-262.731 773,-262.731 773,-262.731 1241,-262.731 1283.34,-262.731 1331.06,-257.29 1366.27,-252.231"/>
<polygon fill="#9a32cd" stroke="#9a32cd" points="566.06,-187.921 555.547,-189.229 564.582,-194.763 566.06,-187.921"/>
<text text-anchor="middle" x="1041" y="-265.731" font-family="Helvetica,sans-Serif" font-size="10.00"> myLocale</text>
</g>
<!-- Node16 -->
<g id="node16" class="node"><title>Node16</title>
<g id="a_node16"><a xlink:href="../../d8/d36/classmodel_1_1_observable_data.html" target="_top" xlink:title="model.ObservableData">
<polygon fill="white" stroke="black" points="710.5,-328.231 710.5,-347.231 837.5,-347.231 837.5,-328.231 710.5,-328.231"/>
<text text-anchor="middle" x="774" y="-335.231" font-family="Helvetica,sans-Serif" font-size="10.00">model.ObservableData</text>
</a>
</g>
</g>
<!-- Node11&#45;&gt;Node16 -->
<g id="edge37" class="edge"><title>Node11&#45;&gt;Node16</title>
<path fill="none" stroke="#9a32cd" stroke-dasharray="5,2" d="M565.904,-184.756C582.351,-186.493 601.384,-191.381 614,-203.731 636.955,-226.203 610.271,-250.072 632,-273.731 651.111,-294.54 666.115,-283.408 692,-294.731 715.047,-304.813 740.5,-318.829 756.61,-328.084"/>
<polygon fill="#9a32cd" stroke="#9a32cd" points="565.785,-181.239 555.562,-184.024 565.29,-188.222 565.785,-181.239"/>
<text text-anchor="middle" x="662" y="-297.731" font-family="Helvetica,sans-Serif" font-size="10.00"> myLocale</text>
</g>
<!-- Node12 -->
<g id="node12" class="node"><title>Node12</title>
<g id="a_node12"><a xlink:href="../../d6/d95/classparser_1_1_parser.html" target="_top" xlink:title="parser.Parser">
<polygon fill="white" stroke="black" points="1200,-427.231 1200,-446.231 1280,-446.231 1280,-427.231 1200,-427.231"/>
<text text-anchor="middle" x="1240" y="-434.231" font-family="Helvetica,sans-Serif" font-size="10.00">parser.Parser</text>
</a>
</g>
</g>
<!-- Node12&#45;&gt;Node9 -->
<g id="edge13" class="edge"><title>Node12&#45;&gt;Node9</title>
<path fill="none" stroke="#9a32cd" stroke-dasharray="5,2" d="M1264.45,-421.4C1289.07,-404.055 1327.04,-373.517 1348,-337.731 1365.33,-308.152 1343.19,-288.321 1366,-262.731 1369.45,-258.857 1373.76,-255.771 1378.42,-253.315"/>
<polygon fill="#9a32cd" stroke="#9a32cd" points="1262.3,-418.63 1256.05,-427.178 1266.27,-424.398 1262.3,-418.63"/>
<text text-anchor="middle" x="1323" y="-396.731" font-family="Helvetica,sans-Serif" font-size="10.00"> myParser</text>
</g>
<!-- Node13 -->
<g id="node13" class="node"><title>Node13</title>
<polygon fill="white" stroke="#bfbfbf" points="4.5,-460.231 4.5,-479.231 75.5,-479.231 75.5,-460.231 4.5,-460.231"/>
<text text-anchor="middle" x="40" y="-467.231" font-family="Helvetica,sans-Serif" font-size="10.00">Serializable</text>
</g>
<!-- Node13&#45;&gt;Node12 -->
<g id="edge14" class="edge"><title>Node13&#45;&gt;Node12</title>
<path fill="none" stroke="midnightblue" d="M85.422,-476.15C127.462,-481.664 192.386,-488.731 249,-488.731 249,-488.731 249,-488.731 1042,-488.731 1107.79,-488.731 1181.98,-461.281 1217.62,-446.269"/>
<polygon fill="midnightblue" stroke="midnightblue" points="85.8832,-472.681 75.5072,-474.823 84.9543,-479.619 85.8832,-472.681"/>
</g>
<!-- Node15 -->
<g id="node15" class="node"><title>Node15</title>
<g id="a_node15"><a xlink:href="../../d3/d96/classparser_1_1_instruction_factory.html" target="_top" xlink:title="parser.InstructionFactory">
<polygon fill="white" stroke="black" points="974,-390.231 974,-409.231 1108,-409.231 1108,-390.231 974,-390.231"/>
<text text-anchor="middle" x="1041" y="-397.231" font-family="Helvetica,sans-Serif" font-size="10.00">parser.InstructionFactory</text>
</a>
</g>
</g>
<!-- Node13&#45;&gt;Node15 -->
<g id="edge17" class="edge"><title>Node13&#45;&gt;Node15</title>
<path fill="none" stroke="midnightblue" d="M85.6751,-465.82C208.519,-455.176 561.8,-425.313 856,-407.731 895.099,-405.395 938.911,-403.462 973.973,-402.083"/>
<polygon fill="midnightblue" stroke="midnightblue" points="85.1882,-462.349 75.5284,-466.701 85.7937,-469.323 85.1882,-462.349"/>
</g>
<!-- Node18 -->
<g id="node18" class="node"><title>Node18</title>
<g id="a_node18"><a xlink:href="../../d1/d69/interfacemodel_1_1_feature.html" target="_top" xlink:title="model.Feature">
<polygon fill="white" stroke="black" points="207,-289.231 207,-308.231 293,-308.231 293,-289.231 207,-289.231"/>
<text text-anchor="middle" x="250" y="-296.231" font-family="Helvetica,sans-Serif" font-size="10.00">model.Feature</text>
</a>
</g>
</g>
<!-- Node13&#45;&gt;Node18 -->
<g id="edge22" class="edge"><title>Node13&#45;&gt;Node18</title>
<path fill="none" stroke="midnightblue" d="M52.5978,-451.405C73.8583,-419.336 122.236,-353.097 180,-317.731 188.159,-312.736 197.653,-309.026 206.94,-306.281"/>
<polygon fill="midnightblue" stroke="midnightblue" points="49.4043,-449.896 46.89,-460.188 55.2738,-453.71 49.4043,-449.896"/>
</g>
<!-- Node33 -->
<g id="node33" class="node"><title>Node33</title>
<g id="a_node33"><a xlink:href="../../de/d6b/classparser_1_1_tokenizer.html" target="_top" xlink:title="parser.Tokenizer">
<polygon fill="white" stroke="black" points="338,-523.231 338,-542.231 432,-542.231 432,-523.231 338,-523.231"/>
<text text-anchor="middle" x="385" y="-530.231" font-family="Helvetica,sans-Serif" font-size="10.00">parser.Tokenizer</text>
</a>
</g>
</g>
<!-- Node13&#45;&gt;Node33 -->
<g id="edge40" class="edge"><title>Node13&#45;&gt;Node33</title>
<path fill="none" stroke="midnightblue" d="M62.1753,-484.859C72.4977,-491.464 85.3854,-498.625 98,-502.731 179.537,-529.269 280.398,-533.701 337.954,-533.745"/>
<polygon fill="midnightblue" stroke="midnightblue" points="64.0956,-481.932 53.8358,-479.289 60.2076,-487.754 64.0956,-481.932"/>
</g>
<!-- Node14 -->
<g id="node14" class="node"><title>Node14</title>
<polygon fill="white" stroke="#bfbfbf" points="727.5,-438.231 727.5,-457.231 820.5,-457.231 820.5,-438.231 727.5,-438.231"/>
<text text-anchor="middle" x="774" y="-445.231" font-family="Helvetica,sans-Serif" font-size="10.00">ResourceBundle</text>
</g>
<!-- Node14&#45;&gt;Node12 -->
<g id="edge15" class="edge"><title>Node14&#45;&gt;Node12</title>
<path fill="none" stroke="#9a32cd" stroke-dasharray="5,2" d="M830.773,-446.409C925.974,-444.152 1117.52,-439.611 1199.89,-437.658"/>
<polygon fill="#9a32cd" stroke="#9a32cd" points="830.674,-442.91 820.76,-446.646 830.84,-449.908 830.674,-442.91"/>
<text text-anchor="middle" x="1041" y="-445.731" font-family="Helvetica,sans-Serif" font-size="10.00"> myLanguageBundle</text>
</g>
<!-- Node14&#45;&gt;Node15 -->
<g id="edge18" class="edge"><title>Node14&#45;&gt;Node15</title>
<path fill="none" stroke="#9a32cd" stroke-dasharray="5,2" d="M820.583,-435.705C832.095,-432.881 844.463,-430.028 856,-427.731 894.82,-420.001 938.62,-413.258 973.745,-408.327"/>
<polygon fill="#9a32cd" stroke="#9a32cd" points="819.584,-432.347 810.73,-438.165 821.28,-439.138 819.584,-432.347"/>
<text text-anchor="middle" x="906" y="-430.731" font-family="Helvetica,sans-Serif" font-size="10.00"> myLanguageBundle</text>
</g>
<!-- Node15&#45;&gt;Node12 -->
<g id="edge16" class="edge"><title>Node15&#45;&gt;Node12</title>
<path fill="none" stroke="#9a32cd" stroke-dasharray="5,2" d="M1107.47,-410.993C1131,-415.153 1157.72,-420.008 1182,-424.731 1187.76,-425.851 1193.83,-427.079 1199.78,-428.31"/>
<polygon fill="#9a32cd" stroke="#9a32cd" points="1108.05,-407.541 1097.6,-409.254 1106.84,-414.435 1108.05,-407.541"/>
<text text-anchor="middle" x="1154" y="-427.731" font-family="Helvetica,sans-Serif" font-size="10.00"> myIFactory</text>
</g>
<!-- Node16&#45;&gt;Node9 -->
<g id="edge41" class="edge"><title>Node16&#45;&gt;Node9</title>
<path fill="none" stroke="#9a32cd" stroke-dasharray="5,2" d="M847.836,-334.938C981.162,-329.013 1258.94,-312.67 1348,-276.731 1357.4,-272.939 1357.13,-267.641 1366,-262.731 1372.56,-259.1 1379.95,-255.917 1387.05,-253.247"/>
<polygon fill="#9a32cd" stroke="#9a32cd" points="847.554,-331.447 837.716,-335.38 847.859,-338.441 847.554,-331.447"/>
<text text-anchor="middle" x="1154" y="-317.731" font-family="Helvetica,sans-Serif" font-size="10.00"> myData</text>
</g>
<!-- Node16&#45;&gt;Node15 -->
<g id="edge19" class="edge"><title>Node16&#45;&gt;Node15</title>
<path fill="none" stroke="#9a32cd" stroke-dasharray="5,2" d="M847.718,-347.063C881.028,-352.133 920.834,-359.317 956,-368.731 977.323,-374.44 1000.84,-383.353 1017.55,-390.16"/>
<polygon fill="#9a32cd" stroke="#9a32cd" points="848.008,-343.568 837.602,-345.558 846.977,-350.492 848.008,-343.568"/>
<text text-anchor="middle" x="906" y="-371.731" font-family="Helvetica,sans-Serif" font-size="10.00"> myData</text>
</g>
<!-- Node17 -->
<g id="node17" class="node"><title>Node17</title>
<g id="a_node17"><a xlink:href="../../df/db7/classmodel_1_1_turtles_list.html" target="_top" xlink:title="model.TurtlesList">
<polygon fill="white" stroke="black" points="483.5,-352.231 483.5,-371.231 580.5,-371.231 580.5,-352.231 483.5,-352.231"/>
<text text-anchor="middle" x="532" y="-359.231" font-family="Helvetica,sans-Serif" font-size="10.00">model.TurtlesList</text>
</a>
</g>
</g>
<!-- Node17&#45;&gt;Node16 -->
<g id="edge20" class="edge"><title>Node17&#45;&gt;Node16</title>
<path fill="none" stroke="#9a32cd" stroke-dasharray="5,2" d="M591.064,-355.925C627.128,-352.318 673.475,-347.684 710.364,-343.995"/>
<polygon fill="#9a32cd" stroke="#9a32cd" points="590.305,-352.483 580.703,-356.961 591.002,-359.448 590.305,-352.483"/>
<text text-anchor="middle" x="662" y="-353.731" font-family="Helvetica,sans-Serif" font-size="10.00"> myTurtles</text>
</g>
<!-- Node18&#45;&gt;Node17 -->
<g id="edge21" class="edge"><title>Node18&#45;&gt;Node17</title>
<path fill="none" stroke="midnightblue" d="M302.932,-310.052C339.132,-317.982 388.537,-328.88 432,-338.731 451.102,-343.061 472.251,-347.96 490.081,-352.12"/>
<polygon fill="midnightblue" stroke="midnightblue" points="303.605,-306.617 293.088,-307.898 302.108,-313.455 303.605,-306.617"/>
</g>
<!-- Node22 -->
<g id="node22" class="node"><title>Node22</title>
<g id="a_node22"><a xlink:href="../../d6/d34/classmodel_1_1_turtle.html" target="_top" xlink:title="model.Turtle">
<polygon fill="white" stroke="black" points="494.5,-213.231 494.5,-232.231 569.5,-232.231 569.5,-213.231 494.5,-213.231"/>
<text text-anchor="middle" x="532" y="-220.231" font-family="Helvetica,sans-Serif" font-size="10.00">model.Turtle</text>
</a>
</g>
</g>
<!-- Node18&#45;&gt;Node22 -->
<g id="edge28" class="edge"><title>Node18&#45;&gt;Node22</title>
<path fill="none" stroke="midnightblue" d="M303.172,-291.022C339.678,-284.982 389.346,-275.467 432,-262.731 459.887,-254.404 490.804,-241.246 510.546,-232.315"/>
<polygon fill="midnightblue" stroke="midnightblue" points="302.552,-287.577 293.241,-292.633 303.673,-294.486 302.552,-287.577"/>
</g>
<!-- Node19 -->
<g id="node19" class="node"><title>Node19</title>
<polygon fill="white" stroke="#bfbfbf" points="193,-327.231 193,-346.231 307,-346.231 307,-327.231 193,-327.231"/>
<text text-anchor="middle" x="250" y="-334.231" font-family="Helvetica,sans-Serif" font-size="10.00">List&lt; model.Turtle &gt;</text>
</g>
<!-- Node19&#45;&gt;Node17 -->
<g id="edge23" class="edge"><title>Node19&#45;&gt;Node17</title>
<path fill="none" stroke="#9a32cd" stroke-dasharray="5,2" d="M317.639,-341.35C351.849,-343.857 394.179,-347.168 432,-350.731 448.787,-352.312 467.147,-354.285 483.447,-356.121"/>
<polygon fill="#9a32cd" stroke="#9a32cd" points="317.525,-337.833 307.297,-340.598 317.017,-344.814 317.525,-337.833"/>
<text text-anchor="middle" x="385" y="-353.731" font-family="Helvetica,sans-Serif" font-size="10.00"> allTurtles</text>
</g>
<!-- Node20 -->
<g id="node20" class="node"><title>Node20</title>
<polygon fill="white" stroke="#bfbfbf" points="180.5,-403.231 180.5,-422.231 319.5,-422.231 319.5,-403.231 180.5,-403.231"/>
<text text-anchor="middle" x="250" y="-410.231" font-family="Helvetica,sans-Serif" font-size="10.00">Stack&lt; List&lt; Integer &gt; &gt;</text>
</g>
<!-- Node20&#45;&gt;Node17 -->
<g id="edge24" class="edge"><title>Node20&#45;&gt;Node17</title>
<path fill="none" stroke="#9a32cd" stroke-dasharray="5,2" d="M329.687,-401.867C361.544,-397.129 398.617,-391.182 432,-384.731 437.934,-383.585 465.869,-377.078 490.559,-371.277"/>
<polygon fill="#9a32cd" stroke="#9a32cd" points="328.922,-398.442 319.539,-403.362 329.942,-405.367 328.922,-398.442"/>
<text text-anchor="middle" x="385" y="-402.731" font-family="Helvetica,sans-Serif" font-size="10.00"> turtleScope</text>
</g>
<!-- Node21 -->
<g id="node21" class="node"><title>Node21</title>
<polygon fill="white" stroke="#bfbfbf" points="205.5,-365.231 205.5,-384.231 294.5,-384.231 294.5,-365.231 205.5,-365.231"/>
<text text-anchor="middle" x="250" y="-372.231" font-family="Helvetica,sans-Serif" font-size="10.00">List&lt; Integer &gt;</text>
</g>
<!-- Node21&#45;&gt;Node17 -->
<g id="edge25" class="edge"><title>Node21&#45;&gt;Node17</title>
<path fill="none" stroke="#9a32cd" stroke-dasharray="5,2" d="M305.051,-372.222C356.733,-369.822 433.904,-366.239 483.343,-363.944"/>
<polygon fill="#9a32cd" stroke="#9a32cd" points="304.577,-368.74 294.75,-372.7 304.902,-375.732 304.577,-368.74"/>
<text text-anchor="middle" x="385" y="-372.731" font-family="Helvetica,sans-Serif" font-size="10.00"> activeIDs</text>
</g>
<!-- Node22&#45;&gt;Node16 -->
<g id="edge26" class="edge"><title>Node22&#45;&gt;Node16</title>
<path fill="none" stroke="#9a32cd" stroke-dasharray="5,2" d="M547.961,-239.974C565.914,-259.52 597.891,-290.851 632,-307.731 656.225,-319.72 685.105,-326.932 710.401,-331.265"/>
<polygon fill="#9a32cd" stroke="#9a32cd" points="550.443,-237.5 541.16,-232.395 545.234,-242.175 550.443,-237.5"/>
<text text-anchor="middle" x="662" y="-329.731" font-family="Helvetica,sans-Serif" font-size="10.00"> myTurtle</text>
</g>
<!-- Node23 -->
<g id="node23" class="node"><title>Node23</title>
<g id="a_node23"><a xlink:href="../../d5/dad/classmodel_1_1_turtle_abstract.html" target="_top" xlink:title="model.TurtleAbstract">
<polygon fill="white" stroke="black" points="192,-4.23115 192,-23.2311 308,-23.2311 308,-4.23115 192,-4.23115"/>
<text text-anchor="middle" x="250" y="-11.2311" font-family="Helvetica,sans-Serif" font-size="10.00">model.TurtleAbstract</text>
</a>
</g>
</g>
<!-- Node23&#45;&gt;Node22 -->
<g id="edge27" class="edge"><title>Node23&#45;&gt;Node22</title>
<path fill="none" stroke="midnightblue" d="M302.77,-2.70358C343.525,2.67955 398.814,2.1243 432,-30.7311 459.468,-57.9249 424.454,-174.724 450,-203.731 460.978,-216.197 478.439,-221.297 494.342,-223.134"/>
<polygon fill="midnightblue" stroke="midnightblue" points="302.125,0.739254 292.744,-4.18408 303.148,-6.18566 302.125,0.739254"/>
</g>
<!-- Node24 -->
<g id="node24" class="node"><title>Node24</title>
<polygon fill="white" stroke="#bfbfbf" points="226.5,-251.231 226.5,-270.231 273.5,-270.231 273.5,-251.231 226.5,-251.231"/>
<text text-anchor="middle" x="250" y="-258.231" font-family="Helvetica,sans-Serif" font-size="10.00">Tooltip</text>
</g>
<!-- Node24&#45;&gt;Node22 -->
<g id="edge29" class="edge"><title>Node24&#45;&gt;Node22</title>
<path fill="none" stroke="#9a32cd" stroke-dasharray="5,2" d="M284.058,-256.245C336.738,-249.095 439.37,-235.167 494.271,-227.716"/>
<polygon fill="#9a32cd" stroke="#9a32cd" points="283.352,-252.808 273.914,-257.621 284.293,-259.745 283.352,-252.808"/>
<text text-anchor="middle" x="385" y="-250.731" font-family="Helvetica,sans-Serif" font-size="10.00"> myTurtleInfo</text>
</g>
<!-- Node25 -->
<g id="node25" class="node"><title>Node25</title>
<polygon fill="white" stroke="#bfbfbf" points="216,-213.231 216,-232.231 284,-232.231 284,-213.231 216,-213.231"/>
<text text-anchor="middle" x="250" y="-220.231" font-family="Helvetica,sans-Serif" font-size="10.00">ImageView</text>
</g>
<!-- Node25&#45;&gt;Node22 -->
<g id="edge30" class="edge"><title>Node25&#45;&gt;Node22</title>
<path fill="none" stroke="#9a32cd" stroke-dasharray="5,2" d="M294.323,-222.731C349.185,-222.731 442.755,-222.731 494.278,-222.731"/>
<polygon fill="#9a32cd" stroke="#9a32cd" points="294.219,-219.231 284.219,-222.731 294.219,-226.231 294.219,-219.231"/>
<text text-anchor="middle" x="385" y="-225.731" font-family="Helvetica,sans-Serif" font-size="10.00"> myImage</text>
</g>
<!-- Node26 -->
<g id="node26" class="node"><title>Node26</title>
<g id="a_node26"><a xlink:href="../../de/ded/classmodel_1_1_pen.html" target="_top" xlink:title="model.Pen">
<polygon fill="white" stroke="black" points="216,-175.231 216,-194.231 284,-194.231 284,-175.231 216,-175.231"/>
<text text-anchor="middle" x="250" y="-182.231" font-family="Helvetica,sans-Serif" font-size="10.00">model.Pen</text>
</a>
</g>
</g>
<!-- Node26&#45;&gt;Node22 -->
<g id="edge31" class="edge"><title>Node26&#45;&gt;Node22</title>
<path fill="none" stroke="#9a32cd" stroke-dasharray="5,2" d="M294.398,-189.949C331.088,-194.432 385.027,-201.189 432,-207.731 452.661,-210.609 475.705,-214.084 494.359,-216.965"/>
<polygon fill="#9a32cd" stroke="#9a32cd" points="294.41,-186.425 284.06,-188.691 293.564,-193.374 294.41,-186.425"/>
<text text-anchor="middle" x="385" y="-210.731" font-family="Helvetica,sans-Serif" font-size="10.00"> myPen</text>
</g>
<!-- Node27 -->
<g id="node27" class="node"><title>Node27</title>
<polygon fill="white" stroke="#bfbfbf" points="0,-194.231 0,-213.231 80,-213.231 80,-194.231 0,-194.231"/>
<text text-anchor="middle" x="40" y="-201.231" font-family="Helvetica,sans-Serif" font-size="10.00">List&lt; Color &gt;</text>
</g>
<!-- Node27&#45;&gt;Node26 -->
<g id="edge32" class="edge"><title>Node27&#45;&gt;Node26</title>
<path fill="none" stroke="#9a32cd" stroke-dasharray="5,2" d="M90.1563,-199.241C128.944,-195.698 181.989,-190.852 215.878,-187.757"/>
<polygon fill="#9a32cd" stroke="#9a32cd" points="89.7633,-195.762 80.1232,-200.157 90.4002,-202.733 89.7633,-195.762"/>
<text text-anchor="middle" x="130" y="-200.731" font-family="Helvetica,sans-Serif" font-size="10.00"> myCustom</text>
</g>
<!-- Node28 -->
<g id="node28" class="node"><title>Node28</title>
<polygon fill="white" stroke="#bfbfbf" points="19.5,-156.231 19.5,-175.231 60.5,-175.231 60.5,-156.231 19.5,-156.231"/>
<text text-anchor="middle" x="40" y="-163.231" font-family="Helvetica,sans-Serif" font-size="10.00">Color</text>
</g>
<!-- Node28&#45;&gt;Node26 -->
<g id="edge33" class="edge"><title>Node28&#45;&gt;Node26</title>
<path fill="none" stroke="#9a32cd" stroke-dasharray="5,2" d="M70.5888,-168.434C108.944,-171.938 175.648,-178.031 215.725,-181.692"/>
<polygon fill="#9a32cd" stroke="#9a32cd" points="70.8451,-164.943 60.5681,-167.519 70.2083,-171.914 70.8451,-164.943"/>
<text text-anchor="middle" x="130" y="-179.731" font-family="Helvetica,sans-Serif" font-size="10.00"> myLineColor</text>
</g>
<!-- Node29 -->
<g id="node29" class="node"><title>Node29</title>
<polygon fill="white" stroke="#bfbfbf" points="226.5,-134.231 226.5,-153.231 273.5,-153.231 273.5,-134.231 226.5,-134.231"/>
<text text-anchor="middle" x="250" y="-141.231" font-family="Helvetica,sans-Serif" font-size="10.00">Image</text>
</g>
<!-- Node29&#45;&gt;Node22 -->
<g id="edge34" class="edge"><title>Node29&#45;&gt;Node22</title>
<path fill="none" stroke="#9a32cd" stroke-dasharray="5,2" d="M283.917,-140.025C322.87,-137.403 387.981,-138.75 432,-169.731 445.982,-179.572 436.463,-193.287 450,-203.731 462.58,-213.437 479.304,-218.31 494.288,-220.711"/>
<polygon fill="#9a32cd" stroke="#9a32cd" points="283.351,-136.56 273.664,-140.849 283.912,-143.537 283.351,-136.56"/>
<text text-anchor="middle" x="385" y="-183.731" font-family="Helvetica,sans-Serif" font-size="10.00"> myDefaultOn</text>
<text text-anchor="middle" x="385" y="-172.731" font-family="Helvetica,sans-Serif" font-size="10.00">myDefaultOff</text>
</g>
<!-- Node30 -->
<g id="node30" class="node"><title>Node30</title>
<polygon fill="white" stroke="#bfbfbf" points="227,-80.2311 227,-99.2311 273,-99.2311 273,-80.2311 227,-80.2311"/>
<text text-anchor="middle" x="250" y="-87.2311" font-family="Helvetica,sans-Serif" font-size="10.00">Group</text>
</g>
<!-- Node30&#45;&gt;Node22 -->
<g id="edge35" class="edge"><title>Node30&#45;&gt;Node22</title>
<path fill="none" stroke="#9a32cd" stroke-dasharray="5,2" d="M283.023,-81.6543C323.155,-73.6255 391.562,-67.1809 432,-103.731 465.502,-134.012 418.914,-170.975 450,-203.731 461.335,-215.675 478.637,-220.749 494.345,-222.703"/>
<polygon fill="#9a32cd" stroke="#9a32cd" points="282.265,-78.2373 273.223,-83.7597 283.735,-85.0811 282.265,-78.2373"/>
<text text-anchor="middle" x="385" y="-128.731" font-family="Helvetica,sans-Serif" font-size="10.00"> myLines</text>
<text text-anchor="middle" x="385" y="-117.731" font-family="Helvetica,sans-Serif" font-size="10.00">myStamps</text>
<text text-anchor="middle" x="385" y="-106.731" font-family="Helvetica,sans-Serif" font-size="10.00">myDrawing</text>
</g>
<!-- Node31 -->
<g id="node31" class="node"><title>Node31</title>
<polygon fill="white" stroke="#bfbfbf" points="180,-42.2311 180,-61.2311 320,-61.2311 320,-42.2311 180,-42.2311"/>
<text text-anchor="middle" x="250" y="-49.2311" font-family="Helvetica,sans-Serif" font-size="10.00">ObservableList&lt; Image &gt;</text>
</g>
<!-- Node31&#45;&gt;Node22 -->
<g id="edge36" class="edge"><title>Node31&#45;&gt;Node22</title>
<path fill="none" stroke="#9a32cd" stroke-dasharray="5,2" d="M293.448,-39.9826C334.361,-31.4857 395.311,-26.7137 432,-60.7311 478.973,-104.284 407.149,-156.117 450,-203.731 461.112,-216.078 478.586,-221.166 494.464,-223.025"/>
<polygon fill="#9a32cd" stroke="#9a32cd" points="292.502,-36.6075 283.505,-42.2018 294.027,-43.4394 292.502,-36.6075"/>
<text text-anchor="middle" x="385" y="-63.7311" font-family="Helvetica,sans-Serif" font-size="10.00"> myTurtleShapes</text>
</g>
<!-- Node32 -->
<g id="node32" class="node"><title>Node32</title>
<polygon fill="white" stroke="#bfbfbf" points="450.5,-390.231 450.5,-409.231 613.5,-409.231 613.5,-390.231 450.5,-390.231"/>
<text text-anchor="middle" x="532" y="-397.231" font-family="Helvetica,sans-Serif" font-size="10.00">Map&lt; String, model.Feature &gt;</text>
</g>
<!-- Node32&#45;&gt;Node16 -->
<g id="edge38" class="edge"><title>Node32&#45;&gt;Node16</title>
<path fill="none" stroke="#9a32cd" stroke-dasharray="5,2" d="M595.467,-388.209C624.951,-382.304 660.5,-374.508 692,-365.731 711.063,-360.42 732.181,-353.069 748.074,-347.233"/>
<polygon fill="#9a32cd" stroke="#9a32cd" points="594.439,-384.844 585.307,-390.217 595.796,-391.711 594.439,-384.844"/>
<text text-anchor="middle" x="662" y="-381.731" font-family="Helvetica,sans-Serif" font-size="10.00"> myFeatures</text>
</g>
<!-- Node33&#45;&gt;Node12 -->
<g id="edge39" class="edge"><title>Node33&#45;&gt;Node12</title>
<path fill="none" stroke="#9a32cd" stroke-dasharray="5,2" d="M442.567,-533.383C498.163,-533.966 585.422,-534.731 661,-534.731 661,-534.731 661,-534.731 1042,-534.731 1105.83,-534.731 1133.8,-544.571 1182,-502.731 1198.89,-488.068 1184.89,-472.225 1200,-455.731 1203.46,-451.955 1207.83,-448.844 1212.39,-446.311"/>
<polygon fill="#9a32cd" stroke="#9a32cd" points="442.26,-529.879 432.224,-533.272 442.186,-536.879 442.26,-529.879"/>
<text text-anchor="middle" x="774" y="-537.731" font-family="Helvetica,sans-Serif" font-size="10.00"> myTokenizer</text>
</g>
<!-- Node34 -->
<g id="node34" class="node"><title>Node34</title>
<polygon fill="white" stroke="#bfbfbf" points="1394.5,-158.231 1394.5,-177.231 1443.5,-177.231 1443.5,-158.231 1394.5,-158.231"/>
<text text-anchor="middle" x="1419" y="-165.231" font-family="Helvetica,sans-Serif" font-size="10.00">Button</text>
</g>
<!-- Node34&#45;&gt;Node8 -->
<g id="edge42" class="edge"><title>Node34&#45;&gt;Node8</title>
<path fill="none" stroke="#9a32cd" stroke-dasharray="5,2" d="M1453.55,-163.872C1486.4,-161.578 1537.07,-162.095 1576,-180.731 1600.8,-192.601 1620.66,-219.435 1630.07,-233.957"/>
<polygon fill="#9a32cd" stroke="#9a32cd" points="1453.22,-160.387 1443.54,-164.696 1453.8,-167.363 1453.22,-160.387"/>
<text text-anchor="middle" x="1533" y="-183.731" font-family="Helvetica,sans-Serif" font-size="10.00"> mySubmitButton</text>
</g>
<!-- Node35 -->
<g id="node35" class="node"><title>Node35</title>
<polygon fill="white" stroke="#bfbfbf" points="1390,-310.231 1390,-329.231 1448,-329.231 1448,-310.231 1390,-310.231"/>
<text text-anchor="middle" x="1419" y="-317.231" font-family="Helvetica,sans-Serif" font-size="10.00">TextArea</text>
</g>
<!-- Node35&#45;&gt;Node8 -->
<g id="edge44" class="edge"><title>Node35&#45;&gt;Node8</title>
<path fill="none" stroke="#9a32cd" stroke-dasharray="5,2" d="M1458.43,-319.045C1491.87,-316.801 1540.41,-309.436 1576,-286.731 1587.24,-279.56 1583.6,-271.074 1594,-262.731 1598.62,-259.025 1604.08,-255.874 1609.5,-253.267"/>
<polygon fill="#9a32cd" stroke="#9a32cd" points="1457.93,-315.566 1448.14,-319.606 1458.32,-322.556 1457.93,-315.566"/>
<text text-anchor="middle" x="1533" y="-317.731" font-family="Helvetica,sans-Serif" font-size="10.00"> myInput</text>
</g>
<!-- Node36 -->
<g id="node36" class="node"><title>Node36</title>
<polygon fill="white" stroke="#bfbfbf" points="1398,-272.231 1398,-291.231 1440,-291.231 1440,-272.231 1398,-272.231"/>
<text text-anchor="middle" x="1419" y="-279.231" font-family="Helvetica,sans-Serif" font-size="10.00">HBox</text>
</g>
<!-- Node36&#45;&gt;Node8 -->
<g id="edge45" class="edge"><title>Node36&#45;&gt;Node8</title>
<path fill="none" stroke="#9a32cd" stroke-dasharray="5,2" d="M1450.63,-278.121C1482.2,-274.19 1532.76,-267.302 1576,-258.731 1583.9,-257.165 1592.32,-255.23 1600.28,-253.275"/>
<polygon fill="#9a32cd" stroke="#9a32cd" points="1449.8,-274.697 1440.3,-279.387 1450.65,-281.645 1449.8,-274.697"/>
<text text-anchor="middle" x="1533" y="-274.731" font-family="Helvetica,sans-Serif" font-size="10.00"> myView</text>
</g>
<!-- Node37 -->
<g id="node37" class="node"><title>Node37</title>
<g id="a_node37"><a xlink:href="../../d0/d12/classview_1_1_results_view.html" target="_top" xlink:title="view.ResultsView">
<polygon fill="white" stroke="black" points="1936.5,-81.2311 1936.5,-100.231 2031.5,-100.231 2031.5,-81.2311 1936.5,-81.2311"/>
<text text-anchor="middle" x="1984" y="-88.2311" font-family="Helvetica,sans-Serif" font-size="10.00">view.ResultsView</text>
</a>
</g>
</g>
<!-- Node37&#45;&gt;Node1 -->
<g id="edge47" class="edge"><title>Node37&#45;&gt;Node1</title>
<path fill="none" stroke="#9a32cd" stroke-dasharray="5,2" d="M2041.96,-86.0739C2062.49,-87.0794 2084.81,-91.557 2102,-103.731 2158.02,-143.398 2176.81,-232.58 2181.61,-262.064"/>
<polygon fill="#9a32cd" stroke="#9a32cd" points="2041.82,-82.5699 2031.74,-85.8412 2041.66,-89.5681 2041.82,-82.5699"/>
<text text-anchor="middle" x="2076" y="-106.731" font-family="Helvetica,sans-Serif" font-size="10.00"> myResults</text>
</g>
<!-- Node38 -->
<g id="node38" class="node"><title>Node38</title>
<polygon fill="white" stroke="#bfbfbf" points="1776,-81.2311 1776,-100.231 1832,-100.231 1832,-81.2311 1776,-81.2311"/>
<text text-anchor="middle" x="1804" y="-88.2311" font-family="Helvetica,sans-Serif" font-size="10.00">TilePane</text>
</g>
<!-- Node38&#45;&gt;Node37 -->
<g id="edge48" class="edge"><title>Node38&#45;&gt;Node37</title>
<path fill="none" stroke="midnightblue" d="M1842.35,-90.7311C1869.69,-90.7311 1906.97,-90.7311 1936.28,-90.7311"/>
<polygon fill="midnightblue" stroke="midnightblue" points="1842.03,-87.2312 1832.03,-90.7311 1842.03,-94.2312 1842.03,-87.2312"/>
</g>
<!-- Node39 -->
<g id="node39" class="node"><title>Node39</title>
<polygon fill="white" stroke="#bfbfbf" points="1786.5,-43.2311 1786.5,-62.2311 1821.5,-62.2311 1821.5,-43.2311 1786.5,-43.2311"/>
<text text-anchor="middle" x="1804" y="-50.2311" font-family="Helvetica,sans-Serif" font-size="10.00">Text</text>
</g>
<!-- Node39&#45;&gt;Node37 -->
<g id="edge49" class="edge"><title>Node39&#45;&gt;Node37</title>
<path fill="none" stroke="#9a32cd" stroke-dasharray="5,2" d="M1831.89,-57.9991C1854.81,-62.5391 1888.61,-69.3505 1918,-75.7311 1925.92,-77.4512 1934.37,-79.3521 1942.47,-81.2064"/>
<polygon fill="#9a32cd" stroke="#9a32cd" points="1832.36,-54.5261 1821.88,-56.0238 1831.01,-61.3937 1832.36,-54.5261"/>
<text text-anchor="middle" x="1892" y="-78.7311" font-family="Helvetica,sans-Serif" font-size="10.00"> myResults</text>
</g>
</g>
</svg>
        <g id="navigator" transform="translate(0 0)" fill="#404254">
                <rect fill="#f2f5e9" fill-opacity="0.5" stroke="#606060" stroke-width=".5" x="0" y="0" width="60" height="60"/>
                <use id="zoomplus" xlink:href="#zoomPlus" x="17" y="9" onmousedown="handleZoom(evt,'in')"/>
                <use id="zoomminus" xlink:href="#zoomMin" x="42" y="9" onmousedown="handleZoom(evt,'out')"/>
                <use id="reset" xlink:href="#resetDef" x="30" y="36" onmousedown="handleReset()"/>
                <g id="arrowUp" xlink:href="#dirArrow" transform="translate(30 24)" onmousedown="handlePan(0,-1)">
                  <use xlink:href="#rim" fill="#404040">
                        <set attributeName="fill" to="#808080" begin="arrowUp.mouseover" end="arrowUp.mouseout"/>
                  </use>
                  <path fill="none" stroke="white" stroke-width="1.5" d="M0,-3.0v7 M-2.5,-0.5L0,-3.0L2.5,-0.5"/>
                </g>
                <g id="arrowRight" xlink:href="#dirArrow" transform="rotate(90) translate(36 -43)" onmousedown="handlePan(1,0)">
                  <use xlink:href="#rim" fill="#404040">
                        <set attributeName="fill" to="#808080" begin="arrowRight.mouseover" end="arrowRight.mouseout"/>
                  </use>
                  <path fill="none" stroke="white" stroke-width="1.5" d="M0,-3.0v7 M-2.5,-0.5L0,-3.0L2.5,-0.5"/>
                </g>
                <g id="arrowDown" xlink:href="#dirArrow" transform="rotate(180) translate(-30 -48)" onmousedown="handlePan(0,1)">
                  <use xlink:href="#rim" fill="#404040">
                        <set attributeName="fill" to="#808080" begin="arrowDown.mouseover" end="arrowDown.mouseout"/>
                  </use>
                  <path fill="none" stroke="white" stroke-width="1.5" d="M0,-3.0v7 M-2.5,-0.5L0,-3.0L2.5,-0.5"/>
                </g>
                <g id="arrowLeft" xlink:href="#dirArrow" transform="rotate(270) translate(-36 17)" onmousedown="handlePan(-1,0)">
                  <use xlink:href="#rim" fill="#404040">
                        <set attributeName="fill" to="#808080" begin="arrowLeft.mouseover" end="arrowLeft.mouseout"/>
                  </use>
                  <path fill="none" stroke="white" stroke-width="1.5" d="M0,-3.0v7 M-2.5,-0.5L0,-3.0L2.5,-0.5"/>
                </g>
        </g>
        <svg viewBox="0 0 15 15" width="100%" height="30px" preserveAspectRatio="xMaxYMin meet">
         <g id="arrow_out" transform="scale(0.3 0.3)">
          <a xlink:href="classview_1_1_history_results_view__coll__graph_org.svg" target="_base">
           <rect id="button" ry="5" rx="5" y="6" x="6" height="38" width="38"
                fill="#f2f5e9" fill-opacity="0.5" stroke="#606060" stroke-width="1.0"/>
           <path id="arrow"
             d="M 11.500037,31.436501 C 11.940474,20.09759 22.043105,11.32322 32.158766,21.979434 L 37.068811,17.246167 C 37.068811,17.246167 37.088388,32 37.088388,32 L 22.160133,31.978069 C 22.160133,31.978069 26.997745,27.140456 26.997745,27.140456 C 18.528582,18.264221 13.291696,25.230495 11.500037,31.436501 z"
             style="fill:#404040;"/>
          </a>
         </g>
        </svg>
</svg>
