<?xml version="1.0" encoding="UTF-8" standalone="no"?>
<!DOCTYPE svg PUBLIC "-//W3C//DTD SVG 1.1//EN"
 "http://www.w3.org/Graphics/SVG/1.1/DTD/svg11.dtd">
<!-- Generated by graphviz version 2.36.0 (20140111.2315)
 -->
<!-- Title: parser.Parser Pages: 1 -->
<!--zoomable 560 -->
<svg id="main" version="1.1" xmlns="http://www.w3.org/2000/svg" xmlns:xlink="http://www.w3.org/1999/xlink" xml:space="preserve" onload="init(evt)">
<style type="text/css"><![CDATA[
.edge:hover path { stroke: red; }
.edge:hover polygon { stroke: red; fill: red; }
]]></style>
<script type="text/javascript"><![CDATA[
var edges = document.getElementsByTagName('g');
if (edges && edges.length) {
  for (var i=0;i<edges.length;i++) {
    if (edges[i].id.substr(0,4)=='edge') {
      edges[i].setAttribute('class','edge');
    }
  }
}
]]></script>
        <defs>
                <circle id="rim" cx="0" cy="0" r="7"/>
                <circle id="rim2" cx="0" cy="0" r="3.5"/>
                <g id="zoomPlus">
                        <use xlink:href="#rim" fill="#404040">
                                <set attributeName="fill" to="#808080" begin="zoomplus.mouseover" end="zoomplus.mouseout"/>
                        </use>
                        <path d="M-4,0h8M0,-4v8" fill="none" stroke="white" stroke-width="1.5" pointer-events="none"/>
                </g>
                <g id="zoomMin">
                        <use xlink:href="#rim" fill="#404040">
                                <set attributeName="fill" to="#808080" begin="zoomminus.mouseover" end="zoomminus.mouseout"/>
                        </use>
                        <path d="M-4,0h8" fill="none" stroke="white" stroke-width="1.5" pointer-events="none"/>
                </g>
                <g id="dirArrow">
                        <path fill="none" stroke="white" stroke-width="1.5" d="M0,-3.0v7 M-2.5,-0.5L0,-3.0L2.5,-0.5"/>
                </g>
               <g id="resetDef">
                       <use xlink:href="#rim2" fill="#404040">
                               <set attributeName="fill" to="#808080" begin="reset.mouseover" end="reset.mouseout"/>
                       </use>
               </g>
        </defs>

<script type="text/javascript">
var viewWidth = 1288;
var viewHeight = 560;
var sectionId = 'dynsection-1';
</script>
<script xlink:href="../../svgpan.js"/>
<svg id="graph" class="graph">
<g id="viewport">
<title>parser.Parser</title>
<polygon fill="white" stroke="none" points="-4,4 -4,-556 1284,-556 1284,4 -4,4"/>
<!-- Node1 -->
<g id="node1" class="node"><title>Node1</title>
<polygon fill="#bfbfbf" stroke="black" points="1200,-477.5 1200,-496.5 1280,-496.5 1280,-477.5 1200,-477.5"/>
<text text-anchor="middle" x="1240" y="-484.5" font-family="Helvetica,sans-Serif" font-size="10.00">parser.Parser</text>
</g>
<!-- Node2 -->
<g id="node2" class="node"><title>Node2</title>
<polygon fill="white" stroke="#bfbfbf" points="4.5,-466.5 4.5,-485.5 75.5,-485.5 75.5,-466.5 4.5,-466.5"/>
<text text-anchor="middle" x="40" y="-473.5" font-family="Helvetica,sans-Serif" font-size="10.00">Serializable</text>
</g>
<!-- Node2&#45;&gt;Node1 -->
<g id="edge1" class="edge"><title>Node2&#45;&gt;Node1</title>
<path fill="none" stroke="midnightblue" d="M85.422,-482.419C127.462,-487.933 192.386,-495 249,-495 249,-495 249,-495 1042,-495 1096.77,-495 1160.03,-491.875 1199.77,-489.531"/>
<polygon fill="midnightblue" stroke="midnightblue" points="85.8832,-478.95 75.5072,-481.092 84.9543,-485.888 85.8832,-478.95"/>
</g>
<!-- Node4 -->
<g id="node4" class="node"><title>Node4</title>
<g id="a_node4"><a xlink:href="../../d3/d96/classparser_1_1_instruction_factory.html" target="_top" xlink:title="parser.InstructionFactory">
<polygon fill="white" stroke="black" points="974,-429.5 974,-448.5 1108,-448.5 1108,-429.5 974,-429.5"/>
<text text-anchor="middle" x="1041" y="-436.5" font-family="Helvetica,sans-Serif" font-size="10.00">parser.InstructionFactory</text>
</a>
</g>
</g>
<!-- Node2&#45;&gt;Node4 -->
<g id="edge4" class="edge"><title>Node2&#45;&gt;Node4</title>
<path fill="none" stroke="midnightblue" d="M85.422,-469.581C127.462,-464.067 192.386,-457 249,-457 249,-457 249,-457 775,-457 842.901,-457 920.365,-451.045 973.925,-445.985"/>
<polygon fill="midnightblue" stroke="midnightblue" points="84.9543,-466.112 75.5072,-470.908 85.8832,-473.05 84.9543,-466.112"/>
</g>
<!-- Node7 -->
<g id="node7" class="node"><title>Node7</title>
<g id="a_node7"><a xlink:href="../../d1/d69/interfacemodel_1_1_feature.html" target="_top" xlink:title="model.Feature">
<polygon fill="white" stroke="black" points="207,-295.5 207,-314.5 293,-314.5 293,-295.5 207,-295.5"/>
<text text-anchor="middle" x="250" y="-302.5" font-family="Helvetica,sans-Serif" font-size="10.00">model.Feature</text>
</a>
</g>
</g>
<!-- Node2&#45;&gt;Node7 -->
<g id="edge9" class="edge"><title>Node2&#45;&gt;Node7</title>
<path fill="none" stroke="midnightblue" d="M52.5978,-457.674C73.8583,-425.605 122.236,-359.366 180,-324 188.159,-319.004 197.653,-315.295 206.94,-312.55"/>
<polygon fill="midnightblue" stroke="midnightblue" points="49.4043,-456.165 46.89,-466.457 55.2738,-459.979 49.4043,-456.165"/>
</g>
<!-- Node23 -->
<g id="node23" class="node"><title>Node23</title>
<g id="a_node23"><a xlink:href="../../de/d6b/classparser_1_1_tokenizer.html" target="_top" xlink:title="parser.Tokenizer">
<polygon fill="white" stroke="black" points="338,-529.5 338,-548.5 432,-548.5 432,-529.5 338,-529.5"/>
<text text-anchor="middle" x="385" y="-536.5" font-family="Helvetica,sans-Serif" font-size="10.00">parser.Tokenizer</text>
</a>
</g>
</g>
<!-- Node2&#45;&gt;Node23 -->
<g id="edge27" class="edge"><title>Node2&#45;&gt;Node23</title>
<path fill="none" stroke="midnightblue" d="M62.1753,-491.128C72.4977,-497.732 85.3854,-504.894 98,-509 179.537,-535.538 280.398,-539.97 337.954,-540.014"/>
<polygon fill="midnightblue" stroke="midnightblue" points="64.0956,-488.201 53.8358,-485.558 60.2076,-494.022 64.0956,-488.201"/>
</g>
<!-- Node3 -->
<g id="node3" class="node"><title>Node3</title>
<polygon fill="white" stroke="#bfbfbf" points="727.5,-354.5 727.5,-373.5 820.5,-373.5 820.5,-354.5 727.5,-354.5"/>
<text text-anchor="middle" x="774" y="-361.5" font-family="Helvetica,sans-Serif" font-size="10.00">ResourceBundle</text>
</g>
<!-- Node3&#45;&gt;Node1 -->
<g id="edge2" class="edge"><title>Node3&#45;&gt;Node1</title>
<path fill="none" stroke="#9a32cd" stroke-dasharray="5,2" d="M830.582,-363.697C898.327,-365.068 1015.23,-373.114 1108,-409 1154.66,-427.049 1203.83,-460.962 1226.37,-477.477"/>
<polygon fill="#9a32cd" stroke="#9a32cd" points="830.603,-360.197 820.548,-363.536 830.49,-367.196 830.603,-360.197"/>
<text text-anchor="middle" x="1041" y="-412" font-family="Helvetica,sans-Serif" font-size="10.00"> myLanguageBundle</text>
</g>
<!-- Node3&#45;&gt;Node4 -->
<g id="edge5" class="edge"><title>Node3&#45;&gt;Node4</title>
<path fill="none" stroke="#9a32cd" stroke-dasharray="5,2" d="M830.716,-371.041C866.99,-376.53 915.008,-385.52 956,-399 980.243,-406.973 1006.56,-420.341 1023.15,-429.408"/>
<polygon fill="#9a32cd" stroke="#9a32cd" points="831.215,-367.577 820.812,-369.584 830.197,-374.502 831.215,-367.577"/>
<text text-anchor="middle" x="906" y="-402" font-family="Helvetica,sans-Serif" font-size="10.00"> myLanguageBundle</text>
</g>
<!-- Node4&#45;&gt;Node1 -->
<g id="edge3" class="edge"><title>Node4&#45;&gt;Node1</title>
<path fill="none" stroke="#9a32cd" stroke-dasharray="5,2" d="M1099.06,-450.663C1124.54,-456.12 1154.88,-462.962 1182,-470 1190.6,-472.231 1199.85,-474.881 1208.35,-477.417"/>
<polygon fill="#9a32cd" stroke="#9a32cd" points="1099.7,-447.22 1089.19,-448.565 1098.24,-454.067 1099.7,-447.22"/>
<text text-anchor="middle" x="1154" y="-473" font-family="Helvetica,sans-Serif" font-size="10.00"> myIFactory</text>
</g>
<!-- Node5 -->
<g id="node5" class="node"><title>Node5</title>
<g id="a_node5"><a xlink:href="../../d8/d36/classmodel_1_1_observable_data.html" target="_top" xlink:title="model.ObservableData">
<polygon fill="white" stroke="black" points="710.5,-392.5 710.5,-411.5 837.5,-411.5 837.5,-392.5 710.5,-392.5"/>
<text text-anchor="middle" x="774" y="-399.5" font-family="Helvetica,sans-Serif" font-size="10.00">model.ObservableData</text>
</a>
</g>
</g>
<!-- Node5&#45;&gt;Node4 -->
<g id="edge6" class="edge"><title>Node5&#45;&gt;Node4</title>
<path fill="none" stroke="#9a32cd" stroke-dasharray="5,2" d="M847.883,-412.176C887.309,-417.681 935.633,-424.428 973.951,-429.778"/>
<polygon fill="#9a32cd" stroke="#9a32cd" points="848.189,-408.685 837.801,-410.768 847.221,-415.618 848.189,-408.685"/>
<text text-anchor="middle" x="906" y="-431" font-family="Helvetica,sans-Serif" font-size="10.00"> myData</text>
</g>
<!-- Node6 -->
<g id="node6" class="node"><title>Node6</title>
<g id="a_node6"><a xlink:href="../../df/db7/classmodel_1_1_turtles_list.html" target="_top" xlink:title="model.TurtlesList">
<polygon fill="white" stroke="black" points="483.5,-333.5 483.5,-352.5 580.5,-352.5 580.5,-333.5 483.5,-333.5"/>
<text text-anchor="middle" x="532" y="-340.5" font-family="Helvetica,sans-Serif" font-size="10.00">model.TurtlesList</text>
</a>
</g>
</g>
<!-- Node6&#45;&gt;Node5 -->
<g id="edge7" class="edge"><title>Node6&#45;&gt;Node5</title>
<path fill="none" stroke="#9a32cd" stroke-dasharray="5,2" d="M590.911,-350.425C621.493,-355.306 659.35,-362.886 692,-374 700.467,-376.882 701.688,-379.697 710,-383 718.812,-386.502 728.532,-389.73 737.645,-392.494"/>
<polygon fill="#9a32cd" stroke="#9a32cd" points="591.253,-346.936 580.836,-348.872 590.186,-353.854 591.253,-346.936"/>
<text text-anchor="middle" x="662" y="-377" font-family="Helvetica,sans-Serif" font-size="10.00"> myTurtles</text>
</g>
<!-- Node7&#45;&gt;Node6 -->
<g id="edge8" class="edge"><title>Node7&#45;&gt;Node6</title>
<path fill="none" stroke="midnightblue" d="M303.179,-312.081C354.828,-319.091 433.225,-329.73 483.268,-336.522"/>
<polygon fill="midnightblue" stroke="midnightblue" points="303.602,-308.607 293.222,-310.73 302.66,-315.543 303.602,-308.607"/>
</g>
<!-- Node11 -->
<g id="node11" class="node"><title>Node11</title>
<g id="a_node11"><a xlink:href="../../d6/d34/classmodel_1_1_turtle.html" target="_top" xlink:title="model.Turtle">
<polygon fill="white" stroke="black" points="494.5,-148.5 494.5,-167.5 569.5,-167.5 569.5,-148.5 494.5,-148.5"/>
<text text-anchor="middle" x="532" y="-155.5" font-family="Helvetica,sans-Serif" font-size="10.00">model.Turtle</text>
</a>
</g>
</g>
<!-- Node7&#45;&gt;Node11 -->
<g id="edge15" class="edge"><title>Node7&#45;&gt;Node11</title>
<path fill="none" stroke="midnightblue" d="M303.509,-304.146C341.421,-301.465 392.655,-293.45 432,-271 477.534,-245.019 512.596,-190.175 525.56,-167.809"/>
<polygon fill="midnightblue" stroke="midnightblue" points="302.961,-300.672 293.19,-304.768 303.382,-307.66 302.961,-300.672"/>
</g>
<!-- Node8 -->
<g id="node8" class="node"><title>Node8</title>
<polygon fill="white" stroke="#bfbfbf" points="193,-333.5 193,-352.5 307,-352.5 307,-333.5 193,-333.5"/>
<text text-anchor="middle" x="250" y="-340.5" font-family="Helvetica,sans-Serif" font-size="10.00">List&lt; model.Turtle &gt;</text>
</g>
<!-- Node8&#45;&gt;Node6 -->
<g id="edge10" class="edge"><title>Node8&#45;&gt;Node6</title>
<path fill="none" stroke="#9a32cd" stroke-dasharray="5,2" d="M317.584,-343C368.531,-343 437.567,-343 483.152,-343"/>
<polygon fill="#9a32cd" stroke="#9a32cd" points="317.325,-339.5 307.325,-343 317.325,-346.5 317.325,-339.5"/>
<text text-anchor="middle" x="385" y="-346" font-family="Helvetica,sans-Serif" font-size="10.00"> allTurtles</text>
</g>
<!-- Node9 -->
<g id="node9" class="node"><title>Node9</title>
<polygon fill="white" stroke="#bfbfbf" points="180.5,-409.5 180.5,-428.5 319.5,-428.5 319.5,-409.5 180.5,-409.5"/>
<text text-anchor="middle" x="250" y="-416.5" font-family="Helvetica,sans-Serif" font-size="10.00">Stack&lt; List&lt; Integer &gt; &gt;</text>
</g>
<!-- Node9&#45;&gt;Node6 -->
<g id="edge11" class="edge"><title>Node9&#45;&gt;Node6</title>
<path fill="none" stroke="#9a32cd" stroke-dasharray="5,2" d="M329.977,-417.228C363.49,-413.401 401.717,-404.726 432,-386 443.34,-378.987 438.839,-369.294 450,-362 459.915,-355.52 471.788,-351.243 483.349,-348.421"/>
<polygon fill="#9a32cd" stroke="#9a32cd" points="329.338,-413.774 319.742,-418.265 330.044,-420.739 329.338,-413.774"/>
<text text-anchor="middle" x="385" y="-420" font-family="Helvetica,sans-Serif" font-size="10.00"> turtleScope</text>
</g>
<!-- Node10 -->
<g id="node10" class="node"><title>Node10</title>
<polygon fill="white" stroke="#bfbfbf" points="205.5,-371.5 205.5,-390.5 294.5,-390.5 294.5,-371.5 205.5,-371.5"/>
<text text-anchor="middle" x="250" y="-378.5" font-family="Helvetica,sans-Serif" font-size="10.00">List&lt; Integer &gt;</text>
</g>
<!-- Node10&#45;&gt;Node6 -->
<g id="edge12" class="edge"><title>Node10&#45;&gt;Node6</title>
<path fill="none" stroke="#9a32cd" stroke-dasharray="5,2" d="M304.847,-374.501C340.867,-370.068 389.311,-363.945 432,-358 448.787,-355.662 467.147,-352.929 483.448,-350.441"/>
<polygon fill="#9a32cd" stroke="#9a32cd" points="304.06,-371.071 294.56,-375.762 304.912,-378.019 304.06,-371.071"/>
<text text-anchor="middle" x="385" y="-374" font-family="Helvetica,sans-Serif" font-size="10.00"> activeIDs</text>
</g>
<!-- Node11&#45;&gt;Node5 -->
<g id="edge13" class="edge"><title>Node11&#45;&gt;Node5</title>
<path fill="none" stroke="#9a32cd" stroke-dasharray="5,2" d="M550.164,-174.755C581.382,-205.894 648.263,-275.742 692,-344 702.299,-360.074 695.593,-370.475 710,-383 714.483,-386.898 719.744,-389.996 725.283,-392.458"/>
<polygon fill="#9a32cd" stroke="#9a32cd" points="552.601,-172.243 543.031,-167.697 547.677,-177.218 552.601,-172.243"/>
<text text-anchor="middle" x="662" y="-347" font-family="Helvetica,sans-Serif" font-size="10.00"> myTurtle</text>
</g>
<!-- Node12 -->
<g id="node12" class="node"><title>Node12</title>
<g id="a_node12"><a xlink:href="../../d5/dad/classmodel_1_1_turtle_abstract.html" target="_top" xlink:title="model.TurtleAbstract">
<polygon fill="white" stroke="black" points="192,-76.5 192,-95.5 308,-95.5 308,-76.5 192,-76.5"/>
<text text-anchor="middle" x="250" y="-83.5" font-family="Helvetica,sans-Serif" font-size="10.00">model.TurtleAbstract</text>
</a>
</g>
</g>
<!-- Node12&#45;&gt;Node11 -->
<g id="edge14" class="edge"><title>Node12&#45;&gt;Node11</title>
<path fill="none" stroke="midnightblue" d="M303.797,-97.7848C339.995,-106.05 389.052,-117.616 432,-129 454.852,-135.057 480.459,-142.578 499.904,-148.443"/>
<polygon fill="midnightblue" stroke="midnightblue" points="304.471,-94.3488 293.944,-95.544 302.919,-101.175 304.471,-94.3488"/>
</g>
<!-- Node13 -->
<g id="node13" class="node"><title>Node13</title>
<polygon fill="white" stroke="#bfbfbf" points="226.5,-38.5 226.5,-57.5 273.5,-57.5 273.5,-38.5 226.5,-38.5"/>
<text text-anchor="middle" x="250" y="-45.5" font-family="Helvetica,sans-Serif" font-size="10.00">Tooltip</text>
</g>
<!-- Node13&#45;&gt;Node11 -->
<g id="edge16" class="edge"><title>Node13&#45;&gt;Node11</title>
<path fill="none" stroke="#9a32cd" stroke-dasharray="5,2" d="M283.809,-52.1523C320.969,-57.6727 382.752,-69.3543 432,-91 466.769,-106.282 502.418,-133.952 519.922,-148.491"/>
<polygon fill="#9a32cd" stroke="#9a32cd" points="283.953,-48.6376 273.56,-50.6939 282.967,-55.5678 283.953,-48.6376"/>
<text text-anchor="middle" x="385" y="-94" font-family="Helvetica,sans-Serif" font-size="10.00"> myTurtleInfo</text>
</g>
<!-- Node14 -->
<g id="node14" class="node"><title>Node14</title>
<polygon fill="white" stroke="#bfbfbf" points="216,-0.5 216,-19.5 284,-19.5 284,-0.5 216,-0.5"/>
<text text-anchor="middle" x="250" y="-7.5" font-family="Helvetica,sans-Serif" font-size="10.00">ImageView</text>
</g>
<!-- Node14&#45;&gt;Node11 -->
<g id="edge17" class="edge"><title>Node14&#45;&gt;Node11</title>
<path fill="none" stroke="#9a32cd" stroke-dasharray="5,2" d="M294.569,-11.5926C333.013,-14.6879 389.398,-23.4684 432,-48 476.53,-73.642 511.907,-126.357 525.253,-148.193"/>
<polygon fill="#9a32cd" stroke="#9a32cd" points="294.45,-8.07557 284.228,-10.862 293.956,-15.0582 294.45,-8.07557"/>
<text text-anchor="middle" x="385" y="-51" font-family="Helvetica,sans-Serif" font-size="10.00"> myImage</text>
</g>
<!-- Node15 -->
<g id="node15" class="node"><title>Node15</title>
<g id="a_node15"><a xlink:href="../../de/ded/classmodel_1_1_pen.html" target="_top" xlink:title="model.Pen">
<polygon fill="white" stroke="black" points="216,-249.5 216,-268.5 284,-268.5 284,-249.5 216,-249.5"/>
<text text-anchor="middle" x="250" y="-256.5" font-family="Helvetica,sans-Serif" font-size="10.00">model.Pen</text>
</a>
</g>
</g>
<!-- Node15&#45;&gt;Node11 -->
<g id="edge18" class="edge"><title>Node15&#45;&gt;Node11</title>
<path fill="none" stroke="#9a32cd" stroke-dasharray="5,2" d="M294.177,-259.187C331.906,-257.938 387.458,-252.622 432,-234 469.784,-218.204 505.738,-184.307 521.97,-167.646"/>
<polygon fill="#9a32cd" stroke="#9a32cd" points="293.942,-255.692 284.032,-259.44 294.116,-262.69 293.942,-255.692"/>
<text text-anchor="middle" x="385" y="-259" font-family="Helvetica,sans-Serif" font-size="10.00"> myPen</text>
</g>
<!-- Node16 -->
<g id="node16" class="node"><title>Node16</title>
<polygon fill="white" stroke="#bfbfbf" points="0,-268.5 0,-287.5 80,-287.5 80,-268.5 0,-268.5"/>
<text text-anchor="middle" x="40" y="-275.5" font-family="Helvetica,sans-Serif" font-size="10.00">List&lt; Color &gt;</text>
</g>
<!-- Node16&#45;&gt;Node15 -->
<g id="edge19" class="edge"><title>Node16&#45;&gt;Node15</title>
<path fill="none" stroke="#9a32cd" stroke-dasharray="5,2" d="M90.1563,-273.51C128.944,-269.967 181.989,-265.121 215.878,-262.026"/>
<polygon fill="#9a32cd" stroke="#9a32cd" points="89.7633,-270.031 80.1232,-274.426 90.4002,-277.002 89.7633,-270.031"/>
<text text-anchor="middle" x="130" y="-276" font-family="Helvetica,sans-Serif" font-size="10.00"> myCustom</text>
</g>
<!-- Node17 -->
<g id="node17" class="node"><title>Node17</title>
<polygon fill="white" stroke="#bfbfbf" points="19.5,-230.5 19.5,-249.5 60.5,-249.5 60.5,-230.5 19.5,-230.5"/>
<text text-anchor="middle" x="40" y="-237.5" font-family="Helvetica,sans-Serif" font-size="10.00">Color</text>
</g>
<!-- Node17&#45;&gt;Node15 -->
<g id="edge20" class="edge"><title>Node17&#45;&gt;Node15</title>
<path fill="none" stroke="#9a32cd" stroke-dasharray="5,2" d="M70.5888,-242.703C108.944,-246.206 175.648,-252.3 215.725,-255.96"/>
<polygon fill="#9a32cd" stroke="#9a32cd" points="70.8451,-239.212 60.5681,-241.787 70.2083,-246.183 70.8451,-239.212"/>
<text text-anchor="middle" x="130" y="-254" font-family="Helvetica,sans-Serif" font-size="10.00"> myLineColor</text>
</g>
<!-- Node18 -->
<g id="node18" class="node"><title>Node18</title>
<polygon fill="white" stroke="#bfbfbf" points="226.5,-204.5 226.5,-223.5 273.5,-223.5 273.5,-204.5 226.5,-204.5"/>
<text text-anchor="middle" x="250" y="-211.5" font-family="Helvetica,sans-Serif" font-size="10.00">Image</text>
</g>
<!-- Node18&#45;&gt;Node11 -->
<g id="edge21" class="edge"><title>Node18&#45;&gt;Node11</title>
<path fill="none" stroke="#9a32cd" stroke-dasharray="5,2" d="M283.626,-212.102C320.144,-209.501 380.896,-203.744 432,-192 458.567,-185.895 487.99,-175.271 507.801,-167.52"/>
<polygon fill="#9a32cd" stroke="#9a32cd" points="283.295,-208.616 273.553,-212.782 283.767,-215.6 283.295,-208.616"/>
<text text-anchor="middle" x="385" y="-222" font-family="Helvetica,sans-Serif" font-size="10.00"> myDefaultOn</text>
<text text-anchor="middle" x="385" y="-211" font-family="Helvetica,sans-Serif" font-size="10.00">myDefaultOff</text>
</g>
<!-- Node19 -->
<g id="node19" class="node"><title>Node19</title>
<polygon fill="white" stroke="#bfbfbf" points="227,-152.5 227,-171.5 273,-171.5 273,-152.5 227,-152.5"/>
<text text-anchor="middle" x="250" y="-159.5" font-family="Helvetica,sans-Serif" font-size="10.00">Group</text>
</g>
<!-- Node19&#45;&gt;Node11 -->
<g id="edge22" class="edge"><title>Node19&#45;&gt;Node11</title>
<path fill="none" stroke="#9a32cd" stroke-dasharray="5,2" d="M283.317,-160.66C299.697,-160.039 319.903,-159.359 338,-159 392.439,-157.921 455.531,-157.809 494.356,-157.871"/>
<polygon fill="#9a32cd" stroke="#9a32cd" points="283.021,-157.169 273.165,-161.057 283.294,-164.164 283.021,-157.169"/>
<text text-anchor="middle" x="385" y="-184" font-family="Helvetica,sans-Serif" font-size="10.00"> myLines</text>
<text text-anchor="middle" x="385" y="-173" font-family="Helvetica,sans-Serif" font-size="10.00">myStamps</text>
<text text-anchor="middle" x="385" y="-162" font-family="Helvetica,sans-Serif" font-size="10.00">myDrawing</text>
</g>
<!-- Node20 -->
<g id="node20" class="node"><title>Node20</title>
<polygon fill="white" stroke="#bfbfbf" points="180,-114.5 180,-133.5 320,-133.5 320,-114.5 180,-114.5"/>
<text text-anchor="middle" x="250" y="-121.5" font-family="Helvetica,sans-Serif" font-size="10.00">ObservableList&lt; Image &gt;</text>
</g>
<!-- Node20&#45;&gt;Node11 -->
<g id="edge23" class="edge"><title>Node20&#45;&gt;Node11</title>
<path fill="none" stroke="#9a32cd" stroke-dasharray="5,2" d="M330.364,-131.537C362.02,-134.751 398.772,-138.741 432,-143 452.691,-145.652 475.737,-149.114 494.384,-152.043"/>
<polygon fill="#9a32cd" stroke="#9a32cd" points="330.576,-128.041 320.276,-130.522 329.875,-135.006 330.576,-128.041"/>
<text text-anchor="middle" x="385" y="-146" font-family="Helvetica,sans-Serif" font-size="10.00"> myTurtleShapes</text>
</g>
<!-- Node21 -->
<g id="node21" class="node"><title>Node21</title>
<polygon fill="white" stroke="#bfbfbf" points="508.5,-409.5 508.5,-428.5 555.5,-428.5 555.5,-409.5 508.5,-409.5"/>
<text text-anchor="middle" x="532" y="-416.5" font-family="Helvetica,sans-Serif" font-size="10.00">Locale</text>
</g>
<!-- Node21&#45;&gt;Node5 -->
<g id="edge24" class="edge"><title>Node21&#45;&gt;Node5</title>
<path fill="none" stroke="#9a32cd" stroke-dasharray="5,2" d="M565.809,-416.676C602.861,-414.051 664.012,-409.72 710.3,-406.441"/>
<polygon fill="#9a32cd" stroke="#9a32cd" points="565.306,-413.203 555.579,-417.401 565.801,-420.185 565.306,-413.203"/>
<text text-anchor="middle" x="662" y="-415" font-family="Helvetica,sans-Serif" font-size="10.00"> myLocale</text>
</g>
<!-- Node22 -->
<g id="node22" class="node"><title>Node22</title>
<polygon fill="white" stroke="#bfbfbf" points="450.5,-371.5 450.5,-390.5 613.5,-390.5 613.5,-371.5 450.5,-371.5"/>
<text text-anchor="middle" x="532" y="-378.5" font-family="Helvetica,sans-Serif" font-size="10.00">Map&lt; String, model.Feature &gt;</text>
</g>
<!-- Node22&#45;&gt;Node5 -->
<g id="edge25" class="edge"><title>Node22&#45;&gt;Node5</title>
<path fill="none" stroke="#9a32cd" stroke-dasharray="5,2" d="M623.676,-387.287C646.025,-388.99 669.89,-390.938 692,-393 697.917,-393.552 704.073,-394.165 710.229,-394.804"/>
<polygon fill="#9a32cd" stroke="#9a32cd" points="623.761,-383.784 613.526,-386.522 623.235,-390.764 623.761,-383.784"/>
<text text-anchor="middle" x="662" y="-396" font-family="Helvetica,sans-Serif" font-size="10.00"> myFeatures</text>
</g>
<!-- Node23&#45;&gt;Node1 -->
<g id="edge26" class="edge"><title>Node23&#45;&gt;Node1</title>
<path fill="none" stroke="#9a32cd" stroke-dasharray="5,2" d="M442.567,-539.652C498.163,-540.235 585.422,-541 661,-541 661,-541 661,-541 1042,-541 1108.49,-541 1183.26,-512.032 1218.52,-496.53"/>
<polygon fill="#9a32cd" stroke="#9a32cd" points="442.26,-536.148 432.224,-539.541 442.186,-543.148 442.26,-536.148"/>
<text text-anchor="middle" x="774" y="-544" font-family="Helvetica,sans-Serif" font-size="10.00"> myTokenizer</text>
</g>
</g>
</svg>
        <g id="navigator" transform="translate(0 0)" fill="#404254">
                <rect fill="#f2f5e9" fill-opacity="0.5" stroke="#606060" stroke-width=".5" x="0" y="0" width="60" height="60"/>
                <use id="zoomplus" xlink:href="#zoomPlus" x="17" y="9" onmousedown="handleZoom(evt,'in')"/>
                <use id="zoomminus" xlink:href="#zoomMin" x="42" y="9" onmousedown="handleZoom(evt,'out')"/>
                <use id="reset" xlink:href="#resetDef" x="30" y="36" onmousedown="handleReset()"/>
                <g id="arrowUp" xlink:href="#dirArrow" transform="translate(30 24)" onmousedown="handlePan(0,-1)">
                  <use xlink:href="#rim" fill="#404040">
                        <set attributeName="fill" to="#808080" begin="arrowUp.mouseover" end="arrowUp.mouseout"/>
                  </use>
                  <path fill="none" stroke="white" stroke-width="1.5" d="M0,-3.0v7 M-2.5,-0.5L0,-3.0L2.5,-0.5"/>
                </g>
                <g id="arrowRight" xlink:href="#dirArrow" transform="rotate(90) translate(36 -43)" onmousedown="handlePan(1,0)">
                  <use xlink:href="#rim" fill="#404040">
                        <set attributeName="fill" to="#808080" begin="arrowRight.mouseover" end="arrowRight.mouseout"/>
                  </use>
                  <path fill="none" stroke="white" stroke-width="1.5" d="M0,-3.0v7 M-2.5,-0.5L0,-3.0L2.5,-0.5"/>
                </g>
                <g id="arrowDown" xlink:href="#dirArrow" transform="rotate(180) translate(-30 -48)" onmousedown="handlePan(0,1)">
                  <use xlink:href="#rim" fill="#404040">
                        <set attributeName="fill" to="#808080" begin="arrowDown.mouseover" end="arrowDown.mouseout"/>
                  </use>
                  <path fill="none" stroke="white" stroke-width="1.5" d="M0,-3.0v7 M-2.5,-0.5L0,-3.0L2.5,-0.5"/>
                </g>
                <g id="arrowLeft" xlink:href="#dirArrow" transform="rotate(270) translate(-36 17)" onmousedown="handlePan(-1,0)">
                  <use xlink:href="#rim" fill="#404040">
                        <set attributeName="fill" to="#808080" begin="arrowLeft.mouseover" end="arrowLeft.mouseout"/>
                  </use>
                  <path fill="none" stroke="white" stroke-width="1.5" d="M0,-3.0v7 M-2.5,-0.5L0,-3.0L2.5,-0.5"/>
                </g>
        </g>
        <svg viewBox="0 0 15 15" width="100%" height="30px" preserveAspectRatio="xMaxYMin meet">
         <g id="arrow_out" transform="scale(0.3 0.3)">
          <a xlink:href="classparser_1_1_parser__coll__graph_org.svg" target="_base">
           <rect id="button" ry="5" rx="5" y="6" x="6" height="38" width="38"
                fill="#f2f5e9" fill-opacity="0.5" stroke="#606060" stroke-width="1.0"/>
           <path id="arrow"
             d="M 11.500037,31.436501 C 11.940474,20.09759 22.043105,11.32322 32.158766,21.979434 L 37.068811,17.246167 C 37.068811,17.246167 37.088388,32 37.088388,32 L 22.160133,31.978069 C 22.160133,31.978069 26.997745,27.140456 26.997745,27.140456 C 18.528582,18.264221 13.291696,25.230495 11.500037,31.436501 z"
             style="fill:#404040;"/>
          </a>
         </g>
        </svg>
</svg>
