<?xml version="1.0" encoding="UTF-8" standalone="no"?>
<!DOCTYPE svg PUBLIC "-//W3C//DTD SVG 1.1//EN"
 "http://www.w3.org/Graphics/SVG/1.1/DTD/svg11.dtd">
<!-- Generated by graphviz version 2.36.0 (20140111.2315)
 -->
<!-- Title: instructions.commands.Left.execute Pages: 1 -->
<svg width="674pt" height="28pt"
 viewBox="0.00 0.00 674.00 28.00" xmlns="http://www.w3.org/2000/svg" xmlns:xlink="http://www.w3.org/1999/xlink">
<g id="graph0" class="graph" transform="scale(1 1) rotate(0) translate(4 24)">
<title>instructions.commands.Left.execute</title>
<polygon fill="white" stroke="none" points="-4,4 -4,-24 670,-24 670,4 -4,4"/>
<!-- Node1 -->
<g id="node1" class="node"><title>Node1</title>
<polygon fill="#bfbfbf" stroke="black" points="0.5,-0.5 0.5,-19.5 191.5,-19.5 191.5,-0.5 0.5,-0.5"/>
<text text-anchor="middle" x="96" y="-7.5" font-family="Helvetica,sans-Serif" font-size="10.00">instructions.commands.Left.execute</text>
</g>
<!-- Node2 -->
<g id="node2" class="node"><title>Node2</title>
<g id="a_node2"><a xlink:href="../../d6/d34/classmodel_1_1_turtle.html#a83b066c32b3610e2b890169df88b94ed" target="_top" xlink:title="model.Turtle.rotate">
<polygon fill="white" stroke="black" points="228.5,-0.5 228.5,-19.5 335.5,-19.5 335.5,-0.5 228.5,-0.5"/>
<text text-anchor="middle" x="282" y="-7.5" font-family="Helvetica,sans-Serif" font-size="10.00">model.Turtle.rotate</text>
</a>
</g>
</g>
<!-- Node1&#45;&gt;Node2 -->
<g id="edge1" class="edge"><title>Node1&#45;&gt;Node2</title>
<path fill="none" stroke="midnightblue" d="M191.695,-10C200.584,-10 209.44,-10 217.93,-10"/>
<polygon fill="midnightblue" stroke="midnightblue" points="218.082,-13.5001 228.082,-10 218.082,-6.5001 218.082,-13.5001"/>
</g>
<!-- Node3 -->
<g id="node3" class="node"><title>Node3</title>
<g id="a_node3"><a xlink:href="../../d6/d34/classmodel_1_1_turtle.html#a138e6be2a3c83aea4ef698bf9e499bcf" target="_top" xlink:title="model.Turtle.setTurtleInfo">
<polygon fill="white" stroke="black" points="372,-0.5 372,-19.5 508,-19.5 508,-0.5 372,-0.5"/>
<text text-anchor="middle" x="440" y="-7.5" font-family="Helvetica,sans-Serif" font-size="10.00">model.Turtle.setTurtleInfo</text>
</a>
</g>
</g>
<!-- Node2&#45;&gt;Node3 -->
<g id="edge2" class="edge"><title>Node2&#45;&gt;Node3</title>
<path fill="none" stroke="midnightblue" d="M335.814,-10C344.137,-10 352.888,-10 361.629,-10"/>
<polygon fill="midnightblue" stroke="midnightblue" points="361.859,-13.5001 371.859,-10 361.859,-6.5001 361.859,-13.5001"/>
</g>
<!-- Node4 -->
<g id="node4" class="node"><title>Node4</title>
<g id="a_node4"><a xlink:href="../../d6/d34/classmodel_1_1_turtle.html#a61d79b71c878b0c64adeab038483da7a" target="_top" xlink:title="model.Turtle.getAngle">
<polygon fill="white" stroke="black" points="544.5,-0.5 544.5,-19.5 665.5,-19.5 665.5,-0.5 544.5,-0.5"/>
<text text-anchor="middle" x="605" y="-7.5" font-family="Helvetica,sans-Serif" font-size="10.00">model.Turtle.getAngle</text>
</a>
</g>
</g>
<!-- Node3&#45;&gt;Node4 -->
<g id="edge3" class="edge"><title>Node3&#45;&gt;Node4</title>
<path fill="none" stroke="midnightblue" d="M508.239,-10C516.875,-10 525.73,-10 534.402,-10"/>
<polygon fill="midnightblue" stroke="midnightblue" points="534.474,-13.5001 544.474,-10 534.474,-6.5001 534.474,-13.5001"/>
</g>
</g>
</svg>
