<?xml version="1.0" encoding="UTF-8" standalone="no"?>
<!DOCTYPE svg PUBLIC "-//W3C//DTD SVG 1.1//EN"
 "http://www.w3.org/Graphics/SVG/1.1/DTD/svg11.dtd">
<!-- Generated by graphviz version 2.36.0 (20140111.2315)
 -->
<!-- Title: instructions.commands.YCoordinate.execute Pages: 1 -->
<svg width="426pt" height="77pt"
 viewBox="0.00 0.00 426.00 77.00" xmlns="http://www.w3.org/2000/svg" xmlns:xlink="http://www.w3.org/1999/xlink">
<g id="graph0" class="graph" transform="scale(1 1) rotate(0) translate(4 73)">
<title>instructions.commands.YCoordinate.execute</title>
<polygon fill="white" stroke="none" points="-4,4 -4,-73 422,-73 422,4 -4,4"/>
<!-- Node1 -->
<g id="node1" class="node"><title>Node1</title>
<polygon fill="#bfbfbf" stroke="black" points="0,-27.5 0,-46.5 230,-46.5 230,-27.5 0,-27.5"/>
<text text-anchor="middle" x="115" y="-34.5" font-family="Helvetica,sans-Serif" font-size="10.00">instructions.commands.YCoordinate.execute</text>
</g>
<!-- Node2 -->
<g id="node2" class="node"><title>Node2</title>
<g id="a_node2"><a xlink:href="../../d6/d34/classmodel_1_1_turtle.html#af4d13fd725022de1c10e3a4d26e4cd05" target="_top" xlink:title="model.Turtle.getCoordinates">
<polygon fill="white" stroke="black" points="266,-49.5 266,-68.5 418,-68.5 418,-49.5 266,-49.5"/>
<text text-anchor="middle" x="342" y="-56.5" font-family="Helvetica,sans-Serif" font-size="10.00">model.Turtle.getCoordinates</text>
</a>
</g>
</g>
<!-- Node1&#45;&gt;Node2 -->
<g id="edge1" class="edge"><title>Node1&#45;&gt;Node2</title>
<path fill="none" stroke="midnightblue" d="M213.38,-46.5216C227.524,-47.9046 241.993,-49.3193 255.871,-50.6763"/>
<polygon fill="midnightblue" stroke="midnightblue" points="255.565,-54.163 265.858,-51.6528 256.246,-47.1962 255.565,-54.163"/>
</g>
<!-- Node3 -->
<g id="node3" class="node"><title>Node3</title>
<g id="a_node3"><a xlink:href="../../d8/d36/classmodel_1_1_observable_data.html#aa585e00721a74cba9ab459079945e15b" target="_top" xlink:title="model.ObservableData.get\lTurtle">
<polygon fill="white" stroke="black" points="269,-0 269,-30 415,-30 415,-0 269,-0"/>
<text text-anchor="start" x="277" y="-18" font-family="Helvetica,sans-Serif" font-size="10.00">model.ObservableData.get</text>
<text text-anchor="middle" x="342" y="-7" font-family="Helvetica,sans-Serif" font-size="10.00">Turtle</text>
</a>
</g>
</g>
<!-- Node1&#45;&gt;Node3 -->
<g id="edge2" class="edge"><title>Node1&#45;&gt;Node3</title>
<path fill="none" stroke="midnightblue" d="M213.38,-27.4784C228.53,-25.9971 244.053,-24.4793 258.822,-23.0352"/>
<polygon fill="midnightblue" stroke="midnightblue" points="259.301,-26.5051 268.913,-22.0485 258.62,-19.5384 259.301,-26.5051"/>
</g>
</g>
</svg>
