<?xml version="1.0" encoding="UTF-8" standalone="no"?>
<!DOCTYPE svg PUBLIC "-//W3C//DTD SVG 1.1//EN"
 "http://www.w3.org/Graphics/SVG/1.1/DTD/svg11.dtd">
<!-- Generated by graphviz version 2.36.0 (20140111.2315)
 -->
<!-- Title: model.TurtlesList Pages: 1 -->
<svg width="490pt" height="154pt"
 viewBox="0.00 0.00 490.00 154.00" xmlns="http://www.w3.org/2000/svg" xmlns:xlink="http://www.w3.org/1999/xlink">
<g id="graph0" class="graph" transform="scale(1 1) rotate(0) translate(4 150)">
<title>model.TurtlesList</title>
<polygon fill="white" stroke="none" points="-4,4 -4,-150 486,-150 486,4 -4,4"/>
<!-- Node1 -->
<g id="node1" class="node"><title>Node1</title>
<polygon fill="#bfbfbf" stroke="black" points="184.5,-0.5 184.5,-19.5 281.5,-19.5 281.5,-0.5 184.5,-0.5"/>
<text text-anchor="middle" x="233" y="-7.5" font-family="Helvetica,sans-Serif" font-size="10.00">model.TurtlesList</text>
</g>
<!-- Node2 -->
<g id="node2" class="node"><title>Node2</title>
<g id="a_node2"><a xlink:href="../../d1/d69/interfacemodel_1_1_feature.html" target="_top" xlink:title="model.Feature">
<polygon fill="white" stroke="black" points="0,-68.5 0,-87.5 86,-87.5 86,-68.5 0,-68.5"/>
<text text-anchor="middle" x="43" y="-75.5" font-family="Helvetica,sans-Serif" font-size="10.00">model.Feature</text>
</a>
</g>
</g>
<!-- Node2&#45;&gt;Node1 -->
<g id="edge1" class="edge"><title>Node2&#45;&gt;Node1</title>
<path fill="none" stroke="midnightblue" d="M77.4212,-65.0432C115.258,-51.8998 175.092,-31.1153 208.456,-19.5259"/>
<polygon fill="midnightblue" stroke="midnightblue" points="76.137,-61.784 67.8392,-68.3717 78.434,-68.3964 76.137,-61.784"/>
</g>
<!-- Node3 -->
<g id="node3" class="node"><title>Node3</title>
<polygon fill="white" stroke="#bfbfbf" points="7.5,-126.5 7.5,-145.5 78.5,-145.5 78.5,-126.5 7.5,-126.5"/>
<text text-anchor="middle" x="43" y="-133.5" font-family="Helvetica,sans-Serif" font-size="10.00">Serializable</text>
</g>
<!-- Node3&#45;&gt;Node2 -->
<g id="edge2" class="edge"><title>Node3&#45;&gt;Node2</title>
<path fill="none" stroke="midnightblue" d="M43,-115.953C43,-106.287 43,-95.0312 43,-87.5052"/>
<polygon fill="midnightblue" stroke="midnightblue" points="39.5001,-116.25 43,-126.25 46.5001,-116.25 39.5001,-116.25"/>
</g>
<!-- Node4 -->
<g id="node4" class="node"><title>Node4</title>
<polygon fill="white" stroke="#bfbfbf" points="104,-68.5 104,-87.5 218,-87.5 218,-68.5 104,-68.5"/>
<text text-anchor="middle" x="161" y="-75.5" font-family="Helvetica,sans-Serif" font-size="10.00">List&lt; model.Turtle &gt;</text>
</g>
<!-- Node4&#45;&gt;Node1 -->
<g id="edge3" class="edge"><title>Node4&#45;&gt;Node1</title>
<path fill="none" stroke="#9a32cd" stroke-dasharray="5,2" d="M178.005,-61.4122C192.149,-48.4468 211.775,-30.4559 223.355,-19.8411"/>
<polygon fill="#9a32cd" stroke="#9a32cd" points="175.419,-59.0343 170.413,-68.3717 180.149,-64.1944 175.419,-59.0343"/>
<text text-anchor="middle" x="226.5" y="-41.5" font-family="Helvetica,sans-Serif" font-size="10.00"> allTurtles</text>
</g>
<!-- Node5 -->
<g id="node5" class="node"><title>Node5</title>
<polygon fill="white" stroke="#bfbfbf" points="236.5,-68.5 236.5,-87.5 375.5,-87.5 375.5,-68.5 236.5,-68.5"/>
<text text-anchor="middle" x="306" y="-75.5" font-family="Helvetica,sans-Serif" font-size="10.00">Stack&lt; List&lt; Integer &gt; &gt;</text>
</g>
<!-- Node5&#45;&gt;Node1 -->
<g id="edge4" class="edge"><title>Node5&#45;&gt;Node1</title>
<path fill="none" stroke="#9a32cd" stroke-dasharray="5,2" d="M288.759,-61.4122C274.418,-48.4468 254.519,-30.4559 242.779,-19.8411"/>
<polygon fill="#9a32cd" stroke="#9a32cd" points="286.691,-64.2614 296.457,-68.3717 291.386,-59.0689 286.691,-64.2614"/>
<text text-anchor="middle" x="306.5" y="-41.5" font-family="Helvetica,sans-Serif" font-size="10.00"> turtleScope</text>
</g>
<!-- Node6 -->
<g id="node6" class="node"><title>Node6</title>
<polygon fill="white" stroke="#bfbfbf" points="393.5,-68.5 393.5,-87.5 482.5,-87.5 482.5,-68.5 393.5,-68.5"/>
<text text-anchor="middle" x="438" y="-75.5" font-family="Helvetica,sans-Serif" font-size="10.00">List&lt; Integer &gt;</text>
</g>
<!-- Node6&#45;&gt;Node1 -->
<g id="edge5" class="edge"><title>Node6&#45;&gt;Node1</title>
<path fill="none" stroke="#9a32cd" stroke-dasharray="5,2" d="M409.313,-64.425C389.968,-56.2337 363.738,-45.6814 340,-38 317.762,-30.8038 292.418,-24.3345 271.98,-19.5335"/>
<polygon fill="#9a32cd" stroke="#9a32cd" points="408.182,-67.7478 418.752,-68.4656 410.936,-61.3127 408.182,-67.7478"/>
<text text-anchor="middle" x="396.5" y="-41.5" font-family="Helvetica,sans-Serif" font-size="10.00"> activeIDs</text>
</g>
</g>
</svg>
