<?xml version="1.0" encoding="UTF-8" standalone="no"?>
<!DOCTYPE svg PUBLIC "-//W3C//DTD SVG 1.1//EN"
 "http://www.w3.org/Graphics/SVG/1.1/DTD/svg11.dtd">
<!-- Generated by graphviz version 2.36.0 (20140111.2315)
 -->
<!-- Title: parser.Tokenizer.tokenize Pages: 1 -->
<svg width="852pt" height="126pt"
 viewBox="0.00 0.00 852.00 126.00" xmlns="http://www.w3.org/2000/svg" xmlns:xlink="http://www.w3.org/1999/xlink">
<g id="graph0" class="graph" transform="scale(1 1) rotate(0) translate(4 122)">
<title>parser.Tokenizer.tokenize</title>
<polygon fill="white" stroke="none" points="-4,4 -4,-122 848,-122 848,4 -4,4"/>
<!-- Node1 -->
<g id="node1" class="node"><title>Node1</title>
<polygon fill="#bfbfbf" stroke="black" points="0.5,-22.5 0.5,-41.5 137.5,-41.5 137.5,-22.5 0.5,-22.5"/>
<text text-anchor="middle" x="69" y="-29.5" font-family="Helvetica,sans-Serif" font-size="10.00">parser.Tokenizer.tokenize</text>
</g>
<!-- Node2 -->
<g id="node2" class="node"><title>Node2</title>
<g id="a_node2"><a xlink:href="../../d6/d95/classparser_1_1_parser.html#aec8f2721f51a8a257b572c73d80d5d98" target="_top" xlink:title="parser.Parser.parse">
<polygon fill="white" stroke="black" points="174.5,-22.5 174.5,-41.5 283.5,-41.5 283.5,-22.5 174.5,-22.5"/>
<text text-anchor="middle" x="229" y="-29.5" font-family="Helvetica,sans-Serif" font-size="10.00">parser.Parser.parse</text>
</a>
</g>
</g>
<!-- Node1&#45;&gt;Node2 -->
<g id="edge1" class="edge"><title>Node1&#45;&gt;Node2</title>
<path fill="none" stroke="midnightblue" d="M147.997,-32C156.947,-32 165.914,-32 174.44,-32"/>
<polygon fill="midnightblue" stroke="midnightblue" points="147.923,-28.5001 137.923,-32 147.923,-35.5001 147.923,-28.5001"/>
</g>
<!-- Node3 -->
<g id="node3" class="node"><title>Node3</title>
<g id="a_node3"><a xlink:href="../../d3/d88/classmodel_1_1_slogo_model.html#ad096dbf0a253635d346a622540f472bd" target="_top" xlink:title="model.SlogoModel.parseAnd\lExecute">
<polygon fill="white" stroke="black" points="320,-39 320,-69 474,-69 474,-39 320,-39"/>
<text text-anchor="start" x="328" y="-57" font-family="Helvetica,sans-Serif" font-size="10.00">model.SlogoModel.parseAnd</text>
<text text-anchor="middle" x="397" y="-46" font-family="Helvetica,sans-Serif" font-size="10.00">Execute</text>
</a>
</g>
</g>
<!-- Node2&#45;&gt;Node3 -->
<g id="edge2" class="edge"><title>Node2&#45;&gt;Node3</title>
<path fill="none" stroke="midnightblue" d="M294.016,-40.4841C302.446,-41.6013 311.153,-42.7552 319.761,-43.896"/>
<polygon fill="midnightblue" stroke="midnightblue" points="294.269,-36.987 283.895,-39.1428 293.349,-43.9263 294.269,-36.987"/>
</g>
<!-- Node8 -->
<g id="node8" class="node"><title>Node8</title>
<g id="a_node8"><a xlink:href="../../d4/d90/classview_1_1_key_controls.html#a5139ba2a7cd205b996395f4f3e7f406c" target="_top" xlink:title="view.KeyControls.setKeyMap">
<polygon fill="white" stroke="black" points="322,-0.5 322,-19.5 472,-19.5 472,-0.5 322,-0.5"/>
<text text-anchor="middle" x="397" y="-7.5" font-family="Helvetica,sans-Serif" font-size="10.00">view.KeyControls.setKeyMap</text>
</a>
</g>
</g>
<!-- Node2&#45;&gt;Node8 -->
<g id="edge7" class="edge"><title>Node2&#45;&gt;Node8</title>
<path fill="none" stroke="midnightblue" d="M294.042,-23.5126C303.934,-22.2015 314.206,-20.8402 324.253,-19.5086"/>
<polygon fill="midnightblue" stroke="midnightblue" points="293.349,-20.0737 283.895,-24.8572 294.269,-27.013 293.349,-20.0737"/>
</g>
<!-- Node4 -->
<g id="node4" class="node"><title>Node4</title>
<g id="a_node4"><a xlink:href="../../d6/d0a/classview_1_1_input_view.html#a948930c9b825f34ef8f5def96910471b" target="_top" xlink:title="view.InputView.initSubmit\lButton">
<polygon fill="white" stroke="black" points="513,-88 513,-118 649,-118 649,-88 513,-88"/>
<text text-anchor="start" x="521" y="-106" font-family="Helvetica,sans-Serif" font-size="10.00">view.InputView.initSubmit</text>
<text text-anchor="middle" x="581" y="-95" font-family="Helvetica,sans-Serif" font-size="10.00">Button</text>
</a>
</g>
</g>
<!-- Node3&#45;&gt;Node4 -->
<g id="edge3" class="edge"><title>Node3&#45;&gt;Node4</title>
<path fill="none" stroke="midnightblue" d="M463.923,-71.7485C483.648,-77.0591 505.078,-82.8288 524.094,-87.9484"/>
<polygon fill="midnightblue" stroke="midnightblue" points="464.657,-68.3216 454.091,-69.1014 462.837,-75.0809 464.657,-68.3216"/>
</g>
<!-- Node6 -->
<g id="node6" class="node"><title>Node6</title>
<g id="a_node6"><a xlink:href="../../d4/d90/classview_1_1_key_controls.html#a0c3663cb62e91e8919b0296aad899a8f" target="_top" xlink:title="view.KeyControls.makeKey\lCommands">
<polygon fill="white" stroke="black" points="510,-39 510,-69 652,-69 652,-39 510,-39"/>
<text text-anchor="start" x="518" y="-57" font-family="Helvetica,sans-Serif" font-size="10.00">view.KeyControls.makeKey</text>
<text text-anchor="middle" x="581" y="-46" font-family="Helvetica,sans-Serif" font-size="10.00">Commands</text>
</a>
</g>
</g>
<!-- Node3&#45;&gt;Node6 -->
<g id="edge5" class="edge"><title>Node3&#45;&gt;Node6</title>
<path fill="none" stroke="midnightblue" d="M484.221,-54C492.855,-54 501.547,-54 509.984,-54"/>
<polygon fill="midnightblue" stroke="midnightblue" points="484.13,-50.5001 474.13,-54 484.13,-57.5001 484.13,-50.5001"/>
</g>
<!-- Node5 -->
<g id="node5" class="node"><title>Node5</title>
<g id="a_node5"><a xlink:href="../../d6/d0a/classview_1_1_input_view.html#ac75e6562ed83ace6cb0a0ac886780054" target="_top" xlink:title="view.InputView.InputView">
<polygon fill="white" stroke="black" points="699.5,-93.5 699.5,-112.5 832.5,-112.5 832.5,-93.5 699.5,-93.5"/>
<text text-anchor="middle" x="766" y="-100.5" font-family="Helvetica,sans-Serif" font-size="10.00">view.InputView.InputView</text>
</a>
</g>
</g>
<!-- Node4&#45;&gt;Node5 -->
<g id="edge4" class="edge"><title>Node4&#45;&gt;Node5</title>
<path fill="none" stroke="midnightblue" d="M659.232,-103C672.608,-103 686.402,-103 699.432,-103"/>
<polygon fill="midnightblue" stroke="midnightblue" points="659.103,-99.5001 649.103,-103 659.103,-106.5 659.103,-99.5001"/>
</g>
<!-- Node7 -->
<g id="node7" class="node"><title>Node7</title>
<g id="a_node7"><a xlink:href="../../d4/d90/classview_1_1_key_controls.html#a4b73546f8ba8feee9e878b3cf743fb61" target="_top" xlink:title="view.KeyControls.KeyControls">
<polygon fill="white" stroke="black" points="688.5,-22.5 688.5,-41.5 843.5,-41.5 843.5,-22.5 688.5,-22.5"/>
<text text-anchor="middle" x="766" y="-29.5" font-family="Helvetica,sans-Serif" font-size="10.00">view.KeyControls.KeyControls</text>
</a>
</g>
</g>
<!-- Node6&#45;&gt;Node7 -->
<g id="edge6" class="edge"><title>Node6&#45;&gt;Node7</title>
<path fill="none" stroke="midnightblue" d="M662.279,-44.3489C670.909,-43.3115 679.674,-42.2577 688.261,-41.2254"/>
<polygon fill="midnightblue" stroke="midnightblue" points="661.74,-40.8885 652.229,-45.5571 662.576,-47.8384 661.74,-40.8885"/>
</g>
<!-- Node8&#45;&gt;Node7 -->
<g id="edge8" class="edge"><title>Node8&#45;&gt;Node7</title>
<path fill="none" stroke="midnightblue" d="M482.425,-15.0609C544.491,-18.7815 628.154,-23.7967 688.316,-27.4031"/>
<polygon fill="midnightblue" stroke="midnightblue" points="482.459,-11.5568 472.268,-14.452 482.041,-18.5442 482.459,-11.5568"/>
</g>
</g>
</svg>
