<?xml version="1.0" encoding="UTF-8" standalone="no"?>
<!DOCTYPE svg PUBLIC "-//W3C//DTD SVG 1.1//EN"
 "http://www.w3.org/Graphics/SVG/1.1/DTD/svg11.dtd">
<!-- Generated by graphviz version 2.36.0 (20140111.2315)
 -->
<!-- Title: view.BasicCommandsView.update Pages: 1 -->
<svg width="854pt" height="66pt"
 viewBox="0.00 0.00 854.00 66.00" xmlns="http://www.w3.org/2000/svg" xmlns:xlink="http://www.w3.org/1999/xlink">
<g id="graph0" class="graph" transform="scale(1 1) rotate(0) translate(4 62)">
<title>view.BasicCommandsView.update</title>
<polygon fill="white" stroke="none" points="-4,4 -4,-62 850,-62 850,4 -4,4"/>
<!-- Node1 -->
<g id="node1" class="node"><title>Node1</title>
<polygon fill="#bfbfbf" stroke="black" points="0,-19.5 0,-38.5 178,-38.5 178,-19.5 0,-19.5"/>
<text text-anchor="middle" x="89" y="-26.5" font-family="Helvetica,sans-Serif" font-size="10.00">view.BasicCommandsView.update</text>
</g>
<!-- Node2 -->
<g id="node2" class="node"><title>Node2</title>
<g id="a_node2"><a xlink:href="../../db/d98/classview_1_1_scroll_view.html#af810ea194b6bcd9c7c8da1f84ebd5ac2" target="_top" xlink:title="view.ScrollView.addTextBox">
<polygon fill="white" stroke="black" points="226,-38.5 226,-57.5 370,-57.5 370,-38.5 226,-38.5"/>
<text text-anchor="middle" x="298" y="-45.5" font-family="Helvetica,sans-Serif" font-size="10.00">view.ScrollView.addTextBox</text>
</a>
</g>
</g>
<!-- Node1&#45;&gt;Node2 -->
<g id="edge1" class="edge"><title>Node1&#45;&gt;Node2</title>
<path fill="none" stroke="midnightblue" d="M178.087,-37.0853C190.552,-38.2294 203.323,-39.4016 215.653,-40.5334"/>
<polygon fill="midnightblue" stroke="midnightblue" points="215.613,-44.0443 225.891,-41.4731 216.253,-37.0736 215.613,-44.0443"/>
</g>
<!-- Node5 -->
<g id="node5" class="node"><title>Node5</title>
<g id="a_node5"><a xlink:href="../../d6/df7/classmodel_1_1_commands_list.html#a0f1df4e3621e54ac0d52131830128d78" target="_top" xlink:title="model.CommandsList.generate">
<polygon fill="white" stroke="black" points="214,-0.5 214,-19.5 382,-19.5 382,-0.5 214,-0.5"/>
<text text-anchor="middle" x="298" y="-7.5" font-family="Helvetica,sans-Serif" font-size="10.00">model.CommandsList.generate</text>
</a>
</g>
</g>
<!-- Node1&#45;&gt;Node5 -->
<g id="edge4" class="edge"><title>Node1&#45;&gt;Node5</title>
<path fill="none" stroke="midnightblue" d="M178.087,-20.9147C186.629,-20.1307 195.314,-19.3335 203.902,-18.5452"/>
<polygon fill="midnightblue" stroke="midnightblue" points="204.288,-22.0246 213.926,-17.6252 203.648,-15.0539 204.288,-22.0246"/>
</g>
<!-- Node3 -->
<g id="node3" class="node"><title>Node3</title>
<g id="a_node3"><a xlink:href="../../db/d98/classview_1_1_scroll_view.html#af8a9a83dc920350c521d6d78016cafce" target="_top" xlink:title="view.ScrollView.makeClickableText">
<polygon fill="white" stroke="black" points="441.5,-38.5 441.5,-57.5 618.5,-57.5 618.5,-38.5 441.5,-38.5"/>
<text text-anchor="middle" x="530" y="-45.5" font-family="Helvetica,sans-Serif" font-size="10.00">view.ScrollView.makeClickableText</text>
</a>
</g>
</g>
<!-- Node2&#45;&gt;Node3 -->
<g id="edge2" class="edge"><title>Node2&#45;&gt;Node3</title>
<path fill="none" stroke="midnightblue" d="M370.198,-48C389.385,-48 410.484,-48 430.861,-48"/>
<polygon fill="midnightblue" stroke="midnightblue" points="431.115,-51.5001 441.115,-48 431.115,-44.5001 431.115,-51.5001"/>
</g>
<!-- Node4 -->
<g id="node4" class="node"><title>Node4</title>
<g id="a_node4"><a xlink:href="../../d6/d0a/classview_1_1_input_view.html#a81954709509ce44f7fe364a24a613d66" target="_top" xlink:title="view.InputView.addAndShowText">
<polygon fill="white" stroke="black" points="678,-38.5 678,-57.5 846,-57.5 846,-38.5 678,-38.5"/>
<text text-anchor="middle" x="762" y="-45.5" font-family="Helvetica,sans-Serif" font-size="10.00">view.InputView.addAndShowText</text>
</a>
</g>
</g>
<!-- Node3&#45;&gt;Node4 -->
<g id="edge3" class="edge"><title>Node3&#45;&gt;Node4</title>
<path fill="none" stroke="midnightblue" d="M618.609,-48C634.694,-48 651.538,-48 667.78,-48"/>
<polygon fill="midnightblue" stroke="midnightblue" points="667.803,-51.5001 677.803,-48 667.803,-44.5001 667.803,-51.5001"/>
</g>
<!-- Node6 -->
<g id="node6" class="node"><title>Node6</title>
<g id="a_node6"><a xlink:href="../../d6/df7/classmodel_1_1_commands_list.html#afe889d0ea233be74e064b369e68ad9d6" target="_top" xlink:title="model.CommandsList.makeCommandsList">
<polygon fill="white" stroke="black" points="418,-0.5 418,-19.5 642,-19.5 642,-0.5 418,-0.5"/>
<text text-anchor="middle" x="530" y="-7.5" font-family="Helvetica,sans-Serif" font-size="10.00">model.CommandsList.makeCommandsList</text>
</a>
</g>
</g>
<!-- Node5&#45;&gt;Node6 -->
<g id="edge5" class="edge"><title>Node5&#45;&gt;Node6</title>
<path fill="none" stroke="midnightblue" d="M382.035,-10C390.359,-10 398.925,-10 407.54,-10"/>
<polygon fill="midnightblue" stroke="midnightblue" points="407.663,-13.5001 417.663,-10 407.663,-6.5001 407.663,-13.5001"/>
</g>
</g>
</svg>
