<?xml version="1.0" encoding="UTF-8" standalone="no"?>
<!DOCTYPE svg PUBLIC "-//W3C//DTD SVG 1.1//EN"
 "http://www.w3.org/Graphics/SVG/1.1/DTD/svg11.dtd">
<!-- Generated by graphviz version 2.36.0 (20140111.2315)
 -->
<!-- Title: view.DataView Pages: 1 -->
<svg width="2440pt" height="554pt"
 viewBox="0.00 0.00 2440.00 553.73" xmlns="http://www.w3.org/2000/svg" xmlns:xlink="http://www.w3.org/1999/xlink">
<g id="graph0" class="graph" transform="scale(1 1) rotate(0) translate(4 549.731)">
<title>view.DataView</title>
<polygon fill="white" stroke="none" points="-4,4 -4,-549.731 2436,-549.731 2436,4 -4,4"/>
<!-- Node1 -->
<g id="node1" class="node"><title>Node1</title>
<polygon fill="#bfbfbf" stroke="black" points="2348,-238.231 2348,-257.231 2432,-257.231 2432,-238.231 2348,-238.231"/>
<text text-anchor="middle" x="2390" y="-245.231" font-family="Helvetica,sans-Serif" font-size="10.00">view.DataView</text>
</g>
<!-- Node2 -->
<g id="node2" class="node"><title>Node2</title>
<g id="a_node2"><a xlink:href="../../dc/dc4/classview_1_1_pane_view.html" target="_top" xlink:title="view.PaneView">
<polygon fill="white" stroke="black" points="1377,-364.231 1377,-383.231 1461,-383.231 1461,-364.231 1377,-364.231"/>
<text text-anchor="middle" x="1419" y="-371.231" font-family="Helvetica,sans-Serif" font-size="10.00">view.PaneView</text>
</a>
</g>
</g>
<!-- Node2&#45;&gt;Node1 -->
<g id="edge1" class="edge"><title>Node2&#45;&gt;Node1</title>
<path fill="none" stroke="midnightblue" d="M1471.11,-373.731C1514.88,-373.731 1579.59,-373.731 1636,-373.731 1636,-373.731 1636,-373.731 2142,-373.731 2230.12,-373.731 2255.85,-358.341 2330,-310.731 2352.7,-296.158 2372.65,-270.932 2382.49,-257.239"/>
<polygon fill="midnightblue" stroke="midnightblue" points="1471.01,-370.231 1461.01,-373.731 1471.01,-377.231 1471.01,-370.231"/>
</g>
<!-- Node9 -->
<g id="node9" class="node"><title>Node9</title>
<g id="a_node9"><a xlink:href="../../d6/d0a/classview_1_1_input_view.html" target="_top" xlink:title="view.InputView">
<polygon fill="white" stroke="black" points="1594.5,-258.231 1594.5,-277.231 1679.5,-277.231 1679.5,-258.231 1594.5,-258.231"/>
<text text-anchor="middle" x="1637" y="-265.231" font-family="Helvetica,sans-Serif" font-size="10.00">view.InputView</text>
</a>
</g>
</g>
<!-- Node2&#45;&gt;Node9 -->
<g id="edge9" class="edge"><title>Node2&#45;&gt;Node9</title>
<path fill="none" stroke="midnightblue" d="M1471.09,-364.309C1510.32,-356.18 1560.35,-343.587 1576,-329.731 1591.51,-315.998 1579.56,-301.587 1594,-286.731 1597.68,-282.944 1602.26,-279.846 1607.02,-277.335"/>
<polygon fill="midnightblue" stroke="midnightblue" points="1470.23,-360.913 1461.12,-366.328 1471.62,-367.773 1470.23,-360.913"/>
</g>
<!-- Node3 -->
<g id="node3" class="node"><title>Node3</title>
<polygon fill="white" stroke="#bfbfbf" points="1220,-460.231 1220,-479.231 1260,-479.231 1260,-460.231 1220,-460.231"/>
<text text-anchor="middle" x="1240" y="-467.231" font-family="Helvetica,sans-Serif" font-size="10.00">Pane</text>
</g>
<!-- Node3&#45;&gt;Node2 -->
<g id="edge2" class="edge"><title>Node3&#45;&gt;Node2</title>
<path fill="none" stroke="midnightblue" d="M1269.42,-456.113C1273,-454.332 1276.59,-452.509 1280,-450.731 1324.51,-427.496 1375.9,-398.133 1401.59,-383.276"/>
<polygon fill="midnightblue" stroke="midnightblue" points="1267.58,-453.116 1260.15,-460.664 1270.67,-459.4 1267.58,-453.116"/>
</g>
<!-- Node4 -->
<g id="node4" class="node"><title>Node4</title>
<g id="a_node4"><a xlink:href="../../d9/d93/classview_1_1_basic_commands_view.html" target="_top" xlink:title="view.BasicCommandsView">
<polygon fill="white" stroke="black" points="2070,-182.231 2070,-201.231 2212,-201.231 2212,-182.231 2070,-182.231"/>
<text text-anchor="middle" x="2141" y="-189.231" font-family="Helvetica,sans-Serif" font-size="10.00">view.BasicCommandsView</text>
</a>
</g>
</g>
<!-- Node4&#45;&gt;Node1 -->
<g id="edge3" class="edge"><title>Node4&#45;&gt;Node1</title>
<path fill="none" stroke="#9a32cd" stroke-dasharray="5,2" d="M2222.59,-193.255C2256.47,-195.796 2295.85,-201.289 2330,-212.731 2347.16,-218.483 2364.75,-229.743 2376.2,-237.943"/>
<polygon fill="#9a32cd" stroke="#9a32cd" points="2222.48,-189.74 2212.27,-192.558 2222.01,-196.724 2222.48,-189.74"/>
<text text-anchor="middle" x="2280" y="-215.731" font-family="Helvetica,sans-Serif" font-size="10.00"> myBasicCommands</text>
</g>
<!-- Node5 -->
<g id="node5" class="node"><title>Node5</title>
<g id="a_node5"><a xlink:href="../../d4/d36/classview_1_1_data_view_components.html" target="_top" xlink:title="view.DataViewComponents">
<polygon fill="white" stroke="black" points="1886,-258.231 1886,-277.231 2032,-277.231 2032,-258.231 1886,-258.231"/>
<text text-anchor="middle" x="1959" y="-265.231" font-family="Helvetica,sans-Serif" font-size="10.00">view.DataViewComponents</text>
</a>
</g>
</g>
<!-- Node5&#45;&gt;Node4 -->
<g id="edge4" class="edge"><title>Node5&#45;&gt;Node4</title>
<path fill="none" stroke="midnightblue" d="M1984.82,-252.923C2006.66,-240.369 2039.62,-222.568 2070,-210.731 2079.27,-207.119 2089.48,-203.927 2099.18,-201.24"/>
<polygon fill="midnightblue" stroke="midnightblue" points="1982.78,-250.06 1975.89,-258.115 1986.3,-256.11 1982.78,-250.06"/>
</g>
<!-- Node39 -->
<g id="node39" class="node"><title>Node39</title>
<g id="a_node39"><a xlink:href="../../d8/d0c/classview_1_1_u_d_commands_view.html" target="_top" xlink:title="view.UDCommandsView">
<polygon fill="white" stroke="black" points="2075.5,-296.231 2075.5,-315.231 2206.5,-315.231 2206.5,-296.231 2075.5,-296.231"/>
<text text-anchor="middle" x="2141" y="-303.231" font-family="Helvetica,sans-Serif" font-size="10.00">view.UDCommandsView</text>
</a>
</g>
</g>
<!-- Node5&#45;&gt;Node39 -->
<g id="edge49" class="edge"><title>Node5&#45;&gt;Node39</title>
<path fill="none" stroke="midnightblue" d="M2015.33,-279.412C2040.86,-284.801 2070.78,-291.117 2094.91,-296.211"/>
<polygon fill="midnightblue" stroke="midnightblue" points="2015.93,-275.961 2005.42,-277.32 2014.48,-282.81 2015.93,-275.961"/>
</g>
<!-- Node40 -->
<g id="node40" class="node"><title>Node40</title>
<g id="a_node40"><a xlink:href="../../d9/dd3/classview_1_1_variables_view.html" target="_top" xlink:title="view.VariablesView">
<polygon fill="white" stroke="black" points="2089,-258.231 2089,-277.231 2193,-277.231 2193,-258.231 2089,-258.231"/>
<text text-anchor="middle" x="2141" y="-265.231" font-family="Helvetica,sans-Serif" font-size="10.00">view.VariablesView</text>
</a>
</g>
</g>
<!-- Node5&#45;&gt;Node40 -->
<g id="edge51" class="edge"><title>Node5&#45;&gt;Node40</title>
<path fill="none" stroke="midnightblue" d="M2042.49,-267.731C2058.29,-267.731 2074.39,-267.731 2088.84,-267.731"/>
<polygon fill="midnightblue" stroke="midnightblue" points="2042.18,-264.231 2032.18,-267.731 2042.18,-271.231 2042.18,-264.231"/>
</g>
<!-- Node6 -->
<g id="node6" class="node"><title>Node6</title>
<g id="a_node6"><a xlink:href="../../db/d98/classview_1_1_scroll_view.html" target="_top" xlink:title="view.ScrollView">
<polygon fill="white" stroke="black" points="1760.5,-258.231 1760.5,-277.231 1847.5,-277.231 1847.5,-258.231 1760.5,-258.231"/>
<text text-anchor="middle" x="1804" y="-265.231" font-family="Helvetica,sans-Serif" font-size="10.00">view.ScrollView</text>
</a>
</g>
</g>
<!-- Node6&#45;&gt;Node5 -->
<g id="edge5" class="edge"><title>Node6&#45;&gt;Node5</title>
<path fill="none" stroke="midnightblue" d="M1857.9,-267.731C1866.88,-267.731 1876.34,-267.731 1885.72,-267.731"/>
<polygon fill="midnightblue" stroke="midnightblue" points="1857.62,-264.231 1847.62,-267.731 1857.62,-271.231 1857.62,-264.231"/>
</g>
<!-- Node7 -->
<g id="node7" class="node"><title>Node7</title>
<polygon fill="white" stroke="#bfbfbf" points="1604,-220.231 1604,-239.231 1670,-239.231 1670,-220.231 1604,-220.231"/>
<text text-anchor="middle" x="1637" y="-227.231" font-family="Helvetica,sans-Serif" font-size="10.00">ScrollPane</text>
</g>
<!-- Node7&#45;&gt;Node6 -->
<g id="edge6" class="edge"><title>Node7&#45;&gt;Node6</title>
<path fill="none" stroke="midnightblue" d="M1680.12,-239.431C1705.09,-245.182 1736.61,-252.442 1761.48,-258.169"/>
<polygon fill="midnightblue" stroke="midnightblue" points="1680.74,-235.982 1670.21,-237.148 1679.16,-242.803 1680.74,-235.982"/>
</g>
<!-- Node8 -->
<g id="node8" class="node"><title>Node8</title>
<polygon fill="white" stroke="#bfbfbf" points="1616.5,-296.231 1616.5,-315.231 1657.5,-315.231 1657.5,-296.231 1616.5,-296.231"/>
<text text-anchor="middle" x="1637" y="-303.231" font-family="Helvetica,sans-Serif" font-size="10.00">VBox</text>
</g>
<!-- Node8&#45;&gt;Node6 -->
<g id="edge7" class="edge"><title>Node8&#45;&gt;Node6</title>
<path fill="none" stroke="#9a32cd" stroke-dasharray="5,2" d="M1667.43,-299.415C1688.28,-294.894 1716.89,-288.594 1742,-282.731 1749.33,-281.02 1757.14,-279.142 1764.64,-277.311"/>
<polygon fill="#9a32cd" stroke="#9a32cd" points="1666.62,-296.01 1657.58,-301.544 1668.1,-302.852 1666.62,-296.01"/>
<text text-anchor="middle" x="1720" y="-294.731" font-family="Helvetica,sans-Serif" font-size="10.00"> myView</text>
</g>
<!-- Node9&#45;&gt;Node6 -->
<g id="edge8" class="edge"><title>Node9&#45;&gt;Node6</title>
<path fill="none" stroke="#9a32cd" stroke-dasharray="5,2" d="M1689.76,-267.731C1712.43,-267.731 1738.7,-267.731 1760.23,-267.731"/>
<polygon fill="#9a32cd" stroke="#9a32cd" points="1689.64,-264.231 1679.64,-267.731 1689.64,-271.231 1689.64,-264.231"/>
<text text-anchor="middle" x="1720" y="-270.731" font-family="Helvetica,sans-Serif" font-size="10.00"> myInput</text>
</g>
<!-- Node10 -->
<g id="node10" class="node"><title>Node10</title>
<g id="a_node10"><a xlink:href="../../d3/d88/classmodel_1_1_slogo_model.html" target="_top" xlink:title="model.SlogoModel">
<polygon fill="white" stroke="black" points="1366.5,-239.231 1366.5,-258.231 1471.5,-258.231 1471.5,-239.231 1366.5,-239.231"/>
<text text-anchor="middle" x="1419" y="-246.231" font-family="Helvetica,sans-Serif" font-size="10.00">model.SlogoModel</text>
</a>
</g>
</g>
<!-- Node10&#45;&gt;Node9 -->
<g id="edge10" class="edge"><title>Node10&#45;&gt;Node9</title>
<path fill="none" stroke="#9a32cd" stroke-dasharray="5,2" d="M1482.14,-247.921C1510.82,-248.264 1545.25,-249.691 1576,-253.731 1583.95,-254.776 1592.4,-256.411 1600.36,-258.199"/>
<polygon fill="#9a32cd" stroke="#9a32cd" points="1481.88,-244.419 1471.85,-247.841 1481.82,-251.419 1481.88,-244.419"/>
<text text-anchor="middle" x="1533" y="-256.731" font-family="Helvetica,sans-Serif" font-size="10.00"> myModel</text>
</g>
<!-- Node11 -->
<g id="node11" class="node"><title>Node11</title>
<polygon fill="white" stroke="#bfbfbf" points="1204.5,-217.231 1204.5,-236.231 1275.5,-236.231 1275.5,-217.231 1204.5,-217.231"/>
<text text-anchor="middle" x="1240" y="-224.231" font-family="Helvetica,sans-Serif" font-size="10.00">Observable</text>
</g>
<!-- Node11&#45;&gt;Node10 -->
<g id="edge11" class="edge"><title>Node11&#45;&gt;Node10</title>
<path fill="none" stroke="midnightblue" d="M1285.68,-232.284C1310.25,-235.338 1340.85,-239.142 1366.43,-242.322"/>
<polygon fill="midnightblue" stroke="midnightblue" points="1285.9,-228.785 1275.55,-231.025 1285.04,-235.732 1285.9,-228.785"/>
</g>
<!-- Node12 -->
<g id="node12" class="node"><title>Node12</title>
<polygon fill="white" stroke="#bfbfbf" points="508.5,-175.231 508.5,-194.231 555.5,-194.231 555.5,-175.231 508.5,-175.231"/>
<text text-anchor="middle" x="532" y="-182.231" font-family="Helvetica,sans-Serif" font-size="10.00">Locale</text>
</g>
<!-- Node12&#45;&gt;Node1 -->
<g id="edge47" class="edge"><title>Node12&#45;&gt;Node1</title>
<path fill="none" stroke="#9a32cd" stroke-dasharray="5,2" d="M565.138,-173.643C610.77,-158.914 697.226,-134.731 773,-134.731 773,-134.731 773,-134.731 2142,-134.731 2229.18,-134.731 2254.73,-146.745 2330,-190.731 2351.64,-203.378 2371.41,-225.577 2381.66,-238.216"/>
<polygon fill="#9a32cd" stroke="#9a32cd" points="563.914,-170.361 555.507,-176.808 566.1,-177.011 563.914,-170.361"/>
<text text-anchor="middle" x="1533" y="-137.731" font-family="Helvetica,sans-Serif" font-size="10.00"> myLocale</text>
</g>
<!-- Node12&#45;&gt;Node9 -->
<g id="edge43" class="edge"><title>Node12&#45;&gt;Node9</title>
<path fill="none" stroke="#9a32cd" stroke-dasharray="5,2" d="M565.869,-185.626C612.1,-186.805 698.964,-188.731 773,-188.731 773,-188.731 773,-188.731 1155,-188.731 1297.06,-188.731 1331.25,-210.48 1472,-229.731 1518.27,-236.06 1530.81,-232.967 1576,-244.731 1589.06,-248.132 1603.18,-253.456 1614.44,-258.126"/>
<polygon fill="#9a32cd" stroke="#9a32cd" points="565.919,-182.126 555.831,-185.365 565.737,-189.123 565.919,-182.126"/>
<text text-anchor="middle" x="1154" y="-191.731" font-family="Helvetica,sans-Serif" font-size="10.00"> myLocale</text>
</g>
<!-- Node12&#45;&gt;Node10 -->
<g id="edge12" class="edge"><title>Node12&#45;&gt;Node10</title>
<path fill="none" stroke="#9a32cd" stroke-dasharray="5,2" d="M565.37,-191.267C580.302,-194.551 598.183,-198.867 614,-203.731 686.345,-225.981 697.311,-264.731 773,-264.731 773,-264.731 773,-264.731 1241,-264.731 1283.27,-264.731 1330.99,-260.149 1366.22,-255.889"/>
<polygon fill="#9a32cd" stroke="#9a32cd" points="566.078,-187.839 555.566,-189.164 564.61,-194.684 566.078,-187.839"/>
<text text-anchor="middle" x="1041" y="-267.731" font-family="Helvetica,sans-Serif" font-size="10.00"> myLocale</text>
</g>
<!-- Node17 -->
<g id="node17" class="node"><title>Node17</title>
<g id="a_node17"><a xlink:href="../../d8/d36/classmodel_1_1_observable_data.html" target="_top" xlink:title="model.ObservableData">
<polygon fill="white" stroke="black" points="710.5,-329.231 710.5,-348.231 837.5,-348.231 837.5,-329.231 710.5,-329.231"/>
<text text-anchor="middle" x="774" y="-336.231" font-family="Helvetica,sans-Serif" font-size="10.00">model.ObservableData</text>
</a>
</g>
</g>
<!-- Node12&#45;&gt;Node17 -->
<g id="edge37" class="edge"><title>Node12&#45;&gt;Node17</title>
<path fill="none" stroke="#9a32cd" stroke-dasharray="5,2" d="M565.938,-184.722C582.394,-186.449 601.426,-191.339 614,-203.731 637.493,-226.884 609.77,-251.363 632,-275.731 651.041,-296.604 666.061,-285.534 692,-296.731 714.833,-306.588 740.125,-320.151 756.272,-329.168"/>
<polygon fill="#9a32cd" stroke="#9a32cd" points="565.809,-181.204 555.589,-183.997 565.32,-188.187 565.809,-181.204"/>
<text text-anchor="middle" x="662" y="-299.731" font-family="Helvetica,sans-Serif" font-size="10.00"> myLocale</text>
</g>
<!-- Node13 -->
<g id="node13" class="node"><title>Node13</title>
<g id="a_node13"><a xlink:href="../../d6/d95/classparser_1_1_parser.html" target="_top" xlink:title="parser.Parser">
<polygon fill="white" stroke="black" points="1200,-422.231 1200,-441.231 1280,-441.231 1280,-422.231 1200,-422.231"/>
<text text-anchor="middle" x="1240" y="-429.231" font-family="Helvetica,sans-Serif" font-size="10.00">parser.Parser</text>
</a>
</g>
</g>
<!-- Node13&#45;&gt;Node10 -->
<g id="edge13" class="edge"><title>Node13&#45;&gt;Node10</title>
<path fill="none" stroke="#9a32cd" stroke-dasharray="5,2" d="M1265.11,-416.384C1289.61,-399.534 1326.88,-370.237 1348,-335.731 1364.32,-309.065 1344.93,-290.826 1366,-267.731 1369.56,-263.826 1374,-260.722 1378.76,-258.255"/>
<polygon fill="#9a32cd" stroke="#9a32cd" points="1263.07,-413.539 1256.71,-422.016 1266.96,-419.353 1263.07,-413.539"/>
<text text-anchor="middle" x="1323" y="-392.731" font-family="Helvetica,sans-Serif" font-size="10.00"> myParser</text>
</g>
<!-- Node14 -->
<g id="node14" class="node"><title>Node14</title>
<polygon fill="white" stroke="#bfbfbf" points="4.5,-460.231 4.5,-479.231 75.5,-479.231 75.5,-460.231 4.5,-460.231"/>
<text text-anchor="middle" x="40" y="-467.231" font-family="Helvetica,sans-Serif" font-size="10.00">Serializable</text>
</g>
<!-- Node14&#45;&gt;Node13 -->
<g id="edge14" class="edge"><title>Node14&#45;&gt;Node13</title>
<path fill="none" stroke="midnightblue" d="M85.422,-476.15C127.462,-481.664 192.386,-488.731 249,-488.731 249,-488.731 249,-488.731 1042,-488.731 1109.47,-488.731 1185,-457.498 1219.68,-441.272"/>
<polygon fill="midnightblue" stroke="midnightblue" points="85.8832,-472.681 75.5072,-474.823 84.9543,-479.619 85.8832,-472.681"/>
</g>
<!-- Node16 -->
<g id="node16" class="node"><title>Node16</title>
<g id="a_node16"><a xlink:href="../../d3/d96/classparser_1_1_instruction_factory.html" target="_top" xlink:title="parser.InstructionFactory">
<polygon fill="white" stroke="black" points="974,-388.231 974,-407.231 1108,-407.231 1108,-388.231 974,-388.231"/>
<text text-anchor="middle" x="1041" y="-395.231" font-family="Helvetica,sans-Serif" font-size="10.00">parser.InstructionFactory</text>
</a>
</g>
</g>
<!-- Node14&#45;&gt;Node16 -->
<g id="edge17" class="edge"><title>Node14&#45;&gt;Node16</title>
<path fill="none" stroke="midnightblue" d="M85.693,-466.149C208.582,-456.352 561.967,-428.523 856,-408.731 895.113,-406.098 938.926,-403.467 973.984,-401.438"/>
<polygon fill="midnightblue" stroke="midnightblue" points="85.2324,-462.675 75.5425,-466.959 85.7893,-469.653 85.2324,-462.675"/>
</g>
<!-- Node19 -->
<g id="node19" class="node"><title>Node19</title>
<g id="a_node19"><a xlink:href="../../d1/d69/interfacemodel_1_1_feature.html" target="_top" xlink:title="model.Feature">
<polygon fill="white" stroke="black" points="207,-289.231 207,-308.231 293,-308.231 293,-289.231 207,-289.231"/>
<text text-anchor="middle" x="250" y="-296.231" font-family="Helvetica,sans-Serif" font-size="10.00">model.Feature</text>
</a>
</g>
</g>
<!-- Node14&#45;&gt;Node19 -->
<g id="edge22" class="edge"><title>Node14&#45;&gt;Node19</title>
<path fill="none" stroke="midnightblue" d="M52.5978,-451.405C73.8583,-419.336 122.236,-353.097 180,-317.731 188.159,-312.736 197.653,-309.026 206.94,-306.281"/>
<polygon fill="midnightblue" stroke="midnightblue" points="49.4043,-449.896 46.89,-460.188 55.2738,-453.71 49.4043,-449.896"/>
</g>
<!-- Node34 -->
<g id="node34" class="node"><title>Node34</title>
<g id="a_node34"><a xlink:href="../../de/d6b/classparser_1_1_tokenizer.html" target="_top" xlink:title="parser.Tokenizer">
<polygon fill="white" stroke="black" points="338,-523.231 338,-542.231 432,-542.231 432,-523.231 338,-523.231"/>
<text text-anchor="middle" x="385" y="-530.231" font-family="Helvetica,sans-Serif" font-size="10.00">parser.Tokenizer</text>
</a>
</g>
</g>
<!-- Node14&#45;&gt;Node34 -->
<g id="edge40" class="edge"><title>Node14&#45;&gt;Node34</title>
<path fill="none" stroke="midnightblue" d="M62.1753,-484.859C72.4977,-491.464 85.3854,-498.625 98,-502.731 179.537,-529.269 280.398,-533.701 337.954,-533.745"/>
<polygon fill="midnightblue" stroke="midnightblue" points="64.0956,-481.932 53.8358,-479.289 60.2076,-487.754 64.0956,-481.932"/>
</g>
<!-- Node15 -->
<g id="node15" class="node"><title>Node15</title>
<polygon fill="white" stroke="#bfbfbf" points="727.5,-437.231 727.5,-456.231 820.5,-456.231 820.5,-437.231 727.5,-437.231"/>
<text text-anchor="middle" x="774" y="-444.231" font-family="Helvetica,sans-Serif" font-size="10.00">ResourceBundle</text>
</g>
<!-- Node15&#45;&gt;Node13 -->
<g id="edge15" class="edge"><title>Node15&#45;&gt;Node13</title>
<path fill="none" stroke="#9a32cd" stroke-dasharray="5,2" d="M830.949,-445.98C909.431,-444.754 1056.66,-441.82 1182,-435.731 1187.75,-435.452 1193.82,-435.094 1199.77,-434.707"/>
<polygon fill="#9a32cd" stroke="#9a32cd" points="830.747,-442.483 820.802,-446.135 830.854,-449.482 830.747,-442.483"/>
<text text-anchor="middle" x="1041" y="-445.731" font-family="Helvetica,sans-Serif" font-size="10.00"> myLanguageBundle</text>
</g>
<!-- Node15&#45;&gt;Node16 -->
<g id="edge18" class="edge"><title>Node15&#45;&gt;Node16</title>
<path fill="none" stroke="#9a32cd" stroke-dasharray="5,2" d="M825.902,-434.998C835.863,-432.821 846.244,-430.636 856,-428.731 896.697,-420.787 942.697,-413.037 978.523,-407.273"/>
<polygon fill="#9a32cd" stroke="#9a32cd" points="825.129,-431.584 816.121,-437.161 826.64,-438.419 825.129,-431.584"/>
<text text-anchor="middle" x="906" y="-431.731" font-family="Helvetica,sans-Serif" font-size="10.00"> myLanguageBundle</text>
</g>
<!-- Node16&#45;&gt;Node13 -->
<g id="edge16" class="edge"><title>Node16&#45;&gt;Node13</title>
<path fill="none" stroke="#9a32cd" stroke-dasharray="5,2" d="M1107.32,-409.004C1137.94,-414.289 1173.41,-420.411 1199.82,-424.969"/>
<polygon fill="#9a32cd" stroke="#9a32cd" points="1107.59,-405.499 1097.14,-407.247 1106.4,-412.397 1107.59,-405.499"/>
<text text-anchor="middle" x="1154" y="-423.731" font-family="Helvetica,sans-Serif" font-size="10.00"> myIFactory</text>
</g>
<!-- Node17&#45;&gt;Node10 -->
<g id="edge41" class="edge"><title>Node17&#45;&gt;Node10</title>
<path fill="none" stroke="#9a32cd" stroke-dasharray="5,2" d="M847.611,-341.221C958.545,-342.81 1175.51,-337.128 1348,-278.731 1356.88,-275.725 1357.56,-271.804 1366,-267.731 1373.19,-264.265 1381.18,-261.05 1388.7,-258.286"/>
<polygon fill="#9a32cd" stroke="#9a32cd" points="847.594,-337.72 837.536,-341.052 847.476,-344.719 847.594,-337.72"/>
<text text-anchor="middle" x="1154" y="-328.731" font-family="Helvetica,sans-Serif" font-size="10.00"> myData</text>
</g>
<!-- Node17&#45;&gt;Node16 -->
<g id="edge19" class="edge"><title>Node17&#45;&gt;Node16</title>
<path fill="none" stroke="#9a32cd" stroke-dasharray="5,2" d="M847.981,-348.641C881.183,-353.81 920.829,-360.912 956,-369.731 975.98,-374.741 998.058,-382.178 1014.56,-388.128"/>
<polygon fill="#9a32cd" stroke="#9a32cd" points="848.31,-345.15 837.896,-347.099 847.252,-352.07 848.31,-345.15"/>
<text text-anchor="middle" x="906" y="-372.731" font-family="Helvetica,sans-Serif" font-size="10.00"> myData</text>
</g>
<!-- Node18 -->
<g id="node18" class="node"><title>Node18</title>
<g id="a_node18"><a xlink:href="../../df/db7/classmodel_1_1_turtles_list.html" target="_top" xlink:title="model.TurtlesList">
<polygon fill="white" stroke="black" points="483.5,-354.231 483.5,-373.231 580.5,-373.231 580.5,-354.231 483.5,-354.231"/>
<text text-anchor="middle" x="532" y="-361.231" font-family="Helvetica,sans-Serif" font-size="10.00">model.TurtlesList</text>
</a>
</g>
</g>
<!-- Node18&#45;&gt;Node17 -->
<g id="edge20" class="edge"><title>Node18&#45;&gt;Node17</title>
<path fill="none" stroke="#9a32cd" stroke-dasharray="5,2" d="M591.064,-357.683C627.128,-353.926 673.475,-349.098 710.364,-345.256"/>
<polygon fill="#9a32cd" stroke="#9a32cd" points="590.287,-354.245 580.703,-358.762 591.012,-361.207 590.287,-354.245"/>
<text text-anchor="middle" x="662" y="-354.731" font-family="Helvetica,sans-Serif" font-size="10.00"> myTurtles</text>
</g>
<!-- Node19&#45;&gt;Node18 -->
<g id="edge21" class="edge"><title>Node19&#45;&gt;Node18</title>
<path fill="none" stroke="midnightblue" d="M302.947,-310.28C339.153,-318.383 388.56,-329.546 432,-339.731 451.801,-344.374 473.79,-349.688 492.006,-354.134"/>
<polygon fill="midnightblue" stroke="midnightblue" points="303.623,-306.845 293.1,-308.079 302.096,-313.676 303.623,-306.845"/>
</g>
<!-- Node23 -->
<g id="node23" class="node"><title>Node23</title>
<g id="a_node23"><a xlink:href="../../d6/d34/classmodel_1_1_turtle.html" target="_top" xlink:title="model.Turtle">
<polygon fill="white" stroke="black" points="494.5,-213.231 494.5,-232.231 569.5,-232.231 569.5,-213.231 494.5,-213.231"/>
<text text-anchor="middle" x="532" y="-220.231" font-family="Helvetica,sans-Serif" font-size="10.00">model.Turtle</text>
</a>
</g>
</g>
<!-- Node19&#45;&gt;Node23 -->
<g id="edge28" class="edge"><title>Node19&#45;&gt;Node23</title>
<path fill="none" stroke="midnightblue" d="M303.213,-291.494C339.738,-285.741 389.412,-276.525 432,-263.731 460.328,-255.221 491.658,-241.466 511.332,-232.264"/>
<polygon fill="midnightblue" stroke="midnightblue" points="302.627,-288.043 293.277,-293.025 303.693,-294.961 302.627,-288.043"/>
</g>
<!-- Node20 -->
<g id="node20" class="node"><title>Node20</title>
<polygon fill="white" stroke="#bfbfbf" points="193,-327.231 193,-346.231 307,-346.231 307,-327.231 193,-327.231"/>
<text text-anchor="middle" x="250" y="-334.231" font-family="Helvetica,sans-Serif" font-size="10.00">List&lt; model.Turtle &gt;</text>
</g>
<!-- Node20&#45;&gt;Node18 -->
<g id="edge23" class="edge"><title>Node20&#45;&gt;Node18</title>
<path fill="none" stroke="#9a32cd" stroke-dasharray="5,2" d="M317.627,-342.26C351.834,-345.19 394.165,-348.957 432,-352.731 448.778,-354.405 467.136,-356.399 483.437,-358.227"/>
<polygon fill="#9a32cd" stroke="#9a32cd" points="317.548,-338.741 307.287,-341.379 316.953,-345.716 317.548,-338.741"/>
<text text-anchor="middle" x="385" y="-355.731" font-family="Helvetica,sans-Serif" font-size="10.00"> allTurtles</text>
</g>
<!-- Node21 -->
<g id="node21" class="node"><title>Node21</title>
<polygon fill="white" stroke="#bfbfbf" points="180.5,-403.231 180.5,-422.231 319.5,-422.231 319.5,-403.231 180.5,-403.231"/>
<text text-anchor="middle" x="250" y="-410.231" font-family="Helvetica,sans-Serif" font-size="10.00">Stack&lt; List&lt; Integer &gt; &gt;</text>
</g>
<!-- Node21&#45;&gt;Node18 -->
<g id="edge24" class="edge"><title>Node21&#45;&gt;Node18</title>
<path fill="none" stroke="#9a32cd" stroke-dasharray="5,2" d="M329.667,-402.229C361.521,-397.656 398.597,-391.926 432,-385.731 451.562,-382.103 473.144,-377.392 491.15,-373.26"/>
<polygon fill="#9a32cd" stroke="#9a32cd" points="328.927,-398.799 319.519,-403.673 329.913,-405.73 328.927,-398.799"/>
<text text-anchor="middle" x="385" y="-403.731" font-family="Helvetica,sans-Serif" font-size="10.00"> turtleScope</text>
</g>
<!-- Node22 -->
<g id="node22" class="node"><title>Node22</title>
<polygon fill="white" stroke="#bfbfbf" points="205.5,-365.231 205.5,-384.231 294.5,-384.231 294.5,-365.231 205.5,-365.231"/>
<text text-anchor="middle" x="250" y="-372.231" font-family="Helvetica,sans-Serif" font-size="10.00">List&lt; Integer &gt;</text>
</g>
<!-- Node22&#45;&gt;Node18 -->
<g id="edge25" class="edge"><title>Node22&#45;&gt;Node18</title>
<path fill="none" stroke="#9a32cd" stroke-dasharray="5,2" d="M305.051,-372.608C356.733,-370.577 433.904,-367.546 483.343,-365.603"/>
<polygon fill="#9a32cd" stroke="#9a32cd" points="304.605,-369.122 294.75,-373.012 304.88,-376.117 304.605,-369.122"/>
<text text-anchor="middle" x="385" y="-373.731" font-family="Helvetica,sans-Serif" font-size="10.00"> activeIDs</text>
</g>
<!-- Node23&#45;&gt;Node17 -->
<g id="edge26" class="edge"><title>Node23&#45;&gt;Node17</title>
<path fill="none" stroke="#9a32cd" stroke-dasharray="5,2" d="M547.576,-240.119C565.374,-260.151 597.409,-292.511 632,-309.731 656.162,-321.76 685.033,-328.801 710.338,-332.921"/>
<polygon fill="#9a32cd" stroke="#9a32cd" points="550.05,-237.63 540.853,-232.369 544.762,-242.217 550.05,-237.63"/>
<text text-anchor="middle" x="662" y="-331.731" font-family="Helvetica,sans-Serif" font-size="10.00"> myTurtle</text>
</g>
<!-- Node24 -->
<g id="node24" class="node"><title>Node24</title>
<g id="a_node24"><a xlink:href="../../d5/dad/classmodel_1_1_turtle_abstract.html" target="_top" xlink:title="model.TurtleAbstract">
<polygon fill="white" stroke="black" points="192,-4.23115 192,-23.2311 308,-23.2311 308,-4.23115 192,-4.23115"/>
<text text-anchor="middle" x="250" y="-11.2311" font-family="Helvetica,sans-Serif" font-size="10.00">model.TurtleAbstract</text>
</a>
</g>
</g>
<!-- Node24&#45;&gt;Node23 -->
<g id="edge27" class="edge"><title>Node24&#45;&gt;Node23</title>
<path fill="none" stroke="midnightblue" d="M302.77,-2.70358C343.525,2.67955 398.814,2.1243 432,-30.7311 459.468,-57.9249 424.454,-174.724 450,-203.731 460.978,-216.197 478.439,-221.297 494.342,-223.134"/>
<polygon fill="midnightblue" stroke="midnightblue" points="302.125,0.739254 292.744,-4.18408 303.148,-6.18566 302.125,0.739254"/>
</g>
<!-- Node25 -->
<g id="node25" class="node"><title>Node25</title>
<polygon fill="white" stroke="#bfbfbf" points="226.5,-251.231 226.5,-270.231 273.5,-270.231 273.5,-251.231 226.5,-251.231"/>
<text text-anchor="middle" x="250" y="-258.231" font-family="Helvetica,sans-Serif" font-size="10.00">Tooltip</text>
</g>
<!-- Node25&#45;&gt;Node23 -->
<g id="edge29" class="edge"><title>Node25&#45;&gt;Node23</title>
<path fill="none" stroke="#9a32cd" stroke-dasharray="5,2" d="M284.058,-256.245C336.738,-249.095 439.37,-235.167 494.271,-227.716"/>
<polygon fill="#9a32cd" stroke="#9a32cd" points="283.352,-252.808 273.914,-257.621 284.293,-259.745 283.352,-252.808"/>
<text text-anchor="middle" x="385" y="-251.731" font-family="Helvetica,sans-Serif" font-size="10.00"> myTurtleInfo</text>
</g>
<!-- Node26 -->
<g id="node26" class="node"><title>Node26</title>
<polygon fill="white" stroke="#bfbfbf" points="216,-213.231 216,-232.231 284,-232.231 284,-213.231 216,-213.231"/>
<text text-anchor="middle" x="250" y="-220.231" font-family="Helvetica,sans-Serif" font-size="10.00">ImageView</text>
</g>
<!-- Node26&#45;&gt;Node23 -->
<g id="edge30" class="edge"><title>Node26&#45;&gt;Node23</title>
<path fill="none" stroke="#9a32cd" stroke-dasharray="5,2" d="M294.323,-222.731C349.185,-222.731 442.755,-222.731 494.278,-222.731"/>
<polygon fill="#9a32cd" stroke="#9a32cd" points="294.219,-219.231 284.219,-222.731 294.219,-226.231 294.219,-219.231"/>
<text text-anchor="middle" x="385" y="-225.731" font-family="Helvetica,sans-Serif" font-size="10.00"> myImage</text>
</g>
<!-- Node27 -->
<g id="node27" class="node"><title>Node27</title>
<g id="a_node27"><a xlink:href="../../de/ded/classmodel_1_1_pen.html" target="_top" xlink:title="model.Pen">
<polygon fill="white" stroke="black" points="216,-175.231 216,-194.231 284,-194.231 284,-175.231 216,-175.231"/>
<text text-anchor="middle" x="250" y="-182.231" font-family="Helvetica,sans-Serif" font-size="10.00">model.Pen</text>
</a>
</g>
</g>
<!-- Node27&#45;&gt;Node23 -->
<g id="edge31" class="edge"><title>Node27&#45;&gt;Node23</title>
<path fill="none" stroke="#9a32cd" stroke-dasharray="5,2" d="M294.398,-189.949C331.088,-194.432 385.027,-201.189 432,-207.731 452.661,-210.609 475.705,-214.084 494.359,-216.965"/>
<polygon fill="#9a32cd" stroke="#9a32cd" points="294.41,-186.425 284.06,-188.691 293.564,-193.374 294.41,-186.425"/>
<text text-anchor="middle" x="385" y="-210.731" font-family="Helvetica,sans-Serif" font-size="10.00"> myPen</text>
</g>
<!-- Node28 -->
<g id="node28" class="node"><title>Node28</title>
<polygon fill="white" stroke="#bfbfbf" points="0,-194.231 0,-213.231 80,-213.231 80,-194.231 0,-194.231"/>
<text text-anchor="middle" x="40" y="-201.231" font-family="Helvetica,sans-Serif" font-size="10.00">List&lt; Color &gt;</text>
</g>
<!-- Node28&#45;&gt;Node27 -->
<g id="edge32" class="edge"><title>Node28&#45;&gt;Node27</title>
<path fill="none" stroke="#9a32cd" stroke-dasharray="5,2" d="M90.1563,-199.241C128.944,-195.698 181.989,-190.852 215.878,-187.757"/>
<polygon fill="#9a32cd" stroke="#9a32cd" points="89.7633,-195.762 80.1232,-200.157 90.4002,-202.733 89.7633,-195.762"/>
<text text-anchor="middle" x="130" y="-201.731" font-family="Helvetica,sans-Serif" font-size="10.00"> myCustom</text>
</g>
<!-- Node29 -->
<g id="node29" class="node"><title>Node29</title>
<polygon fill="white" stroke="#bfbfbf" points="19.5,-156.231 19.5,-175.231 60.5,-175.231 60.5,-156.231 19.5,-156.231"/>
<text text-anchor="middle" x="40" y="-163.231" font-family="Helvetica,sans-Serif" font-size="10.00">Color</text>
</g>
<!-- Node29&#45;&gt;Node27 -->
<g id="edge33" class="edge"><title>Node29&#45;&gt;Node27</title>
<path fill="none" stroke="#9a32cd" stroke-dasharray="5,2" d="M70.5888,-168.434C108.944,-171.938 175.648,-178.031 215.725,-181.692"/>
<polygon fill="#9a32cd" stroke="#9a32cd" points="70.8451,-164.943 60.5681,-167.519 70.2083,-171.914 70.8451,-164.943"/>
<text text-anchor="middle" x="130" y="-179.731" font-family="Helvetica,sans-Serif" font-size="10.00"> myLineColor</text>
</g>
<!-- Node30 -->
<g id="node30" class="node"><title>Node30</title>
<polygon fill="white" stroke="#bfbfbf" points="226.5,-134.231 226.5,-153.231 273.5,-153.231 273.5,-134.231 226.5,-134.231"/>
<text text-anchor="middle" x="250" y="-141.231" font-family="Helvetica,sans-Serif" font-size="10.00">Image</text>
</g>
<!-- Node30&#45;&gt;Node23 -->
<g id="edge34" class="edge"><title>Node30&#45;&gt;Node23</title>
<path fill="none" stroke="#9a32cd" stroke-dasharray="5,2" d="M283.917,-140.025C322.87,-137.403 387.981,-138.75 432,-169.731 445.982,-179.572 436.463,-193.287 450,-203.731 462.58,-213.437 479.304,-218.31 494.288,-220.711"/>
<polygon fill="#9a32cd" stroke="#9a32cd" points="283.351,-136.56 273.664,-140.849 283.912,-143.537 283.351,-136.56"/>
<text text-anchor="middle" x="385" y="-183.731" font-family="Helvetica,sans-Serif" font-size="10.00"> myDefaultOn</text>
<text text-anchor="middle" x="385" y="-172.731" font-family="Helvetica,sans-Serif" font-size="10.00">myDefaultOff</text>
</g>
<!-- Node31 -->
<g id="node31" class="node"><title>Node31</title>
<polygon fill="white" stroke="#bfbfbf" points="227,-80.2311 227,-99.2311 273,-99.2311 273,-80.2311 227,-80.2311"/>
<text text-anchor="middle" x="250" y="-87.2311" font-family="Helvetica,sans-Serif" font-size="10.00">Group</text>
</g>
<!-- Node31&#45;&gt;Node23 -->
<g id="edge35" class="edge"><title>Node31&#45;&gt;Node23</title>
<path fill="none" stroke="#9a32cd" stroke-dasharray="5,2" d="M283.023,-81.6543C323.155,-73.6255 391.562,-67.1809 432,-103.731 465.502,-134.012 418.914,-170.975 450,-203.731 461.335,-215.675 478.637,-220.749 494.345,-222.703"/>
<polygon fill="#9a32cd" stroke="#9a32cd" points="282.265,-78.2373 273.223,-83.7597 283.735,-85.0811 282.265,-78.2373"/>
<text text-anchor="middle" x="385" y="-128.731" font-family="Helvetica,sans-Serif" font-size="10.00"> myLines</text>
<text text-anchor="middle" x="385" y="-117.731" font-family="Helvetica,sans-Serif" font-size="10.00">myStamps</text>
<text text-anchor="middle" x="385" y="-106.731" font-family="Helvetica,sans-Serif" font-size="10.00">myDrawing</text>
</g>
<!-- Node32 -->
<g id="node32" class="node"><title>Node32</title>
<polygon fill="white" stroke="#bfbfbf" points="180,-42.2311 180,-61.2311 320,-61.2311 320,-42.2311 180,-42.2311"/>
<text text-anchor="middle" x="250" y="-49.2311" font-family="Helvetica,sans-Serif" font-size="10.00">ObservableList&lt; Image &gt;</text>
</g>
<!-- Node32&#45;&gt;Node23 -->
<g id="edge36" class="edge"><title>Node32&#45;&gt;Node23</title>
<path fill="none" stroke="#9a32cd" stroke-dasharray="5,2" d="M293.448,-39.9826C334.361,-31.4857 395.311,-26.7137 432,-60.7311 478.973,-104.284 407.149,-156.117 450,-203.731 461.112,-216.078 478.586,-221.166 494.464,-223.025"/>
<polygon fill="#9a32cd" stroke="#9a32cd" points="292.502,-36.6075 283.505,-42.2018 294.027,-43.4394 292.502,-36.6075"/>
<text text-anchor="middle" x="385" y="-63.7311" font-family="Helvetica,sans-Serif" font-size="10.00"> myTurtleShapes</text>
</g>
<!-- Node33 -->
<g id="node33" class="node"><title>Node33</title>
<polygon fill="white" stroke="#bfbfbf" points="450.5,-392.231 450.5,-411.231 613.5,-411.231 613.5,-392.231 450.5,-392.231"/>
<text text-anchor="middle" x="532" y="-399.231" font-family="Helvetica,sans-Serif" font-size="10.00">Map&lt; String, model.Feature &gt;</text>
</g>
<!-- Node33&#45;&gt;Node17 -->
<g id="edge38" class="edge"><title>Node33&#45;&gt;Node17</title>
<path fill="none" stroke="#9a32cd" stroke-dasharray="5,2" d="M593.363,-390.166C623.243,-384.005 659.737,-375.825 692,-366.731 710.904,-361.403 731.848,-354.125 747.703,-348.325"/>
<polygon fill="#9a32cd" stroke="#9a32cd" points="592.598,-386.749 583.499,-392.176 593.996,-393.608 592.598,-386.749"/>
<text text-anchor="middle" x="662" y="-383.731" font-family="Helvetica,sans-Serif" font-size="10.00"> myFeatures</text>
</g>
<!-- Node34&#45;&gt;Node13 -->
<g id="edge39" class="edge"><title>Node34&#45;&gt;Node13</title>
<path fill="none" stroke="#9a32cd" stroke-dasharray="5,2" d="M442.567,-533.383C498.163,-533.966 585.422,-534.731 661,-534.731 661,-534.731 661,-534.731 1042,-534.731 1105.83,-534.731 1134.49,-545.349 1182,-502.731 1200.21,-486.401 1183.78,-469.031 1200,-450.731 1203.3,-447.012 1207.49,-443.947 1211.89,-441.447"/>
<polygon fill="#9a32cd" stroke="#9a32cd" points="442.26,-529.879 432.224,-533.272 442.186,-536.879 442.26,-529.879"/>
<text text-anchor="middle" x="774" y="-537.731" font-family="Helvetica,sans-Serif" font-size="10.00"> myTokenizer</text>
</g>
<!-- Node35 -->
<g id="node35" class="node"><title>Node35</title>
<polygon fill="white" stroke="#bfbfbf" points="1394.5,-163.231 1394.5,-182.231 1443.5,-182.231 1443.5,-163.231 1394.5,-163.231"/>
<text text-anchor="middle" x="1419" y="-170.231" font-family="Helvetica,sans-Serif" font-size="10.00">Button</text>
</g>
<!-- Node35&#45;&gt;Node9 -->
<g id="edge42" class="edge"><title>Node35&#45;&gt;Node9</title>
<path fill="none" stroke="#9a32cd" stroke-dasharray="5,2" d="M1453.75,-165.419C1488.4,-160.005 1541.94,-157.743 1576,-185.731 1598.5,-204.218 1574.97,-226.688 1594,-248.731 1597.24,-252.487 1601.38,-255.538 1605.78,-258.006"/>
<polygon fill="#9a32cd" stroke="#9a32cd" points="1452.9,-162.014 1443.65,-167.17 1454.1,-168.911 1452.9,-162.014"/>
<text text-anchor="middle" x="1533" y="-188.731" font-family="Helvetica,sans-Serif" font-size="10.00"> mySubmitButton</text>
</g>
<!-- Node36 -->
<g id="node36" class="node"><title>Node36</title>
<polygon fill="white" stroke="#bfbfbf" points="1390,-315.231 1390,-334.231 1448,-334.231 1448,-315.231 1390,-315.231"/>
<text text-anchor="middle" x="1419" y="-322.231" font-family="Helvetica,sans-Serif" font-size="10.00">TextArea</text>
</g>
<!-- Node36&#45;&gt;Node9 -->
<g id="edge44" class="edge"><title>Node36&#45;&gt;Node9</title>
<path fill="none" stroke="#9a32cd" stroke-dasharray="5,2" d="M1458.49,-320.622C1490.54,-316.484 1537.05,-308.8 1576,-295.731 1584.48,-292.886 1585.92,-290.575 1594,-286.731 1600.65,-283.567 1607.94,-280.223 1614.56,-277.237"/>
<polygon fill="#9a32cd" stroke="#9a32cd" points="1457.71,-317.192 1448.21,-321.892 1458.56,-324.14 1457.71,-317.192"/>
<text text-anchor="middle" x="1533" y="-317.731" font-family="Helvetica,sans-Serif" font-size="10.00"> myInput</text>
</g>
<!-- Node37 -->
<g id="node37" class="node"><title>Node37</title>
<polygon fill="white" stroke="#bfbfbf" points="1398,-277.231 1398,-296.231 1440,-296.231 1440,-277.231 1398,-277.231"/>
<text text-anchor="middle" x="1419" y="-284.231" font-family="Helvetica,sans-Serif" font-size="10.00">HBox</text>
</g>
<!-- Node37&#45;&gt;Node9 -->
<g id="edge45" class="edge"><title>Node37&#45;&gt;Node9</title>
<path fill="none" stroke="#9a32cd" stroke-dasharray="5,2" d="M1450.64,-284.036C1488.23,-280.73 1552.14,-275.108 1594.21,-271.407"/>
<polygon fill="#9a32cd" stroke="#9a32cd" points="1449.98,-280.581 1440.32,-284.944 1450.59,-287.554 1449.98,-280.581"/>
<text text-anchor="middle" x="1533" y="-283.731" font-family="Helvetica,sans-Serif" font-size="10.00"> myView</text>
</g>
<!-- Node38 -->
<g id="node38" class="node"><title>Node38</title>
<polygon fill="white" stroke="#bfbfbf" points="2109,-220.231 2109,-239.231 2173,-239.231 2173,-220.231 2109,-220.231"/>
<text text-anchor="middle" x="2141" y="-227.231" font-family="Helvetica,sans-Serif" font-size="10.00">Accordion</text>
</g>
<!-- Node38&#45;&gt;Node1 -->
<g id="edge46" class="edge"><title>Node38&#45;&gt;Node1</title>
<path fill="none" stroke="#9a32cd" stroke-dasharray="5,2" d="M2183.33,-227.641C2221.56,-226.358 2279.87,-226.052 2330,-232.731 2338.9,-233.918 2348.4,-235.97 2357.11,-238.182"/>
<polygon fill="#9a32cd" stroke="#9a32cd" points="2182.96,-224.153 2173.1,-228.024 2183.23,-231.148 2182.96,-224.153"/>
<text text-anchor="middle" x="2280" y="-235.731" font-family="Helvetica,sans-Serif" font-size="10.00"> myView</text>
</g>
<!-- Node39&#45;&gt;Node1 -->
<g id="edge48" class="edge"><title>Node39&#45;&gt;Node1</title>
<path fill="none" stroke="#9a32cd" stroke-dasharray="5,2" d="M2216.7,-298.768C2251.64,-294.259 2293.51,-287.046 2330,-275.731 2344.73,-271.164 2360.46,-263.547 2371.97,-257.41"/>
<polygon fill="#9a32cd" stroke="#9a32cd" points="2216.05,-295.321 2206.56,-300.025 2216.92,-302.267 2216.05,-295.321"/>
<text text-anchor="middle" x="2280" y="-298.731" font-family="Helvetica,sans-Serif" font-size="10.00"> myUDCommands</text>
</g>
<!-- Node40&#45;&gt;Node1 -->
<g id="edge50" class="edge"><title>Node40&#45;&gt;Node1</title>
<path fill="none" stroke="#9a32cd" stroke-dasharray="5,2" d="M2203.41,-262.759C2248.41,-259.115 2308.29,-254.267 2347.7,-251.075"/>
<polygon fill="#9a32cd" stroke="#9a32cd" points="2202.86,-259.291 2193.18,-263.587 2203.43,-266.269 2202.86,-259.291"/>
<text text-anchor="middle" x="2280" y="-263.731" font-family="Helvetica,sans-Serif" font-size="10.00"> myVariablesView</text>
</g>
</g>
</svg>
