<?xml version="1.0" encoding="UTF-8" standalone="no"?>
<!DOCTYPE svg PUBLIC "-//W3C//DTD SVG 1.1//EN"
 "http://www.w3.org/Graphics/SVG/1.1/DTD/svg11.dtd">
<!-- Generated by graphviz version 2.36.0 (20140111.2315)
 -->
<!-- Title: model.SlogoModel Pages: 1 -->
<!--zoomable 625 -->
<svg id="main" version="1.1" xmlns="http://www.w3.org/2000/svg" xmlns:xlink="http://www.w3.org/1999/xlink" xml:space="preserve" onload="init(evt)">
<style type="text/css"><![CDATA[
.edge:hover path { stroke: red; }
.edge:hover polygon { stroke: red; fill: red; }
]]></style>
<script type="text/javascript"><![CDATA[
var edges = document.getElementsByTagName('g');
if (edges && edges.length) {
  for (var i=0;i<edges.length;i++) {
    if (edges[i].id.substr(0,4)=='edge') {
      edges[i].setAttribute('class','edge');
    }
  }
}
]]></script>
        <defs>
                <circle id="rim" cx="0" cy="0" r="7"/>
                <circle id="rim2" cx="0" cy="0" r="3.5"/>
                <g id="zoomPlus">
                        <use xlink:href="#rim" fill="#404040">
                                <set attributeName="fill" to="#808080" begin="zoomplus.mouseover" end="zoomplus.mouseout"/>
                        </use>
                        <path d="M-4,0h8M0,-4v8" fill="none" stroke="white" stroke-width="1.5" pointer-events="none"/>
                </g>
                <g id="zoomMin">
                        <use xlink:href="#rim" fill="#404040">
                                <set attributeName="fill" to="#808080" begin="zoomminus.mouseover" end="zoomminus.mouseout"/>
                        </use>
                        <path d="M-4,0h8" fill="none" stroke="white" stroke-width="1.5" pointer-events="none"/>
                </g>
                <g id="dirArrow">
                        <path fill="none" stroke="white" stroke-width="1.5" d="M0,-3.0v7 M-2.5,-0.5L0,-3.0L2.5,-0.5"/>
                </g>
               <g id="resetDef">
                       <use xlink:href="#rim2" fill="#404040">
                               <set attributeName="fill" to="#808080" begin="reset.mouseover" end="reset.mouseout"/>
                       </use>
               </g>
        </defs>

<script type="text/javascript">
var viewWidth = 1480;
var viewHeight = 625;
var sectionId = 'dynsection-1';
</script>
<script xlink:href="../../svgpan.js"/>
<svg id="graph" class="graph">
<g id="viewport">
<title>model.SlogoModel</title>
<polygon fill="white" stroke="none" points="-4,4 -4,-621 1476,-621 1476,4 -4,4"/>
<!-- Node1 -->
<g id="node1" class="node"><title>Node1</title>
<polygon fill="#bfbfbf" stroke="black" points="1366.5,-420.5 1366.5,-439.5 1471.5,-439.5 1471.5,-420.5 1366.5,-420.5"/>
<text text-anchor="middle" x="1419" y="-427.5" font-family="Helvetica,sans-Serif" font-size="10.00">model.SlogoModel</text>
</g>
<!-- Node2 -->
<g id="node2" class="node"><title>Node2</title>
<polygon fill="white" stroke="#bfbfbf" points="1204.5,-501.5 1204.5,-520.5 1275.5,-520.5 1275.5,-501.5 1204.5,-501.5"/>
<text text-anchor="middle" x="1240" y="-508.5" font-family="Helvetica,sans-Serif" font-size="10.00">Observable</text>
</g>
<!-- Node2&#45;&gt;Node1 -->
<g id="edge1" class="edge"><title>Node2&#45;&gt;Node1</title>
<path fill="none" stroke="midnightblue" d="M1284.71,-498.381C1304.46,-492.051 1327.83,-483.668 1348,-474 1368.84,-464.009 1391.15,-449.182 1404.84,-439.553"/>
<polygon fill="midnightblue" stroke="midnightblue" points="1283.54,-495.08 1275.04,-501.41 1285.63,-501.76 1283.54,-495.08"/>
</g>
<!-- Node3 -->
<g id="node3" class="node"><title>Node3</title>
<polygon fill="white" stroke="#bfbfbf" points="508.5,-380.5 508.5,-399.5 555.5,-399.5 555.5,-380.5 508.5,-380.5"/>
<text text-anchor="middle" x="532" y="-387.5" font-family="Helvetica,sans-Serif" font-size="10.00">Locale</text>
</g>
<!-- Node3&#45;&gt;Node1 -->
<g id="edge2" class="edge"><title>Node3&#45;&gt;Node1</title>
<path fill="none" stroke="#9a32cd" stroke-dasharray="5,2" d="M566.121,-389.822C582.462,-388.024 601.332,-383.126 614,-371 635.346,-350.569 609.359,-325.986 632,-307 680.255,-266.537 710.025,-293 773,-293 773,-293 773,-293 1241,-293 1324.16,-293 1391.97,-388.734 1411.99,-420.147"/>
<polygon fill="#9a32cd" stroke="#9a32cd" points="565.546,-386.355 555.839,-390.601 566.075,-393.335 565.546,-386.355"/>
<text text-anchor="middle" x="1041" y="-296" font-family="Helvetica,sans-Serif" font-size="10.00"> myLocale</text>
</g>
<!-- Node8 -->
<g id="node8" class="node"><title>Node8</title>
<g id="a_node8"><a xlink:href="../../d8/d36/classmodel_1_1_observable_data.html" target="_top" xlink:title="model.ObservableData">
<polygon fill="white" stroke="black" points="710.5,-392.5 710.5,-411.5 837.5,-411.5 837.5,-392.5 710.5,-392.5"/>
<text text-anchor="middle" x="774" y="-399.5" font-family="Helvetica,sans-Serif" font-size="10.00">model.ObservableData</text>
</a>
</g>
</g>
<!-- Node3&#45;&gt;Node8 -->
<g id="edge27" class="edge"><title>Node3&#45;&gt;Node8</title>
<path fill="none" stroke="#9a32cd" stroke-dasharray="5,2" d="M565.835,-390.508C598.003,-391.129 648.405,-392.433 692,-395 697.918,-395.349 704.074,-395.771 710.232,-396.234"/>
<polygon fill="#9a32cd" stroke="#9a32cd" points="565.724,-387.005 555.662,-390.323 565.596,-394.004 565.724,-387.005"/>
<text text-anchor="middle" x="662" y="-398" font-family="Helvetica,sans-Serif" font-size="10.00"> myLocale</text>
</g>
<!-- Node4 -->
<g id="node4" class="node"><title>Node4</title>
<g id="a_node4"><a xlink:href="../../d6/d95/classparser_1_1_parser.html" target="_top" xlink:title="parser.Parser">
<polygon fill="white" stroke="black" points="1200,-463.5 1200,-482.5 1280,-482.5 1280,-463.5 1200,-463.5"/>
<text text-anchor="middle" x="1240" y="-470.5" font-family="Helvetica,sans-Serif" font-size="10.00">parser.Parser</text>
</a>
</g>
</g>
<!-- Node4&#45;&gt;Node1 -->
<g id="edge3" class="edge"><title>Node4&#45;&gt;Node1</title>
<path fill="none" stroke="#9a32cd" stroke-dasharray="5,2" d="M1290.26,-461.033C1318.22,-454.241 1352.73,-445.857 1378.83,-439.516"/>
<polygon fill="#9a32cd" stroke="#9a32cd" points="1289.17,-457.695 1280.28,-463.457 1290.83,-464.497 1289.17,-457.695"/>
<text text-anchor="middle" x="1323" y="-462" font-family="Helvetica,sans-Serif" font-size="10.00"> myParser</text>
</g>
<!-- Node5 -->
<g id="node5" class="node"><title>Node5</title>
<polygon fill="white" stroke="#bfbfbf" points="4.5,-479.5 4.5,-498.5 75.5,-498.5 75.5,-479.5 4.5,-479.5"/>
<text text-anchor="middle" x="40" y="-486.5" font-family="Helvetica,sans-Serif" font-size="10.00">Serializable</text>
</g>
<!-- Node5&#45;&gt;Node4 -->
<g id="edge4" class="edge"><title>Node5&#45;&gt;Node4</title>
<path fill="none" stroke="midnightblue" d="M86.1114,-486.246C219.204,-478.44 621.84,-457.098 956,-463 1043,-464.537 1144.98,-468.729 1199.64,-471.17"/>
<polygon fill="midnightblue" stroke="midnightblue" points="85.6743,-482.766 75.8983,-486.85 86.0874,-489.754 85.6743,-482.766"/>
</g>
<!-- Node7 -->
<g id="node7" class="node"><title>Node7</title>
<g id="a_node7"><a xlink:href="../../d3/d96/classparser_1_1_instruction_factory.html" target="_top" xlink:title="parser.InstructionFactory">
<polygon fill="white" stroke="black" points="974,-488.5 974,-507.5 1108,-507.5 1108,-488.5 974,-488.5"/>
<text text-anchor="middle" x="1041" y="-495.5" font-family="Helvetica,sans-Serif" font-size="10.00">parser.InstructionFactory</text>
</a>
</g>
</g>
<!-- Node5&#45;&gt;Node7 -->
<g id="edge7" class="edge"><title>Node5&#45;&gt;Node7</title>
<path fill="none" stroke="midnightblue" d="M85.422,-495.419C127.462,-500.933 192.386,-508 249,-508 249,-508 249,-508 775,-508 842.793,-508 920.273,-504.692 973.867,-501.881"/>
<polygon fill="midnightblue" stroke="midnightblue" points="85.8832,-491.95 75.5072,-494.092 84.9543,-498.888 85.8832,-491.95"/>
</g>
<!-- Node10 -->
<g id="node10" class="node"><title>Node10</title>
<g id="a_node10"><a xlink:href="../../d1/d69/interfacemodel_1_1_feature.html" target="_top" xlink:title="model.Feature">
<polygon fill="white" stroke="black" points="207,-308.5 207,-327.5 293,-327.5 293,-308.5 207,-308.5"/>
<text text-anchor="middle" x="250" y="-315.5" font-family="Helvetica,sans-Serif" font-size="10.00">model.Feature</text>
</a>
</g>
</g>
<!-- Node5&#45;&gt;Node10 -->
<g id="edge12" class="edge"><title>Node5&#45;&gt;Node10</title>
<path fill="none" stroke="midnightblue" d="M52.5978,-470.674C73.8583,-438.605 122.236,-372.366 180,-337 188.159,-332.004 197.653,-328.295 206.94,-325.55"/>
<polygon fill="midnightblue" stroke="midnightblue" points="49.4043,-469.165 46.89,-479.457 55.2738,-472.979 49.4043,-469.165"/>
</g>
<!-- Node25 -->
<g id="node25" class="node"><title>Node25</title>
<g id="a_node25"><a xlink:href="../../de/d6b/classparser_1_1_tokenizer.html" target="_top" xlink:title="parser.Tokenizer">
<polygon fill="white" stroke="black" points="338,-566.5 338,-585.5 432,-585.5 432,-566.5 338,-566.5"/>
<text text-anchor="middle" x="385" y="-573.5" font-family="Helvetica,sans-Serif" font-size="10.00">parser.Tokenizer</text>
</a>
</g>
</g>
<!-- Node5&#45;&gt;Node25 -->
<g id="edge30" class="edge"><title>Node5&#45;&gt;Node25</title>
<path fill="none" stroke="midnightblue" d="M63.0641,-504.122C73.2932,-510.505 85.8542,-517.488 98,-522 179.353,-552.223 280.277,-566.199 337.894,-572.124"/>
<polygon fill="midnightblue" stroke="midnightblue" points="64.7012,-501.013 54.4044,-498.518 60.8978,-506.889 64.7012,-501.013"/>
</g>
<!-- Node6 -->
<g id="node6" class="node"><title>Node6</title>
<polygon fill="white" stroke="#bfbfbf" points="727.5,-543.5 727.5,-562.5 820.5,-562.5 820.5,-543.5 727.5,-543.5"/>
<text text-anchor="middle" x="774" y="-550.5" font-family="Helvetica,sans-Serif" font-size="10.00">ResourceBundle</text>
</g>
<!-- Node6&#45;&gt;Node4 -->
<g id="edge5" class="edge"><title>Node6&#45;&gt;Node4</title>
<path fill="none" stroke="#9a32cd" stroke-dasharray="5,2" d="M830.802,-556.243C866.678,-557.529 914.226,-557.744 956,-553 1058.41,-541.37 1085,-535.848 1182,-501 1190.42,-497.976 1191.98,-495.959 1200,-492 1206.21,-488.933 1213,-485.617 1219.14,-482.626"/>
<polygon fill="#9a32cd" stroke="#9a32cd" points="830.667,-552.735 820.535,-555.835 830.388,-559.73 830.667,-552.735"/>
<text text-anchor="middle" x="1041" y="-553" font-family="Helvetica,sans-Serif" font-size="10.00"> myLanguageBundle</text>
</g>
<!-- Node6&#45;&gt;Node7 -->
<g id="edge8" class="edge"><title>Node6&#45;&gt;Node7</title>
<path fill="none" stroke="#9a32cd" stroke-dasharray="5,2" d="M830.791,-543.402C866.663,-537.013 914.21,-528.14 956,-519 971.713,-515.563 988.965,-511.331 1003.73,-507.568"/>
<polygon fill="#9a32cd" stroke="#9a32cd" points="829.763,-540.03 820.526,-545.219 830.983,-546.922 829.763,-540.03"/>
<text text-anchor="middle" x="906" y="-541" font-family="Helvetica,sans-Serif" font-size="10.00"> myLanguageBundle</text>
</g>
<!-- Node7&#45;&gt;Node4 -->
<g id="edge6" class="edge"><title>Node7&#45;&gt;Node4</title>
<path fill="none" stroke="#9a32cd" stroke-dasharray="5,2" d="M1118.27,-488.321C1146.11,-484.788 1176.44,-480.939 1199.74,-477.982"/>
<polygon fill="#9a32cd" stroke="#9a32cd" points="1117.63,-484.875 1108.15,-489.606 1118.51,-491.819 1117.63,-484.875"/>
<text text-anchor="middle" x="1154" y="-489" font-family="Helvetica,sans-Serif" font-size="10.00"> myIFactory</text>
</g>
<!-- Node8&#45;&gt;Node1 -->
<g id="edge31" class="edge"><title>Node8&#45;&gt;Node1</title>
<path fill="none" stroke="#9a32cd" stroke-dasharray="5,2" d="M847.878,-405.174C979.15,-410.89 1252.26,-422.783 1366.26,-427.747"/>
<polygon fill="#9a32cd" stroke="#9a32cd" points="847.674,-401.661 837.531,-404.723 847.369,-408.655 847.674,-401.661"/>
<text text-anchor="middle" x="1154" y="-422" font-family="Helvetica,sans-Serif" font-size="10.00"> myData</text>
</g>
<!-- Node8&#45;&gt;Node7 -->
<g id="edge9" class="edge"><title>Node8&#45;&gt;Node7</title>
<path fill="none" stroke="#9a32cd" stroke-dasharray="5,2" d="M810.901,-415.006C864.956,-434.588 965.989,-471.188 1013.73,-488.483"/>
<polygon fill="#9a32cd" stroke="#9a32cd" points="811.972,-411.671 801.378,-411.556 809.588,-418.253 811.972,-411.671"/>
<text text-anchor="middle" x="906" y="-469" font-family="Helvetica,sans-Serif" font-size="10.00"> myData</text>
</g>
<!-- Node9 -->
<g id="node9" class="node"><title>Node9</title>
<g id="a_node9"><a xlink:href="../../df/db7/classmodel_1_1_turtles_list.html" target="_top" xlink:title="model.TurtlesList">
<polygon fill="white" stroke="black" points="483.5,-418.5 483.5,-437.5 580.5,-437.5 580.5,-418.5 483.5,-418.5"/>
<text text-anchor="middle" x="532" y="-425.5" font-family="Helvetica,sans-Serif" font-size="10.00">model.TurtlesList</text>
</a>
</g>
</g>
<!-- Node9&#45;&gt;Node8 -->
<g id="edge10" class="edge"><title>Node9&#45;&gt;Node8</title>
<path fill="none" stroke="#9a32cd" stroke-dasharray="5,2" d="M591.064,-421.71C627.128,-417.803 673.475,-412.782 710.364,-408.786"/>
<polygon fill="#9a32cd" stroke="#9a32cd" points="590.268,-418.275 580.703,-422.832 591.022,-425.235 590.268,-418.275"/>
<text text-anchor="middle" x="662" y="-419" font-family="Helvetica,sans-Serif" font-size="10.00"> myTurtles</text>
</g>
<!-- Node10&#45;&gt;Node9 -->
<g id="edge11" class="edge"><title>Node10&#45;&gt;Node9</title>
<path fill="none" stroke="midnightblue" d="M303.286,-315.42C343.159,-316.289 397.007,-323.976 432,-355 450.93,-371.783 431.313,-391.947 450,-409 459.176,-417.373 471.327,-422.265 483.421,-425.07"/>
<polygon fill="midnightblue" stroke="midnightblue" points="303.241,-311.92 293.212,-315.337 303.183,-318.92 303.241,-311.92"/>
</g>
<!-- Node14 -->
<g id="node14" class="node"><title>Node14</title>
<g id="a_node14"><a xlink:href="../../d6/d34/classmodel_1_1_turtle.html" target="_top" xlink:title="model.Turtle">
<polygon fill="white" stroke="black" points="494.5,-167.5 494.5,-186.5 569.5,-186.5 569.5,-167.5 494.5,-167.5"/>
<text text-anchor="middle" x="532" y="-174.5" font-family="Helvetica,sans-Serif" font-size="10.00">model.Turtle</text>
</a>
</g>
</g>
<!-- Node10&#45;&gt;Node14 -->
<g id="edge18" class="edge"><title>Node10&#45;&gt;Node14</title>
<path fill="none" stroke="midnightblue" d="M303.426,-319.214C341.298,-317.951 392.517,-311.694 432,-290 478.175,-264.63 513.12,-208.941 525.807,-186.576"/>
<polygon fill="midnightblue" stroke="midnightblue" points="303.038,-315.722 293.119,-319.447 303.196,-322.72 303.038,-315.722"/>
</g>
<!-- Node11 -->
<g id="node11" class="node"><title>Node11</title>
<polygon fill="white" stroke="#bfbfbf" points="193,-384.5 193,-403.5 307,-403.5 307,-384.5 193,-384.5"/>
<text text-anchor="middle" x="250" y="-391.5" font-family="Helvetica,sans-Serif" font-size="10.00">List&lt; model.Turtle &gt;</text>
</g>
<!-- Node11&#45;&gt;Node9 -->
<g id="edge13" class="edge"><title>Node11&#45;&gt;Node9</title>
<path fill="none" stroke="#9a32cd" stroke-dasharray="5,2" d="M317.651,-400.875C351.863,-404.528 394.193,-409.239 432,-414 448.792,-416.115 467.153,-418.649 483.453,-420.977"/>
<polygon fill="#9a32cd" stroke="#9a32cd" points="317.622,-397.352 307.308,-399.776 316.882,-404.313 317.622,-397.352"/>
<text text-anchor="middle" x="385" y="-417" font-family="Helvetica,sans-Serif" font-size="10.00"> allTurtles</text>
</g>
<!-- Node12 -->
<g id="node12" class="node"><title>Node12</title>
<polygon fill="white" stroke="#bfbfbf" points="180.5,-346.5 180.5,-365.5 319.5,-365.5 319.5,-346.5 180.5,-346.5"/>
<text text-anchor="middle" x="250" y="-353.5" font-family="Helvetica,sans-Serif" font-size="10.00">Stack&lt; List&lt; Integer &gt; &gt;</text>
</g>
<!-- Node12&#45;&gt;Node9 -->
<g id="edge14" class="edge"><title>Node12&#45;&gt;Node9</title>
<path fill="none" stroke="#9a32cd" stroke-dasharray="5,2" d="M329.8,-358.27C363.111,-362.093 401.232,-370.441 432,-388 442.677,-394.093 439.496,-402.614 450,-409 459.997,-415.078 471.777,-419.212 483.211,-422.024"/>
<polygon fill="#9a32cd" stroke="#9a32cd" points="329.936,-354.766 319.631,-357.224 329.22,-361.729 329.936,-354.766"/>
<text text-anchor="middle" x="385" y="-391" font-family="Helvetica,sans-Serif" font-size="10.00"> turtleScope</text>
</g>
<!-- Node13 -->
<g id="node13" class="node"><title>Node13</title>
<polygon fill="white" stroke="#bfbfbf" points="205.5,-422.5 205.5,-441.5 294.5,-441.5 294.5,-422.5 205.5,-422.5"/>
<text text-anchor="middle" x="250" y="-429.5" font-family="Helvetica,sans-Serif" font-size="10.00">List&lt; Integer &gt;</text>
</g>
<!-- Node13&#45;&gt;Node9 -->
<g id="edge15" class="edge"><title>Node13&#45;&gt;Node9</title>
<path fill="none" stroke="#9a32cd" stroke-dasharray="5,2" d="M305.051,-431.228C356.733,-430.49 433.904,-429.387 483.343,-428.681"/>
<polygon fill="#9a32cd" stroke="#9a32cd" points="304.699,-427.732 294.75,-431.375 304.799,-434.732 304.699,-427.732"/>
<text text-anchor="middle" x="385" y="-433" font-family="Helvetica,sans-Serif" font-size="10.00"> activeIDs</text>
</g>
<!-- Node14&#45;&gt;Node8 -->
<g id="edge16" class="edge"><title>Node14&#45;&gt;Node8</title>
<path fill="none" stroke="#9a32cd" stroke-dasharray="5,2" d="M550.65,-193.547C597.787,-237.737 725.554,-357.52 762.726,-392.368"/>
<polygon fill="#9a32cd" stroke="#9a32cd" points="553.002,-190.954 543.312,-186.668 548.214,-196.061 553.002,-190.954"/>
<text text-anchor="middle" x="662" y="-325" font-family="Helvetica,sans-Serif" font-size="10.00"> myTurtle</text>
</g>
<!-- Node15 -->
<g id="node15" class="node"><title>Node15</title>
<g id="a_node15"><a xlink:href="../../d5/dad/classmodel_1_1_turtle_abstract.html" target="_top" xlink:title="model.TurtleAbstract">
<polygon fill="white" stroke="black" points="192,-95.5 192,-114.5 308,-114.5 308,-95.5 192,-95.5"/>
<text text-anchor="middle" x="250" y="-102.5" font-family="Helvetica,sans-Serif" font-size="10.00">model.TurtleAbstract</text>
</a>
</g>
</g>
<!-- Node15&#45;&gt;Node14 -->
<g id="edge17" class="edge"><title>Node15&#45;&gt;Node14</title>
<path fill="none" stroke="midnightblue" d="M303.797,-116.785C339.995,-125.05 389.052,-136.616 432,-148 454.852,-154.057 480.459,-161.578 499.904,-167.443"/>
<polygon fill="midnightblue" stroke="midnightblue" points="304.471,-113.349 293.944,-114.544 302.919,-120.175 304.471,-113.349"/>
</g>
<!-- Node16 -->
<g id="node16" class="node"><title>Node16</title>
<polygon fill="white" stroke="#bfbfbf" points="226.5,-57.5 226.5,-76.5 273.5,-76.5 273.5,-57.5 226.5,-57.5"/>
<text text-anchor="middle" x="250" y="-64.5" font-family="Helvetica,sans-Serif" font-size="10.00">Tooltip</text>
</g>
<!-- Node16&#45;&gt;Node14 -->
<g id="edge19" class="edge"><title>Node16&#45;&gt;Node14</title>
<path fill="none" stroke="#9a32cd" stroke-dasharray="5,2" d="M283.809,-71.1523C320.969,-76.6727 382.752,-88.3543 432,-110 466.769,-125.282 502.418,-152.952 519.922,-167.491"/>
<polygon fill="#9a32cd" stroke="#9a32cd" points="283.953,-67.6376 273.56,-69.6939 282.967,-74.5678 283.953,-67.6376"/>
<text text-anchor="middle" x="385" y="-113" font-family="Helvetica,sans-Serif" font-size="10.00"> myTurtleInfo</text>
</g>
<!-- Node17 -->
<g id="node17" class="node"><title>Node17</title>
<polygon fill="white" stroke="#bfbfbf" points="216,-268.5 216,-287.5 284,-287.5 284,-268.5 216,-268.5"/>
<text text-anchor="middle" x="250" y="-275.5" font-family="Helvetica,sans-Serif" font-size="10.00">ImageView</text>
</g>
<!-- Node17&#45;&gt;Node14 -->
<g id="edge20" class="edge"><title>Node17&#45;&gt;Node14</title>
<path fill="none" stroke="#9a32cd" stroke-dasharray="5,2" d="M294.177,-278.187C331.906,-276.938 387.458,-271.622 432,-253 469.784,-237.204 505.738,-203.307 521.97,-186.646"/>
<polygon fill="#9a32cd" stroke="#9a32cd" points="293.942,-274.692 284.032,-278.44 294.116,-281.69 293.942,-274.692"/>
<text text-anchor="middle" x="385" y="-278" font-family="Helvetica,sans-Serif" font-size="10.00"> myImage</text>
</g>
<!-- Node18 -->
<g id="node18" class="node"><title>Node18</title>
<g id="a_node18"><a xlink:href="../../de/ded/classmodel_1_1_pen.html" target="_top" xlink:title="model.Pen">
<polygon fill="white" stroke="black" points="216,-19.5 216,-38.5 284,-38.5 284,-19.5 216,-19.5"/>
<text text-anchor="middle" x="250" y="-26.5" font-family="Helvetica,sans-Serif" font-size="10.00">model.Pen</text>
</a>
</g>
</g>
<!-- Node18&#45;&gt;Node14 -->
<g id="edge21" class="edge"><title>Node18&#45;&gt;Node14</title>
<path fill="none" stroke="#9a32cd" stroke-dasharray="5,2" d="M294.569,-30.5926C333.013,-33.6879 389.398,-42.4684 432,-67 476.53,-92.642 511.907,-145.357 525.253,-167.193"/>
<polygon fill="#9a32cd" stroke="#9a32cd" points="294.45,-27.0756 284.228,-29.862 293.956,-34.0582 294.45,-27.0756"/>
<text text-anchor="middle" x="385" y="-70" font-family="Helvetica,sans-Serif" font-size="10.00"> myPen</text>
</g>
<!-- Node19 -->
<g id="node19" class="node"><title>Node19</title>
<polygon fill="white" stroke="#bfbfbf" points="0,-38.5 0,-57.5 80,-57.5 80,-38.5 0,-38.5"/>
<text text-anchor="middle" x="40" y="-45.5" font-family="Helvetica,sans-Serif" font-size="10.00">List&lt; Color &gt;</text>
</g>
<!-- Node19&#45;&gt;Node18 -->
<g id="edge22" class="edge"><title>Node19&#45;&gt;Node18</title>
<path fill="none" stroke="#9a32cd" stroke-dasharray="5,2" d="M90.1563,-43.5098C128.944,-39.9666 181.989,-35.1212 215.878,-32.0255"/>
<polygon fill="#9a32cd" stroke="#9a32cd" points="89.7633,-40.031 80.1232,-44.4262 90.4002,-47.002 89.7633,-40.031"/>
<text text-anchor="middle" x="130" y="-46" font-family="Helvetica,sans-Serif" font-size="10.00"> myCustom</text>
</g>
<!-- Node20 -->
<g id="node20" class="node"><title>Node20</title>
<polygon fill="white" stroke="#bfbfbf" points="19.5,-0.5 19.5,-19.5 60.5,-19.5 60.5,-0.5 19.5,-0.5"/>
<text text-anchor="middle" x="40" y="-7.5" font-family="Helvetica,sans-Serif" font-size="10.00">Color</text>
</g>
<!-- Node20&#45;&gt;Node18 -->
<g id="edge23" class="edge"><title>Node20&#45;&gt;Node18</title>
<path fill="none" stroke="#9a32cd" stroke-dasharray="5,2" d="M70.5888,-12.7028C108.944,-16.2064 175.648,-22.2996 215.725,-25.9605"/>
<polygon fill="#9a32cd" stroke="#9a32cd" points="70.8451,-9.21175 60.5681,-11.7875 70.2083,-16.1827 70.8451,-9.21175"/>
<text text-anchor="middle" x="130" y="-24" font-family="Helvetica,sans-Serif" font-size="10.00"> myLineColor</text>
</g>
<!-- Node21 -->
<g id="node21" class="node"><title>Node21</title>
<polygon fill="white" stroke="#bfbfbf" points="226.5,-223.5 226.5,-242.5 273.5,-242.5 273.5,-223.5 226.5,-223.5"/>
<text text-anchor="middle" x="250" y="-230.5" font-family="Helvetica,sans-Serif" font-size="10.00">Image</text>
</g>
<!-- Node21&#45;&gt;Node14 -->
<g id="edge24" class="edge"><title>Node21&#45;&gt;Node14</title>
<path fill="none" stroke="#9a32cd" stroke-dasharray="5,2" d="M283.626,-231.102C320.144,-228.501 380.896,-222.744 432,-211 458.567,-204.895 487.99,-194.271 507.801,-186.52"/>
<polygon fill="#9a32cd" stroke="#9a32cd" points="283.295,-227.616 273.553,-231.782 283.767,-234.6 283.295,-227.616"/>
<text text-anchor="middle" x="385" y="-241" font-family="Helvetica,sans-Serif" font-size="10.00"> myDefaultOn</text>
<text text-anchor="middle" x="385" y="-230" font-family="Helvetica,sans-Serif" font-size="10.00">myDefaultOff</text>
</g>
<!-- Node22 -->
<g id="node22" class="node"><title>Node22</title>
<polygon fill="white" stroke="#bfbfbf" points="227,-171.5 227,-190.5 273,-190.5 273,-171.5 227,-171.5"/>
<text text-anchor="middle" x="250" y="-178.5" font-family="Helvetica,sans-Serif" font-size="10.00">Group</text>
</g>
<!-- Node22&#45;&gt;Node14 -->
<g id="edge25" class="edge"><title>Node22&#45;&gt;Node14</title>
<path fill="none" stroke="#9a32cd" stroke-dasharray="5,2" d="M283.317,-179.66C299.697,-179.039 319.903,-178.359 338,-178 392.439,-176.921 455.531,-176.809 494.356,-176.871"/>
<polygon fill="#9a32cd" stroke="#9a32cd" points="283.021,-176.169 273.165,-180.057 283.294,-183.164 283.021,-176.169"/>
<text text-anchor="middle" x="385" y="-203" font-family="Helvetica,sans-Serif" font-size="10.00"> myLines</text>
<text text-anchor="middle" x="385" y="-192" font-family="Helvetica,sans-Serif" font-size="10.00">myStamps</text>
<text text-anchor="middle" x="385" y="-181" font-family="Helvetica,sans-Serif" font-size="10.00">myDrawing</text>
</g>
<!-- Node23 -->
<g id="node23" class="node"><title>Node23</title>
<polygon fill="white" stroke="#bfbfbf" points="180,-133.5 180,-152.5 320,-152.5 320,-133.5 180,-133.5"/>
<text text-anchor="middle" x="250" y="-140.5" font-family="Helvetica,sans-Serif" font-size="10.00">ObservableList&lt; Image &gt;</text>
</g>
<!-- Node23&#45;&gt;Node14 -->
<g id="edge26" class="edge"><title>Node23&#45;&gt;Node14</title>
<path fill="none" stroke="#9a32cd" stroke-dasharray="5,2" d="M330.364,-150.537C362.02,-153.751 398.772,-157.741 432,-162 452.691,-164.652 475.737,-168.114 494.384,-171.043"/>
<polygon fill="#9a32cd" stroke="#9a32cd" points="330.576,-147.041 320.276,-149.522 329.875,-154.006 330.576,-147.041"/>
<text text-anchor="middle" x="385" y="-165" font-family="Helvetica,sans-Serif" font-size="10.00"> myTurtleShapes</text>
</g>
<!-- Node24 -->
<g id="node24" class="node"><title>Node24</title>
<polygon fill="white" stroke="#bfbfbf" points="450.5,-342.5 450.5,-361.5 613.5,-361.5 613.5,-342.5 450.5,-342.5"/>
<text text-anchor="middle" x="532" y="-349.5" font-family="Helvetica,sans-Serif" font-size="10.00">Map&lt; String, model.Feature &gt;</text>
</g>
<!-- Node24&#45;&gt;Node8 -->
<g id="edge28" class="edge"><title>Node24&#45;&gt;Node8</title>
<path fill="none" stroke="#9a32cd" stroke-dasharray="5,2" d="M618.014,-363.062C642.069,-366.815 668.181,-371.482 692,-377 710.065,-381.185 729.969,-387.307 745.526,-392.445"/>
<polygon fill="#9a32cd" stroke="#9a32cd" points="618.257,-359.559 607.844,-361.51 617.201,-366.479 618.257,-359.559"/>
<text text-anchor="middle" x="662" y="-380" font-family="Helvetica,sans-Serif" font-size="10.00"> myFeatures</text>
</g>
<!-- Node25&#45;&gt;Node4 -->
<g id="edge29" class="edge"><title>Node25&#45;&gt;Node4</title>
<path fill="none" stroke="#9a32cd" stroke-dasharray="5,2" d="M442.026,-585.719C497.46,-594.482 584.817,-606 661,-606 661,-606 661,-606 1042,-606 1114.11,-606 1131.46,-575.432 1182,-524 1193.44,-512.361 1188.13,-503.193 1200,-492 1203.95,-488.28 1208.76,-485.15 1213.64,-482.572"/>
<polygon fill="#9a32cd" stroke="#9a32cd" points="442.485,-582.248 432.057,-584.118 441.376,-589.16 442.485,-582.248"/>
<text text-anchor="middle" x="774" y="-609" font-family="Helvetica,sans-Serif" font-size="10.00"> myTokenizer</text>
</g>
</g>
</svg>
        <g id="navigator" transform="translate(0 0)" fill="#404254">
                <rect fill="#f2f5e9" fill-opacity="0.5" stroke="#606060" stroke-width=".5" x="0" y="0" width="60" height="60"/>
                <use id="zoomplus" xlink:href="#zoomPlus" x="17" y="9" onmousedown="handleZoom(evt,'in')"/>
                <use id="zoomminus" xlink:href="#zoomMin" x="42" y="9" onmousedown="handleZoom(evt,'out')"/>
                <use id="reset" xlink:href="#resetDef" x="30" y="36" onmousedown="handleReset()"/>
                <g id="arrowUp" xlink:href="#dirArrow" transform="translate(30 24)" onmousedown="handlePan(0,-1)">
                  <use xlink:href="#rim" fill="#404040">
                        <set attributeName="fill" to="#808080" begin="arrowUp.mouseover" end="arrowUp.mouseout"/>
                  </use>
                  <path fill="none" stroke="white" stroke-width="1.5" d="M0,-3.0v7 M-2.5,-0.5L0,-3.0L2.5,-0.5"/>
                </g>
                <g id="arrowRight" xlink:href="#dirArrow" transform="rotate(90) translate(36 -43)" onmousedown="handlePan(1,0)">
                  <use xlink:href="#rim" fill="#404040">
                        <set attributeName="fill" to="#808080" begin="arrowRight.mouseover" end="arrowRight.mouseout"/>
                  </use>
                  <path fill="none" stroke="white" stroke-width="1.5" d="M0,-3.0v7 M-2.5,-0.5L0,-3.0L2.5,-0.5"/>
                </g>
                <g id="arrowDown" xlink:href="#dirArrow" transform="rotate(180) translate(-30 -48)" onmousedown="handlePan(0,1)">
                  <use xlink:href="#rim" fill="#404040">
                        <set attributeName="fill" to="#808080" begin="arrowDown.mouseover" end="arrowDown.mouseout"/>
                  </use>
                  <path fill="none" stroke="white" stroke-width="1.5" d="M0,-3.0v7 M-2.5,-0.5L0,-3.0L2.5,-0.5"/>
                </g>
                <g id="arrowLeft" xlink:href="#dirArrow" transform="rotate(270) translate(-36 17)" onmousedown="handlePan(-1,0)">
                  <use xlink:href="#rim" fill="#404040">
                        <set attributeName="fill" to="#808080" begin="arrowLeft.mouseover" end="arrowLeft.mouseout"/>
                  </use>
                  <path fill="none" stroke="white" stroke-width="1.5" d="M0,-3.0v7 M-2.5,-0.5L0,-3.0L2.5,-0.5"/>
                </g>
        </g>
        <svg viewBox="0 0 15 15" width="100%" height="30px" preserveAspectRatio="xMaxYMin meet">
         <g id="arrow_out" transform="scale(0.3 0.3)">
          <a xlink:href="classmodel_1_1_slogo_model__coll__graph_org.svg" target="_base">
           <rect id="button" ry="5" rx="5" y="6" x="6" height="38" width="38"
                fill="#f2f5e9" fill-opacity="0.5" stroke="#606060" stroke-width="1.0"/>
           <path id="arrow"
             d="M 11.500037,31.436501 C 11.940474,20.09759 22.043105,11.32322 32.158766,21.979434 L 37.068811,17.246167 C 37.068811,17.246167 37.088388,32 37.088388,32 L 22.160133,31.978069 C 22.160133,31.978069 26.997745,27.140456 26.997745,27.140456 C 18.528582,18.264221 13.291696,25.230495 11.500037,31.436501 z"
             style="fill:#404040;"/>
          </a>
         </g>
        </svg>
</svg>
