<?xml version="1.0" encoding="UTF-8" standalone="no"?>
<!DOCTYPE svg PUBLIC "-//W3C//DTD SVG 1.1//EN"
 "http://www.w3.org/Graphics/SVG/1.1/DTD/svg11.dtd">
<!-- Generated by graphviz version 2.36.0 (20140111.2315)
 -->
<!-- Title: parser.InstructionFactory Pages: 1 -->
<svg width="1102pt" height="459pt"
 viewBox="0.00 0.00 1102.00 459.49" xmlns="http://www.w3.org/2000/svg" xmlns:xlink="http://www.w3.org/1999/xlink">
<g id="graph0" class="graph" transform="scale(1 1) rotate(0) translate(4 455.491)">
<title>parser.InstructionFactory</title>
<polygon fill="white" stroke="none" points="-4,4 -4,-455.491 1098,-455.491 1098,4 -4,4"/>
<!-- Node1 -->
<g id="node1" class="node"><title>Node1</title>
<polygon fill="#bfbfbf" stroke="black" points="960,-394.991 960,-413.991 1094,-413.991 1094,-394.991 960,-394.991"/>
<text text-anchor="middle" x="1027" y="-401.991" font-family="Helvetica,sans-Serif" font-size="10.00">parser.InstructionFactory</text>
</g>
<!-- Node2 -->
<g id="node2" class="node"><title>Node2</title>
<polygon fill="white" stroke="#bfbfbf" points="4.5,-403.991 4.5,-422.991 75.5,-422.991 75.5,-403.991 4.5,-403.991"/>
<text text-anchor="middle" x="40" y="-410.991" font-family="Helvetica,sans-Serif" font-size="10.00">Serializable</text>
</g>
<!-- Node2&#45;&gt;Node1 -->
<g id="edge1" class="edge"><title>Node2&#45;&gt;Node1</title>
<path fill="none" stroke="midnightblue" d="M82.8982,-425.745C124.616,-436.851 190.67,-451.491 249,-451.491 249,-451.491 249,-451.491 761,-451.491 846.039,-451.491 944.103,-427.735 993.69,-414.002"/>
<polygon fill="midnightblue" stroke="midnightblue" points="83.6613,-422.325 73.0934,-423.08 81.8253,-429.08 83.6613,-422.325"/>
</g>
<!-- Node6 -->
<g id="node6" class="node"><title>Node6</title>
<g id="a_node6"><a xlink:href="../../d1/d69/interfacemodel_1_1_feature.html" target="_top" xlink:title="model.Feature">
<polygon fill="white" stroke="black" points="207,-289.991 207,-308.991 293,-308.991 293,-289.991 207,-289.991"/>
<text text-anchor="middle" x="250" y="-296.991" font-family="Helvetica,sans-Serif" font-size="10.00">model.Feature</text>
</a>
</g>
</g>
<!-- Node2&#45;&gt;Node6 -->
<g id="edge6" class="edge"><title>Node2&#45;&gt;Node6</title>
<path fill="none" stroke="midnightblue" d="M59.9173,-397.509C85.5713,-376.581 133.541,-340.03 180,-318.491 188.454,-314.571 197.877,-311.317 206.976,-308.676"/>
<polygon fill="midnightblue" stroke="midnightblue" points="57.5861,-394.895 52.1072,-403.963 62.0453,-400.291 57.5861,-394.895"/>
</g>
<!-- Node3 -->
<g id="node3" class="node"><title>Node3</title>
<polygon fill="white" stroke="#bfbfbf" points="713.5,-394.991 713.5,-413.991 806.5,-413.991 806.5,-394.991 713.5,-394.991"/>
<text text-anchor="middle" x="760" y="-401.991" font-family="Helvetica,sans-Serif" font-size="10.00">ResourceBundle</text>
</g>
<!-- Node3&#45;&gt;Node1 -->
<g id="edge2" class="edge"><title>Node3&#45;&gt;Node1</title>
<path fill="none" stroke="#9a32cd" stroke-dasharray="5,2" d="M816.561,-404.491C858.367,-404.491 915.81,-404.491 959.964,-404.491"/>
<polygon fill="#9a32cd" stroke="#9a32cd" points="816.555,-400.991 806.555,-404.491 816.555,-407.991 816.555,-400.991"/>
<text text-anchor="middle" x="892" y="-407.491" font-family="Helvetica,sans-Serif" font-size="10.00"> myLanguageBundle</text>
</g>
<!-- Node4 -->
<g id="node4" class="node"><title>Node4</title>
<g id="a_node4"><a xlink:href="../../d8/d36/classmodel_1_1_observable_data.html" target="_top" xlink:title="model.ObservableData">
<polygon fill="white" stroke="black" points="696.5,-331.991 696.5,-350.991 823.5,-350.991 823.5,-331.991 696.5,-331.991"/>
<text text-anchor="middle" x="760" y="-338.991" font-family="Helvetica,sans-Serif" font-size="10.00">model.ObservableData</text>
</a>
</g>
</g>
<!-- Node4&#45;&gt;Node1 -->
<g id="edge3" class="edge"><title>Node4&#45;&gt;Node1</title>
<path fill="none" stroke="#9a32cd" stroke-dasharray="5,2" d="M811.004,-353.378C861.65,-365.419 939.002,-383.808 985.808,-394.936"/>
<polygon fill="#9a32cd" stroke="#9a32cd" points="811.786,-349.967 801.248,-351.059 810.167,-356.777 811.786,-349.967"/>
<text text-anchor="middle" x="892" y="-387.491" font-family="Helvetica,sans-Serif" font-size="10.00"> myData</text>
</g>
<!-- Node5 -->
<g id="node5" class="node"><title>Node5</title>
<g id="a_node5"><a xlink:href="../../df/db7/classmodel_1_1_turtles_list.html" target="_top" xlink:title="model.TurtlesList">
<polygon fill="white" stroke="black" points="469.5,-331.991 469.5,-350.991 566.5,-350.991 566.5,-331.991 469.5,-331.991"/>
<text text-anchor="middle" x="518" y="-338.991" font-family="Helvetica,sans-Serif" font-size="10.00">model.TurtlesList</text>
</a>
</g>
</g>
<!-- Node5&#45;&gt;Node4 -->
<g id="edge4" class="edge"><title>Node5&#45;&gt;Node4</title>
<path fill="none" stroke="#9a32cd" stroke-dasharray="5,2" d="M577.064,-341.491C613.128,-341.491 659.475,-341.491 696.364,-341.491"/>
<polygon fill="#9a32cd" stroke="#9a32cd" points="576.703,-337.991 566.703,-341.491 576.703,-344.991 576.703,-337.991"/>
<text text-anchor="middle" x="648" y="-344.491" font-family="Helvetica,sans-Serif" font-size="10.00"> myTurtles</text>
</g>
<!-- Node6&#45;&gt;Node5 -->
<g id="edge5" class="edge"><title>Node6&#45;&gt;Node5</title>
<path fill="none" stroke="midnightblue" d="M303.073,-307.713C351.291,-315.326 422.405,-326.554 469.206,-333.944"/>
<polygon fill="midnightblue" stroke="midnightblue" points="303.572,-304.248 293.148,-306.146 302.48,-311.163 303.572,-304.248"/>
</g>
<!-- Node10 -->
<g id="node10" class="node"><title>Node10</title>
<g id="a_node10"><a xlink:href="../../d6/d34/classmodel_1_1_turtle.html" target="_top" xlink:title="model.Turtle">
<polygon fill="white" stroke="black" points="480.5,-191.991 480.5,-210.991 555.5,-210.991 555.5,-191.991 480.5,-191.991"/>
<text text-anchor="middle" x="518" y="-198.991" font-family="Helvetica,sans-Serif" font-size="10.00">model.Turtle</text>
</a>
</g>
</g>
<!-- Node6&#45;&gt;Node10 -->
<g id="edge12" class="edge"><title>Node6&#45;&gt;Node10</title>
<path fill="none" stroke="midnightblue" d="M303.288,-291.074C336.837,-284.682 380.903,-274.416 418,-259.491 450.525,-246.404 485.121,-223.898 503.567,-211.109"/>
<polygon fill="midnightblue" stroke="midnightblue" points="302.429,-287.673 293.233,-292.934 303.702,-294.556 302.429,-287.673"/>
</g>
<!-- Node7 -->
<g id="node7" class="node"><title>Node7</title>
<polygon fill="white" stroke="#bfbfbf" points="193,-365.991 193,-384.991 307,-384.991 307,-365.991 193,-365.991"/>
<text text-anchor="middle" x="250" y="-372.991" font-family="Helvetica,sans-Serif" font-size="10.00">List&lt; model.Turtle &gt;</text>
</g>
<!-- Node7&#45;&gt;Node5 -->
<g id="edge7" class="edge"><title>Node7&#45;&gt;Node5</title>
<path fill="none" stroke="#9a32cd" stroke-dasharray="5,2" d="M317.238,-367.024C364.533,-360.979 427.036,-352.99 469.442,-347.569"/>
<polygon fill="#9a32cd" stroke="#9a32cd" points="316.562,-363.582 307.087,-368.322 317.45,-370.525 316.562,-363.582"/>
<text text-anchor="middle" x="378" y="-367.491" font-family="Helvetica,sans-Serif" font-size="10.00"> allTurtles</text>
</g>
<!-- Node8 -->
<g id="node8" class="node"><title>Node8</title>
<polygon fill="white" stroke="#bfbfbf" points="180.5,-327.991 180.5,-346.991 319.5,-346.991 319.5,-327.991 180.5,-327.991"/>
<text text-anchor="middle" x="250" y="-334.991" font-family="Helvetica,sans-Serif" font-size="10.00">Stack&lt; List&lt; Integer &gt; &gt;</text>
</g>
<!-- Node8&#45;&gt;Node5 -->
<g id="edge8" class="edge"><title>Node8&#45;&gt;Node5</title>
<path fill="none" stroke="#9a32cd" stroke-dasharray="5,2" d="M329.603,-338.673C374.947,-339.354 430.484,-340.19 469.279,-340.773"/>
<polygon fill="#9a32cd" stroke="#9a32cd" points="329.553,-335.172 319.502,-338.521 329.448,-342.171 329.553,-335.172"/>
<text text-anchor="middle" x="378" y="-343.491" font-family="Helvetica,sans-Serif" font-size="10.00"> turtleScope</text>
</g>
<!-- Node9 -->
<g id="node9" class="node"><title>Node9</title>
<polygon fill="white" stroke="#bfbfbf" points="205.5,-403.991 205.5,-422.991 294.5,-422.991 294.5,-403.991 205.5,-403.991"/>
<text text-anchor="middle" x="250" y="-410.991" font-family="Helvetica,sans-Serif" font-size="10.00">List&lt; Integer &gt;</text>
</g>
<!-- Node9&#45;&gt;Node5 -->
<g id="edge9" class="edge"><title>Node9&#45;&gt;Node5</title>
<path fill="none" stroke="#9a32cd" stroke-dasharray="5,2" d="M304.918,-410.803C339.12,-407.159 383.3,-398.747 418,-379.491 428.171,-373.846 425.913,-366.285 436,-360.491 446.145,-354.663 457.979,-350.621 469.418,-347.818"/>
<polygon fill="#9a32cd" stroke="#9a32cd" points="304.265,-407.35 294.645,-411.788 304.933,-414.318 304.265,-407.35"/>
<text text-anchor="middle" x="378" y="-409.491" font-family="Helvetica,sans-Serif" font-size="10.00"> activeIDs</text>
</g>
<!-- Node10&#45;&gt;Node4 -->
<g id="edge10" class="edge"><title>Node10&#45;&gt;Node4</title>
<path fill="none" stroke="#9a32cd" stroke-dasharray="5,2" d="M544.277,-216.236C593.644,-245.033 701.635,-308.028 742.706,-331.986"/>
<polygon fill="#9a32cd" stroke="#9a32cd" points="545.898,-213.129 535.496,-211.113 542.37,-219.175 545.898,-213.129"/>
<text text-anchor="middle" x="648" y="-295.491" font-family="Helvetica,sans-Serif" font-size="10.00"> myTurtle</text>
</g>
<!-- Node11 -->
<g id="node11" class="node"><title>Node11</title>
<g id="a_node11"><a xlink:href="../../d5/dad/classmodel_1_1_turtle_abstract.html" target="_top" xlink:title="model.TurtleAbstract">
<polygon fill="white" stroke="black" points="192,-40.9906 192,-59.9906 308,-59.9906 308,-40.9906 192,-40.9906"/>
<text text-anchor="middle" x="250" y="-47.9906" font-family="Helvetica,sans-Serif" font-size="10.00">model.TurtleAbstract</text>
</a>
</g>
</g>
<!-- Node11&#45;&gt;Node10 -->
<g id="edge11" class="edge"><title>Node11&#45;&gt;Node10</title>
<path fill="none" stroke="midnightblue" d="M318.674,-42.3295C352.778,-42.1098 392.249,-48.4209 418,-73.4906 453.181,-107.742 402.458,-146.632 436,-182.491 447.249,-194.516 464.541,-199.599 480.265,-201.538"/>
<polygon fill="midnightblue" stroke="midnightblue" points="318.191,-38.8405 308.283,-42.5938 318.369,-45.8383 318.191,-38.8405"/>
</g>
<!-- Node12 -->
<g id="node12" class="node"><title>Node12</title>
<polygon fill="white" stroke="#bfbfbf" points="226.5,-2.99061 226.5,-21.9906 273.5,-21.9906 273.5,-2.99061 226.5,-2.99061"/>
<text text-anchor="middle" x="250" y="-9.99061" font-family="Helvetica,sans-Serif" font-size="10.00">Tooltip</text>
</g>
<!-- Node12&#45;&gt;Node10 -->
<g id="edge13" class="edge"><title>Node12&#45;&gt;Node10</title>
<path fill="none" stroke="#9a32cd" stroke-dasharray="5,2" d="M283.5,-4.85725C321.244,1.88661 382.812,5.97122 418,-28.4906 467.232,-76.7073 390.129,-131.066 436,-182.491 447.057,-194.887 464.526,-199.98 480.414,-201.83"/>
<polygon fill="#9a32cd" stroke="#9a32cd" points="282.674,-1.4523 273.528,-6.80006 284.013,-8.32312 282.674,-1.4523"/>
<text text-anchor="middle" x="378" y="-31.4906" font-family="Helvetica,sans-Serif" font-size="10.00"> myTurtleInfo</text>
</g>
<!-- Node13 -->
<g id="node13" class="node"><title>Node13</title>
<polygon fill="white" stroke="#bfbfbf" points="216,-247.991 216,-266.991 284,-266.991 284,-247.991 216,-247.991"/>
<text text-anchor="middle" x="250" y="-254.991" font-family="Helvetica,sans-Serif" font-size="10.00">ImageView</text>
</g>
<!-- Node13&#45;&gt;Node10 -->
<g id="edge14" class="edge"><title>Node13&#45;&gt;Node10</title>
<path fill="none" stroke="#9a32cd" stroke-dasharray="5,2" d="M294.156,-251.142C328.006,-245.887 376.221,-237.794 418,-228.491 440.606,-223.457 465.782,-216.573 485.089,-211.016"/>
<polygon fill="#9a32cd" stroke="#9a32cd" points="293.488,-247.704 284.135,-252.68 294.55,-254.623 293.488,-247.704"/>
<text text-anchor="middle" x="378" y="-247.491" font-family="Helvetica,sans-Serif" font-size="10.00"> myImage</text>
</g>
<!-- Node14 -->
<g id="node14" class="node"><title>Node14</title>
<g id="a_node14"><a xlink:href="../../de/ded/classmodel_1_1_pen.html" target="_top" xlink:title="model.Pen">
<polygon fill="white" stroke="black" points="216,-209.991 216,-228.991 284,-228.991 284,-209.991 216,-209.991"/>
<text text-anchor="middle" x="250" y="-216.991" font-family="Helvetica,sans-Serif" font-size="10.00">model.Pen</text>
</a>
</g>
</g>
<!-- Node14&#45;&gt;Node10 -->
<g id="edge15" class="edge"><title>Node14&#45;&gt;Node10</title>
<path fill="none" stroke="#9a32cd" stroke-dasharray="5,2" d="M294.348,-216.557C346.137,-213.053 431.858,-207.252 480.442,-203.964"/>
<polygon fill="#9a32cd" stroke="#9a32cd" points="293.892,-213.08 284.151,-217.247 294.365,-220.064 293.892,-213.08"/>
<text text-anchor="middle" x="378" y="-216.491" font-family="Helvetica,sans-Serif" font-size="10.00"> myPen</text>
</g>
<!-- Node15 -->
<g id="node15" class="node"><title>Node15</title>
<polygon fill="white" stroke="#bfbfbf" points="0,-228.991 0,-247.991 80,-247.991 80,-228.991 0,-228.991"/>
<text text-anchor="middle" x="40" y="-235.991" font-family="Helvetica,sans-Serif" font-size="10.00">List&lt; Color &gt;</text>
</g>
<!-- Node15&#45;&gt;Node14 -->
<g id="edge16" class="edge"><title>Node15&#45;&gt;Node14</title>
<path fill="none" stroke="#9a32cd" stroke-dasharray="5,2" d="M90.1563,-234C128.944,-230.457 181.989,-225.612 215.878,-222.516"/>
<polygon fill="#9a32cd" stroke="#9a32cd" points="89.7633,-230.522 80.1232,-234.917 90.4002,-237.493 89.7633,-230.522"/>
<text text-anchor="middle" x="130" y="-236.491" font-family="Helvetica,sans-Serif" font-size="10.00"> myCustom</text>
</g>
<!-- Node16 -->
<g id="node16" class="node"><title>Node16</title>
<polygon fill="white" stroke="#bfbfbf" points="19.5,-190.991 19.5,-209.991 60.5,-209.991 60.5,-190.991 19.5,-190.991"/>
<text text-anchor="middle" x="40" y="-197.991" font-family="Helvetica,sans-Serif" font-size="10.00">Color</text>
</g>
<!-- Node16&#45;&gt;Node14 -->
<g id="edge17" class="edge"><title>Node16&#45;&gt;Node14</title>
<path fill="none" stroke="#9a32cd" stroke-dasharray="5,2" d="M70.5888,-203.193C108.944,-206.697 175.648,-212.79 215.725,-216.451"/>
<polygon fill="#9a32cd" stroke="#9a32cd" points="70.8451,-199.702 60.5681,-202.278 70.2083,-206.673 70.8451,-199.702"/>
<text text-anchor="middle" x="130" y="-214.491" font-family="Helvetica,sans-Serif" font-size="10.00"> myLineColor</text>
</g>
<!-- Node17 -->
<g id="node17" class="node"><title>Node17</title>
<polygon fill="white" stroke="#bfbfbf" points="226.5,-168.991 226.5,-187.991 273.5,-187.991 273.5,-168.991 226.5,-168.991"/>
<text text-anchor="middle" x="250" y="-175.991" font-family="Helvetica,sans-Serif" font-size="10.00">Image</text>
</g>
<!-- Node17&#45;&gt;Node10 -->
<g id="edge18" class="edge"><title>Node17&#45;&gt;Node10</title>
<path fill="none" stroke="#9a32cd" stroke-dasharray="5,2" d="M283.985,-177.675C317.748,-177.217 371.684,-177.526 418,-182.491 438.708,-184.71 461.556,-188.972 480.08,-192.897"/>
<polygon fill="#9a32cd" stroke="#9a32cd" points="283.708,-174.179 273.768,-177.846 283.825,-181.178 283.708,-174.179"/>
<text text-anchor="middle" x="378" y="-196.491" font-family="Helvetica,sans-Serif" font-size="10.00"> myDefaultOn</text>
<text text-anchor="middle" x="378" y="-185.491" font-family="Helvetica,sans-Serif" font-size="10.00">myDefaultOff</text>
</g>
<!-- Node18 -->
<g id="node18" class="node"><title>Node18</title>
<polygon fill="white" stroke="#bfbfbf" points="227,-116.991 227,-135.991 273,-135.991 273,-116.991 227,-116.991"/>
<text text-anchor="middle" x="250" y="-123.991" font-family="Helvetica,sans-Serif" font-size="10.00">Group</text>
</g>
<!-- Node18&#45;&gt;Node10 -->
<g id="edge19" class="edge"><title>Node18&#45;&gt;Node10</title>
<path fill="none" stroke="#9a32cd" stroke-dasharray="5,2" d="M283.198,-120.38C319.479,-115.376 378.526,-113.11 418,-141.491 434.158,-153.108 420.699,-169.765 436,-182.491 448.327,-192.743 465.192,-197.676 480.343,-199.976"/>
<polygon fill="#9a32cd" stroke="#9a32cd" points="282.516,-116.944 273.16,-121.916 283.574,-123.863 282.516,-116.944"/>
<text text-anchor="middle" x="378" y="-166.491" font-family="Helvetica,sans-Serif" font-size="10.00"> myLines</text>
<text text-anchor="middle" x="378" y="-155.491" font-family="Helvetica,sans-Serif" font-size="10.00">myStamps</text>
<text text-anchor="middle" x="378" y="-144.491" font-family="Helvetica,sans-Serif" font-size="10.00">myDrawing</text>
</g>
<!-- Node19 -->
<g id="node19" class="node"><title>Node19</title>
<polygon fill="white" stroke="#bfbfbf" points="180,-78.9906 180,-97.9906 320,-97.9906 320,-78.9906 180,-78.9906"/>
<text text-anchor="middle" x="250" y="-85.9906" font-family="Helvetica,sans-Serif" font-size="10.00">ObservableList&lt; Image &gt;</text>
</g>
<!-- Node19&#45;&gt;Node10 -->
<g id="edge20" class="edge"><title>Node19&#45;&gt;Node10</title>
<path fill="none" stroke="#9a32cd" stroke-dasharray="5,2" d="M309.149,-77.9308C344.687,-74.9461 388.773,-77.9503 418,-103.491 445.117,-127.186 410.618,-156.946 436,-182.491 447.504,-194.069 464.635,-199.127 480.183,-201.166"/>
<polygon fill="#9a32cd" stroke="#9a32cd" points="308.492,-74.4795 298.898,-78.9738 309.201,-81.4435 308.492,-74.4795"/>
<text text-anchor="middle" x="378" y="-106.491" font-family="Helvetica,sans-Serif" font-size="10.00"> myTurtleShapes</text>
</g>
<!-- Node20 -->
<g id="node20" class="node"><title>Node20</title>
<polygon fill="white" stroke="#bfbfbf" points="494.5,-153.991 494.5,-172.991 541.5,-172.991 541.5,-153.991 494.5,-153.991"/>
<text text-anchor="middle" x="518" y="-160.991" font-family="Helvetica,sans-Serif" font-size="10.00">Locale</text>
</g>
<!-- Node20&#45;&gt;Node4 -->
<g id="edge21" class="edge"><title>Node20&#45;&gt;Node4</title>
<path fill="none" stroke="#9a32cd" stroke-dasharray="5,2" d="M551.677,-167.55C566.941,-170.335 585.01,-174.945 600,-182.491 673.575,-219.525 733.881,-303.525 752.809,-331.912"/>
<polygon fill="#9a32cd" stroke="#9a32cd" points="552.064,-164.067 541.629,-165.9 550.93,-170.974 552.064,-164.067"/>
<text text-anchor="middle" x="648" y="-240.491" font-family="Helvetica,sans-Serif" font-size="10.00"> myLocale</text>
</g>
<!-- Node21 -->
<g id="node21" class="node"><title>Node21</title>
<polygon fill="white" stroke="#bfbfbf" points="436.5,-369.991 436.5,-388.991 599.5,-388.991 599.5,-369.991 436.5,-369.991"/>
<text text-anchor="middle" x="518" y="-376.991" font-family="Helvetica,sans-Serif" font-size="10.00">Map&lt; String, model.Feature &gt;</text>
</g>
<!-- Node21&#45;&gt;Node4 -->
<g id="edge22" class="edge"><title>Node21&#45;&gt;Node4</title>
<path fill="none" stroke="#9a32cd" stroke-dasharray="5,2" d="M599.056,-368.539C624.342,-364.911 652.369,-360.716 678,-356.491 688.16,-354.816 699.012,-352.896 709.364,-351.003"/>
<polygon fill="#9a32cd" stroke="#9a32cd" points="598.548,-365.076 589.143,-369.952 599.537,-372.006 598.548,-365.076"/>
<text text-anchor="middle" x="648" y="-368.491" font-family="Helvetica,sans-Serif" font-size="10.00"> myFeatures</text>
</g>
</g>
</svg>
