<?xml version="1.0" encoding="UTF-8" standalone="no"?>
<!DOCTYPE svg PUBLIC "-//W3C//DTD SVG 1.1//EN"
 "http://www.w3.org/Graphics/SVG/1.1/DTD/svg11.dtd">
<!-- Generated by graphviz version 2.36.0 (20140111.2315)
 -->
<!-- Title: instructions.Instruction.execute Pages: 1 -->
<svg width="992pt" height="237pt"
 viewBox="0.00 0.00 992.00 237.00" xmlns="http://www.w3.org/2000/svg" xmlns:xlink="http://www.w3.org/1999/xlink">
<g id="graph0" class="graph" transform="scale(1 1) rotate(0) translate(4 233)">
<title>instructions.Instruction.execute</title>
<polygon fill="white" stroke="none" points="-4,4 -4,-233 988,-233 988,4 -4,4"/>
<!-- Node1 -->
<g id="node1" class="node"><title>Node1</title>
<polygon fill="#bfbfbf" stroke="black" points="0.5,-127.5 0.5,-146.5 167.5,-146.5 167.5,-127.5 0.5,-127.5"/>
<text text-anchor="middle" x="84" y="-134.5" font-family="Helvetica,sans-Serif" font-size="10.00">instructions.Instruction.execute</text>
</g>
<!-- Node2 -->
<g id="node2" class="node"><title>Node2</title>
<g id="a_node2"><a xlink:href="../../d4/d62/classinstructions_1_1commands_1_1_sum.html#a5319774b5ed5a80b604347c40b1f1236" target="_top" xlink:title="instructions.commands.Sum.execute">
<polygon fill="white" stroke="black" points="216,-209.5 216,-228.5 412,-228.5 412,-209.5 216,-209.5"/>
<text text-anchor="middle" x="314" y="-216.5" font-family="Helvetica,sans-Serif" font-size="10.00">instructions.commands.Sum.execute</text>
</a>
</g>
</g>
<!-- Node1&#45;&gt;Node2 -->
<g id="edge1" class="edge"><title>Node1&#45;&gt;Node2</title>
<path fill="none" stroke="midnightblue" d="M107.815,-151.882C131.074,-166.365 168.659,-187.905 204,-200 215.268,-203.856 227.471,-206.959 239.496,-209.447"/>
<polygon fill="midnightblue" stroke="midnightblue" points="109.671,-148.914 99.349,-146.526 105.929,-154.83 109.671,-148.914"/>
</g>
<!-- Node3 -->
<g id="node3" class="node"><title>Node3</title>
<g id="a_node3"><a xlink:href="../../d9/da9/classinstructions_1_1commands_1_1_backward.html#a8f3dbbeb56ad5c4b7a64cabcc2d63daa" target="_top" xlink:title="instructions.commands.Backward.execute">
<polygon fill="white" stroke="black" points="204.5,-171.5 204.5,-190.5 423.5,-190.5 423.5,-171.5 204.5,-171.5"/>
<text text-anchor="middle" x="314" y="-178.5" font-family="Helvetica,sans-Serif" font-size="10.00">instructions.commands.Backward.execute</text>
</a>
</g>
</g>
<!-- Node1&#45;&gt;Node3 -->
<g id="edge2" class="edge"><title>Node1&#45;&gt;Node3</title>
<path fill="none" stroke="midnightblue" d="M141.116,-148.528C160.967,-152.55 183.463,-157.045 204,-161 222.231,-164.511 242.206,-168.217 260.019,-171.472"/>
<polygon fill="midnightblue" stroke="midnightblue" points="141.8,-145.096 131.303,-146.535 140.407,-151.955 141.8,-145.096"/>
</g>
<!-- Node4 -->
<g id="node4" class="node"><title>Node4</title>
<g id="a_node4"><a xlink:href="../../df/d40/classinstructions_1_1commands_1_1_make_variable.html#ab41d20d8160cb52fc4e0d7656236795c" target="_top" xlink:title="instructions.commands.Make\lVariable.execute">
<polygon fill="white" stroke="black" points="235,-122 235,-152 393,-152 393,-122 235,-122"/>
<text text-anchor="start" x="243" y="-140" font-family="Helvetica,sans-Serif" font-size="10.00">instructions.commands.Make</text>
<text text-anchor="middle" x="314" y="-129" font-family="Helvetica,sans-Serif" font-size="10.00">Variable.execute</text>
</a>
</g>
</g>
<!-- Node1&#45;&gt;Node4 -->
<g id="edge3" class="edge"><title>Node1&#45;&gt;Node4</title>
<path fill="none" stroke="midnightblue" d="M177.758,-137C196.701,-137 216.455,-137 234.827,-137"/>
<polygon fill="midnightblue" stroke="midnightblue" points="177.636,-133.5 167.636,-137 177.636,-140.5 177.636,-133.5"/>
</g>
<!-- Node5 -->
<g id="node5" class="node"><title>Node5</title>
<g id="a_node5"><a xlink:href="../../d2/d36/classinstructions_1_1_user_defined_command.html#afe96555346246fb88ab982a75b5189ef" target="_top" xlink:title="instructions.UserDefined\lCommand.execute">
<polygon fill="white" stroke="black" points="247,-73 247,-103 381,-103 381,-73 247,-73"/>
<text text-anchor="start" x="255" y="-91" font-family="Helvetica,sans-Serif" font-size="10.00">instructions.UserDefined</text>
<text text-anchor="middle" x="314" y="-80" font-family="Helvetica,sans-Serif" font-size="10.00">Command.execute</text>
</a>
</g>
</g>
<!-- Node1&#45;&gt;Node5 -->
<g id="edge4" class="edge"><title>Node1&#45;&gt;Node5</title>
<path fill="none" stroke="midnightblue" d="M139.371,-125.315C171.623,-118.384 212.737,-109.548 246.86,-102.214"/>
<polygon fill="midnightblue" stroke="midnightblue" points="138.272,-121.971 129.231,-127.494 139.743,-128.815 138.272,-121.971"/>
</g>
<!-- Node6 -->
<g id="node6" class="node"><title>Node6</title>
<g id="a_node6"><a xlink:href="../../d3/d88/classmodel_1_1_slogo_model.html#a54085c9bf13d8dcfd7deed3623be36f1" target="_top" xlink:title="model.SlogoModel.execute\lCommands">
<polygon fill="white" stroke="black" points="241,-24 241,-54 387,-54 387,-24 241,-24"/>
<text text-anchor="start" x="249" y="-42" font-family="Helvetica,sans-Serif" font-size="10.00">model.SlogoModel.execute</text>
<text text-anchor="middle" x="314" y="-31" font-family="Helvetica,sans-Serif" font-size="10.00">Commands</text>
</a>
</g>
</g>
<!-- Node1&#45;&gt;Node6 -->
<g id="edge5" class="edge"><title>Node1&#45;&gt;Node6</title>
<path fill="none" stroke="midnightblue" d="M105.718,-121.379C128.619,-104.828 167.158,-79.0518 204,-64 215.593,-59.2639 228.263,-55.3274 240.732,-52.0881"/>
<polygon fill="midnightblue" stroke="midnightblue" points="103.457,-118.697 97.4656,-127.435 107.598,-124.34 103.457,-118.697"/>
</g>
<!-- Node7 -->
<g id="node7" class="node"><title>Node7</title>
<g id="a_node7"><a xlink:href="../../d3/d88/classmodel_1_1_slogo_model.html#ad096dbf0a253635d346a622540f472bd" target="_top" xlink:title="model.SlogoModel.parseAnd\lExecute">
<polygon fill="white" stroke="black" points="460,-24 460,-54 614,-54 614,-24 460,-24"/>
<text text-anchor="start" x="468" y="-42" font-family="Helvetica,sans-Serif" font-size="10.00">model.SlogoModel.parseAnd</text>
<text text-anchor="middle" x="537" y="-31" font-family="Helvetica,sans-Serif" font-size="10.00">Execute</text>
</a>
</g>
</g>
<!-- Node6&#45;&gt;Node7 -->
<g id="edge6" class="edge"><title>Node6&#45;&gt;Node7</title>
<path fill="none" stroke="midnightblue" d="M397.31,-39C417.801,-39 439.678,-39 459.858,-39"/>
<polygon fill="midnightblue" stroke="midnightblue" points="397.058,-35.5001 387.058,-39 397.058,-42.5001 397.058,-35.5001"/>
</g>
<!-- Node8 -->
<g id="node8" class="node"><title>Node8</title>
<g id="a_node8"><a xlink:href="../../d6/d0a/classview_1_1_input_view.html#a948930c9b825f34ef8f5def96910471b" target="_top" xlink:title="view.InputView.initSubmit\lButton">
<polygon fill="white" stroke="black" points="653,-49 653,-79 789,-79 789,-49 653,-49"/>
<text text-anchor="start" x="661" y="-67" font-family="Helvetica,sans-Serif" font-size="10.00">view.InputView.initSubmit</text>
<text text-anchor="middle" x="721" y="-56" font-family="Helvetica,sans-Serif" font-size="10.00">Button</text>
</a>
</g>
</g>
<!-- Node7&#45;&gt;Node8 -->
<g id="edge7" class="edge"><title>Node7&#45;&gt;Node8</title>
<path fill="none" stroke="midnightblue" d="M624.137,-50.8321C633.784,-52.1571 643.503,-53.4922 652.86,-54.7775"/>
<polygon fill="midnightblue" stroke="midnightblue" points="624.513,-47.3509 614.13,-49.4574 623.56,-54.2858 624.513,-47.3509"/>
</g>
<!-- Node10 -->
<g id="node10" class="node"><title>Node10</title>
<g id="a_node10"><a xlink:href="../../d4/d90/classview_1_1_key_controls.html#a0c3663cb62e91e8919b0296aad899a8f" target="_top" xlink:title="view.KeyControls.makeKey\lCommands">
<polygon fill="white" stroke="black" points="650,-0 650,-30 792,-30 792,-0 650,-0"/>
<text text-anchor="start" x="658" y="-18" font-family="Helvetica,sans-Serif" font-size="10.00">view.KeyControls.makeKey</text>
<text text-anchor="middle" x="721" y="-7" font-family="Helvetica,sans-Serif" font-size="10.00">Commands</text>
</a>
</g>
</g>
<!-- Node7&#45;&gt;Node10 -->
<g id="edge9" class="edge"><title>Node7&#45;&gt;Node10</title>
<path fill="none" stroke="midnightblue" d="M624.221,-27.6303C632.855,-26.4917 641.547,-25.3455 649.984,-24.2329"/>
<polygon fill="midnightblue" stroke="midnightblue" points="623.586,-24.1835 614.13,-28.9609 624.502,-31.1234 623.586,-24.1835"/>
</g>
<!-- Node9 -->
<g id="node9" class="node"><title>Node9</title>
<g id="a_node9"><a xlink:href="../../d6/d0a/classview_1_1_input_view.html#ac75e6562ed83ace6cb0a0ac886780054" target="_top" xlink:title="view.InputView.InputView">
<polygon fill="white" stroke="black" points="839.5,-54.5 839.5,-73.5 972.5,-73.5 972.5,-54.5 839.5,-54.5"/>
<text text-anchor="middle" x="906" y="-61.5" font-family="Helvetica,sans-Serif" font-size="10.00">view.InputView.InputView</text>
</a>
</g>
</g>
<!-- Node8&#45;&gt;Node9 -->
<g id="edge8" class="edge"><title>Node8&#45;&gt;Node9</title>
<path fill="none" stroke="midnightblue" d="M799.232,-64C812.608,-64 826.402,-64 839.432,-64"/>
<polygon fill="midnightblue" stroke="midnightblue" points="799.103,-60.5001 789.103,-64 799.103,-67.5001 799.103,-60.5001"/>
</g>
<!-- Node11 -->
<g id="node11" class="node"><title>Node11</title>
<g id="a_node11"><a xlink:href="../../d4/d90/classview_1_1_key_controls.html#a4b73546f8ba8feee9e878b3cf743fb61" target="_top" xlink:title="view.KeyControls.KeyControls">
<polygon fill="white" stroke="black" points="828.5,-5.5 828.5,-24.5 983.5,-24.5 983.5,-5.5 828.5,-5.5"/>
<text text-anchor="middle" x="906" y="-12.5" font-family="Helvetica,sans-Serif" font-size="10.00">view.KeyControls.KeyControls</text>
</a>
</g>
</g>
<!-- Node10&#45;&gt;Node11 -->
<g id="edge10" class="edge"><title>Node10&#45;&gt;Node11</title>
<path fill="none" stroke="midnightblue" d="M802.279,-15C810.909,-15 819.674,-15 828.261,-15"/>
<polygon fill="midnightblue" stroke="midnightblue" points="802.229,-11.5001 792.229,-15 802.229,-18.5001 802.229,-11.5001"/>
</g>
</g>
</svg>
