<?xml version="1.0" encoding="UTF-8" standalone="no"?>
<!DOCTYPE svg PUBLIC "-//W3C//DTD SVG 1.1//EN"
 "http://www.w3.org/Graphics/SVG/1.1/DTD/svg11.dtd">
<!-- Generated by graphviz version 2.36.0 (20140111.2315)
 -->
<!-- Title: instructions.UserDefinedInstruction.getName Pages: 1 -->
<!--zoomable 224 -->
<svg id="main" version="1.1" xmlns="http://www.w3.org/2000/svg" xmlns:xlink="http://www.w3.org/1999/xlink" xml:space="preserve" onload="init(evt)">
<style type="text/css"><![CDATA[
.edge:hover path { stroke: red; }
.edge:hover polygon { stroke: red; fill: red; }
]]></style>
<script type="text/javascript"><![CDATA[
var edges = document.getElementsByTagName('g');
if (edges && edges.length) {
  for (var i=0;i<edges.length;i++) {
    if (edges[i].id.substr(0,4)=='edge') {
      edges[i].setAttribute('class','edge');
    }
  }
}
]]></script>
        <defs>
                <circle id="rim" cx="0" cy="0" r="7"/>
                <circle id="rim2" cx="0" cy="0" r="3.5"/>
                <g id="zoomPlus">
                        <use xlink:href="#rim" fill="#404040">
                                <set attributeName="fill" to="#808080" begin="zoomplus.mouseover" end="zoomplus.mouseout"/>
                        </use>
                        <path d="M-4,0h8M0,-4v8" fill="none" stroke="white" stroke-width="1.5" pointer-events="none"/>
                </g>
                <g id="zoomMin">
                        <use xlink:href="#rim" fill="#404040">
                                <set attributeName="fill" to="#808080" begin="zoomminus.mouseover" end="zoomminus.mouseout"/>
                        </use>
                        <path d="M-4,0h8" fill="none" stroke="white" stroke-width="1.5" pointer-events="none"/>
                </g>
                <g id="dirArrow">
                        <path fill="none" stroke="white" stroke-width="1.5" d="M0,-3.0v7 M-2.5,-0.5L0,-3.0L2.5,-0.5"/>
                </g>
               <g id="resetDef">
                       <use xlink:href="#rim2" fill="#404040">
                               <set attributeName="fill" to="#808080" begin="reset.mouseover" end="reset.mouseout"/>
                       </use>
               </g>
        </defs>

<script type="text/javascript">
var viewWidth = 536;
var viewHeight = 224;
var sectionId = 'dynsection-2';
</script>
<script xlink:href="../../svgpan.js"/>
<svg id="graph" class="graph">
<g id="viewport">
<title>instructions.UserDefinedInstruction.getName</title>
<polygon fill="white" stroke="none" points="-4,4 -4,-220 532,-220 532,4 -4,4"/>
<!-- Node1 -->
<g id="node1" class="node"><title>Node1</title>
<polygon fill="#bfbfbf" stroke="black" points="0,-93 0,-123 134,-123 134,-93 0,-93"/>
<text text-anchor="start" x="8" y="-111" font-family="Helvetica,sans-Serif" font-size="10.00">instructions.UserDefined</text>
<text text-anchor="middle" x="67" y="-100" font-family="Helvetica,sans-Serif" font-size="10.00">Instruction.getName</text>
</g>
<!-- Node2 -->
<g id="node2" class="node"><title>Node2</title>
<g id="a_node2"><a xlink:href="../../dd/de9/classinstructions_1_1commands_1_1_do_times.html#ae42180528b9ce237a22652ccf7c4048a" target="_top" xlink:title="instructions.commands.Do\lTimes.execute">
<polygon fill="white" stroke="black" points="191,-186 191,-216 337,-216 337,-186 191,-186"/>
<text text-anchor="start" x="199" y="-204" font-family="Helvetica,sans-Serif" font-size="10.00">instructions.commands.Do</text>
<text text-anchor="middle" x="264" y="-193" font-family="Helvetica,sans-Serif" font-size="10.00">Times.execute</text>
</a>
</g>
</g>
<!-- Node1&#45;&gt;Node2 -->
<g id="edge1" class="edge"><title>Node1&#45;&gt;Node2</title>
<path fill="none" stroke="midnightblue" d="M94.3935,-129.105C114.199,-144.041 142.519,-163.553 170,-176 178.376,-179.794 187.446,-183.112 196.525,-185.983"/>
<polygon fill="midnightblue" stroke="midnightblue" points="96.5198,-126.325 86.4543,-123.018 92.2605,-131.88 96.5198,-126.325"/>
</g>
<!-- Node3 -->
<g id="node3" class="node"><title>Node3</title>
<g id="a_node3"><a xlink:href="../../df/d40/classinstructions_1_1commands_1_1_make_variable.html#ab41d20d8160cb52fc4e0d7656236795c" target="_top" xlink:title="instructions.commands.Make\lVariable.execute">
<polygon fill="white" stroke="black" points="185,-137 185,-167 343,-167 343,-137 185,-137"/>
<text text-anchor="start" x="193" y="-155" font-family="Helvetica,sans-Serif" font-size="10.00">instructions.commands.Make</text>
<text text-anchor="middle" x="264" y="-144" font-family="Helvetica,sans-Serif" font-size="10.00">Variable.execute</text>
</a>
</g>
</g>
<!-- Node1&#45;&gt;Node3 -->
<g id="edge2" class="edge"><title>Node1&#45;&gt;Node3</title>
<path fill="none" stroke="midnightblue" d="M144.06,-125.162C161.33,-129.059 179.544,-133.169 196.386,-136.969"/>
<polygon fill="midnightblue" stroke="midnightblue" points="144.543,-121.683 134.018,-122.896 143.002,-128.512 144.543,-121.683"/>
</g>
<!-- Node4 -->
<g id="node4" class="node"><title>Node4</title>
<g id="a_node4"><a xlink:href="../../de/d23/classinstructions_1_1commands_1_1_for.html#afcedd294e27c3810d9f5c48ba871ad3a" target="_top" xlink:title="instructions.commands.For.execute">
<polygon fill="white" stroke="black" points="170,-98.5 170,-117.5 358,-117.5 358,-98.5 170,-98.5"/>
<text text-anchor="middle" x="264" y="-105.5" font-family="Helvetica,sans-Serif" font-size="10.00">instructions.commands.For.execute</text>
</a>
</g>
</g>
<!-- Node1&#45;&gt;Node4 -->
<g id="edge3" class="edge"><title>Node1&#45;&gt;Node4</title>
<path fill="none" stroke="midnightblue" d="M144.129,-108C152.523,-108 161.139,-108 169.712,-108"/>
<polygon fill="midnightblue" stroke="midnightblue" points="144.018,-104.5 134.018,-108 144.018,-111.5 144.018,-104.5"/>
</g>
<!-- Node5 -->
<g id="node5" class="node"><title>Node5</title>
<g id="a_node5"><a xlink:href="../../dc/d89/classinstructions_1_1commands_1_1_make_user_instruction.html#a266ae5979c8a7fc525d334e2a0871680" target="_top" xlink:title="instructions.commands.Make\lUserInstruction.execute">
<polygon fill="white" stroke="black" points="185,-49 185,-79 343,-79 343,-49 185,-49"/>
<text text-anchor="start" x="193" y="-67" font-family="Helvetica,sans-Serif" font-size="10.00">instructions.commands.Make</text>
<text text-anchor="middle" x="264" y="-56" font-family="Helvetica,sans-Serif" font-size="10.00">UserInstruction.execute</text>
</a>
</g>
</g>
<!-- Node1&#45;&gt;Node5 -->
<g id="edge4" class="edge"><title>Node1&#45;&gt;Node5</title>
<path fill="none" stroke="midnightblue" d="M144.06,-90.8378C161.33,-86.941 179.544,-82.8312 196.386,-79.0308"/>
<polygon fill="midnightblue" stroke="midnightblue" points="143.002,-87.4883 134.018,-93.1036 144.543,-94.3166 143.002,-87.4883"/>
</g>
<!-- Node6 -->
<g id="node6" class="node"><title>Node6</title>
<g id="a_node6"><a xlink:href="../../d2/d36/classinstructions_1_1_user_defined_command.html#ab0d767a2ed4e744757c7809dc04cb215" target="_top" xlink:title="instructions.UserDefined\lCommand.setVariables">
<polygon fill="white" stroke="black" points="197,-0 197,-30 331,-30 331,-0 197,-0"/>
<text text-anchor="start" x="205" y="-18" font-family="Helvetica,sans-Serif" font-size="10.00">instructions.UserDefined</text>
<text text-anchor="middle" x="264" y="-7" font-family="Helvetica,sans-Serif" font-size="10.00">Command.setVariables</text>
</a>
</g>
</g>
<!-- Node1&#45;&gt;Node6 -->
<g id="edge5" class="edge"><title>Node1&#45;&gt;Node6</title>
<path fill="none" stroke="midnightblue" d="M94.3935,-86.8951C114.199,-71.9588 142.519,-52.4474 170,-40 178.376,-36.206 187.446,-32.8882 196.525,-30.0173"/>
<polygon fill="midnightblue" stroke="midnightblue" points="92.2605,-84.1201 86.4543,-92.9823 96.5198,-89.6752 92.2605,-84.1201"/>
</g>
<!-- Node7 -->
<g id="node7" class="node"><title>Node7</title>
<g id="a_node7"><a xlink:href="../../d2/d36/classinstructions_1_1_user_defined_command.html#afe96555346246fb88ab982a75b5189ef" target="_top" xlink:title="instructions.UserDefined\lCommand.execute">
<polygon fill="white" stroke="black" points="394,-0 394,-30 528,-30 528,-0 394,-0"/>
<text text-anchor="start" x="402" y="-18" font-family="Helvetica,sans-Serif" font-size="10.00">instructions.UserDefined</text>
<text text-anchor="middle" x="461" y="-7" font-family="Helvetica,sans-Serif" font-size="10.00">Command.execute</text>
</a>
</g>
</g>
<!-- Node6&#45;&gt;Node7 -->
<g id="edge6" class="edge"><title>Node6&#45;&gt;Node7</title>
<path fill="none" stroke="midnightblue" d="M341.116,-15C358.482,-15 376.801,-15 393.718,-15"/>
<polygon fill="midnightblue" stroke="midnightblue" points="341.018,-11.5001 331.018,-15 341.018,-18.5001 341.018,-11.5001"/>
</g>
</g>
</svg>
        <g id="navigator" transform="translate(0 0)" fill="#404254">
                <rect fill="#f2f5e9" fill-opacity="0.5" stroke="#606060" stroke-width=".5" x="0" y="0" width="60" height="60"/>
                <use id="zoomplus" xlink:href="#zoomPlus" x="17" y="9" onmousedown="handleZoom(evt,'in')"/>
                <use id="zoomminus" xlink:href="#zoomMin" x="42" y="9" onmousedown="handleZoom(evt,'out')"/>
                <use id="reset" xlink:href="#resetDef" x="30" y="36" onmousedown="handleReset()"/>
                <g id="arrowUp" xlink:href="#dirArrow" transform="translate(30 24)" onmousedown="handlePan(0,-1)">
                  <use xlink:href="#rim" fill="#404040">
                        <set attributeName="fill" to="#808080" begin="arrowUp.mouseover" end="arrowUp.mouseout"/>
                  </use>
                  <path fill="none" stroke="white" stroke-width="1.5" d="M0,-3.0v7 M-2.5,-0.5L0,-3.0L2.5,-0.5"/>
                </g>
                <g id="arrowRight" xlink:href="#dirArrow" transform="rotate(90) translate(36 -43)" onmousedown="handlePan(1,0)">
                  <use xlink:href="#rim" fill="#404040">
                        <set attributeName="fill" to="#808080" begin="arrowRight.mouseover" end="arrowRight.mouseout"/>
                  </use>
                  <path fill="none" stroke="white" stroke-width="1.5" d="M0,-3.0v7 M-2.5,-0.5L0,-3.0L2.5,-0.5"/>
                </g>
                <g id="arrowDown" xlink:href="#dirArrow" transform="rotate(180) translate(-30 -48)" onmousedown="handlePan(0,1)">
                  <use xlink:href="#rim" fill="#404040">
                        <set attributeName="fill" to="#808080" begin="arrowDown.mouseover" end="arrowDown.mouseout"/>
                  </use>
                  <path fill="none" stroke="white" stroke-width="1.5" d="M0,-3.0v7 M-2.5,-0.5L0,-3.0L2.5,-0.5"/>
                </g>
                <g id="arrowLeft" xlink:href="#dirArrow" transform="rotate(270) translate(-36 17)" onmousedown="handlePan(-1,0)">
                  <use xlink:href="#rim" fill="#404040">
                        <set attributeName="fill" to="#808080" begin="arrowLeft.mouseover" end="arrowLeft.mouseout"/>
                  </use>
                  <path fill="none" stroke="white" stroke-width="1.5" d="M0,-3.0v7 M-2.5,-0.5L0,-3.0L2.5,-0.5"/>
                </g>
        </g>
        <svg viewBox="0 0 15 15" width="100%" height="30px" preserveAspectRatio="xMaxYMin meet">
         <g id="arrow_out" transform="scale(0.3 0.3)">
          <a xlink:href="classinstructions_1_1_user_defined_instruction_ac2a1915074b04c4ceacfac5ef461a44b_icgraph_org.svg" target="_base">
           <rect id="button" ry="5" rx="5" y="6" x="6" height="38" width="38"
                fill="#f2f5e9" fill-opacity="0.5" stroke="#606060" stroke-width="1.0"/>
           <path id="arrow"
             d="M 11.500037,31.436501 C 11.940474,20.09759 22.043105,11.32322 32.158766,21.979434 L 37.068811,17.246167 C 37.068811,17.246167 37.088388,32 37.088388,32 L 22.160133,31.978069 C 22.160133,31.978069 26.997745,27.140456 26.997745,27.140456 C 18.528582,18.264221 13.291696,25.230495 11.500037,31.436501 z"
             style="fill:#404040;"/>
          </a>
         </g>
        </svg>
</svg>
