<?xml version="1.0" encoding="UTF-8" standalone="no"?>
<!DOCTYPE svg PUBLIC "-//W3C//DTD SVG 1.1//EN"
 "http://www.w3.org/Graphics/SVG/1.1/DTD/svg11.dtd">
<!-- Generated by graphviz version 2.36.0 (20140111.2315)
 -->
<!-- Title: instructions.UserDefinedInstruction.getName Pages: 1 -->
<svg width="536pt" height="224pt"
 viewBox="0.00 0.00 536.00 224.00" xmlns="http://www.w3.org/2000/svg" xmlns:xlink="http://www.w3.org/1999/xlink">
<g id="graph0" class="graph" transform="scale(1 1) rotate(0) translate(4 220)">
<title>instructions.UserDefinedInstruction.getName</title>
<polygon fill="white" stroke="none" points="-4,4 -4,-220 532,-220 532,4 -4,4"/>
<!-- Node1 -->
<g id="node1" class="node"><title>Node1</title>
<polygon fill="#bfbfbf" stroke="black" points="0,-93 0,-123 134,-123 134,-93 0,-93"/>
<text text-anchor="start" x="8" y="-111" font-family="Helvetica,sans-Serif" font-size="10.00">instructions.UserDefined</text>
<text text-anchor="middle" x="67" y="-100" font-family="Helvetica,sans-Serif" font-size="10.00">Instruction.getName</text>
</g>
<!-- Node2 -->
<g id="node2" class="node"><title>Node2</title>
<g id="a_node2"><a xlink:href="../../dd/de9/classinstructions_1_1commands_1_1_do_times.html#ae42180528b9ce237a22652ccf7c4048a" target="_top" xlink:title="instructions.commands.Do\lTimes.execute">
<polygon fill="white" stroke="black" points="191,-186 191,-216 337,-216 337,-186 191,-186"/>
<text text-anchor="start" x="199" y="-204" font-family="Helvetica,sans-Serif" font-size="10.00">instructions.commands.Do</text>
<text text-anchor="middle" x="264" y="-193" font-family="Helvetica,sans-Serif" font-size="10.00">Times.execute</text>
</a>
</g>
</g>
<!-- Node1&#45;&gt;Node2 -->
<g id="edge1" class="edge"><title>Node1&#45;&gt;Node2</title>
<path fill="none" stroke="midnightblue" d="M94.3935,-129.105C114.199,-144.041 142.519,-163.553 170,-176 178.376,-179.794 187.446,-183.112 196.525,-185.983"/>
<polygon fill="midnightblue" stroke="midnightblue" points="96.5198,-126.325 86.4543,-123.018 92.2605,-131.88 96.5198,-126.325"/>
</g>
<!-- Node3 -->
<g id="node3" class="node"><title>Node3</title>
<g id="a_node3"><a xlink:href="../../df/d40/classinstructions_1_1commands_1_1_make_variable.html#ab41d20d8160cb52fc4e0d7656236795c" target="_top" xlink:title="instructions.commands.Make\lVariable.execute">
<polygon fill="white" stroke="black" points="185,-137 185,-167 343,-167 343,-137 185,-137"/>
<text text-anchor="start" x="193" y="-155" font-family="Helvetica,sans-Serif" font-size="10.00">instructions.commands.Make</text>
<text text-anchor="middle" x="264" y="-144" font-family="Helvetica,sans-Serif" font-size="10.00">Variable.execute</text>
</a>
</g>
</g>
<!-- Node1&#45;&gt;Node3 -->
<g id="edge2" class="edge"><title>Node1&#45;&gt;Node3</title>
<path fill="none" stroke="midnightblue" d="M144.06,-125.162C161.33,-129.059 179.544,-133.169 196.386,-136.969"/>
<polygon fill="midnightblue" stroke="midnightblue" points="144.543,-121.683 134.018,-122.896 143.002,-128.512 144.543,-121.683"/>
</g>
<!-- Node4 -->
<g id="node4" class="node"><title>Node4</title>
<g id="a_node4"><a xlink:href="../../de/d23/classinstructions_1_1commands_1_1_for.html#afcedd294e27c3810d9f5c48ba871ad3a" target="_top" xlink:title="instructions.commands.For.execute">
<polygon fill="white" stroke="black" points="170,-98.5 170,-117.5 358,-117.5 358,-98.5 170,-98.5"/>
<text text-anchor="middle" x="264" y="-105.5" font-family="Helvetica,sans-Serif" font-size="10.00">instructions.commands.For.execute</text>
</a>
</g>
</g>
<!-- Node1&#45;&gt;Node4 -->
<g id="edge3" class="edge"><title>Node1&#45;&gt;Node4</title>
<path fill="none" stroke="midnightblue" d="M144.129,-108C152.523,-108 161.139,-108 169.712,-108"/>
<polygon fill="midnightblue" stroke="midnightblue" points="144.018,-104.5 134.018,-108 144.018,-111.5 144.018,-104.5"/>
</g>
<!-- Node5 -->
<g id="node5" class="node"><title>Node5</title>
<g id="a_node5"><a xlink:href="../../dc/d89/classinstructions_1_1commands_1_1_make_user_instruction.html#a266ae5979c8a7fc525d334e2a0871680" target="_top" xlink:title="instructions.commands.Make\lUserInstruction.execute">
<polygon fill="white" stroke="black" points="185,-49 185,-79 343,-79 343,-49 185,-49"/>
<text text-anchor="start" x="193" y="-67" font-family="Helvetica,sans-Serif" font-size="10.00">instructions.commands.Make</text>
<text text-anchor="middle" x="264" y="-56" font-family="Helvetica,sans-Serif" font-size="10.00">UserInstruction.execute</text>
</a>
</g>
</g>
<!-- Node1&#45;&gt;Node5 -->
<g id="edge4" class="edge"><title>Node1&#45;&gt;Node5</title>
<path fill="none" stroke="midnightblue" d="M144.06,-90.8378C161.33,-86.941 179.544,-82.8312 196.386,-79.0308"/>
<polygon fill="midnightblue" stroke="midnightblue" points="143.002,-87.4883 134.018,-93.1036 144.543,-94.3166 143.002,-87.4883"/>
</g>
<!-- Node6 -->
<g id="node6" class="node"><title>Node6</title>
<g id="a_node6"><a xlink:href="../../d2/d36/classinstructions_1_1_user_defined_command.html#ab0d767a2ed4e744757c7809dc04cb215" target="_top" xlink:title="instructions.UserDefined\lCommand.setVariables">
<polygon fill="white" stroke="black" points="197,-0 197,-30 331,-30 331,-0 197,-0"/>
<text text-anchor="start" x="205" y="-18" font-family="Helvetica,sans-Serif" font-size="10.00">instructions.UserDefined</text>
<text text-anchor="middle" x="264" y="-7" font-family="Helvetica,sans-Serif" font-size="10.00">Command.setVariables</text>
</a>
</g>
</g>
<!-- Node1&#45;&gt;Node6 -->
<g id="edge5" class="edge"><title>Node1&#45;&gt;Node6</title>
<path fill="none" stroke="midnightblue" d="M94.3935,-86.8951C114.199,-71.9588 142.519,-52.4474 170,-40 178.376,-36.206 187.446,-32.8882 196.525,-30.0173"/>
<polygon fill="midnightblue" stroke="midnightblue" points="92.2605,-84.1201 86.4543,-92.9823 96.5198,-89.6752 92.2605,-84.1201"/>
</g>
<!-- Node7 -->
<g id="node7" class="node"><title>Node7</title>
<g id="a_node7"><a xlink:href="../../d2/d36/classinstructions_1_1_user_defined_command.html#afe96555346246fb88ab982a75b5189ef" target="_top" xlink:title="instructions.UserDefined\lCommand.execute">
<polygon fill="white" stroke="black" points="394,-0 394,-30 528,-30 528,-0 394,-0"/>
<text text-anchor="start" x="402" y="-18" font-family="Helvetica,sans-Serif" font-size="10.00">instructions.UserDefined</text>
<text text-anchor="middle" x="461" y="-7" font-family="Helvetica,sans-Serif" font-size="10.00">Command.execute</text>
</a>
</g>
</g>
<!-- Node6&#45;&gt;Node7 -->
<g id="edge6" class="edge"><title>Node6&#45;&gt;Node7</title>
<path fill="none" stroke="midnightblue" d="M341.116,-15C358.482,-15 376.801,-15 393.718,-15"/>
<polygon fill="midnightblue" stroke="midnightblue" points="341.018,-11.5001 331.018,-15 341.018,-18.5001 341.018,-11.5001"/>
</g>
</g>
</svg>
