<?xml version="1.0" encoding="UTF-8" standalone="no"?>
<!DOCTYPE svg PUBLIC "-//W3C//DTD SVG 1.1//EN"
 "http://www.w3.org/Graphics/SVG/1.1/DTD/svg11.dtd">
<!-- Generated by graphviz version 2.36.0 (20140111.2315)
 -->
<!-- Title: model.ObservableData.clear Pages: 1 -->
<svg width="818pt" height="104pt"
 viewBox="0.00 0.00 818.00 104.00" xmlns="http://www.w3.org/2000/svg" xmlns:xlink="http://www.w3.org/1999/xlink">
<g id="graph0" class="graph" transform="scale(1 1) rotate(0) translate(4 100)">
<title>model.ObservableData.clear</title>
<polygon fill="white" stroke="none" points="-4,4 -4,-100 814,-100 814,4 -4,4"/>
<!-- Node1 -->
<g id="node1" class="node"><title>Node1</title>
<polygon fill="#bfbfbf" stroke="black" points="0.5,-38.5 0.5,-57.5 153.5,-57.5 153.5,-38.5 0.5,-38.5"/>
<text text-anchor="middle" x="77" y="-45.5" font-family="Helvetica,sans-Serif" font-size="10.00">model.ObservableData.clear</text>
</g>
<!-- Node2 -->
<g id="node2" class="node"><title>Node2</title>
<g id="a_node2"><a xlink:href="../../d6/d34/classmodel_1_1_turtle.html#aa12e02cec0c9313dbd61f53df171b1bd" target="_top" xlink:title="model.Turtle.clear">
<polygon fill="white" stroke="black" points="190.5,-38.5 190.5,-57.5 291.5,-57.5 291.5,-38.5 190.5,-38.5"/>
<text text-anchor="middle" x="241" y="-45.5" font-family="Helvetica,sans-Serif" font-size="10.00">model.Turtle.clear</text>
</a>
</g>
</g>
<!-- Node1&#45;&gt;Node2 -->
<g id="edge1" class="edge"><title>Node1&#45;&gt;Node2</title>
<path fill="none" stroke="midnightblue" d="M153.783,-48C162.564,-48 171.428,-48 179.959,-48"/>
<polygon fill="midnightblue" stroke="midnightblue" points="180.171,-51.5001 190.171,-48 180.171,-44.5001 180.171,-51.5001"/>
</g>
<!-- Node3 -->
<g id="node3" class="node"><title>Node3</title>
<g id="a_node3"><a xlink:href="../../d6/d34/classmodel_1_1_turtle.html#abf987ba62d49c24804d43b464f9b7410" target="_top" xlink:title="model.Turtle.setCoordinates">
<polygon fill="white" stroke="black" points="328.5,-76.5 328.5,-95.5 479.5,-95.5 479.5,-76.5 328.5,-76.5"/>
<text text-anchor="middle" x="404" y="-83.5" font-family="Helvetica,sans-Serif" font-size="10.00">model.Turtle.setCoordinates</text>
</a>
</g>
</g>
<!-- Node2&#45;&gt;Node3 -->
<g id="edge2" class="edge"><title>Node2&#45;&gt;Node3</title>
<path fill="none" stroke="midnightblue" d="M282.627,-57.589C303.968,-62.6261 330.312,-68.8438 352.908,-74.1771"/>
<polygon fill="midnightblue" stroke="midnightblue" points="352.128,-77.5891 362.665,-76.4799 353.736,-70.7763 352.128,-77.5891"/>
</g>
<!-- Node4 -->
<g id="node4" class="node"><title>Node4</title>
<g id="a_node4"><a xlink:href="../../d6/d34/classmodel_1_1_turtle.html#a138e6be2a3c83aea4ef698bf9e499bcf" target="_top" xlink:title="model.Turtle.setTurtleInfo">
<polygon fill="white" stroke="black" points="516,-57.5 516,-76.5 652,-76.5 652,-57.5 516,-57.5"/>
<text text-anchor="middle" x="584" y="-64.5" font-family="Helvetica,sans-Serif" font-size="10.00">model.Turtle.setTurtleInfo</text>
</a>
</g>
</g>
<!-- Node2&#45;&gt;Node4 -->
<g id="edge6" class="edge"><title>Node2&#45;&gt;Node4</title>
<path fill="none" stroke="midnightblue" d="M291.584,-50.7628C347.692,-53.889 439.793,-59.0207 505.433,-62.6781"/>
<polygon fill="midnightblue" stroke="midnightblue" points="505.552,-66.19 515.731,-63.2519 505.941,-59.2009 505.552,-66.19"/>
</g>
<!-- Node6 -->
<g id="node6" class="node"><title>Node6</title>
<g id="a_node6"><a xlink:href="../../d6/d34/classmodel_1_1_turtle.html#a561398015768e49764442dfa298f1bd3" target="_top" xlink:title="model.Turtle.setAngle">
<polygon fill="white" stroke="black" points="344,-0.5 344,-19.5 464,-19.5 464,-0.5 344,-0.5"/>
<text text-anchor="middle" x="404" y="-7.5" font-family="Helvetica,sans-Serif" font-size="10.00">model.Turtle.setAngle</text>
</a>
</g>
</g>
<!-- Node2&#45;&gt;Node6 -->
<g id="edge5" class="edge"><title>Node2&#45;&gt;Node6</title>
<path fill="none" stroke="midnightblue" d="M282.627,-38.411C303.968,-33.3739 330.312,-27.1562 352.908,-21.8229"/>
<polygon fill="midnightblue" stroke="midnightblue" points="353.736,-25.2237 362.665,-19.5201 352.128,-18.4109 353.736,-25.2237"/>
</g>
<!-- Node3&#45;&gt;Node4 -->
<g id="edge3" class="edge"><title>Node3&#45;&gt;Node4</title>
<path fill="none" stroke="midnightblue" d="M479.714,-78.0249C488.33,-77.1052 497.13,-76.1659 505.778,-75.2428"/>
<polygon fill="midnightblue" stroke="midnightblue" points="506.27,-78.7103 515.842,-74.1686 505.527,-71.7498 506.27,-78.7103"/>
</g>
<!-- Node5 -->
<g id="node5" class="node"><title>Node5</title>
<g id="a_node5"><a xlink:href="../../d6/d34/classmodel_1_1_turtle.html#a61d79b71c878b0c64adeab038483da7a" target="_top" xlink:title="model.Turtle.getAngle">
<polygon fill="white" stroke="black" points="688.5,-57.5 688.5,-76.5 809.5,-76.5 809.5,-57.5 688.5,-57.5"/>
<text text-anchor="middle" x="749" y="-64.5" font-family="Helvetica,sans-Serif" font-size="10.00">model.Turtle.getAngle</text>
</a>
</g>
</g>
<!-- Node4&#45;&gt;Node5 -->
<g id="edge4" class="edge"><title>Node4&#45;&gt;Node5</title>
<path fill="none" stroke="midnightblue" d="M652.239,-67C660.875,-67 669.73,-67 678.402,-67"/>
<polygon fill="midnightblue" stroke="midnightblue" points="678.474,-70.5001 688.474,-67 678.474,-63.5001 678.474,-70.5001"/>
</g>
</g>
</svg>
