<?xml version="1.0" encoding="UTF-8" standalone="no"?>
<!DOCTYPE svg PUBLIC "-//W3C//DTD SVG 1.1//EN"
 "http://www.w3.org/Graphics/SVG/1.1/DTD/svg11.dtd">
<!-- Generated by graphviz version 2.36.0 (20140111.2315)
 -->
<!-- Title: model.ObservableData.getTurtles Pages: 1 -->
<svg width="374pt" height="77pt"
 viewBox="0.00 0.00 374.00 77.00" xmlns="http://www.w3.org/2000/svg" xmlns:xlink="http://www.w3.org/1999/xlink">
<g id="graph0" class="graph" transform="scale(1 1) rotate(0) translate(4 73)">
<title>model.ObservableData.getTurtles</title>
<polygon fill="white" stroke="none" points="-4,4 -4,-73 370,-73 370,4 -4,4"/>
<!-- Node1 -->
<g id="node1" class="node"><title>Node1</title>
<polygon fill="#bfbfbf" stroke="black" points="0,-22 0,-52 146,-52 146,-22 0,-22"/>
<text text-anchor="start" x="8" y="-40" font-family="Helvetica,sans-Serif" font-size="10.00">model.ObservableData.get</text>
<text text-anchor="middle" x="73" y="-29" font-family="Helvetica,sans-Serif" font-size="10.00">Turtles</text>
</g>
<!-- Node2 -->
<g id="node2" class="node"><title>Node2</title>
<g id="a_node2"><a xlink:href="../../dd/d3f/classinstructions_1_1commands_1_1_i_d.html#a680848a69ac1f2779d954714ef41b01e" target="_top" xlink:title="instructions.commands.ID.execute">
<polygon fill="white" stroke="black" points="182.5,-49.5 182.5,-68.5 365.5,-68.5 365.5,-49.5 182.5,-49.5"/>
<text text-anchor="middle" x="274" y="-56.5" font-family="Helvetica,sans-Serif" font-size="10.00">instructions.commands.ID.execute</text>
</a>
</g>
</g>
<!-- Node1&#45;&gt;Node2 -->
<g id="edge1" class="edge"><title>Node1&#45;&gt;Node2</title>
<path fill="none" stroke="midnightblue" d="M156.167,-46.0838C166.309,-47.205 176.698,-48.3536 186.896,-49.481"/>
<polygon fill="midnightblue" stroke="midnightblue" points="156.449,-42.5937 146.125,-44.9736 155.68,-49.5513 156.449,-42.5937"/>
</g>
<!-- Node3 -->
<g id="node3" class="node"><title>Node3</title>
<g id="a_node3"><a xlink:href="../../d9/d38/classinstructions_1_1commands_1_1_num_turtles.html#ad3f16093ea3b751b3b4c6d27aabc97dd" target="_top" xlink:title="instructions.commands.Num\lTurtles.execute">
<polygon fill="white" stroke="black" points="196.5,-0 196.5,-30 351.5,-30 351.5,-0 196.5,-0"/>
<text text-anchor="start" x="204.5" y="-18" font-family="Helvetica,sans-Serif" font-size="10.00">instructions.commands.Num</text>
<text text-anchor="middle" x="274" y="-7" font-family="Helvetica,sans-Serif" font-size="10.00">Turtles.execute</text>
</a>
</g>
</g>
<!-- Node1&#45;&gt;Node3 -->
<g id="edge2" class="edge"><title>Node1&#45;&gt;Node3</title>
<path fill="none" stroke="midnightblue" d="M156.205,-27.912C169.516,-26.4404 183.254,-24.9217 196.424,-23.4656"/>
<polygon fill="midnightblue" stroke="midnightblue" points="155.68,-24.4487 146.125,-29.0264 156.449,-31.4063 155.68,-24.4487"/>
</g>
</g>
</svg>
