<?xml version="1.0" encoding="UTF-8" standalone="no"?>
<!DOCTYPE svg PUBLIC "-//W3C//DTD SVG 1.1//EN"
 "http://www.w3.org/Graphics/SVG/1.1/DTD/svg11.dtd">
<!-- Generated by graphviz version 2.36.0 (20140111.2315)
 -->
<!-- Title: model.ObservableData.clear Pages: 1 -->
<!--zoomable 104 -->
<svg id="main" version="1.1" xmlns="http://www.w3.org/2000/svg" xmlns:xlink="http://www.w3.org/1999/xlink" xml:space="preserve" onload="init(evt)">
<style type="text/css"><![CDATA[
.edge:hover path { stroke: red; }
.edge:hover polygon { stroke: red; fill: red; }
]]></style>
<script type="text/javascript"><![CDATA[
var edges = document.getElementsByTagName('g');
if (edges && edges.length) {
  for (var i=0;i<edges.length;i++) {
    if (edges[i].id.substr(0,4)=='edge') {
      edges[i].setAttribute('class','edge');
    }
  }
}
]]></script>
        <defs>
                <circle id="rim" cx="0" cy="0" r="7"/>
                <circle id="rim2" cx="0" cy="0" r="3.5"/>
                <g id="zoomPlus">
                        <use xlink:href="#rim" fill="#404040">
                                <set attributeName="fill" to="#808080" begin="zoomplus.mouseover" end="zoomplus.mouseout"/>
                        </use>
                        <path d="M-4,0h8M0,-4v8" fill="none" stroke="white" stroke-width="1.5" pointer-events="none"/>
                </g>
                <g id="zoomMin">
                        <use xlink:href="#rim" fill="#404040">
                                <set attributeName="fill" to="#808080" begin="zoomminus.mouseover" end="zoomminus.mouseout"/>
                        </use>
                        <path d="M-4,0h8" fill="none" stroke="white" stroke-width="1.5" pointer-events="none"/>
                </g>
                <g id="dirArrow">
                        <path fill="none" stroke="white" stroke-width="1.5" d="M0,-3.0v7 M-2.5,-0.5L0,-3.0L2.5,-0.5"/>
                </g>
               <g id="resetDef">
                       <use xlink:href="#rim2" fill="#404040">
                               <set attributeName="fill" to="#808080" begin="reset.mouseover" end="reset.mouseout"/>
                       </use>
               </g>
        </defs>

<script type="text/javascript">
var viewWidth = 818;
var viewHeight = 104;
var sectionId = 'dynsection-4';
</script>
<script xlink:href="../../svgpan.js"/>
<svg id="graph" class="graph">
<g id="viewport">
<title>model.ObservableData.clear</title>
<polygon fill="white" stroke="none" points="-4,4 -4,-100 814,-100 814,4 -4,4"/>
<!-- Node1 -->
<g id="node1" class="node"><title>Node1</title>
<polygon fill="#bfbfbf" stroke="black" points="0.5,-38.5 0.5,-57.5 153.5,-57.5 153.5,-38.5 0.5,-38.5"/>
<text text-anchor="middle" x="77" y="-45.5" font-family="Helvetica,sans-Serif" font-size="10.00">model.ObservableData.clear</text>
</g>
<!-- Node2 -->
<g id="node2" class="node"><title>Node2</title>
<g id="a_node2"><a xlink:href="../../d6/d34/classmodel_1_1_turtle.html#aa12e02cec0c9313dbd61f53df171b1bd" target="_top" xlink:title="model.Turtle.clear">
<polygon fill="white" stroke="black" points="190.5,-38.5 190.5,-57.5 291.5,-57.5 291.5,-38.5 190.5,-38.5"/>
<text text-anchor="middle" x="241" y="-45.5" font-family="Helvetica,sans-Serif" font-size="10.00">model.Turtle.clear</text>
</a>
</g>
</g>
<!-- Node1&#45;&gt;Node2 -->
<g id="edge1" class="edge"><title>Node1&#45;&gt;Node2</title>
<path fill="none" stroke="midnightblue" d="M153.783,-48C162.564,-48 171.428,-48 179.959,-48"/>
<polygon fill="midnightblue" stroke="midnightblue" points="180.171,-51.5001 190.171,-48 180.171,-44.5001 180.171,-51.5001"/>
</g>
<!-- Node3 -->
<g id="node3" class="node"><title>Node3</title>
<g id="a_node3"><a xlink:href="../../d6/d34/classmodel_1_1_turtle.html#abf987ba62d49c24804d43b464f9b7410" target="_top" xlink:title="model.Turtle.setCoordinates">
<polygon fill="white" stroke="black" points="328.5,-76.5 328.5,-95.5 479.5,-95.5 479.5,-76.5 328.5,-76.5"/>
<text text-anchor="middle" x="404" y="-83.5" font-family="Helvetica,sans-Serif" font-size="10.00">model.Turtle.setCoordinates</text>
</a>
</g>
</g>
<!-- Node2&#45;&gt;Node3 -->
<g id="edge2" class="edge"><title>Node2&#45;&gt;Node3</title>
<path fill="none" stroke="midnightblue" d="M282.627,-57.589C303.968,-62.6261 330.312,-68.8438 352.908,-74.1771"/>
<polygon fill="midnightblue" stroke="midnightblue" points="352.128,-77.5891 362.665,-76.4799 353.736,-70.7763 352.128,-77.5891"/>
</g>
<!-- Node4 -->
<g id="node4" class="node"><title>Node4</title>
<g id="a_node4"><a xlink:href="../../d6/d34/classmodel_1_1_turtle.html#a138e6be2a3c83aea4ef698bf9e499bcf" target="_top" xlink:title="model.Turtle.setTurtleInfo">
<polygon fill="white" stroke="black" points="516,-57.5 516,-76.5 652,-76.5 652,-57.5 516,-57.5"/>
<text text-anchor="middle" x="584" y="-64.5" font-family="Helvetica,sans-Serif" font-size="10.00">model.Turtle.setTurtleInfo</text>
</a>
</g>
</g>
<!-- Node2&#45;&gt;Node4 -->
<g id="edge6" class="edge"><title>Node2&#45;&gt;Node4</title>
<path fill="none" stroke="midnightblue" d="M291.584,-50.7628C347.692,-53.889 439.793,-59.0207 505.433,-62.6781"/>
<polygon fill="midnightblue" stroke="midnightblue" points="505.552,-66.19 515.731,-63.2519 505.941,-59.2009 505.552,-66.19"/>
</g>
<!-- Node6 -->
<g id="node6" class="node"><title>Node6</title>
<g id="a_node6"><a xlink:href="../../d6/d34/classmodel_1_1_turtle.html#a561398015768e49764442dfa298f1bd3" target="_top" xlink:title="model.Turtle.setAngle">
<polygon fill="white" stroke="black" points="344,-0.5 344,-19.5 464,-19.5 464,-0.5 344,-0.5"/>
<text text-anchor="middle" x="404" y="-7.5" font-family="Helvetica,sans-Serif" font-size="10.00">model.Turtle.setAngle</text>
</a>
</g>
</g>
<!-- Node2&#45;&gt;Node6 -->
<g id="edge5" class="edge"><title>Node2&#45;&gt;Node6</title>
<path fill="none" stroke="midnightblue" d="M282.627,-38.411C303.968,-33.3739 330.312,-27.1562 352.908,-21.8229"/>
<polygon fill="midnightblue" stroke="midnightblue" points="353.736,-25.2237 362.665,-19.5201 352.128,-18.4109 353.736,-25.2237"/>
</g>
<!-- Node3&#45;&gt;Node4 -->
<g id="edge3" class="edge"><title>Node3&#45;&gt;Node4</title>
<path fill="none" stroke="midnightblue" d="M479.714,-78.0249C488.33,-77.1052 497.13,-76.1659 505.778,-75.2428"/>
<polygon fill="midnightblue" stroke="midnightblue" points="506.27,-78.7103 515.842,-74.1686 505.527,-71.7498 506.27,-78.7103"/>
</g>
<!-- Node5 -->
<g id="node5" class="node"><title>Node5</title>
<g id="a_node5"><a xlink:href="../../d6/d34/classmodel_1_1_turtle.html#a61d79b71c878b0c64adeab038483da7a" target="_top" xlink:title="model.Turtle.getAngle">
<polygon fill="white" stroke="black" points="688.5,-57.5 688.5,-76.5 809.5,-76.5 809.5,-57.5 688.5,-57.5"/>
<text text-anchor="middle" x="749" y="-64.5" font-family="Helvetica,sans-Serif" font-size="10.00">model.Turtle.getAngle</text>
</a>
</g>
</g>
<!-- Node4&#45;&gt;Node5 -->
<g id="edge4" class="edge"><title>Node4&#45;&gt;Node5</title>
<path fill="none" stroke="midnightblue" d="M652.239,-67C660.875,-67 669.73,-67 678.402,-67"/>
<polygon fill="midnightblue" stroke="midnightblue" points="678.474,-70.5001 688.474,-67 678.474,-63.5001 678.474,-70.5001"/>
</g>
</g>
</svg>
        <g id="navigator" transform="translate(0 0)" fill="#404254">
                <rect fill="#f2f5e9" fill-opacity="0.5" stroke="#606060" stroke-width=".5" x="0" y="0" width="60" height="60"/>
                <use id="zoomplus" xlink:href="#zoomPlus" x="17" y="9" onmousedown="handleZoom(evt,'in')"/>
                <use id="zoomminus" xlink:href="#zoomMin" x="42" y="9" onmousedown="handleZoom(evt,'out')"/>
                <use id="reset" xlink:href="#resetDef" x="30" y="36" onmousedown="handleReset()"/>
                <g id="arrowUp" xlink:href="#dirArrow" transform="translate(30 24)" onmousedown="handlePan(0,-1)">
                  <use xlink:href="#rim" fill="#404040">
                        <set attributeName="fill" to="#808080" begin="arrowUp.mouseover" end="arrowUp.mouseout"/>
                  </use>
                  <path fill="none" stroke="white" stroke-width="1.5" d="M0,-3.0v7 M-2.5,-0.5L0,-3.0L2.5,-0.5"/>
                </g>
                <g id="arrowRight" xlink:href="#dirArrow" transform="rotate(90) translate(36 -43)" onmousedown="handlePan(1,0)">
                  <use xlink:href="#rim" fill="#404040">
                        <set attributeName="fill" to="#808080" begin="arrowRight.mouseover" end="arrowRight.mouseout"/>
                  </use>
                  <path fill="none" stroke="white" stroke-width="1.5" d="M0,-3.0v7 M-2.5,-0.5L0,-3.0L2.5,-0.5"/>
                </g>
                <g id="arrowDown" xlink:href="#dirArrow" transform="rotate(180) translate(-30 -48)" onmousedown="handlePan(0,1)">
                  <use xlink:href="#rim" fill="#404040">
                        <set attributeName="fill" to="#808080" begin="arrowDown.mouseover" end="arrowDown.mouseout"/>
                  </use>
                  <path fill="none" stroke="white" stroke-width="1.5" d="M0,-3.0v7 M-2.5,-0.5L0,-3.0L2.5,-0.5"/>
                </g>
                <g id="arrowLeft" xlink:href="#dirArrow" transform="rotate(270) translate(-36 17)" onmousedown="handlePan(-1,0)">
                  <use xlink:href="#rim" fill="#404040">
                        <set attributeName="fill" to="#808080" begin="arrowLeft.mouseover" end="arrowLeft.mouseout"/>
                  </use>
                  <path fill="none" stroke="white" stroke-width="1.5" d="M0,-3.0v7 M-2.5,-0.5L0,-3.0L2.5,-0.5"/>
                </g>
        </g>
        <svg viewBox="0 0 15 15" width="100%" height="30px" preserveAspectRatio="xMaxYMin meet">
         <g id="arrow_out" transform="scale(0.3 0.3)">
          <a xlink:href="classmodel_1_1_observable_data_ad2bff2456394e252a20722f2b15e61d5_cgraph_org.svg" target="_base">
           <rect id="button" ry="5" rx="5" y="6" x="6" height="38" width="38"
                fill="#f2f5e9" fill-opacity="0.5" stroke="#606060" stroke-width="1.0"/>
           <path id="arrow"
             d="M 11.500037,31.436501 C 11.940474,20.09759 22.043105,11.32322 32.158766,21.979434 L 37.068811,17.246167 C 37.068811,17.246167 37.088388,32 37.088388,32 L 22.160133,31.978069 C 22.160133,31.978069 26.997745,27.140456 26.997745,27.140456 C 18.528582,18.264221 13.291696,25.230495 11.500037,31.436501 z"
             style="fill:#404040;"/>
          </a>
         </g>
        </svg>
</svg>
