<?xml version="1.0" encoding="UTF-8" standalone="no"?>
<!DOCTYPE svg PUBLIC "-//W3C//DTD SVG 1.1//EN"
 "http://www.w3.org/Graphics/SVG/1.1/DTD/svg11.dtd">
<!-- Generated by graphviz version 2.36.0 (20140111.2315)
 -->
<!-- Title: model.ObservableData.changeReturn Pages: 1 -->
<svg width="1120pt" height="87pt"
 viewBox="0.00 0.00 1120.00 87.00" xmlns="http://www.w3.org/2000/svg" xmlns:xlink="http://www.w3.org/1999/xlink">
<g id="graph0" class="graph" transform="scale(1 1) rotate(0) translate(4 83)">
<title>model.ObservableData.changeReturn</title>
<polygon fill="white" stroke="none" points="-4,4 -4,-83 1116,-83 1116,4 -4,4"/>
<!-- Node1 -->
<g id="node1" class="node"><title>Node1</title>
<polygon fill="#bfbfbf" stroke="black" points="0.5,-24 0.5,-54 165.5,-54 165.5,-24 0.5,-24"/>
<text text-anchor="start" x="8.5" y="-42" font-family="Helvetica,sans-Serif" font-size="10.00">model.ObservableData.change</text>
<text text-anchor="middle" x="83" y="-31" font-family="Helvetica,sans-Serif" font-size="10.00">Return</text>
</g>
<!-- Node2 -->
<g id="node2" class="node"><title>Node2</title>
<g id="a_node2"><a xlink:href="../../d3/d88/classmodel_1_1_slogo_model.html#ad52954c6dbfb83f7aa97a85116c25eb8" target="_top" xlink:title="model.SlogoModel.showOnView">
<polygon fill="white" stroke="black" points="202.5,-29.5 202.5,-48.5 369.5,-48.5 369.5,-29.5 202.5,-29.5"/>
<text text-anchor="middle" x="286" y="-36.5" font-family="Helvetica,sans-Serif" font-size="10.00">model.SlogoModel.showOnView</text>
</a>
</g>
</g>
<!-- Node1&#45;&gt;Node2 -->
<g id="edge1" class="edge"><title>Node1&#45;&gt;Node2</title>
<path fill="none" stroke="midnightblue" d="M176.006,-39C184.787,-39 193.655,-39 202.339,-39"/>
<polygon fill="midnightblue" stroke="midnightblue" points="175.754,-35.5001 165.754,-39 175.754,-42.5001 175.754,-35.5001"/>
</g>
<!-- Node3 -->
<g id="node3" class="node"><title>Node3</title>
<g id="a_node3"><a xlink:href="../../d3/d88/classmodel_1_1_slogo_model.html#a54085c9bf13d8dcfd7deed3623be36f1" target="_top" xlink:title="model.SlogoModel.execute\lCommands">
<polygon fill="white" stroke="black" points="406,-24 406,-54 552,-54 552,-24 406,-24"/>
<text text-anchor="start" x="414" y="-42" font-family="Helvetica,sans-Serif" font-size="10.00">model.SlogoModel.execute</text>
<text text-anchor="middle" x="479" y="-31" font-family="Helvetica,sans-Serif" font-size="10.00">Commands</text>
</a>
</g>
</g>
<!-- Node2&#45;&gt;Node3 -->
<g id="edge2" class="edge"><title>Node2&#45;&gt;Node3</title>
<path fill="none" stroke="midnightblue" d="M379.836,-39C388.526,-39 397.246,-39 405.707,-39"/>
<polygon fill="midnightblue" stroke="midnightblue" points="379.665,-35.5001 369.665,-39 379.664,-42.5001 379.665,-35.5001"/>
</g>
<!-- Node4 -->
<g id="node4" class="node"><title>Node4</title>
<g id="a_node4"><a xlink:href="../../d3/d88/classmodel_1_1_slogo_model.html#ad096dbf0a253635d346a622540f472bd" target="_top" xlink:title="model.SlogoModel.parseAnd\lExecute">
<polygon fill="white" stroke="black" points="588,-24 588,-54 742,-54 742,-24 588,-24"/>
<text text-anchor="start" x="596" y="-42" font-family="Helvetica,sans-Serif" font-size="10.00">model.SlogoModel.parseAnd</text>
<text text-anchor="middle" x="665" y="-31" font-family="Helvetica,sans-Serif" font-size="10.00">Execute</text>
</a>
</g>
</g>
<!-- Node3&#45;&gt;Node4 -->
<g id="edge3" class="edge"><title>Node3&#45;&gt;Node4</title>
<path fill="none" stroke="midnightblue" d="M562.414,-39C570.853,-39 579.401,-39 587.77,-39"/>
<polygon fill="midnightblue" stroke="midnightblue" points="562.194,-35.5001 552.194,-39 562.194,-42.5001 562.194,-35.5001"/>
</g>
<!-- Node5 -->
<g id="node5" class="node"><title>Node5</title>
<g id="a_node5"><a xlink:href="../../d6/d0a/classview_1_1_input_view.html#a948930c9b825f34ef8f5def96910471b" target="_top" xlink:title="view.InputView.initSubmit\lButton">
<polygon fill="white" stroke="black" points="781,-49 781,-79 917,-79 917,-49 781,-49"/>
<text text-anchor="start" x="789" y="-67" font-family="Helvetica,sans-Serif" font-size="10.00">view.InputView.initSubmit</text>
<text text-anchor="middle" x="849" y="-56" font-family="Helvetica,sans-Serif" font-size="10.00">Button</text>
</a>
</g>
</g>
<!-- Node4&#45;&gt;Node5 -->
<g id="edge4" class="edge"><title>Node4&#45;&gt;Node5</title>
<path fill="none" stroke="midnightblue" d="M752.137,-50.8321C761.784,-52.1571 771.503,-53.4922 780.86,-54.7775"/>
<polygon fill="midnightblue" stroke="midnightblue" points="752.513,-47.3509 742.13,-49.4574 751.56,-54.2858 752.513,-47.3509"/>
</g>
<!-- Node7 -->
<g id="node7" class="node"><title>Node7</title>
<g id="a_node7"><a xlink:href="../../d4/d90/classview_1_1_key_controls.html#a0c3663cb62e91e8919b0296aad899a8f" target="_top" xlink:title="view.KeyControls.makeKey\lCommands">
<polygon fill="white" stroke="black" points="778,-0 778,-30 920,-30 920,-0 778,-0"/>
<text text-anchor="start" x="786" y="-18" font-family="Helvetica,sans-Serif" font-size="10.00">view.KeyControls.makeKey</text>
<text text-anchor="middle" x="849" y="-7" font-family="Helvetica,sans-Serif" font-size="10.00">Commands</text>
</a>
</g>
</g>
<!-- Node4&#45;&gt;Node7 -->
<g id="edge6" class="edge"><title>Node4&#45;&gt;Node7</title>
<path fill="none" stroke="midnightblue" d="M752.221,-27.6303C760.855,-26.4917 769.547,-25.3455 777.984,-24.2329"/>
<polygon fill="midnightblue" stroke="midnightblue" points="751.586,-24.1835 742.13,-28.9609 752.502,-31.1234 751.586,-24.1835"/>
</g>
<!-- Node6 -->
<g id="node6" class="node"><title>Node6</title>
<g id="a_node6"><a xlink:href="../../d6/d0a/classview_1_1_input_view.html#ac75e6562ed83ace6cb0a0ac886780054" target="_top" xlink:title="view.InputView.InputView">
<polygon fill="white" stroke="black" points="967.5,-54.5 967.5,-73.5 1100.5,-73.5 1100.5,-54.5 967.5,-54.5"/>
<text text-anchor="middle" x="1034" y="-61.5" font-family="Helvetica,sans-Serif" font-size="10.00">view.InputView.InputView</text>
</a>
</g>
</g>
<!-- Node5&#45;&gt;Node6 -->
<g id="edge5" class="edge"><title>Node5&#45;&gt;Node6</title>
<path fill="none" stroke="midnightblue" d="M927.232,-64C940.608,-64 954.402,-64 967.432,-64"/>
<polygon fill="midnightblue" stroke="midnightblue" points="927.103,-60.5001 917.103,-64 927.103,-67.5001 927.103,-60.5001"/>
</g>
<!-- Node8 -->
<g id="node8" class="node"><title>Node8</title>
<g id="a_node8"><a xlink:href="../../d4/d90/classview_1_1_key_controls.html#a4b73546f8ba8feee9e878b3cf743fb61" target="_top" xlink:title="view.KeyControls.KeyControls">
<polygon fill="white" stroke="black" points="956.5,-5.5 956.5,-24.5 1111.5,-24.5 1111.5,-5.5 956.5,-5.5"/>
<text text-anchor="middle" x="1034" y="-12.5" font-family="Helvetica,sans-Serif" font-size="10.00">view.KeyControls.KeyControls</text>
</a>
</g>
</g>
<!-- Node7&#45;&gt;Node8 -->
<g id="edge7" class="edge"><title>Node7&#45;&gt;Node8</title>
<path fill="none" stroke="midnightblue" d="M930.279,-15C938.909,-15 947.674,-15 956.261,-15"/>
<polygon fill="midnightblue" stroke="midnightblue" points="930.229,-11.5001 920.229,-15 930.229,-18.5001 930.229,-11.5001"/>
</g>
</g>
</svg>
