<?xml version="1.0" encoding="UTF-8" standalone="no"?>
<!DOCTYPE svg PUBLIC "-//W3C//DTD SVG 1.1//EN"
 "http://www.w3.org/Graphics/SVG/1.1/DTD/svg11.dtd">
<!-- Generated by graphviz version 2.36.0 (20140111.2315)
 -->
<!-- Title: model.ObservableData.getTurtle Pages: 1 -->
<svg width="816pt" height="719pt"
 viewBox="0.00 0.00 816.00 718.85" xmlns="http://www.w3.org/2000/svg" xmlns:xlink="http://www.w3.org/1999/xlink">
<g id="graph0" class="graph" transform="scale(1 1) rotate(0) translate(4 714.846)">
<title>model.ObservableData.getTurtle</title>
<polygon fill="white" stroke="none" points="-4,4 -4,-714.846 812,-714.846 812,4 -4,4"/>
<!-- Node1 -->
<g id="node1" class="node"><title>Node1</title>
<polygon fill="#bfbfbf" stroke="black" points="0,-334 0,-364 146,-364 146,-334 0,-334"/>
<text text-anchor="start" x="8" y="-352" font-family="Helvetica,sans-Serif" font-size="10.00">model.ObservableData.get</text>
<text text-anchor="middle" x="73" y="-341" font-family="Helvetica,sans-Serif" font-size="10.00">Turtle</text>
</g>
<!-- Node2 -->
<g id="node2" class="node"><title>Node2</title>
<g id="a_node2"><a xlink:href="../../dd/dc5/classview_1_1_settings_view.html#a8b044653bb3dcbb300082c4103d14249" target="_top" xlink:title="view.SettingsView.addLine\lProperty">
<polygon fill="white" stroke="black" points="459,-669 459,-699 599,-699 599,-669 459,-669"/>
<text text-anchor="start" x="467" y="-687" font-family="Helvetica,sans-Serif" font-size="10.00">view.SettingsView.addLine</text>
<text text-anchor="middle" x="529" y="-676" font-family="Helvetica,sans-Serif" font-size="10.00">Property</text>
</a>
</g>
</g>
<!-- Node1&#45;&gt;Node2 -->
<g id="edge1" class="edge"><title>Node1&#45;&gt;Node2</title>
<path fill="none" stroke="midnightblue" d="M73.9842,-374.384C75.4717,-435.701 88.6847,-592.051 182,-663 264.278,-725.557 391.892,-713.628 466.976,-699"/>
<polygon fill="midnightblue" stroke="midnightblue" points="77.4792,-374.028 73.8262,-364.083 70.48,-374.135 77.4792,-374.028"/>
</g>
<!-- Node4 -->
<g id="node4" class="node"><title>Node4</title>
<g id="a_node4"><a xlink:href="../../dd/dc5/classview_1_1_settings_view.html#a1c1243dd0938a2644f0bebe8feca5737" target="_top" xlink:title="view.SettingsView.addPen\lColorPicker">
<polygon fill="white" stroke="black" points="459.5,-550 459.5,-580 598.5,-580 598.5,-550 459.5,-550"/>
<text text-anchor="start" x="467.5" y="-568" font-family="Helvetica,sans-Serif" font-size="10.00">view.SettingsView.addPen</text>
<text text-anchor="middle" x="529" y="-557" font-family="Helvetica,sans-Serif" font-size="10.00">ColorPicker</text>
</a>
</g>
</g>
<!-- Node1&#45;&gt;Node4 -->
<g id="edge3" class="edge"><title>Node1&#45;&gt;Node4</title>
<path fill="none" stroke="midnightblue" d="M79.6644,-373.928C90.8923,-416.914 120.4,-504.108 182,-543 226.534,-571.117 371.867,-571.073 459.378,-568.231"/>
<polygon fill="midnightblue" stroke="midnightblue" points="83.0071,-372.866 77.1953,-364.008 76.2143,-374.557 83.0071,-372.866"/>
</g>
<!-- Node5 -->
<g id="node5" class="node"><title>Node5</title>
<g id="a_node5"><a xlink:href="../../dd/dc5/classview_1_1_settings_view.html#a2647759701975998ceb6d36b40aa98ea" target="_top" xlink:title="view.SettingsView.addTurtle\lChoices">
<polygon fill="white" stroke="black" points="456,-613 456,-643 602,-643 602,-613 456,-613"/>
<text text-anchor="start" x="464" y="-631" font-family="Helvetica,sans-Serif" font-size="10.00">view.SettingsView.addTurtle</text>
<text text-anchor="middle" x="529" y="-620" font-family="Helvetica,sans-Serif" font-size="10.00">Choices</text>
</a>
</g>
</g>
<!-- Node1&#45;&gt;Node5 -->
<g id="edge5" class="edge"><title>Node1&#45;&gt;Node5</title>
<path fill="none" stroke="midnightblue" d="M74.8422,-374.422C78.2802,-431.732 95.5744,-570.628 182,-630 273.351,-692.756 412.745,-664.016 483.484,-643.067"/>
<polygon fill="midnightblue" stroke="midnightblue" points="78.3209,-373.907 74.323,-364.095 71.3297,-374.258 78.3209,-373.907"/>
</g>
<!-- Node6 -->
<g id="node6" class="node"><title>Node6</title>
<g id="a_node6"><a xlink:href="../../d3/d88/classmodel_1_1_slogo_model.html#abfeceb3da7ed60166c8137597cacc2fc" target="_top" xlink:title="model.SlogoModel.clear">
<polygon fill="white" stroke="black" points="232.5,-76.5 232.5,-95.5 363.5,-95.5 363.5,-76.5 232.5,-76.5"/>
<text text-anchor="middle" x="298" y="-83.5" font-family="Helvetica,sans-Serif" font-size="10.00">model.SlogoModel.clear</text>
</a>
</g>
</g>
<!-- Node1&#45;&gt;Node6 -->
<g id="edge7" class="edge"><title>Node1&#45;&gt;Node6</title>
<path fill="none" stroke="midnightblue" d="M77.2293,-323.961C85.1325,-273.675 110.341,-160.491 182,-105 196.24,-93.9732 214.478,-88.317 232.213,-85.63"/>
<polygon fill="midnightblue" stroke="midnightblue" points="73.7502,-323.563 75.7576,-333.966 80.6757,-324.582 73.7502,-323.563"/>
</g>
<!-- Node8 -->
<g id="node8" class="node"><title>Node8</title>
<g id="a_node8"><a xlink:href="../../db/d7c/classinstructions_1_1commands_1_1_stamp.html#add6a745aa075406375fb42d4a5ce4a3f" target="_top" xlink:title="instructions.commands.Stamp.execute">
<polygon fill="white" stroke="black" points="195,-514.5 195,-533.5 401,-533.5 401,-514.5 195,-514.5"/>
<text text-anchor="middle" x="298" y="-521.5" font-family="Helvetica,sans-Serif" font-size="10.00">instructions.commands.Stamp.execute</text>
</a>
</g>
</g>
<!-- Node1&#45;&gt;Node8 -->
<g id="edge10" class="edge"><title>Node1&#45;&gt;Node8</title>
<path fill="none" stroke="midnightblue" d="M83.9182,-373.895C99.3009,-409.032 132.402,-472.404 182,-504 188.666,-508.246 195.969,-511.663 203.562,-514.404"/>
<polygon fill="midnightblue" stroke="midnightblue" points="87.0071,-372.213 79.882,-364.372 80.5622,-374.945 87.0071,-372.213"/>
</g>
<!-- Node9 -->
<g id="node9" class="node"><title>Node9</title>
<g id="a_node9"><a xlink:href="../../db/d37/classinstructions_1_1commands_1_1_is_pen_down.html#a2640c38327efbb80401c844dcbee6f88" target="_top" xlink:title="instructions.commands.Is\lPenDown.execute">
<polygon fill="white" stroke="black" points="228,-465 228,-495 368,-495 368,-465 228,-465"/>
<text text-anchor="start" x="236" y="-483" font-family="Helvetica,sans-Serif" font-size="10.00">instructions.commands.Is</text>
<text text-anchor="middle" x="298" y="-472" font-family="Helvetica,sans-Serif" font-size="10.00">PenDown.execute</text>
</a>
</g>
</g>
<!-- Node1&#45;&gt;Node9 -->
<g id="edge11" class="edge"><title>Node1&#45;&gt;Node9</title>
<path fill="none" stroke="midnightblue" d="M91.2361,-372.434C110.55,-396.923 144.156,-434.568 182,-455 196.023,-462.571 212.177,-467.85 227.861,-471.529"/>
<polygon fill="midnightblue" stroke="midnightblue" points="93.8957,-370.151 85.0171,-364.37 88.3527,-374.426 93.8957,-370.151"/>
</g>
<!-- Node10 -->
<g id="node10" class="node"><title>Node10</title>
<g id="a_node10"><a xlink:href="../../d3/d91/classinstructions_1_1commands_1_1_clear_stamps.html#a40bf133fb596672542e22a80d34800a6" target="_top" xlink:title="instructions.commands.Clear\lStamps.execute">
<polygon fill="white" stroke="black" points="219.5,-416 219.5,-446 376.5,-446 376.5,-416 219.5,-416"/>
<text text-anchor="start" x="227.5" y="-434" font-family="Helvetica,sans-Serif" font-size="10.00">instructions.commands.Clear</text>
<text text-anchor="middle" x="298" y="-423" font-family="Helvetica,sans-Serif" font-size="10.00">Stamps.execute</text>
</a>
</g>
</g>
<!-- Node1&#45;&gt;Node10 -->
<g id="edge12" class="edge"><title>Node1&#45;&gt;Node10</title>
<path fill="none" stroke="midnightblue" d="M106.773,-369.301C127.646,-381.462 155.629,-396.378 182,-406 193.9,-410.342 206.782,-414.047 219.471,-417.169"/>
<polygon fill="midnightblue" stroke="midnightblue" points="108.39,-366.191 98.0014,-364.11 104.824,-372.215 108.39,-366.191"/>
</g>
<!-- Node11 -->
<g id="node11" class="node"><title>Node11</title>
<g id="a_node11"><a xlink:href="../../d0/d94/classinstructions_1_1commands_1_1_x_coordinate.html#a56e3908846e33a9ad81a0949a5e77d40" target="_top" xlink:title="instructions.commands.XCoordinate.execute">
<polygon fill="white" stroke="black" points="182.5,-377.5 182.5,-396.5 413.5,-396.5 413.5,-377.5 182.5,-377.5"/>
<text text-anchor="middle" x="298" y="-384.5" font-family="Helvetica,sans-Serif" font-size="10.00">instructions.commands.XCoordinate.execute</text>
</a>
</g>
</g>
<!-- Node1&#45;&gt;Node11 -->
<g id="edge13" class="edge"><title>Node1&#45;&gt;Node11</title>
<path fill="none" stroke="midnightblue" d="M155.923,-363.505C164.723,-365.035 173.546,-366.558 182,-368 200.352,-371.13 220.366,-374.464 238.477,-377.452"/>
<polygon fill="midnightblue" stroke="midnightblue" points="156.471,-360.047 146.018,-361.777 155.268,-366.943 156.471,-360.047"/>
</g>
<!-- Node12 -->
<g id="node12" class="node"><title>Node12</title>
<g id="a_node12"><a xlink:href="../../d8/d5d/classinstructions_1_1commands_1_1_y_coordinate.html#a5c5ac5bec7d2ab74992b957fdbf54490" target="_top" xlink:title="instructions.commands.YCoordinate.execute">
<polygon fill="white" stroke="black" points="183,-339.5 183,-358.5 413,-358.5 413,-339.5 183,-339.5"/>
<text text-anchor="middle" x="298" y="-346.5" font-family="Helvetica,sans-Serif" font-size="10.00">instructions.commands.YCoordinate.execute</text>
</a>
</g>
</g>
<!-- Node1&#45;&gt;Node12 -->
<g id="edge14" class="edge"><title>Node1&#45;&gt;Node12</title>
<path fill="none" stroke="midnightblue" d="M156.226,-349C164.971,-349 173.974,-349 182.999,-349"/>
<polygon fill="midnightblue" stroke="midnightblue" points="156.094,-345.5 146.094,-349 156.094,-352.5 156.094,-345.5"/>
</g>
<!-- Node13 -->
<g id="node13" class="node"><title>Node13</title>
<g id="a_node13"><a xlink:href="../../d6/d1f/classinstructions_1_1commands_1_1_pen_up.html#a83de05f9c5b0b6454ac03f3c38d8dfb1" target="_top" xlink:title="instructions.commands.Pen\lUp.execute">
<polygon fill="white" stroke="black" points="223,-290 223,-320 373,-320 373,-290 223,-290"/>
<text text-anchor="start" x="231" y="-308" font-family="Helvetica,sans-Serif" font-size="10.00">instructions.commands.Pen</text>
<text text-anchor="middle" x="298" y="-297" font-family="Helvetica,sans-Serif" font-size="10.00">Up.execute</text>
</a>
</g>
</g>
<!-- Node1&#45;&gt;Node13 -->
<g id="edge15" class="edge"><title>Node1&#45;&gt;Node13</title>
<path fill="none" stroke="midnightblue" d="M156.021,-332.817C177.906,-328.498 201.423,-323.858 222.857,-319.629"/>
<polygon fill="midnightblue" stroke="midnightblue" points="155.227,-329.406 146.094,-334.775 156.582,-336.273 155.227,-329.406"/>
</g>
<!-- Node14 -->
<g id="node14" class="node"><title>Node14</title>
<g id="a_node14"><a xlink:href="../../dc/dbc/classinstructions_1_1commands_1_1_heading.html#abd05dabc20d22717f68220019bb871a3" target="_top" xlink:title="instructions.commands.Heading.execute">
<polygon fill="white" stroke="black" points="191.5,-251.5 191.5,-270.5 404.5,-270.5 404.5,-251.5 191.5,-251.5"/>
<text text-anchor="middle" x="298" y="-258.5" font-family="Helvetica,sans-Serif" font-size="10.00">instructions.commands.Heading.execute</text>
</a>
</g>
</g>
<!-- Node1&#45;&gt;Node14 -->
<g id="edge16" class="edge"><title>Node1&#45;&gt;Node14</title>
<path fill="none" stroke="midnightblue" d="M101.15,-327.68C122.082,-312.329 152.372,-292.391 182,-281 193.349,-276.637 205.695,-273.22 217.948,-270.546"/>
<polygon fill="midnightblue" stroke="midnightblue" points="98.9711,-324.939 93.057,-333.729 103.162,-330.545 98.9711,-324.939"/>
</g>
<!-- Node15 -->
<g id="node15" class="node"><title>Node15</title>
<g id="a_node15"><a xlink:href="../../d9/d3c/classinstructions_1_1commands_1_1_show_turtle.html#a26a67e207d1ec3ef02a50113330299ce" target="_top" xlink:title="instructions.commands.Show\lTurtle.execute">
<polygon fill="white" stroke="black" points="219,-202 219,-232 377,-232 377,-202 219,-202"/>
<text text-anchor="start" x="227" y="-220" font-family="Helvetica,sans-Serif" font-size="10.00">instructions.commands.Show</text>
<text text-anchor="middle" x="298" y="-209" font-family="Helvetica,sans-Serif" font-size="10.00">Turtle.execute</text>
</a>
</g>
</g>
<!-- Node1&#45;&gt;Node15 -->
<g id="edge17" class="edge"><title>Node1&#45;&gt;Node15</title>
<path fill="none" stroke="midnightblue" d="M90.8718,-325.746C110.091,-301.034 143.821,-262.729 182,-242 193.312,-235.858 206.021,-231.225 218.755,-227.731"/>
<polygon fill="midnightblue" stroke="midnightblue" points="87.9621,-323.79 84.6953,-333.868 93.5342,-328.027 87.9621,-323.79"/>
</g>
<!-- Node16 -->
<g id="node16" class="node"><title>Node16</title>
<g id="a_node16"><a xlink:href="../../dc/df9/classinstructions_1_1commands_1_1_pen_down.html#a24297ec2491de8ad2c63f3f1a26b71f1" target="_top" xlink:title="instructions.commands.Pen\lDown.execute">
<polygon fill="white" stroke="black" points="223,-153 223,-183 373,-183 373,-153 223,-153"/>
<text text-anchor="start" x="231" y="-171" font-family="Helvetica,sans-Serif" font-size="10.00">instructions.commands.Pen</text>
<text text-anchor="middle" x="298" y="-160" font-family="Helvetica,sans-Serif" font-size="10.00">Down.execute</text>
</a>
</g>
</g>
<!-- Node1&#45;&gt;Node16 -->
<g id="edge18" class="edge"><title>Node1&#45;&gt;Node16</title>
<path fill="none" stroke="midnightblue" d="M84.0553,-324.226C99.6059,-289.206 132.911,-225.843 182,-193 194.142,-184.877 208.472,-179.341 222.821,-175.581"/>
<polygon fill="midnightblue" stroke="midnightblue" points="80.7112,-323.142 79.9711,-333.711 87.1405,-325.911 80.7112,-323.142"/>
</g>
<!-- Node17 -->
<g id="node17" class="node"><title>Node17</title>
<g id="a_node17"><a xlink:href="../../d3/d16/classinstructions_1_1commands_1_1_home.html#a1f8a8a072657d0c9b6816e90d785308c" target="_top" xlink:title="instructions.commands.Home.execute">
<polygon fill="white" stroke="black" points="196.5,-114.5 196.5,-133.5 399.5,-133.5 399.5,-114.5 196.5,-114.5"/>
<text text-anchor="middle" x="298" y="-121.5" font-family="Helvetica,sans-Serif" font-size="10.00">instructions.commands.Home.execute</text>
</a>
</g>
</g>
<!-- Node1&#45;&gt;Node17 -->
<g id="edge19" class="edge"><title>Node1&#45;&gt;Node17</title>
<path fill="none" stroke="midnightblue" d="M79.4613,-323.838C90.4934,-279.499 119.867,-187.906 182,-143 187.166,-139.266 192.802,-136.163 198.714,-133.593"/>
<polygon fill="midnightblue" stroke="midnightblue" points="76.0035,-323.251 77.0984,-333.789 82.8141,-324.868 76.0035,-323.251"/>
</g>
<!-- Node18 -->
<g id="node18" class="node"><title>Node18</title>
<g id="a_node18"><a xlink:href="../../d3/d88/classmodel_1_1_slogo_model.html#af0ff8ea4a04df315002c19967df477ee" target="_top" xlink:title="model.SlogoModel.initialize\lPenColor">
<polygon fill="white" stroke="black" points="225,-591 225,-621 371,-621 371,-591 225,-591"/>
<text text-anchor="start" x="233" y="-609" font-family="Helvetica,sans-Serif" font-size="10.00">model.SlogoModel.initialize</text>
<text text-anchor="middle" x="298" y="-598" font-family="Helvetica,sans-Serif" font-size="10.00">PenColor</text>
</a>
</g>
</g>
<!-- Node1&#45;&gt;Node18 -->
<g id="edge20" class="edge"><title>Node1&#45;&gt;Node18</title>
<path fill="none" stroke="midnightblue" d="M78.6871,-374.085C88.813,-421.081 117.255,-522.46 182,-576 194.244,-586.125 209.526,-592.873 224.911,-597.36"/>
<polygon fill="midnightblue" stroke="midnightblue" points="82.0853,-373.233 76.6458,-364.142 75.2283,-374.641 82.0853,-373.233"/>
</g>
<!-- Node19 -->
<g id="node19" class="node"><title>Node19</title>
<g id="a_node19"><a xlink:href="../../d3/d88/classmodel_1_1_slogo_model.html#a57ae2fb85245476c02d5e7208bf64be3" target="_top" xlink:title="model.SlogoModel.setPenSize">
<polygon fill="white" stroke="black" points="217.5,-0.5 217.5,-19.5 378.5,-19.5 378.5,-0.5 217.5,-0.5"/>
<text text-anchor="middle" x="298" y="-7.5" font-family="Helvetica,sans-Serif" font-size="10.00">model.SlogoModel.setPenSize</text>
</a>
</g>
</g>
<!-- Node1&#45;&gt;Node19 -->
<g id="edge22" class="edge"><title>Node1&#45;&gt;Node19</title>
<path fill="none" stroke="midnightblue" d="M74.3133,-323.329C76.5569,-261.941 91.3668,-106.042 182,-29 192.022,-20.481 204.368,-15.0631 217.213,-11.7209"/>
<polygon fill="midnightblue" stroke="midnightblue" points="70.8056,-323.558 74.0252,-333.652 77.8029,-323.753 70.8056,-323.558"/>
</g>
<!-- Node21 -->
<g id="node21" class="node"><title>Node21</title>
<g id="a_node21"><a xlink:href="../../d3/d88/classmodel_1_1_slogo_model.html#a4dd110d0980b463d7b3130e3ad3393e6" target="_top" xlink:title="model.SlogoModel.toggleTurtle">
<polygon fill="white" stroke="black" points="216,-38.5 216,-57.5 380,-57.5 380,-38.5 216,-38.5"/>
<text text-anchor="middle" x="298" y="-45.5" font-family="Helvetica,sans-Serif" font-size="10.00">model.SlogoModel.toggleTurtle</text>
</a>
</g>
</g>
<!-- Node1&#45;&gt;Node21 -->
<g id="edge25" class="edge"><title>Node1&#45;&gt;Node21</title>
<path fill="none" stroke="midnightblue" d="M75.604,-323.675C80.6031,-267.699 100.887,-133.184 182,-67 191.721,-59.0682 203.479,-53.8639 215.716,-50.5313"/>
<polygon fill="midnightblue" stroke="midnightblue" points="72.1043,-323.532 74.7944,-333.779 79.0819,-324.091 72.1043,-323.532"/>
</g>
<!-- Node3 -->
<g id="node3" class="node"><title>Node3</title>
<g id="a_node3"><a xlink:href="../../dd/dc5/classview_1_1_settings_view.html#a34b8df753ce7a3b7d917a01ff315edc8" target="_top" xlink:title="view.SettingsView.SettingsView">
<polygon fill="white" stroke="black" points="644,-555.5 644,-574.5 808,-574.5 808,-555.5 644,-555.5"/>
<text text-anchor="middle" x="726" y="-562.5" font-family="Helvetica,sans-Serif" font-size="10.00">view.SettingsView.SettingsView</text>
</a>
</g>
</g>
<!-- Node2&#45;&gt;Node3 -->
<g id="edge2" class="edge"><title>Node2&#45;&gt;Node3</title>
<path fill="none" stroke="midnightblue" d="M581.506,-665.014C590.524,-661.089 599.677,-656.703 608,-652 649.871,-628.339 694.038,-591.877 714.029,-574.648"/>
<polygon fill="midnightblue" stroke="midnightblue" points="580.057,-661.827 572.198,-668.931 582.773,-668.279 580.057,-661.827"/>
</g>
<!-- Node4&#45;&gt;Node3 -->
<g id="edge4" class="edge"><title>Node4&#45;&gt;Node3</title>
<path fill="none" stroke="midnightblue" d="M608.79,-565C620.341,-565 632.257,-565 643.854,-565"/>
<polygon fill="midnightblue" stroke="midnightblue" points="608.75,-561.5 598.75,-565 608.75,-568.5 608.75,-561.5"/>
</g>
<!-- Node5&#45;&gt;Node3 -->
<g id="edge6" class="edge"><title>Node5&#45;&gt;Node3</title>
<path fill="none" stroke="midnightblue" d="M586.483,-609.752C622.053,-598.26 666.531,-583.89 695.34,-574.583"/>
<polygon fill="midnightblue" stroke="midnightblue" points="585.147,-606.505 576.707,-612.91 587.299,-613.166 585.147,-606.505"/>
</g>
<!-- Node7 -->
<g id="node7" class="node"><title>Node7</title>
<g id="a_node7"><a xlink:href="../../dd/dc5/classview_1_1_settings_view.html#a4ad3e69e9ba90e013df06b1f7b5ef6d0" target="_top" xlink:title="view.SettingsView.addButtons">
<polygon fill="white" stroke="black" points="450,-76.5 450,-95.5 608,-95.5 608,-76.5 450,-76.5"/>
<text text-anchor="middle" x="529" y="-83.5" font-family="Helvetica,sans-Serif" font-size="10.00">view.SettingsView.addButtons</text>
</a>
</g>
</g>
<!-- Node6&#45;&gt;Node7 -->
<g id="edge8" class="edge"><title>Node6&#45;&gt;Node7</title>
<path fill="none" stroke="midnightblue" d="M373.918,-86C398.173,-86 425.13,-86 449.628,-86"/>
<polygon fill="midnightblue" stroke="midnightblue" points="373.704,-82.5001 363.704,-86 373.704,-89.5001 373.704,-82.5001"/>
</g>
<!-- Node7&#45;&gt;Node3 -->
<g id="edge9" class="edge"><title>Node7&#45;&gt;Node3</title>
<path fill="none" stroke="midnightblue" d="M537.717,-104.956C570.443,-185.346 697.181,-496.665 721.096,-555.409"/>
<polygon fill="midnightblue" stroke="midnightblue" points="540.907,-103.51 533.895,-95.5682 534.424,-106.15 540.907,-103.51"/>
</g>
<!-- Node18&#45;&gt;Node4 -->
<g id="edge21" class="edge"><title>Node18&#45;&gt;Node4</title>
<path fill="none" stroke="midnightblue" d="M381.203,-591.282C406.811,-586.698 434.766,-581.693 459.345,-577.292"/>
<polygon fill="midnightblue" stroke="midnightblue" points="380.369,-587.876 371.143,-593.084 381.603,-594.766 380.369,-587.876"/>
</g>
<!-- Node20 -->
<g id="node20" class="node"><title>Node20</title>
<g id="a_node20"><a xlink:href="../../dd/dc5/classview_1_1_settings_view.html#af8bf8067258762b6b65bd149d2e5fbe8" target="_top" xlink:title="view.SettingsView.addPen\lSlider">
<polygon fill="white" stroke="black" points="459.5,-11 459.5,-41 598.5,-41 598.5,-11 459.5,-11"/>
<text text-anchor="start" x="467.5" y="-29" font-family="Helvetica,sans-Serif" font-size="10.00">view.SettingsView.addPen</text>
<text text-anchor="middle" x="529" y="-18" font-family="Helvetica,sans-Serif" font-size="10.00">Slider</text>
</a>
</g>
</g>
<!-- Node19&#45;&gt;Node20 -->
<g id="edge23" class="edge"><title>Node19&#45;&gt;Node20</title>
<path fill="none" stroke="midnightblue" d="M389.025,-16.29C412.362,-17.9205 437.122,-19.6505 459.178,-21.1915"/>
<polygon fill="midnightblue" stroke="midnightblue" points="388.991,-12.7792 378.772,-15.5736 388.503,-19.7621 388.991,-12.7792"/>
</g>
<!-- Node20&#45;&gt;Node3 -->
<g id="edge24" class="edge"><title>Node20&#45;&gt;Node3</title>
<path fill="none" stroke="midnightblue" d="M582.83,-45.7841C592.339,-51.3929 601.332,-58.3866 608,-67 671.203,-148.638 716.109,-492.755 723.821,-555.245"/>
<polygon fill="midnightblue" stroke="midnightblue" points="584.466,-42.69 574.004,-41.0159 581.139,-48.8486 584.466,-42.69"/>
</g>
<!-- Node21&#45;&gt;Node7 -->
<g id="edge26" class="edge"><title>Node21&#45;&gt;Node7</title>
<path fill="none" stroke="midnightblue" d="M366.684,-59.1662C382.229,-61.7354 398.689,-64.4592 414,-67 432.507,-70.0712 452.703,-73.4334 470.885,-76.4645"/>
<polygon fill="midnightblue" stroke="midnightblue" points="367.059,-55.6808 356.622,-57.5038 365.917,-62.5871 367.059,-55.6808"/>
</g>
</g>
</svg>
