<?xml version="1.0" encoding="UTF-8" standalone="no"?>
<!DOCTYPE svg PUBLIC "-//W3C//DTD SVG 1.1//EN"
 "http://www.w3.org/Graphics/SVG/1.1/DTD/svg11.dtd">
<!-- Generated by graphviz version 2.36.0 (20140111.2315)
 -->
<!-- Title: model.ObservableData.get Pages: 1 -->
<!--zoomable 379 -->
<svg id="main" version="1.1" xmlns="http://www.w3.org/2000/svg" xmlns:xlink="http://www.w3.org/1999/xlink" xml:space="preserve" onload="init(evt)">
<style type="text/css"><![CDATA[
.edge:hover path { stroke: red; }
.edge:hover polygon { stroke: red; fill: red; }
]]></style>
<script type="text/javascript"><![CDATA[
var edges = document.getElementsByTagName('g');
if (edges && edges.length) {
  for (var i=0;i<edges.length;i++) {
    if (edges[i].id.substr(0,4)=='edge') {
      edges[i].setAttribute('class','edge');
    }
  }
}
]]></script>
        <defs>
                <circle id="rim" cx="0" cy="0" r="7"/>
                <circle id="rim2" cx="0" cy="0" r="3.5"/>
                <g id="zoomPlus">
                        <use xlink:href="#rim" fill="#404040">
                                <set attributeName="fill" to="#808080" begin="zoomplus.mouseover" end="zoomplus.mouseout"/>
                        </use>
                        <path d="M-4,0h8M0,-4v8" fill="none" stroke="white" stroke-width="1.5" pointer-events="none"/>
                </g>
                <g id="zoomMin">
                        <use xlink:href="#rim" fill="#404040">
                                <set attributeName="fill" to="#808080" begin="zoomminus.mouseover" end="zoomminus.mouseout"/>
                        </use>
                        <path d="M-4,0h8" fill="none" stroke="white" stroke-width="1.5" pointer-events="none"/>
                </g>
                <g id="dirArrow">
                        <path fill="none" stroke="white" stroke-width="1.5" d="M0,-3.0v7 M-2.5,-0.5L0,-3.0L2.5,-0.5"/>
                </g>
               <g id="resetDef">
                       <use xlink:href="#rim2" fill="#404040">
                               <set attributeName="fill" to="#808080" begin="reset.mouseover" end="reset.mouseout"/>
                       </use>
               </g>
        </defs>

<script type="text/javascript">
var viewWidth = 1348;
var viewHeight = 379;
var sectionId = 'dynsection-6';
</script>
<script xlink:href="../../svgpan.js"/>
<svg id="graph" class="graph">
<g id="viewport">
<title>model.ObservableData.get</title>
<polygon fill="white" stroke="none" points="-4,4 -4,-375 1344,-375 1344,4 -4,4"/>
<!-- Node1 -->
<g id="node1" class="node"><title>Node1</title>
<polygon fill="#bfbfbf" stroke="black" points="0,-170.5 0,-189.5 146,-189.5 146,-170.5 0,-170.5"/>
<text text-anchor="middle" x="73" y="-177.5" font-family="Helvetica,sans-Serif" font-size="10.00">model.ObservableData.get</text>
</g>
<!-- Node2 -->
<g id="node2" class="node"><title>Node2</title>
<g id="a_node2"><a xlink:href="../../dd/dc5/classview_1_1_settings_view.html#a1ade97b4c15b11449f1124a6b6eb5e93" target="_top" xlink:title="view.SettingsView.addBGColor\lPicker">
<polygon fill="white" stroke="black" points="401,-319 401,-349 561,-349 561,-319 401,-319"/>
<text text-anchor="start" x="409" y="-337" font-family="Helvetica,sans-Serif" font-size="10.00">view.SettingsView.addBGColor</text>
<text text-anchor="middle" x="481" y="-326" font-family="Helvetica,sans-Serif" font-size="10.00">Picker</text>
</a>
</g>
</g>
<!-- Node1&#45;&gt;Node2 -->
<g id="edge1" class="edge"><title>Node1&#45;&gt;Node2</title>
<path fill="none" stroke="midnightblue" d="M85.48,-197.95C102.929,-223.557 138.713,-269.914 182,-292 219.115,-310.937 325.661,-322.581 400.713,-328.668"/>
<polygon fill="midnightblue" stroke="midnightblue" points="88.3451,-195.937 79.9012,-189.538 82.5114,-199.806 88.3451,-195.937"/>
</g>
<!-- Node4 -->
<g id="node4" class="node"><title>Node4</title>
<g id="a_node4"><a xlink:href="../../dd/d05/classinstructions_1_1commands_1_1_is_showing.html#a905c79ac6835944155bd68af9c2a1d56" target="_top" xlink:title="instructions.commands.Is\lShowing.execute">
<polygon fill="white" stroke="black" points="194,-253 194,-283 334,-283 334,-253 194,-253"/>
<text text-anchor="start" x="202" y="-271" font-family="Helvetica,sans-Serif" font-size="10.00">instructions.commands.Is</text>
<text text-anchor="middle" x="264" y="-260" font-family="Helvetica,sans-Serif" font-size="10.00">Showing.execute</text>
</a>
</g>
</g>
<!-- Node1&#45;&gt;Node4 -->
<g id="edge3" class="edge"><title>Node1&#45;&gt;Node4</title>
<path fill="none" stroke="midnightblue" d="M98.9466,-194.672C120.523,-207.052 152.764,-224.812 182,-238 193.756,-243.303 206.754,-248.429 218.834,-252.898"/>
<polygon fill="midnightblue" stroke="midnightblue" points="100.521,-191.54 90.1126,-189.563 97.0164,-197.599 100.521,-191.54"/>
</g>
<!-- Node5 -->
<g id="node5" class="node"><title>Node5</title>
<g id="a_node5"><a xlink:href="../../d3/d88/classmodel_1_1_slogo_model.html#a54085c9bf13d8dcfd7deed3623be36f1" target="_top" xlink:title="model.SlogoModel.execute\lCommands">
<polygon fill="white" stroke="black" points="625,-82 625,-112 771,-112 771,-82 625,-82"/>
<text text-anchor="start" x="633" y="-100" font-family="Helvetica,sans-Serif" font-size="10.00">model.SlogoModel.execute</text>
<text text-anchor="middle" x="698" y="-89" font-family="Helvetica,sans-Serif" font-size="10.00">Commands</text>
</a>
</g>
</g>
<!-- Node1&#45;&gt;Node5 -->
<g id="edge4" class="edge"><title>Node1&#45;&gt;Node5</title>
<path fill="none" stroke="midnightblue" d="M102.105,-166.197C123.483,-156.348 153.912,-143.705 182,-137 336.612,-100.091 524.01,-95.1167 624.674,-95.5488"/>
<polygon fill="midnightblue" stroke="midnightblue" points="100.522,-163.073 92.9601,-170.494 103.499,-169.409 100.522,-163.073"/>
</g>
<!-- Node9 -->
<g id="node9" class="node"><title>Node9</title>
<g id="a_node9"><a xlink:href="../../d4/d90/classview_1_1_key_controls.html#a0c3663cb62e91e8919b0296aad899a8f" target="_top" xlink:title="view.KeyControls.makeKey\lCommands">
<polygon fill="white" stroke="black" points="1006,-209 1006,-239 1148,-239 1148,-209 1006,-209"/>
<text text-anchor="start" x="1014" y="-227" font-family="Helvetica,sans-Serif" font-size="10.00">view.KeyControls.makeKey</text>
<text text-anchor="middle" x="1077" y="-216" font-family="Helvetica,sans-Serif" font-size="10.00">Commands</text>
</a>
</g>
</g>
<!-- Node1&#45;&gt;Node9 -->
<g id="edge18" class="edge"><title>Node1&#45;&gt;Node9</title>
<path fill="none" stroke="midnightblue" d="M120.6,-191.978C139.534,-196.419 161.695,-201.08 182,-204 313.39,-222.897 347.258,-224 480,-224 480,-224 480,-224 699,-224 806.013,-224 930.113,-224 1005.82,-224"/>
<polygon fill="midnightblue" stroke="midnightblue" points="121.274,-188.54 110.734,-189.616 119.644,-195.348 121.274,-188.54"/>
</g>
<!-- Node11 -->
<g id="node11" class="node"><title>Node11</title>
<g id="a_node11"><a xlink:href="../../d3/d88/classmodel_1_1_slogo_model.html#a80d95a95345028893cb013833fd32165" target="_top" xlink:title="model.SlogoModel.initialize\lBGColor">
<polygon fill="white" stroke="black" points="191,-341 191,-371 337,-371 337,-341 191,-341"/>
<text text-anchor="start" x="199" y="-359" font-family="Helvetica,sans-Serif" font-size="10.00">model.SlogoModel.initialize</text>
<text text-anchor="middle" x="264" y="-348" font-family="Helvetica,sans-Serif" font-size="10.00">BGColor</text>
</a>
</g>
</g>
<!-- Node1&#45;&gt;Node11 -->
<g id="edge10" class="edge"><title>Node1&#45;&gt;Node11</title>
<path fill="none" stroke="midnightblue" d="M83.2982,-198.89C99.3557,-229.68 135.12,-290.781 182,-326 190.033,-332.035 199.409,-336.966 208.876,-340.957"/>
<polygon fill="midnightblue" stroke="midnightblue" points="86.273,-197.018 78.6205,-189.691 80.0334,-200.191 86.273,-197.018"/>
</g>
<!-- Node12 -->
<g id="node12" class="node"><title>Node12</title>
<g id="a_node12"><a xlink:href="../../d3/d96/classparser_1_1_instruction_factory.html#a4b06d4f5f8e173824966dd0ec1e00255" target="_top" xlink:title="parser.InstructionFactory.make\lInstruction">
<polygon fill="white" stroke="black" points="182.5,-165 182.5,-195 345.5,-195 345.5,-165 182.5,-165"/>
<text text-anchor="start" x="190.5" y="-183" font-family="Helvetica,sans-Serif" font-size="10.00">parser.InstructionFactory.make</text>
<text text-anchor="middle" x="264" y="-172" font-family="Helvetica,sans-Serif" font-size="10.00">Instruction</text>
</a>
</g>
</g>
<!-- Node1&#45;&gt;Node12 -->
<g id="edge12" class="edge"><title>Node1&#45;&gt;Node12</title>
<path fill="none" stroke="midnightblue" d="M156.296,-180C164.912,-180 173.666,-180 182.265,-180"/>
<polygon fill="midnightblue" stroke="midnightblue" points="156.262,-176.5 146.262,-180 156.262,-183.5 156.262,-176.5"/>
</g>
<!-- Node16 -->
<g id="node16" class="node"><title>Node16</title>
<g id="a_node16"><a xlink:href="../../d0/dfc/classview_1_1_slogo_window.html#ac299c416ca174b4ebe51eaf7d2700af3" target="_top" xlink:title="view.SlogoWindow.onClick\lCommand">
<polygon fill="white" stroke="black" points="195.5,-39 195.5,-69 332.5,-69 332.5,-39 195.5,-39"/>
<text text-anchor="start" x="203.5" y="-57" font-family="Helvetica,sans-Serif" font-size="10.00">view.SlogoWindow.onClick</text>
<text text-anchor="middle" x="264" y="-46" font-family="Helvetica,sans-Serif" font-size="10.00">Command</text>
</a>
</g>
</g>
<!-- Node1&#45;&gt;Node16 -->
<g id="edge19" class="edge"><title>Node1&#45;&gt;Node16</title>
<path fill="none" stroke="midnightblue" d="M89.5566,-162.678C109.277,-141.606 145.164,-106.115 182,-84 191.643,-78.211 202.588,-73.2391 213.244,-69.1023"/>
<polygon fill="midnightblue" stroke="midnightblue" points="86.7911,-160.515 82.5935,-170.243 91.9412,-165.256 86.7911,-160.515"/>
</g>
<!-- Node18 -->
<g id="node18" class="node"><title>Node18</title>
<g id="a_node18"><a xlink:href="../../d3/d88/classmodel_1_1_slogo_model.html#a407690ec446fa165e17c41f6bc1f37cd" target="_top" xlink:title="model.SlogoModel.rerun">
<polygon fill="white" stroke="black" points="197,-0.5 197,-19.5 331,-19.5 331,-0.5 197,-0.5"/>
<text text-anchor="middle" x="264" y="-7.5" font-family="Helvetica,sans-Serif" font-size="10.00">model.SlogoModel.rerun</text>
</a>
</g>
</g>
<!-- Node1&#45;&gt;Node18 -->
<g id="edge21" class="edge"><title>Node1&#45;&gt;Node18</title>
<path fill="none" stroke="midnightblue" d="M82.0926,-161.325C96.9846,-129.253 131.863,-63.8916 182,-30 188.48,-25.6196 195.831,-22.1972 203.396,-19.5237"/>
<polygon fill="midnightblue" stroke="midnightblue" points="78.8818,-159.931 77.9657,-170.487 85.2641,-162.806 78.8818,-159.931"/>
</g>
<!-- Node19 -->
<g id="node19" class="node"><title>Node19</title>
<g id="a_node19"><a xlink:href="../../d3/d88/classmodel_1_1_slogo_model.html#a396654689e37ebdc837f5623a25d08d3" target="_top" xlink:title="model.SlogoModel.showToHistoryView">
<polygon fill="white" stroke="black" points="382.5,-128.5 382.5,-147.5 579.5,-147.5 579.5,-128.5 382.5,-128.5"/>
<text text-anchor="middle" x="481" y="-135.5" font-family="Helvetica,sans-Serif" font-size="10.00">model.SlogoModel.showToHistoryView</text>
</a>
</g>
</g>
<!-- Node1&#45;&gt;Node19 -->
<g id="edge22" class="edge"><title>Node1&#45;&gt;Node19</title>
<path fill="none" stroke="midnightblue" d="M120.14,-168.059C139.17,-163.576 161.524,-158.875 182,-156 248.468,-146.667 323.946,-142.17 382.309,-140.005"/>
<polygon fill="midnightblue" stroke="midnightblue" points="119.135,-164.701 110.231,-170.443 120.773,-171.507 119.135,-164.701"/>
</g>
<!-- Node3 -->
<g id="node3" class="node"><title>Node3</title>
<g id="a_node3"><a xlink:href="../../dd/dc5/classview_1_1_settings_view.html#a34b8df753ce7a3b7d917a01ff315edc8" target="_top" xlink:title="view.SettingsView.SettingsView">
<polygon fill="white" stroke="black" points="616,-324.5 616,-343.5 780,-343.5 780,-324.5 616,-324.5"/>
<text text-anchor="middle" x="698" y="-331.5" font-family="Helvetica,sans-Serif" font-size="10.00">view.SettingsView.SettingsView</text>
</a>
</g>
</g>
<!-- Node2&#45;&gt;Node3 -->
<g id="edge2" class="edge"><title>Node2&#45;&gt;Node3</title>
<path fill="none" stroke="midnightblue" d="M571.281,-334C586.057,-334 601.305,-334 615.866,-334"/>
<polygon fill="midnightblue" stroke="midnightblue" points="571.142,-330.5 561.142,-334 571.142,-337.5 571.142,-330.5"/>
</g>
<!-- Node6 -->
<g id="node6" class="node"><title>Node6</title>
<g id="a_node6"><a xlink:href="../../d3/d88/classmodel_1_1_slogo_model.html#ad096dbf0a253635d346a622540f472bd" target="_top" xlink:title="model.SlogoModel.parseAnd\lExecute">
<polygon fill="white" stroke="black" points="816,-121 816,-151 970,-151 970,-121 816,-121"/>
<text text-anchor="start" x="824" y="-139" font-family="Helvetica,sans-Serif" font-size="10.00">model.SlogoModel.parseAnd</text>
<text text-anchor="middle" x="893" y="-128" font-family="Helvetica,sans-Serif" font-size="10.00">Execute</text>
</a>
</g>
</g>
<!-- Node5&#45;&gt;Node6 -->
<g id="edge5" class="edge"><title>Node5&#45;&gt;Node6</title>
<path fill="none" stroke="midnightblue" d="M781.225,-113.615C793.336,-116.063 805.754,-118.572 817.693,-120.985"/>
<polygon fill="midnightblue" stroke="midnightblue" points="781.636,-110.128 771.141,-111.578 780.249,-116.989 781.636,-110.128"/>
</g>
<!-- Node7 -->
<g id="node7" class="node"><title>Node7</title>
<g id="a_node7"><a xlink:href="../../d6/d0a/classview_1_1_input_view.html#a948930c9b825f34ef8f5def96910471b" target="_top" xlink:title="view.InputView.initSubmit\lButton">
<polygon fill="white" stroke="black" points="1009,-121 1009,-151 1145,-151 1145,-121 1009,-121"/>
<text text-anchor="start" x="1017" y="-139" font-family="Helvetica,sans-Serif" font-size="10.00">view.InputView.initSubmit</text>
<text text-anchor="middle" x="1077" y="-128" font-family="Helvetica,sans-Serif" font-size="10.00">Button</text>
</a>
</g>
</g>
<!-- Node6&#45;&gt;Node7 -->
<g id="edge6" class="edge"><title>Node6&#45;&gt;Node7</title>
<path fill="none" stroke="midnightblue" d="M980.137,-136C989.784,-136 999.503,-136 1008.86,-136"/>
<polygon fill="midnightblue" stroke="midnightblue" points="980.13,-132.5 970.13,-136 980.13,-139.5 980.13,-132.5"/>
</g>
<!-- Node6&#45;&gt;Node9 -->
<g id="edge8" class="edge"><title>Node6&#45;&gt;Node9</title>
<path fill="none" stroke="midnightblue" d="M954.466,-154.542C959.777,-156.575 965.022,-158.735 970,-161 1000.2,-174.743 1032.69,-194.939 1053.62,-208.736"/>
<polygon fill="midnightblue" stroke="midnightblue" points="955.47,-151.182 944.876,-151.023 953.059,-157.754 955.47,-151.182"/>
</g>
<!-- Node8 -->
<g id="node8" class="node"><title>Node8</title>
<g id="a_node8"><a xlink:href="../../d6/d0a/classview_1_1_input_view.html#ac75e6562ed83ace6cb0a0ac886780054" target="_top" xlink:title="view.InputView.InputView">
<polygon fill="white" stroke="black" points="1195.5,-126.5 1195.5,-145.5 1328.5,-145.5 1328.5,-126.5 1195.5,-126.5"/>
<text text-anchor="middle" x="1262" y="-133.5" font-family="Helvetica,sans-Serif" font-size="10.00">view.InputView.InputView</text>
</a>
</g>
</g>
<!-- Node7&#45;&gt;Node8 -->
<g id="edge7" class="edge"><title>Node7&#45;&gt;Node8</title>
<path fill="none" stroke="midnightblue" d="M1155.23,-136C1168.61,-136 1182.4,-136 1195.43,-136"/>
<polygon fill="midnightblue" stroke="midnightblue" points="1155.1,-132.5 1145.1,-136 1155.1,-139.5 1155.1,-132.5"/>
</g>
<!-- Node10 -->
<g id="node10" class="node"><title>Node10</title>
<g id="a_node10"><a xlink:href="../../d4/d90/classview_1_1_key_controls.html#a4b73546f8ba8feee9e878b3cf743fb61" target="_top" xlink:title="view.KeyControls.KeyControls">
<polygon fill="white" stroke="black" points="1184.5,-192.5 1184.5,-211.5 1339.5,-211.5 1339.5,-192.5 1184.5,-192.5"/>
<text text-anchor="middle" x="1262" y="-199.5" font-family="Helvetica,sans-Serif" font-size="10.00">view.KeyControls.KeyControls</text>
</a>
</g>
</g>
<!-- Node9&#45;&gt;Node10 -->
<g id="edge9" class="edge"><title>Node9&#45;&gt;Node10</title>
<path fill="none" stroke="midnightblue" d="M1158.28,-214.349C1166.91,-213.311 1175.67,-212.258 1184.26,-211.225"/>
<polygon fill="midnightblue" stroke="midnightblue" points="1157.74,-210.888 1148.23,-215.557 1158.58,-217.838 1157.74,-210.888"/>
</g>
<!-- Node11&#45;&gt;Node2 -->
<g id="edge11" class="edge"><title>Node11&#45;&gt;Node2</title>
<path fill="none" stroke="midnightblue" d="M347.417,-347.567C365,-345.767 383.53,-343.871 400.982,-342.086"/>
<polygon fill="midnightblue" stroke="midnightblue" points="346.782,-344.113 337.19,-348.613 347.494,-351.077 346.782,-344.113"/>
</g>
<!-- Node13 -->
<g id="node13" class="node"><title>Node13</title>
<g id="a_node13"><a xlink:href="../../d6/d95/classparser_1_1_parser.html#a0b953b563fd9171ad113c168900ba0ad" target="_top" xlink:title="parser.Parser.parseTokens">
<polygon fill="white" stroke="black" points="410.5,-170.5 410.5,-189.5 551.5,-189.5 551.5,-170.5 410.5,-170.5"/>
<text text-anchor="middle" x="481" y="-177.5" font-family="Helvetica,sans-Serif" font-size="10.00">parser.Parser.parseTokens</text>
</a>
</g>
</g>
<!-- Node12&#45;&gt;Node13 -->
<g id="edge13" class="edge"><title>Node12&#45;&gt;Node13</title>
<path fill="none" stroke="midnightblue" d="M355.707,-180C373.921,-180 392.794,-180 410.165,-180"/>
<polygon fill="midnightblue" stroke="midnightblue" points="355.67,-176.5 345.67,-180 355.67,-183.5 355.67,-176.5"/>
</g>
<!-- Node14 -->
<g id="node14" class="node"><title>Node14</title>
<g id="a_node14"><a xlink:href="../../d6/d95/classparser_1_1_parser.html#aec8f2721f51a8a257b572c73d80d5d98" target="_top" xlink:title="parser.Parser.parse">
<polygon fill="white" stroke="black" points="643.5,-170.5 643.5,-189.5 752.5,-189.5 752.5,-170.5 643.5,-170.5"/>
<text text-anchor="middle" x="698" y="-177.5" font-family="Helvetica,sans-Serif" font-size="10.00">parser.Parser.parse</text>
</a>
</g>
</g>
<!-- Node13&#45;&gt;Node14 -->
<g id="edge14" class="edge"><title>Node13&#45;&gt;Node14</title>
<path fill="none" stroke="midnightblue" d="M561.795,-180C589.005,-180 618.756,-180 643.405,-180"/>
<polygon fill="midnightblue" stroke="midnightblue" points="561.507,-176.5 551.507,-180 561.507,-183.5 561.507,-176.5"/>
</g>
<!-- Node14&#45;&gt;Node6 -->
<g id="edge15" class="edge"><title>Node14&#45;&gt;Node6</title>
<path fill="none" stroke="midnightblue" d="M750.817,-168.187C773.906,-162.923 801.374,-156.661 825.918,-151.065"/>
<polygon fill="midnightblue" stroke="midnightblue" points="749.85,-164.817 740.878,-170.453 751.406,-171.642 749.85,-164.817"/>
</g>
<!-- Node15 -->
<g id="node15" class="node"><title>Node15</title>
<g id="a_node15"><a xlink:href="../../d4/d90/classview_1_1_key_controls.html#a5139ba2a7cd205b996395f4f3e7f406c" target="_top" xlink:title="view.KeyControls.setKeyMap">
<polygon fill="white" stroke="black" points="818,-170.5 818,-189.5 968,-189.5 968,-170.5 818,-170.5"/>
<text text-anchor="middle" x="893" y="-177.5" font-family="Helvetica,sans-Serif" font-size="10.00">view.KeyControls.setKeyMap</text>
</a>
</g>
</g>
<!-- Node14&#45;&gt;Node15 -->
<g id="edge16" class="edge"><title>Node14&#45;&gt;Node15</title>
<path fill="none" stroke="midnightblue" d="M762.677,-180C780.315,-180 799.614,-180 817.796,-180"/>
<polygon fill="midnightblue" stroke="midnightblue" points="762.505,-176.5 752.505,-180 762.505,-183.5 762.505,-176.5"/>
</g>
<!-- Node15&#45;&gt;Node10 -->
<g id="edge17" class="edge"><title>Node15&#45;&gt;Node10</title>
<path fill="none" stroke="midnightblue" d="M978.425,-185.061C1040.49,-188.781 1124.15,-193.797 1184.32,-197.403"/>
<polygon fill="midnightblue" stroke="midnightblue" points="978.459,-181.557 968.268,-184.452 978.041,-188.544 978.459,-181.557"/>
</g>
<!-- Node17 -->
<g id="node17" class="node"><title>Node17</title>
<g id="a_node17"><a xlink:href="../../d0/dfc/classview_1_1_slogo_window.html#ad49eb4482b8bf39443afcdac5018e410" target="_top" xlink:title="view.SlogoWindow.SlogoWindow">
<polygon fill="white" stroke="black" points="398,-44.5 398,-63.5 564,-63.5 564,-44.5 398,-44.5"/>
<text text-anchor="middle" x="481" y="-51.5" font-family="Helvetica,sans-Serif" font-size="10.00">view.SlogoWindow.SlogoWindow</text>
</a>
</g>
</g>
<!-- Node16&#45;&gt;Node17 -->
<g id="edge20" class="edge"><title>Node16&#45;&gt;Node17</title>
<path fill="none" stroke="midnightblue" d="M342.828,-54C360.73,-54 379.822,-54 397.898,-54"/>
<polygon fill="midnightblue" stroke="midnightblue" points="342.732,-50.5001 332.732,-54 342.732,-57.5001 342.732,-50.5001"/>
</g>
<!-- Node19&#45;&gt;Node6 -->
<g id="edge23" class="edge"><title>Node19&#45;&gt;Node6</title>
<path fill="none" stroke="midnightblue" d="M590.018,-137.473C661.089,-137.126 752.368,-136.681 815.881,-136.371"/>
<polygon fill="midnightblue" stroke="midnightblue" points="589.667,-133.975 579.684,-137.523 589.701,-140.975 589.667,-133.975"/>
</g>
</g>
</svg>
        <g id="navigator" transform="translate(0 0)" fill="#404254">
                <rect fill="#f2f5e9" fill-opacity="0.5" stroke="#606060" stroke-width=".5" x="0" y="0" width="60" height="60"/>
                <use id="zoomplus" xlink:href="#zoomPlus" x="17" y="9" onmousedown="handleZoom(evt,'in')"/>
                <use id="zoomminus" xlink:href="#zoomMin" x="42" y="9" onmousedown="handleZoom(evt,'out')"/>
                <use id="reset" xlink:href="#resetDef" x="30" y="36" onmousedown="handleReset()"/>
                <g id="arrowUp" xlink:href="#dirArrow" transform="translate(30 24)" onmousedown="handlePan(0,-1)">
                  <use xlink:href="#rim" fill="#404040">
                        <set attributeName="fill" to="#808080" begin="arrowUp.mouseover" end="arrowUp.mouseout"/>
                  </use>
                  <path fill="none" stroke="white" stroke-width="1.5" d="M0,-3.0v7 M-2.5,-0.5L0,-3.0L2.5,-0.5"/>
                </g>
                <g id="arrowRight" xlink:href="#dirArrow" transform="rotate(90) translate(36 -43)" onmousedown="handlePan(1,0)">
                  <use xlink:href="#rim" fill="#404040">
                        <set attributeName="fill" to="#808080" begin="arrowRight.mouseover" end="arrowRight.mouseout"/>
                  </use>
                  <path fill="none" stroke="white" stroke-width="1.5" d="M0,-3.0v7 M-2.5,-0.5L0,-3.0L2.5,-0.5"/>
                </g>
                <g id="arrowDown" xlink:href="#dirArrow" transform="rotate(180) translate(-30 -48)" onmousedown="handlePan(0,1)">
                  <use xlink:href="#rim" fill="#404040">
                        <set attributeName="fill" to="#808080" begin="arrowDown.mouseover" end="arrowDown.mouseout"/>
                  </use>
                  <path fill="none" stroke="white" stroke-width="1.5" d="M0,-3.0v7 M-2.5,-0.5L0,-3.0L2.5,-0.5"/>
                </g>
                <g id="arrowLeft" xlink:href="#dirArrow" transform="rotate(270) translate(-36 17)" onmousedown="handlePan(-1,0)">
                  <use xlink:href="#rim" fill="#404040">
                        <set attributeName="fill" to="#808080" begin="arrowLeft.mouseover" end="arrowLeft.mouseout"/>
                  </use>
                  <path fill="none" stroke="white" stroke-width="1.5" d="M0,-3.0v7 M-2.5,-0.5L0,-3.0L2.5,-0.5"/>
                </g>
        </g>
        <svg viewBox="0 0 15 15" width="100%" height="30px" preserveAspectRatio="xMaxYMin meet">
         <g id="arrow_out" transform="scale(0.3 0.3)">
          <a xlink:href="classmodel_1_1_observable_data_aa526df8e1adab74d19f2d89071560dcb_icgraph_org.svg" target="_base">
           <rect id="button" ry="5" rx="5" y="6" x="6" height="38" width="38"
                fill="#f2f5e9" fill-opacity="0.5" stroke="#606060" stroke-width="1.0"/>
           <path id="arrow"
             d="M 11.500037,31.436501 C 11.940474,20.09759 22.043105,11.32322 32.158766,21.979434 L 37.068811,17.246167 C 37.068811,17.246167 37.088388,32 37.088388,32 L 22.160133,31.978069 C 22.160133,31.978069 26.997745,27.140456 26.997745,27.140456 C 18.528582,18.264221 13.291696,25.230495 11.500037,31.436501 z"
             style="fill:#404040;"/>
          </a>
         </g>
        </svg>
</svg>
