<?xml version="1.0" encoding="UTF-8" standalone="no"?>
<!DOCTYPE svg PUBLIC "-//W3C//DTD SVG 1.1//EN"
 "http://www.w3.org/Graphics/SVG/1.1/DTD/svg11.dtd">
<!-- Generated by graphviz version 2.36.0 (20140111.2315)
 -->
<!-- Title: instructions.BinaryInstruction Pages: 1 -->
<svg width="315pt" height="212pt"
 viewBox="0.00 0.00 315.00 212.00" xmlns="http://www.w3.org/2000/svg" xmlns:xlink="http://www.w3.org/1999/xlink">
<g id="graph0" class="graph" transform="scale(1 1) rotate(0) translate(4 208)">
<title>instructions.BinaryInstruction</title>
<polygon fill="white" stroke="none" points="-4,4 -4,-208 311,-208 311,4 -4,4"/>
<!-- Node1 -->
<g id="node1" class="node"><title>Node1</title>
<polygon fill="#bfbfbf" stroke="black" points="106.5,-0.5 106.5,-19.5 261.5,-19.5 261.5,-0.5 106.5,-0.5"/>
<text text-anchor="middle" x="184" y="-7.5" font-family="Helvetica,sans-Serif" font-size="10.00">instructions.BinaryInstruction</text>
</g>
<!-- Node2 -->
<g id="node2" class="node"><title>Node2</title>
<g id="a_node2"><a xlink:href="../../d9/d85/classinstructions_1_1_parameter_instruction.html" target="_top" xlink:title="instructions.ParameterInstruction">
<polygon fill="white" stroke="black" points="96,-58.5 96,-77.5 272,-77.5 272,-58.5 96,-58.5"/>
<text text-anchor="middle" x="184" y="-65.5" font-family="Helvetica,sans-Serif" font-size="10.00">instructions.ParameterInstruction</text>
</a>
</g>
</g>
<!-- Node2&#45;&gt;Node1 -->
<g id="edge1" class="edge"><title>Node2&#45;&gt;Node1</title>
<path fill="none" stroke="midnightblue" d="M184,-47.953C184,-38.2875 184,-27.0312 184,-19.5052"/>
<polygon fill="midnightblue" stroke="midnightblue" points="180.5,-48.25 184,-58.25 187.5,-48.25 180.5,-48.25"/>
</g>
<!-- Node3 -->
<g id="node3" class="node"><title>Node3</title>
<g id="a_node3"><a xlink:href="../../d2/d93/interfaceinstructions_1_1_instruction.html" target="_top" xlink:title="instructions.Instruction">
<polygon fill="white" stroke="black" points="-0.5,-126.5 -0.5,-145.5 124.5,-145.5 124.5,-126.5 -0.5,-126.5"/>
<text text-anchor="middle" x="62" y="-133.5" font-family="Helvetica,sans-Serif" font-size="10.00">instructions.Instruction</text>
</a>
</g>
</g>
<!-- Node3&#45;&gt;Node2 -->
<g id="edge2" class="edge"><title>Node3&#45;&gt;Node2</title>
<path fill="none" stroke="midnightblue" d="M86.9271,-121.515C111.213,-108.377 147.404,-88.7981 168.047,-77.6305"/>
<polygon fill="midnightblue" stroke="midnightblue" points="85.0794,-118.535 77.9494,-126.372 88.4102,-124.692 85.0794,-118.535"/>
</g>
<!-- Node4 -->
<g id="node4" class="node"><title>Node4</title>
<polygon fill="white" stroke="#bfbfbf" points="26.5,-184.5 26.5,-203.5 97.5,-203.5 97.5,-184.5 26.5,-184.5"/>
<text text-anchor="middle" x="62" y="-191.5" font-family="Helvetica,sans-Serif" font-size="10.00">Serializable</text>
</g>
<!-- Node4&#45;&gt;Node3 -->
<g id="edge3" class="edge"><title>Node4&#45;&gt;Node3</title>
<path fill="none" stroke="midnightblue" d="M62,-173.953C62,-164.287 62,-153.031 62,-145.505"/>
<polygon fill="midnightblue" stroke="midnightblue" points="58.5001,-174.25 62,-184.25 65.5001,-174.25 58.5001,-174.25"/>
</g>
<!-- Node5 -->
<g id="node5" class="node"><title>Node5</title>
<polygon fill="white" stroke="#bfbfbf" points="143,-126.5 143,-145.5 307,-145.5 307,-126.5 143,-126.5"/>
<text text-anchor="middle" x="225" y="-133.5" font-family="Helvetica,sans-Serif" font-size="10.00">List&lt; instructions.Instruction &gt;</text>
</g>
<!-- Node5&#45;&gt;Node2 -->
<g id="edge4" class="edge"><title>Node5&#45;&gt;Node2</title>
<path fill="none" stroke="#9a32cd" stroke-dasharray="5,2" d="M214.168,-117.563C206.228,-104.781 195.778,-87.9599 189.492,-77.8411"/>
<polygon fill="#9a32cd" stroke="#9a32cd" points="211.39,-119.724 219.64,-126.372 217.336,-116.03 211.39,-119.724"/>
<text text-anchor="middle" x="236.5" y="-99.5" font-family="Helvetica,sans-Serif" font-size="10.00"> myParams</text>
</g>
</g>
</svg>
