<?xml version="1.0" encoding="UTF-8" standalone="no"?>
<!DOCTYPE svg PUBLIC "-//W3C//DTD SVG 1.1//EN"
 "http://www.w3.org/Graphics/SVG/1.1/DTD/svg11.dtd">
<!-- Generated by graphviz version 2.36.0 (20140111.2315)
 -->
<!-- Title: instructions.commands.LessThan Pages: 1 -->
<svg width="184pt" height="252pt"
 viewBox="0.00 0.00 184.00 252.00" xmlns="http://www.w3.org/2000/svg" xmlns:xlink="http://www.w3.org/1999/xlink">
<g id="graph0" class="graph" transform="scale(1 1) rotate(0) translate(4 248)">
<title>instructions.commands.LessThan</title>
<polygon fill="white" stroke="none" points="-4,4 -4,-248 180,-248 180,4 -4,4"/>
<!-- Node1 -->
<g id="node1" class="node"><title>Node1</title>
<polygon fill="#bfbfbf" stroke="black" points="-0.5,-0.5 -0.5,-19.5 176.5,-19.5 176.5,-0.5 -0.5,-0.5"/>
<text text-anchor="middle" x="88" y="-7.5" font-family="Helvetica,sans-Serif" font-size="10.00">instructions.commands.LessThan</text>
</g>
<!-- Node2 -->
<g id="node2" class="node"><title>Node2</title>
<g id="a_node2"><a xlink:href="../../d6/d3f/classinstructions_1_1_binary_instruction.html" target="_top" xlink:title="instructions.BinaryInstruction">
<polygon fill="white" stroke="black" points="10.5,-56.5 10.5,-75.5 165.5,-75.5 165.5,-56.5 10.5,-56.5"/>
<text text-anchor="middle" x="88" y="-63.5" font-family="Helvetica,sans-Serif" font-size="10.00">instructions.BinaryInstruction</text>
</a>
</g>
</g>
<!-- Node2&#45;&gt;Node1 -->
<g id="edge1" class="edge"><title>Node2&#45;&gt;Node1</title>
<path fill="none" stroke="midnightblue" d="M88,-45.8045C88,-36.9102 88,-26.7798 88,-19.7511"/>
<polygon fill="midnightblue" stroke="midnightblue" points="84.5001,-46.083 88,-56.083 91.5001,-46.083 84.5001,-46.083"/>
</g>
<!-- Node3 -->
<g id="node3" class="node"><title>Node3</title>
<g id="a_node3"><a xlink:href="../../d9/d85/classinstructions_1_1_parameter_instruction.html" target="_top" xlink:title="instructions.ParameterInstruction">
<polygon fill="white" stroke="black" points="0,-112.5 0,-131.5 176,-131.5 176,-112.5 0,-112.5"/>
<text text-anchor="middle" x="88" y="-119.5" font-family="Helvetica,sans-Serif" font-size="10.00">instructions.ParameterInstruction</text>
</a>
</g>
</g>
<!-- Node3&#45;&gt;Node2 -->
<g id="edge2" class="edge"><title>Node3&#45;&gt;Node2</title>
<path fill="none" stroke="midnightblue" d="M88,-101.805C88,-92.9102 88,-82.7798 88,-75.7511"/>
<polygon fill="midnightblue" stroke="midnightblue" points="84.5001,-102.083 88,-112.083 91.5001,-102.083 84.5001,-102.083"/>
</g>
<!-- Node4 -->
<g id="node4" class="node"><title>Node4</title>
<g id="a_node4"><a xlink:href="../../d2/d93/interfaceinstructions_1_1_instruction.html" target="_top" xlink:title="instructions.Instruction">
<polygon fill="white" stroke="black" points="25.5,-168.5 25.5,-187.5 150.5,-187.5 150.5,-168.5 25.5,-168.5"/>
<text text-anchor="middle" x="88" y="-175.5" font-family="Helvetica,sans-Serif" font-size="10.00">instructions.Instruction</text>
</a>
</g>
</g>
<!-- Node4&#45;&gt;Node3 -->
<g id="edge3" class="edge"><title>Node4&#45;&gt;Node3</title>
<path fill="none" stroke="midnightblue" d="M88,-157.805C88,-148.91 88,-138.78 88,-131.751"/>
<polygon fill="midnightblue" stroke="midnightblue" points="84.5001,-158.083 88,-168.083 91.5001,-158.083 84.5001,-158.083"/>
</g>
<!-- Node5 -->
<g id="node5" class="node"><title>Node5</title>
<polygon fill="white" stroke="#bfbfbf" points="52.5,-224.5 52.5,-243.5 123.5,-243.5 123.5,-224.5 52.5,-224.5"/>
<text text-anchor="middle" x="88" y="-231.5" font-family="Helvetica,sans-Serif" font-size="10.00">Serializable</text>
</g>
<!-- Node5&#45;&gt;Node4 -->
<g id="edge4" class="edge"><title>Node5&#45;&gt;Node4</title>
<path fill="none" stroke="midnightblue" d="M88,-213.805C88,-204.91 88,-194.78 88,-187.751"/>
<polygon fill="midnightblue" stroke="midnightblue" points="84.5001,-214.083 88,-224.083 91.5001,-214.083 84.5001,-214.083"/>
</g>
</g>
</svg>
