<?xml version="1.0" encoding="UTF-8" standalone="no"?>
<!DOCTYPE svg PUBLIC "-//W3C//DTD SVG 1.1//EN"
 "http://www.w3.org/Graphics/SVG/1.1/DTD/svg11.dtd">
<!-- Generated by graphviz version 2.36.0 (20140111.2315)
 -->
<!-- Title: instructions.commands.MakeUserInstruction Pages: 1 -->
<svg width="315pt" height="224pt"
 viewBox="0.00 0.00 315.00 224.00" xmlns="http://www.w3.org/2000/svg" xmlns:xlink="http://www.w3.org/1999/xlink">
<g id="graph0" class="graph" transform="scale(1 1) rotate(0) translate(4 220)">
<title>instructions.commands.MakeUserInstruction</title>
<polygon fill="white" stroke="none" points="-4,4 -4,-220 311,-220 311,4 -4,4"/>
<!-- Node1 -->
<g id="node1" class="node"><title>Node1</title>
<polygon fill="#bfbfbf" stroke="black" points="105,-1 105,-31 263,-31 263,-1 105,-1"/>
<text text-anchor="start" x="113" y="-19" font-family="Helvetica,sans-Serif" font-size="10.00">instructions.commands.Make</text>
<text text-anchor="middle" x="184" y="-8" font-family="Helvetica,sans-Serif" font-size="10.00">UserInstruction</text>
</g>
<!-- Node2 -->
<g id="node2" class="node"><title>Node2</title>
<g id="a_node2"><a xlink:href="../../d9/d85/classinstructions_1_1_parameter_instruction.html" target="_top" xlink:title="instructions.ParameterInstruction">
<polygon fill="white" stroke="black" points="96,-70.5 96,-89.5 272,-89.5 272,-70.5 96,-70.5"/>
<text text-anchor="middle" x="184" y="-77.5" font-family="Helvetica,sans-Serif" font-size="10.00">instructions.ParameterInstruction</text>
</a>
</g>
</g>
<!-- Node2&#45;&gt;Node1 -->
<g id="edge1" class="edge"><title>Node2&#45;&gt;Node1</title>
<path fill="none" stroke="midnightblue" d="M184,-60.1826C184,-50.8859 184,-39.8507 184,-31.263"/>
<polygon fill="midnightblue" stroke="midnightblue" points="180.5,-60.3791 184,-70.3792 187.5,-60.3792 180.5,-60.3791"/>
</g>
<!-- Node3 -->
<g id="node3" class="node"><title>Node3</title>
<g id="a_node3"><a xlink:href="../../d2/d93/interfaceinstructions_1_1_instruction.html" target="_top" xlink:title="instructions.Instruction">
<polygon fill="white" stroke="black" points="-0.5,-138.5 -0.5,-157.5 124.5,-157.5 124.5,-138.5 -0.5,-138.5"/>
<text text-anchor="middle" x="62" y="-145.5" font-family="Helvetica,sans-Serif" font-size="10.00">instructions.Instruction</text>
</a>
</g>
</g>
<!-- Node3&#45;&gt;Node2 -->
<g id="edge2" class="edge"><title>Node3&#45;&gt;Node2</title>
<path fill="none" stroke="midnightblue" d="M86.9271,-133.515C111.213,-120.377 147.404,-100.798 168.047,-89.6305"/>
<polygon fill="midnightblue" stroke="midnightblue" points="85.0794,-130.535 77.9494,-138.372 88.4102,-136.692 85.0794,-130.535"/>
</g>
<!-- Node4 -->
<g id="node4" class="node"><title>Node4</title>
<polygon fill="white" stroke="#bfbfbf" points="26.5,-196.5 26.5,-215.5 97.5,-215.5 97.5,-196.5 26.5,-196.5"/>
<text text-anchor="middle" x="62" y="-203.5" font-family="Helvetica,sans-Serif" font-size="10.00">Serializable</text>
</g>
<!-- Node4&#45;&gt;Node3 -->
<g id="edge3" class="edge"><title>Node4&#45;&gt;Node3</title>
<path fill="none" stroke="midnightblue" d="M62,-185.953C62,-176.287 62,-165.031 62,-157.505"/>
<polygon fill="midnightblue" stroke="midnightblue" points="58.5001,-186.25 62,-196.25 65.5001,-186.25 58.5001,-186.25"/>
</g>
<!-- Node5 -->
<g id="node5" class="node"><title>Node5</title>
<polygon fill="white" stroke="#bfbfbf" points="143,-138.5 143,-157.5 307,-157.5 307,-138.5 143,-138.5"/>
<text text-anchor="middle" x="225" y="-145.5" font-family="Helvetica,sans-Serif" font-size="10.00">List&lt; instructions.Instruction &gt;</text>
</g>
<!-- Node5&#45;&gt;Node2 -->
<g id="edge4" class="edge"><title>Node5&#45;&gt;Node2</title>
<path fill="none" stroke="#9a32cd" stroke-dasharray="5,2" d="M214.168,-129.563C206.228,-116.781 195.778,-99.9599 189.492,-89.8411"/>
<polygon fill="#9a32cd" stroke="#9a32cd" points="211.39,-131.724 219.64,-138.372 217.336,-128.03 211.39,-131.724"/>
<text text-anchor="middle" x="236.5" y="-111.5" font-family="Helvetica,sans-Serif" font-size="10.00"> myParams</text>
</g>
</g>
</svg>
