<?xml version="1.0" encoding="UTF-8" standalone="no"?>
<!DOCTYPE svg PUBLIC "-//W3C//DTD SVG 1.1//EN"
 "http://www.w3.org/Graphics/SVG/1.1/DTD/svg11.dtd">
<!-- Generated by graphviz version 2.36.0 (20140111.2315)
 -->
<!-- Title: instructions.commands.GetShape.execute Pages: 1 -->
<svg width="336pt" height="66pt"
 viewBox="0.00 0.00 336.00 66.00" xmlns="http://www.w3.org/2000/svg" xmlns:xlink="http://www.w3.org/1999/xlink">
<g id="graph0" class="graph" transform="scale(1 1) rotate(0) translate(4 62)">
<title>instructions.commands.GetShape.execute</title>
<polygon fill="white" stroke="none" points="-4,4 -4,-62 332,-62 332,4 -4,4"/>
<!-- Node1 -->
<g id="node1" class="node"><title>Node1</title>
<polygon fill="#bfbfbf" stroke="black" points="0.5,-14 0.5,-44 149.5,-44 149.5,-14 0.5,-14"/>
<text text-anchor="start" x="8.5" y="-32" font-family="Helvetica,sans-Serif" font-size="10.00">instructions.commands.Get</text>
<text text-anchor="middle" x="75" y="-21" font-family="Helvetica,sans-Serif" font-size="10.00">Shape.execute</text>
</g>
<!-- Node2 -->
<g id="node2" class="node"><title>Node2</title>
<g id="a_node2"><a xlink:href="../../d6/d34/classmodel_1_1_turtle.html#ae9617a33be67cde20ddb372c4d7978fc" target="_top" xlink:title="model.Turtle.getShapeList">
<polygon fill="white" stroke="black" points="186.5,-38.5 186.5,-57.5 327.5,-57.5 327.5,-38.5 186.5,-38.5"/>
<text text-anchor="middle" x="257" y="-45.5" font-family="Helvetica,sans-Serif" font-size="10.00">model.Turtle.getShapeList</text>
</a>
</g>
</g>
<!-- Node1&#45;&gt;Node2 -->
<g id="edge1" class="edge"><title>Node1&#45;&gt;Node2</title>
<path fill="none" stroke="midnightblue" d="M149.732,-36.7828C158.55,-37.7136 167.583,-38.6671 176.478,-39.606"/>
<polygon fill="midnightblue" stroke="midnightblue" points="176.13,-43.0887 186.443,-40.6578 176.865,-36.1273 176.13,-43.0887"/>
</g>
<!-- Node3 -->
<g id="node3" class="node"><title>Node3</title>
<g id="a_node3"><a xlink:href="../../d6/d34/classmodel_1_1_turtle.html#a78e4cb5da4bfc50682b9cd4c05cbcbfd" target="_top" xlink:title="model.Turtle.getTurtleImg">
<polygon fill="white" stroke="black" points="188.5,-0.5 188.5,-19.5 325.5,-19.5 325.5,-0.5 188.5,-0.5"/>
<text text-anchor="middle" x="257" y="-7.5" font-family="Helvetica,sans-Serif" font-size="10.00">model.Turtle.getTurtleImg</text>
</a>
</g>
</g>
<!-- Node1&#45;&gt;Node3 -->
<g id="edge2" class="edge"><title>Node1&#45;&gt;Node3</title>
<path fill="none" stroke="midnightblue" d="M149.732,-21.2172C159.144,-20.2237 168.801,-19.2044 178.273,-18.2045"/>
<polygon fill="midnightblue" stroke="midnightblue" points="178.881,-21.6599 188.459,-17.1294 178.146,-14.6985 178.881,-21.6599"/>
</g>
</g>
</svg>
