<?xml version="1.0" encoding="UTF-8" standalone="no"?>
<!DOCTYPE svg PUBLIC "-//W3C//DTD SVG 1.1//EN"
 "http://www.w3.org/Graphics/SVG/1.1/DTD/svg11.dtd">
<!-- Generated by graphviz version 2.36.0 (20140111.2315)
 -->
<!-- Title: instructions.commands.SetPenColor.execute Pages: 1 -->
<svg width="322pt" height="66pt"
 viewBox="0.00 0.00 322.00 66.00" xmlns="http://www.w3.org/2000/svg" xmlns:xlink="http://www.w3.org/1999/xlink">
<g id="graph0" class="graph" transform="scale(1 1) rotate(0) translate(4 62)">
<title>instructions.commands.SetPenColor.execute</title>
<polygon fill="white" stroke="none" points="-4,4 -4,-62 318,-62 318,4 -4,4"/>
<!-- Node1 -->
<g id="node1" class="node"><title>Node1</title>
<polygon fill="#bfbfbf" stroke="black" points="0.5,-14 0.5,-44 149.5,-44 149.5,-14 0.5,-14"/>
<text text-anchor="start" x="8.5" y="-32" font-family="Helvetica,sans-Serif" font-size="10.00">instructions.commands.Set</text>
<text text-anchor="middle" x="75" y="-21" font-family="Helvetica,sans-Serif" font-size="10.00">PenColor.execute</text>
</g>
<!-- Node2 -->
<g id="node2" class="node"><title>Node2</title>
<g id="a_node2"><a xlink:href="../../de/ded/classmodel_1_1_pen.html#abf9d008c3d0c568b6f5614d2f0e43b48" target="_top" xlink:title="model.Pen.getCustom">
<polygon fill="white" stroke="black" points="188,-38.5 188,-57.5 312,-57.5 312,-38.5 188,-38.5"/>
<text text-anchor="middle" x="250" y="-45.5" font-family="Helvetica,sans-Serif" font-size="10.00">model.Pen.getCustom</text>
</a>
</g>
</g>
<!-- Node1&#45;&gt;Node2 -->
<g id="edge1" class="edge"><title>Node1&#45;&gt;Node2</title>
<path fill="none" stroke="midnightblue" d="M149.618,-37.0853C159.006,-38.1163 168.601,-39.17 177.947,-40.1965"/>
<polygon fill="midnightblue" stroke="midnightblue" points="177.647,-43.6845 187.969,-41.2972 178.411,-36.7263 177.647,-43.6845"/>
</g>
<!-- Node3 -->
<g id="node3" class="node"><title>Node3</title>
<g id="a_node3"><a xlink:href="../../de/ded/classmodel_1_1_pen.html#a66364a974714d2b44c00ee26a57e5654" target="_top" xlink:title="model.Pen.setPenColor">
<polygon fill="white" stroke="black" points="186,-0.5 186,-19.5 314,-19.5 314,-0.5 186,-0.5"/>
<text text-anchor="middle" x="250" y="-7.5" font-family="Helvetica,sans-Serif" font-size="10.00">model.Pen.setPenColor</text>
</a>
</g>
</g>
<!-- Node1&#45;&gt;Node3 -->
<g id="edge2" class="edge"><title>Node1&#45;&gt;Node3</title>
<path fill="none" stroke="midnightblue" d="M149.618,-20.9147C158.278,-19.9637 167.113,-18.9934 175.767,-18.043"/>
<polygon fill="midnightblue" stroke="midnightblue" points="176.263,-21.5096 185.821,-16.9388 175.498,-14.5515 176.263,-21.5096"/>
</g>
</g>
</svg>
