<?xml version="1.0" encoding="UTF-8" standalone="no"?>
<!DOCTYPE svg PUBLIC "-//W3C//DTD SVG 1.1//EN"
 "http://www.w3.org/Graphics/SVG/1.1/DTD/svg11.dtd">
<!-- Generated by graphviz version 2.36.0 (20140111.2315)
 -->
<!-- Title: view.PaneView Pages: 1 -->
<svg width="446pt" height="140pt"
 viewBox="0.00 0.00 446.00 140.00" xmlns="http://www.w3.org/2000/svg" xmlns:xlink="http://www.w3.org/1999/xlink">
<g id="graph0" class="graph" transform="scale(1 1) rotate(0) translate(4 136)">
<title>view.PaneView</title>
<polygon fill="white" stroke="none" points="-4,4 -4,-136 442,-136 442,4 -4,4"/>
<!-- Node1 -->
<g id="node1" class="node"><title>Node1</title>
<polygon fill="#bfbfbf" stroke="black" points="186,-56.5 186,-75.5 270,-75.5 270,-56.5 186,-56.5"/>
<text text-anchor="middle" x="228" y="-63.5" font-family="Helvetica,sans-Serif" font-size="10.00">view.PaneView</text>
</g>
<!-- Node3 -->
<g id="node3" class="node"><title>Node3</title>
<g id="a_node3"><a xlink:href="../../de/d2f/classview_1_1_data_view.html" target="_top" xlink:title="view.DataView">
<polygon fill="white" stroke="black" points="0,-0.5 0,-19.5 84,-19.5 84,-0.5 0,-0.5"/>
<text text-anchor="middle" x="42" y="-7.5" font-family="Helvetica,sans-Serif" font-size="10.00">view.DataView</text>
</a>
</g>
</g>
<!-- Node1&#45;&gt;Node3 -->
<g id="edge2" class="edge"><title>Node1&#45;&gt;Node3</title>
<path fill="none" stroke="midnightblue" d="M188.622,-53.5677C153.534,-43.381 102.979,-28.7034 71.3344,-19.5164"/>
<polygon fill="midnightblue" stroke="midnightblue" points="187.948,-57.0166 198.528,-56.4435 189.9,-50.2942 187.948,-57.0166"/>
</g>
<!-- Node4 -->
<g id="node4" class="node"><title>Node4</title>
<g id="a_node4"><a xlink:href="../../dc/da8/classview_1_1_history_results_view.html" target="_top" xlink:title="view.HistoryResultsView">
<polygon fill="white" stroke="black" points="102,-0.5 102,-19.5 230,-19.5 230,-0.5 102,-0.5"/>
<text text-anchor="middle" x="166" y="-7.5" font-family="Helvetica,sans-Serif" font-size="10.00">view.HistoryResultsView</text>
</a>
</g>
</g>
<!-- Node1&#45;&gt;Node4 -->
<g id="edge3" class="edge"><title>Node1&#45;&gt;Node4</title>
<path fill="none" stroke="midnightblue" d="M210.246,-49.5372C199.192,-39.9087 185.369,-27.8694 176.143,-19.8339"/>
<polygon fill="midnightblue" stroke="midnightblue" points="208.199,-52.3954 218.039,-56.324 212.797,-47.1168 208.199,-52.3954"/>
</g>
<!-- Node5 -->
<g id="node5" class="node"><title>Node5</title>
<g id="a_node5"><a xlink:href="../../d6/d0a/classview_1_1_input_view.html" target="_top" xlink:title="view.InputView">
<polygon fill="white" stroke="black" points="248.5,-0.5 248.5,-19.5 333.5,-19.5 333.5,-0.5 248.5,-0.5"/>
<text text-anchor="middle" x="291" y="-7.5" font-family="Helvetica,sans-Serif" font-size="10.00">view.InputView</text>
</a>
</g>
</g>
<!-- Node1&#45;&gt;Node5 -->
<g id="edge4" class="edge"><title>Node1&#45;&gt;Node5</title>
<path fill="none" stroke="midnightblue" d="M246.04,-49.5372C257.273,-39.9087 271.319,-27.8694 280.694,-19.8339"/>
<polygon fill="midnightblue" stroke="midnightblue" points="243.437,-47.1586 238.122,-56.324 247.992,-52.4734 243.437,-47.1586"/>
</g>
<!-- Node6 -->
<g id="node6" class="node"><title>Node6</title>
<g id="a_node6"><a xlink:href="../../d8/df7/classview_1_1_turtle_view.html" target="_top" xlink:title="view.TurtleView">
<polygon fill="white" stroke="black" points="352,-0.5 352,-19.5 438,-19.5 438,-0.5 352,-0.5"/>
<text text-anchor="middle" x="395" y="-7.5" font-family="Helvetica,sans-Serif" font-size="10.00">view.TurtleView</text>
</a>
</g>
</g>
<!-- Node1&#45;&gt;Node6 -->
<g id="edge5" class="edge"><title>Node1&#45;&gt;Node6</title>
<path fill="none" stroke="midnightblue" d="M264.17,-53.3044C295.637,-43.1294 340.494,-28.6246 368.662,-19.5164"/>
<polygon fill="midnightblue" stroke="midnightblue" points="262.9,-50.0366 254.462,-56.4435 265.053,-56.697 262.9,-50.0366"/>
</g>
<!-- Node2 -->
<g id="node2" class="node"><title>Node2</title>
<polygon fill="white" stroke="#bfbfbf" points="208,-112.5 208,-131.5 248,-131.5 248,-112.5 208,-112.5"/>
<text text-anchor="middle" x="228" y="-119.5" font-family="Helvetica,sans-Serif" font-size="10.00">Pane</text>
</g>
<!-- Node2&#45;&gt;Node1 -->
<g id="edge1" class="edge"><title>Node2&#45;&gt;Node1</title>
<path fill="none" stroke="midnightblue" d="M228,-101.805C228,-92.9102 228,-82.7798 228,-75.7511"/>
<polygon fill="midnightblue" stroke="midnightblue" points="224.5,-102.083 228,-112.083 231.5,-102.083 224.5,-102.083"/>
</g>
</g>
</svg>
