<?xml version="1.0" encoding="UTF-8" standalone="no"?>
<!DOCTYPE svg PUBLIC "-//W3C//DTD SVG 1.1//EN"
 "http://www.w3.org/Graphics/SVG/1.1/DTD/svg11.dtd">
<!-- Generated by graphviz version 2.36.0 (20140111.2315)
 -->
<!-- Title: instructions.commands.PenUp Pages: 1 -->
<svg width="186pt" height="196pt"
 viewBox="0.00 0.00 186.00 196.00" xmlns="http://www.w3.org/2000/svg" xmlns:xlink="http://www.w3.org/1999/xlink">
<g id="graph0" class="graph" transform="scale(1 1) rotate(0) translate(4 192)">
<title>instructions.commands.PenUp</title>
<polygon fill="white" stroke="none" points="-4,4 -4,-192 182,-192 182,4 -4,4"/>
<!-- Node1 -->
<g id="node1" class="node"><title>Node1</title>
<polygon fill="#bfbfbf" stroke="black" points="7,-0.5 7,-19.5 171,-19.5 171,-0.5 7,-0.5"/>
<text text-anchor="middle" x="89" y="-7.5" font-family="Helvetica,sans-Serif" font-size="10.00">instructions.commands.PenUp</text>
</g>
<!-- Node2 -->
<g id="node2" class="node"><title>Node2</title>
<g id="a_node2"><a xlink:href="../../dc/d59/classinstructions_1_1_zero_param_instruction.html" target="_top" xlink:title="instructions.ZeroParamInstruction">
<polygon fill="white" stroke="black" points="-0.5,-56.5 -0.5,-75.5 178.5,-75.5 178.5,-56.5 -0.5,-56.5"/>
<text text-anchor="middle" x="89" y="-63.5" font-family="Helvetica,sans-Serif" font-size="10.00">instructions.ZeroParamInstruction</text>
</a>
</g>
</g>
<!-- Node2&#45;&gt;Node1 -->
<g id="edge1" class="edge"><title>Node2&#45;&gt;Node1</title>
<path fill="none" stroke="midnightblue" d="M89,-45.8045C89,-36.9102 89,-26.7798 89,-19.7511"/>
<polygon fill="midnightblue" stroke="midnightblue" points="85.5001,-46.083 89,-56.083 92.5001,-46.083 85.5001,-46.083"/>
</g>
<!-- Node3 -->
<g id="node3" class="node"><title>Node3</title>
<g id="a_node3"><a xlink:href="../../d2/d93/interfaceinstructions_1_1_instruction.html" target="_top" xlink:title="instructions.Instruction">
<polygon fill="white" stroke="black" points="26.5,-112.5 26.5,-131.5 151.5,-131.5 151.5,-112.5 26.5,-112.5"/>
<text text-anchor="middle" x="89" y="-119.5" font-family="Helvetica,sans-Serif" font-size="10.00">instructions.Instruction</text>
</a>
</g>
</g>
<!-- Node3&#45;&gt;Node2 -->
<g id="edge2" class="edge"><title>Node3&#45;&gt;Node2</title>
<path fill="none" stroke="midnightblue" d="M89,-101.805C89,-92.9102 89,-82.7798 89,-75.7511"/>
<polygon fill="midnightblue" stroke="midnightblue" points="85.5001,-102.083 89,-112.083 92.5001,-102.083 85.5001,-102.083"/>
</g>
<!-- Node4 -->
<g id="node4" class="node"><title>Node4</title>
<polygon fill="white" stroke="#bfbfbf" points="53.5,-168.5 53.5,-187.5 124.5,-187.5 124.5,-168.5 53.5,-168.5"/>
<text text-anchor="middle" x="89" y="-175.5" font-family="Helvetica,sans-Serif" font-size="10.00">Serializable</text>
</g>
<!-- Node4&#45;&gt;Node3 -->
<g id="edge3" class="edge"><title>Node4&#45;&gt;Node3</title>
<path fill="none" stroke="midnightblue" d="M89,-157.805C89,-148.91 89,-138.78 89,-131.751"/>
<polygon fill="midnightblue" stroke="midnightblue" points="85.5001,-158.083 89,-168.083 92.5001,-158.083 85.5001,-158.083"/>
</g>
</g>
</svg>
