<?xml version="1.0" encoding="UTF-8" standalone="no"?>
<!DOCTYPE svg PUBLIC "-//W3C//DTD SVG 1.1//EN"
 "http://www.w3.org/Graphics/SVG/1.1/DTD/svg11.dtd">
<!-- Generated by graphviz version 2.36.0 (20140111.2315)
 -->
<!-- Title: /tmp/git/duke&#45;compsci308&#45;fall2014/slogo_team02/repository/src Pages: 1 -->
<svg width="674pt" height="111pt"
 viewBox="0.00 0.00 674.00 111.00" xmlns="http://www.w3.org/2000/svg" xmlns:xlink="http://www.w3.org/1999/xlink">
<g id="graph0" class="graph" transform="scale(1 1) rotate(0) translate(4 107)">
<title>/tmp/git/duke&#45;compsci308&#45;fall2014/slogo_team02/repository/src</title>
<polygon fill="white" stroke="none" points="-4,4 -4,-107 670,-107 670,4 -4,4"/>
<g id="clust1" class="cluster"><title>clusterdir_ec788bf6923240a448e0291913d9042a</title>
<g id="a_clust1"><a xlink:href="dir_ec788bf6923240a448e0291913d9042a.html" target="_top" xlink:title="repository">
<polygon fill="#ddddee" stroke="black" points="8,-8 8,-95 658,-95 658,-8 8,-8"/>
<text text-anchor="middle" x="333" y="-83" font-family="Helvetica,sans-Serif" font-size="10.00">repository</text>
</a>
</g>
</g>
<g id="clust2" class="cluster"><title>clusterdir_bbdf5d6b6e1d78f5fca132ea45e7632d</title>
<g id="a_clust2"><a xlink:href="dir_bbdf5d6b6e1d78f5fca132ea45e7632d.html" target="_top">
<polygon fill="#eeeeff" stroke="black" points="16,-16 16,-68 650,-68 650,-16 16,-16"/>
</a>
</g>
</g>
<!-- dir_bbdf5d6b6e1d78f5fca132ea45e7632d -->
<g id="node1" class="node"><title>dir_bbdf5d6b6e1d78f5fca132ea45e7632d</title>
<text text-anchor="middle" x="615" y="-39.5" font-family="Helvetica,sans-Serif" font-size="10.00">src</text>
</g>
<!-- dir_7f545d5115b20407d42efaaaa976a150 -->
<g id="node2" class="node"><title>dir_7f545d5115b20407d42efaaaa976a150</title>
<g id="a_node2"><a xlink:href="dir_7f545d5115b20407d42efaaaa976a150.html" target="_top" xlink:title="controller">
<polygon fill="white" stroke="black" points="569.5,-60 508.5,-60 508.5,-24 569.5,-24 569.5,-60"/>
<text text-anchor="middle" x="539" y="-39.5" font-family="Helvetica,sans-Serif" font-size="10.00">controller</text>
</a>
</g>
</g>
<!-- dir_c39f0bda570b6584dec276c2dac8bbfd -->
<g id="node3" class="node"><title>dir_c39f0bda570b6584dec276c2dac8bbfd</title>
<g id="a_node3"><a xlink:href="dir_c39f0bda570b6584dec276c2dac8bbfd.html" target="_top" xlink:title="error_checking">
<polygon fill="white" stroke="black" points="489.25,-60 402.75,-60 402.75,-24 489.25,-24 489.25,-60"/>
<text text-anchor="middle" x="446" y="-39.5" font-family="Helvetica,sans-Serif" font-size="10.00">error_checking</text>
</a>
</g>
</g>
<!-- dir_f9c285ded4601b4189038f8b212502f0 -->
<g id="node4" class="node"><title>dir_f9c285ded4601b4189038f8b212502f0</title>
<g id="a_node4"><a xlink:href="dir_f9c285ded4601b4189038f8b212502f0.html" target="_top" xlink:title="instructions">
<polygon fill="white" stroke="red" points="384,-60 312,-60 312,-24 384,-24 384,-60"/>
<text text-anchor="middle" x="348" y="-39.5" font-family="Helvetica,sans-Serif" font-size="10.00">instructions</text>
</a>
</g>
</g>
<!-- dir_63c8d2f643bdd5bbef0ded92dc96069c -->
<g id="node5" class="node"><title>dir_63c8d2f643bdd5bbef0ded92dc96069c</title>
<g id="a_node5"><a xlink:href="dir_63c8d2f643bdd5bbef0ded92dc96069c.html" target="_top" xlink:title="main">
<polygon fill="white" stroke="black" points="294,-60 240,-60 240,-24 294,-24 294,-60"/>
<text text-anchor="middle" x="267" y="-39.5" font-family="Helvetica,sans-Serif" font-size="10.00">main</text>
</a>
</g>
</g>
<!-- dir_8de96f111d9c1ba397a11d1837a77988 -->
<g id="node6" class="node"><title>dir_8de96f111d9c1ba397a11d1837a77988</title>
<g id="a_node6"><a xlink:href="dir_8de96f111d9c1ba397a11d1837a77988.html" target="_top" xlink:title="model">
<polygon fill="white" stroke="black" points="222,-60 168,-60 168,-24 222,-24 222,-60"/>
<text text-anchor="middle" x="195" y="-39.5" font-family="Helvetica,sans-Serif" font-size="10.00">model</text>
</a>
</g>
</g>
<!-- dir_75db217b693808a290a14d16fef942aa -->
<g id="node7" class="node"><title>dir_75db217b693808a290a14d16fef942aa</title>
<g id="a_node7"><a xlink:href="dir_75db217b693808a290a14d16fef942aa.html" target="_top" xlink:title="parser">
<polygon fill="white" stroke="black" points="150,-60 96,-60 96,-24 150,-24 150,-60"/>
<text text-anchor="middle" x="123" y="-39.5" font-family="Helvetica,sans-Serif" font-size="10.00">parser</text>
</a>
</g>
</g>
<!-- dir_2b5bc69296d1a467694f5c0dced447ba -->
<g id="node8" class="node"><title>dir_2b5bc69296d1a467694f5c0dced447ba</title>
<g id="a_node8"><a xlink:href="dir_2b5bc69296d1a467694f5c0dced447ba.html" target="_top" xlink:title="view">
<polygon fill="white" stroke="black" points="78,-60 24,-60 24,-24 78,-24 78,-60"/>
<text text-anchor="middle" x="51" y="-39.5" font-family="Helvetica,sans-Serif" font-size="10.00">view</text>
</a>
</g>
</g>
</g>
</svg>
