<?xml version="1.0" encoding="UTF-8" standalone="no"?>
<!DOCTYPE svg PUBLIC "-//W3C//DTD SVG 1.1//EN"
 "http://www.w3.org/Graphics/SVG/1.1/DTD/svg11.dtd">
<!-- Generated by graphviz version 2.36.0 (20140111.2315)
 -->
<!-- Title: Graphical Class Hierarchy Pages: 1 -->
<svg width="332pt" height="142pt"
 viewBox="0.00 0.00 332.00 142.00" xmlns="http://www.w3.org/2000/svg" xmlns:xlink="http://www.w3.org/1999/xlink">
<g id="graph0" class="graph" transform="scale(1 1) rotate(0) translate(4 138)">
<title>Graphical Class Hierarchy</title>
<polygon fill="white" stroke="none" points="-4,4 -4,-138 328,-138 328,4 -4,4"/>
<!-- Node1 -->
<g id="node1" class="node"><title>Node1</title>
<polygon fill="white" stroke="#bfbfbf" points="0,-57.5 0,-76.5 40,-76.5 40,-57.5 0,-57.5"/>
<text text-anchor="middle" x="20" y="-64.5" font-family="Helvetica,sans-Serif" font-size="10.00">Pane</text>
</g>
<!-- Node2 -->
<g id="node2" class="node"><title>Node2</title>
<g id="a_node2"><a xlink:href="dc/dc4/classview_1_1_pane_view.html" target="_top" xlink:title="view.PaneView">
<polygon fill="white" stroke="black" points="76,-57.5 76,-76.5 160,-76.5 160,-57.5 76,-57.5"/>
<text text-anchor="middle" x="118" y="-64.5" font-family="Helvetica,sans-Serif" font-size="10.00">view.PaneView</text>
</a>
</g>
</g>
<!-- Node1&#45;&gt;Node2 -->
<g id="edge1" class="edge"><title>Node1&#45;&gt;Node2</title>
<path fill="none" stroke="midnightblue" d="M50.6712,-67C58.616,-67 67.349,-67 75.7956,-67"/>
<polygon fill="midnightblue" stroke="midnightblue" points="50.4271,-63.5001 40.427,-67 50.427,-70.5001 50.4271,-63.5001"/>
</g>
<!-- Node3 -->
<g id="node3" class="node"><title>Node3</title>
<g id="a_node3"><a xlink:href="de/d2f/classview_1_1_data_view.html" target="_top" xlink:title="view.DataView">
<polygon fill="white" stroke="black" points="218,-114.5 218,-133.5 302,-133.5 302,-114.5 218,-114.5"/>
<text text-anchor="middle" x="260" y="-121.5" font-family="Helvetica,sans-Serif" font-size="10.00">view.DataView</text>
</a>
</g>
</g>
<!-- Node2&#45;&gt;Node3 -->
<g id="edge2" class="edge"><title>Node2&#45;&gt;Node3</title>
<path fill="none" stroke="midnightblue" d="M145.346,-81.3544C159.995,-88.989 178.709,-98.1802 196,-105 204.821,-108.479 214.544,-111.699 223.658,-114.463"/>
<polygon fill="midnightblue" stroke="midnightblue" points="146.838,-78.1844 136.362,-76.6026 143.565,-84.3722 146.838,-78.1844"/>
</g>
<!-- Node4 -->
<g id="node4" class="node"><title>Node4</title>
<g id="a_node4"><a xlink:href="dc/da8/classview_1_1_history_results_view.html" target="_top" xlink:title="view.HistoryResultsView">
<polygon fill="white" stroke="black" points="196,-76.5 196,-95.5 324,-95.5 324,-76.5 196,-76.5"/>
<text text-anchor="middle" x="260" y="-83.5" font-family="Helvetica,sans-Serif" font-size="10.00">view.HistoryResultsView</text>
</a>
</g>
</g>
<!-- Node2&#45;&gt;Node4 -->
<g id="edge3" class="edge"><title>Node2&#45;&gt;Node4</title>
<path fill="none" stroke="midnightblue" d="M170.233,-73.953C178.605,-75.0893 187.365,-76.2781 195.982,-77.4475"/>
<polygon fill="midnightblue" stroke="midnightblue" points="170.627,-70.4746 160.247,-72.5979 169.686,-77.411 170.627,-70.4746"/>
</g>
<!-- Node5 -->
<g id="node5" class="node"><title>Node5</title>
<g id="a_node5"><a xlink:href="d6/d0a/classview_1_1_input_view.html" target="_top" xlink:title="view.InputView">
<polygon fill="white" stroke="black" points="217.5,-38.5 217.5,-57.5 302.5,-57.5 302.5,-38.5 217.5,-38.5"/>
<text text-anchor="middle" x="260" y="-45.5" font-family="Helvetica,sans-Serif" font-size="10.00">view.InputView</text>
</a>
</g>
</g>
<!-- Node2&#45;&gt;Node5 -->
<g id="edge4" class="edge"><title>Node2&#45;&gt;Node5</title>
<path fill="none" stroke="midnightblue" d="M170.159,-60.057C185.584,-57.9635 202.328,-55.6912 217.078,-53.6894"/>
<polygon fill="midnightblue" stroke="midnightblue" points="169.686,-56.589 160.247,-61.4021 170.627,-63.5254 169.686,-56.589"/>
</g>
<!-- Node6 -->
<g id="node6" class="node"><title>Node6</title>
<g id="a_node6"><a xlink:href="d8/df7/classview_1_1_turtle_view.html" target="_top" xlink:title="view.TurtleView">
<polygon fill="white" stroke="black" points="217,-0.5 217,-19.5 303,-19.5 303,-0.5 217,-0.5"/>
<text text-anchor="middle" x="260" y="-7.5" font-family="Helvetica,sans-Serif" font-size="10.00">view.TurtleView</text>
</a>
</g>
</g>
<!-- Node2&#45;&gt;Node6 -->
<g id="edge5" class="edge"><title>Node2&#45;&gt;Node6</title>
<path fill="none" stroke="midnightblue" d="M145.346,-52.6456C159.995,-45.011 178.709,-35.8198 196,-29 204.821,-25.521 214.544,-22.3007 223.658,-19.5371"/>
<polygon fill="midnightblue" stroke="midnightblue" points="143.565,-49.6278 136.362,-57.3974 146.838,-55.8156 143.565,-49.6278"/>
</g>
</g>
</svg>
