<?xml version="1.0" encoding="UTF-8" standalone="no"?>
<!DOCTYPE svg PUBLIC "-//W3C//DTD SVG 1.1//EN"
 "http://www.w3.org/Graphics/SVG/1.1/DTD/svg11.dtd">
<!-- Generated by graphviz version 2.36.0 (20140111.2315)
 -->
<!-- Title: Graphical Class Hierarchy Pages: 1 -->
<svg width="558pt" height="104pt"
 viewBox="0.00 0.00 558.00 104.00" xmlns="http://www.w3.org/2000/svg" xmlns:xlink="http://www.w3.org/1999/xlink">
<g id="graph0" class="graph" transform="scale(1 1) rotate(0) translate(4 100)">
<title>Graphical Class Hierarchy</title>
<polygon fill="white" stroke="none" points="-4,4 -4,-100 554,-100 554,4 -4,4"/>
<!-- Node1 -->
<g id="node1" class="node"><title>Node1</title>
<polygon fill="white" stroke="#bfbfbf" points="0,-19.5 0,-38.5 66,-38.5 66,-19.5 0,-19.5"/>
<text text-anchor="middle" x="33" y="-26.5" font-family="Helvetica,sans-Serif" font-size="10.00">ScrollPane</text>
</g>
<!-- Node2 -->
<g id="node2" class="node"><title>Node2</title>
<g id="a_node2"><a xlink:href="db/d98/classview_1_1_scroll_view.html" target="_top" xlink:title="view.ScrollView">
<polygon fill="white" stroke="black" points="102.5,-19.5 102.5,-38.5 189.5,-38.5 189.5,-19.5 102.5,-19.5"/>
<text text-anchor="middle" x="146" y="-26.5" font-family="Helvetica,sans-Serif" font-size="10.00">view.ScrollView</text>
</a>
</g>
</g>
<!-- Node1&#45;&gt;Node2 -->
<g id="edge1" class="edge"><title>Node1&#45;&gt;Node2</title>
<path fill="none" stroke="midnightblue" d="M76.2146,-29C84.7301,-29 93.6889,-29 102.223,-29"/>
<polygon fill="midnightblue" stroke="midnightblue" points="76.1058,-25.5001 66.1058,-29 76.1058,-32.5001 76.1058,-25.5001"/>
</g>
<!-- Node3 -->
<g id="node3" class="node"><title>Node3</title>
<g id="a_node3"><a xlink:href="d4/d36/classview_1_1_data_view_components.html" target="_top" xlink:title="view.DataViewComponents">
<polygon fill="white" stroke="black" points="226,-38.5 226,-57.5 372,-57.5 372,-38.5 226,-38.5"/>
<text text-anchor="middle" x="299" y="-45.5" font-family="Helvetica,sans-Serif" font-size="10.00">view.DataViewComponents</text>
</a>
</g>
</g>
<!-- Node2&#45;&gt;Node3 -->
<g id="edge2" class="edge"><title>Node2&#45;&gt;Node3</title>
<path fill="none" stroke="midnightblue" d="M199.889,-35.6549C208.299,-36.7131 217.121,-37.8232 225.883,-38.9256"/>
<polygon fill="midnightblue" stroke="midnightblue" points="200.225,-32.1697 189.867,-34.3938 199.351,-39.115 200.225,-32.1697"/>
</g>
<!-- Node7 -->
<g id="node7" class="node"><title>Node7</title>
<g id="a_node7"><a xlink:href="d1/d0e/classview_1_1_history_view.html" target="_top" xlink:title="view.HistoryView">
<polygon fill="white" stroke="black" points="251.5,-0.5 251.5,-19.5 346.5,-19.5 346.5,-0.5 251.5,-0.5"/>
<text text-anchor="middle" x="299" y="-7.5" font-family="Helvetica,sans-Serif" font-size="10.00">view.HistoryView</text>
</a>
</g>
</g>
<!-- Node2&#45;&gt;Node7 -->
<g id="edge6" class="edge"><title>Node2&#45;&gt;Node7</title>
<path fill="none" stroke="midnightblue" d="M200.033,-22.327C216.749,-20.2237 235.082,-17.9169 251.321,-15.8735"/>
<polygon fill="midnightblue" stroke="midnightblue" points="199.351,-18.885 189.867,-23.6062 200.225,-25.8303 199.351,-18.885"/>
</g>
<!-- Node4 -->
<g id="node4" class="node"><title>Node4</title>
<g id="a_node4"><a xlink:href="d9/d93/classview_1_1_basic_commands_view.html" target="_top" xlink:title="view.BasicCommandsView">
<polygon fill="white" stroke="black" points="408,-76.5 408,-95.5 550,-95.5 550,-76.5 408,-76.5"/>
<text text-anchor="middle" x="479" y="-83.5" font-family="Helvetica,sans-Serif" font-size="10.00">view.BasicCommandsView</text>
</a>
</g>
</g>
<!-- Node3&#45;&gt;Node4 -->
<g id="edge3" class="edge"><title>Node3&#45;&gt;Node4</title>
<path fill="none" stroke="midnightblue" d="M354.716,-59.681C379.959,-65.0699 409.545,-71.3861 433.406,-76.4799"/>
<polygon fill="midnightblue" stroke="midnightblue" points="355.427,-56.254 344.917,-57.589 353.966,-63.0997 355.427,-56.254"/>
</g>
<!-- Node5 -->
<g id="node5" class="node"><title>Node5</title>
<g id="a_node5"><a xlink:href="d8/d0c/classview_1_1_u_d_commands_view.html" target="_top" xlink:title="view.UDCommandsView">
<polygon fill="white" stroke="black" points="413.5,-38.5 413.5,-57.5 544.5,-57.5 544.5,-38.5 413.5,-38.5"/>
<text text-anchor="middle" x="479" y="-45.5" font-family="Helvetica,sans-Serif" font-size="10.00">view.UDCommandsView</text>
</a>
</g>
</g>
<!-- Node3&#45;&gt;Node5 -->
<g id="edge4" class="edge"><title>Node3&#45;&gt;Node5</title>
<path fill="none" stroke="midnightblue" d="M382.163,-48C392.676,-48 403.316,-48 413.493,-48"/>
<polygon fill="midnightblue" stroke="midnightblue" points="382.143,-44.5001 372.143,-48 382.143,-51.5001 382.143,-44.5001"/>
</g>
<!-- Node6 -->
<g id="node6" class="node"><title>Node6</title>
<g id="a_node6"><a xlink:href="d9/dd3/classview_1_1_variables_view.html" target="_top" xlink:title="view.VariablesView">
<polygon fill="white" stroke="black" points="427,-0.5 427,-19.5 531,-19.5 531,-0.5 427,-0.5"/>
<text text-anchor="middle" x="479" y="-7.5" font-family="Helvetica,sans-Serif" font-size="10.00">view.VariablesView</text>
</a>
</g>
</g>
<!-- Node3&#45;&gt;Node6 -->
<g id="edge5" class="edge"><title>Node3&#45;&gt;Node6</title>
<path fill="none" stroke="midnightblue" d="M354.716,-36.319C379.959,-30.9301 409.545,-24.6139 433.406,-19.5201"/>
<polygon fill="midnightblue" stroke="midnightblue" points="353.966,-32.9003 344.917,-38.411 355.427,-39.746 353.966,-32.9003"/>
</g>
</g>
</svg>
