<?xml version="1.0" encoding="UTF-8" standalone="no"?>
<!DOCTYPE svg PUBLIC "-//W3C//DTD SVG 1.1//EN"
 "http://www.w3.org/Graphics/SVG/1.1/DTD/svg11.dtd">
<!-- Generated by graphviz version 2.36.0 (20140111.2315)
 -->
<!-- Title: instructions.commands.PenUp.execute Pages: 1 -->
<svg width="340pt" height="116pt"
 viewBox="0.00 0.00 340.00 116.00" xmlns="http://www.w3.org/2000/svg" xmlns:xlink="http://www.w3.org/1999/xlink">
<g id="graph0" class="graph" transform="scale(1 1) rotate(0) translate(4 112)">
<title>instructions.commands.PenUp.execute</title>
<polygon fill="white" stroke="none" points="-4,4 -4,-112 336,-112 336,4 -4,4"/>
<!-- Node1 -->
<g id="node1" class="node"><title>Node1</title>
<polygon fill="#bfbfbf" stroke="black" points="0,-39 0,-69 150,-69 150,-39 0,-39"/>
<text text-anchor="start" x="8" y="-57" font-family="Helvetica,sans-Serif" font-size="10.00">instructions.commands.Pen</text>
<text text-anchor="middle" x="75" y="-46" font-family="Helvetica,sans-Serif" font-size="10.00">Up.execute</text>
</g>
<!-- Node2 -->
<g id="node2" class="node"><title>Node2</title>
<g id="a_node2"><a xlink:href="../../d6/d34/classmodel_1_1_turtle.html#a3feaf892f3049394737e61453a1c320d" target="_top" xlink:title="model.Turtle.getPen">
<polygon fill="white" stroke="black" points="203,-88.5 203,-107.5 315,-107.5 315,-88.5 203,-88.5"/>
<text text-anchor="middle" x="259" y="-95.5" font-family="Helvetica,sans-Serif" font-size="10.00">model.Turtle.getPen</text>
</a>
</g>
</g>
<!-- Node1&#45;&gt;Node2 -->
<g id="edge1" class="edge"><title>Node1&#45;&gt;Node2</title>
<path fill="none" stroke="midnightblue" d="M138.125,-69.0192C161.15,-74.5856 186.925,-80.8171 208.659,-86.0713"/>
<polygon fill="midnightblue" stroke="midnightblue" points="208.111,-89.5396 218.653,-88.4876 209.756,-82.7356 208.111,-89.5396"/>
</g>
<!-- Node3 -->
<g id="node3" class="node"><title>Node3</title>
<g id="a_node3"><a xlink:href="../../d8/d36/classmodel_1_1_observable_data.html#aa585e00721a74cba9ab459079945e15b" target="_top" xlink:title="model.ObservableData.get\lTurtle">
<polygon fill="white" stroke="black" points="186,-39 186,-69 332,-69 332,-39 186,-39"/>
<text text-anchor="start" x="194" y="-57" font-family="Helvetica,sans-Serif" font-size="10.00">model.ObservableData.get</text>
<text text-anchor="middle" x="259" y="-46" font-family="Helvetica,sans-Serif" font-size="10.00">Turtle</text>
</a>
</g>
</g>
<!-- Node1&#45;&gt;Node3 -->
<g id="edge2" class="edge"><title>Node1&#45;&gt;Node3</title>
<path fill="none" stroke="midnightblue" d="M150.026,-54C158.515,-54 167.207,-54 175.794,-54"/>
<polygon fill="midnightblue" stroke="midnightblue" points="175.807,-57.5001 185.807,-54 175.807,-50.5001 175.807,-57.5001"/>
</g>
<!-- Node4 -->
<g id="node4" class="node"><title>Node4</title>
<g id="a_node4"><a xlink:href="../../de/ded/classmodel_1_1_pen.html#ad799d84679d9e8332c9cd2b428ea7384" target="_top" xlink:title="model.Pen.setPenDown">
<polygon fill="white" stroke="black" points="194,-0.5 194,-19.5 324,-19.5 324,-0.5 194,-0.5"/>
<text text-anchor="middle" x="259" y="-7.5" font-family="Helvetica,sans-Serif" font-size="10.00">model.Pen.setPenDown</text>
</a>
</g>
</g>
<!-- Node1&#45;&gt;Node4 -->
<g id="edge3" class="edge"><title>Node1&#45;&gt;Node4</title>
<path fill="none" stroke="midnightblue" d="M138.125,-38.9808C161.15,-33.4144 186.925,-27.1829 208.659,-21.9287"/>
<polygon fill="midnightblue" stroke="midnightblue" points="209.756,-25.2644 218.653,-19.5124 208.111,-18.4604 209.756,-25.2644"/>
</g>
</g>
</svg>
