<?xml version="1.0" encoding="UTF-8" standalone="no"?>
<!DOCTYPE svg PUBLIC "-//W3C//DTD SVG 1.1//EN"
 "http://www.w3.org/Graphics/SVG/1.1/DTD/svg11.dtd">
<!-- Generated by graphviz version 2.36.0 (20140111.2315)
 -->
<!-- Title: instructions.commands.SetTowards.execute Pages: 1 -->
<svg width="342pt" height="104pt"
 viewBox="0.00 0.00 342.00 104.00" xmlns="http://www.w3.org/2000/svg" xmlns:xlink="http://www.w3.org/1999/xlink">
<g id="graph0" class="graph" transform="scale(1 1) rotate(0) translate(4 100)">
<title>instructions.commands.SetTowards.execute</title>
<polygon fill="white" stroke="none" points="-4,4 -4,-100 338,-100 338,4 -4,4"/>
<!-- Node1 -->
<g id="node1" class="node"><title>Node1</title>
<polygon fill="#bfbfbf" stroke="black" points="0.5,-33 0.5,-63 149.5,-63 149.5,-33 0.5,-33"/>
<text text-anchor="start" x="8.5" y="-51" font-family="Helvetica,sans-Serif" font-size="10.00">instructions.commands.Set</text>
<text text-anchor="middle" x="75" y="-40" font-family="Helvetica,sans-Serif" font-size="10.00">Towards.execute</text>
</g>
<!-- Node2 -->
<g id="node2" class="node"><title>Node2</title>
<g id="a_node2"><a xlink:href="../../d6/d34/classmodel_1_1_turtle.html#a5f8771c6ae17c5a600aa98a5a1688817" target="_top" xlink:title="model.Turtle.calculateAngle">
<polygon fill="white" stroke="black" points="186,-76.5 186,-95.5 334,-95.5 334,-76.5 186,-76.5"/>
<text text-anchor="middle" x="260" y="-83.5" font-family="Helvetica,sans-Serif" font-size="10.00">model.Turtle.calculateAngle</text>
</a>
</g>
</g>
<!-- Node1&#45;&gt;Node2 -->
<g id="edge1" class="edge"><title>Node1&#45;&gt;Node2</title>
<path fill="none" stroke="midnightblue" d="M148.326,-63.0186C166.616,-66.8165 185.976,-70.8366 203.302,-74.4344"/>
<polygon fill="midnightblue" stroke="midnightblue" points="202.743,-77.8928 213.246,-76.4991 204.166,-71.039 202.743,-77.8928"/>
</g>
<!-- Node3 -->
<g id="node3" class="node"><title>Node3</title>
<g id="a_node3"><a xlink:href="../../d6/d34/classmodel_1_1_turtle.html#a61d79b71c878b0c64adeab038483da7a" target="_top" xlink:title="model.Turtle.getAngle">
<polygon fill="white" stroke="black" points="199.5,-38.5 199.5,-57.5 320.5,-57.5 320.5,-38.5 199.5,-38.5"/>
<text text-anchor="middle" x="260" y="-45.5" font-family="Helvetica,sans-Serif" font-size="10.00">model.Turtle.getAngle</text>
</a>
</g>
</g>
<!-- Node1&#45;&gt;Node3 -->
<g id="edge2" class="edge"><title>Node1&#45;&gt;Node3</title>
<path fill="none" stroke="midnightblue" d="M149.642,-48C162.651,-48 176.161,-48 189.065,-48"/>
<polygon fill="midnightblue" stroke="midnightblue" points="189.262,-51.5001 199.262,-48 189.262,-44.5001 189.262,-51.5001"/>
</g>
<!-- Node4 -->
<g id="node4" class="node"><title>Node4</title>
<g id="a_node4"><a xlink:href="../../d6/d34/classmodel_1_1_turtle.html#a561398015768e49764442dfa298f1bd3" target="_top" xlink:title="model.Turtle.setAngle">
<polygon fill="white" stroke="black" points="200,-0.5 200,-19.5 320,-19.5 320,-0.5 200,-0.5"/>
<text text-anchor="middle" x="260" y="-7.5" font-family="Helvetica,sans-Serif" font-size="10.00">model.Turtle.setAngle</text>
</a>
</g>
</g>
<!-- Node1&#45;&gt;Node4 -->
<g id="edge3" class="edge"><title>Node1&#45;&gt;Node4</title>
<path fill="none" stroke="midnightblue" d="M148.326,-32.9814C166.616,-29.1835 185.976,-25.1634 203.302,-21.5656"/>
<polygon fill="midnightblue" stroke="midnightblue" points="204.166,-24.961 213.246,-19.5009 202.743,-18.1072 204.166,-24.961"/>
</g>
</g>
</svg>
