<?xml version="1.0" encoding="UTF-8" standalone="no"?>
<!DOCTYPE svg PUBLIC "-//W3C//DTD SVG 1.1//EN"
 "http://www.w3.org/Graphics/SVG/1.1/DTD/svg11.dtd">
<!-- Generated by graphviz version 2.36.0 (20140111.2315)
 -->
<!-- Title: instructions.commands.MakeUserInstruction.execute Pages: 1 -->
<svg width="364pt" height="214pt"
 viewBox="0.00 0.00 364.00 214.00" xmlns="http://www.w3.org/2000/svg" xmlns:xlink="http://www.w3.org/1999/xlink">
<g id="graph0" class="graph" transform="scale(1 1) rotate(0) translate(4 210)">
<title>instructions.commands.MakeUserInstruction.execute</title>
<polygon fill="white" stroke="none" points="-4,4 -4,-210 360,-210 360,4 -4,4"/>
<!-- Node1 -->
<g id="node1" class="node"><title>Node1</title>
<polygon fill="#bfbfbf" stroke="black" points="0,-93 0,-123 158,-123 158,-93 0,-93"/>
<text text-anchor="start" x="8" y="-111" font-family="Helvetica,sans-Serif" font-size="10.00">instructions.commands.Make</text>
<text text-anchor="middle" x="79" y="-100" font-family="Helvetica,sans-Serif" font-size="10.00">UserInstruction.execute</text>
</g>
<!-- Node2 -->
<g id="node2" class="node"><title>Node2</title>
<g id="a_node2"><a xlink:href="../../d6/df7/classmodel_1_1_commands_list.html#a9012018f4dd03c70f94496cb8ec1d21b" target="_top" xlink:title="model.CommandsList.add">
<polygon fill="white" stroke="black" points="203.5,-186.5 203.5,-205.5 346.5,-205.5 346.5,-186.5 203.5,-186.5"/>
<text text-anchor="middle" x="275" y="-193.5" font-family="Helvetica,sans-Serif" font-size="10.00">model.CommandsList.add</text>
</a>
</g>
</g>
<!-- Node1&#45;&gt;Node2 -->
<g id="edge1" class="edge"><title>Node1&#45;&gt;Node2</title>
<path fill="none" stroke="midnightblue" d="M100.865,-123.011C123.005,-138.31 159.49,-161.758 194,-176 200.993,-178.886 208.508,-181.433 216.031,-183.657"/>
<polygon fill="midnightblue" stroke="midnightblue" points="215.311,-187.09 225.883,-186.398 217.187,-180.346 215.311,-187.09"/>
</g>
<!-- Node3 -->
<g id="node3" class="node"><title>Node3</title>
<g id="a_node3"><a xlink:href="../../d2/d36/classinstructions_1_1_user_defined_command.html#a90b27a849d24932746a665384660c83f" target="_top" xlink:title="instructions.UserDefined\lCommand.defineFunction">
<polygon fill="white" stroke="black" points="205.5,-137 205.5,-167 344.5,-167 344.5,-137 205.5,-137"/>
<text text-anchor="start" x="213.5" y="-155" font-family="Helvetica,sans-Serif" font-size="10.00">instructions.UserDefined</text>
<text text-anchor="middle" x="275" y="-144" font-family="Helvetica,sans-Serif" font-size="10.00">Command.defineFunction</text>
</a>
</g>
</g>
<!-- Node1&#45;&gt;Node3 -->
<g id="edge2" class="edge"><title>Node1&#45;&gt;Node3</title>
<path fill="none" stroke="midnightblue" d="M146.221,-123.019C162.829,-126.786 180.78,-130.857 197.83,-134.724"/>
<polygon fill="midnightblue" stroke="midnightblue" points="197.222,-138.175 207.748,-136.974 198.77,-131.349 197.222,-138.175"/>
</g>
<!-- Node4 -->
<g id="node4" class="node"><title>Node4</title>
<g id="a_node4"><a xlink:href="../../d6/df7/classmodel_1_1_commands_list.html#a3a5d7af953dff13e1e5138d6191c69cf" target="_top" xlink:title="model.CommandsList.get">
<polygon fill="white" stroke="black" points="205,-98.5 205,-117.5 345,-117.5 345,-98.5 205,-98.5"/>
<text text-anchor="middle" x="275" y="-105.5" font-family="Helvetica,sans-Serif" font-size="10.00">model.CommandsList.get</text>
</a>
</g>
</g>
<!-- Node1&#45;&gt;Node4 -->
<g id="edge3" class="edge"><title>Node1&#45;&gt;Node4</title>
<path fill="none" stroke="midnightblue" d="M158.069,-108C170.16,-108 182.66,-108 194.777,-108"/>
<polygon fill="midnightblue" stroke="midnightblue" points="194.848,-111.5 204.848,-108 194.848,-104.5 194.848,-111.5"/>
</g>
<!-- Node5 -->
<g id="node5" class="node"><title>Node5</title>
<g id="a_node5"><a xlink:href="../../dc/dc1/classinstructions_1_1_list_instruction.html#a6242d687504eb6c42cd3834b3ddbfbbe" target="_top" xlink:title="instructions.ListInstruction.get\lInstructionList">
<polygon fill="white" stroke="black" points="194.5,-49 194.5,-79 355.5,-79 355.5,-49 194.5,-49"/>
<text text-anchor="start" x="202.5" y="-67" font-family="Helvetica,sans-Serif" font-size="10.00">instructions.ListInstruction.get</text>
<text text-anchor="middle" x="275" y="-56" font-family="Helvetica,sans-Serif" font-size="10.00">InstructionList</text>
</a>
</g>
</g>
<!-- Node1&#45;&gt;Node5 -->
<g id="edge4" class="edge"><title>Node1&#45;&gt;Node5</title>
<path fill="none" stroke="midnightblue" d="M146.221,-92.9808C162.829,-89.214 180.78,-85.1426 197.83,-81.2756"/>
<polygon fill="midnightblue" stroke="midnightblue" points="198.77,-84.6515 207.748,-79.0262 197.222,-77.8248 198.77,-84.6515"/>
</g>
<!-- Node6 -->
<g id="node6" class="node"><title>Node6</title>
<g id="a_node6"><a xlink:href="../../df/dcf/classinstructions_1_1_user_defined_instruction.html#ac2a1915074b04c4ceacfac5ef461a44b" target="_top" xlink:title="instructions.UserDefined\lInstruction.getName">
<polygon fill="white" stroke="black" points="208,-0 208,-30 342,-30 342,-0 208,-0"/>
<text text-anchor="start" x="216" y="-18" font-family="Helvetica,sans-Serif" font-size="10.00">instructions.UserDefined</text>
<text text-anchor="middle" x="275" y="-7" font-family="Helvetica,sans-Serif" font-size="10.00">Instruction.getName</text>
</a>
</g>
</g>
<!-- Node1&#45;&gt;Node6 -->
<g id="edge5" class="edge"><title>Node1&#45;&gt;Node6</title>
<path fill="none" stroke="midnightblue" d="M101.869,-92.8324C124.222,-77.8479 160.338,-55.0472 194,-40 199.065,-37.7361 204.395,-35.592 209.8,-33.5822"/>
<polygon fill="midnightblue" stroke="midnightblue" points="211.316,-36.7582 219.567,-30.1129 208.973,-30.1619 211.316,-36.7582"/>
</g>
</g>
</svg>
