<?xml version="1.0" encoding="UTF-8" standalone="no"?>
<!DOCTYPE svg PUBLIC "-//W3C//DTD SVG 1.1//EN"
 "http://www.w3.org/Graphics/SVG/1.1/DTD/svg11.dtd">
<!-- Generated by graphviz version 2.36.0 (20140111.2315)
 -->
<!-- Title: instructions.commands.Stamp.execute Pages: 1 -->
<svg width="396pt" height="77pt"
 viewBox="0.00 0.00 396.00 77.00" xmlns="http://www.w3.org/2000/svg" xmlns:xlink="http://www.w3.org/1999/xlink">
<g id="graph0" class="graph" transform="scale(1 1) rotate(0) translate(4 73)">
<title>instructions.commands.Stamp.execute</title>
<polygon fill="white" stroke="none" points="-4,4 -4,-73 392,-73 392,4 -4,4"/>
<!-- Node1 -->
<g id="node1" class="node"><title>Node1</title>
<polygon fill="#bfbfbf" stroke="black" points="0,-22.5 0,-41.5 206,-41.5 206,-22.5 0,-22.5"/>
<text text-anchor="middle" x="103" y="-29.5" font-family="Helvetica,sans-Serif" font-size="10.00">instructions.commands.Stamp.execute</text>
</g>
<!-- Node2 -->
<g id="node2" class="node"><title>Node2</title>
<g id="a_node2"><a xlink:href="../../d8/d36/classmodel_1_1_observable_data.html#aa585e00721a74cba9ab459079945e15b" target="_top" xlink:title="model.ObservableData.get\lTurtle">
<polygon fill="white" stroke="black" points="242,-39 242,-69 388,-69 388,-39 242,-39"/>
<text text-anchor="start" x="250" y="-57" font-family="Helvetica,sans-Serif" font-size="10.00">model.ObservableData.get</text>
<text text-anchor="middle" x="315" y="-46" font-family="Helvetica,sans-Serif" font-size="10.00">Turtle</text>
</a>
</g>
</g>
<!-- Node1&#45;&gt;Node2 -->
<g id="edge1" class="edge"><title>Node1&#45;&gt;Node2</title>
<path fill="none" stroke="midnightblue" d="M194.888,-41.5216C207.185,-42.8099 219.745,-44.1257 231.878,-45.3967"/>
<polygon fill="midnightblue" stroke="midnightblue" points="231.642,-48.8911 241.953,-46.4522 232.372,-41.9292 231.642,-48.8911"/>
</g>
<!-- Node3 -->
<g id="node3" class="node"><title>Node3</title>
<g id="a_node3"><a xlink:href="../../d6/d34/classmodel_1_1_turtle.html#a61045246649a7f2fb67b0cd695e25e12" target="_top" xlink:title="model.Turtle.stampImage">
<polygon fill="white" stroke="black" points="245.5,-0.5 245.5,-19.5 384.5,-19.5 384.5,-0.5 245.5,-0.5"/>
<text text-anchor="middle" x="315" y="-7.5" font-family="Helvetica,sans-Serif" font-size="10.00">model.Turtle.stampImage</text>
</a>
</g>
</g>
<!-- Node1&#45;&gt;Node3 -->
<g id="edge2" class="edge"><title>Node1&#45;&gt;Node3</title>
<path fill="none" stroke="midnightblue" d="M194.888,-22.4784C208.403,-21.0626 222.235,-19.6134 235.468,-18.2272"/>
<polygon fill="midnightblue" stroke="midnightblue" points="235.874,-21.7039 245.455,-17.1809 235.145,-14.742 235.874,-21.7039"/>
</g>
</g>
</svg>
