<?xml version="1.0" encoding="UTF-8" standalone="no"?>
<!DOCTYPE svg PUBLIC "-//W3C//DTD SVG 1.1//EN"
 "http://www.w3.org/Graphics/SVG/1.1/DTD/svg11.dtd">
<!-- Generated by graphviz version 2.36.0 (20140111.2315)
 -->
<!-- Title: model.CommandsList Pages: 1 -->
<svg width="548pt" height="154pt"
 viewBox="0.00 0.00 548.00 154.00" xmlns="http://www.w3.org/2000/svg" xmlns:xlink="http://www.w3.org/1999/xlink">
<g id="graph0" class="graph" transform="scale(1 1) rotate(0) translate(4 150)">
<title>model.CommandsList</title>
<polygon fill="white" stroke="none" points="-4,4 -4,-150 544,-150 544,4 -4,4"/>
<!-- Node1 -->
<g id="node1" class="node"><title>Node1</title>
<polygon fill="#bfbfbf" stroke="black" points="418,-66.5 418,-85.5 540,-85.5 540,-66.5 418,-66.5"/>
<text text-anchor="middle" x="479" y="-73.5" font-family="Helvetica,sans-Serif" font-size="10.00">model.CommandsList</text>
</g>
<!-- Node2 -->
<g id="node2" class="node"><title>Node2</title>
<g id="a_node2"><a xlink:href="../../d1/d69/interfacemodel_1_1_feature.html" target="_top" xlink:title="model.Feature">
<polygon fill="white" stroke="black" points="138,-126.5 138,-145.5 224,-145.5 224,-126.5 138,-126.5"/>
<text text-anchor="middle" x="181" y="-133.5" font-family="Helvetica,sans-Serif" font-size="10.00">model.Feature</text>
</a>
</g>
</g>
<!-- Node2&#45;&gt;Node1 -->
<g id="edge1" class="edge"><title>Node2&#45;&gt;Node1</title>
<path fill="none" stroke="midnightblue" d="M234.374,-137.184C279.213,-136.849 345.044,-133.127 400,-117 423.928,-109.978 449.007,-95.2765 464.071,-85.5213"/>
<polygon fill="midnightblue" stroke="midnightblue" points="234.286,-133.684 224.293,-137.204 234.3,-140.684 234.286,-133.684"/>
</g>
<!-- Node3 -->
<g id="node3" class="node"><title>Node3</title>
<polygon fill="white" stroke="#bfbfbf" points="0.5,-126.5 0.5,-145.5 71.5,-145.5 71.5,-126.5 0.5,-126.5"/>
<text text-anchor="middle" x="36" y="-133.5" font-family="Helvetica,sans-Serif" font-size="10.00">Serializable</text>
</g>
<!-- Node3&#45;&gt;Node2 -->
<g id="edge2" class="edge"><title>Node3&#45;&gt;Node2</title>
<path fill="none" stroke="midnightblue" d="M81.8044,-136C99.689,-136 120.176,-136 137.793,-136"/>
<polygon fill="midnightblue" stroke="midnightblue" points="81.6163,-132.5 71.6163,-136 81.6163,-139.5 81.6163,-132.5"/>
</g>
<!-- Node4 -->
<g id="node4" class="node"><title>Node4</title>
<polygon fill="white" stroke="#bfbfbf" points="134.5,-88.5 134.5,-107.5 227.5,-107.5 227.5,-88.5 134.5,-88.5"/>
<text text-anchor="middle" x="181" y="-95.5" font-family="Helvetica,sans-Serif" font-size="10.00">ResourceBundle</text>
</g>
<!-- Node4&#45;&gt;Node1 -->
<g id="edge3" class="edge"><title>Node4&#45;&gt;Node1</title>
<path fill="none" stroke="#9a32cd" stroke-dasharray="5,2" d="M237.844,-93.8494C289.17,-90.0347 365.056,-84.3945 417.736,-80.4791"/>
<polygon fill="#9a32cd" stroke="#9a32cd" points="237.314,-90.3791 227.601,-94.6107 237.833,-97.3598 237.314,-90.3791"/>
<text text-anchor="middle" x="335" y="-105" font-family="Helvetica,sans-Serif" font-size="10.00"> commandsBundle</text>
<text text-anchor="middle" x="335" y="-94" font-family="Helvetica,sans-Serif" font-size="10.00">languageBundle</text>
</g>
<!-- Node5 -->
<g id="node5" class="node"><title>Node5</title>
<polygon fill="white" stroke="#bfbfbf" points="110.5,-39 110.5,-69 251.5,-69 251.5,-39 110.5,-39"/>
<text text-anchor="start" x="118.5" y="-57" font-family="Helvetica,sans-Serif" font-size="10.00">Map&lt; String, instructions.</text>
<text text-anchor="middle" x="181" y="-46" font-family="Helvetica,sans-Serif" font-size="10.00">UserDefinedCommand &gt;</text>
</g>
<!-- Node5&#45;&gt;Node1 -->
<g id="edge4" class="edge"><title>Node5&#45;&gt;Node1</title>
<path fill="none" stroke="#9a32cd" stroke-dasharray="5,2" d="M261.782,-57.6975C303.078,-59.8798 354.29,-63.003 400,-67 405.839,-67.5106 411.918,-68.1036 417.99,-68.7369"/>
<polygon fill="#9a32cd" stroke="#9a32cd" points="261.947,-54.2014 251.778,-57.177 261.583,-61.192 261.947,-54.2014"/>
<text text-anchor="middle" x="335" y="-70" font-family="Helvetica,sans-Serif" font-size="10.00"> userDefCommands</text>
</g>
<!-- Node6 -->
<g id="node6" class="node"><title>Node6</title>
<polygon fill="white" stroke="#bfbfbf" points="120,-0.5 120,-19.5 242,-19.5 242,-0.5 120,-0.5"/>
<text text-anchor="middle" x="181" y="-7.5" font-family="Helvetica,sans-Serif" font-size="10.00">Map&lt; String, String &gt;</text>
</g>
<!-- Node6&#45;&gt;Node1 -->
<g id="edge5" class="edge"><title>Node6&#45;&gt;Node1</title>
<path fill="none" stroke="#9a32cd" stroke-dasharray="5,2" d="M252.235,-10.3643C295.678,-12.3021 352.103,-17.9486 400,-33 424.341,-40.6488 449.707,-56.3009 464.666,-66.4621"/>
<polygon fill="#9a32cd" stroke="#9a32cd" points="252.177,-6.85948 242.048,-9.96685 251.904,-13.8542 252.177,-6.85948"/>
<text text-anchor="middle" x="335" y="-47" font-family="Helvetica,sans-Serif" font-size="10.00"> preDefCommandSyntaxes</text>
<text text-anchor="middle" x="335" y="-36" font-family="Helvetica,sans-Serif" font-size="10.00">preDefCommandTypes</text>
</g>
</g>
</svg>
