<?xml version="1.0" encoding="UTF-8" standalone="no"?>
<!DOCTYPE svg PUBLIC "-//W3C//DTD SVG 1.1//EN"
 "http://www.w3.org/Graphics/SVG/1.1/DTD/svg11.dtd">
<!-- Generated by graphviz version 2.36.0 (20140111.2315)
 -->
<!-- Title: model.History Pages: 1 -->
<svg width="378pt" height="154pt"
 viewBox="0.00 0.00 378.00 154.00" xmlns="http://www.w3.org/2000/svg" xmlns:xlink="http://www.w3.org/1999/xlink">
<g id="graph0" class="graph" transform="scale(1 1) rotate(0) translate(4 150)">
<title>model.History</title>
<polygon fill="white" stroke="none" points="-4,4 -4,-150 374,-150 374,4 -4,4"/>
<!-- Node1 -->
<g id="node1" class="node"><title>Node1</title>
<polygon fill="#bfbfbf" stroke="black" points="104.5,-0.5 104.5,-19.5 187.5,-19.5 187.5,-0.5 104.5,-0.5"/>
<text text-anchor="middle" x="146" y="-7.5" font-family="Helvetica,sans-Serif" font-size="10.00">model.History</text>
</g>
<!-- Node2 -->
<g id="node2" class="node"><title>Node2</title>
<g id="a_node2"><a xlink:href="../../d1/d69/interfacemodel_1_1_feature.html" target="_top" xlink:title="model.Feature">
<polygon fill="white" stroke="black" points="0,-68.5 0,-87.5 86,-87.5 86,-68.5 0,-68.5"/>
<text text-anchor="middle" x="43" y="-75.5" font-family="Helvetica,sans-Serif" font-size="10.00">model.Feature</text>
</a>
</g>
</g>
<!-- Node2&#45;&gt;Node1 -->
<g id="edge1" class="edge"><title>Node2&#45;&gt;Node1</title>
<path fill="none" stroke="midnightblue" d="M65.143,-62.8113C85.6259,-49.6863 115.411,-30.6004 132.531,-19.6305"/>
<polygon fill="midnightblue" stroke="midnightblue" points="62.9969,-60.0295 56.4655,-68.3717 66.7735,-65.9233 62.9969,-60.0295"/>
</g>
<!-- Node3 -->
<g id="node3" class="node"><title>Node3</title>
<polygon fill="white" stroke="#bfbfbf" points="7.5,-126.5 7.5,-145.5 78.5,-145.5 78.5,-126.5 7.5,-126.5"/>
<text text-anchor="middle" x="43" y="-133.5" font-family="Helvetica,sans-Serif" font-size="10.00">Serializable</text>
</g>
<!-- Node3&#45;&gt;Node2 -->
<g id="edge2" class="edge"><title>Node3&#45;&gt;Node2</title>
<path fill="none" stroke="midnightblue" d="M43,-115.953C43,-106.287 43,-95.0312 43,-87.5052"/>
<polygon fill="midnightblue" stroke="midnightblue" points="39.5001,-116.25 43,-126.25 46.5001,-116.25 39.5001,-116.25"/>
</g>
<!-- Node4 -->
<g id="node4" class="node"><title>Node4</title>
<polygon fill="white" stroke="#bfbfbf" points="104,-68.5 104,-87.5 188,-87.5 188,-68.5 104,-68.5"/>
<text text-anchor="middle" x="146" y="-75.5" font-family="Helvetica,sans-Serif" font-size="10.00">List&lt; String &gt;</text>
</g>
<!-- Node4&#45;&gt;Node1 -->
<g id="edge3" class="edge"><title>Node4&#45;&gt;Node1</title>
<path fill="none" stroke="#9a32cd" stroke-dasharray="5,2" d="M146,-58.0413C146,-45.4724 146,-29.5631 146,-19.8411"/>
<polygon fill="#9a32cd" stroke="#9a32cd" points="142.5,-58.3716 146,-68.3717 149.5,-58.3717 142.5,-58.3716"/>
<text text-anchor="middle" x="195.5" y="-41.5" font-family="Helvetica,sans-Serif" font-size="10.00"> myDisplayedHistory</text>
</g>
<!-- Node5 -->
<g id="node5" class="node"><title>Node5</title>
<polygon fill="white" stroke="#bfbfbf" points="206,-68.5 206,-87.5 370,-87.5 370,-68.5 206,-68.5"/>
<text text-anchor="middle" x="288" y="-75.5" font-family="Helvetica,sans-Serif" font-size="10.00">List&lt; instructions.Instruction &gt;</text>
</g>
<!-- Node5&#45;&gt;Node1 -->
<g id="edge4" class="edge"><title>Node5&#45;&gt;Node1</title>
<path fill="none" stroke="#9a32cd" stroke-dasharray="5,2" d="M274.933,-60.3126C268.001,-52.4917 258.881,-43.6691 249,-38 230.24,-27.2365 207.113,-20.6719 187.53,-16.7163"/>
<polygon fill="#9a32cd" stroke="#9a32cd" points="272.432,-62.7782 281.529,-68.2092 277.804,-58.2906 272.432,-62.7782"/>
<text text-anchor="middle" x="305" y="-41.5" font-family="Helvetica,sans-Serif" font-size="10.00"> mySavedHistory</text>
</g>
</g>
</svg>
