<?xml version="1.0" encoding="UTF-8" standalone="no"?>
<!DOCTYPE svg PUBLIC "-//W3C//DTD SVG 1.1//EN"
 "http://www.w3.org/Graphics/SVG/1.1/DTD/svg11.dtd">
<!-- Generated by graphviz version 2.36.0 (20140111.2315)
 -->
<!-- Title: parser.Parser.parseTokens Pages: 1 -->
<svg width="856pt" height="126pt"
 viewBox="0.00 0.00 856.00 126.00" xmlns="http://www.w3.org/2000/svg" xmlns:xlink="http://www.w3.org/1999/xlink">
<g id="graph0" class="graph" transform="scale(1 1) rotate(0) translate(4 122)">
<title>parser.Parser.parseTokens</title>
<polygon fill="white" stroke="none" points="-4,4 -4,-122 852,-122 852,4 -4,4"/>
<!-- Node1 -->
<g id="node1" class="node"><title>Node1</title>
<polygon fill="#bfbfbf" stroke="black" points="0.5,-22.5 0.5,-41.5 141.5,-41.5 141.5,-22.5 0.5,-22.5"/>
<text text-anchor="middle" x="71" y="-29.5" font-family="Helvetica,sans-Serif" font-size="10.00">parser.Parser.parseTokens</text>
</g>
<!-- Node2 -->
<g id="node2" class="node"><title>Node2</title>
<g id="a_node2"><a xlink:href="../../d6/d95/classparser_1_1_parser.html#aec8f2721f51a8a257b572c73d80d5d98" target="_top" xlink:title="parser.Parser.parse">
<polygon fill="white" stroke="black" points="178.5,-22.5 178.5,-41.5 287.5,-41.5 287.5,-22.5 178.5,-22.5"/>
<text text-anchor="middle" x="233" y="-29.5" font-family="Helvetica,sans-Serif" font-size="10.00">parser.Parser.parse</text>
</a>
</g>
</g>
<!-- Node1&#45;&gt;Node2 -->
<g id="edge1" class="edge"><title>Node1&#45;&gt;Node2</title>
<path fill="none" stroke="midnightblue" d="M151.848,-32C160.848,-32 169.85,-32 178.399,-32"/>
<polygon fill="midnightblue" stroke="midnightblue" points="151.713,-28.5001 141.713,-32 151.713,-35.5001 151.713,-28.5001"/>
</g>
<!-- Node3 -->
<g id="node3" class="node"><title>Node3</title>
<g id="a_node3"><a xlink:href="../../d3/d88/classmodel_1_1_slogo_model.html#ad096dbf0a253635d346a622540f472bd" target="_top" xlink:title="model.SlogoModel.parseAnd\lExecute">
<polygon fill="white" stroke="black" points="324,-39 324,-69 478,-69 478,-39 324,-39"/>
<text text-anchor="start" x="332" y="-57" font-family="Helvetica,sans-Serif" font-size="10.00">model.SlogoModel.parseAnd</text>
<text text-anchor="middle" x="401" y="-46" font-family="Helvetica,sans-Serif" font-size="10.00">Execute</text>
</a>
</g>
</g>
<!-- Node2&#45;&gt;Node3 -->
<g id="edge2" class="edge"><title>Node2&#45;&gt;Node3</title>
<path fill="none" stroke="midnightblue" d="M298.016,-40.4841C306.446,-41.6013 315.153,-42.7552 323.761,-43.896"/>
<polygon fill="midnightblue" stroke="midnightblue" points="298.269,-36.987 287.895,-39.1428 297.349,-43.9263 298.269,-36.987"/>
</g>
<!-- Node8 -->
<g id="node8" class="node"><title>Node8</title>
<g id="a_node8"><a xlink:href="../../d4/d90/classview_1_1_key_controls.html#a5139ba2a7cd205b996395f4f3e7f406c" target="_top" xlink:title="view.KeyControls.setKeyMap">
<polygon fill="white" stroke="black" points="326,-0.5 326,-19.5 476,-19.5 476,-0.5 326,-0.5"/>
<text text-anchor="middle" x="401" y="-7.5" font-family="Helvetica,sans-Serif" font-size="10.00">view.KeyControls.setKeyMap</text>
</a>
</g>
</g>
<!-- Node2&#45;&gt;Node8 -->
<g id="edge7" class="edge"><title>Node2&#45;&gt;Node8</title>
<path fill="none" stroke="midnightblue" d="M298.042,-23.5126C307.934,-22.2015 318.206,-20.8402 328.253,-19.5086"/>
<polygon fill="midnightblue" stroke="midnightblue" points="297.349,-20.0737 287.895,-24.8572 298.269,-27.013 297.349,-20.0737"/>
</g>
<!-- Node4 -->
<g id="node4" class="node"><title>Node4</title>
<g id="a_node4"><a xlink:href="../../d6/d0a/classview_1_1_input_view.html#a948930c9b825f34ef8f5def96910471b" target="_top" xlink:title="view.InputView.initSubmit\lButton">
<polygon fill="white" stroke="black" points="517,-88 517,-118 653,-118 653,-88 517,-88"/>
<text text-anchor="start" x="525" y="-106" font-family="Helvetica,sans-Serif" font-size="10.00">view.InputView.initSubmit</text>
<text text-anchor="middle" x="585" y="-95" font-family="Helvetica,sans-Serif" font-size="10.00">Button</text>
</a>
</g>
</g>
<!-- Node3&#45;&gt;Node4 -->
<g id="edge3" class="edge"><title>Node3&#45;&gt;Node4</title>
<path fill="none" stroke="midnightblue" d="M467.923,-71.7485C487.648,-77.0591 509.078,-82.8288 528.094,-87.9484"/>
<polygon fill="midnightblue" stroke="midnightblue" points="468.657,-68.3216 458.091,-69.1014 466.837,-75.0809 468.657,-68.3216"/>
</g>
<!-- Node6 -->
<g id="node6" class="node"><title>Node6</title>
<g id="a_node6"><a xlink:href="../../d4/d90/classview_1_1_key_controls.html#a0c3663cb62e91e8919b0296aad899a8f" target="_top" xlink:title="view.KeyControls.makeKey\lCommands">
<polygon fill="white" stroke="black" points="514,-39 514,-69 656,-69 656,-39 514,-39"/>
<text text-anchor="start" x="522" y="-57" font-family="Helvetica,sans-Serif" font-size="10.00">view.KeyControls.makeKey</text>
<text text-anchor="middle" x="585" y="-46" font-family="Helvetica,sans-Serif" font-size="10.00">Commands</text>
</a>
</g>
</g>
<!-- Node3&#45;&gt;Node6 -->
<g id="edge5" class="edge"><title>Node3&#45;&gt;Node6</title>
<path fill="none" stroke="midnightblue" d="M488.221,-54C496.855,-54 505.547,-54 513.984,-54"/>
<polygon fill="midnightblue" stroke="midnightblue" points="488.13,-50.5001 478.13,-54 488.13,-57.5001 488.13,-50.5001"/>
</g>
<!-- Node5 -->
<g id="node5" class="node"><title>Node5</title>
<g id="a_node5"><a xlink:href="../../d6/d0a/classview_1_1_input_view.html#ac75e6562ed83ace6cb0a0ac886780054" target="_top" xlink:title="view.InputView.InputView">
<polygon fill="white" stroke="black" points="703.5,-93.5 703.5,-112.5 836.5,-112.5 836.5,-93.5 703.5,-93.5"/>
<text text-anchor="middle" x="770" y="-100.5" font-family="Helvetica,sans-Serif" font-size="10.00">view.InputView.InputView</text>
</a>
</g>
</g>
<!-- Node4&#45;&gt;Node5 -->
<g id="edge4" class="edge"><title>Node4&#45;&gt;Node5</title>
<path fill="none" stroke="midnightblue" d="M663.232,-103C676.608,-103 690.402,-103 703.432,-103"/>
<polygon fill="midnightblue" stroke="midnightblue" points="663.103,-99.5001 653.103,-103 663.103,-106.5 663.103,-99.5001"/>
</g>
<!-- Node7 -->
<g id="node7" class="node"><title>Node7</title>
<g id="a_node7"><a xlink:href="../../d4/d90/classview_1_1_key_controls.html#a4b73546f8ba8feee9e878b3cf743fb61" target="_top" xlink:title="view.KeyControls.KeyControls">
<polygon fill="white" stroke="black" points="692.5,-22.5 692.5,-41.5 847.5,-41.5 847.5,-22.5 692.5,-22.5"/>
<text text-anchor="middle" x="770" y="-29.5" font-family="Helvetica,sans-Serif" font-size="10.00">view.KeyControls.KeyControls</text>
</a>
</g>
</g>
<!-- Node6&#45;&gt;Node7 -->
<g id="edge6" class="edge"><title>Node6&#45;&gt;Node7</title>
<path fill="none" stroke="midnightblue" d="M666.279,-44.3489C674.909,-43.3115 683.674,-42.2577 692.261,-41.2254"/>
<polygon fill="midnightblue" stroke="midnightblue" points="665.74,-40.8885 656.229,-45.5571 666.576,-47.8384 665.74,-40.8885"/>
</g>
<!-- Node8&#45;&gt;Node7 -->
<g id="edge8" class="edge"><title>Node8&#45;&gt;Node7</title>
<path fill="none" stroke="midnightblue" d="M486.425,-15.0609C548.491,-18.7815 632.154,-23.7967 692.316,-27.4031"/>
<polygon fill="midnightblue" stroke="midnightblue" points="486.459,-11.5568 476.268,-14.452 486.041,-18.5442 486.459,-11.5568"/>
</g>
</g>
</svg>
