<?xml version="1.0" encoding="UTF-8" standalone="no"?>
<!DOCTYPE svg PUBLIC "-//W3C//DTD SVG 1.1//EN"
 "http://www.w3.org/Graphics/SVG/1.1/DTD/svg11.dtd">
<!-- Generated by graphviz version 2.36.0 (20140111.2315)
 -->
<!-- Title: parser.Parser.findMatchingBracket Pages: 1 -->
<svg width="1036pt" height="126pt"
 viewBox="0.00 0.00 1036.00 126.00" xmlns="http://www.w3.org/2000/svg" xmlns:xlink="http://www.w3.org/1999/xlink">
<g id="graph0" class="graph" transform="scale(1 1) rotate(0) translate(4 122)">
<title>parser.Parser.findMatchingBracket</title>
<polygon fill="white" stroke="none" points="-4,4 -4,-122 1032,-122 1032,4 -4,4"/>
<!-- Node1 -->
<g id="node1" class="node"><title>Node1</title>
<polygon fill="#bfbfbf" stroke="black" points="0.5,-17 0.5,-47 143.5,-47 143.5,-17 0.5,-17"/>
<text text-anchor="start" x="8.5" y="-35" font-family="Helvetica,sans-Serif" font-size="10.00">parser.Parser.findMatching</text>
<text text-anchor="middle" x="72" y="-24" font-family="Helvetica,sans-Serif" font-size="10.00">Bracket</text>
</g>
<!-- Node2 -->
<g id="node2" class="node"><title>Node2</title>
<g id="a_node2"><a xlink:href="../../d6/d95/classparser_1_1_parser.html#a0b953b563fd9171ad113c168900ba0ad" target="_top" xlink:title="parser.Parser.parseTokens">
<polygon fill="white" stroke="black" points="180.5,-22.5 180.5,-41.5 321.5,-41.5 321.5,-22.5 180.5,-22.5"/>
<text text-anchor="middle" x="251" y="-29.5" font-family="Helvetica,sans-Serif" font-size="10.00">parser.Parser.parseTokens</text>
</a>
</g>
</g>
<!-- Node1&#45;&gt;Node2 -->
<g id="edge1" class="edge"><title>Node1&#45;&gt;Node2</title>
<path fill="none" stroke="midnightblue" d="M153.962,-32C162.744,-32 171.627,-32 180.26,-32"/>
<polygon fill="midnightblue" stroke="midnightblue" points="153.718,-28.5001 143.718,-32 153.718,-35.5001 153.718,-28.5001"/>
</g>
<!-- Node3 -->
<g id="node3" class="node"><title>Node3</title>
<g id="a_node3"><a xlink:href="../../d6/d95/classparser_1_1_parser.html#aec8f2721f51a8a257b572c73d80d5d98" target="_top" xlink:title="parser.Parser.parse">
<polygon fill="white" stroke="black" points="358.5,-22.5 358.5,-41.5 467.5,-41.5 467.5,-22.5 358.5,-22.5"/>
<text text-anchor="middle" x="413" y="-29.5" font-family="Helvetica,sans-Serif" font-size="10.00">parser.Parser.parse</text>
</a>
</g>
</g>
<!-- Node2&#45;&gt;Node3 -->
<g id="edge2" class="edge"><title>Node2&#45;&gt;Node3</title>
<path fill="none" stroke="midnightblue" d="M331.848,-32C340.848,-32 349.85,-32 358.399,-32"/>
<polygon fill="midnightblue" stroke="midnightblue" points="331.713,-28.5001 321.713,-32 331.713,-35.5001 331.713,-28.5001"/>
</g>
<!-- Node4 -->
<g id="node4" class="node"><title>Node4</title>
<g id="a_node4"><a xlink:href="../../d3/d88/classmodel_1_1_slogo_model.html#ad096dbf0a253635d346a622540f472bd" target="_top" xlink:title="model.SlogoModel.parseAnd\lExecute">
<polygon fill="white" stroke="black" points="504,-39 504,-69 658,-69 658,-39 504,-39"/>
<text text-anchor="start" x="512" y="-57" font-family="Helvetica,sans-Serif" font-size="10.00">model.SlogoModel.parseAnd</text>
<text text-anchor="middle" x="581" y="-46" font-family="Helvetica,sans-Serif" font-size="10.00">Execute</text>
</a>
</g>
</g>
<!-- Node3&#45;&gt;Node4 -->
<g id="edge3" class="edge"><title>Node3&#45;&gt;Node4</title>
<path fill="none" stroke="midnightblue" d="M478.016,-40.4841C486.446,-41.6013 495.153,-42.7552 503.761,-43.896"/>
<polygon fill="midnightblue" stroke="midnightblue" points="478.269,-36.987 467.895,-39.1428 477.349,-43.9263 478.269,-36.987"/>
</g>
<!-- Node9 -->
<g id="node9" class="node"><title>Node9</title>
<g id="a_node9"><a xlink:href="../../d4/d90/classview_1_1_key_controls.html#a5139ba2a7cd205b996395f4f3e7f406c" target="_top" xlink:title="view.KeyControls.setKeyMap">
<polygon fill="white" stroke="black" points="506,-0.5 506,-19.5 656,-19.5 656,-0.5 506,-0.5"/>
<text text-anchor="middle" x="581" y="-7.5" font-family="Helvetica,sans-Serif" font-size="10.00">view.KeyControls.setKeyMap</text>
</a>
</g>
</g>
<!-- Node3&#45;&gt;Node9 -->
<g id="edge8" class="edge"><title>Node3&#45;&gt;Node9</title>
<path fill="none" stroke="midnightblue" d="M478.042,-23.5126C487.934,-22.2015 498.206,-20.8402 508.253,-19.5086"/>
<polygon fill="midnightblue" stroke="midnightblue" points="477.349,-20.0737 467.895,-24.8572 478.269,-27.013 477.349,-20.0737"/>
</g>
<!-- Node5 -->
<g id="node5" class="node"><title>Node5</title>
<g id="a_node5"><a xlink:href="../../d6/d0a/classview_1_1_input_view.html#a948930c9b825f34ef8f5def96910471b" target="_top" xlink:title="view.InputView.initSubmit\lButton">
<polygon fill="white" stroke="black" points="697,-88 697,-118 833,-118 833,-88 697,-88"/>
<text text-anchor="start" x="705" y="-106" font-family="Helvetica,sans-Serif" font-size="10.00">view.InputView.initSubmit</text>
<text text-anchor="middle" x="765" y="-95" font-family="Helvetica,sans-Serif" font-size="10.00">Button</text>
</a>
</g>
</g>
<!-- Node4&#45;&gt;Node5 -->
<g id="edge4" class="edge"><title>Node4&#45;&gt;Node5</title>
<path fill="none" stroke="midnightblue" d="M647.923,-71.7485C667.648,-77.0591 689.078,-82.8288 708.094,-87.9484"/>
<polygon fill="midnightblue" stroke="midnightblue" points="648.657,-68.3216 638.091,-69.1014 646.837,-75.0809 648.657,-68.3216"/>
</g>
<!-- Node7 -->
<g id="node7" class="node"><title>Node7</title>
<g id="a_node7"><a xlink:href="../../d4/d90/classview_1_1_key_controls.html#a0c3663cb62e91e8919b0296aad899a8f" target="_top" xlink:title="view.KeyControls.makeKey\lCommands">
<polygon fill="white" stroke="black" points="694,-39 694,-69 836,-69 836,-39 694,-39"/>
<text text-anchor="start" x="702" y="-57" font-family="Helvetica,sans-Serif" font-size="10.00">view.KeyControls.makeKey</text>
<text text-anchor="middle" x="765" y="-46" font-family="Helvetica,sans-Serif" font-size="10.00">Commands</text>
</a>
</g>
</g>
<!-- Node4&#45;&gt;Node7 -->
<g id="edge6" class="edge"><title>Node4&#45;&gt;Node7</title>
<path fill="none" stroke="midnightblue" d="M668.221,-54C676.855,-54 685.547,-54 693.984,-54"/>
<polygon fill="midnightblue" stroke="midnightblue" points="668.13,-50.5001 658.13,-54 668.13,-57.5001 668.13,-50.5001"/>
</g>
<!-- Node6 -->
<g id="node6" class="node"><title>Node6</title>
<g id="a_node6"><a xlink:href="../../d6/d0a/classview_1_1_input_view.html#ac75e6562ed83ace6cb0a0ac886780054" target="_top" xlink:title="view.InputView.InputView">
<polygon fill="white" stroke="black" points="883.5,-93.5 883.5,-112.5 1016.5,-112.5 1016.5,-93.5 883.5,-93.5"/>
<text text-anchor="middle" x="950" y="-100.5" font-family="Helvetica,sans-Serif" font-size="10.00">view.InputView.InputView</text>
</a>
</g>
</g>
<!-- Node5&#45;&gt;Node6 -->
<g id="edge5" class="edge"><title>Node5&#45;&gt;Node6</title>
<path fill="none" stroke="midnightblue" d="M843.232,-103C856.608,-103 870.402,-103 883.432,-103"/>
<polygon fill="midnightblue" stroke="midnightblue" points="843.103,-99.5001 833.103,-103 843.103,-106.5 843.103,-99.5001"/>
</g>
<!-- Node8 -->
<g id="node8" class="node"><title>Node8</title>
<g id="a_node8"><a xlink:href="../../d4/d90/classview_1_1_key_controls.html#a4b73546f8ba8feee9e878b3cf743fb61" target="_top" xlink:title="view.KeyControls.KeyControls">
<polygon fill="white" stroke="black" points="872.5,-22.5 872.5,-41.5 1027.5,-41.5 1027.5,-22.5 872.5,-22.5"/>
<text text-anchor="middle" x="950" y="-29.5" font-family="Helvetica,sans-Serif" font-size="10.00">view.KeyControls.KeyControls</text>
</a>
</g>
</g>
<!-- Node7&#45;&gt;Node8 -->
<g id="edge7" class="edge"><title>Node7&#45;&gt;Node8</title>
<path fill="none" stroke="midnightblue" d="M846.279,-44.3489C854.909,-43.3115 863.674,-42.2577 872.261,-41.2254"/>
<polygon fill="midnightblue" stroke="midnightblue" points="845.74,-40.8885 836.229,-45.5571 846.576,-47.8384 845.74,-40.8885"/>
</g>
<!-- Node9&#45;&gt;Node8 -->
<g id="edge9" class="edge"><title>Node9&#45;&gt;Node8</title>
<path fill="none" stroke="midnightblue" d="M666.425,-15.0609C728.491,-18.7815 812.154,-23.7967 872.316,-27.4031"/>
<polygon fill="midnightblue" stroke="midnightblue" points="666.459,-11.5568 656.268,-14.452 666.041,-18.5442 666.459,-11.5568"/>
</g>
</g>
</svg>
