<?xml version="1.0" encoding="UTF-8" standalone="no"?>
<!DOCTYPE svg PUBLIC "-//W3C//DTD SVG 1.1//EN"
 "http://www.w3.org/Graphics/SVG/1.1/DTD/svg11.dtd">
<!-- Generated by graphviz version 2.36.0 (20140111.2315)
 -->
<!-- Title: parser.Parser.addParams Pages: 1 -->
<svg width="1028pt" height="126pt"
 viewBox="0.00 0.00 1028.00 126.00" xmlns="http://www.w3.org/2000/svg" xmlns:xlink="http://www.w3.org/1999/xlink">
<g id="graph0" class="graph" transform="scale(1 1) rotate(0) translate(4 122)">
<title>parser.Parser.addParams</title>
<polygon fill="white" stroke="none" points="-4,4 -4,-122 1024,-122 1024,4 -4,4"/>
<!-- Node1 -->
<g id="node1" class="node"><title>Node1</title>
<polygon fill="#bfbfbf" stroke="black" points="0,-22.5 0,-41.5 136,-41.5 136,-22.5 0,-22.5"/>
<text text-anchor="middle" x="68" y="-29.5" font-family="Helvetica,sans-Serif" font-size="10.00">parser.Parser.addParams</text>
</g>
<!-- Node2 -->
<g id="node2" class="node"><title>Node2</title>
<g id="a_node2"><a xlink:href="../../d6/d95/classparser_1_1_parser.html#a0b953b563fd9171ad113c168900ba0ad" target="_top" xlink:title="parser.Parser.parseTokens">
<polygon fill="white" stroke="black" points="172.5,-22.5 172.5,-41.5 313.5,-41.5 313.5,-22.5 172.5,-22.5"/>
<text text-anchor="middle" x="243" y="-29.5" font-family="Helvetica,sans-Serif" font-size="10.00">parser.Parser.parseTokens</text>
</a>
</g>
</g>
<!-- Node1&#45;&gt;Node2 -->
<g id="edge1" class="edge"><title>Node1&#45;&gt;Node2</title>
<path fill="none" stroke="midnightblue" d="M146.405,-32C155.009,-32 163.733,-32 172.234,-32"/>
<polygon fill="midnightblue" stroke="midnightblue" points="146.382,-28.5001 136.382,-32 146.382,-35.5001 146.382,-28.5001"/>
</g>
<!-- Node3 -->
<g id="node3" class="node"><title>Node3</title>
<g id="a_node3"><a xlink:href="../../d6/d95/classparser_1_1_parser.html#aec8f2721f51a8a257b572c73d80d5d98" target="_top" xlink:title="parser.Parser.parse">
<polygon fill="white" stroke="black" points="350.5,-22.5 350.5,-41.5 459.5,-41.5 459.5,-22.5 350.5,-22.5"/>
<text text-anchor="middle" x="405" y="-29.5" font-family="Helvetica,sans-Serif" font-size="10.00">parser.Parser.parse</text>
</a>
</g>
</g>
<!-- Node2&#45;&gt;Node3 -->
<g id="edge2" class="edge"><title>Node2&#45;&gt;Node3</title>
<path fill="none" stroke="midnightblue" d="M323.848,-32C332.848,-32 341.85,-32 350.399,-32"/>
<polygon fill="midnightblue" stroke="midnightblue" points="323.713,-28.5001 313.713,-32 323.713,-35.5001 323.713,-28.5001"/>
</g>
<!-- Node4 -->
<g id="node4" class="node"><title>Node4</title>
<g id="a_node4"><a xlink:href="../../d3/d88/classmodel_1_1_slogo_model.html#ad096dbf0a253635d346a622540f472bd" target="_top" xlink:title="model.SlogoModel.parseAnd\lExecute">
<polygon fill="white" stroke="black" points="496,-39 496,-69 650,-69 650,-39 496,-39"/>
<text text-anchor="start" x="504" y="-57" font-family="Helvetica,sans-Serif" font-size="10.00">model.SlogoModel.parseAnd</text>
<text text-anchor="middle" x="573" y="-46" font-family="Helvetica,sans-Serif" font-size="10.00">Execute</text>
</a>
</g>
</g>
<!-- Node3&#45;&gt;Node4 -->
<g id="edge3" class="edge"><title>Node3&#45;&gt;Node4</title>
<path fill="none" stroke="midnightblue" d="M470.016,-40.4841C478.446,-41.6013 487.153,-42.7552 495.761,-43.896"/>
<polygon fill="midnightblue" stroke="midnightblue" points="470.269,-36.987 459.895,-39.1428 469.349,-43.9263 470.269,-36.987"/>
</g>
<!-- Node9 -->
<g id="node9" class="node"><title>Node9</title>
<g id="a_node9"><a xlink:href="../../d4/d90/classview_1_1_key_controls.html#a5139ba2a7cd205b996395f4f3e7f406c" target="_top" xlink:title="view.KeyControls.setKeyMap">
<polygon fill="white" stroke="black" points="498,-0.5 498,-19.5 648,-19.5 648,-0.5 498,-0.5"/>
<text text-anchor="middle" x="573" y="-7.5" font-family="Helvetica,sans-Serif" font-size="10.00">view.KeyControls.setKeyMap</text>
</a>
</g>
</g>
<!-- Node3&#45;&gt;Node9 -->
<g id="edge8" class="edge"><title>Node3&#45;&gt;Node9</title>
<path fill="none" stroke="midnightblue" d="M470.042,-23.5126C479.934,-22.2015 490.206,-20.8402 500.253,-19.5086"/>
<polygon fill="midnightblue" stroke="midnightblue" points="469.349,-20.0737 459.895,-24.8572 470.269,-27.013 469.349,-20.0737"/>
</g>
<!-- Node5 -->
<g id="node5" class="node"><title>Node5</title>
<g id="a_node5"><a xlink:href="../../d6/d0a/classview_1_1_input_view.html#a948930c9b825f34ef8f5def96910471b" target="_top" xlink:title="view.InputView.initSubmit\lButton">
<polygon fill="white" stroke="black" points="689,-88 689,-118 825,-118 825,-88 689,-88"/>
<text text-anchor="start" x="697" y="-106" font-family="Helvetica,sans-Serif" font-size="10.00">view.InputView.initSubmit</text>
<text text-anchor="middle" x="757" y="-95" font-family="Helvetica,sans-Serif" font-size="10.00">Button</text>
</a>
</g>
</g>
<!-- Node4&#45;&gt;Node5 -->
<g id="edge4" class="edge"><title>Node4&#45;&gt;Node5</title>
<path fill="none" stroke="midnightblue" d="M639.923,-71.7485C659.648,-77.0591 681.078,-82.8288 700.094,-87.9484"/>
<polygon fill="midnightblue" stroke="midnightblue" points="640.657,-68.3216 630.091,-69.1014 638.837,-75.0809 640.657,-68.3216"/>
</g>
<!-- Node7 -->
<g id="node7" class="node"><title>Node7</title>
<g id="a_node7"><a xlink:href="../../d4/d90/classview_1_1_key_controls.html#a0c3663cb62e91e8919b0296aad899a8f" target="_top" xlink:title="view.KeyControls.makeKey\lCommands">
<polygon fill="white" stroke="black" points="686,-39 686,-69 828,-69 828,-39 686,-39"/>
<text text-anchor="start" x="694" y="-57" font-family="Helvetica,sans-Serif" font-size="10.00">view.KeyControls.makeKey</text>
<text text-anchor="middle" x="757" y="-46" font-family="Helvetica,sans-Serif" font-size="10.00">Commands</text>
</a>
</g>
</g>
<!-- Node4&#45;&gt;Node7 -->
<g id="edge6" class="edge"><title>Node4&#45;&gt;Node7</title>
<path fill="none" stroke="midnightblue" d="M660.221,-54C668.855,-54 677.547,-54 685.984,-54"/>
<polygon fill="midnightblue" stroke="midnightblue" points="660.13,-50.5001 650.13,-54 660.13,-57.5001 660.13,-50.5001"/>
</g>
<!-- Node6 -->
<g id="node6" class="node"><title>Node6</title>
<g id="a_node6"><a xlink:href="../../d6/d0a/classview_1_1_input_view.html#ac75e6562ed83ace6cb0a0ac886780054" target="_top" xlink:title="view.InputView.InputView">
<polygon fill="white" stroke="black" points="875.5,-93.5 875.5,-112.5 1008.5,-112.5 1008.5,-93.5 875.5,-93.5"/>
<text text-anchor="middle" x="942" y="-100.5" font-family="Helvetica,sans-Serif" font-size="10.00">view.InputView.InputView</text>
</a>
</g>
</g>
<!-- Node5&#45;&gt;Node6 -->
<g id="edge5" class="edge"><title>Node5&#45;&gt;Node6</title>
<path fill="none" stroke="midnightblue" d="M835.232,-103C848.608,-103 862.402,-103 875.432,-103"/>
<polygon fill="midnightblue" stroke="midnightblue" points="835.103,-99.5001 825.103,-103 835.103,-106.5 835.103,-99.5001"/>
</g>
<!-- Node8 -->
<g id="node8" class="node"><title>Node8</title>
<g id="a_node8"><a xlink:href="../../d4/d90/classview_1_1_key_controls.html#a4b73546f8ba8feee9e878b3cf743fb61" target="_top" xlink:title="view.KeyControls.KeyControls">
<polygon fill="white" stroke="black" points="864.5,-22.5 864.5,-41.5 1019.5,-41.5 1019.5,-22.5 864.5,-22.5"/>
<text text-anchor="middle" x="942" y="-29.5" font-family="Helvetica,sans-Serif" font-size="10.00">view.KeyControls.KeyControls</text>
</a>
</g>
</g>
<!-- Node7&#45;&gt;Node8 -->
<g id="edge7" class="edge"><title>Node7&#45;&gt;Node8</title>
<path fill="none" stroke="midnightblue" d="M838.279,-44.3489C846.909,-43.3115 855.674,-42.2577 864.261,-41.2254"/>
<polygon fill="midnightblue" stroke="midnightblue" points="837.74,-40.8885 828.229,-45.5571 838.576,-47.8384 837.74,-40.8885"/>
</g>
<!-- Node9&#45;&gt;Node8 -->
<g id="edge9" class="edge"><title>Node9&#45;&gt;Node8</title>
<path fill="none" stroke="midnightblue" d="M658.425,-15.0609C720.491,-18.7815 804.154,-23.7967 864.316,-27.4031"/>
<polygon fill="midnightblue" stroke="midnightblue" points="658.459,-11.5568 648.268,-14.452 658.041,-18.5442 658.459,-11.5568"/>
</g>
</g>
</svg>
