<?xml version="1.0" encoding="UTF-8" standalone="no"?>
<!DOCTYPE svg PUBLIC "-//W3C//DTD SVG 1.1//EN"
 "http://www.w3.org/Graphics/SVG/1.1/DTD/svg11.dtd">
<!-- Generated by graphviz version 2.36.0 (20140111.2315)
 -->
<!-- Title: parser.Parser.parse Pages: 1 -->
<!--zoomable 162 -->
<svg id="main" version="1.1" xmlns="http://www.w3.org/2000/svg" xmlns:xlink="http://www.w3.org/1999/xlink" xml:space="preserve" onload="init(evt)">
<style type="text/css"><![CDATA[
.edge:hover path { stroke: red; }
.edge:hover polygon { stroke: red; fill: red; }
]]></style>
<script type="text/javascript"><![CDATA[
var edges = document.getElementsByTagName('g');
if (edges && edges.length) {
  for (var i=0;i<edges.length;i++) {
    if (edges[i].id.substr(0,4)=='edge') {
      edges[i].setAttribute('class','edge');
    }
  }
}
]]></script>
        <defs>
                <circle id="rim" cx="0" cy="0" r="7"/>
                <circle id="rim2" cx="0" cy="0" r="3.5"/>
                <g id="zoomPlus">
                        <use xlink:href="#rim" fill="#404040">
                                <set attributeName="fill" to="#808080" begin="zoomplus.mouseover" end="zoomplus.mouseout"/>
                        </use>
                        <path d="M-4,0h8M0,-4v8" fill="none" stroke="white" stroke-width="1.5" pointer-events="none"/>
                </g>
                <g id="zoomMin">
                        <use xlink:href="#rim" fill="#404040">
                                <set attributeName="fill" to="#808080" begin="zoomminus.mouseover" end="zoomminus.mouseout"/>
                        </use>
                        <path d="M-4,0h8" fill="none" stroke="white" stroke-width="1.5" pointer-events="none"/>
                </g>
                <g id="dirArrow">
                        <path fill="none" stroke="white" stroke-width="1.5" d="M0,-3.0v7 M-2.5,-0.5L0,-3.0L2.5,-0.5"/>
                </g>
               <g id="resetDef">
                       <use xlink:href="#rim2" fill="#404040">
                               <set attributeName="fill" to="#808080" begin="reset.mouseover" end="reset.mouseout"/>
                       </use>
               </g>
        </defs>

<script type="text/javascript">
var viewWidth = 682;
var viewHeight = 162;
var sectionId = 'dynsection-7';
</script>
<script xlink:href="../../svgpan.js"/>
<svg id="graph" class="graph">
<g id="viewport">
<title>parser.Parser.parse</title>
<polygon fill="white" stroke="none" points="-4,4 -4,-158 678,-158 678,4 -4,4"/>
<!-- Node1 -->
<g id="node1" class="node"><title>Node1</title>
<polygon fill="#bfbfbf" stroke="black" points="0.5,-49.5 0.5,-68.5 109.5,-68.5 109.5,-49.5 0.5,-49.5"/>
<text text-anchor="middle" x="55" y="-56.5" font-family="Helvetica,sans-Serif" font-size="10.00">parser.Parser.parse</text>
</g>
<!-- Node2 -->
<g id="node2" class="node"><title>Node2</title>
<g id="a_node2"><a xlink:href="../../d6/d95/classparser_1_1_parser.html#a0b953b563fd9171ad113c168900ba0ad" target="_top" xlink:title="parser.Parser.parseTokens">
<polygon fill="white" stroke="black" points="146.5,-68.5 146.5,-87.5 287.5,-87.5 287.5,-68.5 146.5,-68.5"/>
<text text-anchor="middle" x="217" y="-75.5" font-family="Helvetica,sans-Serif" font-size="10.00">parser.Parser.parseTokens</text>
</a>
</g>
</g>
<!-- Node1&#45;&gt;Node2 -->
<g id="edge1" class="edge"><title>Node1&#45;&gt;Node2</title>
<path fill="none" stroke="midnightblue" d="M109.723,-65.3796C118.232,-66.39 127.187,-67.4534 136.14,-68.5166"/>
<polygon fill="midnightblue" stroke="midnightblue" points="135.88,-72.0102 146.223,-69.7139 136.705,-65.0591 135.88,-72.0102"/>
</g>
<!-- Node10 -->
<g id="node10" class="node"><title>Node10</title>
<g id="a_node10"><a xlink:href="../../de/d6b/classparser_1_1_tokenizer.html#ab347b4e57c1c6a0e09467b548025c2e8" target="_top" xlink:title="parser.Tokenizer.tokenize">
<polygon fill="white" stroke="black" points="148.5,-30.5 148.5,-49.5 285.5,-49.5 285.5,-30.5 148.5,-30.5"/>
<text text-anchor="middle" x="217" y="-37.5" font-family="Helvetica,sans-Serif" font-size="10.00">parser.Tokenizer.tokenize</text>
</a>
</g>
</g>
<!-- Node1&#45;&gt;Node10 -->
<g id="edge10" class="edge"><title>Node1&#45;&gt;Node10</title>
<path fill="none" stroke="midnightblue" d="M109.723,-52.6204C118.954,-51.5242 128.71,-50.3657 138.418,-49.2128"/>
<polygon fill="midnightblue" stroke="midnightblue" points="138.977,-52.6712 148.494,-48.0163 138.151,-45.72 138.977,-52.6712"/>
</g>
<!-- Node3 -->
<g id="node3" class="node"><title>Node3</title>
<g id="a_node3"><a xlink:href="../../d6/d95/classparser_1_1_parser.html#ac2278cd512ecf95e7dbe39f1e381cef7" target="_top" xlink:title="parser.Parser.isRightBracket">
<polygon fill="white" stroke="black" points="524,-134.5 524,-153.5 674,-153.5 674,-134.5 524,-134.5"/>
<text text-anchor="middle" x="599" y="-141.5" font-family="Helvetica,sans-Serif" font-size="10.00">parser.Parser.isRightBracket</text>
</a>
</g>
</g>
<!-- Node2&#45;&gt;Node3 -->
<g id="edge2" class="edge"><title>Node2&#45;&gt;Node3</title>
<path fill="none" stroke="midnightblue" d="M233.828,-87.6056C253.963,-99.2748 290.191,-118.458 324,-127 386.315,-142.745 459.013,-146.619 513.861,-146.76"/>
<polygon fill="midnightblue" stroke="midnightblue" points="513.894,-150.26 523.888,-146.745 513.883,-143.26 513.894,-150.26"/>
</g>
<!-- Node4 -->
<g id="node4" class="node"><title>Node4</title>
<g id="a_node4"><a xlink:href="../../d6/d95/classparser_1_1_parser.html#a4f0036d9216912f383261d0482cbb1b1" target="_top" xlink:title="parser.Parser.findMatching\lBracket">
<polygon fill="white" stroke="black" points="334.5,-88 334.5,-118 477.5,-118 477.5,-88 334.5,-88"/>
<text text-anchor="start" x="342.5" y="-106" font-family="Helvetica,sans-Serif" font-size="10.00">parser.Parser.findMatching</text>
<text text-anchor="middle" x="406" y="-95" font-family="Helvetica,sans-Serif" font-size="10.00">Bracket</text>
</a>
</g>
</g>
<!-- Node2&#45;&gt;Node4 -->
<g id="edge3" class="edge"><title>Node2&#45;&gt;Node4</title>
<path fill="none" stroke="midnightblue" d="M287.632,-87.3091C299.557,-88.9034 312.038,-90.5719 324.225,-92.2012"/>
<polygon fill="midnightblue" stroke="midnightblue" points="323.998,-95.702 334.374,-93.558 324.926,-88.7637 323.998,-95.702"/>
</g>
<!-- Node6 -->
<g id="node6" class="node"><title>Node6</title>
<g id="a_node6"><a xlink:href="../../d3/d96/classparser_1_1_instruction_factory.html#a4b06d4f5f8e173824966dd0ec1e00255" target="_top" xlink:title="parser.InstructionFactory.make\lInstruction">
<polygon fill="white" stroke="black" points="324.5,-39 324.5,-69 487.5,-69 487.5,-39 324.5,-39"/>
<text text-anchor="start" x="332.5" y="-57" font-family="Helvetica,sans-Serif" font-size="10.00">parser.InstructionFactory.make</text>
<text text-anchor="middle" x="406" y="-46" font-family="Helvetica,sans-Serif" font-size="10.00">Instruction</text>
</a>
</g>
</g>
<!-- Node2&#45;&gt;Node6 -->
<g id="edge6" class="edge"><title>Node2&#45;&gt;Node6</title>
<path fill="none" stroke="midnightblue" d="M287.632,-69.0633C296.308,-67.9497 305.279,-66.7985 314.216,-65.6514"/>
<polygon fill="midnightblue" stroke="midnightblue" points="314.802,-69.1051 324.275,-64.3605 313.91,-62.162 314.802,-69.1051"/>
</g>
<!-- Node9 -->
<g id="node9" class="node"><title>Node9</title>
<g id="a_node9"><a xlink:href="../../d6/d95/classparser_1_1_parser.html#a45262e7dc7f355abdb9df8fa3630c86f" target="_top" xlink:title="parser.Parser.addParams">
<polygon fill="white" stroke="black" points="338,-0.5 338,-19.5 474,-19.5 474,-0.5 338,-0.5"/>
<text text-anchor="middle" x="406" y="-7.5" font-family="Helvetica,sans-Serif" font-size="10.00">parser.Parser.addParams</text>
</a>
</g>
</g>
<!-- Node2&#45;&gt;Node9 -->
<g id="edge9" class="edge"><title>Node2&#45;&gt;Node9</title>
<path fill="none" stroke="midnightblue" d="M263.835,-68.4905C272.107,-65.9609 280.484,-62.8329 288,-59 306.303,-49.6662 305.591,-39.123 324,-30 329.707,-27.172 335.842,-24.7255 342.091,-22.6128"/>
<polygon fill="midnightblue" stroke="midnightblue" points="343.44,-25.8593 351.959,-19.5608 341.372,-19.1719 343.44,-25.8593"/>
</g>
<!-- Node4&#45;&gt;Node3 -->
<g id="edge5" class="edge"><title>Node4&#45;&gt;Node3</title>
<path fill="none" stroke="midnightblue" d="M477.037,-118.034C498.996,-122.748 522.892,-127.877 543.602,-132.323"/>
<polygon fill="midnightblue" stroke="midnightblue" points="542.978,-135.769 553.49,-134.446 544.447,-128.925 542.978,-135.769"/>
</g>
<!-- Node5 -->
<g id="node5" class="node"><title>Node5</title>
<g id="a_node5"><a xlink:href="../../d6/d95/classparser_1_1_parser.html#abe383fbf6f2944c67226ac2432c548b2" target="_top" xlink:title="parser.Parser.isLeftBracket">
<polygon fill="white" stroke="black" points="527,-93.5 527,-112.5 671,-112.5 671,-93.5 527,-93.5"/>
<text text-anchor="middle" x="599" y="-100.5" font-family="Helvetica,sans-Serif" font-size="10.00">parser.Parser.isLeftBracket</text>
</a>
</g>
</g>
<!-- Node4&#45;&gt;Node5 -->
<g id="edge4" class="edge"><title>Node4&#45;&gt;Node5</title>
<path fill="none" stroke="midnightblue" d="M477.579,-103C490.24,-103 503.53,-103 516.47,-103"/>
<polygon fill="midnightblue" stroke="midnightblue" points="516.755,-106.5 526.755,-103 516.755,-99.5001 516.755,-106.5"/>
</g>
<!-- Node7 -->
<g id="node7" class="node"><title>Node7</title>
<g id="a_node7"><a xlink:href="../../d8/d36/classmodel_1_1_observable_data.html#aa526df8e1adab74d19f2d89071560dcb" target="_top" xlink:title="model.ObservableData.get">
<polygon fill="white" stroke="black" points="526,-49.5 526,-68.5 672,-68.5 672,-49.5 526,-49.5"/>
<text text-anchor="middle" x="599" y="-56.5" font-family="Helvetica,sans-Serif" font-size="10.00">model.ObservableData.get</text>
</a>
</g>
</g>
<!-- Node6&#45;&gt;Node7 -->
<g id="edge7" class="edge"><title>Node6&#45;&gt;Node7</title>
<path fill="none" stroke="midnightblue" d="M487.724,-56.1132C496.996,-56.3559 506.457,-56.6036 515.749,-56.8468"/>
<polygon fill="midnightblue" stroke="midnightblue" points="515.658,-60.3456 525.746,-57.1085 515.841,-53.348 515.658,-60.3456"/>
</g>
<!-- Node8 -->
<g id="node8" class="node"><title>Node8</title>
<g id="a_node8"><a xlink:href="../../d6/df7/classmodel_1_1_commands_list.html#a3a5d7af953dff13e1e5138d6191c69cf" target="_top" xlink:title="model.CommandsList.get">
<polygon fill="white" stroke="black" points="529,-11.5 529,-30.5 669,-30.5 669,-11.5 529,-11.5"/>
<text text-anchor="middle" x="599" y="-18.5" font-family="Helvetica,sans-Serif" font-size="10.00">model.CommandsList.get</text>
</a>
</g>
</g>
<!-- Node6&#45;&gt;Node8 -->
<g id="edge8" class="edge"><title>Node6&#45;&gt;Node8</title>
<path fill="none" stroke="midnightblue" d="M487.724,-40.0529C502.863,-37.4373 518.509,-34.7341 533.091,-32.2147"/>
<polygon fill="midnightblue" stroke="midnightblue" points="533.739,-35.6547 542.997,-30.5032 532.547,-28.7569 533.739,-35.6547"/>
</g>
</g>
</svg>
        <g id="navigator" transform="translate(0 0)" fill="#404254">
                <rect fill="#f2f5e9" fill-opacity="0.5" stroke="#606060" stroke-width=".5" x="0" y="0" width="60" height="60"/>
                <use id="zoomplus" xlink:href="#zoomPlus" x="17" y="9" onmousedown="handleZoom(evt,'in')"/>
                <use id="zoomminus" xlink:href="#zoomMin" x="42" y="9" onmousedown="handleZoom(evt,'out')"/>
                <use id="reset" xlink:href="#resetDef" x="30" y="36" onmousedown="handleReset()"/>
                <g id="arrowUp" xlink:href="#dirArrow" transform="translate(30 24)" onmousedown="handlePan(0,-1)">
                  <use xlink:href="#rim" fill="#404040">
                        <set attributeName="fill" to="#808080" begin="arrowUp.mouseover" end="arrowUp.mouseout"/>
                  </use>
                  <path fill="none" stroke="white" stroke-width="1.5" d="M0,-3.0v7 M-2.5,-0.5L0,-3.0L2.5,-0.5"/>
                </g>
                <g id="arrowRight" xlink:href="#dirArrow" transform="rotate(90) translate(36 -43)" onmousedown="handlePan(1,0)">
                  <use xlink:href="#rim" fill="#404040">
                        <set attributeName="fill" to="#808080" begin="arrowRight.mouseover" end="arrowRight.mouseout"/>
                  </use>
                  <path fill="none" stroke="white" stroke-width="1.5" d="M0,-3.0v7 M-2.5,-0.5L0,-3.0L2.5,-0.5"/>
                </g>
                <g id="arrowDown" xlink:href="#dirArrow" transform="rotate(180) translate(-30 -48)" onmousedown="handlePan(0,1)">
                  <use xlink:href="#rim" fill="#404040">
                        <set attributeName="fill" to="#808080" begin="arrowDown.mouseover" end="arrowDown.mouseout"/>
                  </use>
                  <path fill="none" stroke="white" stroke-width="1.5" d="M0,-3.0v7 M-2.5,-0.5L0,-3.0L2.5,-0.5"/>
                </g>
                <g id="arrowLeft" xlink:href="#dirArrow" transform="rotate(270) translate(-36 17)" onmousedown="handlePan(-1,0)">
                  <use xlink:href="#rim" fill="#404040">
                        <set attributeName="fill" to="#808080" begin="arrowLeft.mouseover" end="arrowLeft.mouseout"/>
                  </use>
                  <path fill="none" stroke="white" stroke-width="1.5" d="M0,-3.0v7 M-2.5,-0.5L0,-3.0L2.5,-0.5"/>
                </g>
        </g>
        <svg viewBox="0 0 15 15" width="100%" height="30px" preserveAspectRatio="xMaxYMin meet">
         <g id="arrow_out" transform="scale(0.3 0.3)">
          <a xlink:href="classparser_1_1_parser_aec8f2721f51a8a257b572c73d80d5d98_cgraph_org.svg" target="_base">
           <rect id="button" ry="5" rx="5" y="6" x="6" height="38" width="38"
                fill="#f2f5e9" fill-opacity="0.5" stroke="#606060" stroke-width="1.0"/>
           <path id="arrow"
             d="M 11.500037,31.436501 C 11.940474,20.09759 22.043105,11.32322 32.158766,21.979434 L 37.068811,17.246167 C 37.068811,17.246167 37.088388,32 37.088388,32 L 22.160133,31.978069 C 22.160133,31.978069 26.997745,27.140456 26.997745,27.140456 C 18.528582,18.264221 13.291696,25.230495 11.500037,31.436501 z"
             style="fill:#404040;"/>
          </a>
         </g>
        </svg>
</svg>
