<?xml version="1.0" encoding="UTF-8" standalone="no"?>
<!DOCTYPE svg PUBLIC "-//W3C//DTD SVG 1.1//EN"
 "http://www.w3.org/Graphics/SVG/1.1/DTD/svg11.dtd">
<!-- Generated by graphviz version 2.36.0 (20140111.2315)
 -->
<!-- Title: parser.Parser.parseTokens Pages: 1 -->
<svg width="536pt" height="195pt"
 viewBox="0.00 0.00 536.00 195.00" xmlns="http://www.w3.org/2000/svg" xmlns:xlink="http://www.w3.org/1999/xlink">
<g id="graph0" class="graph" transform="scale(1 1) rotate(0) translate(4 191)">
<title>parser.Parser.parseTokens</title>
<polygon fill="white" stroke="none" points="-4,4 -4,-191 532,-191 532,4 -4,4"/>
<!-- Node1 -->
<g id="node1" class="node"><title>Node1</title>
<polygon fill="#bfbfbf" stroke="black" points="0.5,-101.5 0.5,-120.5 141.5,-120.5 141.5,-101.5 0.5,-101.5"/>
<text text-anchor="middle" x="71" y="-108.5" font-family="Helvetica,sans-Serif" font-size="10.00">parser.Parser.parseTokens</text>
</g>
<!-- Node2 -->
<g id="node2" class="node"><title>Node2</title>
<g id="a_node2"><a xlink:href="../../d6/d95/classparser_1_1_parser.html#a45262e7dc7f355abdb9df8fa3630c86f" target="_top" xlink:title="parser.Parser.addParams">
<polygon fill="white" stroke="black" points="192,-167.5 192,-186.5 328,-186.5 328,-167.5 192,-167.5"/>
<text text-anchor="middle" x="260" y="-174.5" font-family="Helvetica,sans-Serif" font-size="10.00">parser.Parser.addParams</text>
</a>
</g>
</g>
<!-- Node1&#45;&gt;Node2 -->
<g id="edge1" class="edge"><title>Node1&#45;&gt;Node2</title>
<path fill="none" stroke="midnightblue" d="M91.5381,-120.658C112.518,-130.748 147.02,-146.535 178,-157 186.475,-159.863 195.575,-162.508 204.505,-164.875"/>
<polygon fill="midnightblue" stroke="midnightblue" points="203.918,-168.337 214.473,-167.425 205.653,-161.555 203.918,-168.337"/>
</g>
<!-- Node3 -->
<g id="node3" class="node"><title>Node3</title>
<g id="a_node3"><a xlink:href="../../d6/d95/classparser_1_1_parser.html#a4f0036d9216912f383261d0482cbb1b1" target="_top" xlink:title="parser.Parser.findMatching\lBracket">
<polygon fill="white" stroke="black" points="188.5,-118 188.5,-148 331.5,-148 331.5,-118 188.5,-118"/>
<text text-anchor="start" x="196.5" y="-136" font-family="Helvetica,sans-Serif" font-size="10.00">parser.Parser.findMatching</text>
<text text-anchor="middle" x="260" y="-125" font-family="Helvetica,sans-Serif" font-size="10.00">Bracket</text>
</a>
</g>
</g>
<!-- Node1&#45;&gt;Node3 -->
<g id="edge2" class="edge"><title>Node1&#45;&gt;Node3</title>
<path fill="none" stroke="midnightblue" d="M141.632,-119.192C153.557,-120.595 166.038,-122.063 178.225,-123.497"/>
<polygon fill="midnightblue" stroke="midnightblue" points="178.034,-126.999 188.374,-124.691 178.852,-120.047 178.034,-126.999"/>
</g>
<!-- Node5 -->
<g id="node5" class="node"><title>Node5</title>
<g id="a_node5"><a xlink:href="../../d6/d95/classparser_1_1_parser.html#ac2278cd512ecf95e7dbe39f1e381cef7" target="_top" xlink:title="parser.Parser.isRightBracket">
<polygon fill="white" stroke="black" points="378,-82.5 378,-101.5 528,-101.5 528,-82.5 378,-82.5"/>
<text text-anchor="middle" x="453" y="-89.5" font-family="Helvetica,sans-Serif" font-size="10.00">parser.Parser.isRightBracket</text>
</a>
</g>
</g>
<!-- Node1&#45;&gt;Node5 -->
<g id="edge5" class="edge"><title>Node1&#45;&gt;Node5</title>
<path fill="none" stroke="midnightblue" d="M141.698,-107.515C205.386,-104.331 299.709,-99.6145 367.632,-96.2184"/>
<polygon fill="midnightblue" stroke="midnightblue" points="368.063,-99.7013 377.876,-95.7062 367.714,-92.71 368.063,-99.7013"/>
</g>
<!-- Node6 -->
<g id="node6" class="node"><title>Node6</title>
<g id="a_node6"><a xlink:href="../../d3/d96/classparser_1_1_instruction_factory.html#a4b06d4f5f8e173824966dd0ec1e00255" target="_top" xlink:title="parser.InstructionFactory.make\lInstruction">
<polygon fill="white" stroke="black" points="178.5,-30 178.5,-60 341.5,-60 341.5,-30 178.5,-30"/>
<text text-anchor="start" x="186.5" y="-48" font-family="Helvetica,sans-Serif" font-size="10.00">parser.InstructionFactory.make</text>
<text text-anchor="middle" x="260" y="-37" font-family="Helvetica,sans-Serif" font-size="10.00">Instruction</text>
</a>
</g>
</g>
<!-- Node1&#45;&gt;Node6 -->
<g id="edge6" class="edge"><title>Node1&#45;&gt;Node6</title>
<path fill="none" stroke="midnightblue" d="M99.1914,-101.403C127.247,-91.5012 171.712,-75.8075 206.624,-63.4855"/>
<polygon fill="midnightblue" stroke="midnightblue" points="207.931,-66.7359 216.196,-60.1071 205.602,-60.1349 207.931,-66.7359"/>
</g>
<!-- Node4 -->
<g id="node4" class="node"><title>Node4</title>
<g id="a_node4"><a xlink:href="../../d6/d95/classparser_1_1_parser.html#abe383fbf6f2944c67226ac2432c548b2" target="_top" xlink:title="parser.Parser.isLeftBracket">
<polygon fill="white" stroke="black" points="381,-123.5 381,-142.5 525,-142.5 525,-123.5 381,-123.5"/>
<text text-anchor="middle" x="453" y="-130.5" font-family="Helvetica,sans-Serif" font-size="10.00">parser.Parser.isLeftBracket</text>
</a>
</g>
</g>
<!-- Node3&#45;&gt;Node4 -->
<g id="edge3" class="edge"><title>Node3&#45;&gt;Node4</title>
<path fill="none" stroke="midnightblue" d="M331.579,-133C344.24,-133 357.53,-133 370.47,-133"/>
<polygon fill="midnightblue" stroke="midnightblue" points="370.755,-136.5 380.755,-133 370.755,-129.5 370.755,-136.5"/>
</g>
<!-- Node3&#45;&gt;Node5 -->
<g id="edge4" class="edge"><title>Node3&#45;&gt;Node5</title>
<path fill="none" stroke="midnightblue" d="M331.037,-117.966C352.996,-113.252 376.892,-108.123 397.602,-103.677"/>
<polygon fill="midnightblue" stroke="midnightblue" points="398.447,-107.075 407.49,-101.554 396.978,-100.231 398.447,-107.075"/>
</g>
<!-- Node7 -->
<g id="node7" class="node"><title>Node7</title>
<g id="a_node7"><a xlink:href="../../d8/d36/classmodel_1_1_observable_data.html#aa526df8e1adab74d19f2d89071560dcb" target="_top" xlink:title="model.ObservableData.get">
<polygon fill="white" stroke="black" points="380,-38.5 380,-57.5 526,-57.5 526,-38.5 380,-38.5"/>
<text text-anchor="middle" x="453" y="-45.5" font-family="Helvetica,sans-Serif" font-size="10.00">model.ObservableData.get</text>
</a>
</g>
</g>
<!-- Node6&#45;&gt;Node7 -->
<g id="edge7" class="edge"><title>Node6&#45;&gt;Node7</title>
<path fill="none" stroke="midnightblue" d="M341.724,-46.2679C350.897,-46.412 360.256,-46.559 369.452,-46.7034"/>
<polygon fill="midnightblue" stroke="midnightblue" points="369.693,-50.2076 379.746,-46.8651 369.803,-43.2084 369.693,-50.2076"/>
</g>
<!-- Node8 -->
<g id="node8" class="node"><title>Node8</title>
<g id="a_node8"><a xlink:href="../../d6/df7/classmodel_1_1_commands_list.html#a3a5d7af953dff13e1e5138d6191c69cf" target="_top" xlink:title="model.CommandsList.get">
<polygon fill="white" stroke="black" points="383,-0.5 383,-19.5 523,-19.5 523,-0.5 383,-0.5"/>
<text text-anchor="middle" x="453" y="-7.5" font-family="Helvetica,sans-Serif" font-size="10.00">model.CommandsList.get</text>
</a>
</g>
</g>
<!-- Node6&#45;&gt;Node8 -->
<g id="edge8" class="edge"><title>Node6&#45;&gt;Node8</title>
<path fill="none" stroke="midnightblue" d="M341.724,-30.2076C357.927,-27.2385 374.711,-24.1629 390.15,-21.3338"/>
<polygon fill="midnightblue" stroke="midnightblue" points="390.876,-24.7591 400.081,-19.5139 389.614,-17.8737 390.876,-24.7591"/>
</g>
</g>
</svg>
