<?xml version="1.0" encoding="UTF-8" standalone="no"?>
<!DOCTYPE svg PUBLIC "-//W3C//DTD SVG 1.1//EN"
 "http://www.w3.org/Graphics/SVG/1.1/DTD/svg11.dtd">
<!-- Generated by graphviz version 2.36.0 (20140111.2315)
 -->
<!-- Title: parser.Parser.isLeftBracket Pages: 1 -->
<svg width="1216pt" height="126pt"
 viewBox="0.00 0.00 1216.00 126.00" xmlns="http://www.w3.org/2000/svg" xmlns:xlink="http://www.w3.org/1999/xlink">
<g id="graph0" class="graph" transform="scale(1 1) rotate(0) translate(4 122)">
<title>parser.Parser.isLeftBracket</title>
<polygon fill="white" stroke="none" points="-4,4 -4,-122 1212,-122 1212,4 -4,4"/>
<!-- Node1 -->
<g id="node1" class="node"><title>Node1</title>
<polygon fill="#bfbfbf" stroke="black" points="0,-22.5 0,-41.5 144,-41.5 144,-22.5 0,-22.5"/>
<text text-anchor="middle" x="72" y="-29.5" font-family="Helvetica,sans-Serif" font-size="10.00">parser.Parser.isLeftBracket</text>
</g>
<!-- Node2 -->
<g id="node2" class="node"><title>Node2</title>
<g id="a_node2"><a xlink:href="../../d6/d95/classparser_1_1_parser.html#a4f0036d9216912f383261d0482cbb1b1" target="_top" xlink:title="parser.Parser.findMatching\lBracket">
<polygon fill="white" stroke="black" points="180.5,-17 180.5,-47 323.5,-47 323.5,-17 180.5,-17"/>
<text text-anchor="start" x="188.5" y="-35" font-family="Helvetica,sans-Serif" font-size="10.00">parser.Parser.findMatching</text>
<text text-anchor="middle" x="252" y="-24" font-family="Helvetica,sans-Serif" font-size="10.00">Bracket</text>
</a>
</g>
</g>
<!-- Node1&#45;&gt;Node2 -->
<g id="edge1" class="edge"><title>Node1&#45;&gt;Node2</title>
<path fill="none" stroke="midnightblue" d="M154.253,-32C162.943,-32 171.732,-32 180.286,-32"/>
<polygon fill="midnightblue" stroke="midnightblue" points="154.118,-28.5001 144.118,-32 154.118,-35.5001 154.118,-28.5001"/>
</g>
<!-- Node3 -->
<g id="node3" class="node"><title>Node3</title>
<g id="a_node3"><a xlink:href="../../d6/d95/classparser_1_1_parser.html#a0b953b563fd9171ad113c168900ba0ad" target="_top" xlink:title="parser.Parser.parseTokens">
<polygon fill="white" stroke="black" points="360.5,-22.5 360.5,-41.5 501.5,-41.5 501.5,-22.5 360.5,-22.5"/>
<text text-anchor="middle" x="431" y="-29.5" font-family="Helvetica,sans-Serif" font-size="10.00">parser.Parser.parseTokens</text>
</a>
</g>
</g>
<!-- Node2&#45;&gt;Node3 -->
<g id="edge2" class="edge"><title>Node2&#45;&gt;Node3</title>
<path fill="none" stroke="midnightblue" d="M333.962,-32C342.744,-32 351.627,-32 360.26,-32"/>
<polygon fill="midnightblue" stroke="midnightblue" points="333.718,-28.5001 323.718,-32 333.718,-35.5001 333.718,-28.5001"/>
</g>
<!-- Node4 -->
<g id="node4" class="node"><title>Node4</title>
<g id="a_node4"><a xlink:href="../../d6/d95/classparser_1_1_parser.html#aec8f2721f51a8a257b572c73d80d5d98" target="_top" xlink:title="parser.Parser.parse">
<polygon fill="white" stroke="black" points="538.5,-22.5 538.5,-41.5 647.5,-41.5 647.5,-22.5 538.5,-22.5"/>
<text text-anchor="middle" x="593" y="-29.5" font-family="Helvetica,sans-Serif" font-size="10.00">parser.Parser.parse</text>
</a>
</g>
</g>
<!-- Node3&#45;&gt;Node4 -->
<g id="edge3" class="edge"><title>Node3&#45;&gt;Node4</title>
<path fill="none" stroke="midnightblue" d="M511.848,-32C520.848,-32 529.85,-32 538.399,-32"/>
<polygon fill="midnightblue" stroke="midnightblue" points="511.713,-28.5001 501.713,-32 511.713,-35.5001 511.713,-28.5001"/>
</g>
<!-- Node5 -->
<g id="node5" class="node"><title>Node5</title>
<g id="a_node5"><a xlink:href="../../d3/d88/classmodel_1_1_slogo_model.html#ad096dbf0a253635d346a622540f472bd" target="_top" xlink:title="model.SlogoModel.parseAnd\lExecute">
<polygon fill="white" stroke="black" points="684,-39 684,-69 838,-69 838,-39 684,-39"/>
<text text-anchor="start" x="692" y="-57" font-family="Helvetica,sans-Serif" font-size="10.00">model.SlogoModel.parseAnd</text>
<text text-anchor="middle" x="761" y="-46" font-family="Helvetica,sans-Serif" font-size="10.00">Execute</text>
</a>
</g>
</g>
<!-- Node4&#45;&gt;Node5 -->
<g id="edge4" class="edge"><title>Node4&#45;&gt;Node5</title>
<path fill="none" stroke="midnightblue" d="M658.016,-40.4841C666.446,-41.6013 675.153,-42.7552 683.761,-43.896"/>
<polygon fill="midnightblue" stroke="midnightblue" points="658.269,-36.987 647.895,-39.1428 657.349,-43.9263 658.269,-36.987"/>
</g>
<!-- Node10 -->
<g id="node10" class="node"><title>Node10</title>
<g id="a_node10"><a xlink:href="../../d4/d90/classview_1_1_key_controls.html#a5139ba2a7cd205b996395f4f3e7f406c" target="_top" xlink:title="view.KeyControls.setKeyMap">
<polygon fill="white" stroke="black" points="686,-0.5 686,-19.5 836,-19.5 836,-0.5 686,-0.5"/>
<text text-anchor="middle" x="761" y="-7.5" font-family="Helvetica,sans-Serif" font-size="10.00">view.KeyControls.setKeyMap</text>
</a>
</g>
</g>
<!-- Node4&#45;&gt;Node10 -->
<g id="edge9" class="edge"><title>Node4&#45;&gt;Node10</title>
<path fill="none" stroke="midnightblue" d="M658.042,-23.5126C667.934,-22.2015 678.206,-20.8402 688.253,-19.5086"/>
<polygon fill="midnightblue" stroke="midnightblue" points="657.349,-20.0737 647.895,-24.8572 658.269,-27.013 657.349,-20.0737"/>
</g>
<!-- Node6 -->
<g id="node6" class="node"><title>Node6</title>
<g id="a_node6"><a xlink:href="../../d6/d0a/classview_1_1_input_view.html#a948930c9b825f34ef8f5def96910471b" target="_top" xlink:title="view.InputView.initSubmit\lButton">
<polygon fill="white" stroke="black" points="877,-88 877,-118 1013,-118 1013,-88 877,-88"/>
<text text-anchor="start" x="885" y="-106" font-family="Helvetica,sans-Serif" font-size="10.00">view.InputView.initSubmit</text>
<text text-anchor="middle" x="945" y="-95" font-family="Helvetica,sans-Serif" font-size="10.00">Button</text>
</a>
</g>
</g>
<!-- Node5&#45;&gt;Node6 -->
<g id="edge5" class="edge"><title>Node5&#45;&gt;Node6</title>
<path fill="none" stroke="midnightblue" d="M827.923,-71.7485C847.648,-77.0591 869.078,-82.8288 888.094,-87.9484"/>
<polygon fill="midnightblue" stroke="midnightblue" points="828.657,-68.3216 818.091,-69.1014 826.837,-75.0809 828.657,-68.3216"/>
</g>
<!-- Node8 -->
<g id="node8" class="node"><title>Node8</title>
<g id="a_node8"><a xlink:href="../../d4/d90/classview_1_1_key_controls.html#a0c3663cb62e91e8919b0296aad899a8f" target="_top" xlink:title="view.KeyControls.makeKey\lCommands">
<polygon fill="white" stroke="black" points="874,-39 874,-69 1016,-69 1016,-39 874,-39"/>
<text text-anchor="start" x="882" y="-57" font-family="Helvetica,sans-Serif" font-size="10.00">view.KeyControls.makeKey</text>
<text text-anchor="middle" x="945" y="-46" font-family="Helvetica,sans-Serif" font-size="10.00">Commands</text>
</a>
</g>
</g>
<!-- Node5&#45;&gt;Node8 -->
<g id="edge7" class="edge"><title>Node5&#45;&gt;Node8</title>
<path fill="none" stroke="midnightblue" d="M848.221,-54C856.855,-54 865.547,-54 873.984,-54"/>
<polygon fill="midnightblue" stroke="midnightblue" points="848.13,-50.5001 838.13,-54 848.13,-57.5001 848.13,-50.5001"/>
</g>
<!-- Node7 -->
<g id="node7" class="node"><title>Node7</title>
<g id="a_node7"><a xlink:href="../../d6/d0a/classview_1_1_input_view.html#ac75e6562ed83ace6cb0a0ac886780054" target="_top" xlink:title="view.InputView.InputView">
<polygon fill="white" stroke="black" points="1063.5,-93.5 1063.5,-112.5 1196.5,-112.5 1196.5,-93.5 1063.5,-93.5"/>
<text text-anchor="middle" x="1130" y="-100.5" font-family="Helvetica,sans-Serif" font-size="10.00">view.InputView.InputView</text>
</a>
</g>
</g>
<!-- Node6&#45;&gt;Node7 -->
<g id="edge6" class="edge"><title>Node6&#45;&gt;Node7</title>
<path fill="none" stroke="midnightblue" d="M1023.23,-103C1036.61,-103 1050.4,-103 1063.43,-103"/>
<polygon fill="midnightblue" stroke="midnightblue" points="1023.1,-99.5001 1013.1,-103 1023.1,-106.5 1023.1,-99.5001"/>
</g>
<!-- Node9 -->
<g id="node9" class="node"><title>Node9</title>
<g id="a_node9"><a xlink:href="../../d4/d90/classview_1_1_key_controls.html#a4b73546f8ba8feee9e878b3cf743fb61" target="_top" xlink:title="view.KeyControls.KeyControls">
<polygon fill="white" stroke="black" points="1052.5,-22.5 1052.5,-41.5 1207.5,-41.5 1207.5,-22.5 1052.5,-22.5"/>
<text text-anchor="middle" x="1130" y="-29.5" font-family="Helvetica,sans-Serif" font-size="10.00">view.KeyControls.KeyControls</text>
</a>
</g>
</g>
<!-- Node8&#45;&gt;Node9 -->
<g id="edge8" class="edge"><title>Node8&#45;&gt;Node9</title>
<path fill="none" stroke="midnightblue" d="M1026.28,-44.3489C1034.91,-43.3115 1043.67,-42.2577 1052.26,-41.2254"/>
<polygon fill="midnightblue" stroke="midnightblue" points="1025.74,-40.8885 1016.23,-45.5571 1026.58,-47.8384 1025.74,-40.8885"/>
</g>
<!-- Node10&#45;&gt;Node9 -->
<g id="edge10" class="edge"><title>Node10&#45;&gt;Node9</title>
<path fill="none" stroke="midnightblue" d="M846.425,-15.0609C908.491,-18.7815 992.154,-23.7967 1052.32,-27.4031"/>
<polygon fill="midnightblue" stroke="midnightblue" points="846.459,-11.5568 836.268,-14.452 846.041,-18.5442 846.459,-11.5568"/>
</g>
</g>
</svg>
