<?xml version="1.0" encoding="UTF-8" standalone="no"?>
<!DOCTYPE svg PUBLIC "-//W3C//DTD SVG 1.1//EN"
 "http://www.w3.org/Graphics/SVG/1.1/DTD/svg11.dtd">
<!-- Generated by graphviz version 2.36.0 (20140111.2315)
 -->
<!-- Title: parser.Parser.isRightBracket Pages: 1 -->
<svg width="1222pt" height="126pt"
 viewBox="0.00 0.00 1222.00 126.00" xmlns="http://www.w3.org/2000/svg" xmlns:xlink="http://www.w3.org/1999/xlink">
<g id="graph0" class="graph" transform="scale(1 1) rotate(0) translate(4 122)">
<title>parser.Parser.isRightBracket</title>
<polygon fill="white" stroke="none" points="-4,4 -4,-122 1218,-122 1218,4 -4,4"/>
<!-- Node1 -->
<g id="node1" class="node"><title>Node1</title>
<polygon fill="#bfbfbf" stroke="black" points="0,-22.5 0,-41.5 150,-41.5 150,-22.5 0,-22.5"/>
<text text-anchor="middle" x="75" y="-29.5" font-family="Helvetica,sans-Serif" font-size="10.00">parser.Parser.isRightBracket</text>
</g>
<!-- Node2 -->
<g id="node2" class="node"><title>Node2</title>
<g id="a_node2"><a xlink:href="../../d6/d95/classparser_1_1_parser.html#a4f0036d9216912f383261d0482cbb1b1" target="_top" xlink:title="parser.Parser.findMatching\lBracket">
<polygon fill="white" stroke="black" points="186.5,-39 186.5,-69 329.5,-69 329.5,-39 186.5,-39"/>
<text text-anchor="start" x="194.5" y="-57" font-family="Helvetica,sans-Serif" font-size="10.00">parser.Parser.findMatching</text>
<text text-anchor="middle" x="258" y="-46" font-family="Helvetica,sans-Serif" font-size="10.00">Bracket</text>
</a>
</g>
</g>
<!-- Node1&#45;&gt;Node2 -->
<g id="edge1" class="edge"><title>Node1&#45;&gt;Node2</title>
<path fill="none" stroke="midnightblue" d="M160.348,-42.2523C169.09,-43.3148 177.908,-44.3866 186.475,-45.4279"/>
<polygon fill="midnightblue" stroke="midnightblue" points="160.491,-38.744 150.142,-41.0117 159.646,-45.6928 160.491,-38.744"/>
</g>
<!-- Node3 -->
<g id="node3" class="node"><title>Node3</title>
<g id="a_node3"><a xlink:href="../../d6/d95/classparser_1_1_parser.html#a0b953b563fd9171ad113c168900ba0ad" target="_top" xlink:title="parser.Parser.parseTokens">
<polygon fill="white" stroke="black" points="366.5,-22.5 366.5,-41.5 507.5,-41.5 507.5,-22.5 366.5,-22.5"/>
<text text-anchor="middle" x="437" y="-29.5" font-family="Helvetica,sans-Serif" font-size="10.00">parser.Parser.parseTokens</text>
</a>
</g>
</g>
<!-- Node1&#45;&gt;Node3 -->
<g id="edge11" class="edge"><title>Node1&#45;&gt;Node3</title>
<path fill="none" stroke="midnightblue" d="M160.384,-29.4644C169.035,-29.2746 177.693,-29.1133 186,-29 249.994,-28.1275 266.006,-28.0946 330,-29 341.781,-29.1667 354.297,-29.4375 366.443,-29.75"/>
<polygon fill="midnightblue" stroke="midnightblue" points="160.169,-25.9683 150.253,-29.6991 160.331,-32.9665 160.169,-25.9683"/>
</g>
<!-- Node2&#45;&gt;Node3 -->
<g id="edge2" class="edge"><title>Node2&#45;&gt;Node3</title>
<path fill="none" stroke="midnightblue" d="M339.675,-43.9726C348.551,-42.8693 357.533,-41.753 366.26,-40.6683"/>
<polygon fill="midnightblue" stroke="midnightblue" points="339.21,-40.5034 329.718,-45.2102 340.074,-47.4499 339.21,-40.5034"/>
</g>
<!-- Node4 -->
<g id="node4" class="node"><title>Node4</title>
<g id="a_node4"><a xlink:href="../../d6/d95/classparser_1_1_parser.html#aec8f2721f51a8a257b572c73d80d5d98" target="_top" xlink:title="parser.Parser.parse">
<polygon fill="white" stroke="black" points="544.5,-22.5 544.5,-41.5 653.5,-41.5 653.5,-22.5 544.5,-22.5"/>
<text text-anchor="middle" x="599" y="-29.5" font-family="Helvetica,sans-Serif" font-size="10.00">parser.Parser.parse</text>
</a>
</g>
</g>
<!-- Node3&#45;&gt;Node4 -->
<g id="edge3" class="edge"><title>Node3&#45;&gt;Node4</title>
<path fill="none" stroke="midnightblue" d="M517.848,-32C526.848,-32 535.85,-32 544.399,-32"/>
<polygon fill="midnightblue" stroke="midnightblue" points="517.713,-28.5001 507.713,-32 517.713,-35.5001 517.713,-28.5001"/>
</g>
<!-- Node5 -->
<g id="node5" class="node"><title>Node5</title>
<g id="a_node5"><a xlink:href="../../d3/d88/classmodel_1_1_slogo_model.html#ad096dbf0a253635d346a622540f472bd" target="_top" xlink:title="model.SlogoModel.parseAnd\lExecute">
<polygon fill="white" stroke="black" points="690,-39 690,-69 844,-69 844,-39 690,-39"/>
<text text-anchor="start" x="698" y="-57" font-family="Helvetica,sans-Serif" font-size="10.00">model.SlogoModel.parseAnd</text>
<text text-anchor="middle" x="767" y="-46" font-family="Helvetica,sans-Serif" font-size="10.00">Execute</text>
</a>
</g>
</g>
<!-- Node4&#45;&gt;Node5 -->
<g id="edge4" class="edge"><title>Node4&#45;&gt;Node5</title>
<path fill="none" stroke="midnightblue" d="M664.016,-40.4841C672.446,-41.6013 681.153,-42.7552 689.761,-43.896"/>
<polygon fill="midnightblue" stroke="midnightblue" points="664.269,-36.987 653.895,-39.1428 663.349,-43.9263 664.269,-36.987"/>
</g>
<!-- Node10 -->
<g id="node10" class="node"><title>Node10</title>
<g id="a_node10"><a xlink:href="../../d4/d90/classview_1_1_key_controls.html#a5139ba2a7cd205b996395f4f3e7f406c" target="_top" xlink:title="view.KeyControls.setKeyMap">
<polygon fill="white" stroke="black" points="692,-0.5 692,-19.5 842,-19.5 842,-0.5 692,-0.5"/>
<text text-anchor="middle" x="767" y="-7.5" font-family="Helvetica,sans-Serif" font-size="10.00">view.KeyControls.setKeyMap</text>
</a>
</g>
</g>
<!-- Node4&#45;&gt;Node10 -->
<g id="edge9" class="edge"><title>Node4&#45;&gt;Node10</title>
<path fill="none" stroke="midnightblue" d="M664.042,-23.5126C673.934,-22.2015 684.206,-20.8402 694.253,-19.5086"/>
<polygon fill="midnightblue" stroke="midnightblue" points="663.349,-20.0737 653.895,-24.8572 664.269,-27.013 663.349,-20.0737"/>
</g>
<!-- Node6 -->
<g id="node6" class="node"><title>Node6</title>
<g id="a_node6"><a xlink:href="../../d6/d0a/classview_1_1_input_view.html#a948930c9b825f34ef8f5def96910471b" target="_top" xlink:title="view.InputView.initSubmit\lButton">
<polygon fill="white" stroke="black" points="883,-88 883,-118 1019,-118 1019,-88 883,-88"/>
<text text-anchor="start" x="891" y="-106" font-family="Helvetica,sans-Serif" font-size="10.00">view.InputView.initSubmit</text>
<text text-anchor="middle" x="951" y="-95" font-family="Helvetica,sans-Serif" font-size="10.00">Button</text>
</a>
</g>
</g>
<!-- Node5&#45;&gt;Node6 -->
<g id="edge5" class="edge"><title>Node5&#45;&gt;Node6</title>
<path fill="none" stroke="midnightblue" d="M833.923,-71.7485C853.648,-77.0591 875.078,-82.8288 894.094,-87.9484"/>
<polygon fill="midnightblue" stroke="midnightblue" points="834.657,-68.3216 824.091,-69.1014 832.837,-75.0809 834.657,-68.3216"/>
</g>
<!-- Node8 -->
<g id="node8" class="node"><title>Node8</title>
<g id="a_node8"><a xlink:href="../../d4/d90/classview_1_1_key_controls.html#a0c3663cb62e91e8919b0296aad899a8f" target="_top" xlink:title="view.KeyControls.makeKey\lCommands">
<polygon fill="white" stroke="black" points="880,-39 880,-69 1022,-69 1022,-39 880,-39"/>
<text text-anchor="start" x="888" y="-57" font-family="Helvetica,sans-Serif" font-size="10.00">view.KeyControls.makeKey</text>
<text text-anchor="middle" x="951" y="-46" font-family="Helvetica,sans-Serif" font-size="10.00">Commands</text>
</a>
</g>
</g>
<!-- Node5&#45;&gt;Node8 -->
<g id="edge7" class="edge"><title>Node5&#45;&gt;Node8</title>
<path fill="none" stroke="midnightblue" d="M854.221,-54C862.855,-54 871.547,-54 879.984,-54"/>
<polygon fill="midnightblue" stroke="midnightblue" points="854.13,-50.5001 844.13,-54 854.13,-57.5001 854.13,-50.5001"/>
</g>
<!-- Node7 -->
<g id="node7" class="node"><title>Node7</title>
<g id="a_node7"><a xlink:href="../../d6/d0a/classview_1_1_input_view.html#ac75e6562ed83ace6cb0a0ac886780054" target="_top" xlink:title="view.InputView.InputView">
<polygon fill="white" stroke="black" points="1069.5,-93.5 1069.5,-112.5 1202.5,-112.5 1202.5,-93.5 1069.5,-93.5"/>
<text text-anchor="middle" x="1136" y="-100.5" font-family="Helvetica,sans-Serif" font-size="10.00">view.InputView.InputView</text>
</a>
</g>
</g>
<!-- Node6&#45;&gt;Node7 -->
<g id="edge6" class="edge"><title>Node6&#45;&gt;Node7</title>
<path fill="none" stroke="midnightblue" d="M1029.23,-103C1042.61,-103 1056.4,-103 1069.43,-103"/>
<polygon fill="midnightblue" stroke="midnightblue" points="1029.1,-99.5001 1019.1,-103 1029.1,-106.5 1029.1,-99.5001"/>
</g>
<!-- Node9 -->
<g id="node9" class="node"><title>Node9</title>
<g id="a_node9"><a xlink:href="../../d4/d90/classview_1_1_key_controls.html#a4b73546f8ba8feee9e878b3cf743fb61" target="_top" xlink:title="view.KeyControls.KeyControls">
<polygon fill="white" stroke="black" points="1058.5,-22.5 1058.5,-41.5 1213.5,-41.5 1213.5,-22.5 1058.5,-22.5"/>
<text text-anchor="middle" x="1136" y="-29.5" font-family="Helvetica,sans-Serif" font-size="10.00">view.KeyControls.KeyControls</text>
</a>
</g>
</g>
<!-- Node8&#45;&gt;Node9 -->
<g id="edge8" class="edge"><title>Node8&#45;&gt;Node9</title>
<path fill="none" stroke="midnightblue" d="M1032.28,-44.3489C1040.91,-43.3115 1049.67,-42.2577 1058.26,-41.2254"/>
<polygon fill="midnightblue" stroke="midnightblue" points="1031.74,-40.8885 1022.23,-45.5571 1032.58,-47.8384 1031.74,-40.8885"/>
</g>
<!-- Node10&#45;&gt;Node9 -->
<g id="edge10" class="edge"><title>Node10&#45;&gt;Node9</title>
<path fill="none" stroke="midnightblue" d="M852.425,-15.0609C914.491,-18.7815 998.154,-23.7967 1058.32,-27.4031"/>
<polygon fill="midnightblue" stroke="midnightblue" points="852.459,-11.5568 842.268,-14.452 852.041,-18.5442 852.459,-11.5568"/>
</g>
</g>
</svg>
