<?xml version="1.0" encoding="UTF-8" standalone="no"?>
<!DOCTYPE svg PUBLIC "-//W3C//DTD SVG 1.1//EN"
 "http://www.w3.org/Graphics/SVG/1.1/DTD/svg11.dtd">
<!-- Generated by graphviz version 2.36.0 (20140111.2315)
 -->
<!-- Title: model.Turtle.getCoordList Pages: 1 -->
<svg width="388pt" height="77pt"
 viewBox="0.00 0.00 388.00 77.00" xmlns="http://www.w3.org/2000/svg" xmlns:xlink="http://www.w3.org/1999/xlink">
<g id="graph0" class="graph" transform="scale(1 1) rotate(0) translate(4 73)">
<title>model.Turtle.getCoordList</title>
<polygon fill="white" stroke="none" points="-4,4 -4,-73 384,-73 384,4 -4,4"/>
<!-- Node1 -->
<g id="node1" class="node"><title>Node1</title>
<polygon fill="#bfbfbf" stroke="black" points="0.5,-27.5 0.5,-46.5 139.5,-46.5 139.5,-27.5 0.5,-27.5"/>
<text text-anchor="middle" x="70" y="-34.5" font-family="Helvetica,sans-Serif" font-size="10.00">model.Turtle.getCoordList</text>
</g>
<!-- Node2 -->
<g id="node2" class="node"><title>Node2</title>
<g id="a_node2"><a xlink:href="../../d3/d16/classinstructions_1_1commands_1_1_home.html#a1f8a8a072657d0c9b6816e90d785308c" target="_top" xlink:title="instructions.commands.Home.execute">
<polygon fill="white" stroke="black" points="176.5,-49.5 176.5,-68.5 379.5,-68.5 379.5,-49.5 176.5,-49.5"/>
<text text-anchor="middle" x="278" y="-56.5" font-family="Helvetica,sans-Serif" font-size="10.00">instructions.commands.Home.execute</text>
</a>
</g>
</g>
<!-- Node1&#45;&gt;Node2 -->
<g id="edge1" class="edge"><title>Node1&#45;&gt;Node2</title>
<path fill="none" stroke="midnightblue" d="M149.884,-45.4245C162.292,-46.7496 175.195,-48.1276 187.815,-49.4754"/>
<polygon fill="midnightblue" stroke="midnightblue" points="149.91,-41.9075 139.595,-44.3257 149.167,-48.8679 149.91,-41.9075"/>
</g>
<!-- Node3 -->
<g id="node3" class="node"><title>Node3</title>
<g id="a_node3"><a xlink:href="../../da/d22/classinstructions_1_1commands_1_1_set_position.html#a6a0f48e1a66d7fc7574ff5ad60ee9c33" target="_top" xlink:title="instructions.commands.Set\lPosition.execute">
<polygon fill="white" stroke="black" points="203.5,-0 203.5,-30 352.5,-30 352.5,-0 203.5,-0"/>
<text text-anchor="start" x="211.5" y="-18" font-family="Helvetica,sans-Serif" font-size="10.00">instructions.commands.Set</text>
<text text-anchor="middle" x="278" y="-7" font-family="Helvetica,sans-Serif" font-size="10.00">Position.execute</text>
</a>
</g>
</g>
<!-- Node1&#45;&gt;Node3 -->
<g id="edge2" class="edge"><title>Node1&#45;&gt;Node3</title>
<path fill="none" stroke="midnightblue" d="M149.825,-28.5818C167.424,-26.7023 186.021,-24.7162 203.4,-22.8602"/>
<polygon fill="midnightblue" stroke="midnightblue" points="149.167,-25.1321 139.595,-29.6743 149.91,-32.0925 149.167,-25.1321"/>
</g>
</g>
</svg>
