<?xml version="1.0" encoding="UTF-8" standalone="no"?>
<!DOCTYPE svg PUBLIC "-//W3C//DTD SVG 1.1//EN"
 "http://www.w3.org/Graphics/SVG/1.1/DTD/svg11.dtd">
<!-- Generated by graphviz version 2.36.0 (20140111.2315)
 -->
<!-- Title: model.Turtle.initListofTurtles Pages: 1 -->
<svg width="540pt" height="38pt"
 viewBox="0.00 0.00 540.00 38.00" xmlns="http://www.w3.org/2000/svg" xmlns:xlink="http://www.w3.org/1999/xlink">
<g id="graph0" class="graph" transform="scale(1 1) rotate(0) translate(4 34)">
<title>model.Turtle.initListofTurtles</title>
<polygon fill="white" stroke="none" points="-4,4 -4,-34 536,-34 536,4 -4,4"/>
<!-- Node1 -->
<g id="node1" class="node"><title>Node1</title>
<polygon fill="#bfbfbf" stroke="black" points="0.5,-5.5 0.5,-24.5 149.5,-24.5 149.5,-5.5 0.5,-5.5"/>
<text text-anchor="middle" x="75" y="-12.5" font-family="Helvetica,sans-Serif" font-size="10.00">model.Turtle.initListofTurtles</text>
</g>
<!-- Node2 -->
<g id="node2" class="node"><title>Node2</title>
<g id="a_node2"><a xlink:href="../../dd/dc5/classview_1_1_settings_view.html#a2647759701975998ceb6d36b40aa98ea" target="_top" xlink:title="view.SettingsView.addTurtle\lChoices">
<polygon fill="white" stroke="black" points="186,-0 186,-30 332,-30 332,-0 186,-0"/>
<text text-anchor="start" x="194" y="-18" font-family="Helvetica,sans-Serif" font-size="10.00">view.SettingsView.addTurtle</text>
<text text-anchor="middle" x="259" y="-7" font-family="Helvetica,sans-Serif" font-size="10.00">Choices</text>
</a>
</g>
</g>
<!-- Node1&#45;&gt;Node2 -->
<g id="edge1" class="edge"><title>Node1&#45;&gt;Node2</title>
<path fill="none" stroke="midnightblue" d="M159.738,-15C168.51,-15 177.373,-15 185.997,-15"/>
<polygon fill="midnightblue" stroke="midnightblue" points="159.502,-11.5001 149.502,-15 159.502,-18.5001 159.502,-11.5001"/>
</g>
<!-- Node3 -->
<g id="node3" class="node"><title>Node3</title>
<g id="a_node3"><a xlink:href="../../dd/dc5/classview_1_1_settings_view.html#a34b8df753ce7a3b7d917a01ff315edc8" target="_top" xlink:title="view.SettingsView.SettingsView">
<polygon fill="white" stroke="black" points="368,-5.5 368,-24.5 532,-24.5 532,-5.5 368,-5.5"/>
<text text-anchor="middle" x="450" y="-12.5" font-family="Helvetica,sans-Serif" font-size="10.00">view.SettingsView.SettingsView</text>
</a>
</g>
</g>
<!-- Node2&#45;&gt;Node3 -->
<g id="edge2" class="edge"><title>Node2&#45;&gt;Node3</title>
<path fill="none" stroke="midnightblue" d="M342.485,-15C350.934,-15 359.514,-15 367.947,-15"/>
<polygon fill="midnightblue" stroke="midnightblue" points="342.262,-11.5001 332.262,-15 342.262,-18.5001 342.262,-11.5001"/>
</g>
</g>
</svg>
