<?xml version="1.0" encoding="UTF-8" standalone="no"?>
<!DOCTYPE svg PUBLIC "-//W3C//DTD SVG 1.1//EN"
 "http://www.w3.org/Graphics/SVG/1.1/DTD/svg11.dtd">
<!-- Generated by graphviz version 2.36.0 (20140111.2315)
 -->
<!-- Title: model.Turtle.changeState Pages: 1 -->
<svg width="466pt" height="28pt"
 viewBox="0.00 0.00 466.00 28.00" xmlns="http://www.w3.org/2000/svg" xmlns:xlink="http://www.w3.org/1999/xlink">
<g id="graph0" class="graph" transform="scale(1 1) rotate(0) translate(4 24)">
<title>model.Turtle.changeState</title>
<polygon fill="white" stroke="none" points="-4,4 -4,-24 462,-24 462,4 -4,4"/>
<!-- Node1 -->
<g id="node1" class="node"><title>Node1</title>
<polygon fill="#bfbfbf" stroke="black" points="0,-0.5 0,-19.5 140,-19.5 140,-0.5 0,-0.5"/>
<text text-anchor="middle" x="70" y="-7.5" font-family="Helvetica,sans-Serif" font-size="10.00">model.Turtle.changeState</text>
</g>
<!-- Node2 -->
<g id="node2" class="node"><title>Node2</title>
<g id="a_node2"><a xlink:href="../../d6/d34/classmodel_1_1_turtle.html#a3bef6e5b68b529d8ff0a6b6e84592587" target="_top" xlink:title="model.Turtle.initializeTurtle">
<polygon fill="white" stroke="black" points="176,-0.5 176,-19.5 318,-19.5 318,-0.5 176,-0.5"/>
<text text-anchor="middle" x="247" y="-7.5" font-family="Helvetica,sans-Serif" font-size="10.00">model.Turtle.initializeTurtle</text>
</a>
</g>
</g>
<!-- Node1&#45;&gt;Node2 -->
<g id="edge1" class="edge"><title>Node1&#45;&gt;Node2</title>
<path fill="none" stroke="midnightblue" d="M150.169,-10C158.751,-10 167.441,-10 175.904,-10"/>
<polygon fill="midnightblue" stroke="midnightblue" points="150.165,-6.5001 140.165,-10 150.165,-13.5001 150.165,-6.5001"/>
</g>
<!-- Node3 -->
<g id="node3" class="node"><title>Node3</title>
<g id="a_node3"><a xlink:href="../../d6/d34/classmodel_1_1_turtle.html#ab6189547e57f3e1c27ea2bb3c5925bc6" target="_top" xlink:title="model.Turtle.Turtle">
<polygon fill="white" stroke="black" points="354,-0.5 354,-19.5 458,-19.5 458,-0.5 354,-0.5"/>
<text text-anchor="middle" x="406" y="-7.5" font-family="Helvetica,sans-Serif" font-size="10.00">model.Turtle.Turtle</text>
</a>
</g>
</g>
<!-- Node2&#45;&gt;Node3 -->
<g id="edge2" class="edge"><title>Node2&#45;&gt;Node3</title>
<path fill="none" stroke="midnightblue" d="M328.328,-10C336.936,-10 345.515,-10 353.65,-10"/>
<polygon fill="midnightblue" stroke="midnightblue" points="328.234,-6.5001 318.234,-10 328.234,-13.5001 328.234,-6.5001"/>
</g>
</g>
</svg>
