<?xml version="1.0" encoding="UTF-8" standalone="no"?>
<!DOCTYPE svg PUBLIC "-//W3C//DTD SVG 1.1//EN"
 "http://www.w3.org/Graphics/SVG/1.1/DTD/svg11.dtd">
<!-- Generated by graphviz version 2.36.0 (20140111.2315)
 -->
<!-- Title: model.Turtle.setShape Pages: 1 -->
<svg width="518pt" height="87pt"
 viewBox="0.00 0.00 518.00 87.00" xmlns="http://www.w3.org/2000/svg" xmlns:xlink="http://www.w3.org/1999/xlink">
<g id="graph0" class="graph" transform="scale(1 1) rotate(0) translate(4 83)">
<title>model.Turtle.setShape</title>
<polygon fill="white" stroke="none" points="-4,4 -4,-83 514,-83 514,4 -4,4"/>
<!-- Node1 -->
<g id="node1" class="node"><title>Node1</title>
<polygon fill="#bfbfbf" stroke="black" points="0,-29.5 0,-48.5 124,-48.5 124,-29.5 0,-29.5"/>
<text text-anchor="middle" x="62" y="-36.5" font-family="Helvetica,sans-Serif" font-size="10.00">model.Turtle.setShape</text>
</g>
<!-- Node2 -->
<g id="node2" class="node"><title>Node2</title>
<g id="a_node2"><a xlink:href="../../dd/dc5/classview_1_1_settings_view.html#a2647759701975998ceb6d36b40aa98ea" target="_top" xlink:title="view.SettingsView.addTurtle\lChoices">
<polygon fill="white" stroke="black" points="162,-49 162,-79 308,-79 308,-49 162,-49"/>
<text text-anchor="start" x="170" y="-67" font-family="Helvetica,sans-Serif" font-size="10.00">view.SettingsView.addTurtle</text>
<text text-anchor="middle" x="235" y="-56" font-family="Helvetica,sans-Serif" font-size="10.00">Choices</text>
</a>
</g>
</g>
<!-- Node1&#45;&gt;Node2 -->
<g id="edge1" class="edge"><title>Node1&#45;&gt;Node2</title>
<path fill="none" stroke="midnightblue" d="M134.374,-49.4347C143.44,-50.7603 152.725,-52.1177 161.805,-53.4452"/>
<polygon fill="midnightblue" stroke="midnightblue" points="134.653,-45.9385 124.252,-47.955 133.64,-52.8648 134.653,-45.9385"/>
</g>
<!-- Node4 -->
<g id="node4" class="node"><title>Node4</title>
<g id="a_node4"><a xlink:href="../../da/dff/classinstructions_1_1commands_1_1_set_shape.html#ac022bfff09d0c3374c7e4c31f4368a49" target="_top" xlink:title="instructions.commands.Set\lShape.execute">
<polygon fill="white" stroke="black" points="160.5,-0 160.5,-30 309.5,-30 309.5,-0 160.5,-0"/>
<text text-anchor="start" x="168.5" y="-18" font-family="Helvetica,sans-Serif" font-size="10.00">instructions.commands.Set</text>
<text text-anchor="middle" x="235" y="-7" font-family="Helvetica,sans-Serif" font-size="10.00">Shape.execute</text>
</a>
</g>
</g>
<!-- Node1&#45;&gt;Node4 -->
<g id="edge3" class="edge"><title>Node1&#45;&gt;Node4</title>
<path fill="none" stroke="midnightblue" d="M134.252,-28.9998C142.866,-27.7908 151.679,-26.5538 160.327,-25.34"/>
<polygon fill="midnightblue" stroke="midnightblue" points="133.668,-25.5472 124.252,-30.4032 134.641,-32.4793 133.668,-25.5472"/>
</g>
<!-- Node3 -->
<g id="node3" class="node"><title>Node3</title>
<g id="a_node3"><a xlink:href="../../dd/dc5/classview_1_1_settings_view.html#a34b8df753ce7a3b7d917a01ff315edc8" target="_top" xlink:title="view.SettingsView.SettingsView">
<polygon fill="white" stroke="black" points="346,-54.5 346,-73.5 510,-73.5 510,-54.5 346,-54.5"/>
<text text-anchor="middle" x="428" y="-61.5" font-family="Helvetica,sans-Serif" font-size="10.00">view.SettingsView.SettingsView</text>
</a>
</g>
</g>
<!-- Node2&#45;&gt;Node3 -->
<g id="edge2" class="edge"><title>Node2&#45;&gt;Node3</title>
<path fill="none" stroke="midnightblue" d="M318.366,-64C327.438,-64 336.672,-64 345.731,-64"/>
<polygon fill="midnightblue" stroke="midnightblue" points="318.209,-60.5001 308.209,-64 318.209,-67.5001 318.209,-60.5001"/>
</g>
</g>
</svg>
