<?xml version="1.0" encoding="UTF-8" standalone="no"?>
<!DOCTYPE svg PUBLIC "-//W3C//DTD SVG 1.1//EN"
 "http://www.w3.org/Graphics/SVG/1.1/DTD/svg11.dtd">
<!-- Generated by graphviz version 2.36.0 (20140111.2315)
 -->
<!-- Title: model.Turtle.setVisible Pages: 1 -->
<svg width="920pt" height="126pt"
 viewBox="0.00 0.00 920.00 126.00" xmlns="http://www.w3.org/2000/svg" xmlns:xlink="http://www.w3.org/1999/xlink">
<g id="graph0" class="graph" transform="scale(1 1) rotate(0) translate(4 122)">
<title>model.Turtle.setVisible</title>
<polygon fill="white" stroke="none" points="-4,4 -4,-122 916,-122 916,4 -4,4"/>
<!-- Node1 -->
<g id="node1" class="node"><title>Node1</title>
<polygon fill="#bfbfbf" stroke="black" points="0,-44.5 0,-63.5 124,-63.5 124,-44.5 0,-44.5"/>
<text text-anchor="middle" x="62" y="-51.5" font-family="Helvetica,sans-Serif" font-size="10.00">model.Turtle.setVisible</text>
</g>
<!-- Node2 -->
<g id="node2" class="node"><title>Node2</title>
<g id="a_node2"><a xlink:href="../../d7/d53/classinstructions_1_1commands_1_1_hide_turtle.html#a3942c6b0d8e26a8f0db48e9de46ce909" target="_top" xlink:title="instructions.commands.Hide\lTurtle.execute">
<polygon fill="white" stroke="black" points="162,-88 162,-118 316,-118 316,-88 162,-88"/>
<text text-anchor="start" x="170" y="-106" font-family="Helvetica,sans-Serif" font-size="10.00">instructions.commands.Hide</text>
<text text-anchor="middle" x="239" y="-95" font-family="Helvetica,sans-Serif" font-size="10.00">Turtle.execute</text>
</a>
</g>
</g>
<!-- Node1&#45;&gt;Node2 -->
<g id="edge1" class="edge"><title>Node1&#45;&gt;Node2</title>
<path fill="none" stroke="midnightblue" d="M106.848,-66.2776C130.335,-72.8537 159.462,-81.0092 184.297,-87.963"/>
<polygon fill="midnightblue" stroke="midnightblue" points="107.731,-62.89 97.1572,-63.564 105.843,-69.6308 107.731,-62.89"/>
</g>
<!-- Node3 -->
<g id="node3" class="node"><title>Node3</title>
<g id="a_node3"><a xlink:href="../../d9/d3c/classinstructions_1_1commands_1_1_show_turtle.html#a26a67e207d1ec3ef02a50113330299ce" target="_top" xlink:title="instructions.commands.Show\lTurtle.execute">
<polygon fill="white" stroke="black" points="160,-39 160,-69 318,-69 318,-39 160,-39"/>
<text text-anchor="start" x="168" y="-57" font-family="Helvetica,sans-Serif" font-size="10.00">instructions.commands.Show</text>
<text text-anchor="middle" x="239" y="-46" font-family="Helvetica,sans-Serif" font-size="10.00">Turtle.execute</text>
</a>
</g>
</g>
<!-- Node1&#45;&gt;Node3 -->
<g id="edge2" class="edge"><title>Node1&#45;&gt;Node3</title>
<path fill="none" stroke="midnightblue" d="M134.353,-54C142.774,-54 151.401,-54 159.909,-54"/>
<polygon fill="midnightblue" stroke="midnightblue" points="134.207,-50.5001 124.207,-54 134.206,-57.5001 134.207,-50.5001"/>
</g>
<!-- Node4 -->
<g id="node4" class="node"><title>Node4</title>
<g id="a_node4"><a xlink:href="../../d6/d34/classmodel_1_1_turtle.html#a0550d3e5a9d973a1774ae8f6f5d571df" target="_top" xlink:title="model.Turtle.toggleVisible">
<polygon fill="white" stroke="black" points="169.5,-0.5 169.5,-19.5 308.5,-19.5 308.5,-0.5 169.5,-0.5"/>
<text text-anchor="middle" x="239" y="-7.5" font-family="Helvetica,sans-Serif" font-size="10.00">model.Turtle.toggleVisible</text>
</a>
</g>
</g>
<!-- Node1&#45;&gt;Node4 -->
<g id="edge3" class="edge"><title>Node1&#45;&gt;Node4</title>
<path fill="none" stroke="midnightblue" d="M110.973,-41.9383C139.039,-34.8815 173.976,-26.0976 200.102,-19.5287"/>
<polygon fill="midnightblue" stroke="midnightblue" points="109.817,-38.6198 100.972,-44.4527 111.524,-45.4085 109.817,-38.6198"/>
</g>
<!-- Node5 -->
<g id="node5" class="node"><title>Node5</title>
<g id="a_node5"><a xlink:href="../../d3/d88/classmodel_1_1_slogo_model.html#a4dd110d0980b463d7b3130e3ad3393e6" target="_top" xlink:title="model.SlogoModel.toggleTurtle">
<polygon fill="white" stroke="black" points="354,-0.5 354,-19.5 518,-19.5 518,-0.5 354,-0.5"/>
<text text-anchor="middle" x="436" y="-7.5" font-family="Helvetica,sans-Serif" font-size="10.00">model.SlogoModel.toggleTurtle</text>
</a>
</g>
</g>
<!-- Node4&#45;&gt;Node5 -->
<g id="edge4" class="edge"><title>Node4&#45;&gt;Node5</title>
<path fill="none" stroke="midnightblue" d="M318.79,-10C330.341,-10 342.257,-10 353.854,-10"/>
<polygon fill="midnightblue" stroke="midnightblue" points="318.75,-6.5001 308.75,-10 318.75,-13.5001 318.75,-6.5001"/>
</g>
<!-- Node6 -->
<g id="node6" class="node"><title>Node6</title>
<g id="a_node6"><a xlink:href="../../dd/dc5/classview_1_1_settings_view.html#a4ad3e69e9ba90e013df06b1f7b5ef6d0" target="_top" xlink:title="view.SettingsView.addButtons">
<polygon fill="white" stroke="black" points="554,-0.5 554,-19.5 712,-19.5 712,-0.5 554,-0.5"/>
<text text-anchor="middle" x="633" y="-7.5" font-family="Helvetica,sans-Serif" font-size="10.00">view.SettingsView.addButtons</text>
</a>
</g>
</g>
<!-- Node5&#45;&gt;Node6 -->
<g id="edge5" class="edge"><title>Node5&#45;&gt;Node6</title>
<path fill="none" stroke="midnightblue" d="M528.043,-10C536.636,-10 545.295,-10 553.754,-10"/>
<polygon fill="midnightblue" stroke="midnightblue" points="528.004,-6.5001 518.003,-10 528.003,-13.5001 528.004,-6.5001"/>
</g>
<!-- Node7 -->
<g id="node7" class="node"><title>Node7</title>
<g id="a_node7"><a xlink:href="../../dd/dc5/classview_1_1_settings_view.html#a34b8df753ce7a3b7d917a01ff315edc8" target="_top" xlink:title="view.SettingsView.SettingsView">
<polygon fill="white" stroke="black" points="748,-0.5 748,-19.5 912,-19.5 912,-0.5 748,-0.5"/>
<text text-anchor="middle" x="830" y="-7.5" font-family="Helvetica,sans-Serif" font-size="10.00">view.SettingsView.SettingsView</text>
</a>
</g>
</g>
<!-- Node6&#45;&gt;Node7 -->
<g id="edge6" class="edge"><title>Node6&#45;&gt;Node7</title>
<path fill="none" stroke="midnightblue" d="M722.191,-10C730.761,-10 739.428,-10 747.924,-10"/>
<polygon fill="midnightblue" stroke="midnightblue" points="722.19,-6.5001 712.19,-10 722.19,-13.5001 722.19,-6.5001"/>
</g>
</g>
</svg>
