<?xml version="1.0" encoding="UTF-8" standalone="no"?>
<!DOCTYPE svg PUBLIC "-//W3C//DTD SVG 1.1//EN"
 "http://www.w3.org/Graphics/SVG/1.1/DTD/svg11.dtd">
<!-- Generated by graphviz version 2.36.0 (20140111.2315)
 -->
<!-- Title: model.Turtle.clear Pages: 1 -->
<svg width="866pt" height="77pt"
 viewBox="0.00 0.00 866.00 77.00" xmlns="http://www.w3.org/2000/svg" xmlns:xlink="http://www.w3.org/1999/xlink">
<g id="graph0" class="graph" transform="scale(1 1) rotate(0) translate(4 73)">
<title>model.Turtle.clear</title>
<polygon fill="white" stroke="none" points="-4,4 -4,-73 862,-73 862,4 -4,4"/>
<!-- Node1 -->
<g id="node1" class="node"><title>Node1</title>
<polygon fill="#bfbfbf" stroke="black" points="0.5,-27.5 0.5,-46.5 101.5,-46.5 101.5,-27.5 0.5,-27.5"/>
<text text-anchor="middle" x="51" y="-34.5" font-family="Helvetica,sans-Serif" font-size="10.00">model.Turtle.clear</text>
</g>
<!-- Node2 -->
<g id="node2" class="node"><title>Node2</title>
<g id="a_node2"><a xlink:href="../../d8/d36/classmodel_1_1_observable_data.html#ad2bff2456394e252a20722f2b15e61d5" target="_top" xlink:title="model.ObservableData.clear">
<polygon fill="white" stroke="black" points="140.5,-49.5 140.5,-68.5 293.5,-68.5 293.5,-49.5 140.5,-49.5"/>
<text text-anchor="middle" x="217" y="-56.5" font-family="Helvetica,sans-Serif" font-size="10.00">model.ObservableData.clear</text>
</a>
</g>
</g>
<!-- Node1&#45;&gt;Node2 -->
<g id="edge1" class="edge"><title>Node1&#45;&gt;Node2</title>
<path fill="none" stroke="midnightblue" d="M111.807,-45.0229C122.606,-46.4715 133.96,-47.9947 145.041,-49.4811"/>
<polygon fill="midnightblue" stroke="midnightblue" points="112.027,-41.5211 101.65,-43.6604 111.096,-48.459 112.027,-41.5211"/>
</g>
<!-- Node6 -->
<g id="node6" class="node"><title>Node6</title>
<g id="a_node6"><a xlink:href="../../dd/d40/classinstructions_1_1commands_1_1_clear_screen.html#aafb8d43e9ee4c464de84de2f8ee2294d" target="_top" xlink:title="instructions.commands.Clear\lScreen.execute">
<polygon fill="white" stroke="black" points="138.5,-0 138.5,-30 295.5,-30 295.5,-0 138.5,-0"/>
<text text-anchor="start" x="146.5" y="-18" font-family="Helvetica,sans-Serif" font-size="10.00">instructions.commands.Clear</text>
<text text-anchor="middle" x="217" y="-7" font-family="Helvetica,sans-Serif" font-size="10.00">Screen.execute</text>
</a>
</g>
</g>
<!-- Node1&#45;&gt;Node6 -->
<g id="edge5" class="edge"><title>Node1&#45;&gt;Node6</title>
<path fill="none" stroke="midnightblue" d="M111.653,-28.9978C120.337,-27.8329 129.383,-26.6194 138.359,-25.4153"/>
<polygon fill="midnightblue" stroke="midnightblue" points="111.096,-25.541 101.65,-30.3396 112.027,-32.4789 111.096,-25.541"/>
</g>
<!-- Node3 -->
<g id="node3" class="node"><title>Node3</title>
<g id="a_node3"><a xlink:href="../../d3/d88/classmodel_1_1_slogo_model.html#abfeceb3da7ed60166c8137597cacc2fc" target="_top" xlink:title="model.SlogoModel.clear">
<polygon fill="white" stroke="black" points="332.5,-49.5 332.5,-68.5 463.5,-68.5 463.5,-49.5 332.5,-49.5"/>
<text text-anchor="middle" x="398" y="-56.5" font-family="Helvetica,sans-Serif" font-size="10.00">model.SlogoModel.clear</text>
</a>
</g>
</g>
<!-- Node2&#45;&gt;Node3 -->
<g id="edge2" class="edge"><title>Node2&#45;&gt;Node3</title>
<path fill="none" stroke="midnightblue" d="M303.675,-59C313.331,-59 323.046,-59 332.37,-59"/>
<polygon fill="midnightblue" stroke="midnightblue" points="303.653,-55.5001 293.653,-59 303.653,-62.5001 303.653,-55.5001"/>
</g>
<!-- Node4 -->
<g id="node4" class="node"><title>Node4</title>
<g id="a_node4"><a xlink:href="../../dd/dc5/classview_1_1_settings_view.html#a4ad3e69e9ba90e013df06b1f7b5ef6d0" target="_top" xlink:title="view.SettingsView.addButtons">
<polygon fill="white" stroke="black" points="500,-49.5 500,-68.5 658,-68.5 658,-49.5 500,-49.5"/>
<text text-anchor="middle" x="579" y="-56.5" font-family="Helvetica,sans-Serif" font-size="10.00">view.SettingsView.addButtons</text>
</a>
</g>
</g>
<!-- Node3&#45;&gt;Node4 -->
<g id="edge3" class="edge"><title>Node3&#45;&gt;Node4</title>
<path fill="none" stroke="midnightblue" d="M473.636,-59C482.256,-59 491.065,-59 499.732,-59"/>
<polygon fill="midnightblue" stroke="midnightblue" points="473.623,-55.5001 463.623,-59 473.623,-62.5001 473.623,-55.5001"/>
</g>
<!-- Node5 -->
<g id="node5" class="node"><title>Node5</title>
<g id="a_node5"><a xlink:href="../../dd/dc5/classview_1_1_settings_view.html#a34b8df753ce7a3b7d917a01ff315edc8" target="_top" xlink:title="view.SettingsView.SettingsView">
<polygon fill="white" stroke="black" points="694,-49.5 694,-68.5 858,-68.5 858,-49.5 694,-49.5"/>
<text text-anchor="middle" x="776" y="-56.5" font-family="Helvetica,sans-Serif" font-size="10.00">view.SettingsView.SettingsView</text>
</a>
</g>
</g>
<!-- Node4&#45;&gt;Node5 -->
<g id="edge4" class="edge"><title>Node4&#45;&gt;Node5</title>
<path fill="none" stroke="midnightblue" d="M668.191,-59C676.761,-59 685.428,-59 693.924,-59"/>
<polygon fill="midnightblue" stroke="midnightblue" points="668.19,-55.5001 658.19,-59 668.19,-62.5001 668.19,-55.5001"/>
</g>
</g>
</svg>
