<?xml version="1.0" encoding="UTF-8" standalone="no"?>
<!DOCTYPE svg PUBLIC "-//W3C//DTD SVG 1.1//EN"
 "http://www.w3.org/Graphics/SVG/1.1/DTD/svg11.dtd">
<!-- Generated by graphviz version 2.36.0 (20140111.2315)
 -->
<!-- Title: model.Turtle.getCoordinates Pages: 1 -->
<svg width="428pt" height="115pt"
 viewBox="0.00 0.00 428.00 115.00" xmlns="http://www.w3.org/2000/svg" xmlns:xlink="http://www.w3.org/1999/xlink">
<g id="graph0" class="graph" transform="scale(1 1) rotate(0) translate(4 111)">
<title>model.Turtle.getCoordinates</title>
<polygon fill="white" stroke="none" points="-4,4 -4,-111 424,-111 424,4 -4,4"/>
<!-- Node1 -->
<g id="node1" class="node"><title>Node1</title>
<polygon fill="#bfbfbf" stroke="black" points="0,-49.5 0,-68.5 152,-68.5 152,-49.5 0,-49.5"/>
<text text-anchor="middle" x="76" y="-56.5" font-family="Helvetica,sans-Serif" font-size="10.00">model.Turtle.getCoordinates</text>
</g>
<!-- Node2 -->
<g id="node2" class="node"><title>Node2</title>
<g id="a_node2"><a xlink:href="../../d0/d94/classinstructions_1_1commands_1_1_x_coordinate.html#a56e3908846e33a9ad81a0949a5e77d40" target="_top" xlink:title="instructions.commands.XCoordinate.execute">
<polygon fill="white" stroke="black" points="188.5,-87.5 188.5,-106.5 419.5,-106.5 419.5,-87.5 188.5,-87.5"/>
<text text-anchor="middle" x="304" y="-94.5" font-family="Helvetica,sans-Serif" font-size="10.00">instructions.commands.XCoordinate.execute</text>
</a>
</g>
</g>
<!-- Node1&#45;&gt;Node2 -->
<g id="edge1" class="edge"><title>Node1&#45;&gt;Node2</title>
<path fill="none" stroke="midnightblue" d="M142.507,-70.2776C157.456,-72.8333 173.275,-75.5233 188,-78 206.559,-81.1214 226.81,-84.4825 245.076,-87.497"/>
<polygon fill="midnightblue" stroke="midnightblue" points="142.768,-66.7715 132.32,-68.5341 141.587,-73.6711 142.768,-66.7715"/>
</g>
<!-- Node3 -->
<g id="node3" class="node"><title>Node3</title>
<g id="a_node3"><a xlink:href="../../d8/d5d/classinstructions_1_1commands_1_1_y_coordinate.html#a5c5ac5bec7d2ab74992b957fdbf54490" target="_top" xlink:title="instructions.commands.YCoordinate.execute">
<polygon fill="white" stroke="black" points="189,-49.5 189,-68.5 419,-68.5 419,-49.5 189,-49.5"/>
<text text-anchor="middle" x="304" y="-56.5" font-family="Helvetica,sans-Serif" font-size="10.00">instructions.commands.YCoordinate.execute</text>
</a>
</g>
</g>
<!-- Node1&#45;&gt;Node3 -->
<g id="edge2" class="edge"><title>Node1&#45;&gt;Node3</title>
<path fill="none" stroke="midnightblue" d="M162.356,-59C171.064,-59 180.005,-59 188.955,-59"/>
<polygon fill="midnightblue" stroke="midnightblue" points="162.255,-55.5001 152.255,-59 162.255,-62.5001 162.255,-55.5001"/>
</g>
<!-- Node4 -->
<g id="node4" class="node"><title>Node4</title>
<g id="a_node4"><a xlink:href="../../dd/d40/classinstructions_1_1commands_1_1_clear_screen.html#aafb8d43e9ee4c464de84de2f8ee2294d" target="_top" xlink:title="instructions.commands.Clear\lScreen.execute">
<polygon fill="white" stroke="black" points="225.5,-0 225.5,-30 382.5,-30 382.5,-0 225.5,-0"/>
<text text-anchor="start" x="233.5" y="-18" font-family="Helvetica,sans-Serif" font-size="10.00">instructions.commands.Clear</text>
<text text-anchor="middle" x="304" y="-7" font-family="Helvetica,sans-Serif" font-size="10.00">Screen.execute</text>
</a>
</g>
</g>
<!-- Node1&#45;&gt;Node4 -->
<g id="edge3" class="edge"><title>Node1&#45;&gt;Node4</title>
<path fill="none" stroke="midnightblue" d="M135.866,-47.5394C163.269,-42.2042 196.234,-35.7863 225.619,-30.0654"/>
<polygon fill="midnightblue" stroke="midnightblue" points="135.185,-44.1061 126.039,-49.4527 136.523,-50.977 135.185,-44.1061"/>
</g>
</g>
</svg>
