<?xml version="1.0" encoding="UTF-8" standalone="no"?>
<!DOCTYPE svg PUBLIC "-//W3C//DTD SVG 1.1//EN"
 "http://www.w3.org/Graphics/SVG/1.1/DTD/svg11.dtd">
<!-- Generated by graphviz version 2.36.0 (20140111.2315)
 -->
<!-- Title: model.Turtle.getShapeList Pages: 1 -->
<svg width="336pt" height="87pt"
 viewBox="0.00 0.00 336.00 87.00" xmlns="http://www.w3.org/2000/svg" xmlns:xlink="http://www.w3.org/1999/xlink">
<g id="graph0" class="graph" transform="scale(1 1) rotate(0) translate(4 83)">
<title>model.Turtle.getShapeList</title>
<polygon fill="white" stroke="none" points="-4,4 -4,-83 332,-83 332,4 -4,4"/>
<!-- Node1 -->
<g id="node1" class="node"><title>Node1</title>
<polygon fill="#bfbfbf" stroke="black" points="0.5,-29.5 0.5,-48.5 141.5,-48.5 141.5,-29.5 0.5,-29.5"/>
<text text-anchor="middle" x="71" y="-36.5" font-family="Helvetica,sans-Serif" font-size="10.00">model.Turtle.getShapeList</text>
</g>
<!-- Node2 -->
<g id="node2" class="node"><title>Node2</title>
<g id="a_node2"><a xlink:href="../../da/dff/classinstructions_1_1commands_1_1_set_shape.html#ac022bfff09d0c3374c7e4c31f4368a49" target="_top" xlink:title="instructions.commands.Set\lShape.execute">
<polygon fill="white" stroke="black" points="178.5,-49 178.5,-79 327.5,-79 327.5,-49 178.5,-49"/>
<text text-anchor="start" x="186.5" y="-67" font-family="Helvetica,sans-Serif" font-size="10.00">instructions.commands.Set</text>
<text text-anchor="middle" x="253" y="-56" font-family="Helvetica,sans-Serif" font-size="10.00">Shape.execute</text>
</a>
</g>
</g>
<!-- Node1&#45;&gt;Node2 -->
<g id="edge1" class="edge"><title>Node1&#45;&gt;Node2</title>
<path fill="none" stroke="midnightblue" d="M150.483,-49.9004C159.7,-51.1806 169.081,-52.4835 178.231,-53.7543"/>
<polygon fill="midnightblue" stroke="midnightblue" points="150.95,-46.4318 140.564,-48.5227 149.987,-53.3652 150.95,-46.4318"/>
</g>
<!-- Node3 -->
<g id="node3" class="node"><title>Node3</title>
<g id="a_node3"><a xlink:href="../../de/d33/classinstructions_1_1commands_1_1_get_shape.html#a46c2e42d108ded5797101118d2c5c97d" target="_top" xlink:title="instructions.commands.Get\lShape.execute">
<polygon fill="white" stroke="black" points="178.5,-0 178.5,-30 327.5,-30 327.5,-0 178.5,-0"/>
<text text-anchor="start" x="186.5" y="-18" font-family="Helvetica,sans-Serif" font-size="10.00">instructions.commands.Get</text>
<text text-anchor="middle" x="253" y="-7" font-family="Helvetica,sans-Serif" font-size="10.00">Shape.execute</text>
</a>
</g>
</g>
<!-- Node1&#45;&gt;Node3 -->
<g id="edge2" class="edge"><title>Node1&#45;&gt;Node3</title>
<path fill="none" stroke="midnightblue" d="M151.59,-28.388C160.514,-27.1981 169.577,-25.9898 178.42,-24.8107"/>
<polygon fill="midnightblue" stroke="midnightblue" points="151.042,-24.93 141.593,-29.721 151.968,-31.8685 151.042,-24.93"/>
</g>
</g>
</svg>
