<?xml version="1.0" encoding="UTF-8" standalone="no"?>
<!DOCTYPE svg PUBLIC "-//W3C//DTD SVG 1.1//EN"
 "http://www.w3.org/Graphics/SVG/1.1/DTD/svg11.dtd">
<!-- Generated by graphviz version 2.36.0 (20140111.2315)
 -->
<!-- Title: model.Turtle.getTurtleImg Pages: 1 -->
<svg width="340pt" height="87pt"
 viewBox="0.00 0.00 340.00 87.00" xmlns="http://www.w3.org/2000/svg" xmlns:xlink="http://www.w3.org/1999/xlink">
<g id="graph0" class="graph" transform="scale(1 1) rotate(0) translate(4 83)">
<title>model.Turtle.getTurtleImg</title>
<polygon fill="white" stroke="none" points="-4,4 -4,-83 336,-83 336,4 -4,4"/>
<!-- Node1 -->
<g id="node1" class="node"><title>Node1</title>
<polygon fill="#bfbfbf" stroke="black" points="0.5,-29.5 0.5,-48.5 137.5,-48.5 137.5,-29.5 0.5,-29.5"/>
<text text-anchor="middle" x="69" y="-36.5" font-family="Helvetica,sans-Serif" font-size="10.00">model.Turtle.getTurtleImg</text>
</g>
<!-- Node2 -->
<g id="node2" class="node"><title>Node2</title>
<g id="a_node2"><a xlink:href="../../d9/d3c/classinstructions_1_1commands_1_1_show_turtle.html#a26a67e207d1ec3ef02a50113330299ce" target="_top" xlink:title="instructions.commands.Show\lTurtle.execute">
<polygon fill="white" stroke="black" points="174,-49 174,-79 332,-79 332,-49 174,-49"/>
<text text-anchor="start" x="182" y="-67" font-family="Helvetica,sans-Serif" font-size="10.00">instructions.commands.Show</text>
<text text-anchor="middle" x="253" y="-56" font-family="Helvetica,sans-Serif" font-size="10.00">Turtle.execute</text>
</a>
</g>
</g>
<!-- Node1&#45;&gt;Node2 -->
<g id="edge1" class="edge"><title>Node1&#45;&gt;Node2</title>
<path fill="none" stroke="midnightblue" d="M147.614,-49.6612C156.301,-50.8545 165.155,-52.0707 173.849,-53.2649"/>
<polygon fill="midnightblue" stroke="midnightblue" points="147.895,-46.167 137.511,-48.2736 146.942,-53.1019 147.895,-46.167"/>
</g>
<!-- Node3 -->
<g id="node3" class="node"><title>Node3</title>
<g id="a_node3"><a xlink:href="../../de/d33/classinstructions_1_1commands_1_1_get_shape.html#a46c2e42d108ded5797101118d2c5c97d" target="_top" xlink:title="instructions.commands.Get\lShape.execute">
<polygon fill="white" stroke="black" points="178.5,-0 178.5,-30 327.5,-30 327.5,-0 178.5,-0"/>
<text text-anchor="start" x="186.5" y="-18" font-family="Helvetica,sans-Serif" font-size="10.00">instructions.commands.Get</text>
<text text-anchor="middle" x="253" y="-7" font-family="Helvetica,sans-Serif" font-size="10.00">Shape.execute</text>
</a>
</g>
</g>
<!-- Node1&#45;&gt;Node3 -->
<g id="edge2" class="edge"><title>Node1&#45;&gt;Node3</title>
<path fill="none" stroke="midnightblue" d="M147.643,-28.7614C157.87,-27.4127 168.328,-26.0337 178.484,-24.6944"/>
<polygon fill="midnightblue" stroke="midnightblue" points="146.968,-25.32 137.511,-30.0974 147.883,-32.2599 146.968,-25.32"/>
</g>
</g>
</svg>
