<?xml version="1.0" encoding="UTF-8" standalone="no"?>
<!DOCTYPE svg PUBLIC "-//W3C//DTD SVG 1.1//EN"
 "http://www.w3.org/Graphics/SVG/1.1/DTD/svg11.dtd">
<!-- Generated by graphviz version 2.36.0 (20140111.2315)
 -->
<!-- Title: model.Turtle.setCoordinates Pages: 1 -->
<svg width="1164pt" height="280pt"
 viewBox="0.00 0.00 1164.00 280.00" xmlns="http://www.w3.org/2000/svg" xmlns:xlink="http://www.w3.org/1999/xlink">
<g id="graph0" class="graph" transform="scale(1 1) rotate(0) translate(4 276)">
<title>model.Turtle.setCoordinates</title>
<polygon fill="white" stroke="none" points="-4,4 -4,-276 1160,-276 1160,4 -4,4"/>
<!-- Node1 -->
<g id="node1" class="node"><title>Node1</title>
<polygon fill="#bfbfbf" stroke="black" points="0.5,-101.5 0.5,-120.5 151.5,-120.5 151.5,-101.5 0.5,-101.5"/>
<text text-anchor="middle" x="76" y="-108.5" font-family="Helvetica,sans-Serif" font-size="10.00">model.Turtle.setCoordinates</text>
</g>
<!-- Node2 -->
<g id="node2" class="node"><title>Node2</title>
<g id="a_node2"><a xlink:href="../../d6/d34/classmodel_1_1_turtle.html#aa12e02cec0c9313dbd61f53df171b1bd" target="_top" xlink:title="model.Turtle.clear">
<polygon fill="white" stroke="black" points="212.5,-208.5 212.5,-227.5 313.5,-227.5 313.5,-208.5 212.5,-208.5"/>
<text text-anchor="middle" x="263" y="-215.5" font-family="Helvetica,sans-Serif" font-size="10.00">model.Turtle.clear</text>
</a>
</g>
</g>
<!-- Node1&#45;&gt;Node2 -->
<g id="edge1" class="edge"><title>Node1&#45;&gt;Node2</title>
<path fill="none" stroke="midnightblue" d="M102.8,-125.922C141.4,-148.248 213.096,-189.715 245.427,-208.415"/>
<polygon fill="midnightblue" stroke="midnightblue" points="104.153,-122.661 93.7438,-120.684 100.648,-128.721 104.153,-122.661"/>
</g>
<!-- Node8 -->
<g id="node8" class="node"><title>Node8</title>
<g id="a_node8"><a xlink:href="../../d6/d34/classmodel_1_1_turtle.html#a3024f63f36d1f06f8df9951c98538acf" target="_top" xlink:title="model.Turtle.getCoordList">
<polygon fill="white" stroke="black" points="193.5,-120.5 193.5,-139.5 332.5,-139.5 332.5,-120.5 193.5,-120.5"/>
<text text-anchor="middle" x="263" y="-127.5" font-family="Helvetica,sans-Serif" font-size="10.00">model.Turtle.getCoordList</text>
</a>
</g>
</g>
<!-- Node1&#45;&gt;Node8 -->
<g id="edge7" class="edge"><title>Node1&#45;&gt;Node8</title>
<path fill="none" stroke="midnightblue" d="M161.773,-119.706C172.327,-120.79 183.017,-121.888 193.286,-122.943"/>
<polygon fill="midnightblue" stroke="midnightblue" points="162.019,-116.213 151.713,-118.673 161.303,-123.177 162.019,-116.213"/>
</g>
<!-- Node11 -->
<g id="node11" class="node"><title>Node11</title>
<g id="a_node11"><a xlink:href="../../d6/d34/classmodel_1_1_turtle.html#a3bef6e5b68b529d8ff0a6b6e84592587" target="_top" xlink:title="model.Turtle.initializeTurtle">
<polygon fill="white" stroke="black" points="192,-82.5 192,-101.5 334,-101.5 334,-82.5 192,-82.5"/>
<text text-anchor="middle" x="263" y="-89.5" font-family="Helvetica,sans-Serif" font-size="10.00">model.Turtle.initializeTurtle</text>
</a>
</g>
</g>
<!-- Node1&#45;&gt;Node11 -->
<g id="edge10" class="edge"><title>Node1&#45;&gt;Node11</title>
<path fill="none" stroke="midnightblue" d="M161.718,-102.299C171.782,-101.266 181.97,-100.219 191.8,-99.2098"/>
<polygon fill="midnightblue" stroke="midnightblue" points="161.303,-98.8233 151.713,-103.327 162.019,-105.787 161.303,-98.8233"/>
</g>
<!-- Node13 -->
<g id="node13" class="node"><title>Node13</title>
<g id="a_node13"><a xlink:href="../../d6/d34/classmodel_1_1_turtle.html#ac03d013ad4b739b9d269ba8af8119ddb" target="_top" xlink:title="model.Turtle.moveTurtleAnd\lDrawLine">
<polygon fill="white" stroke="black" points="188.5,-33 188.5,-63 337.5,-63 337.5,-33 188.5,-33"/>
<text text-anchor="start" x="196.5" y="-51" font-family="Helvetica,sans-Serif" font-size="10.00">model.Turtle.moveTurtleAnd</text>
<text text-anchor="middle" x="263" y="-40" font-family="Helvetica,sans-Serif" font-size="10.00">DrawLine</text>
</a>
</g>
</g>
<!-- Node1&#45;&gt;Node13 -->
<g id="edge12" class="edge"><title>Node1&#45;&gt;Node13</title>
<path fill="none" stroke="midnightblue" d="M114.544,-98.1051C136.042,-90.7318 163.528,-81.3226 188,-73 197.5,-69.769 207.692,-66.317 217.38,-63.0417"/>
<polygon fill="midnightblue" stroke="midnightblue" points="113.139,-94.8868 104.816,-101.443 115.411,-101.508 113.139,-94.8868"/>
</g>
<!-- Node3 -->
<g id="node3" class="node"><title>Node3</title>
<g id="a_node3"><a xlink:href="../../d8/d36/classmodel_1_1_observable_data.html#ad2bff2456394e252a20722f2b15e61d5" target="_top" xlink:title="model.ObservableData.clear">
<polygon fill="white" stroke="black" points="407.5,-252.5 407.5,-271.5 560.5,-271.5 560.5,-252.5 407.5,-252.5"/>
<text text-anchor="middle" x="484" y="-259.5" font-family="Helvetica,sans-Serif" font-size="10.00">model.ObservableData.clear</text>
</a>
</g>
</g>
<!-- Node2&#45;&gt;Node3 -->
<g id="edge2" class="edge"><title>Node2&#45;&gt;Node3</title>
<path fill="none" stroke="midnightblue" d="M315.886,-229.693C334.22,-233.726 355.001,-238.185 374,-242 391.92,-245.598 411.55,-249.28 429.154,-252.488"/>
<polygon fill="midnightblue" stroke="midnightblue" points="316.499,-226.244 305.98,-227.503 314.989,-233.079 316.499,-226.244"/>
</g>
<!-- Node7 -->
<g id="node7" class="node"><title>Node7</title>
<g id="a_node7"><a xlink:href="../../dd/d40/classinstructions_1_1commands_1_1_clear_screen.html#aafb8d43e9ee4c464de84de2f8ee2294d" target="_top" xlink:title="instructions.commands.Clear\lScreen.execute">
<polygon fill="white" stroke="black" points="405.5,-203 405.5,-233 562.5,-233 562.5,-203 405.5,-203"/>
<text text-anchor="start" x="413.5" y="-221" font-family="Helvetica,sans-Serif" font-size="10.00">instructions.commands.Clear</text>
<text text-anchor="middle" x="484" y="-210" font-family="Helvetica,sans-Serif" font-size="10.00">Screen.execute</text>
</a>
</g>
</g>
<!-- Node2&#45;&gt;Node7 -->
<g id="edge6" class="edge"><title>Node2&#45;&gt;Node7</title>
<path fill="none" stroke="midnightblue" d="M323.795,-218C348.885,-218 378.395,-218 405.148,-218"/>
<polygon fill="midnightblue" stroke="midnightblue" points="323.695,-214.5 313.694,-218 323.694,-221.5 323.695,-214.5"/>
</g>
<!-- Node4 -->
<g id="node4" class="node"><title>Node4</title>
<g id="a_node4"><a xlink:href="../../d3/d88/classmodel_1_1_slogo_model.html#abfeceb3da7ed60166c8137597cacc2fc" target="_top" xlink:title="model.SlogoModel.clear">
<polygon fill="white" stroke="black" points="630.5,-252.5 630.5,-271.5 761.5,-271.5 761.5,-252.5 630.5,-252.5"/>
<text text-anchor="middle" x="696" y="-259.5" font-family="Helvetica,sans-Serif" font-size="10.00">model.SlogoModel.clear</text>
</a>
</g>
</g>
<!-- Node3&#45;&gt;Node4 -->
<g id="edge3" class="edge"><title>Node3&#45;&gt;Node4</title>
<path fill="none" stroke="midnightblue" d="M570.521,-262C590.45,-262 611.349,-262 630.209,-262"/>
<polygon fill="midnightblue" stroke="midnightblue" points="570.518,-258.5 560.518,-262 570.518,-265.5 570.518,-258.5"/>
</g>
<!-- Node5 -->
<g id="node5" class="node"><title>Node5</title>
<g id="a_node5"><a xlink:href="../../dd/dc5/classview_1_1_settings_view.html#a4ad3e69e9ba90e013df06b1f7b5ef6d0" target="_top" xlink:title="view.SettingsView.addButtons">
<polygon fill="white" stroke="black" points="798,-252.5 798,-271.5 956,-271.5 956,-252.5 798,-252.5"/>
<text text-anchor="middle" x="877" y="-259.5" font-family="Helvetica,sans-Serif" font-size="10.00">view.SettingsView.addButtons</text>
</a>
</g>
</g>
<!-- Node4&#45;&gt;Node5 -->
<g id="edge4" class="edge"><title>Node4&#45;&gt;Node5</title>
<path fill="none" stroke="midnightblue" d="M771.636,-262C780.256,-262 789.065,-262 797.732,-262"/>
<polygon fill="midnightblue" stroke="midnightblue" points="771.623,-258.5 761.623,-262 771.623,-265.5 771.623,-258.5"/>
</g>
<!-- Node6 -->
<g id="node6" class="node"><title>Node6</title>
<g id="a_node6"><a xlink:href="../../dd/dc5/classview_1_1_settings_view.html#a34b8df753ce7a3b7d917a01ff315edc8" target="_top" xlink:title="view.SettingsView.SettingsView">
<polygon fill="white" stroke="black" points="992,-252.5 992,-271.5 1156,-271.5 1156,-252.5 992,-252.5"/>
<text text-anchor="middle" x="1074" y="-259.5" font-family="Helvetica,sans-Serif" font-size="10.00">view.SettingsView.SettingsView</text>
</a>
</g>
</g>
<!-- Node5&#45;&gt;Node6 -->
<g id="edge5" class="edge"><title>Node5&#45;&gt;Node6</title>
<path fill="none" stroke="midnightblue" d="M966.191,-262C974.761,-262 983.428,-262 991.924,-262"/>
<polygon fill="midnightblue" stroke="midnightblue" points="966.19,-258.5 956.19,-262 966.19,-265.5 966.19,-258.5"/>
</g>
<!-- Node9 -->
<g id="node9" class="node"><title>Node9</title>
<g id="a_node9"><a xlink:href="../../d3/d16/classinstructions_1_1commands_1_1_home.html#a1f8a8a072657d0c9b6816e90d785308c" target="_top" xlink:title="instructions.commands.Home.execute">
<polygon fill="white" stroke="black" points="382.5,-164.5 382.5,-183.5 585.5,-183.5 585.5,-164.5 382.5,-164.5"/>
<text text-anchor="middle" x="484" y="-171.5" font-family="Helvetica,sans-Serif" font-size="10.00">instructions.commands.Home.execute</text>
</a>
</g>
</g>
<!-- Node8&#45;&gt;Node9 -->
<g id="edge8" class="edge"><title>Node8&#45;&gt;Node9</title>
<path fill="none" stroke="midnightblue" d="M315.886,-141.693C334.22,-145.726 355.001,-150.185 374,-154 391.92,-157.598 411.55,-161.28 429.154,-164.488"/>
<polygon fill="midnightblue" stroke="midnightblue" points="316.499,-138.244 305.98,-139.503 314.989,-145.079 316.499,-138.244"/>
</g>
<!-- Node10 -->
<g id="node10" class="node"><title>Node10</title>
<g id="a_node10"><a xlink:href="../../da/d22/classinstructions_1_1commands_1_1_set_position.html#a6a0f48e1a66d7fc7574ff5ad60ee9c33" target="_top" xlink:title="instructions.commands.Set\lPosition.execute">
<polygon fill="white" stroke="black" points="409.5,-115 409.5,-145 558.5,-145 558.5,-115 409.5,-115"/>
<text text-anchor="start" x="417.5" y="-133" font-family="Helvetica,sans-Serif" font-size="10.00">instructions.commands.Set</text>
<text text-anchor="middle" x="484" y="-122" font-family="Helvetica,sans-Serif" font-size="10.00">Position.execute</text>
</a>
</g>
</g>
<!-- Node8&#45;&gt;Node10 -->
<g id="edge9" class="edge"><title>Node8&#45;&gt;Node10</title>
<path fill="none" stroke="midnightblue" d="M342.834,-130C364.489,-130 387.883,-130 409.241,-130"/>
<polygon fill="midnightblue" stroke="midnightblue" points="342.692,-126.5 332.692,-130 342.692,-133.5 342.692,-126.5"/>
</g>
<!-- Node12 -->
<g id="node12" class="node"><title>Node12</title>
<g id="a_node12"><a xlink:href="../../d6/d34/classmodel_1_1_turtle.html#ab6189547e57f3e1c27ea2bb3c5925bc6" target="_top" xlink:title="model.Turtle.Turtle">
<polygon fill="white" stroke="black" points="432,-76.5 432,-95.5 536,-95.5 536,-76.5 432,-76.5"/>
<text text-anchor="middle" x="484" y="-83.5" font-family="Helvetica,sans-Serif" font-size="10.00">model.Turtle.Turtle</text>
</a>
</g>
</g>
<!-- Node11&#45;&gt;Node12 -->
<g id="edge11" class="edge"><title>Node11&#45;&gt;Node12</title>
<path fill="none" stroke="midnightblue" d="M344.406,-89.7971C373.665,-88.9955 405.913,-88.112 431.934,-87.3991"/>
<polygon fill="midnightblue" stroke="midnightblue" points="344.097,-86.3042 334.197,-90.0768 344.289,-93.3015 344.097,-86.3042"/>
</g>
<!-- Node14 -->
<g id="node14" class="node"><title>Node14</title>
<g id="a_node14"><a xlink:href="../../d7/dab/classinstructions_1_1commands_1_1_forward.html#a8dd30560e81b026bf436c1502534cdfd" target="_top" xlink:title="instructions.commands.Forward.execute">
<polygon fill="white" stroke="black" points="378.5,-38.5 378.5,-57.5 589.5,-57.5 589.5,-38.5 378.5,-38.5"/>
<text text-anchor="middle" x="484" y="-45.5" font-family="Helvetica,sans-Serif" font-size="10.00">instructions.commands.Forward.execute</text>
</a>
</g>
</g>
<!-- Node13&#45;&gt;Node14 -->
<g id="edge13" class="edge"><title>Node13&#45;&gt;Node14</title>
<path fill="none" stroke="midnightblue" d="M347.762,-48C357.697,-48 367.931,-48 378.112,-48"/>
<polygon fill="midnightblue" stroke="midnightblue" points="347.533,-44.5001 337.533,-48 347.533,-51.5001 347.533,-44.5001"/>
</g>
<!-- Node15 -->
<g id="node15" class="node"><title>Node15</title>
<g id="a_node15"><a xlink:href="../../d9/da9/classinstructions_1_1commands_1_1_backward.html#a8f3dbbeb56ad5c4b7a64cabcc2d63daa" target="_top" xlink:title="instructions.commands.Backward.execute">
<polygon fill="white" stroke="black" points="374.5,-0.5 374.5,-19.5 593.5,-19.5 593.5,-0.5 374.5,-0.5"/>
<text text-anchor="middle" x="484" y="-7.5" font-family="Helvetica,sans-Serif" font-size="10.00">instructions.commands.Backward.execute</text>
</a>
</g>
</g>
<!-- Node13&#45;&gt;Node15 -->
<g id="edge14" class="edge"><title>Node13&#45;&gt;Node15</title>
<path fill="none" stroke="midnightblue" d="M347.721,-33.4731C374.621,-28.8054 403.723,-23.7558 428.018,-19.5403"/>
<polygon fill="midnightblue" stroke="midnightblue" points="346.787,-30.0827 337.533,-35.2408 347.984,-36.9796 346.787,-30.0827"/>
</g>
</g>
</svg>
