<?xml version="1.0" encoding="UTF-8" standalone="no"?>
<!DOCTYPE svg PUBLIC "-//W3C//DTD SVG 1.1//EN"
 "http://www.w3.org/Graphics/SVG/1.1/DTD/svg11.dtd">
<!-- Generated by graphviz version 2.36.0 (20140111.2315)
 -->
<!-- Title: model.Turtle.getAngle Pages: 1 -->
<svg width="1620pt" height="299pt"
 viewBox="0.00 0.00 1620.00 299.00" xmlns="http://www.w3.org/2000/svg" xmlns:xlink="http://www.w3.org/1999/xlink">
<g id="graph0" class="graph" transform="scale(1 1) rotate(0) translate(4 295)">
<title>model.Turtle.getAngle</title>
<polygon fill="white" stroke="none" points="-4,4 -4,-295 1616,-295 1616,4 -4,4"/>
<!-- Node1 -->
<g id="node1" class="node"><title>Node1</title>
<polygon fill="#bfbfbf" stroke="black" points="0.5,-202.5 0.5,-221.5 121.5,-221.5 121.5,-202.5 0.5,-202.5"/>
<text text-anchor="middle" x="61" y="-209.5" font-family="Helvetica,sans-Serif" font-size="10.00">model.Turtle.getAngle</text>
</g>
<!-- Node2 -->
<g id="node2" class="node"><title>Node2</title>
<g id="a_node2"><a xlink:href="../../dc/dbc/classinstructions_1_1commands_1_1_heading.html#abd05dabc20d22717f68220019bb871a3" target="_top" xlink:title="instructions.commands.Heading.execute">
<polygon fill="white" stroke="black" points="158.5,-271.5 158.5,-290.5 371.5,-290.5 371.5,-271.5 158.5,-271.5"/>
<text text-anchor="middle" x="265" y="-278.5" font-family="Helvetica,sans-Serif" font-size="10.00">instructions.commands.Heading.execute</text>
</a>
</g>
</g>
<!-- Node1&#45;&gt;Node2 -->
<g id="edge1" class="edge"><title>Node1&#45;&gt;Node2</title>
<path fill="none" stroke="midnightblue" d="M86.1794,-226.797C105.097,-237.758 132.4,-252.254 158,-261 170.582,-265.299 184.339,-268.751 197.651,-271.497"/>
<polygon fill="midnightblue" stroke="midnightblue" points="87.7483,-223.659 77.3577,-221.589 84.1894,-229.687 87.7483,-223.659"/>
</g>
<!-- Node3 -->
<g id="node3" class="node"><title>Node3</title>
<g id="a_node3"><a xlink:href="../../de/d12/classinstructions_1_1commands_1_1_set_heading.html#af0af755f7179e359fc1d7635560a1cf4" target="_top" xlink:title="instructions.commands.Set\lHeading.execute">
<polygon fill="white" stroke="black" points="190.5,-222 190.5,-252 339.5,-252 339.5,-222 190.5,-222"/>
<text text-anchor="start" x="198.5" y="-240" font-family="Helvetica,sans-Serif" font-size="10.00">instructions.commands.Set</text>
<text text-anchor="middle" x="265" y="-229" font-family="Helvetica,sans-Serif" font-size="10.00">Heading.execute</text>
</a>
</g>
</g>
<!-- Node1&#45;&gt;Node3 -->
<g id="edge2" class="edge"><title>Node1&#45;&gt;Node3</title>
<path fill="none" stroke="midnightblue" d="M131.548,-220.607C150.486,-222.951 171.062,-225.498 190.225,-227.869"/>
<polygon fill="midnightblue" stroke="midnightblue" points="131.868,-217.12 121.514,-219.366 131.008,-224.067 131.868,-217.12"/>
</g>
<!-- Node4 -->
<g id="node4" class="node"><title>Node4</title>
<g id="a_node4"><a xlink:href="../../d2/d46/classinstructions_1_1commands_1_1_set_towards.html#a0d15df82bf7e36e711a35cf37c57a92c" target="_top" xlink:title="instructions.commands.Set\lTowards.execute">
<polygon fill="white" stroke="black" points="190.5,-173 190.5,-203 339.5,-203 339.5,-173 190.5,-173"/>
<text text-anchor="start" x="198.5" y="-191" font-family="Helvetica,sans-Serif" font-size="10.00">instructions.commands.Set</text>
<text text-anchor="middle" x="265" y="-180" font-family="Helvetica,sans-Serif" font-size="10.00">Towards.execute</text>
</a>
</g>
</g>
<!-- Node1&#45;&gt;Node4 -->
<g id="edge3" class="edge"><title>Node1&#45;&gt;Node4</title>
<path fill="none" stroke="midnightblue" d="M131.548,-203.737C150.486,-201.487 171.062,-199.042 190.225,-196.765"/>
<polygon fill="midnightblue" stroke="midnightblue" points="131.031,-200.274 121.514,-204.929 131.857,-207.225 131.031,-200.274"/>
</g>
<!-- Node5 -->
<g id="node5" class="node"><title>Node5</title>
<g id="a_node5"><a xlink:href="../../d6/d34/classmodel_1_1_turtle.html#a138e6be2a3c83aea4ef698bf9e499bcf" target="_top" xlink:title="model.Turtle.setTurtleInfo">
<polygon fill="white" stroke="black" points="197,-134.5 197,-153.5 333,-153.5 333,-134.5 197,-134.5"/>
<text text-anchor="middle" x="265" y="-141.5" font-family="Helvetica,sans-Serif" font-size="10.00">model.Turtle.setTurtleInfo</text>
</a>
</g>
</g>
<!-- Node1&#45;&gt;Node5 -->
<g id="edge4" class="edge"><title>Node1&#45;&gt;Node5</title>
<path fill="none" stroke="midnightblue" d="M86.1568,-197.136C105.062,-186.14 132.36,-171.629 158,-163 170.315,-158.855 183.756,-155.561 196.804,-152.96"/>
<polygon fill="midnightblue" stroke="midnightblue" points="84.1578,-194.253 77.3416,-202.364 87.7282,-200.274 84.1578,-194.253"/>
</g>
<!-- Node6 -->
<g id="node6" class="node"><title>Node6</title>
<g id="a_node6"><a xlink:href="../../d6/d34/classmodel_1_1_turtle.html#ab6189547e57f3e1c27ea2bb3c5925bc6" target="_top" xlink:title="model.Turtle.Turtle">
<polygon fill="white" stroke="black" points="888,-253.5 888,-272.5 992,-272.5 992,-253.5 888,-253.5"/>
<text text-anchor="middle" x="940" y="-260.5" font-family="Helvetica,sans-Serif" font-size="10.00">model.Turtle.Turtle</text>
</a>
</g>
</g>
<!-- Node5&#45;&gt;Node6 -->
<g id="edge5" class="edge"><title>Node5&#45;&gt;Node6</title>
<path fill="none" stroke="midnightblue" d="M342.993,-154.503C352.898,-156.81 362.789,-159.609 372,-163 389.383,-169.399 391.13,-176.35 408,-184 488.257,-220.392 509.381,-230.792 596,-247 698.251,-266.133 820.474,-266.616 887.933,-264.985"/>
<polygon fill="midnightblue" stroke="midnightblue" points="343.623,-151.058 333.108,-152.355 342.137,-157.898 343.623,-151.058"/>
</g>
<!-- Node7 -->
<g id="node7" class="node"><title>Node7</title>
<g id="a_node7"><a xlink:href="../../d6/d34/classmodel_1_1_turtle.html#abf987ba62d49c24804d43b464f9b7410" target="_top" xlink:title="model.Turtle.setCoordinates">
<polygon fill="white" stroke="black" points="408.5,-134.5 408.5,-153.5 559.5,-153.5 559.5,-134.5 408.5,-134.5"/>
<text text-anchor="middle" x="484" y="-141.5" font-family="Helvetica,sans-Serif" font-size="10.00">model.Turtle.setCoordinates</text>
</a>
</g>
</g>
<!-- Node5&#45;&gt;Node7 -->
<g id="edge6" class="edge"><title>Node5&#45;&gt;Node7</title>
<path fill="none" stroke="midnightblue" d="M343.373,-144C364.461,-144 387.262,-144 408.204,-144"/>
<polygon fill="midnightblue" stroke="midnightblue" points="343.174,-140.5 333.174,-144 343.174,-147.5 343.174,-140.5"/>
</g>
<!-- Node9 -->
<g id="node9" class="node"><title>Node9</title>
<g id="a_node9"><a xlink:href="../../d6/d34/classmodel_1_1_turtle.html#ac03d013ad4b739b9d269ba8af8119ddb" target="_top" xlink:title="model.Turtle.moveTurtleAnd\lDrawLine">
<polygon fill="white" stroke="black" points="620.5,-169 620.5,-199 769.5,-199 769.5,-169 620.5,-169"/>
<text text-anchor="start" x="628.5" y="-187" font-family="Helvetica,sans-Serif" font-size="10.00">model.Turtle.moveTurtleAnd</text>
<text text-anchor="middle" x="695" y="-176" font-family="Helvetica,sans-Serif" font-size="10.00">DrawLine</text>
</a>
</g>
</g>
<!-- Node5&#45;&gt;Node9 -->
<g id="edge24" class="edge"><title>Node5&#45;&gt;Node9</title>
<path fill="none" stroke="midnightblue" d="M341.029,-154.891C362.616,-157.793 386.215,-160.745 408,-163 480.054,-170.459 562.59,-176.223 620.418,-179.809"/>
<polygon fill="midnightblue" stroke="midnightblue" points="341.32,-151.398 330.939,-153.519 340.376,-158.334 341.32,-151.398"/>
</g>
<!-- Node15 -->
<g id="node15" class="node"><title>Node15</title>
<g id="a_node15"><a xlink:href="../../d6/d34/classmodel_1_1_turtle.html#aa12e02cec0c9313dbd61f53df171b1bd" target="_top" xlink:title="model.Turtle.clear">
<polygon fill="white" stroke="black" points="644.5,-92.5 644.5,-111.5 745.5,-111.5 745.5,-92.5 644.5,-92.5"/>
<text text-anchor="middle" x="695" y="-99.5" font-family="Helvetica,sans-Serif" font-size="10.00">model.Turtle.clear</text>
</a>
</g>
</g>
<!-- Node5&#45;&gt;Node15 -->
<g id="edge25" class="edge"><title>Node5&#45;&gt;Node15</title>
<path fill="none" stroke="midnightblue" d="M341.675,-133.122C363.089,-130.248 386.437,-127.308 408,-125 490.715,-116.146 587.221,-109.056 644.325,-105.197"/>
<polygon fill="midnightblue" stroke="midnightblue" points="341.1,-129.667 331.661,-134.479 342.04,-136.604 341.1,-129.667"/>
</g>
<!-- Node21 -->
<g id="node21" class="node"><title>Node21</title>
<g id="a_node21"><a xlink:href="../../d6/d34/classmodel_1_1_turtle.html#a83b066c32b3610e2b890169df88b94ed" target="_top" xlink:title="model.Turtle.rotate">
<polygon fill="white" stroke="black" points="430.5,-54.5 430.5,-73.5 537.5,-73.5 537.5,-54.5 430.5,-54.5"/>
<text text-anchor="middle" x="484" y="-61.5" font-family="Helvetica,sans-Serif" font-size="10.00">model.Turtle.rotate</text>
</a>
</g>
</g>
<!-- Node5&#45;&gt;Node21 -->
<g id="edge21" class="edge"><title>Node5&#45;&gt;Node21</title>
<path fill="none" stroke="midnightblue" d="M299.524,-130.495C328.191,-119.071 370.619,-102.461 408,-89 422.85,-83.6524 439.494,-78.0644 453.322,-73.531"/>
<polygon fill="midnightblue" stroke="midnightblue" points="297.976,-127.344 289.989,-134.305 300.573,-133.844 297.976,-127.344"/>
</g>
<!-- Node8 -->
<g id="node8" class="node"><title>Node8</title>
<g id="a_node8"><a xlink:href="../../d6/d34/classmodel_1_1_turtle.html#a3bef6e5b68b529d8ff0a6b6e84592587" target="_top" xlink:title="model.Turtle.initializeTurtle">
<polygon fill="white" stroke="black" points="624,-218.5 624,-237.5 766,-237.5 766,-218.5 624,-218.5"/>
<text text-anchor="middle" x="695" y="-225.5" font-family="Helvetica,sans-Serif" font-size="10.00">model.Turtle.initializeTurtle</text>
</a>
</g>
</g>
<!-- Node7&#45;&gt;Node8 -->
<g id="edge7" class="edge"><title>Node7&#45;&gt;Node8</title>
<path fill="none" stroke="midnightblue" d="M506.742,-159.378C528.39,-173.985 563.055,-195.518 596,-208 607.367,-212.307 619.845,-215.753 631.976,-218.489"/>
<polygon fill="midnightblue" stroke="midnightblue" points="508.53,-156.36 498.304,-153.588 504.57,-162.132 508.53,-156.36"/>
</g>
<!-- Node7&#45;&gt;Node9 -->
<g id="edge9" class="edge"><title>Node7&#45;&gt;Node9</title>
<path fill="none" stroke="midnightblue" d="M544.661,-155.418C568.263,-159.936 595.631,-165.173 620.441,-169.922"/>
<polygon fill="midnightblue" stroke="midnightblue" points="545.275,-151.972 534.795,-153.53 543.959,-158.848 545.275,-151.972"/>
</g>
<!-- Node12 -->
<g id="node12" class="node"><title>Node12</title>
<g id="a_node12"><a xlink:href="../../d6/d34/classmodel_1_1_turtle.html#a3024f63f36d1f06f8df9951c98538acf" target="_top" xlink:title="model.Turtle.getCoordList">
<polygon fill="white" stroke="black" points="625.5,-130.5 625.5,-149.5 764.5,-149.5 764.5,-130.5 625.5,-130.5"/>
<text text-anchor="middle" x="695" y="-137.5" font-family="Helvetica,sans-Serif" font-size="10.00">model.Turtle.getCoordList</text>
</a>
</g>
</g>
<!-- Node7&#45;&gt;Node12 -->
<g id="edge12" class="edge"><title>Node7&#45;&gt;Node12</title>
<path fill="none" stroke="midnightblue" d="M569.744,-142.378C588.246,-142.024 607.606,-141.653 625.388,-141.313"/>
<polygon fill="midnightblue" stroke="midnightblue" points="569.5,-138.882 559.569,-142.573 569.634,-145.881 569.5,-138.882"/>
</g>
<!-- Node7&#45;&gt;Node15 -->
<g id="edge15" class="edge"><title>Node7&#45;&gt;Node15</title>
<path fill="none" stroke="midnightblue" d="M540.516,-132.351C558.236,-128.672 577.934,-124.623 596,-121 611.718,-117.848 628.872,-114.493 644.372,-111.494"/>
<polygon fill="midnightblue" stroke="midnightblue" points="539.415,-129.005 530.338,-134.469 540.841,-135.858 539.415,-129.005"/>
</g>
<!-- Node8&#45;&gt;Node6 -->
<g id="edge8" class="edge"><title>Node8&#45;&gt;Node6</title>
<path fill="none" stroke="midnightblue" d="M772.023,-238.95C809.77,-244.387 854.361,-250.809 887.963,-255.649"/>
<polygon fill="midnightblue" stroke="midnightblue" points="772.477,-235.479 762.08,-237.518 771.479,-242.408 772.477,-235.479"/>
</g>
<!-- Node10 -->
<g id="node10" class="node"><title>Node10</title>
<g id="a_node10"><a xlink:href="../../d9/da9/classinstructions_1_1commands_1_1_backward.html#a8f3dbbeb56ad5c4b7a64cabcc2d63daa" target="_top" xlink:title="instructions.commands.Backward.execute">
<polygon fill="white" stroke="black" points="830.5,-176.5 830.5,-195.5 1049.5,-195.5 1049.5,-176.5 830.5,-176.5"/>
<text text-anchor="middle" x="940" y="-183.5" font-family="Helvetica,sans-Serif" font-size="10.00">instructions.commands.Backward.execute</text>
</a>
</g>
</g>
<!-- Node9&#45;&gt;Node10 -->
<g id="edge10" class="edge"><title>Node9&#45;&gt;Node10</title>
<path fill="none" stroke="midnightblue" d="M779.591,-184.688C795.918,-184.822 813.261,-184.965 830.267,-185.105"/>
<polygon fill="midnightblue" stroke="midnightblue" points="779.596,-181.188 769.567,-184.605 779.538,-188.188 779.596,-181.188"/>
</g>
<!-- Node11 -->
<g id="node11" class="node"><title>Node11</title>
<g id="a_node11"><a xlink:href="../../d7/dab/classinstructions_1_1commands_1_1_forward.html#a8dd30560e81b026bf436c1502534cdfd" target="_top" xlink:title="instructions.commands.Forward.execute">
<polygon fill="white" stroke="black" points="834.5,-214.5 834.5,-233.5 1045.5,-233.5 1045.5,-214.5 834.5,-214.5"/>
<text text-anchor="middle" x="940" y="-221.5" font-family="Helvetica,sans-Serif" font-size="10.00">instructions.commands.Forward.execute</text>
</a>
</g>
</g>
<!-- Node9&#45;&gt;Node11 -->
<g id="edge11" class="edge"><title>Node9&#45;&gt;Node11</title>
<path fill="none" stroke="midnightblue" d="M779.786,-197.792C813.192,-203.291 850.819,-209.485 881.104,-214.47"/>
<polygon fill="midnightblue" stroke="midnightblue" points="780.003,-194.281 769.567,-196.11 778.866,-201.188 780.003,-194.281"/>
</g>
<!-- Node13 -->
<g id="node13" class="node"><title>Node13</title>
<g id="a_node13"><a xlink:href="../../d3/d16/classinstructions_1_1commands_1_1_home.html#a1f8a8a072657d0c9b6816e90d785308c" target="_top" xlink:title="instructions.commands.Home.execute">
<polygon fill="white" stroke="black" points="838.5,-88.5 838.5,-107.5 1041.5,-107.5 1041.5,-88.5 838.5,-88.5"/>
<text text-anchor="middle" x="940" y="-95.5" font-family="Helvetica,sans-Serif" font-size="10.00">instructions.commands.Home.execute</text>
</a>
</g>
</g>
<!-- Node12&#45;&gt;Node13 -->
<g id="edge13" class="edge"><title>Node12&#45;&gt;Node13</title>
<path fill="none" stroke="midnightblue" d="M761.152,-128.739C799.408,-122.127 847.238,-113.86 883.658,-107.565"/>
<polygon fill="midnightblue" stroke="midnightblue" points="760.398,-125.317 751.14,-130.47 761.59,-132.215 760.398,-125.317"/>
</g>
<!-- Node14 -->
<g id="node14" class="node"><title>Node14</title>
<g id="a_node14"><a xlink:href="../../da/d22/classinstructions_1_1commands_1_1_set_position.html#a6a0f48e1a66d7fc7574ff5ad60ee9c33" target="_top" xlink:title="instructions.commands.Set\lPosition.execute">
<polygon fill="white" stroke="black" points="865.5,-127 865.5,-157 1014.5,-157 1014.5,-127 865.5,-127"/>
<text text-anchor="start" x="873.5" y="-145" font-family="Helvetica,sans-Serif" font-size="10.00">instructions.commands.Set</text>
<text text-anchor="middle" x="940" y="-134" font-family="Helvetica,sans-Serif" font-size="10.00">Position.execute</text>
</a>
</g>
</g>
<!-- Node12&#45;&gt;Node14 -->
<g id="edge14" class="edge"><title>Node12&#45;&gt;Node14</title>
<path fill="none" stroke="midnightblue" d="M774.789,-140.648C803.907,-140.888 836.774,-141.159 865.412,-141.394"/>
<polygon fill="midnightblue" stroke="midnightblue" points="774.688,-137.148 764.66,-140.565 774.63,-144.147 774.688,-137.148"/>
</g>
<!-- Node16 -->
<g id="node16" class="node"><title>Node16</title>
<g id="a_node16"><a xlink:href="../../d8/d36/classmodel_1_1_observable_data.html#ad2bff2456394e252a20722f2b15e61d5" target="_top" xlink:title="model.ObservableData.clear">
<polygon fill="white" stroke="black" points="863.5,-0.5 863.5,-19.5 1016.5,-19.5 1016.5,-0.5 863.5,-0.5"/>
<text text-anchor="middle" x="940" y="-7.5" font-family="Helvetica,sans-Serif" font-size="10.00">model.ObservableData.clear</text>
</a>
</g>
</g>
<!-- Node15&#45;&gt;Node16 -->
<g id="edge16" class="edge"><title>Node15&#45;&gt;Node16</title>
<path fill="none" stroke="midnightblue" d="M755.676,-98.133C769.082,-95.237 782.675,-90.536 794,-83 818.014,-67.0205 805.836,-44.7516 830,-29 839.977,-22.4964 851.515,-18.0285 863.272,-14.9917"/>
<polygon fill="midnightblue" stroke="midnightblue" points="754.699,-94.7541 745.501,-100.013 755.971,-101.638 754.699,-94.7541"/>
</g>
<!-- Node20 -->
<g id="node20" class="node"><title>Node20</title>
<g id="a_node20"><a xlink:href="../../dd/d40/classinstructions_1_1commands_1_1_clear_screen.html#aafb8d43e9ee4c464de84de2f8ee2294d" target="_top" xlink:title="instructions.commands.Clear\lScreen.execute">
<polygon fill="white" stroke="black" points="861.5,-39 861.5,-69 1018.5,-69 1018.5,-39 861.5,-39"/>
<text text-anchor="start" x="869.5" y="-57" font-family="Helvetica,sans-Serif" font-size="10.00">instructions.commands.Clear</text>
<text text-anchor="middle" x="940" y="-46" font-family="Helvetica,sans-Serif" font-size="10.00">Screen.execute</text>
</a>
</g>
</g>
<!-- Node15&#45;&gt;Node20 -->
<g id="edge20" class="edge"><title>Node15&#45;&gt;Node20</title>
<path fill="none" stroke="midnightblue" d="M755.41,-90.54C768.145,-88.0672 781.522,-85.4574 794,-83 816.795,-78.5107 841.595,-73.5713 864.133,-69.061"/>
<polygon fill="midnightblue" stroke="midnightblue" points="754.514,-87.1484 745.364,-92.4884 755.847,-94.0204 754.514,-87.1484"/>
</g>
<!-- Node17 -->
<g id="node17" class="node"><title>Node17</title>
<g id="a_node17"><a xlink:href="../../d3/d88/classmodel_1_1_slogo_model.html#abfeceb3da7ed60166c8137597cacc2fc" target="_top" xlink:title="model.SlogoModel.clear">
<polygon fill="white" stroke="black" points="1086.5,-0.5 1086.5,-19.5 1217.5,-19.5 1217.5,-0.5 1086.5,-0.5"/>
<text text-anchor="middle" x="1152" y="-7.5" font-family="Helvetica,sans-Serif" font-size="10.00">model.SlogoModel.clear</text>
</a>
</g>
</g>
<!-- Node16&#45;&gt;Node17 -->
<g id="edge17" class="edge"><title>Node16&#45;&gt;Node17</title>
<path fill="none" stroke="midnightblue" d="M1026.52,-10C1046.45,-10 1067.35,-10 1086.21,-10"/>
<polygon fill="midnightblue" stroke="midnightblue" points="1026.52,-6.5001 1016.52,-10 1026.52,-13.5001 1026.52,-6.5001"/>
</g>
<!-- Node18 -->
<g id="node18" class="node"><title>Node18</title>
<g id="a_node18"><a xlink:href="../../dd/dc5/classview_1_1_settings_view.html#a4ad3e69e9ba90e013df06b1f7b5ef6d0" target="_top" xlink:title="view.SettingsView.addButtons">
<polygon fill="white" stroke="black" points="1254,-0.5 1254,-19.5 1412,-19.5 1412,-0.5 1254,-0.5"/>
<text text-anchor="middle" x="1333" y="-7.5" font-family="Helvetica,sans-Serif" font-size="10.00">view.SettingsView.addButtons</text>
</a>
</g>
</g>
<!-- Node17&#45;&gt;Node18 -->
<g id="edge18" class="edge"><title>Node17&#45;&gt;Node18</title>
<path fill="none" stroke="midnightblue" d="M1227.64,-10C1236.26,-10 1245.07,-10 1253.73,-10"/>
<polygon fill="midnightblue" stroke="midnightblue" points="1227.62,-6.5001 1217.62,-10 1227.62,-13.5001 1227.62,-6.5001"/>
</g>
<!-- Node19 -->
<g id="node19" class="node"><title>Node19</title>
<g id="a_node19"><a xlink:href="../../dd/dc5/classview_1_1_settings_view.html#a34b8df753ce7a3b7d917a01ff315edc8" target="_top" xlink:title="view.SettingsView.SettingsView">
<polygon fill="white" stroke="black" points="1448,-0.5 1448,-19.5 1612,-19.5 1612,-0.5 1448,-0.5"/>
<text text-anchor="middle" x="1530" y="-7.5" font-family="Helvetica,sans-Serif" font-size="10.00">view.SettingsView.SettingsView</text>
</a>
</g>
</g>
<!-- Node18&#45;&gt;Node19 -->
<g id="edge19" class="edge"><title>Node18&#45;&gt;Node19</title>
<path fill="none" stroke="midnightblue" d="M1422.19,-10C1430.76,-10 1439.43,-10 1447.92,-10"/>
<polygon fill="midnightblue" stroke="midnightblue" points="1422.19,-6.5001 1412.19,-10 1422.19,-13.5001 1422.19,-6.5001"/>
</g>
<!-- Node22 -->
<g id="node22" class="node"><title>Node22</title>
<g id="a_node22"><a xlink:href="../../d8/dd0/classinstructions_1_1commands_1_1_left.html#ae3fb479ded683475eae5d785e5010b0b" target="_top" xlink:title="instructions.commands.Left.execute">
<polygon fill="white" stroke="black" points="599.5,-16.5 599.5,-35.5 790.5,-35.5 790.5,-16.5 599.5,-16.5"/>
<text text-anchor="middle" x="695" y="-23.5" font-family="Helvetica,sans-Serif" font-size="10.00">instructions.commands.Left.execute</text>
</a>
</g>
</g>
<!-- Node21&#45;&gt;Node22 -->
<g id="edge22" class="edge"><title>Node21&#45;&gt;Node22</title>
<path fill="none" stroke="midnightblue" d="M547.408,-52.653C577.395,-47.2009 612.934,-40.7393 641.509,-35.5439"/>
<polygon fill="midnightblue" stroke="midnightblue" points="546.682,-49.2276 537.47,-54.46 547.935,-56.1147 546.682,-49.2276"/>
</g>
<!-- Node23 -->
<g id="node23" class="node"><title>Node23</title>
<g id="a_node23"><a xlink:href="../../df/dd2/classinstructions_1_1commands_1_1_right.html#a7e743a11dec0ce6dc86c25737c770127" target="_top" xlink:title="instructions.commands.Right.execute">
<polygon fill="white" stroke="black" points="596.5,-54.5 596.5,-73.5 793.5,-73.5 793.5,-54.5 596.5,-54.5"/>
<text text-anchor="middle" x="695" y="-61.5" font-family="Helvetica,sans-Serif" font-size="10.00">instructions.commands.Right.execute</text>
</a>
</g>
</g>
<!-- Node21&#45;&gt;Node23 -->
<g id="edge23" class="edge"><title>Node21&#45;&gt;Node23</title>
<path fill="none" stroke="midnightblue" d="M548.072,-64C563.352,-64 580.042,-64 596.499,-64"/>
<polygon fill="midnightblue" stroke="midnightblue" points="547.74,-60.5001 537.74,-64 547.739,-67.5001 547.74,-60.5001"/>
</g>
</g>
</svg>
