<?xml version="1.0" encoding="UTF-8" standalone="no"?>
<!DOCTYPE svg PUBLIC "-//W3C//DTD SVG 1.1//EN"
 "http://www.w3.org/Graphics/SVG/1.1/DTD/svg11.dtd">
<!-- Generated by graphviz version 2.36.0 (20140111.2315)
 -->
<!-- Title: model.Turtle.setTurtleInfo Pages: 1 -->
<!--zoomable 350 -->
<svg id="main" version="1.1" xmlns="http://www.w3.org/2000/svg" xmlns:xlink="http://www.w3.org/1999/xlink" xml:space="preserve" onload="init(evt)">
<style type="text/css"><![CDATA[
.edge:hover path { stroke: red; }
.edge:hover polygon { stroke: red; fill: red; }
]]></style>
<script type="text/javascript"><![CDATA[
var edges = document.getElementsByTagName('g');
if (edges && edges.length) {
  for (var i=0;i<edges.length;i++) {
    if (edges[i].id.substr(0,4)=='edge') {
      edges[i].setAttribute('class','edge');
    }
  }
}
]]></script>
        <defs>
                <circle id="rim" cx="0" cy="0" r="7"/>
                <circle id="rim2" cx="0" cy="0" r="3.5"/>
                <g id="zoomPlus">
                        <use xlink:href="#rim" fill="#404040">
                                <set attributeName="fill" to="#808080" begin="zoomplus.mouseover" end="zoomplus.mouseout"/>
                        </use>
                        <path d="M-4,0h8M0,-4v8" fill="none" stroke="white" stroke-width="1.5" pointer-events="none"/>
                </g>
                <g id="zoomMin">
                        <use xlink:href="#rim" fill="#404040">
                                <set attributeName="fill" to="#808080" begin="zoomminus.mouseover" end="zoomminus.mouseout"/>
                        </use>
                        <path d="M-4,0h8" fill="none" stroke="white" stroke-width="1.5" pointer-events="none"/>
                </g>
                <g id="dirArrow">
                        <path fill="none" stroke="white" stroke-width="1.5" d="M0,-3.0v7 M-2.5,-0.5L0,-3.0L2.5,-0.5"/>
                </g>
               <g id="resetDef">
                       <use xlink:href="#rim2" fill="#404040">
                               <set attributeName="fill" to="#808080" begin="reset.mouseover" end="reset.mouseout"/>
                       </use>
               </g>
        </defs>

<script type="text/javascript">
var viewWidth = 1384;
var viewHeight = 350;
var sectionId = 'dynsection-34';
</script>
<script xlink:href="../../svgpan.js"/>
<svg id="graph" class="graph">
<g id="viewport">
<title>model.Turtle.setTurtleInfo</title>
<polygon fill="white" stroke="none" points="-4,4 -4,-346 1380,-346 1380,4 -4,4"/>
<!-- Node1 -->
<g id="node1" class="node"><title>Node1</title>
<polygon fill="#bfbfbf" stroke="black" points="0,-153.5 0,-172.5 136,-172.5 136,-153.5 0,-153.5"/>
<text text-anchor="middle" x="68" y="-160.5" font-family="Helvetica,sans-Serif" font-size="10.00">model.Turtle.setTurtleInfo</text>
</g>
<!-- Node2 -->
<g id="node2" class="node"><title>Node2</title>
<g id="a_node2"><a xlink:href="../../d6/d34/classmodel_1_1_turtle.html#aa12e02cec0c9313dbd61f53df171b1bd" target="_top" xlink:title="model.Turtle.clear">
<polygon fill="white" stroke="black" points="408.5,-259.5 408.5,-278.5 509.5,-278.5 509.5,-259.5 408.5,-259.5"/>
<text text-anchor="middle" x="459" y="-266.5" font-family="Helvetica,sans-Serif" font-size="10.00">model.Turtle.clear</text>
</a>
</g>
</g>
<!-- Node1&#45;&gt;Node2 -->
<g id="edge1" class="edge"><title>Node1&#45;&gt;Node2</title>
<path fill="none" stroke="midnightblue" d="M99.6845,-176.67C119.932,-185.325 147.201,-196.297 172,-204 253.451,-229.299 350.753,-249.318 408.295,-260.137"/>
<polygon fill="midnightblue" stroke="midnightblue" points="100.918,-173.39 90.3506,-172.631 98.1385,-179.814 100.918,-173.39"/>
</g>
<!-- Node8 -->
<g id="node8" class="node"><title>Node8</title>
<g id="a_node8"><a xlink:href="../../d6/d34/classmodel_1_1_turtle.html#ac03d013ad4b739b9d269ba8af8119ddb" target="_top" xlink:title="model.Turtle.moveTurtleAnd\lDrawLine">
<polygon fill="white" stroke="black" points="384.5,-191 384.5,-221 533.5,-221 533.5,-191 384.5,-191"/>
<text text-anchor="start" x="392.5" y="-209" font-family="Helvetica,sans-Serif" font-size="10.00">model.Turtle.moveTurtleAnd</text>
<text text-anchor="middle" x="459" y="-198" font-family="Helvetica,sans-Serif" font-size="10.00">DrawLine</text>
</a>
</g>
</g>
<!-- Node1&#45;&gt;Node8 -->
<g id="edge7" class="edge"><title>Node1&#45;&gt;Node8</title>
<path fill="none" stroke="midnightblue" d="M125.456,-174.452C140.531,-177.225 156.844,-179.971 172,-182 243.858,-191.619 326.421,-198.056 384.308,-201.822"/>
<polygon fill="midnightblue" stroke="midnightblue" points="125.721,-170.941 115.247,-172.536 124.43,-177.82 125.721,-170.941"/>
</g>
<!-- Node11 -->
<g id="node11" class="node"><title>Node11</title>
<g id="a_node11"><a xlink:href="../../d6/d34/classmodel_1_1_turtle.html#a83b066c32b3610e2b890169df88b94ed" target="_top" xlink:title="model.Turtle.rotate">
<polygon fill="white" stroke="black" points="194.5,-38.5 194.5,-57.5 301.5,-57.5 301.5,-38.5 194.5,-38.5"/>
<text text-anchor="middle" x="248" y="-45.5" font-family="Helvetica,sans-Serif" font-size="10.00">model.Turtle.rotate</text>
</a>
</g>
</g>
<!-- Node1&#45;&gt;Node11 -->
<g id="edge10" class="edge"><title>Node1&#45;&gt;Node11</title>
<path fill="none" stroke="midnightblue" d="M84.2442,-145.742C103.03,-125.446 136.808,-91.9942 172,-72 182.698,-65.922 195.144,-61.1513 206.786,-57.5199"/>
<polygon fill="midnightblue" stroke="midnightblue" points="81.501,-143.557 77.3685,-153.312 86.6827,-148.263 81.501,-143.557"/>
</g>
<!-- Node14 -->
<g id="node14" class="node"><title>Node14</title>
<g id="a_node14"><a xlink:href="../../d6/d34/classmodel_1_1_turtle.html#abf987ba62d49c24804d43b464f9b7410" target="_top" xlink:title="model.Turtle.setCoordinates">
<polygon fill="white" stroke="black" points="172.5,-153.5 172.5,-172.5 323.5,-172.5 323.5,-153.5 172.5,-153.5"/>
<text text-anchor="middle" x="248" y="-160.5" font-family="Helvetica,sans-Serif" font-size="10.00">model.Turtle.setCoordinates</text>
</a>
</g>
</g>
<!-- Node1&#45;&gt;Node14 -->
<g id="edge13" class="edge"><title>Node1&#45;&gt;Node14</title>
<path fill="none" stroke="midnightblue" d="M146.129,-163C154.801,-163 163.625,-163 172.266,-163"/>
<polygon fill="midnightblue" stroke="midnightblue" points="146.041,-159.5 136.041,-163 146.04,-166.5 146.041,-159.5"/>
</g>
<!-- Node19 -->
<g id="node19" class="node"><title>Node19</title>
<g id="a_node19"><a xlink:href="../../d6/d34/classmodel_1_1_turtle.html#ab6189547e57f3e1c27ea2bb3c5925bc6" target="_top" xlink:title="model.Turtle.Turtle">
<polygon fill="white" stroke="black" points="652,-70.5 652,-89.5 756,-89.5 756,-70.5 652,-70.5"/>
<text text-anchor="middle" x="704" y="-77.5" font-family="Helvetica,sans-Serif" font-size="10.00">model.Turtle.Turtle</text>
</a>
</g>
</g>
<!-- Node1&#45;&gt;Node19 -->
<g id="edge21" class="edge"><title>Node1&#45;&gt;Node19</title>
<path fill="none" stroke="midnightblue" d="M118.687,-151.141C176.366,-137.831 274.523,-116.588 360,-105 463.096,-91.0236 584.757,-84.4911 651.946,-81.7442"/>
<polygon fill="midnightblue" stroke="midnightblue" points="117.696,-147.778 108.746,-153.449 119.279,-154.596 117.696,-147.778"/>
</g>
<!-- Node3 -->
<g id="node3" class="node"><title>Node3</title>
<g id="a_node3"><a xlink:href="../../d8/d36/classmodel_1_1_observable_data.html#ad2bff2456394e252a20722f2b15e61d5" target="_top" xlink:title="model.ObservableData.clear">
<polygon fill="white" stroke="black" points="627.5,-322.5 627.5,-341.5 780.5,-341.5 780.5,-322.5 627.5,-322.5"/>
<text text-anchor="middle" x="704" y="-329.5" font-family="Helvetica,sans-Serif" font-size="10.00">model.ObservableData.clear</text>
</a>
</g>
</g>
<!-- Node2&#45;&gt;Node3 -->
<g id="edge2" class="edge"><title>Node2&#45;&gt;Node3</title>
<path fill="none" stroke="midnightblue" d="M496.104,-281.985C522.868,-291.267 560.38,-303.559 594,-312 609.861,-315.982 627.206,-319.525 643.301,-322.481"/>
<polygon fill="midnightblue" stroke="midnightblue" points="496.998,-278.59 486.403,-278.589 494.685,-285.197 496.998,-278.59"/>
</g>
<!-- Node7 -->
<g id="node7" class="node"><title>Node7</title>
<g id="a_node7"><a xlink:href="../../dd/d40/classinstructions_1_1commands_1_1_clear_screen.html#aafb8d43e9ee4c464de84de2f8ee2294d" target="_top" xlink:title="instructions.commands.Clear\lScreen.execute">
<polygon fill="white" stroke="black" points="625.5,-273 625.5,-303 782.5,-303 782.5,-273 625.5,-273"/>
<text text-anchor="start" x="633.5" y="-291" font-family="Helvetica,sans-Serif" font-size="10.00">instructions.commands.Clear</text>
<text text-anchor="middle" x="704" y="-280" font-family="Helvetica,sans-Serif" font-size="10.00">Screen.execute</text>
</a>
</g>
</g>
<!-- Node2&#45;&gt;Node7 -->
<g id="edge6" class="edge"><title>Node2&#45;&gt;Node7</title>
<path fill="none" stroke="midnightblue" d="M519.785,-273.675C551.539,-276.157 590.951,-279.239 625.075,-281.907"/>
<polygon fill="midnightblue" stroke="midnightblue" points="520.003,-270.181 509.761,-272.891 519.458,-277.16 520.003,-270.181"/>
</g>
<!-- Node4 -->
<g id="node4" class="node"><title>Node4</title>
<g id="a_node4"><a xlink:href="../../d3/d88/classmodel_1_1_slogo_model.html#abfeceb3da7ed60166c8137597cacc2fc" target="_top" xlink:title="model.SlogoModel.clear">
<polygon fill="white" stroke="black" points="850.5,-322.5 850.5,-341.5 981.5,-341.5 981.5,-322.5 850.5,-322.5"/>
<text text-anchor="middle" x="916" y="-329.5" font-family="Helvetica,sans-Serif" font-size="10.00">model.SlogoModel.clear</text>
</a>
</g>
</g>
<!-- Node3&#45;&gt;Node4 -->
<g id="edge3" class="edge"><title>Node3&#45;&gt;Node4</title>
<path fill="none" stroke="midnightblue" d="M790.521,-332C810.45,-332 831.349,-332 850.209,-332"/>
<polygon fill="midnightblue" stroke="midnightblue" points="790.518,-328.5 780.518,-332 790.518,-335.5 790.518,-328.5"/>
</g>
<!-- Node5 -->
<g id="node5" class="node"><title>Node5</title>
<g id="a_node5"><a xlink:href="../../dd/dc5/classview_1_1_settings_view.html#a4ad3e69e9ba90e013df06b1f7b5ef6d0" target="_top" xlink:title="view.SettingsView.addButtons">
<polygon fill="white" stroke="black" points="1018,-322.5 1018,-341.5 1176,-341.5 1176,-322.5 1018,-322.5"/>
<text text-anchor="middle" x="1097" y="-329.5" font-family="Helvetica,sans-Serif" font-size="10.00">view.SettingsView.addButtons</text>
</a>
</g>
</g>
<!-- Node4&#45;&gt;Node5 -->
<g id="edge4" class="edge"><title>Node4&#45;&gt;Node5</title>
<path fill="none" stroke="midnightblue" d="M991.636,-332C1000.26,-332 1009.07,-332 1017.73,-332"/>
<polygon fill="midnightblue" stroke="midnightblue" points="991.623,-328.5 981.623,-332 991.623,-335.5 991.623,-328.5"/>
</g>
<!-- Node6 -->
<g id="node6" class="node"><title>Node6</title>
<g id="a_node6"><a xlink:href="../../dd/dc5/classview_1_1_settings_view.html#a34b8df753ce7a3b7d917a01ff315edc8" target="_top" xlink:title="view.SettingsView.SettingsView">
<polygon fill="white" stroke="black" points="1212,-322.5 1212,-341.5 1376,-341.5 1376,-322.5 1212,-322.5"/>
<text text-anchor="middle" x="1294" y="-329.5" font-family="Helvetica,sans-Serif" font-size="10.00">view.SettingsView.SettingsView</text>
</a>
</g>
</g>
<!-- Node5&#45;&gt;Node6 -->
<g id="edge5" class="edge"><title>Node5&#45;&gt;Node6</title>
<path fill="none" stroke="midnightblue" d="M1186.19,-332C1194.76,-332 1203.43,-332 1211.92,-332"/>
<polygon fill="midnightblue" stroke="midnightblue" points="1186.19,-328.5 1176.19,-332 1186.19,-335.5 1186.19,-328.5"/>
</g>
<!-- Node9 -->
<g id="node9" class="node"><title>Node9</title>
<g id="a_node9"><a xlink:href="../../d7/dab/classinstructions_1_1commands_1_1_forward.html#a8dd30560e81b026bf436c1502534cdfd" target="_top" xlink:title="instructions.commands.Forward.execute">
<polygon fill="white" stroke="black" points="598.5,-234.5 598.5,-253.5 809.5,-253.5 809.5,-234.5 598.5,-234.5"/>
<text text-anchor="middle" x="704" y="-241.5" font-family="Helvetica,sans-Serif" font-size="10.00">instructions.commands.Forward.execute</text>
</a>
</g>
</g>
<!-- Node8&#45;&gt;Node9 -->
<g id="edge8" class="edge"><title>Node8&#45;&gt;Node9</title>
<path fill="none" stroke="midnightblue" d="M543.462,-219.052C575.797,-224.108 612.13,-229.79 641.946,-234.452"/>
<polygon fill="midnightblue" stroke="midnightblue" points="543.988,-215.591 533.567,-217.504 542.907,-222.507 543.988,-215.591"/>
</g>
<!-- Node10 -->
<g id="node10" class="node"><title>Node10</title>
<g id="a_node10"><a xlink:href="../../d9/da9/classinstructions_1_1commands_1_1_backward.html#a8f3dbbeb56ad5c4b7a64cabcc2d63daa" target="_top" xlink:title="instructions.commands.Backward.execute">
<polygon fill="white" stroke="black" points="594.5,-196.5 594.5,-215.5 813.5,-215.5 813.5,-196.5 594.5,-196.5"/>
<text text-anchor="middle" x="704" y="-203.5" font-family="Helvetica,sans-Serif" font-size="10.00">instructions.commands.Backward.execute</text>
</a>
</g>
</g>
<!-- Node8&#45;&gt;Node10 -->
<g id="edge9" class="edge"><title>Node8&#45;&gt;Node10</title>
<path fill="none" stroke="midnightblue" d="M543.591,-206C559.918,-206 577.261,-206 594.267,-206"/>
<polygon fill="midnightblue" stroke="midnightblue" points="543.567,-202.5 533.567,-206 543.567,-209.5 543.567,-202.5"/>
</g>
<!-- Node12 -->
<g id="node12" class="node"><title>Node12</title>
<g id="a_node12"><a xlink:href="../../df/dd2/classinstructions_1_1commands_1_1_right.html#a7e743a11dec0ce6dc86c25737c770127" target="_top" xlink:title="instructions.commands.Right.execute">
<polygon fill="white" stroke="black" points="360.5,-38.5 360.5,-57.5 557.5,-57.5 557.5,-38.5 360.5,-38.5"/>
<text text-anchor="middle" x="459" y="-45.5" font-family="Helvetica,sans-Serif" font-size="10.00">instructions.commands.Right.execute</text>
</a>
</g>
</g>
<!-- Node11&#45;&gt;Node12 -->
<g id="edge11" class="edge"><title>Node11&#45;&gt;Node12</title>
<path fill="none" stroke="midnightblue" d="M312.072,-48C327.352,-48 344.042,-48 360.499,-48"/>
<polygon fill="midnightblue" stroke="midnightblue" points="311.74,-44.5001 301.74,-48 311.739,-51.5001 311.74,-44.5001"/>
</g>
<!-- Node13 -->
<g id="node13" class="node"><title>Node13</title>
<g id="a_node13"><a xlink:href="../../d8/dd0/classinstructions_1_1commands_1_1_left.html#ae3fb479ded683475eae5d785e5010b0b" target="_top" xlink:title="instructions.commands.Left.execute">
<polygon fill="white" stroke="black" points="363.5,-0.5 363.5,-19.5 554.5,-19.5 554.5,-0.5 363.5,-0.5"/>
<text text-anchor="middle" x="459" y="-7.5" font-family="Helvetica,sans-Serif" font-size="10.00">instructions.commands.Left.execute</text>
</a>
</g>
</g>
<!-- Node11&#45;&gt;Node13 -->
<g id="edge12" class="edge"><title>Node11&#45;&gt;Node13</title>
<path fill="none" stroke="midnightblue" d="M311.408,-36.653C341.395,-31.2009 376.934,-24.7393 405.509,-19.5439"/>
<polygon fill="midnightblue" stroke="midnightblue" points="310.682,-33.2276 301.47,-38.46 311.935,-40.1147 310.682,-33.2276"/>
</g>
<!-- Node14&#45;&gt;Node2 -->
<g id="edge14" class="edge"><title>Node14&#45;&gt;Node2</title>
<path fill="none" stroke="midnightblue" d="M271.919,-178.361C293.936,-192.747 328.424,-214.32 360,-230 383.125,-241.483 410.506,-252.148 430.439,-259.412"/>
<polygon fill="midnightblue" stroke="midnightblue" points="273.567,-175.256 263.291,-172.674 269.714,-181.1 273.567,-175.256"/>
</g>
<!-- Node14&#45;&gt;Node8 -->
<g id="edge20" class="edge"><title>Node14&#45;&gt;Node8</title>
<path fill="none" stroke="midnightblue" d="M305.25,-174.573C329.793,-179.622 358.886,-185.608 385.062,-190.994"/>
<polygon fill="midnightblue" stroke="midnightblue" points="305.884,-171.13 295.384,-172.543 304.473,-177.987 305.884,-171.13"/>
</g>
<!-- Node15 -->
<g id="node15" class="node"><title>Node15</title>
<g id="a_node15"><a xlink:href="../../d6/d34/classmodel_1_1_turtle.html#a3024f63f36d1f06f8df9951c98538acf" target="_top" xlink:title="model.Turtle.getCoordList">
<polygon fill="white" stroke="black" points="389.5,-152.5 389.5,-171.5 528.5,-171.5 528.5,-152.5 389.5,-152.5"/>
<text text-anchor="middle" x="459" y="-159.5" font-family="Helvetica,sans-Serif" font-size="10.00">model.Turtle.getCoordList</text>
</a>
</g>
</g>
<!-- Node14&#45;&gt;Node15 -->
<g id="edge15" class="edge"><title>Node14&#45;&gt;Node15</title>
<path fill="none" stroke="midnightblue" d="M333.744,-162.595C352.246,-162.506 371.606,-162.413 389.388,-162.328"/>
<polygon fill="midnightblue" stroke="midnightblue" points="333.552,-159.095 323.569,-162.643 333.585,-166.095 333.552,-159.095"/>
</g>
<!-- Node18 -->
<g id="node18" class="node"><title>Node18</title>
<g id="a_node18"><a xlink:href="../../d6/d34/classmodel_1_1_turtle.html#a3bef6e5b68b529d8ff0a6b6e84592587" target="_top" xlink:title="model.Turtle.initializeTurtle">
<polygon fill="white" stroke="black" points="388,-114.5 388,-133.5 530,-133.5 530,-114.5 388,-114.5"/>
<text text-anchor="middle" x="459" y="-121.5" font-family="Helvetica,sans-Serif" font-size="10.00">model.Turtle.initializeTurtle</text>
</a>
</g>
</g>
<!-- Node14&#45;&gt;Node18 -->
<g id="edge18" class="edge"><title>Node14&#45;&gt;Node18</title>
<path fill="none" stroke="midnightblue" d="M310.304,-151.561C341.054,-145.822 377.861,-138.954 407.039,-133.509"/>
<polygon fill="midnightblue" stroke="midnightblue" points="309.315,-148.184 300.127,-153.46 310.6,-155.066 309.315,-148.184"/>
</g>
<!-- Node16 -->
<g id="node16" class="node"><title>Node16</title>
<g id="a_node16"><a xlink:href="../../d3/d16/classinstructions_1_1commands_1_1_home.html#a1f8a8a072657d0c9b6816e90d785308c" target="_top" xlink:title="instructions.commands.Home.execute">
<polygon fill="white" stroke="black" points="602.5,-108.5 602.5,-127.5 805.5,-127.5 805.5,-108.5 602.5,-108.5"/>
<text text-anchor="middle" x="704" y="-115.5" font-family="Helvetica,sans-Serif" font-size="10.00">instructions.commands.Home.execute</text>
</a>
</g>
</g>
<!-- Node15&#45;&gt;Node16 -->
<g id="edge16" class="edge"><title>Node15&#45;&gt;Node16</title>
<path fill="none" stroke="midnightblue" d="M520.233,-150.605C543.297,-146.283 569.858,-141.356 594,-137 611.391,-133.862 630.36,-130.526 647.526,-127.539"/>
<polygon fill="midnightblue" stroke="midnightblue" points="519.426,-147.195 510.243,-152.48 520.717,-154.075 519.426,-147.195"/>
</g>
<!-- Node17 -->
<g id="node17" class="node"><title>Node17</title>
<g id="a_node17"><a xlink:href="../../da/d22/classinstructions_1_1commands_1_1_set_position.html#a6a0f48e1a66d7fc7574ff5ad60ee9c33" target="_top" xlink:title="instructions.commands.Set\lPosition.execute">
<polygon fill="white" stroke="black" points="629.5,-147 629.5,-177 778.5,-177 778.5,-147 629.5,-147"/>
<text text-anchor="start" x="637.5" y="-165" font-family="Helvetica,sans-Serif" font-size="10.00">instructions.commands.Set</text>
<text text-anchor="middle" x="704" y="-154" font-family="Helvetica,sans-Serif" font-size="10.00">Position.execute</text>
</a>
</g>
</g>
<!-- Node15&#45;&gt;Node17 -->
<g id="edge17" class="edge"><title>Node15&#45;&gt;Node17</title>
<path fill="none" stroke="midnightblue" d="M538.789,-162C567.907,-162 600.774,-162 629.412,-162"/>
<polygon fill="midnightblue" stroke="midnightblue" points="538.66,-158.5 528.66,-162 538.66,-165.5 538.66,-158.5"/>
</g>
<!-- Node18&#45;&gt;Node19 -->
<g id="edge19" class="edge"><title>Node18&#45;&gt;Node19</title>
<path fill="none" stroke="midnightblue" d="M520.233,-112.605C543.297,-108.283 569.858,-103.356 594,-99 612.904,-95.5891 633.671,-91.9439 651.961,-88.7677"/>
<polygon fill="midnightblue" stroke="midnightblue" points="519.426,-109.195 510.243,-114.48 520.717,-116.075 519.426,-109.195"/>
</g>
</g>
</svg>
        <g id="navigator" transform="translate(0 0)" fill="#404254">
                <rect fill="#f2f5e9" fill-opacity="0.5" stroke="#606060" stroke-width=".5" x="0" y="0" width="60" height="60"/>
                <use id="zoomplus" xlink:href="#zoomPlus" x="17" y="9" onmousedown="handleZoom(evt,'in')"/>
                <use id="zoomminus" xlink:href="#zoomMin" x="42" y="9" onmousedown="handleZoom(evt,'out')"/>
                <use id="reset" xlink:href="#resetDef" x="30" y="36" onmousedown="handleReset()"/>
                <g id="arrowUp" xlink:href="#dirArrow" transform="translate(30 24)" onmousedown="handlePan(0,-1)">
                  <use xlink:href="#rim" fill="#404040">
                        <set attributeName="fill" to="#808080" begin="arrowUp.mouseover" end="arrowUp.mouseout"/>
                  </use>
                  <path fill="none" stroke="white" stroke-width="1.5" d="M0,-3.0v7 M-2.5,-0.5L0,-3.0L2.5,-0.5"/>
                </g>
                <g id="arrowRight" xlink:href="#dirArrow" transform="rotate(90) translate(36 -43)" onmousedown="handlePan(1,0)">
                  <use xlink:href="#rim" fill="#404040">
                        <set attributeName="fill" to="#808080" begin="arrowRight.mouseover" end="arrowRight.mouseout"/>
                  </use>
                  <path fill="none" stroke="white" stroke-width="1.5" d="M0,-3.0v7 M-2.5,-0.5L0,-3.0L2.5,-0.5"/>
                </g>
                <g id="arrowDown" xlink:href="#dirArrow" transform="rotate(180) translate(-30 -48)" onmousedown="handlePan(0,1)">
                  <use xlink:href="#rim" fill="#404040">
                        <set attributeName="fill" to="#808080" begin="arrowDown.mouseover" end="arrowDown.mouseout"/>
                  </use>
                  <path fill="none" stroke="white" stroke-width="1.5" d="M0,-3.0v7 M-2.5,-0.5L0,-3.0L2.5,-0.5"/>
                </g>
                <g id="arrowLeft" xlink:href="#dirArrow" transform="rotate(270) translate(-36 17)" onmousedown="handlePan(-1,0)">
                  <use xlink:href="#rim" fill="#404040">
                        <set attributeName="fill" to="#808080" begin="arrowLeft.mouseover" end="arrowLeft.mouseout"/>
                  </use>
                  <path fill="none" stroke="white" stroke-width="1.5" d="M0,-3.0v7 M-2.5,-0.5L0,-3.0L2.5,-0.5"/>
                </g>
        </g>
        <svg viewBox="0 0 15 15" width="100%" height="30px" preserveAspectRatio="xMaxYMin meet">
         <g id="arrow_out" transform="scale(0.3 0.3)">
          <a xlink:href="classmodel_1_1_turtle_a138e6be2a3c83aea4ef698bf9e499bcf_icgraph_org.svg" target="_base">
           <rect id="button" ry="5" rx="5" y="6" x="6" height="38" width="38"
                fill="#f2f5e9" fill-opacity="0.5" stroke="#606060" stroke-width="1.0"/>
           <path id="arrow"
             d="M 11.500037,31.436501 C 11.940474,20.09759 22.043105,11.32322 32.158766,21.979434 L 37.068811,17.246167 C 37.068811,17.246167 37.088388,32 37.088388,32 L 22.160133,31.978069 C 22.160133,31.978069 26.997745,27.140456 26.997745,27.140456 C 18.528582,18.264221 13.291696,25.230495 11.500037,31.436501 z"
             style="fill:#404040;"/>
          </a>
         </g>
        </svg>
</svg>
