<?xml version="1.0" encoding="UTF-8" standalone="no"?>
<!DOCTYPE svg PUBLIC "-//W3C//DTD SVG 1.1//EN"
 "http://www.w3.org/Graphics/SVG/1.1/DTD/svg11.dtd">
<!-- Generated by graphviz version 2.36.0 (20140111.2315)
 -->
<!-- Title: model.Turtle.moveTurtleAndDrawLine Pages: 1 -->
<svg width="676pt" height="134pt"
 viewBox="0.00 0.00 676.00 134.00" xmlns="http://www.w3.org/2000/svg" xmlns:xlink="http://www.w3.org/1999/xlink">
<g id="graph0" class="graph" transform="scale(1 1) rotate(0) translate(4 130)">
<title>model.Turtle.moveTurtleAndDrawLine</title>
<polygon fill="white" stroke="none" points="-4,4 -4,-130 672,-130 672,4 -4,4"/>
<!-- Node1 -->
<g id="node1" class="node"><title>Node1</title>
<polygon fill="#bfbfbf" stroke="black" points="0.5,-33 0.5,-63 149.5,-63 149.5,-33 0.5,-33"/>
<text text-anchor="start" x="8.5" y="-51" font-family="Helvetica,sans-Serif" font-size="10.00">model.Turtle.moveTurtleAnd</text>
<text text-anchor="middle" x="75" y="-40" font-family="Helvetica,sans-Serif" font-size="10.00">DrawLine</text>
</g>
<!-- Node2 -->
<g id="node2" class="node"><title>Node2</title>
<g id="a_node2"><a xlink:href="../../d6/d34/classmodel_1_1_turtle.html#a1f264343c6daebe6a1b07db29b7cbb30" target="_top" xlink:title="model.Turtle.calculateEnd\lCoord">
<polygon fill="white" stroke="black" points="192.5,-96 192.5,-126 331.5,-126 331.5,-96 192.5,-96"/>
<text text-anchor="start" x="200.5" y="-114" font-family="Helvetica,sans-Serif" font-size="10.00">model.Turtle.calculateEnd</text>
<text text-anchor="middle" x="262" y="-103" font-family="Helvetica,sans-Serif" font-size="10.00">Coord</text>
</a>
</g>
</g>
<!-- Node1&#45;&gt;Node2 -->
<g id="edge1" class="edge"><title>Node1&#45;&gt;Node2</title>
<path fill="none" stroke="midnightblue" d="M119.326,-63.0887C139.565,-70.106 163.997,-78.5327 186,-86 192.375,-88.1634 199.06,-90.4156 205.702,-92.643"/>
<polygon fill="midnightblue" stroke="midnightblue" points="204.769,-96.0213 215.363,-95.8755 206.99,-89.3831 204.769,-96.0213"/>
</g>
<!-- Node3 -->
<g id="node3" class="node"><title>Node3</title>
<g id="a_node3"><a xlink:href="../../de/ded/classmodel_1_1_pen.html#ac3ec9470d841cd296e05db47a03596f9" target="_top" xlink:title="model.Pen.drawLine">
<polygon fill="white" stroke="black" points="205.5,-57.5 205.5,-76.5 318.5,-76.5 318.5,-57.5 205.5,-57.5"/>
<text text-anchor="middle" x="262" y="-64.5" font-family="Helvetica,sans-Serif" font-size="10.00">model.Pen.drawLine</text>
</a>
</g>
</g>
<!-- Node1&#45;&gt;Node3 -->
<g id="edge2" class="edge"><title>Node1&#45;&gt;Node3</title>
<path fill="none" stroke="midnightblue" d="M149.648,-55.5639C164.713,-57.111 180.473,-58.7297 195.239,-60.2462"/>
<polygon fill="midnightblue" stroke="midnightblue" points="194.977,-63.7376 205.282,-61.2776 195.692,-56.7742 194.977,-63.7376"/>
</g>
<!-- Node5 -->
<g id="node5" class="node"><title>Node5</title>
<g id="a_node5"><a xlink:href="../../d6/d34/classmodel_1_1_turtle.html#abf987ba62d49c24804d43b464f9b7410" target="_top" xlink:title="model.Turtle.setCoordinates">
<polygon fill="white" stroke="black" points="186.5,-19.5 186.5,-38.5 337.5,-38.5 337.5,-19.5 186.5,-19.5"/>
<text text-anchor="middle" x="262" y="-26.5" font-family="Helvetica,sans-Serif" font-size="10.00">model.Turtle.setCoordinates</text>
</a>
</g>
</g>
<!-- Node1&#45;&gt;Node5 -->
<g id="edge4" class="edge"><title>Node1&#45;&gt;Node5</title>
<path fill="none" stroke="midnightblue" d="M149.648,-40.4361C158.434,-39.5338 167.456,-38.6072 176.38,-37.6907"/>
<polygon fill="midnightblue" stroke="midnightblue" points="176.805,-41.1656 186.395,-36.6621 176.09,-34.2022 176.805,-41.1656"/>
</g>
<!-- Node6 -->
<g id="node6" class="node"><title>Node6</title>
<g id="a_node6"><a xlink:href="../../d6/d34/classmodel_1_1_turtle.html#a138e6be2a3c83aea4ef698bf9e499bcf" target="_top" xlink:title="model.Turtle.setTurtleInfo">
<polygon fill="white" stroke="black" points="374,-0.5 374,-19.5 510,-19.5 510,-0.5 374,-0.5"/>
<text text-anchor="middle" x="442" y="-7.5" font-family="Helvetica,sans-Serif" font-size="10.00">model.Turtle.setTurtleInfo</text>
</a>
</g>
</g>
<!-- Node1&#45;&gt;Node6 -->
<g id="edge7" class="edge"><title>Node1&#45;&gt;Node6</title>
<path fill="none" stroke="midnightblue" d="M109.91,-32.9979C131.274,-24.3801 159.698,-14.4151 186,-10 245.022,-0.0924748 312.818,-0.64873 363.662,-3.38032"/>
<polygon fill="midnightblue" stroke="midnightblue" points="363.735,-6.89031 373.921,-3.97315 364.139,0.098035 363.735,-6.89031"/>
</g>
<!-- Node4 -->
<g id="node4" class="node"><title>Node4</title>
<g id="a_node4"><a xlink:href="../../de/ded/classmodel_1_1_pen.html#ad9374c4c077137d9af9d671f600858ec" target="_top" xlink:title="model.Pen.createLine">
<polygon fill="white" stroke="black" points="381.5,-57.5 381.5,-76.5 502.5,-76.5 502.5,-57.5 381.5,-57.5"/>
<text text-anchor="middle" x="442" y="-64.5" font-family="Helvetica,sans-Serif" font-size="10.00">model.Pen.createLine</text>
</a>
</g>
</g>
<!-- Node3&#45;&gt;Node4 -->
<g id="edge3" class="edge"><title>Node3&#45;&gt;Node4</title>
<path fill="none" stroke="midnightblue" d="M318.832,-67C335.452,-67 353.872,-67 371.262,-67"/>
<polygon fill="midnightblue" stroke="midnightblue" points="371.36,-70.5001 381.36,-67 371.36,-63.5001 371.36,-70.5001"/>
</g>
<!-- Node5&#45;&gt;Node6 -->
<g id="edge5" class="edge"><title>Node5&#45;&gt;Node6</title>
<path fill="none" stroke="midnightblue" d="M337.714,-21.0249C346.33,-20.1052 355.13,-19.1659 363.778,-18.2428"/>
<polygon fill="midnightblue" stroke="midnightblue" points="364.27,-21.7103 373.842,-17.1686 363.527,-14.7498 364.27,-21.7103"/>
</g>
<!-- Node7 -->
<g id="node7" class="node"><title>Node7</title>
<g id="a_node7"><a xlink:href="../../d6/d34/classmodel_1_1_turtle.html#a61d79b71c878b0c64adeab038483da7a" target="_top" xlink:title="model.Turtle.getAngle">
<polygon fill="white" stroke="black" points="546.5,-0.5 546.5,-19.5 667.5,-19.5 667.5,-0.5 546.5,-0.5"/>
<text text-anchor="middle" x="607" y="-7.5" font-family="Helvetica,sans-Serif" font-size="10.00">model.Turtle.getAngle</text>
</a>
</g>
</g>
<!-- Node6&#45;&gt;Node7 -->
<g id="edge6" class="edge"><title>Node6&#45;&gt;Node7</title>
<path fill="none" stroke="midnightblue" d="M510.239,-10C518.875,-10 527.73,-10 536.402,-10"/>
<polygon fill="midnightblue" stroke="midnightblue" points="536.474,-13.5001 546.474,-10 536.474,-6.5001 536.474,-13.5001"/>
</g>
</g>
</svg>
