<?xml version="1.0" encoding="UTF-8" standalone="no"?>
<!DOCTYPE svg PUBLIC "-//W3C//DTD SVG 1.1//EN"
 "http://www.w3.org/Graphics/SVG/1.1/DTD/svg11.dtd">
<!-- Generated by graphviz version 2.36.0 (20140111.2315)
 -->
<!-- Title: model.Turtle.getPen Pages: 1 -->
<svg width="712pt" height="257pt"
 viewBox="0.00 0.00 712.00 257.00" xmlns="http://www.w3.org/2000/svg" xmlns:xlink="http://www.w3.org/1999/xlink">
<g id="graph0" class="graph" transform="scale(1 1) rotate(0) translate(4 253)">
<title>model.Turtle.getPen</title>
<polygon fill="white" stroke="none" points="-4,4 -4,-253 708,-253 708,4 -4,4"/>
<!-- Node1 -->
<g id="node1" class="node"><title>Node1</title>
<polygon fill="#bfbfbf" stroke="black" points="0,-117.5 0,-136.5 112,-136.5 112,-117.5 0,-117.5"/>
<text text-anchor="middle" x="56" y="-124.5" font-family="Helvetica,sans-Serif" font-size="10.00">model.Turtle.getPen</text>
</g>
<!-- Node2 -->
<g id="node2" class="node"><title>Node2</title>
<g id="a_node2"><a xlink:href="../../dd/dc5/classview_1_1_settings_view.html#a8b044653bb3dcbb300082c4103d14249" target="_top" xlink:title="view.SettingsView.addLine\lProperty">
<polygon fill="white" stroke="black" points="355,-219 355,-249 495,-249 495,-219 355,-219"/>
<text text-anchor="start" x="363" y="-237" font-family="Helvetica,sans-Serif" font-size="10.00">view.SettingsView.addLine</text>
<text text-anchor="middle" x="425" y="-226" font-family="Helvetica,sans-Serif" font-size="10.00">Property</text>
</a>
</g>
</g>
<!-- Node1&#45;&gt;Node2 -->
<g id="edge1" class="edge"><title>Node1&#45;&gt;Node2</title>
<path fill="none" stroke="midnightblue" d="M69.3902,-145.029C84.9834,-166.043 113.893,-199.822 148,-215 213.712,-244.242 296.988,-245.774 354.794,-242.009"/>
<polygon fill="midnightblue" stroke="midnightblue" points="72.0435,-142.723 63.3688,-136.64 66.3568,-146.805 72.0435,-142.723"/>
</g>
<!-- Node4 -->
<g id="node4" class="node"><title>Node4</title>
<g id="a_node4"><a xlink:href="../../d3/d88/classmodel_1_1_slogo_model.html#abfeceb3da7ed60166c8137597cacc2fc" target="_top" xlink:title="model.SlogoModel.clear">
<polygon fill="white" stroke="black" points="163.5,-186.5 163.5,-205.5 294.5,-205.5 294.5,-186.5 163.5,-186.5"/>
<text text-anchor="middle" x="229" y="-193.5" font-family="Helvetica,sans-Serif" font-size="10.00">model.SlogoModel.clear</text>
</a>
</g>
</g>
<!-- Node1&#45;&gt;Node4 -->
<g id="edge3" class="edge"><title>Node1&#45;&gt;Node4</title>
<path fill="none" stroke="midnightblue" d="M80.5289,-141.783C98.4596,-152.518 124.062,-166.73 148,-176 158.547,-180.084 170.203,-183.552 181.279,-186.395"/>
<polygon fill="midnightblue" stroke="midnightblue" points="82.2628,-138.741 71.9011,-136.531 78.6228,-144.72 82.2628,-138.741"/>
</g>
<!-- Node6 -->
<g id="node6" class="node"><title>Node6</title>
<g id="a_node6"><a xlink:href="../../db/d37/classinstructions_1_1commands_1_1_is_pen_down.html#a2640c38327efbb80401c844dcbee6f88" target="_top" xlink:title="instructions.commands.Is\lPenDown.execute">
<polygon fill="white" stroke="black" points="159,-137 159,-167 299,-167 299,-137 159,-137"/>
<text text-anchor="start" x="167" y="-155" font-family="Helvetica,sans-Serif" font-size="10.00">instructions.commands.Is</text>
<text text-anchor="middle" x="229" y="-144" font-family="Helvetica,sans-Serif" font-size="10.00">PenDown.execute</text>
</a>
</g>
</g>
<!-- Node1&#45;&gt;Node6 -->
<g id="edge6" class="edge"><title>Node1&#45;&gt;Node6</title>
<path fill="none" stroke="midnightblue" d="M122.032,-136.508C134.108,-138.273 146.763,-140.123 158.954,-141.906"/>
<polygon fill="midnightblue" stroke="midnightblue" points="122.448,-133.031 112.047,-135.048 121.435,-139.958 122.448,-133.031"/>
</g>
<!-- Node7 -->
<g id="node7" class="node"><title>Node7</title>
<g id="a_node7"><a xlink:href="../../d6/d1f/classinstructions_1_1commands_1_1_pen_up.html#a83de05f9c5b0b6454ac03f3c38d8dfb1" target="_top" xlink:title="instructions.commands.Pen\lUp.execute">
<polygon fill="white" stroke="black" points="154,-88 154,-118 304,-118 304,-88 154,-88"/>
<text text-anchor="start" x="162" y="-106" font-family="Helvetica,sans-Serif" font-size="10.00">instructions.commands.Pen</text>
<text text-anchor="middle" x="229" y="-95" font-family="Helvetica,sans-Serif" font-size="10.00">Up.execute</text>
</a>
</g>
</g>
<!-- Node1&#45;&gt;Node7 -->
<g id="edge7" class="edge"><title>Node1&#45;&gt;Node7</title>
<path fill="none" stroke="midnightblue" d="M122.193,-117.85C132.502,-116.403 143.23,-114.898 153.727,-113.424"/>
<polygon fill="midnightblue" stroke="midnightblue" points="121.463,-114.418 112.047,-119.274 122.436,-121.35 121.463,-114.418"/>
</g>
<!-- Node8 -->
<g id="node8" class="node"><title>Node8</title>
<g id="a_node8"><a xlink:href="../../dc/df9/classinstructions_1_1commands_1_1_pen_down.html#a24297ec2491de8ad2c63f3f1a26b71f1" target="_top" xlink:title="instructions.commands.Pen\lDown.execute">
<polygon fill="white" stroke="black" points="154,-39 154,-69 304,-69 304,-39 154,-39"/>
<text text-anchor="start" x="162" y="-57" font-family="Helvetica,sans-Serif" font-size="10.00">instructions.commands.Pen</text>
<text text-anchor="middle" x="229" y="-46" font-family="Helvetica,sans-Serif" font-size="10.00">Down.execute</text>
</a>
</g>
</g>
<!-- Node1&#45;&gt;Node8 -->
<g id="edge8" class="edge"><title>Node1&#45;&gt;Node8</title>
<path fill="none" stroke="midnightblue" d="M81.3045,-112.161C99.2653,-101.634 124.566,-87.7066 148,-78 155.77,-74.7815 164.126,-71.7895 172.403,-69.0865"/>
<polygon fill="midnightblue" stroke="midnightblue" points="79.4386,-109.199 72.6299,-117.316 83.0146,-115.216 79.4386,-109.199"/>
</g>
<!-- Node9 -->
<g id="node9" class="node"><title>Node9</title>
<g id="a_node9"><a xlink:href="../../d3/d88/classmodel_1_1_slogo_model.html#a57ae2fb85245476c02d5e7208bf64be3" target="_top" xlink:title="model.SlogoModel.setPenSize">
<polygon fill="white" stroke="black" points="148.5,-0.5 148.5,-19.5 309.5,-19.5 309.5,-0.5 148.5,-0.5"/>
<text text-anchor="middle" x="229" y="-7.5" font-family="Helvetica,sans-Serif" font-size="10.00">model.SlogoModel.setPenSize</text>
</a>
</g>
</g>
<!-- Node1&#45;&gt;Node9 -->
<g id="edge9" class="edge"><title>Node1&#45;&gt;Node9</title>
<path fill="none" stroke="midnightblue" d="M68.7187,-108.913C84.1529,-86.6004 113.424,-49.1563 148,-29 154.66,-25.1177 162.069,-22.0278 169.616,-19.5688"/>
<polygon fill="midnightblue" stroke="midnightblue" points="65.651,-107.202 62.9761,-117.454 71.4602,-111.108 65.651,-107.202"/>
</g>
<!-- Node3 -->
<g id="node3" class="node"><title>Node3</title>
<g id="a_node3"><a xlink:href="../../dd/dc5/classview_1_1_settings_view.html#a34b8df753ce7a3b7d917a01ff315edc8" target="_top" xlink:title="view.SettingsView.SettingsView">
<polygon fill="white" stroke="black" points="540,-180.5 540,-199.5 704,-199.5 704,-180.5 540,-180.5"/>
<text text-anchor="middle" x="622" y="-187.5" font-family="Helvetica,sans-Serif" font-size="10.00">view.SettingsView.SettingsView</text>
</a>
</g>
</g>
<!-- Node2&#45;&gt;Node3 -->
<g id="edge2" class="edge"><title>Node2&#45;&gt;Node3</title>
<path fill="none" stroke="midnightblue" d="M502.41,-216.759C528.415,-210.891 556.522,-204.549 578.843,-199.512"/>
<polygon fill="midnightblue" stroke="midnightblue" points="501.547,-213.365 492.563,-218.981 503.088,-220.194 501.547,-213.365"/>
</g>
<!-- Node5 -->
<g id="node5" class="node"><title>Node5</title>
<g id="a_node5"><a xlink:href="../../dd/dc5/classview_1_1_settings_view.html#a4ad3e69e9ba90e013df06b1f7b5ef6d0" target="_top" xlink:title="view.SettingsView.addButtons">
<polygon fill="white" stroke="black" points="346,-180.5 346,-199.5 504,-199.5 504,-180.5 346,-180.5"/>
<text text-anchor="middle" x="425" y="-187.5" font-family="Helvetica,sans-Serif" font-size="10.00">view.SettingsView.addButtons</text>
</a>
</g>
</g>
<!-- Node4&#45;&gt;Node5 -->
<g id="edge4" class="edge"><title>Node4&#45;&gt;Node5</title>
<path fill="none" stroke="midnightblue" d="M304.762,-193.688C318.23,-193.271 332.303,-192.836 345.864,-192.417"/>
<polygon fill="midnightblue" stroke="midnightblue" points="304.486,-190.195 294.599,-194.002 304.703,-197.191 304.486,-190.195"/>
</g>
<!-- Node5&#45;&gt;Node3 -->
<g id="edge5" class="edge"><title>Node5&#45;&gt;Node3</title>
<path fill="none" stroke="midnightblue" d="M514.191,-190C522.761,-190 531.428,-190 539.924,-190"/>
<polygon fill="midnightblue" stroke="midnightblue" points="514.19,-186.5 504.19,-190 514.19,-193.5 514.19,-186.5"/>
</g>
<!-- Node10 -->
<g id="node10" class="node"><title>Node10</title>
<g id="a_node10"><a xlink:href="../../dd/dc5/classview_1_1_settings_view.html#af8bf8067258762b6b65bd149d2e5fbe8" target="_top" xlink:title="view.SettingsView.addPen\lSlider">
<polygon fill="white" stroke="black" points="355.5,-63 355.5,-93 494.5,-93 494.5,-63 355.5,-63"/>
<text text-anchor="start" x="363.5" y="-81" font-family="Helvetica,sans-Serif" font-size="10.00">view.SettingsView.addPen</text>
<text text-anchor="middle" x="425" y="-70" font-family="Helvetica,sans-Serif" font-size="10.00">Slider</text>
</a>
</g>
</g>
<!-- Node9&#45;&gt;Node10 -->
<g id="edge10" class="edge"><title>Node9&#45;&gt;Node10</title>
<path fill="none" stroke="midnightblue" d="M285.918,-21.9737C294.06,-24.0943 302.292,-26.4494 310,-29 338.837,-38.5424 370.491,-52.4379 393.111,-62.9965"/>
<polygon fill="midnightblue" stroke="midnightblue" points="286.623,-18.5421 276.072,-19.506 284.921,-25.3321 286.623,-18.5421"/>
</g>
<!-- Node10&#45;&gt;Node3 -->
<g id="edge11" class="edge"><title>Node10&#45;&gt;Node3</title>
<path fill="none" stroke="midnightblue" d="M461.142,-98.1841C503.408,-122.46 572.613,-162.208 604.258,-180.384"/>
<polygon fill="midnightblue" stroke="midnightblue" points="462.713,-95.0504 452.299,-93.1048 459.227,-101.12 462.713,-95.0504"/>
</g>
</g>
</svg>
