<?xml version="1.0" encoding="UTF-8" standalone="no"?>
<!DOCTYPE svg PUBLIC "-//W3C//DTD SVG 1.1//EN"
 "http://www.w3.org/Graphics/SVG/1.1/DTD/svg11.dtd">
<!-- Generated by graphviz version 2.36.0 (20140111.2315)
 -->
<!-- Title: model.Turtle.Turtle Pages: 1 -->
<svg width="808pt" height="126pt"
 viewBox="0.00 0.00 808.00 125.81" xmlns="http://www.w3.org/2000/svg" xmlns:xlink="http://www.w3.org/1999/xlink">
<g id="graph0" class="graph" transform="scale(1 1) rotate(0) translate(4 121.813)">
<title>model.Turtle.Turtle</title>
<polygon fill="white" stroke="none" points="-4,4 -4,-121.813 804,-121.813 804,4 -4,4"/>
<!-- Node1 -->
<g id="node1" class="node"><title>Node1</title>
<polygon fill="#bfbfbf" stroke="black" points="0,-12.313 0,-31.313 104,-31.313 104,-12.313 0,-12.313"/>
<text text-anchor="middle" x="52" y="-19.313" font-family="Helvetica,sans-Serif" font-size="10.00">model.Turtle.Turtle</text>
</g>
<!-- Node2 -->
<g id="node2" class="node"><title>Node2</title>
<g id="a_node2"><a xlink:href="../../d6/d34/classmodel_1_1_turtle.html#a3bef6e5b68b529d8ff0a6b6e84592587" target="_top" xlink:title="model.Turtle.initializeTurtle">
<polygon fill="white" stroke="black" points="140,-41.313 140,-60.313 282,-60.313 282,-41.313 140,-41.313"/>
<text text-anchor="middle" x="211" y="-48.313" font-family="Helvetica,sans-Serif" font-size="10.00">model.Turtle.initializeTurtle</text>
</a>
</g>
</g>
<!-- Node1&#45;&gt;Node2 -->
<g id="edge1" class="edge"><title>Node1&#45;&gt;Node2</title>
<path fill="none" stroke="midnightblue" d="M104.408,-31.3087C118.504,-33.9125 133.929,-36.7616 148.528,-39.4583"/>
<polygon fill="midnightblue" stroke="midnightblue" points="148.007,-42.9213 158.477,-41.296 149.279,-36.0377 148.007,-42.9213"/>
</g>
<!-- Node4 -->
<g id="node4" class="node"><title>Node4</title>
<g id="a_node4"><a xlink:href="../../d6/d34/classmodel_1_1_turtle.html#a138e6be2a3c83aea4ef698bf9e499bcf" target="_top" xlink:title="model.Turtle.setTurtleInfo">
<polygon fill="white" stroke="black" points="506,-41.313 506,-60.313 642,-60.313 642,-41.313 506,-41.313"/>
<text text-anchor="middle" x="574" y="-48.313" font-family="Helvetica,sans-Serif" font-size="10.00">model.Turtle.setTurtleInfo</text>
</a>
</g>
</g>
<!-- Node1&#45;&gt;Node4 -->
<g id="edge7" class="edge"><title>Node1&#45;&gt;Node4</title>
<path fill="none" stroke="midnightblue" d="M104.212,-14.268C183.372,-4.04624 339.905,10.4197 470,-12.813 495.961,-17.4491 523.946,-28.1739 544.185,-37.0516"/>
<polygon fill="midnightblue" stroke="midnightblue" points="542.9,-40.3114 553.455,-41.2266 545.774,-33.9288 542.9,-40.3114"/>
</g>
<!-- Node3 -->
<g id="node3" class="node"><title>Node3</title>
<g id="a_node3"><a xlink:href="../../d6/d34/classmodel_1_1_turtle.html#abf987ba62d49c24804d43b464f9b7410" target="_top" xlink:title="model.Turtle.setCoordinates">
<polygon fill="white" stroke="black" points="318.5,-98.313 318.5,-117.313 469.5,-117.313 469.5,-98.313 318.5,-98.313"/>
<text text-anchor="middle" x="394" y="-105.313" font-family="Helvetica,sans-Serif" font-size="10.00">model.Turtle.setCoordinates</text>
</a>
</g>
</g>
<!-- Node2&#45;&gt;Node3 -->
<g id="edge2" class="edge"><title>Node2&#45;&gt;Node3</title>
<path fill="none" stroke="midnightblue" d="M236.619,-60.3989C257.96,-68.5248 289.765,-80.1975 318,-88.813 325.855,-91.2099 334.236,-93.5456 342.444,-95.7127"/>
<polygon fill="midnightblue" stroke="midnightblue" points="341.764,-99.1521 352.322,-98.2652 343.516,-92.3747 341.764,-99.1521"/>
</g>
<!-- Node6 -->
<g id="node6" class="node"><title>Node6</title>
<g id="a_node6"><a xlink:href="../../d6/d34/classmodel_1_1_turtle.html#a561398015768e49764442dfa298f1bd3" target="_top" xlink:title="model.Turtle.setAngle">
<polygon fill="white" stroke="black" points="334,-60.313 334,-79.313 454,-79.313 454,-60.313 334,-60.313"/>
<text text-anchor="middle" x="394" y="-67.313" font-family="Helvetica,sans-Serif" font-size="10.00">model.Turtle.setAngle</text>
</a>
</g>
</g>
<!-- Node2&#45;&gt;Node6 -->
<g id="edge5" class="edge"><title>Node2&#45;&gt;Node6</title>
<path fill="none" stroke="midnightblue" d="M282.238,-58.1861C295.858,-59.6158 310.124,-61.1133 323.713,-62.5398"/>
<polygon fill="midnightblue" stroke="midnightblue" points="323.64,-66.0513 333.951,-63.6145 324.371,-59.0895 323.64,-66.0513"/>
</g>
<!-- Node7 -->
<g id="node7" class="node"><title>Node7</title>
<g id="a_node7"><a xlink:href="../../d6/d34/classmodel_1_1_turtle.html#a37a8745062c1fb91ec53073667e376ec" target="_top" xlink:title="model.Turtle.changeState">
<polygon fill="white" stroke="black" points="324,-22.313 324,-41.313 464,-41.313 464,-22.313 324,-22.313"/>
<text text-anchor="middle" x="394" y="-29.313" font-family="Helvetica,sans-Serif" font-size="10.00">model.Turtle.changeState</text>
</a>
</g>
</g>
<!-- Node2&#45;&gt;Node7 -->
<g id="edge6" class="edge"><title>Node2&#45;&gt;Node7</title>
<path fill="none" stroke="midnightblue" d="M282.238,-43.4399C292.63,-42.349 303.398,-41.2187 313.955,-40.1106"/>
<polygon fill="midnightblue" stroke="midnightblue" points="314.412,-43.5819 323.992,-39.057 313.681,-36.6202 314.412,-43.5819"/>
</g>
<!-- Node3&#45;&gt;Node4 -->
<g id="edge3" class="edge"><title>Node3&#45;&gt;Node4</title>
<path fill="none" stroke="midnightblue" d="M436.089,-98.2336C447.164,-95.4265 459.095,-92.1955 470,-88.813 493.516,-81.5187 519.525,-71.9104 539.524,-64.1806"/>
<polygon fill="midnightblue" stroke="midnightblue" points="541.06,-67.3383 549.105,-60.4438 538.516,-60.8168 541.06,-67.3383"/>
</g>
<!-- Node5 -->
<g id="node5" class="node"><title>Node5</title>
<g id="a_node5"><a xlink:href="../../d6/d34/classmodel_1_1_turtle.html#a61d79b71c878b0c64adeab038483da7a" target="_top" xlink:title="model.Turtle.getAngle">
<polygon fill="white" stroke="black" points="678.5,-41.313 678.5,-60.313 799.5,-60.313 799.5,-41.313 678.5,-41.313"/>
<text text-anchor="middle" x="739" y="-48.313" font-family="Helvetica,sans-Serif" font-size="10.00">model.Turtle.getAngle</text>
</a>
</g>
</g>
<!-- Node4&#45;&gt;Node5 -->
<g id="edge4" class="edge"><title>Node4&#45;&gt;Node5</title>
<path fill="none" stroke="midnightblue" d="M642.239,-50.813C650.875,-50.813 659.73,-50.813 668.402,-50.813"/>
<polygon fill="midnightblue" stroke="midnightblue" points="668.474,-54.3131 678.474,-50.813 668.474,-47.3131 668.474,-54.3131"/>
</g>
</g>
</svg>
