<?xml version="1.0" encoding="UTF-8" standalone="no"?>
<!DOCTYPE svg PUBLIC "-//W3C//DTD SVG 1.1//EN"
 "http://www.w3.org/Graphics/SVG/1.1/DTD/svg11.dtd">
<!-- Generated by graphviz version 2.36.0 (20140111.2315)
 -->
<!-- Title: model.Turtle.rotate Pages: 1 -->
<svg width="350pt" height="66pt"
 viewBox="0.00 0.00 350.00 66.00" xmlns="http://www.w3.org/2000/svg" xmlns:xlink="http://www.w3.org/1999/xlink">
<g id="graph0" class="graph" transform="scale(1 1) rotate(0) translate(4 62)">
<title>model.Turtle.rotate</title>
<polygon fill="white" stroke="none" points="-4,4 -4,-62 346,-62 346,4 -4,4"/>
<!-- Node1 -->
<g id="node1" class="node"><title>Node1</title>
<polygon fill="#bfbfbf" stroke="black" points="0.5,-19.5 0.5,-38.5 107.5,-38.5 107.5,-19.5 0.5,-19.5"/>
<text text-anchor="middle" x="54" y="-26.5" font-family="Helvetica,sans-Serif" font-size="10.00">model.Turtle.rotate</text>
</g>
<!-- Node2 -->
<g id="node2" class="node"><title>Node2</title>
<g id="a_node2"><a xlink:href="../../df/dd2/classinstructions_1_1commands_1_1_right.html#a7e743a11dec0ce6dc86c25737c770127" target="_top" xlink:title="instructions.commands.Right.execute">
<polygon fill="white" stroke="black" points="144.5,-38.5 144.5,-57.5 341.5,-57.5 341.5,-38.5 144.5,-38.5"/>
<text text-anchor="middle" x="243" y="-45.5" font-family="Helvetica,sans-Serif" font-size="10.00">instructions.commands.Right.execute</text>
</a>
</g>
</g>
<!-- Node1&#45;&gt;Node2 -->
<g id="edge1" class="edge"><title>Node1&#45;&gt;Node2</title>
<path fill="none" stroke="midnightblue" d="M117.677,-35.3683C127.559,-36.3724 137.959,-37.429 148.361,-38.4859"/>
<polygon fill="midnightblue" stroke="midnightblue" points="117.89,-31.872 107.588,-34.3431 117.183,-38.8361 117.89,-31.872"/>
</g>
<!-- Node3 -->
<g id="node3" class="node"><title>Node3</title>
<g id="a_node3"><a xlink:href="../../d8/dd0/classinstructions_1_1commands_1_1_left.html#ae3fb479ded683475eae5d785e5010b0b" target="_top" xlink:title="instructions.commands.Left.execute">
<polygon fill="white" stroke="black" points="147.5,-0.5 147.5,-19.5 338.5,-19.5 338.5,-0.5 147.5,-0.5"/>
<text text-anchor="middle" x="243" y="-7.5" font-family="Helvetica,sans-Serif" font-size="10.00">instructions.commands.Left.execute</text>
</a>
</g>
</g>
<!-- Node1&#45;&gt;Node3 -->
<g id="edge2" class="edge"><title>Node1&#45;&gt;Node3</title>
<path fill="none" stroke="midnightblue" d="M117.677,-22.6317C127.559,-21.6276 137.959,-20.571 148.361,-19.5141"/>
<polygon fill="midnightblue" stroke="midnightblue" points="117.183,-19.1639 107.588,-23.6569 117.89,-26.128 117.183,-19.1639"/>
</g>
</g>
</svg>
