<?xml version="1.0" encoding="UTF-8" standalone="no"?>
<!DOCTYPE svg PUBLIC "-//W3C//DTD SVG 1.1//EN"
 "http://www.w3.org/Graphics/SVG/1.1/DTD/svg11.dtd">
<!-- Generated by graphviz version 2.36.0 (20140111.2315)
 -->
<!-- Title: model.Turtle.calculateDistance Pages: 1 -->
<svg width="412pt" height="126pt"
 viewBox="0.00 0.00 412.00 126.00" xmlns="http://www.w3.org/2000/svg" xmlns:xlink="http://www.w3.org/1999/xlink">
<g id="graph0" class="graph" transform="scale(1 1) rotate(0) translate(4 122)">
<title>model.Turtle.calculateDistance</title>
<polygon fill="white" stroke="none" points="-4,4 -4,-122 408,-122 408,4 -4,4"/>
<!-- Node1 -->
<g id="node1" class="node"><title>Node1</title>
<polygon fill="#bfbfbf" stroke="black" points="0.5,-49.5 0.5,-68.5 163.5,-68.5 163.5,-49.5 0.5,-49.5"/>
<text text-anchor="middle" x="82" y="-56.5" font-family="Helvetica,sans-Serif" font-size="10.00">model.Turtle.calculateDistance</text>
</g>
<!-- Node2 -->
<g id="node2" class="node"><title>Node2</title>
<g id="a_node2"><a xlink:href="../../dd/d40/classinstructions_1_1commands_1_1_clear_screen.html#aafb8d43e9ee4c464de84de2f8ee2294d" target="_top" xlink:title="instructions.commands.Clear\lScreen.execute">
<polygon fill="white" stroke="black" points="223.5,-88 223.5,-118 380.5,-118 380.5,-88 223.5,-88"/>
<text text-anchor="start" x="231.5" y="-106" font-family="Helvetica,sans-Serif" font-size="10.00">instructions.commands.Clear</text>
<text text-anchor="middle" x="302" y="-95" font-family="Helvetica,sans-Serif" font-size="10.00">Screen.execute</text>
</a>
</g>
</g>
<!-- Node1&#45;&gt;Node2 -->
<g id="edge1" class="edge"><title>Node1&#45;&gt;Node2</title>
<path fill="none" stroke="midnightblue" d="M140.13,-70.5309C166.494,-75.852 198.137,-82.2387 226.358,-87.9346"/>
<polygon fill="midnightblue" stroke="midnightblue" points="140.798,-67.0951 130.303,-68.5473 139.413,-73.9567 140.798,-67.0951"/>
</g>
<!-- Node3 -->
<g id="node3" class="node"><title>Node3</title>
<g id="a_node3"><a xlink:href="../../d3/d16/classinstructions_1_1commands_1_1_home.html#a1f8a8a072657d0c9b6816e90d785308c" target="_top" xlink:title="instructions.commands.Home.execute">
<polygon fill="white" stroke="black" points="200.5,-49.5 200.5,-68.5 403.5,-68.5 403.5,-49.5 200.5,-49.5"/>
<text text-anchor="middle" x="302" y="-56.5" font-family="Helvetica,sans-Serif" font-size="10.00">instructions.commands.Home.execute</text>
</a>
</g>
</g>
<!-- Node1&#45;&gt;Node3 -->
<g id="edge2" class="edge"><title>Node1&#45;&gt;Node3</title>
<path fill="none" stroke="midnightblue" d="M173.79,-59C182.585,-59 191.542,-59 200.424,-59"/>
<polygon fill="midnightblue" stroke="midnightblue" points="173.556,-55.5001 163.556,-59 173.556,-62.5001 173.556,-55.5001"/>
</g>
<!-- Node4 -->
<g id="node4" class="node"><title>Node4</title>
<g id="a_node4"><a xlink:href="../../da/d22/classinstructions_1_1commands_1_1_set_position.html#a6a0f48e1a66d7fc7574ff5ad60ee9c33" target="_top" xlink:title="instructions.commands.Set\lPosition.execute">
<polygon fill="white" stroke="black" points="227.5,-0 227.5,-30 376.5,-30 376.5,-0 227.5,-0"/>
<text text-anchor="start" x="235.5" y="-18" font-family="Helvetica,sans-Serif" font-size="10.00">instructions.commands.Set</text>
<text text-anchor="middle" x="302" y="-7" font-family="Helvetica,sans-Serif" font-size="10.00">Position.execute</text>
</a>
</g>
</g>
<!-- Node1&#45;&gt;Node4 -->
<g id="edge3" class="edge"><title>Node1&#45;&gt;Node4</title>
<path fill="none" stroke="midnightblue" d="M140.221,-47.4509C166.832,-42.0798 198.807,-35.626 227.209,-29.8935"/>
<polygon fill="midnightblue" stroke="midnightblue" points="139.413,-44.0433 130.303,-49.4527 140.798,-50.9049 139.413,-44.0433"/>
</g>
</g>
</svg>
