<?xml version="1.0" encoding="UTF-8" standalone="no"?>
<!DOCTYPE svg PUBLIC "-//W3C//DTD SVG 1.1//EN"
 "http://www.w3.org/Graphics/SVG/1.1/DTD/svg11.dtd">
<!-- Generated by graphviz version 2.36.0 (20140111.2315)
 -->
<!-- Title: model.Turtle.clear Pages: 1 -->
<svg width="628pt" height="85pt"
 viewBox="0.00 0.00 628.00 85.00" xmlns="http://www.w3.org/2000/svg" xmlns:xlink="http://www.w3.org/1999/xlink">
<g id="graph0" class="graph" transform="scale(1 1) rotate(0) translate(4 81)">
<title>model.Turtle.clear</title>
<polygon fill="white" stroke="none" points="-4,4 -4,-81 624,-81 624,4 -4,4"/>
<!-- Node1 -->
<g id="node1" class="node"><title>Node1</title>
<polygon fill="#bfbfbf" stroke="black" points="0.5,-19.5 0.5,-38.5 101.5,-38.5 101.5,-19.5 0.5,-19.5"/>
<text text-anchor="middle" x="51" y="-26.5" font-family="Helvetica,sans-Serif" font-size="10.00">model.Turtle.clear</text>
</g>
<!-- Node2 -->
<g id="node2" class="node"><title>Node2</title>
<g id="a_node2"><a xlink:href="../../d6/d34/classmodel_1_1_turtle.html#a561398015768e49764442dfa298f1bd3" target="_top" xlink:title="model.Turtle.setAngle">
<polygon fill="white" stroke="black" points="154,-57.5 154,-76.5 274,-76.5 274,-57.5 154,-57.5"/>
<text text-anchor="middle" x="214" y="-64.5" font-family="Helvetica,sans-Serif" font-size="10.00">model.Turtle.setAngle</text>
</a>
</g>
</g>
<!-- Node1&#45;&gt;Node2 -->
<g id="edge1" class="edge"><title>Node1&#45;&gt;Node2</title>
<path fill="none" stroke="midnightblue" d="M92.6271,-38.589C113.968,-43.6261 140.312,-49.8438 162.908,-55.1771"/>
<polygon fill="midnightblue" stroke="midnightblue" points="162.128,-58.5891 172.665,-57.4799 163.736,-51.7763 162.128,-58.5891"/>
</g>
<!-- Node3 -->
<g id="node3" class="node"><title>Node3</title>
<g id="a_node3"><a xlink:href="../../d6/d34/classmodel_1_1_turtle.html#abf987ba62d49c24804d43b464f9b7410" target="_top" xlink:title="model.Turtle.setCoordinates">
<polygon fill="white" stroke="black" points="138.5,-19.5 138.5,-38.5 289.5,-38.5 289.5,-19.5 138.5,-19.5"/>
<text text-anchor="middle" x="214" y="-26.5" font-family="Helvetica,sans-Serif" font-size="10.00">model.Turtle.setCoordinates</text>
</a>
</g>
</g>
<!-- Node1&#45;&gt;Node3 -->
<g id="edge2" class="edge"><title>Node1&#45;&gt;Node3</title>
<path fill="none" stroke="midnightblue" d="M101.619,-29C110.077,-29 119.072,-29 128.14,-29"/>
<polygon fill="midnightblue" stroke="midnightblue" points="128.386,-32.5001 138.386,-29 128.386,-25.5001 128.386,-32.5001"/>
</g>
<!-- Node4 -->
<g id="node4" class="node"><title>Node4</title>
<g id="a_node4"><a xlink:href="../../d6/d34/classmodel_1_1_turtle.html#a138e6be2a3c83aea4ef698bf9e499bcf" target="_top" xlink:title="model.Turtle.setTurtleInfo">
<polygon fill="white" stroke="black" points="326,-0.5 326,-19.5 462,-19.5 462,-0.5 326,-0.5"/>
<text text-anchor="middle" x="394" y="-7.5" font-family="Helvetica,sans-Serif" font-size="10.00">model.Turtle.setTurtleInfo</text>
</a>
</g>
</g>
<!-- Node1&#45;&gt;Node4 -->
<g id="edge5" class="edge"><title>Node1&#45;&gt;Node4</title>
<path fill="none" stroke="midnightblue" d="M86.8607,-19.4919C102.387,-15.7272 120.976,-11.8582 138,-10 197.392,-3.51743 265.029,-3.86954 315.714,-5.6519"/>
<polygon fill="midnightblue" stroke="midnightblue" points="315.815,-9.15812 325.94,-6.03888 316.08,-2.16313 315.815,-9.15812"/>
</g>
<!-- Node3&#45;&gt;Node4 -->
<g id="edge3" class="edge"><title>Node3&#45;&gt;Node4</title>
<path fill="none" stroke="midnightblue" d="M289.714,-21.0249C298.33,-20.1052 307.13,-19.1659 315.778,-18.2428"/>
<polygon fill="midnightblue" stroke="midnightblue" points="316.27,-21.7103 325.842,-17.1686 315.527,-14.7498 316.27,-21.7103"/>
</g>
<!-- Node5 -->
<g id="node5" class="node"><title>Node5</title>
<g id="a_node5"><a xlink:href="../../d6/d34/classmodel_1_1_turtle.html#a61d79b71c878b0c64adeab038483da7a" target="_top" xlink:title="model.Turtle.getAngle">
<polygon fill="white" stroke="black" points="498.5,-0.5 498.5,-19.5 619.5,-19.5 619.5,-0.5 498.5,-0.5"/>
<text text-anchor="middle" x="559" y="-7.5" font-family="Helvetica,sans-Serif" font-size="10.00">model.Turtle.getAngle</text>
</a>
</g>
</g>
<!-- Node4&#45;&gt;Node5 -->
<g id="edge4" class="edge"><title>Node4&#45;&gt;Node5</title>
<path fill="none" stroke="midnightblue" d="M462.239,-10C470.875,-10 479.73,-10 488.402,-10"/>
<polygon fill="midnightblue" stroke="midnightblue" points="488.474,-13.5001 498.474,-10 488.474,-6.5001 488.474,-13.5001"/>
</g>
</g>
</svg>
