<?xml version="1.0" encoding="UTF-8" standalone="no"?>
<!DOCTYPE svg PUBLIC "-//W3C//DTD SVG 1.1//EN"
 "http://www.w3.org/Graphics/SVG/1.1/DTD/svg11.dtd">
<!-- Generated by graphviz version 2.36.0 (20140111.2315)
 -->
<!-- Title: model.Turtle.moveTurtleAndDrawLine Pages: 1 -->
<svg width="414pt" height="66pt"
 viewBox="0.00 0.00 414.00 66.00" xmlns="http://www.w3.org/2000/svg" xmlns:xlink="http://www.w3.org/1999/xlink">
<g id="graph0" class="graph" transform="scale(1 1) rotate(0) translate(4 62)">
<title>model.Turtle.moveTurtleAndDrawLine</title>
<polygon fill="white" stroke="none" points="-4,4 -4,-62 410,-62 410,4 -4,4"/>
<!-- Node1 -->
<g id="node1" class="node"><title>Node1</title>
<polygon fill="#bfbfbf" stroke="black" points="0.5,-14 0.5,-44 149.5,-44 149.5,-14 0.5,-14"/>
<text text-anchor="start" x="8.5" y="-32" font-family="Helvetica,sans-Serif" font-size="10.00">model.Turtle.moveTurtleAnd</text>
<text text-anchor="middle" x="75" y="-21" font-family="Helvetica,sans-Serif" font-size="10.00">DrawLine</text>
</g>
<!-- Node2 -->
<g id="node2" class="node"><title>Node2</title>
<g id="a_node2"><a xlink:href="../../d7/dab/classinstructions_1_1commands_1_1_forward.html#a8dd30560e81b026bf436c1502534cdfd" target="_top" xlink:title="instructions.commands.Forward.execute">
<polygon fill="white" stroke="black" points="190.5,-38.5 190.5,-57.5 401.5,-57.5 401.5,-38.5 190.5,-38.5"/>
<text text-anchor="middle" x="296" y="-45.5" font-family="Helvetica,sans-Serif" font-size="10.00">instructions.commands.Forward.execute</text>
</a>
</g>
</g>
<!-- Node1&#45;&gt;Node2 -->
<g id="edge1" class="edge"><title>Node1&#45;&gt;Node2</title>
<path fill="none" stroke="midnightblue" d="M159.762,-36.2671C169.697,-37.129 179.931,-38.0168 190.112,-38.9001"/>
<polygon fill="midnightblue" stroke="midnightblue" points="159.798,-32.7571 149.533,-35.3796 159.193,-39.7309 159.798,-32.7571"/>
</g>
<!-- Node3 -->
<g id="node3" class="node"><title>Node3</title>
<g id="a_node3"><a xlink:href="../../d9/da9/classinstructions_1_1commands_1_1_backward.html#a8f3dbbeb56ad5c4b7a64cabcc2d63daa" target="_top" xlink:title="instructions.commands.Backward.execute">
<polygon fill="white" stroke="black" points="186.5,-0.5 186.5,-19.5 405.5,-19.5 405.5,-0.5 186.5,-0.5"/>
<text text-anchor="middle" x="296" y="-7.5" font-family="Helvetica,sans-Serif" font-size="10.00">instructions.commands.Backward.execute</text>
</a>
</g>
</g>
<!-- Node1&#45;&gt;Node3 -->
<g id="edge2" class="edge"><title>Node1&#45;&gt;Node3</title>
<path fill="none" stroke="midnightblue" d="M159.628,-21.7446C168.33,-20.9896 177.263,-20.2146 186.19,-19.4401"/>
<polygon fill="midnightblue" stroke="midnightblue" points="159.193,-18.2691 149.533,-22.6204 159.798,-25.2429 159.193,-18.2691"/>
</g>
</g>
</svg>
