<?xml version="1.0" encoding="UTF-8" standalone="no"?>
<!DOCTYPE svg PUBLIC "-//W3C//DTD SVG 1.1//EN"
 "http://www.w3.org/Graphics/SVG/1.1/DTD/svg11.dtd">
<!-- Generated by graphviz version 2.36.0 (20140111.2315)
 -->
<!-- Title: view.DataViewComponents.addTextBoxWithDeleteButton Pages: 1 -->
<svg width="550pt" height="38pt"
 viewBox="0.00 0.00 550.00 38.00" xmlns="http://www.w3.org/2000/svg" xmlns:xlink="http://www.w3.org/1999/xlink">
<g id="graph0" class="graph" transform="scale(1 1) rotate(0) translate(4 34)">
<title>view.DataViewComponents.addTextBoxWithDeleteButton</title>
<polygon fill="white" stroke="none" points="-4,4 -4,-34 546,-34 546,4 -4,4"/>
<!-- Node1 -->
<g id="node1" class="node"><title>Node1</title>
<polygon fill="#bfbfbf" stroke="black" points="0.5,-0 0.5,-30 167.5,-30 167.5,-0 0.5,-0"/>
<text text-anchor="start" x="8.5" y="-18" font-family="Helvetica,sans-Serif" font-size="10.00">view.DataViewComponents.add</text>
<text text-anchor="middle" x="84" y="-7" font-family="Helvetica,sans-Serif" font-size="10.00">TextBoxWithDeleteButton</text>
</g>
<!-- Node2 -->
<g id="node2" class="node"><title>Node2</title>
<g id="a_node2"><a xlink:href="../../d4/d36/classview_1_1_data_view_components.html#aaebf0a781dd02fe599176d57c2ea9a40" target="_top" xlink:title="view.DataViewComponents.make\lDeleteButton">
<polygon fill="white" stroke="black" points="204,-0 204,-30 380,-30 380,-0 204,-0"/>
<text text-anchor="start" x="212" y="-18" font-family="Helvetica,sans-Serif" font-size="10.00">view.DataViewComponents.make</text>
<text text-anchor="middle" x="292" y="-7" font-family="Helvetica,sans-Serif" font-size="10.00">DeleteButton</text>
</a>
</g>
</g>
<!-- Node1&#45;&gt;Node2 -->
<g id="edge1" class="edge"><title>Node1&#45;&gt;Node2</title>
<path fill="none" stroke="midnightblue" d="M167.601,-15C176.21,-15 185.016,-15 193.767,-15"/>
<polygon fill="midnightblue" stroke="midnightblue" points="193.999,-18.5001 203.999,-15 193.999,-11.5001 193.999,-18.5001"/>
</g>
<!-- Node3 -->
<g id="node3" class="node"><title>Node3</title>
<g id="a_node3"><a xlink:href="../../d1/d69/interfacemodel_1_1_feature.html#ad39db6a63efe12b76e6b070a633db99e" target="_top" xlink:title="model.Feature.remove">
<polygon fill="white" stroke="black" points="416.5,-5.5 416.5,-24.5 541.5,-24.5 541.5,-5.5 416.5,-5.5"/>
<text text-anchor="middle" x="479" y="-12.5" font-family="Helvetica,sans-Serif" font-size="10.00">model.Feature.remove</text>
</a>
</g>
</g>
<!-- Node2&#45;&gt;Node3 -->
<g id="edge2" class="edge"><title>Node2&#45;&gt;Node3</title>
<path fill="none" stroke="midnightblue" d="M380.083,-15C388.811,-15 397.604,-15 406.149,-15"/>
<polygon fill="midnightblue" stroke="midnightblue" points="406.428,-18.5001 416.428,-15 406.428,-11.5001 406.428,-18.5001"/>
</g>
</g>
</svg>
