<?xml version="1.0" encoding="UTF-8" standalone="no"?>
<!DOCTYPE svg PUBLIC "-//W3C//DTD SVG 1.1//EN"
 "http://www.w3.org/Graphics/SVG/1.1/DTD/svg11.dtd">
<!-- Generated by graphviz version 2.36.0 (20140111.2315)
 -->
<!-- Title: view.DataViewComponents.addTextBoxWithDeleteButton Pages: 1 -->
<svg width="710pt" height="66pt"
 viewBox="0.00 0.00 710.00 66.00" xmlns="http://www.w3.org/2000/svg" xmlns:xlink="http://www.w3.org/1999/xlink">
<g id="graph0" class="graph" transform="scale(1 1) rotate(0) translate(4 62)">
<title>view.DataViewComponents.addTextBoxWithDeleteButton</title>
<polygon fill="white" stroke="none" points="-4,4 -4,-62 706,-62 706,4 -4,4"/>
<!-- Node1 -->
<g id="node1" class="node"><title>Node1</title>
<polygon fill="#bfbfbf" stroke="black" points="0.5,-14 0.5,-44 167.5,-44 167.5,-14 0.5,-14"/>
<text text-anchor="start" x="8.5" y="-32" font-family="Helvetica,sans-Serif" font-size="10.00">view.DataViewComponents.add</text>
<text text-anchor="middle" x="84" y="-21" font-family="Helvetica,sans-Serif" font-size="10.00">TextBoxWithDeleteButton</text>
</g>
<!-- Node2 -->
<g id="node2" class="node"><title>Node2</title>
<g id="a_node2"><a xlink:href="../../d9/dd3/classview_1_1_variables_view.html#a298237e15137e0cf00d29789d6359c7c" target="_top" xlink:title="view.VariablesView.update">
<polygon fill="white" stroke="black" points="218,-38.5 218,-57.5 358,-57.5 358,-38.5 218,-38.5"/>
<text text-anchor="middle" x="288" y="-45.5" font-family="Helvetica,sans-Serif" font-size="10.00">view.VariablesView.update</text>
</a>
</g>
</g>
<!-- Node1&#45;&gt;Node2 -->
<g id="edge1" class="edge"><title>Node1&#45;&gt;Node2</title>
<path fill="none" stroke="midnightblue" d="M177.971,-37.7448C191.415,-39.0093 205.05,-40.2918 217.915,-41.5019"/>
<polygon fill="midnightblue" stroke="midnightblue" points="178.028,-34.2348 167.744,-36.7828 177.372,-41.204 178.028,-34.2348"/>
</g>
<!-- Node5 -->
<g id="node5" class="node"><title>Node5</title>
<g id="a_node5"><a xlink:href="../../d8/d0c/classview_1_1_u_d_commands_view.html#a07deb1195869f7a78443052e51e25fe8" target="_top" xlink:title="view.UDCommandsView.update">
<polygon fill="white" stroke="black" points="204.5,-0.5 204.5,-19.5 371.5,-19.5 371.5,-0.5 204.5,-0.5"/>
<text text-anchor="middle" x="288" y="-7.5" font-family="Helvetica,sans-Serif" font-size="10.00">view.UDCommandsView.update</text>
</a>
</g>
</g>
<!-- Node1&#45;&gt;Node5 -->
<g id="edge4" class="edge"><title>Node1&#45;&gt;Node5</title>
<path fill="none" stroke="midnightblue" d="M177.731,-20.2778C186.622,-19.4415 195.6,-18.5971 204.385,-17.7707"/>
<polygon fill="midnightblue" stroke="midnightblue" points="177.372,-16.796 167.744,-21.2172 178.028,-23.7652 177.372,-16.796"/>
</g>
<!-- Node3 -->
<g id="node3" class="node"><title>Node3</title>
<g id="a_node3"><a xlink:href="../../de/d2f/classview_1_1_data_view.html#ab1acc31f3125a6a1d52e21b05bae379b" target="_top" xlink:title="view.DataView.update">
<polygon fill="white" stroke="black" points="408,-19.5 408,-38.5 528,-38.5 528,-19.5 408,-19.5"/>
<text text-anchor="middle" x="468" y="-26.5" font-family="Helvetica,sans-Serif" font-size="10.00">view.DataView.update</text>
</a>
</g>
</g>
<!-- Node2&#45;&gt;Node3 -->
<g id="edge2" class="edge"><title>Node2&#45;&gt;Node3</title>
<path fill="none" stroke="midnightblue" d="M368.177,-39.5486C381.489,-38.1275 395.099,-36.6748 407.794,-35.3197"/>
<polygon fill="midnightblue" stroke="midnightblue" points="367.646,-36.0852 358.074,-40.6269 368.389,-43.0457 367.646,-36.0852"/>
</g>
<!-- Node4 -->
<g id="node4" class="node"><title>Node4</title>
<g id="a_node4"><a xlink:href="../../d0/dfc/classview_1_1_slogo_window.html#a1605d0405c7961727ef7c3d96e41b743" target="_top" xlink:title="view.SlogoWindow.update">
<polygon fill="white" stroke="black" points="564.5,-19.5 564.5,-38.5 701.5,-38.5 701.5,-19.5 564.5,-19.5"/>
<text text-anchor="middle" x="633" y="-26.5" font-family="Helvetica,sans-Serif" font-size="10.00">view.SlogoWindow.update</text>
</a>
</g>
</g>
<!-- Node3&#45;&gt;Node4 -->
<g id="edge3" class="edge"><title>Node3&#45;&gt;Node4</title>
<path fill="none" stroke="midnightblue" d="M538.349,-29C546.997,-29 555.831,-29 564.45,-29"/>
<polygon fill="midnightblue" stroke="midnightblue" points="538.308,-25.5001 528.308,-29 538.308,-32.5001 538.308,-25.5001"/>
</g>
<!-- Node5&#45;&gt;Node3 -->
<g id="edge5" class="edge"><title>Node5&#45;&gt;Node3</title>
<path fill="none" stroke="midnightblue" d="M381.743,-19.8995C390.594,-20.8443 399.397,-21.7839 407.798,-22.6807"/>
<polygon fill="midnightblue" stroke="midnightblue" points="382.062,-16.4138 371.747,-18.8325 381.319,-23.3742 382.062,-16.4138"/>
</g>
</g>
</svg>
