<?xml version="1.0" encoding="UTF-8" standalone="no"?>
<!DOCTYPE svg PUBLIC "-//W3C//DTD SVG 1.1//EN"
 "http://www.w3.org/Graphics/SVG/1.1/DTD/svg11.dtd">
<!-- Generated by graphviz version 2.36.0 (20140111.2315)
 -->
<!-- Title: view.DataViewComponents.makeDeleteButton Pages: 1 -->
<svg width="922pt" height="66pt"
 viewBox="0.00 0.00 922.00 66.00" xmlns="http://www.w3.org/2000/svg" xmlns:xlink="http://www.w3.org/1999/xlink">
<g id="graph0" class="graph" transform="scale(1 1) rotate(0) translate(4 62)">
<title>view.DataViewComponents.makeDeleteButton</title>
<polygon fill="white" stroke="none" points="-4,4 -4,-62 918,-62 918,4 -4,4"/>
<!-- Node1 -->
<g id="node1" class="node"><title>Node1</title>
<polygon fill="#bfbfbf" stroke="black" points="0,-14 0,-44 176,-44 176,-14 0,-14"/>
<text text-anchor="start" x="8" y="-32" font-family="Helvetica,sans-Serif" font-size="10.00">view.DataViewComponents.make</text>
<text text-anchor="middle" x="88" y="-21" font-family="Helvetica,sans-Serif" font-size="10.00">DeleteButton</text>
</g>
<!-- Node2 -->
<g id="node2" class="node"><title>Node2</title>
<g id="a_node2"><a xlink:href="../../d4/d36/classview_1_1_data_view_components.html#a05b49c46bdc53791b28b09bf91743124" target="_top" xlink:title="view.DataViewComponents.add\lTextBoxWithDeleteButton">
<polygon fill="white" stroke="black" points="212.5,-14 212.5,-44 379.5,-44 379.5,-14 212.5,-14"/>
<text text-anchor="start" x="220.5" y="-32" font-family="Helvetica,sans-Serif" font-size="10.00">view.DataViewComponents.add</text>
<text text-anchor="middle" x="296" y="-21" font-family="Helvetica,sans-Serif" font-size="10.00">TextBoxWithDeleteButton</text>
</a>
</g>
</g>
<!-- Node1&#45;&gt;Node2 -->
<g id="edge1" class="edge"><title>Node1&#45;&gt;Node2</title>
<path fill="none" stroke="midnightblue" d="M186.218,-29C194.902,-29 203.641,-29 212.186,-29"/>
<polygon fill="midnightblue" stroke="midnightblue" points="186.064,-25.5001 176.064,-29 186.064,-32.5001 186.064,-25.5001"/>
</g>
<!-- Node3 -->
<g id="node3" class="node"><title>Node3</title>
<g id="a_node3"><a xlink:href="../../d9/dd3/classview_1_1_variables_view.html#a298237e15137e0cf00d29789d6359c7c" target="_top" xlink:title="view.VariablesView.update">
<polygon fill="white" stroke="black" points="430,-38.5 430,-57.5 570,-57.5 570,-38.5 430,-38.5"/>
<text text-anchor="middle" x="500" y="-45.5" font-family="Helvetica,sans-Serif" font-size="10.00">view.VariablesView.update</text>
</a>
</g>
</g>
<!-- Node2&#45;&gt;Node3 -->
<g id="edge2" class="edge"><title>Node2&#45;&gt;Node3</title>
<path fill="none" stroke="midnightblue" d="M389.971,-37.7448C403.415,-39.0093 417.05,-40.2918 429.915,-41.5019"/>
<polygon fill="midnightblue" stroke="midnightblue" points="390.028,-34.2348 379.744,-36.7828 389.372,-41.204 390.028,-34.2348"/>
</g>
<!-- Node6 -->
<g id="node6" class="node"><title>Node6</title>
<g id="a_node6"><a xlink:href="../../d8/d0c/classview_1_1_u_d_commands_view.html#a07deb1195869f7a78443052e51e25fe8" target="_top" xlink:title="view.UDCommandsView.update">
<polygon fill="white" stroke="black" points="416.5,-0.5 416.5,-19.5 583.5,-19.5 583.5,-0.5 416.5,-0.5"/>
<text text-anchor="middle" x="500" y="-7.5" font-family="Helvetica,sans-Serif" font-size="10.00">view.UDCommandsView.update</text>
</a>
</g>
</g>
<!-- Node2&#45;&gt;Node6 -->
<g id="edge5" class="edge"><title>Node2&#45;&gt;Node6</title>
<path fill="none" stroke="midnightblue" d="M389.731,-20.2778C398.622,-19.4415 407.6,-18.5971 416.385,-17.7707"/>
<polygon fill="midnightblue" stroke="midnightblue" points="389.372,-16.796 379.744,-21.2172 390.028,-23.7652 389.372,-16.796"/>
</g>
<!-- Node4 -->
<g id="node4" class="node"><title>Node4</title>
<g id="a_node4"><a xlink:href="../../de/d2f/classview_1_1_data_view.html#ab1acc31f3125a6a1d52e21b05bae379b" target="_top" xlink:title="view.DataView.update">
<polygon fill="white" stroke="black" points="620,-19.5 620,-38.5 740,-38.5 740,-19.5 620,-19.5"/>
<text text-anchor="middle" x="680" y="-26.5" font-family="Helvetica,sans-Serif" font-size="10.00">view.DataView.update</text>
</a>
</g>
</g>
<!-- Node3&#45;&gt;Node4 -->
<g id="edge3" class="edge"><title>Node3&#45;&gt;Node4</title>
<path fill="none" stroke="midnightblue" d="M580.177,-39.5486C593.489,-38.1275 607.099,-36.6748 619.794,-35.3197"/>
<polygon fill="midnightblue" stroke="midnightblue" points="579.646,-36.0852 570.074,-40.6269 580.389,-43.0457 579.646,-36.0852"/>
</g>
<!-- Node5 -->
<g id="node5" class="node"><title>Node5</title>
<g id="a_node5"><a xlink:href="../../d0/dfc/classview_1_1_slogo_window.html#a1605d0405c7961727ef7c3d96e41b743" target="_top" xlink:title="view.SlogoWindow.update">
<polygon fill="white" stroke="black" points="776.5,-19.5 776.5,-38.5 913.5,-38.5 913.5,-19.5 776.5,-19.5"/>
<text text-anchor="middle" x="845" y="-26.5" font-family="Helvetica,sans-Serif" font-size="10.00">view.SlogoWindow.update</text>
</a>
</g>
</g>
<!-- Node4&#45;&gt;Node5 -->
<g id="edge4" class="edge"><title>Node4&#45;&gt;Node5</title>
<path fill="none" stroke="midnightblue" d="M750.349,-29C758.997,-29 767.831,-29 776.45,-29"/>
<polygon fill="midnightblue" stroke="midnightblue" points="750.308,-25.5001 740.308,-29 750.308,-32.5001 750.308,-25.5001"/>
</g>
<!-- Node6&#45;&gt;Node4 -->
<g id="edge6" class="edge"><title>Node6&#45;&gt;Node4</title>
<path fill="none" stroke="midnightblue" d="M593.743,-19.8995C602.594,-20.8443 611.397,-21.7839 619.798,-22.6807"/>
<polygon fill="midnightblue" stroke="midnightblue" points="594.062,-16.4138 583.747,-18.8325 593.319,-23.3742 594.062,-16.4138"/>
</g>
</g>
</svg>
