<?xml version="1.0" encoding="UTF-8" standalone="no"?>
<!DOCTYPE svg PUBLIC "-//W3C//DTD SVG 1.1//EN"
 "http://www.w3.org/Graphics/SVG/1.1/DTD/svg11.dtd">
<!-- Generated by graphviz version 2.36.0 (20140111.2315)
 -->
<!-- Title: view.InputView.addAndShowText Pages: 1 -->
<!--zoomable 66 -->
<svg id="main" version="1.1" xmlns="http://www.w3.org/2000/svg" xmlns:xlink="http://www.w3.org/1999/xlink" xml:space="preserve" onload="init(evt)">
<style type="text/css"><![CDATA[
.edge:hover path { stroke: red; }
.edge:hover polygon { stroke: red; fill: red; }
]]></style>
<script type="text/javascript"><![CDATA[
var edges = document.getElementsByTagName('g');
if (edges && edges.length) {
  for (var i=0;i<edges.length;i++) {
    if (edges[i].id.substr(0,4)=='edge') {
      edges[i].setAttribute('class','edge');
    }
  }
}
]]></script>
        <defs>
                <circle id="rim" cx="0" cy="0" r="7"/>
                <circle id="rim2" cx="0" cy="0" r="3.5"/>
                <g id="zoomPlus">
                        <use xlink:href="#rim" fill="#404040">
                                <set attributeName="fill" to="#808080" begin="zoomplus.mouseover" end="zoomplus.mouseout"/>
                        </use>
                        <path d="M-4,0h8M0,-4v8" fill="none" stroke="white" stroke-width="1.5" pointer-events="none"/>
                </g>
                <g id="zoomMin">
                        <use xlink:href="#rim" fill="#404040">
                                <set attributeName="fill" to="#808080" begin="zoomminus.mouseover" end="zoomminus.mouseout"/>
                        </use>
                        <path d="M-4,0h8" fill="none" stroke="white" stroke-width="1.5" pointer-events="none"/>
                </g>
                <g id="dirArrow">
                        <path fill="none" stroke="white" stroke-width="1.5" d="M0,-3.0v7 M-2.5,-0.5L0,-3.0L2.5,-0.5"/>
                </g>
               <g id="resetDef">
                       <use xlink:href="#rim2" fill="#404040">
                               <set attributeName="fill" to="#808080" begin="reset.mouseover" end="reset.mouseout"/>
                       </use>
               </g>
        </defs>

<script type="text/javascript">
var viewWidth = 1158;
var viewHeight = 66;
var sectionId = 'dynsection-3';
</script>
<script xlink:href="../../svgpan.js"/>
<svg id="graph" class="graph">
<g id="viewport">
<title>view.InputView.addAndShowText</title>
<polygon fill="white" stroke="none" points="-4,4 -4,-62 1154,-62 1154,4 -4,4"/>
<!-- Node1 -->
<g id="node1" class="node"><title>Node1</title>
<polygon fill="#bfbfbf" stroke="black" points="0,-19.5 0,-38.5 168,-38.5 168,-19.5 0,-19.5"/>
<text text-anchor="middle" x="84" y="-26.5" font-family="Helvetica,sans-Serif" font-size="10.00">view.InputView.addAndShowText</text>
</g>
<!-- Node2 -->
<g id="node2" class="node"><title>Node2</title>
<g id="a_node2"><a xlink:href="../../db/d98/classview_1_1_scroll_view.html#af8a9a83dc920350c521d6d78016cafce" target="_top" xlink:title="view.ScrollView.makeClickableText">
<polygon fill="white" stroke="black" points="204.5,-19.5 204.5,-38.5 381.5,-38.5 381.5,-19.5 204.5,-19.5"/>
<text text-anchor="middle" x="293" y="-26.5" font-family="Helvetica,sans-Serif" font-size="10.00">view.ScrollView.makeClickableText</text>
</a>
</g>
</g>
<!-- Node1&#45;&gt;Node2 -->
<g id="edge1" class="edge"><title>Node1&#45;&gt;Node2</title>
<path fill="none" stroke="midnightblue" d="M178.137,-29C186.821,-29 195.604,-29 204.237,-29"/>
<polygon fill="midnightblue" stroke="midnightblue" points="178.002,-25.5001 168.002,-29 178.002,-32.5001 178.002,-25.5001"/>
</g>
<!-- Node3 -->
<g id="node3" class="node"><title>Node3</title>
<g id="a_node3"><a xlink:href="../../db/d98/classview_1_1_scroll_view.html#af810ea194b6bcd9c7c8da1f84ebd5ac2" target="_top" xlink:title="view.ScrollView.addTextBox">
<polygon fill="white" stroke="black" points="418,-19.5 418,-38.5 562,-38.5 562,-19.5 418,-19.5"/>
<text text-anchor="middle" x="490" y="-26.5" font-family="Helvetica,sans-Serif" font-size="10.00">view.ScrollView.addTextBox</text>
</a>
</g>
</g>
<!-- Node2&#45;&gt;Node3 -->
<g id="edge2" class="edge"><title>Node2&#45;&gt;Node3</title>
<path fill="none" stroke="midnightblue" d="M391.802,-29C400.576,-29 409.346,-29 417.829,-29"/>
<polygon fill="midnightblue" stroke="midnightblue" points="391.518,-25.5001 381.518,-29 391.518,-32.5001 391.518,-25.5001"/>
</g>
<!-- Node4 -->
<g id="node4" class="node"><title>Node4</title>
<g id="a_node4"><a xlink:href="../../d9/d93/classview_1_1_basic_commands_view.html#a787c3d60d71cc35031fcc939758c25dc" target="_top" xlink:title="view.BasicCommandsView.update">
<polygon fill="white" stroke="black" points="598,-38.5 598,-57.5 776,-57.5 776,-38.5 598,-38.5"/>
<text text-anchor="middle" x="687" y="-45.5" font-family="Helvetica,sans-Serif" font-size="10.00">view.BasicCommandsView.update</text>
</a>
</g>
</g>
<!-- Node3&#45;&gt;Node4 -->
<g id="edge3" class="edge"><title>Node3&#45;&gt;Node4</title>
<path fill="none" stroke="midnightblue" d="M572.344,-36.9258C580.718,-37.7418 589.256,-38.5737 597.701,-39.3965"/>
<polygon fill="midnightblue" stroke="midnightblue" points="572.52,-33.4264 562.227,-35.9401 571.841,-40.3934 572.52,-33.4264"/>
</g>
<!-- Node7 -->
<g id="node7" class="node"><title>Node7</title>
<g id="a_node7"><a xlink:href="../../d1/d0e/classview_1_1_history_view.html#abfcd825b67237a6c1a803a1314b223f3" target="_top" xlink:title="view.HistoryView.update">
<polygon fill="white" stroke="black" points="621.5,-0.5 621.5,-19.5 752.5,-19.5 752.5,-0.5 621.5,-0.5"/>
<text text-anchor="middle" x="687" y="-7.5" font-family="Helvetica,sans-Serif" font-size="10.00">view.HistoryView.update</text>
</a>
</g>
</g>
<!-- Node3&#45;&gt;Node7 -->
<g id="edge6" class="edge"><title>Node3&#45;&gt;Node7</title>
<path fill="none" stroke="midnightblue" d="M572.328,-21.0757C588.708,-19.4797 605.715,-17.8227 621.429,-16.2916"/>
<polygon fill="midnightblue" stroke="midnightblue" points="571.841,-17.6066 562.227,-22.0599 572.52,-24.5736 571.841,-17.6066"/>
</g>
<!-- Node5 -->
<g id="node5" class="node"><title>Node5</title>
<g id="a_node5"><a xlink:href="../../de/d2f/classview_1_1_data_view.html#ab1acc31f3125a6a1d52e21b05bae379b" target="_top" xlink:title="view.DataView.update">
<polygon fill="white" stroke="black" points="834,-38.5 834,-57.5 954,-57.5 954,-38.5 834,-38.5"/>
<text text-anchor="middle" x="894" y="-45.5" font-family="Helvetica,sans-Serif" font-size="10.00">view.DataView.update</text>
</a>
</g>
</g>
<!-- Node4&#45;&gt;Node5 -->
<g id="edge4" class="edge"><title>Node4&#45;&gt;Node5</title>
<path fill="none" stroke="midnightblue" d="M786.248,-48C802.555,-48 819.006,-48 833.946,-48"/>
<polygon fill="midnightblue" stroke="midnightblue" points="786.128,-44.5001 776.128,-48 786.128,-51.5001 786.128,-44.5001"/>
</g>
<!-- Node6 -->
<g id="node6" class="node"><title>Node6</title>
<g id="a_node6"><a xlink:href="../../d0/dfc/classview_1_1_slogo_window.html#a1605d0405c7961727ef7c3d96e41b743" target="_top" xlink:title="view.SlogoWindow.update">
<polygon fill="white" stroke="black" points="1012.5,-19.5 1012.5,-38.5 1149.5,-38.5 1149.5,-19.5 1012.5,-19.5"/>
<text text-anchor="middle" x="1081" y="-26.5" font-family="Helvetica,sans-Serif" font-size="10.00">view.SlogoWindow.update</text>
</a>
</g>
</g>
<!-- Node5&#45;&gt;Node6 -->
<g id="edge5" class="edge"><title>Node5&#45;&gt;Node6</title>
<path fill="none" stroke="midnightblue" d="M964.199,-40.8931C979.893,-39.2813 996.544,-37.5711 1012.18,-35.9652"/>
<polygon fill="midnightblue" stroke="midnightblue" points="963.634,-37.4326 954.044,-41.936 964.349,-44.396 963.634,-37.4326"/>
</g>
<!-- Node8 -->
<g id="node8" class="node"><title>Node8</title>
<g id="a_node8"><a xlink:href="../../dc/da8/classview_1_1_history_results_view.html#a6a4386f2ddde878a8c42ca401a79aee5" target="_top" xlink:title="view.HistoryResultsView.update">
<polygon fill="white" stroke="black" points="812,-0.5 812,-19.5 976,-19.5 976,-0.5 812,-0.5"/>
<text text-anchor="middle" x="894" y="-7.5" font-family="Helvetica,sans-Serif" font-size="10.00">view.HistoryResultsView.update</text>
</a>
</g>
</g>
<!-- Node7&#45;&gt;Node8 -->
<g id="edge7" class="edge"><title>Node7&#45;&gt;Node8</title>
<path fill="none" stroke="midnightblue" d="M762.878,-10C778.783,-10 795.647,-10 811.776,-10"/>
<polygon fill="midnightblue" stroke="midnightblue" points="762.582,-6.5001 752.582,-10 762.582,-13.5001 762.582,-6.5001"/>
</g>
<!-- Node8&#45;&gt;Node6 -->
<g id="edge8" class="edge"><title>Node8&#45;&gt;Node6</title>
<path fill="none" stroke="midnightblue" d="M986.141,-19.3604C995.017,-20.272 1003.91,-21.1853 1012.49,-22.0667"/>
<polygon fill="midnightblue" stroke="midnightblue" points="986.449,-15.8737 976.144,-18.3337 985.734,-22.8371 986.449,-15.8737"/>
</g>
</g>
</svg>
        <g id="navigator" transform="translate(0 0)" fill="#404254">
                <rect fill="#f2f5e9" fill-opacity="0.5" stroke="#606060" stroke-width=".5" x="0" y="0" width="60" height="60"/>
                <use id="zoomplus" xlink:href="#zoomPlus" x="17" y="9" onmousedown="handleZoom(evt,'in')"/>
                <use id="zoomminus" xlink:href="#zoomMin" x="42" y="9" onmousedown="handleZoom(evt,'out')"/>
                <use id="reset" xlink:href="#resetDef" x="30" y="36" onmousedown="handleReset()"/>
                <g id="arrowUp" xlink:href="#dirArrow" transform="translate(30 24)" onmousedown="handlePan(0,-1)">
                  <use xlink:href="#rim" fill="#404040">
                        <set attributeName="fill" to="#808080" begin="arrowUp.mouseover" end="arrowUp.mouseout"/>
                  </use>
                  <path fill="none" stroke="white" stroke-width="1.5" d="M0,-3.0v7 M-2.5,-0.5L0,-3.0L2.5,-0.5"/>
                </g>
                <g id="arrowRight" xlink:href="#dirArrow" transform="rotate(90) translate(36 -43)" onmousedown="handlePan(1,0)">
                  <use xlink:href="#rim" fill="#404040">
                        <set attributeName="fill" to="#808080" begin="arrowRight.mouseover" end="arrowRight.mouseout"/>
                  </use>
                  <path fill="none" stroke="white" stroke-width="1.5" d="M0,-3.0v7 M-2.5,-0.5L0,-3.0L2.5,-0.5"/>
                </g>
                <g id="arrowDown" xlink:href="#dirArrow" transform="rotate(180) translate(-30 -48)" onmousedown="handlePan(0,1)">
                  <use xlink:href="#rim" fill="#404040">
                        <set attributeName="fill" to="#808080" begin="arrowDown.mouseover" end="arrowDown.mouseout"/>
                  </use>
                  <path fill="none" stroke="white" stroke-width="1.5" d="M0,-3.0v7 M-2.5,-0.5L0,-3.0L2.5,-0.5"/>
                </g>
                <g id="arrowLeft" xlink:href="#dirArrow" transform="rotate(270) translate(-36 17)" onmousedown="handlePan(-1,0)">
                  <use xlink:href="#rim" fill="#404040">
                        <set attributeName="fill" to="#808080" begin="arrowLeft.mouseover" end="arrowLeft.mouseout"/>
                  </use>
                  <path fill="none" stroke="white" stroke-width="1.5" d="M0,-3.0v7 M-2.5,-0.5L0,-3.0L2.5,-0.5"/>
                </g>
        </g>
        <svg viewBox="0 0 15 15" width="100%" height="30px" preserveAspectRatio="xMaxYMin meet">
         <g id="arrow_out" transform="scale(0.3 0.3)">
          <a xlink:href="classview_1_1_input_view_a81954709509ce44f7fe364a24a613d66_icgraph_org.svg" target="_base">
           <rect id="button" ry="5" rx="5" y="6" x="6" height="38" width="38"
                fill="#f2f5e9" fill-opacity="0.5" stroke="#606060" stroke-width="1.0"/>
           <path id="arrow"
             d="M 11.500037,31.436501 C 11.940474,20.09759 22.043105,11.32322 32.158766,21.979434 L 37.068811,17.246167 C 37.068811,17.246167 37.088388,32 37.088388,32 L 22.160133,31.978069 C 22.160133,31.978069 26.997745,27.140456 26.997745,27.140456 C 18.528582,18.264221 13.291696,25.230495 11.500037,31.436501 z"
             style="fill:#404040;"/>
          </a>
         </g>
        </svg>
</svg>
