<?xml version="1.0" encoding="UTF-8" standalone="no"?>
<!DOCTYPE svg PUBLIC "-//W3C//DTD SVG 1.1//EN"
 "http://www.w3.org/Graphics/SVG/1.1/DTD/svg11.dtd">
<!-- Generated by graphviz version 2.36.0 (20140111.2315)
 -->
<!-- Title: view.InputView.InputView Pages: 1 -->
<svg width="1320pt" height="350pt"
 viewBox="0.00 0.00 1320.00 349.68" xmlns="http://www.w3.org/2000/svg" xmlns:xlink="http://www.w3.org/1999/xlink">
<g id="graph0" class="graph" transform="scale(1 1) rotate(0) translate(4 345.684)">
<title>view.InputView.InputView</title>
<polygon fill="white" stroke="none" points="-4,4 -4,-345.684 1316,-345.684 1316,4 -4,4"/>
<!-- Node1 -->
<g id="node1" class="node"><title>Node1</title>
<polygon fill="#bfbfbf" stroke="black" points="0.5,-177.184 0.5,-196.184 133.5,-196.184 133.5,-177.184 0.5,-177.184"/>
<text text-anchor="middle" x="67" y="-184.184" font-family="Helvetica,sans-Serif" font-size="10.00">view.InputView.InputView</text>
</g>
<!-- Node2 -->
<g id="node2" class="node"><title>Node2</title>
<g id="a_node2"><a xlink:href="../../d6/d0a/classview_1_1_input_view.html#a8652a884880fcc3b8a2bdd4514c3ba57" target="_top" xlink:title="view.InputView.initInputArea">
<polygon fill="white" stroke="black" points="170,-221.184 170,-240.184 318,-240.184 318,-221.184 170,-221.184"/>
<text text-anchor="middle" x="244" y="-228.184" font-family="Helvetica,sans-Serif" font-size="10.00">view.InputView.initInputArea</text>
</a>
</g>
</g>
<!-- Node1&#45;&gt;Node2 -->
<g id="edge1" class="edge"><title>Node1&#45;&gt;Node2</title>
<path fill="none" stroke="midnightblue" d="M105.972,-196.232C132.115,-202.805 167.053,-211.589 195.107,-218.642"/>
<polygon fill="midnightblue" stroke="midnightblue" points="194.55,-222.111 205.102,-221.155 196.257,-215.323 194.55,-222.111"/>
</g>
<!-- Node3 -->
<g id="node3" class="node"><title>Node3</title>
<g id="a_node3"><a xlink:href="../../d6/d0a/classview_1_1_input_view.html#a948930c9b825f34ef8f5def96910471b" target="_top" xlink:title="view.InputView.initSubmit\lButton">
<polygon fill="white" stroke="black" points="176,-171.684 176,-201.684 312,-201.684 312,-171.684 176,-171.684"/>
<text text-anchor="start" x="184" y="-189.684" font-family="Helvetica,sans-Serif" font-size="10.00">view.InputView.initSubmit</text>
<text text-anchor="middle" x="244" y="-178.684" font-family="Helvetica,sans-Serif" font-size="10.00">Button</text>
</a>
</g>
</g>
<!-- Node1&#45;&gt;Node3 -->
<g id="edge2" class="edge"><title>Node1&#45;&gt;Node3</title>
<path fill="none" stroke="midnightblue" d="M133.661,-186.684C144.098,-186.684 154.978,-186.684 165.653,-186.684"/>
<polygon fill="midnightblue" stroke="midnightblue" points="165.804,-190.184 175.804,-186.684 165.804,-183.184 165.804,-190.184"/>
</g>
<!-- Node21 -->
<g id="node21" class="node"><title>Node21</title>
<g id="a_node21"><a xlink:href="../../dc/dc4/classview_1_1_pane_view.html#af1e7e1bf8fa36e154c46cc1ff327b7fc" target="_top" xlink:title="view.PaneView.setView">
<polygon fill="white" stroke="black" points="182.5,-133.184 182.5,-152.184 305.5,-152.184 305.5,-133.184 182.5,-133.184"/>
<text text-anchor="middle" x="244" y="-140.184" font-family="Helvetica,sans-Serif" font-size="10.00">view.PaneView.setView</text>
</a>
</g>
</g>
<!-- Node1&#45;&gt;Node21 -->
<g id="edge24" class="edge"><title>Node1&#45;&gt;Node21</title>
<path fill="none" stroke="midnightblue" d="M105.972,-177.137C132.115,-170.564 167.053,-161.779 195.107,-154.726"/>
<polygon fill="midnightblue" stroke="midnightblue" points="196.257,-158.046 205.102,-152.213 194.55,-151.257 196.257,-158.046"/>
</g>
<!-- Node4 -->
<g id="node4" class="node"><title>Node4</title>
<g id="a_node4"><a xlink:href="../../d3/d88/classmodel_1_1_slogo_model.html#ad096dbf0a253635d346a622540f472bd" target="_top" xlink:title="model.SlogoModel.parseAnd\lExecute">
<polygon fill="white" stroke="black" points="354,-171.684 354,-201.684 508,-201.684 508,-171.684 354,-171.684"/>
<text text-anchor="start" x="362" y="-189.684" font-family="Helvetica,sans-Serif" font-size="10.00">model.SlogoModel.parseAnd</text>
<text text-anchor="middle" x="431" y="-178.684" font-family="Helvetica,sans-Serif" font-size="10.00">Execute</text>
</a>
</g>
</g>
<!-- Node3&#45;&gt;Node4 -->
<g id="edge3" class="edge"><title>Node3&#45;&gt;Node4</title>
<path fill="none" stroke="midnightblue" d="M312.051,-186.684C322.316,-186.684 333.035,-186.684 343.646,-186.684"/>
<polygon fill="midnightblue" stroke="midnightblue" points="343.767,-190.184 353.767,-186.684 343.767,-183.184 343.767,-190.184"/>
</g>
<!-- Node5 -->
<g id="node5" class="node"><title>Node5</title>
<g id="a_node5"><a xlink:href="../../d3/d88/classmodel_1_1_slogo_model.html#a54085c9bf13d8dcfd7deed3623be36f1" target="_top" xlink:title="model.SlogoModel.execute\lCommands">
<polygon fill="white" stroke="black" points="544,-256.684 544,-286.684 690,-286.684 690,-256.684 544,-256.684"/>
<text text-anchor="start" x="552" y="-274.684" font-family="Helvetica,sans-Serif" font-size="10.00">model.SlogoModel.execute</text>
<text text-anchor="middle" x="617" y="-263.684" font-family="Helvetica,sans-Serif" font-size="10.00">Commands</text>
</a>
</g>
</g>
<!-- Node4&#45;&gt;Node5 -->
<g id="edge4" class="edge"><title>Node4&#45;&gt;Node5</title>
<path fill="none" stroke="midnightblue" d="M464.472,-201.685C494.896,-215.739 540.54,-236.825 573.779,-252.18"/>
<polygon fill="midnightblue" stroke="midnightblue" points="572.688,-255.531 583.234,-256.548 575.623,-249.176 572.688,-255.531"/>
</g>
<!-- Node11 -->
<g id="node11" class="node"><title>Node11</title>
<g id="a_node11"><a xlink:href="../../d6/d95/classparser_1_1_parser.html#aec8f2721f51a8a257b572c73d80d5d98" target="_top" xlink:title="parser.Parser.parse">
<polygon fill="white" stroke="black" points="562.5,-131.184 562.5,-150.184 671.5,-150.184 671.5,-131.184 562.5,-131.184"/>
<text text-anchor="middle" x="617" y="-138.184" font-family="Helvetica,sans-Serif" font-size="10.00">parser.Parser.parse</text>
</a>
</g>
</g>
<!-- Node4&#45;&gt;Node11 -->
<g id="edge10" class="edge"><title>Node4&#45;&gt;Node11</title>
<path fill="none" stroke="midnightblue" d="M492.248,-171.622C516.808,-165.482 544.808,-158.482 567.955,-152.695"/>
<polygon fill="midnightblue" stroke="midnightblue" points="569.033,-156.034 577.886,-150.213 567.335,-149.243 569.033,-156.034"/>
</g>
<!-- Node20 -->
<g id="node20" class="node"><title>Node20</title>
<g id="a_node20"><a xlink:href="../../d3/d88/classmodel_1_1_slogo_model.html#a396654689e37ebdc837f5623a25d08d3" target="_top" xlink:title="model.SlogoModel.showToHistoryView">
<polygon fill="white" stroke="black" points="726.5,-177.184 726.5,-196.184 923.5,-196.184 923.5,-177.184 726.5,-177.184"/>
<text text-anchor="middle" x="825" y="-184.184" font-family="Helvetica,sans-Serif" font-size="10.00">model.SlogoModel.showToHistoryView</text>
</a>
</g>
</g>
<!-- Node4&#45;&gt;Node20 -->
<g id="edge21" class="edge"><title>Node4&#45;&gt;Node20</title>
<path fill="none" stroke="midnightblue" d="M508.046,-186.684C567.238,-186.684 650.145,-186.684 716.181,-186.684"/>
<polygon fill="midnightblue" stroke="midnightblue" points="716.212,-190.184 726.212,-186.684 716.212,-183.184 716.212,-190.184"/>
</g>
<!-- Node6 -->
<g id="node6" class="node"><title>Node6</title>
<g id="a_node6"><a xlink:href="../../d2/d93/interfaceinstructions_1_1_instruction.html#ab47846ec32fac6e514e5ab7fe4db0254" target="_top" xlink:title="instructions.Instruction.execute">
<polygon fill="white" stroke="black" points="741.5,-322.184 741.5,-341.184 908.5,-341.184 908.5,-322.184 741.5,-322.184"/>
<text text-anchor="middle" x="825" y="-329.184" font-family="Helvetica,sans-Serif" font-size="10.00">instructions.Instruction.execute</text>
</a>
</g>
</g>
<!-- Node5&#45;&gt;Node6 -->
<g id="edge5" class="edge"><title>Node5&#45;&gt;Node6</title>
<path fill="none" stroke="midnightblue" d="M660.583,-286.77C680.359,-293.546 704.257,-301.409 726,-307.684 740.768,-311.946 756.926,-316.106 771.787,-319.733"/>
<polygon fill="midnightblue" stroke="midnightblue" points="771.292,-323.215 781.834,-322.154 772.932,-316.409 771.292,-323.215"/>
</g>
<!-- Node7 -->
<g id="node7" class="node"><title>Node7</title>
<g id="a_node7"><a xlink:href="../../d8/d36/classmodel_1_1_observable_data.html#aa526df8e1adab74d19f2d89071560dcb" target="_top" xlink:title="model.ObservableData.get">
<polygon fill="white" stroke="black" points="1164,-158.184 1164,-177.184 1310,-177.184 1310,-158.184 1164,-158.184"/>
<text text-anchor="middle" x="1237" y="-165.184" font-family="Helvetica,sans-Serif" font-size="10.00">model.ObservableData.get</text>
</a>
</g>
</g>
<!-- Node5&#45;&gt;Node7 -->
<g id="edge6" class="edge"><title>Node5&#45;&gt;Node7</title>
<path fill="none" stroke="midnightblue" d="M681.446,-286.726C780.515,-307.024 976.119,-334.148 1126,-273.684 1170.03,-255.922 1206.27,-211.168 1224.09,-185.858"/>
<polygon fill="midnightblue" stroke="midnightblue" points="1227.04,-187.73 1229.8,-177.498 1221.26,-183.782 1227.04,-187.73"/>
</g>
<!-- Node8 -->
<g id="node8" class="node"><title>Node8</title>
<g id="a_node8"><a xlink:href="../../d3/d88/classmodel_1_1_slogo_model.html#ad52954c6dbfb83f7aa97a85116c25eb8" target="_top" xlink:title="model.SlogoModel.showOnView">
<polygon fill="white" stroke="black" points="741.5,-240.184 741.5,-259.184 908.5,-259.184 908.5,-240.184 741.5,-240.184"/>
<text text-anchor="middle" x="825" y="-247.184" font-family="Helvetica,sans-Serif" font-size="10.00">model.SlogoModel.showOnView</text>
</a>
</g>
</g>
<!-- Node5&#45;&gt;Node8 -->
<g id="edge7" class="edge"><title>Node5&#45;&gt;Node8</title>
<path fill="none" stroke="midnightblue" d="M690.049,-263.99C703.4,-262.564 717.516,-261.056 731.378,-259.576"/>
<polygon fill="midnightblue" stroke="midnightblue" points="731.841,-263.046 741.413,-258.504 731.098,-256.086 731.841,-263.046"/>
</g>
<!-- Node9 -->
<g id="node9" class="node"><title>Node9</title>
<g id="a_node9"><a xlink:href="../../d8/d36/classmodel_1_1_observable_data.html#a575297a6d90ca0223478c397de4a8296" target="_top" xlink:title="model.ObservableData.change\lReturn">
<polygon fill="white" stroke="black" points="960.5,-234.684 960.5,-264.684 1125.5,-264.684 1125.5,-234.684 960.5,-234.684"/>
<text text-anchor="start" x="968.5" y="-252.684" font-family="Helvetica,sans-Serif" font-size="10.00">model.ObservableData.change</text>
<text text-anchor="middle" x="1043" y="-241.684" font-family="Helvetica,sans-Serif" font-size="10.00">Return</text>
</a>
</g>
</g>
<!-- Node8&#45;&gt;Node9 -->
<g id="edge8" class="edge"><title>Node8&#45;&gt;Node9</title>
<path fill="none" stroke="midnightblue" d="M908.585,-249.684C922.061,-249.684 936.098,-249.684 949.788,-249.684"/>
<polygon fill="midnightblue" stroke="midnightblue" points="950.175,-253.184 960.175,-249.684 950.175,-246.184 950.175,-253.184"/>
</g>
<!-- Node10 -->
<g id="node10" class="node"><title>Node10</title>
<g id="a_node10"><a xlink:href="../../d3/d88/classmodel_1_1_slogo_model.html#a5a328c6f896a5c150e95b49db71dea8f" target="_top" xlink:title="model.SlogoModel.load">
<polygon fill="white" stroke="black" points="979,-196.184 979,-215.184 1107,-215.184 1107,-196.184 979,-196.184"/>
<text text-anchor="middle" x="1043" y="-203.184" font-family="Helvetica,sans-Serif" font-size="10.00">model.SlogoModel.load</text>
</a>
</g>
</g>
<!-- Node8&#45;&gt;Node10 -->
<g id="edge9" class="edge"><title>Node8&#45;&gt;Node10</title>
<path fill="none" stroke="midnightblue" d="M872.869,-240.137C905.844,-233.42 950.156,-224.393 985.152,-217.264"/>
<polygon fill="midnightblue" stroke="midnightblue" points="986.123,-220.639 995.223,-215.213 984.725,-213.779 986.123,-220.639"/>
</g>
<!-- Node12 -->
<g id="node12" class="node"><title>Node12</title>
<g id="a_node12"><a xlink:href="../../d6/d95/classparser_1_1_parser.html#a0b953b563fd9171ad113c168900ba0ad" target="_top" xlink:title="parser.Parser.parseTokens">
<polygon fill="white" stroke="black" points="754.5,-65.1842 754.5,-84.1842 895.5,-84.1842 895.5,-65.1842 754.5,-65.1842"/>
<text text-anchor="middle" x="825" y="-72.1842" font-family="Helvetica,sans-Serif" font-size="10.00">parser.Parser.parseTokens</text>
</a>
</g>
</g>
<!-- Node11&#45;&gt;Node12 -->
<g id="edge11" class="edge"><title>Node11&#45;&gt;Node12</title>
<path fill="none" stroke="midnightblue" d="M647.954,-131.087C684.062,-119.519 744.845,-100.045 784.692,-87.278"/>
<polygon fill="midnightblue" stroke="midnightblue" points="785.889,-90.57 794.344,-84.1857 783.753,-83.9037 785.889,-90.57"/>
</g>
<!-- Node19 -->
<g id="node19" class="node"><title>Node19</title>
<g id="a_node19"><a xlink:href="../../de/d6b/classparser_1_1_tokenizer.html#ab347b4e57c1c6a0e09467b548025c2e8" target="_top" xlink:title="parser.Tokenizer.tokenize">
<polygon fill="white" stroke="black" points="756.5,-131.184 756.5,-150.184 893.5,-150.184 893.5,-131.184 756.5,-131.184"/>
<text text-anchor="middle" x="825" y="-138.184" font-family="Helvetica,sans-Serif" font-size="10.00">parser.Tokenizer.tokenize</text>
</a>
</g>
</g>
<!-- Node11&#45;&gt;Node19 -->
<g id="edge20" class="edge"><title>Node11&#45;&gt;Node19</title>
<path fill="none" stroke="midnightblue" d="M671.586,-140.684C694.323,-140.684 721.269,-140.684 746.134,-140.684"/>
<polygon fill="midnightblue" stroke="midnightblue" points="746.277,-144.184 756.277,-140.684 746.277,-137.184 746.277,-144.184"/>
</g>
<!-- Node13 -->
<g id="node13" class="node"><title>Node13</title>
<g id="a_node13"><a xlink:href="../../d6/d95/classparser_1_1_parser.html#a45262e7dc7f355abdb9df8fa3630c86f" target="_top" xlink:title="parser.Parser.addParams">
<polygon fill="white" stroke="black" points="975,-21.1842 975,-40.1842 1111,-40.1842 1111,-21.1842 975,-21.1842"/>
<text text-anchor="middle" x="1043" y="-28.1842" font-family="Helvetica,sans-Serif" font-size="10.00">parser.Parser.addParams</text>
</a>
</g>
</g>
<!-- Node12&#45;&gt;Node13 -->
<g id="edge12" class="edge"><title>Node12&#45;&gt;Node13</title>
<path fill="none" stroke="midnightblue" d="M872.869,-65.1368C905.844,-58.4196 950.156,-49.3931 985.152,-42.2644"/>
<polygon fill="midnightblue" stroke="midnightblue" points="986.123,-45.6386 995.223,-40.2129 984.725,-38.7795 986.123,-45.6386"/>
</g>
<!-- Node14 -->
<g id="node14" class="node"><title>Node14</title>
<g id="a_node14"><a xlink:href="../../d6/d95/classparser_1_1_parser.html#a4f0036d9216912f383261d0482cbb1b1" target="_top" xlink:title="parser.Parser.findMatching\lBracket">
<polygon fill="white" stroke="black" points="971.5,-59.6842 971.5,-89.6842 1114.5,-89.6842 1114.5,-59.6842 971.5,-59.6842"/>
<text text-anchor="start" x="979.5" y="-77.6842" font-family="Helvetica,sans-Serif" font-size="10.00">parser.Parser.findMatching</text>
<text text-anchor="middle" x="1043" y="-66.6842" font-family="Helvetica,sans-Serif" font-size="10.00">Bracket</text>
</a>
</g>
</g>
<!-- Node12&#45;&gt;Node14 -->
<g id="edge13" class="edge"><title>Node12&#45;&gt;Node14</title>
<path fill="none" stroke="midnightblue" d="M895.533,-74.6842C916.507,-74.6842 939.707,-74.6842 961.341,-74.6842"/>
<polygon fill="midnightblue" stroke="midnightblue" points="961.486,-78.1843 971.486,-74.6842 961.486,-71.1843 961.486,-78.1843"/>
</g>
<!-- Node16 -->
<g id="node16" class="node"><title>Node16</title>
<g id="a_node16"><a xlink:href="../../d6/d95/classparser_1_1_parser.html#ac2278cd512ecf95e7dbe39f1e381cef7" target="_top" xlink:title="parser.Parser.isRightBracket">
<polygon fill="white" stroke="black" points="1162,-5.18419 1162,-24.1842 1312,-24.1842 1312,-5.18419 1162,-5.18419"/>
<text text-anchor="middle" x="1237" y="-12.1842" font-family="Helvetica,sans-Serif" font-size="10.00">parser.Parser.isRightBracket</text>
</a>
</g>
</g>
<!-- Node12&#45;&gt;Node16 -->
<g id="edge16" class="edge"><title>Node12&#45;&gt;Node16</title>
<path fill="none" stroke="midnightblue" d="M840.882,-64.9839C864.809,-50.0297 913.837,-21.9946 960,-11.6842 1024.72,2.77081 1100.12,0.721185 1155.74,-4.21318"/>
<polygon fill="midnightblue" stroke="midnightblue" points="1155.61,-7.71584 1165.89,-5.16478 1156.26,-0.746407 1155.61,-7.71584"/>
</g>
<!-- Node17 -->
<g id="node17" class="node"><title>Node17</title>
<g id="a_node17"><a xlink:href="../../d3/d96/classparser_1_1_instruction_factory.html#a4b06d4f5f8e173824966dd0ec1e00255" target="_top" xlink:title="parser.InstructionFactory.make\lInstruction">
<polygon fill="white" stroke="black" points="961.5,-108.684 961.5,-138.684 1124.5,-138.684 1124.5,-108.684 961.5,-108.684"/>
<text text-anchor="start" x="969.5" y="-126.684" font-family="Helvetica,sans-Serif" font-size="10.00">parser.InstructionFactory.make</text>
<text text-anchor="middle" x="1043" y="-115.684" font-family="Helvetica,sans-Serif" font-size="10.00">Instruction</text>
</a>
</g>
</g>
<!-- Node12&#45;&gt;Node17 -->
<g id="edge17" class="edge"><title>Node12&#45;&gt;Node17</title>
<path fill="none" stroke="midnightblue" d="M867.903,-84.19C895.587,-90.4702 932.687,-98.8863 965.524,-106.336"/>
<polygon fill="midnightblue" stroke="midnightblue" points="965.037,-109.814 975.563,-108.613 966.585,-102.987 965.037,-109.814"/>
</g>
<!-- Node15 -->
<g id="node15" class="node"><title>Node15</title>
<g id="a_node15"><a xlink:href="../../d6/d95/classparser_1_1_parser.html#abe383fbf6f2944c67226ac2432c548b2" target="_top" xlink:title="parser.Parser.isLeftBracket">
<polygon fill="white" stroke="black" points="1165,-65.1842 1165,-84.1842 1309,-84.1842 1309,-65.1842 1165,-65.1842"/>
<text text-anchor="middle" x="1237" y="-72.1842" font-family="Helvetica,sans-Serif" font-size="10.00">parser.Parser.isLeftBracket</text>
</a>
</g>
</g>
<!-- Node14&#45;&gt;Node15 -->
<g id="edge14" class="edge"><title>Node14&#45;&gt;Node15</title>
<path fill="none" stroke="midnightblue" d="M1114.68,-74.6842C1127.71,-74.6842 1141.42,-74.6842 1154.74,-74.6842"/>
<polygon fill="midnightblue" stroke="midnightblue" points="1154.83,-78.1843 1164.83,-74.6842 1154.83,-71.1843 1154.83,-78.1843"/>
</g>
<!-- Node14&#45;&gt;Node16 -->
<g id="edge15" class="edge"><title>Node14&#45;&gt;Node16</title>
<path fill="none" stroke="midnightblue" d="M1093.9,-59.5771C1104.5,-56.3369 1115.63,-52.9155 1126,-49.6842 1149.46,-42.3775 1175.67,-34.043 1196.62,-27.3404"/>
<polygon fill="midnightblue" stroke="midnightblue" points="1197.69,-30.6725 1206.15,-24.2893 1195.56,-24.006 1197.69,-30.6725"/>
</g>
<!-- Node17&#45;&gt;Node7 -->
<g id="edge18" class="edge"><title>Node17&#45;&gt;Node7</title>
<path fill="none" stroke="midnightblue" d="M1109.54,-138.703C1134.05,-144.32 1161.51,-150.614 1184.57,-155.898"/>
<polygon fill="midnightblue" stroke="midnightblue" points="1183.96,-159.349 1194.49,-158.172 1185.53,-152.526 1183.96,-159.349"/>
</g>
<!-- Node18 -->
<g id="node18" class="node"><title>Node18</title>
<g id="a_node18"><a xlink:href="../../d6/df7/classmodel_1_1_commands_list.html#a3a5d7af953dff13e1e5138d6191c69cf" target="_top" xlink:title="model.CommandsList.get">
<polygon fill="white" stroke="black" points="1167,-114.184 1167,-133.184 1307,-133.184 1307,-114.184 1167,-114.184"/>
<text text-anchor="middle" x="1237" y="-121.184" font-family="Helvetica,sans-Serif" font-size="10.00">model.CommandsList.get</text>
</a>
</g>
</g>
<!-- Node17&#45;&gt;Node18 -->
<g id="edge19" class="edge"><title>Node17&#45;&gt;Node18</title>
<path fill="none" stroke="midnightblue" d="M1124.59,-123.684C1135.25,-123.684 1146.16,-123.684 1156.79,-123.684"/>
<polygon fill="midnightblue" stroke="midnightblue" points="1156.88,-127.184 1166.88,-123.684 1156.88,-120.184 1156.88,-127.184"/>
</g>
<!-- Node20&#45;&gt;Node7 -->
<g id="edge22" class="edge"><title>Node20&#45;&gt;Node7</title>
<path fill="none" stroke="midnightblue" d="M923.684,-182.157C993.862,-178.905 1087.41,-174.57 1153.77,-171.495"/>
<polygon fill="midnightblue" stroke="midnightblue" points="1153.94,-174.991 1163.77,-171.031 1153.62,-167.998 1153.94,-174.991"/>
</g>
<!-- Node20&#45;&gt;Node10 -->
<g id="edge23" class="edge"><title>Node20&#45;&gt;Node10</title>
<path fill="none" stroke="midnightblue" d="M923.573,-195.267C938.687,-196.596 954.076,-197.95 968.541,-199.223"/>
<polygon fill="midnightblue" stroke="midnightblue" points="968.625,-202.743 978.893,-200.133 969.238,-195.77 968.625,-202.743"/>
</g>
</g>
</svg>
