<?xml version="1.0" encoding="UTF-8" standalone="no"?>
<!DOCTYPE svg PUBLIC "-//W3C//DTD SVG 1.1//EN"
 "http://www.w3.org/Graphics/SVG/1.1/DTD/svg11.dtd">
<!-- Generated by graphviz version 2.36.0 (20140111.2315)
 -->
<!-- Title: view.InputView.initSubmitButton Pages: 1 -->
<!--zoomable 350 -->
<svg id="main" version="1.1" xmlns="http://www.w3.org/2000/svg" xmlns:xlink="http://www.w3.org/1999/xlink" xml:space="preserve" onload="init(evt)">
<style type="text/css"><![CDATA[
.edge:hover path { stroke: red; }
.edge:hover polygon { stroke: red; fill: red; }
]]></style>
<script type="text/javascript"><![CDATA[
var edges = document.getElementsByTagName('g');
if (edges && edges.length) {
  for (var i=0;i<edges.length;i++) {
    if (edges[i].id.substr(0,4)=='edge') {
      edges[i].setAttribute('class','edge');
    }
  }
}
]]></script>
        <defs>
                <circle id="rim" cx="0" cy="0" r="7"/>
                <circle id="rim2" cx="0" cy="0" r="3.5"/>
                <g id="zoomPlus">
                        <use xlink:href="#rim" fill="#404040">
                                <set attributeName="fill" to="#808080" begin="zoomplus.mouseover" end="zoomplus.mouseout"/>
                        </use>
                        <path d="M-4,0h8M0,-4v8" fill="none" stroke="white" stroke-width="1.5" pointer-events="none"/>
                </g>
                <g id="zoomMin">
                        <use xlink:href="#rim" fill="#404040">
                                <set attributeName="fill" to="#808080" begin="zoomminus.mouseover" end="zoomminus.mouseout"/>
                        </use>
                        <path d="M-4,0h8" fill="none" stroke="white" stroke-width="1.5" pointer-events="none"/>
                </g>
                <g id="dirArrow">
                        <path fill="none" stroke="white" stroke-width="1.5" d="M0,-3.0v7 M-2.5,-0.5L0,-3.0L2.5,-0.5"/>
                </g>
               <g id="resetDef">
                       <use xlink:href="#rim2" fill="#404040">
                               <set attributeName="fill" to="#808080" begin="reset.mouseover" end="reset.mouseout"/>
                       </use>
               </g>
        </defs>

<script type="text/javascript">
var viewWidth = 1138;
var viewHeight = 350;
var sectionId = 'dynsection-5';
</script>
<script xlink:href="../../svgpan.js"/>
<svg id="graph" class="graph">
<g id="viewport">
<title>view.InputView.initSubmitButton</title>
<polygon fill="white" stroke="none" points="-4,4 -4,-345.684 1134,-345.684 1134,4 -4,4"/>
<!-- Node1 -->
<g id="node1" class="node"><title>Node1</title>
<polygon fill="#bfbfbf" stroke="black" points="0,-171.684 0,-201.684 136,-201.684 136,-171.684 0,-171.684"/>
<text text-anchor="start" x="8" y="-189.684" font-family="Helvetica,sans-Serif" font-size="10.00">view.InputView.initSubmit</text>
<text text-anchor="middle" x="68" y="-178.684" font-family="Helvetica,sans-Serif" font-size="10.00">Button</text>
</g>
<!-- Node2 -->
<g id="node2" class="node"><title>Node2</title>
<g id="a_node2"><a xlink:href="../../d3/d88/classmodel_1_1_slogo_model.html#ad096dbf0a253635d346a622540f472bd" target="_top" xlink:title="model.SlogoModel.parseAnd\lExecute">
<polygon fill="white" stroke="black" points="172,-171.684 172,-201.684 326,-201.684 326,-171.684 172,-171.684"/>
<text text-anchor="start" x="180" y="-189.684" font-family="Helvetica,sans-Serif" font-size="10.00">model.SlogoModel.parseAnd</text>
<text text-anchor="middle" x="249" y="-178.684" font-family="Helvetica,sans-Serif" font-size="10.00">Execute</text>
</a>
</g>
</g>
<!-- Node1&#45;&gt;Node2 -->
<g id="edge1" class="edge"><title>Node1&#45;&gt;Node2</title>
<path fill="none" stroke="midnightblue" d="M136.162,-186.684C144.505,-186.684 153.124,-186.684 161.703,-186.684"/>
<polygon fill="midnightblue" stroke="midnightblue" points="161.738,-190.184 171.738,-186.684 161.738,-183.184 161.738,-190.184"/>
</g>
<!-- Node3 -->
<g id="node3" class="node"><title>Node3</title>
<g id="a_node3"><a xlink:href="../../d3/d88/classmodel_1_1_slogo_model.html#a54085c9bf13d8dcfd7deed3623be36f1" target="_top" xlink:title="model.SlogoModel.execute\lCommands">
<polygon fill="white" stroke="black" points="362,-256.684 362,-286.684 508,-286.684 508,-256.684 362,-256.684"/>
<text text-anchor="start" x="370" y="-274.684" font-family="Helvetica,sans-Serif" font-size="10.00">model.SlogoModel.execute</text>
<text text-anchor="middle" x="435" y="-263.684" font-family="Helvetica,sans-Serif" font-size="10.00">Commands</text>
</a>
</g>
</g>
<!-- Node2&#45;&gt;Node3 -->
<g id="edge2" class="edge"><title>Node2&#45;&gt;Node3</title>
<path fill="none" stroke="midnightblue" d="M282.472,-201.685C312.896,-215.739 358.54,-236.825 391.779,-252.18"/>
<polygon fill="midnightblue" stroke="midnightblue" points="390.688,-255.531 401.234,-256.548 393.623,-249.176 390.688,-255.531"/>
</g>
<!-- Node9 -->
<g id="node9" class="node"><title>Node9</title>
<g id="a_node9"><a xlink:href="../../d6/d95/classparser_1_1_parser.html#aec8f2721f51a8a257b572c73d80d5d98" target="_top" xlink:title="parser.Parser.parse">
<polygon fill="white" stroke="black" points="380.5,-131.184 380.5,-150.184 489.5,-150.184 489.5,-131.184 380.5,-131.184"/>
<text text-anchor="middle" x="435" y="-138.184" font-family="Helvetica,sans-Serif" font-size="10.00">parser.Parser.parse</text>
</a>
</g>
</g>
<!-- Node2&#45;&gt;Node9 -->
<g id="edge8" class="edge"><title>Node2&#45;&gt;Node9</title>
<path fill="none" stroke="midnightblue" d="M310.248,-171.622C334.808,-165.482 362.808,-158.482 385.955,-152.695"/>
<polygon fill="midnightblue" stroke="midnightblue" points="387.033,-156.034 395.886,-150.213 385.335,-149.243 387.033,-156.034"/>
</g>
<!-- Node18 -->
<g id="node18" class="node"><title>Node18</title>
<g id="a_node18"><a xlink:href="../../d3/d88/classmodel_1_1_slogo_model.html#a396654689e37ebdc837f5623a25d08d3" target="_top" xlink:title="model.SlogoModel.showToHistoryView">
<polygon fill="white" stroke="black" points="544.5,-177.184 544.5,-196.184 741.5,-196.184 741.5,-177.184 544.5,-177.184"/>
<text text-anchor="middle" x="643" y="-184.184" font-family="Helvetica,sans-Serif" font-size="10.00">model.SlogoModel.showToHistoryView</text>
</a>
</g>
</g>
<!-- Node2&#45;&gt;Node18 -->
<g id="edge19" class="edge"><title>Node2&#45;&gt;Node18</title>
<path fill="none" stroke="midnightblue" d="M326.046,-186.684C385.238,-186.684 468.145,-186.684 534.181,-186.684"/>
<polygon fill="midnightblue" stroke="midnightblue" points="534.212,-190.184 544.212,-186.684 534.212,-183.184 534.212,-190.184"/>
</g>
<!-- Node4 -->
<g id="node4" class="node"><title>Node4</title>
<g id="a_node4"><a xlink:href="../../d2/d93/interfaceinstructions_1_1_instruction.html#ab47846ec32fac6e514e5ab7fe4db0254" target="_top" xlink:title="instructions.Instruction.execute">
<polygon fill="white" stroke="black" points="559.5,-322.184 559.5,-341.184 726.5,-341.184 726.5,-322.184 559.5,-322.184"/>
<text text-anchor="middle" x="643" y="-329.184" font-family="Helvetica,sans-Serif" font-size="10.00">instructions.Instruction.execute</text>
</a>
</g>
</g>
<!-- Node3&#45;&gt;Node4 -->
<g id="edge3" class="edge"><title>Node3&#45;&gt;Node4</title>
<path fill="none" stroke="midnightblue" d="M478.583,-286.77C498.359,-293.546 522.257,-301.409 544,-307.684 558.768,-311.946 574.926,-316.106 589.787,-319.733"/>
<polygon fill="midnightblue" stroke="midnightblue" points="589.292,-323.215 599.834,-322.154 590.932,-316.409 589.292,-323.215"/>
</g>
<!-- Node5 -->
<g id="node5" class="node"><title>Node5</title>
<g id="a_node5"><a xlink:href="../../d8/d36/classmodel_1_1_observable_data.html#aa526df8e1adab74d19f2d89071560dcb" target="_top" xlink:title="model.ObservableData.get">
<polygon fill="white" stroke="black" points="982,-158.184 982,-177.184 1128,-177.184 1128,-158.184 982,-158.184"/>
<text text-anchor="middle" x="1055" y="-165.184" font-family="Helvetica,sans-Serif" font-size="10.00">model.ObservableData.get</text>
</a>
</g>
</g>
<!-- Node3&#45;&gt;Node5 -->
<g id="edge4" class="edge"><title>Node3&#45;&gt;Node5</title>
<path fill="none" stroke="midnightblue" d="M499.446,-286.726C598.515,-307.024 794.119,-334.148 944,-273.684 988.029,-255.922 1024.27,-211.168 1042.09,-185.858"/>
<polygon fill="midnightblue" stroke="midnightblue" points="1045.04,-187.73 1047.8,-177.498 1039.26,-183.782 1045.04,-187.73"/>
</g>
<!-- Node6 -->
<g id="node6" class="node"><title>Node6</title>
<g id="a_node6"><a xlink:href="../../d3/d88/classmodel_1_1_slogo_model.html#ad52954c6dbfb83f7aa97a85116c25eb8" target="_top" xlink:title="model.SlogoModel.showOnView">
<polygon fill="white" stroke="black" points="559.5,-240.184 559.5,-259.184 726.5,-259.184 726.5,-240.184 559.5,-240.184"/>
<text text-anchor="middle" x="643" y="-247.184" font-family="Helvetica,sans-Serif" font-size="10.00">model.SlogoModel.showOnView</text>
</a>
</g>
</g>
<!-- Node3&#45;&gt;Node6 -->
<g id="edge5" class="edge"><title>Node3&#45;&gt;Node6</title>
<path fill="none" stroke="midnightblue" d="M508.049,-263.99C521.4,-262.564 535.516,-261.056 549.378,-259.576"/>
<polygon fill="midnightblue" stroke="midnightblue" points="549.841,-263.046 559.413,-258.504 549.098,-256.086 549.841,-263.046"/>
</g>
<!-- Node7 -->
<g id="node7" class="node"><title>Node7</title>
<g id="a_node7"><a xlink:href="../../d8/d36/classmodel_1_1_observable_data.html#a575297a6d90ca0223478c397de4a8296" target="_top" xlink:title="model.ObservableData.change\lReturn">
<polygon fill="white" stroke="black" points="778.5,-234.684 778.5,-264.684 943.5,-264.684 943.5,-234.684 778.5,-234.684"/>
<text text-anchor="start" x="786.5" y="-252.684" font-family="Helvetica,sans-Serif" font-size="10.00">model.ObservableData.change</text>
<text text-anchor="middle" x="861" y="-241.684" font-family="Helvetica,sans-Serif" font-size="10.00">Return</text>
</a>
</g>
</g>
<!-- Node6&#45;&gt;Node7 -->
<g id="edge6" class="edge"><title>Node6&#45;&gt;Node7</title>
<path fill="none" stroke="midnightblue" d="M726.585,-249.684C740.061,-249.684 754.098,-249.684 767.788,-249.684"/>
<polygon fill="midnightblue" stroke="midnightblue" points="768.175,-253.184 778.175,-249.684 768.175,-246.184 768.175,-253.184"/>
</g>
<!-- Node8 -->
<g id="node8" class="node"><title>Node8</title>
<g id="a_node8"><a xlink:href="../../d3/d88/classmodel_1_1_slogo_model.html#a5a328c6f896a5c150e95b49db71dea8f" target="_top" xlink:title="model.SlogoModel.load">
<polygon fill="white" stroke="black" points="797,-196.184 797,-215.184 925,-215.184 925,-196.184 797,-196.184"/>
<text text-anchor="middle" x="861" y="-203.184" font-family="Helvetica,sans-Serif" font-size="10.00">model.SlogoModel.load</text>
</a>
</g>
</g>
<!-- Node6&#45;&gt;Node8 -->
<g id="edge7" class="edge"><title>Node6&#45;&gt;Node8</title>
<path fill="none" stroke="midnightblue" d="M690.869,-240.137C723.844,-233.42 768.156,-224.393 803.152,-217.264"/>
<polygon fill="midnightblue" stroke="midnightblue" points="804.123,-220.639 813.223,-215.213 802.725,-213.779 804.123,-220.639"/>
</g>
<!-- Node10 -->
<g id="node10" class="node"><title>Node10</title>
<g id="a_node10"><a xlink:href="../../d6/d95/classparser_1_1_parser.html#a0b953b563fd9171ad113c168900ba0ad" target="_top" xlink:title="parser.Parser.parseTokens">
<polygon fill="white" stroke="black" points="572.5,-65.1842 572.5,-84.1842 713.5,-84.1842 713.5,-65.1842 572.5,-65.1842"/>
<text text-anchor="middle" x="643" y="-72.1842" font-family="Helvetica,sans-Serif" font-size="10.00">parser.Parser.parseTokens</text>
</a>
</g>
</g>
<!-- Node9&#45;&gt;Node10 -->
<g id="edge9" class="edge"><title>Node9&#45;&gt;Node10</title>
<path fill="none" stroke="midnightblue" d="M465.954,-131.087C502.062,-119.519 562.845,-100.045 602.692,-87.278"/>
<polygon fill="midnightblue" stroke="midnightblue" points="603.889,-90.57 612.344,-84.1857 601.753,-83.9037 603.889,-90.57"/>
</g>
<!-- Node17 -->
<g id="node17" class="node"><title>Node17</title>
<g id="a_node17"><a xlink:href="../../de/d6b/classparser_1_1_tokenizer.html#ab347b4e57c1c6a0e09467b548025c2e8" target="_top" xlink:title="parser.Tokenizer.tokenize">
<polygon fill="white" stroke="black" points="574.5,-131.184 574.5,-150.184 711.5,-150.184 711.5,-131.184 574.5,-131.184"/>
<text text-anchor="middle" x="643" y="-138.184" font-family="Helvetica,sans-Serif" font-size="10.00">parser.Tokenizer.tokenize</text>
</a>
</g>
</g>
<!-- Node9&#45;&gt;Node17 -->
<g id="edge18" class="edge"><title>Node9&#45;&gt;Node17</title>
<path fill="none" stroke="midnightblue" d="M489.586,-140.684C512.323,-140.684 539.269,-140.684 564.134,-140.684"/>
<polygon fill="midnightblue" stroke="midnightblue" points="564.277,-144.184 574.277,-140.684 564.277,-137.184 564.277,-144.184"/>
</g>
<!-- Node11 -->
<g id="node11" class="node"><title>Node11</title>
<g id="a_node11"><a xlink:href="../../d6/d95/classparser_1_1_parser.html#a45262e7dc7f355abdb9df8fa3630c86f" target="_top" xlink:title="parser.Parser.addParams">
<polygon fill="white" stroke="black" points="793,-21.1842 793,-40.1842 929,-40.1842 929,-21.1842 793,-21.1842"/>
<text text-anchor="middle" x="861" y="-28.1842" font-family="Helvetica,sans-Serif" font-size="10.00">parser.Parser.addParams</text>
</a>
</g>
</g>
<!-- Node10&#45;&gt;Node11 -->
<g id="edge10" class="edge"><title>Node10&#45;&gt;Node11</title>
<path fill="none" stroke="midnightblue" d="M690.869,-65.1368C723.844,-58.4196 768.156,-49.3931 803.152,-42.2644"/>
<polygon fill="midnightblue" stroke="midnightblue" points="804.123,-45.6386 813.223,-40.2129 802.725,-38.7795 804.123,-45.6386"/>
</g>
<!-- Node12 -->
<g id="node12" class="node"><title>Node12</title>
<g id="a_node12"><a xlink:href="../../d6/d95/classparser_1_1_parser.html#a4f0036d9216912f383261d0482cbb1b1" target="_top" xlink:title="parser.Parser.findMatching\lBracket">
<polygon fill="white" stroke="black" points="789.5,-59.6842 789.5,-89.6842 932.5,-89.6842 932.5,-59.6842 789.5,-59.6842"/>
<text text-anchor="start" x="797.5" y="-77.6842" font-family="Helvetica,sans-Serif" font-size="10.00">parser.Parser.findMatching</text>
<text text-anchor="middle" x="861" y="-66.6842" font-family="Helvetica,sans-Serif" font-size="10.00">Bracket</text>
</a>
</g>
</g>
<!-- Node10&#45;&gt;Node12 -->
<g id="edge11" class="edge"><title>Node10&#45;&gt;Node12</title>
<path fill="none" stroke="midnightblue" d="M713.533,-74.6842C734.507,-74.6842 757.707,-74.6842 779.341,-74.6842"/>
<polygon fill="midnightblue" stroke="midnightblue" points="779.486,-78.1843 789.486,-74.6842 779.486,-71.1843 779.486,-78.1843"/>
</g>
<!-- Node14 -->
<g id="node14" class="node"><title>Node14</title>
<g id="a_node14"><a xlink:href="../../d6/d95/classparser_1_1_parser.html#ac2278cd512ecf95e7dbe39f1e381cef7" target="_top" xlink:title="parser.Parser.isRightBracket">
<polygon fill="white" stroke="black" points="980,-5.18419 980,-24.1842 1130,-24.1842 1130,-5.18419 980,-5.18419"/>
<text text-anchor="middle" x="1055" y="-12.1842" font-family="Helvetica,sans-Serif" font-size="10.00">parser.Parser.isRightBracket</text>
</a>
</g>
</g>
<!-- Node10&#45;&gt;Node14 -->
<g id="edge14" class="edge"><title>Node10&#45;&gt;Node14</title>
<path fill="none" stroke="midnightblue" d="M658.882,-64.9839C682.809,-50.0297 731.837,-21.9946 778,-11.6842 842.72,2.77081 918.12,0.721185 973.742,-4.21318"/>
<polygon fill="midnightblue" stroke="midnightblue" points="973.608,-7.71584 983.891,-5.16478 974.261,-0.746407 973.608,-7.71584"/>
</g>
<!-- Node15 -->
<g id="node15" class="node"><title>Node15</title>
<g id="a_node15"><a xlink:href="../../d3/d96/classparser_1_1_instruction_factory.html#a4b06d4f5f8e173824966dd0ec1e00255" target="_top" xlink:title="parser.InstructionFactory.make\lInstruction">
<polygon fill="white" stroke="black" points="779.5,-108.684 779.5,-138.684 942.5,-138.684 942.5,-108.684 779.5,-108.684"/>
<text text-anchor="start" x="787.5" y="-126.684" font-family="Helvetica,sans-Serif" font-size="10.00">parser.InstructionFactory.make</text>
<text text-anchor="middle" x="861" y="-115.684" font-family="Helvetica,sans-Serif" font-size="10.00">Instruction</text>
</a>
</g>
</g>
<!-- Node10&#45;&gt;Node15 -->
<g id="edge15" class="edge"><title>Node10&#45;&gt;Node15</title>
<path fill="none" stroke="midnightblue" d="M685.903,-84.19C713.587,-90.4702 750.687,-98.8863 783.524,-106.336"/>
<polygon fill="midnightblue" stroke="midnightblue" points="783.037,-109.814 793.563,-108.613 784.585,-102.987 783.037,-109.814"/>
</g>
<!-- Node13 -->
<g id="node13" class="node"><title>Node13</title>
<g id="a_node13"><a xlink:href="../../d6/d95/classparser_1_1_parser.html#abe383fbf6f2944c67226ac2432c548b2" target="_top" xlink:title="parser.Parser.isLeftBracket">
<polygon fill="white" stroke="black" points="983,-65.1842 983,-84.1842 1127,-84.1842 1127,-65.1842 983,-65.1842"/>
<text text-anchor="middle" x="1055" y="-72.1842" font-family="Helvetica,sans-Serif" font-size="10.00">parser.Parser.isLeftBracket</text>
</a>
</g>
</g>
<!-- Node12&#45;&gt;Node13 -->
<g id="edge12" class="edge"><title>Node12&#45;&gt;Node13</title>
<path fill="none" stroke="midnightblue" d="M932.676,-74.6842C945.712,-74.6842 959.42,-74.6842 972.739,-74.6842"/>
<polygon fill="midnightblue" stroke="midnightblue" points="972.832,-78.1843 982.832,-74.6842 972.832,-71.1843 972.832,-78.1843"/>
</g>
<!-- Node12&#45;&gt;Node14 -->
<g id="edge13" class="edge"><title>Node12&#45;&gt;Node14</title>
<path fill="none" stroke="midnightblue" d="M911.898,-59.5771C922.502,-56.3369 933.627,-52.9155 944,-49.6842 967.455,-42.3775 993.67,-34.043 1014.62,-27.3404"/>
<polygon fill="midnightblue" stroke="midnightblue" points="1015.69,-30.6725 1024.15,-24.2893 1013.56,-24.006 1015.69,-30.6725"/>
</g>
<!-- Node15&#45;&gt;Node5 -->
<g id="edge16" class="edge"><title>Node15&#45;&gt;Node5</title>
<path fill="none" stroke="midnightblue" d="M927.539,-138.703C952.048,-144.32 979.513,-150.614 1002.57,-155.898"/>
<polygon fill="midnightblue" stroke="midnightblue" points="1001.96,-159.349 1012.49,-158.172 1003.53,-152.526 1001.96,-159.349"/>
</g>
<!-- Node16 -->
<g id="node16" class="node"><title>Node16</title>
<g id="a_node16"><a xlink:href="../../d6/df7/classmodel_1_1_commands_list.html#a3a5d7af953dff13e1e5138d6191c69cf" target="_top" xlink:title="model.CommandsList.get">
<polygon fill="white" stroke="black" points="985,-114.184 985,-133.184 1125,-133.184 1125,-114.184 985,-114.184"/>
<text text-anchor="middle" x="1055" y="-121.184" font-family="Helvetica,sans-Serif" font-size="10.00">model.CommandsList.get</text>
</a>
</g>
</g>
<!-- Node15&#45;&gt;Node16 -->
<g id="edge17" class="edge"><title>Node15&#45;&gt;Node16</title>
<path fill="none" stroke="midnightblue" d="M942.591,-123.684C953.245,-123.684 964.159,-123.684 974.79,-123.684"/>
<polygon fill="midnightblue" stroke="midnightblue" points="974.878,-127.184 984.878,-123.684 974.878,-120.184 974.878,-127.184"/>
</g>
<!-- Node18&#45;&gt;Node5 -->
<g id="edge20" class="edge"><title>Node18&#45;&gt;Node5</title>
<path fill="none" stroke="midnightblue" d="M741.684,-182.157C811.862,-178.905 905.407,-174.57 971.772,-171.495"/>
<polygon fill="midnightblue" stroke="midnightblue" points="971.944,-174.991 981.771,-171.031 971.62,-167.998 971.944,-174.991"/>
</g>
<!-- Node18&#45;&gt;Node8 -->
<g id="edge21" class="edge"><title>Node18&#45;&gt;Node8</title>
<path fill="none" stroke="midnightblue" d="M741.573,-195.267C756.687,-196.596 772.076,-197.95 786.541,-199.223"/>
<polygon fill="midnightblue" stroke="midnightblue" points="786.625,-202.743 796.893,-200.133 787.238,-195.77 786.625,-202.743"/>
</g>
</g>
</svg>
        <g id="navigator" transform="translate(0 0)" fill="#404254">
                <rect fill="#f2f5e9" fill-opacity="0.5" stroke="#606060" stroke-width=".5" x="0" y="0" width="60" height="60"/>
                <use id="zoomplus" xlink:href="#zoomPlus" x="17" y="9" onmousedown="handleZoom(evt,'in')"/>
                <use id="zoomminus" xlink:href="#zoomMin" x="42" y="9" onmousedown="handleZoom(evt,'out')"/>
                <use id="reset" xlink:href="#resetDef" x="30" y="36" onmousedown="handleReset()"/>
                <g id="arrowUp" xlink:href="#dirArrow" transform="translate(30 24)" onmousedown="handlePan(0,-1)">
                  <use xlink:href="#rim" fill="#404040">
                        <set attributeName="fill" to="#808080" begin="arrowUp.mouseover" end="arrowUp.mouseout"/>
                  </use>
                  <path fill="none" stroke="white" stroke-width="1.5" d="M0,-3.0v7 M-2.5,-0.5L0,-3.0L2.5,-0.5"/>
                </g>
                <g id="arrowRight" xlink:href="#dirArrow" transform="rotate(90) translate(36 -43)" onmousedown="handlePan(1,0)">
                  <use xlink:href="#rim" fill="#404040">
                        <set attributeName="fill" to="#808080" begin="arrowRight.mouseover" end="arrowRight.mouseout"/>
                  </use>
                  <path fill="none" stroke="white" stroke-width="1.5" d="M0,-3.0v7 M-2.5,-0.5L0,-3.0L2.5,-0.5"/>
                </g>
                <g id="arrowDown" xlink:href="#dirArrow" transform="rotate(180) translate(-30 -48)" onmousedown="handlePan(0,1)">
                  <use xlink:href="#rim" fill="#404040">
                        <set attributeName="fill" to="#808080" begin="arrowDown.mouseover" end="arrowDown.mouseout"/>
                  </use>
                  <path fill="none" stroke="white" stroke-width="1.5" d="M0,-3.0v7 M-2.5,-0.5L0,-3.0L2.5,-0.5"/>
                </g>
                <g id="arrowLeft" xlink:href="#dirArrow" transform="rotate(270) translate(-36 17)" onmousedown="handlePan(-1,0)">
                  <use xlink:href="#rim" fill="#404040">
                        <set attributeName="fill" to="#808080" begin="arrowLeft.mouseover" end="arrowLeft.mouseout"/>
                  </use>
                  <path fill="none" stroke="white" stroke-width="1.5" d="M0,-3.0v7 M-2.5,-0.5L0,-3.0L2.5,-0.5"/>
                </g>
        </g>
        <svg viewBox="0 0 15 15" width="100%" height="30px" preserveAspectRatio="xMaxYMin meet">
         <g id="arrow_out" transform="scale(0.3 0.3)">
          <a xlink:href="classview_1_1_input_view_a948930c9b825f34ef8f5def96910471b_cgraph_org.svg" target="_base">
           <rect id="button" ry="5" rx="5" y="6" x="6" height="38" width="38"
                fill="#f2f5e9" fill-opacity="0.5" stroke="#606060" stroke-width="1.0"/>
           <path id="arrow"
             d="M 11.500037,31.436501 C 11.940474,20.09759 22.043105,11.32322 32.158766,21.979434 L 37.068811,17.246167 C 37.068811,17.246167 37.088388,32 37.088388,32 L 22.160133,31.978069 C 22.160133,31.978069 26.997745,27.140456 26.997745,27.140456 C 18.528582,18.264221 13.291696,25.230495 11.500037,31.436501 z"
             style="fill:#404040;"/>
          </a>
         </g>
        </svg>
</svg>
