<?xml version="1.0" encoding="UTF-8" standalone="no"?>
<!DOCTYPE svg PUBLIC "-//W3C//DTD SVG 1.1//EN"
 "http://www.w3.org/Graphics/SVG/1.1/DTD/svg11.dtd">
<!-- Generated by graphviz version 2.36.0 (20140111.2315)
 -->
<!-- Title: view.PaneView.setView Pages: 1 -->
<svg width="304pt" height="104pt"
 viewBox="0.00 0.00 304.00 104.00" xmlns="http://www.w3.org/2000/svg" xmlns:xlink="http://www.w3.org/1999/xlink">
<g id="graph0" class="graph" transform="scale(1 1) rotate(0) translate(4 100)">
<title>view.PaneView.setView</title>
<polygon fill="white" stroke="none" points="-4,4 -4,-100 300,-100 300,4 -4,4"/>
<!-- Node1 -->
<g id="node1" class="node"><title>Node1</title>
<polygon fill="#bfbfbf" stroke="black" points="0.5,-38.5 0.5,-57.5 123.5,-57.5 123.5,-38.5 0.5,-38.5"/>
<text text-anchor="middle" x="62" y="-45.5" font-family="Helvetica,sans-Serif" font-size="10.00">view.PaneView.setView</text>
</g>
<!-- Node2 -->
<g id="node2" class="node"><title>Node2</title>
<g id="a_node2"><a xlink:href="../../de/d2f/classview_1_1_data_view.html#acbc82ffcc740e46b0d4c588f522a7979" target="_top" xlink:title="view.DataView.DataView">
<polygon fill="white" stroke="black" points="162.5,-76.5 162.5,-95.5 293.5,-95.5 293.5,-76.5 162.5,-76.5"/>
<text text-anchor="middle" x="228" y="-83.5" font-family="Helvetica,sans-Serif" font-size="10.00">view.DataView.DataView</text>
</a>
</g>
</g>
<!-- Node1&#45;&gt;Node2 -->
<g id="edge1" class="edge"><title>Node1&#45;&gt;Node2</title>
<path fill="none" stroke="midnightblue" d="M114.341,-59.8961C137.393,-65.2374 164.221,-71.4537 185.913,-76.4799"/>
<polygon fill="midnightblue" stroke="midnightblue" points="114.916,-56.4367 104.384,-57.589 113.336,-63.256 114.916,-56.4367"/>
</g>
<!-- Node3 -->
<g id="node3" class="node"><title>Node3</title>
<g id="a_node3"><a xlink:href="../../d6/d0a/classview_1_1_input_view.html#ac75e6562ed83ace6cb0a0ac886780054" target="_top" xlink:title="view.InputView.InputView">
<polygon fill="white" stroke="black" points="161.5,-38.5 161.5,-57.5 294.5,-57.5 294.5,-38.5 161.5,-38.5"/>
<text text-anchor="middle" x="228" y="-45.5" font-family="Helvetica,sans-Serif" font-size="10.00">view.InputView.InputView</text>
</a>
</g>
</g>
<!-- Node1&#45;&gt;Node3 -->
<g id="edge2" class="edge"><title>Node1&#45;&gt;Node3</title>
<path fill="none" stroke="midnightblue" d="M133.837,-48C142.995,-48 152.343,-48 161.412,-48"/>
<polygon fill="midnightblue" stroke="midnightblue" points="133.602,-44.5001 123.602,-48 133.602,-51.5001 133.602,-44.5001"/>
</g>
<!-- Node4 -->
<g id="node4" class="node"><title>Node4</title>
<g id="a_node4"><a xlink:href="../../d8/df7/classview_1_1_turtle_view.html#a598d7a37d89bbce1bbdd2ca0c95e5c83" target="_top" xlink:title="view.TurtleView.TurtleView">
<polygon fill="white" stroke="black" points="160,-0.5 160,-19.5 296,-19.5 296,-0.5 160,-0.5"/>
<text text-anchor="middle" x="228" y="-7.5" font-family="Helvetica,sans-Serif" font-size="10.00">view.TurtleView.TurtleView</text>
</a>
</g>
</g>
<!-- Node1&#45;&gt;Node4 -->
<g id="edge3" class="edge"><title>Node1&#45;&gt;Node4</title>
<path fill="none" stroke="midnightblue" d="M114.341,-36.1039C137.393,-30.7626 164.221,-24.5463 185.913,-19.5201"/>
<polygon fill="midnightblue" stroke="midnightblue" points="113.336,-32.744 104.384,-38.411 114.916,-39.5633 113.336,-32.744"/>
</g>
</g>
</svg>
