<?xml version="1.0" encoding="UTF-8" standalone="no"?>
<!DOCTYPE svg PUBLIC "-//W3C//DTD SVG 1.1//EN"
 "http://www.w3.org/Graphics/SVG/1.1/DTD/svg11.dtd">
<!-- Generated by graphviz version 2.36.0 (20140111.2315)
 -->
<!-- Title: instructions.BinaryInstruction Pages: 1 -->
<!--zoomable 770 -->
<svg id="main" version="1.1" xmlns="http://www.w3.org/2000/svg" xmlns:xlink="http://www.w3.org/1999/xlink" xml:space="preserve" onload="init(evt)">
<style type="text/css"><![CDATA[
.edge:hover path { stroke: red; }
.edge:hover polygon { stroke: red; fill: red; }
]]></style>
<script type="text/javascript"><![CDATA[
var edges = document.getElementsByTagName('g');
if (edges && edges.length) {
  for (var i=0;i<edges.length;i++) {
    if (edges[i].id.substr(0,4)=='edge') {
      edges[i].setAttribute('class','edge');
    }
  }
}
]]></script>
        <defs>
                <circle id="rim" cx="0" cy="0" r="7"/>
                <circle id="rim2" cx="0" cy="0" r="3.5"/>
                <g id="zoomPlus">
                        <use xlink:href="#rim" fill="#404040">
                                <set attributeName="fill" to="#808080" begin="zoomplus.mouseover" end="zoomplus.mouseout"/>
                        </use>
                        <path d="M-4,0h8M0,-4v8" fill="none" stroke="white" stroke-width="1.5" pointer-events="none"/>
                </g>
                <g id="zoomMin">
                        <use xlink:href="#rim" fill="#404040">
                                <set attributeName="fill" to="#808080" begin="zoomminus.mouseover" end="zoomminus.mouseout"/>
                        </use>
                        <path d="M-4,0h8" fill="none" stroke="white" stroke-width="1.5" pointer-events="none"/>
                </g>
                <g id="dirArrow">
                        <path fill="none" stroke="white" stroke-width="1.5" d="M0,-3.0v7 M-2.5,-0.5L0,-3.0L2.5,-0.5"/>
                </g>
               <g id="resetDef">
                       <use xlink:href="#rim2" fill="#404040">
                               <set attributeName="fill" to="#808080" begin="reset.mouseover" end="reset.mouseout"/>
                       </use>
               </g>
        </defs>

<script type="text/javascript">
var viewWidth = 874;
var viewHeight = 770;
var sectionId = 'dynsection-0';
</script>
<script xlink:href="../../svgpan.js"/>
<svg id="graph" class="graph">
<g id="viewport">
<title>instructions.BinaryInstruction</title>
<polygon fill="white" stroke="none" points="-4,4 -4,-766 870,-766 870,4 -4,4"/>
<!-- Node1 -->
<g id="node1" class="node"><title>Node1</title>
<polygon fill="#bfbfbf" stroke="black" points="482.5,-371.5 482.5,-390.5 637.5,-390.5 637.5,-371.5 482.5,-371.5"/>
<text text-anchor="middle" x="560" y="-378.5" font-family="Helvetica,sans-Serif" font-size="10.00">instructions.BinaryInstruction</text>
</g>
<!-- Node5 -->
<g id="node5" class="node"><title>Node5</title>
<g id="a_node5"><a xlink:href="../../d4/d40/classinstructions_1_1commands_1_1_and.html" target="_top" xlink:title="instructions.commands.And">
<polygon fill="white" stroke="black" points="694.5,-742.5 694.5,-761.5 845.5,-761.5 845.5,-742.5 694.5,-742.5"/>
<text text-anchor="middle" x="770" y="-749.5" font-family="Helvetica,sans-Serif" font-size="10.00">instructions.commands.And</text>
</a>
</g>
</g>
<!-- Node1&#45;&gt;Node5 -->
<g id="edge4" class="edge"><title>Node1&#45;&gt;Node5</title>
<path fill="none" stroke="midnightblue" d="M560.873,-400.72C561.629,-460.716 572.569,-642.45 674,-733 679.897,-738.265 686.831,-742.237 694.222,-745.213"/>
<polygon fill="midnightblue" stroke="midnightblue" points="564.373,-400.68 560.832,-390.694 557.373,-400.709 564.373,-400.68"/>
</g>
<!-- Node6 -->
<g id="node6" class="node"><title>Node6</title>
<g id="a_node6"><a xlink:href="../../db/ddd/classinstructions_1_1commands_1_1_difference.html" target="_top" xlink:title="instructions.commands.Difference">
<polygon fill="white" stroke="black" points="679.5,-704.5 679.5,-723.5 860.5,-723.5 860.5,-704.5 679.5,-704.5"/>
<text text-anchor="middle" x="770" y="-711.5" font-family="Helvetica,sans-Serif" font-size="10.00">instructions.commands.Difference</text>
</a>
</g>
</g>
<!-- Node1&#45;&gt;Node6 -->
<g id="edge5" class="edge"><title>Node1&#45;&gt;Node6</title>
<path fill="none" stroke="midnightblue" d="M561.833,-401.036C565.29,-456.799 583.047,-614.883 674,-694 678.832,-698.203 684.323,-701.6 690.171,-704.336"/>
<polygon fill="midnightblue" stroke="midnightblue" points="565.312,-400.557 561.291,-390.756 558.322,-400.926 565.312,-400.557"/>
</g>
<!-- Node7 -->
<g id="node7" class="node"><title>Node7</title>
<g id="a_node7"><a xlink:href="../../dd/de9/classinstructions_1_1commands_1_1_do_times.html" target="_top" xlink:title="instructions.commands.Do\lTimes">
<polygon fill="white" stroke="black" points="697,-655 697,-685 843,-685 843,-655 697,-655"/>
<text text-anchor="start" x="705" y="-673" font-family="Helvetica,sans-Serif" font-size="10.00">instructions.commands.Do</text>
<text text-anchor="middle" x="770" y="-662" font-family="Helvetica,sans-Serif" font-size="10.00">Times</text>
</a>
</g>
</g>
<!-- Node1&#45;&gt;Node7 -->
<g id="edge6" class="edge"><title>Node1&#45;&gt;Node7</title>
<path fill="none" stroke="midnightblue" d="M563.5,-400.621C570.816,-449.656 596.78,-578.379 674,-645 680.715,-650.793 688.621,-655.264 696.959,-658.711"/>
<polygon fill="midnightblue" stroke="midnightblue" points="566.961,-400.1 562.114,-390.679 560.028,-401.067 566.961,-400.1"/>
</g>
<!-- Node8 -->
<g id="node8" class="node"><title>Node8</title>
<g id="a_node8"><a xlink:href="../../dc/d8d/classinstructions_1_1commands_1_1_equal.html" target="_top" xlink:title="instructions.commands.Equal">
<polygon fill="white" stroke="black" points="691,-616.5 691,-635.5 849,-635.5 849,-616.5 691,-616.5"/>
<text text-anchor="middle" x="770" y="-623.5" font-family="Helvetica,sans-Serif" font-size="10.00">instructions.commands.Equal</text>
</a>
</g>
</g>
<!-- Node1&#45;&gt;Node8 -->
<g id="edge7" class="edge"><title>Node1&#45;&gt;Node8</title>
<path fill="none" stroke="midnightblue" d="M564.708,-400.422C574.239,-444.714 603.939,-553.488 674,-607 679.079,-610.88 684.744,-614.026 690.708,-616.572"/>
<polygon fill="midnightblue" stroke="midnightblue" points="568.137,-399.721 562.707,-390.624 561.278,-401.122 568.137,-399.721"/>
</g>
<!-- Node9 -->
<g id="node9" class="node"><title>Node9</title>
<g id="a_node9"><a xlink:href="../../de/d23/classinstructions_1_1commands_1_1_for.html" target="_top" xlink:title="instructions.commands.For">
<polygon fill="white" stroke="black" points="696.5,-578.5 696.5,-597.5 843.5,-597.5 843.5,-578.5 696.5,-578.5"/>
<text text-anchor="middle" x="770" y="-585.5" font-family="Helvetica,sans-Serif" font-size="10.00">instructions.commands.For</text>
</a>
</g>
</g>
<!-- Node1&#45;&gt;Node9 -->
<g id="edge8" class="edge"><title>Node1&#45;&gt;Node9</title>
<path fill="none" stroke="midnightblue" d="M566.73,-400.29C579.29,-439.003 613.094,-526.114 674,-569 680.739,-573.745 688.378,-577.37 696.327,-580.129"/>
<polygon fill="midnightblue" stroke="midnightblue" points="570.067,-399.235 563.746,-390.732 563.385,-401.321 570.067,-399.235"/>
</g>
<!-- Node10 -->
<g id="node10" class="node"><title>Node10</title>
<g id="a_node10"><a xlink:href="../../d0/d2d/classinstructions_1_1commands_1_1_greater_than.html" target="_top" xlink:title="instructions.commands.GreaterThan">
<polygon fill="white" stroke="black" points="674,-540.5 674,-559.5 866,-559.5 866,-540.5 674,-540.5"/>
<text text-anchor="middle" x="770" y="-547.5" font-family="Helvetica,sans-Serif" font-size="10.00">instructions.commands.GreaterThan</text>
</a>
</g>
</g>
<!-- Node1&#45;&gt;Node10 -->
<g id="edge9" class="edge"><title>Node1&#45;&gt;Node10</title>
<path fill="none" stroke="midnightblue" d="M569.551,-399.917C585.261,-432.359 621.946,-498.272 674,-531 680.123,-534.85 686.869,-537.942 693.856,-540.423"/>
<polygon fill="midnightblue" stroke="midnightblue" points="572.615,-398.206 565.195,-390.644 566.279,-401.183 572.615,-398.206"/>
</g>
<!-- Node11 -->
<g id="node11" class="node"><title>Node11</title>
<g id="a_node11"><a xlink:href="../../d3/da3/classinstructions_1_1commands_1_1_if.html" target="_top" xlink:title="instructions.commands.If">
<polygon fill="white" stroke="black" points="701.5,-502.5 701.5,-521.5 838.5,-521.5 838.5,-502.5 701.5,-502.5"/>
<text text-anchor="middle" x="770" y="-509.5" font-family="Helvetica,sans-Serif" font-size="10.00">instructions.commands.If</text>
</a>
</g>
</g>
<!-- Node1&#45;&gt;Node11 -->
<g id="edge10" class="edge"><title>Node1&#45;&gt;Node11</title>
<path fill="none" stroke="midnightblue" d="M573.669,-398.99C592.492,-424.258 630.352,-469.765 674,-493 682.463,-497.505 691.867,-500.946 701.373,-503.573"/>
<polygon fill="midnightblue" stroke="midnightblue" points="576.333,-396.703 567.62,-390.675 570.673,-400.821 576.333,-396.703"/>
</g>
<!-- Node12 -->
<g id="node12" class="node"><title>Node12</title>
<g id="a_node12"><a xlink:href="../../d1/d94/classinstructions_1_1commands_1_1_less_than.html" target="_top" xlink:title="instructions.commands.LessThan">
<polygon fill="white" stroke="black" points="681.5,-464.5 681.5,-483.5 858.5,-483.5 858.5,-464.5 681.5,-464.5"/>
<text text-anchor="middle" x="770" y="-471.5" font-family="Helvetica,sans-Serif" font-size="10.00">instructions.commands.LessThan</text>
</a>
</g>
</g>
<!-- Node1&#45;&gt;Node12 -->
<g id="edge11" class="edge"><title>Node1&#45;&gt;Node12</title>
<path fill="none" stroke="midnightblue" d="M580.777,-397.018C602.4,-413.725 638.694,-439.465 674,-454 684.52,-458.331 696.097,-461.768 707.443,-464.483"/>
<polygon fill="midnightblue" stroke="midnightblue" points="582.74,-394.11 572.715,-390.68 578.413,-399.612 582.74,-394.11"/>
</g>
<!-- Node13 -->
<g id="node13" class="node"><title>Node13</title>
<g id="a_node13"><a xlink:href="../../df/d40/classinstructions_1_1commands_1_1_make_variable.html" target="_top" xlink:title="instructions.commands.Make\lVariable">
<polygon fill="white" stroke="black" points="691,-415 691,-445 849,-445 849,-415 691,-415"/>
<text text-anchor="start" x="699" y="-433" font-family="Helvetica,sans-Serif" font-size="10.00">instructions.commands.Make</text>
<text text-anchor="middle" x="770" y="-422" font-family="Helvetica,sans-Serif" font-size="10.00">Variable</text>
</a>
</g>
</g>
<!-- Node1&#45;&gt;Node13 -->
<g id="edge12" class="edge"><title>Node1&#45;&gt;Node13</title>
<path fill="none" stroke="midnightblue" d="M611.628,-392.927C639.794,-399.562 675.124,-407.885 705.17,-414.963"/>
<polygon fill="midnightblue" stroke="midnightblue" points="612.134,-389.45 601.598,-390.564 610.529,-396.264 612.134,-389.45"/>
</g>
<!-- Node14 -->
<g id="node14" class="node"><title>Node14</title>
<g id="a_node14"><a xlink:href="../../d3/d06/classinstructions_1_1commands_1_1_not_equal.html" target="_top" xlink:title="instructions.commands.Not\lEqual">
<polygon fill="white" stroke="black" points="695.5,-366 695.5,-396 844.5,-396 844.5,-366 695.5,-366"/>
<text text-anchor="start" x="703.5" y="-384" font-family="Helvetica,sans-Serif" font-size="10.00">instructions.commands.Not</text>
<text text-anchor="middle" x="770" y="-373" font-family="Helvetica,sans-Serif" font-size="10.00">Equal</text>
</a>
</g>
</g>
<!-- Node1&#45;&gt;Node14 -->
<g id="edge13" class="edge"><title>Node1&#45;&gt;Node14</title>
<path fill="none" stroke="midnightblue" d="M647.853,-381C663.652,-381 679.994,-381 695.366,-381"/>
<polygon fill="midnightblue" stroke="midnightblue" points="647.565,-377.5 637.565,-381 647.565,-384.5 647.565,-377.5"/>
</g>
<!-- Node15 -->
<g id="node15" class="node"><title>Node15</title>
<g id="a_node15"><a xlink:href="../../d8/d0d/classinstructions_1_1commands_1_1_or.html" target="_top" xlink:title="instructions.commands.Or">
<polygon fill="white" stroke="black" points="698.5,-327.5 698.5,-346.5 841.5,-346.5 841.5,-327.5 698.5,-327.5"/>
<text text-anchor="middle" x="770" y="-334.5" font-family="Helvetica,sans-Serif" font-size="10.00">instructions.commands.Or</text>
</a>
</g>
</g>
<!-- Node1&#45;&gt;Node15 -->
<g id="edge14" class="edge"><title>Node1&#45;&gt;Node15</title>
<path fill="none" stroke="midnightblue" d="M612.841,-369.299C632.036,-365.028 653.992,-360.214 674,-356 688.977,-352.846 705.311,-349.533 720.144,-346.573"/>
<polygon fill="midnightblue" stroke="midnightblue" points="612.078,-365.883 603.08,-371.477 613.603,-372.715 612.078,-365.883"/>
</g>
<!-- Node16 -->
<g id="node16" class="node"><title>Node16</title>
<g id="a_node16"><a xlink:href="../../d4/d85/classinstructions_1_1commands_1_1_power.html" target="_top" xlink:title="instructions.commands.Power">
<polygon fill="white" stroke="black" points="689.5,-289.5 689.5,-308.5 850.5,-308.5 850.5,-289.5 689.5,-289.5"/>
<text text-anchor="middle" x="770" y="-296.5" font-family="Helvetica,sans-Serif" font-size="10.00">instructions.commands.Power</text>
</a>
</g>
</g>
<!-- Node1&#45;&gt;Node16 -->
<g id="edge15" class="edge"><title>Node1&#45;&gt;Node16</title>
<path fill="none" stroke="midnightblue" d="M583.571,-365.629C605.684,-351.258 640.805,-330.23 674,-318 684.417,-314.162 695.776,-311.04 706.901,-308.521"/>
<polygon fill="midnightblue" stroke="midnightblue" points="581.348,-362.902 574.934,-371.335 585.207,-368.743 581.348,-362.902"/>
</g>
<!-- Node17 -->
<g id="node17" class="node"><title>Node17</title>
<g id="a_node17"><a xlink:href="../../db/d93/classinstructions_1_1commands_1_1_product.html" target="_top" xlink:title="instructions.commands.Product">
<polygon fill="white" stroke="black" points="685.5,-251.5 685.5,-270.5 854.5,-270.5 854.5,-251.5 685.5,-251.5"/>
<text text-anchor="middle" x="770" y="-258.5" font-family="Helvetica,sans-Serif" font-size="10.00">instructions.commands.Product</text>
</a>
</g>
</g>
<!-- Node1&#45;&gt;Node17 -->
<g id="edge16" class="edge"><title>Node1&#45;&gt;Node17</title>
<path fill="none" stroke="midnightblue" d="M575.216,-363.471C594.884,-340.48 632.675,-300.649 674,-280 681.824,-276.091 690.389,-272.985 699.071,-270.519"/>
<polygon fill="midnightblue" stroke="midnightblue" points="572.329,-361.467 568.596,-371.382 577.698,-365.959 572.329,-361.467"/>
</g>
<!-- Node18 -->
<g id="node18" class="node"><title>Node18</title>
<g id="a_node18"><a xlink:href="../../d2/da3/classinstructions_1_1commands_1_1_quotient.html" target="_top" xlink:title="instructions.commands.Quotient">
<polygon fill="white" stroke="black" points="683.5,-213.5 683.5,-232.5 856.5,-232.5 856.5,-213.5 683.5,-213.5"/>
<text text-anchor="middle" x="770" y="-220.5" font-family="Helvetica,sans-Serif" font-size="10.00">instructions.commands.Quotient</text>
</a>
</g>
</g>
<!-- Node1&#45;&gt;Node18 -->
<g id="edge17" class="edge"><title>Node1&#45;&gt;Node18</title>
<path fill="none" stroke="midnightblue" d="M570.622,-362.196C587.27,-331.703 624.475,-271.876 674,-242 680.337,-238.177 687.302,-235.107 694.492,-232.644"/>
<polygon fill="midnightblue" stroke="midnightblue" points="567.372,-360.853 565.776,-371.327 573.556,-364.134 567.372,-360.853"/>
</g>
<!-- Node19 -->
<g id="node19" class="node"><title>Node19</title>
<g id="a_node19"><a xlink:href="../../df/dc9/classinstructions_1_1commands_1_1_remainder.html" target="_top" xlink:title="instructions.commands.Remainder">
<polygon fill="white" stroke="black" points="678.5,-175.5 678.5,-194.5 861.5,-194.5 861.5,-175.5 678.5,-175.5"/>
<text text-anchor="middle" x="770" y="-182.5" font-family="Helvetica,sans-Serif" font-size="10.00">instructions.commands.Remainder</text>
</a>
</g>
</g>
<!-- Node1&#45;&gt;Node19 -->
<g id="edge18" class="edge"><title>Node1&#45;&gt;Node19</title>
<path fill="none" stroke="midnightblue" d="M567.43,-361.832C580.881,-324.877 615.667,-243.908 674,-204 679.553,-200.201 685.69,-197.126 692.092,-194.64"/>
<polygon fill="midnightblue" stroke="midnightblue" points="564.079,-360.813 564.069,-371.407 570.684,-363.131 564.079,-360.813"/>
</g>
<!-- Node20 -->
<g id="node20" class="node"><title>Node20</title>
<g id="a_node20"><a xlink:href="../../dc/de7/classinstructions_1_1commands_1_1_repeat.html" target="_top" xlink:title="instructions.commands.Repeat">
<polygon fill="white" stroke="black" points="687.5,-137.5 687.5,-156.5 852.5,-156.5 852.5,-137.5 687.5,-137.5"/>
<text text-anchor="middle" x="770" y="-144.5" font-family="Helvetica,sans-Serif" font-size="10.00">instructions.commands.Repeat</text>
</a>
</g>
</g>
<!-- Node1&#45;&gt;Node20 -->
<g id="edge19" class="edge"><title>Node1&#45;&gt;Node20</title>
<path fill="none" stroke="midnightblue" d="M565.286,-361.374C575.731,-318.501 606.733,-216.308 674,-166 679.118,-162.172 684.81,-159.062 690.793,-156.541"/>
<polygon fill="midnightblue" stroke="midnightblue" points="561.818,-360.834 562.967,-371.367 568.637,-362.417 561.818,-360.834"/>
</g>
<!-- Node21 -->
<g id="node21" class="node"><title>Node21</title>
<g id="a_node21"><a xlink:href="../../da/d22/classinstructions_1_1commands_1_1_set_position.html" target="_top" xlink:title="instructions.commands.Set\lPosition">
<polygon fill="white" stroke="black" points="695.5,-88 695.5,-118 844.5,-118 844.5,-88 695.5,-88"/>
<text text-anchor="start" x="703.5" y="-106" font-family="Helvetica,sans-Serif" font-size="10.00">instructions.commands.Set</text>
<text text-anchor="middle" x="770" y="-95" font-family="Helvetica,sans-Serif" font-size="10.00">Position</text>
</a>
</g>
</g>
<!-- Node1&#45;&gt;Node21 -->
<g id="edge20" class="edge"><title>Node1&#45;&gt;Node21</title>
<path fill="none" stroke="midnightblue" d="M563.873,-361.558C571.943,-314.068 599.318,-191.421 674,-128 680.24,-122.701 687.48,-118.51 695.125,-115.199"/>
<polygon fill="midnightblue" stroke="midnightblue" points="560.412,-361.035 562.29,-371.462 567.324,-362.14 560.412,-361.035"/>
</g>
<!-- Node22 -->
<g id="node22" class="node"><title>Node22</title>
<g id="a_node22"><a xlink:href="../../d2/d46/classinstructions_1_1commands_1_1_set_towards.html" target="_top" xlink:title="instructions.commands.Set\lTowards">
<polygon fill="white" stroke="black" points="695.5,-39 695.5,-69 844.5,-69 844.5,-39 695.5,-39"/>
<text text-anchor="start" x="703.5" y="-57" font-family="Helvetica,sans-Serif" font-size="10.00">instructions.commands.Set</text>
<text text-anchor="middle" x="770" y="-46" font-family="Helvetica,sans-Serif" font-size="10.00">Towards</text>
</a>
</g>
</g>
<!-- Node1&#45;&gt;Node22 -->
<g id="edge21" class="edge"><title>Node1&#45;&gt;Node22</title>
<path fill="none" stroke="midnightblue" d="M562.272,-361.066C566.836,-306.897 587.132,-155.84 674,-78 680.208,-72.4373 687.52,-68.1248 695.285,-64.7877"/>
<polygon fill="midnightblue" stroke="midnightblue" points="558.758,-361.125 561.501,-371.358 565.738,-361.648 558.758,-361.125"/>
</g>
<!-- Node23 -->
<g id="node23" class="node"><title>Node23</title>
<g id="a_node23"><a xlink:href="../../d4/d62/classinstructions_1_1commands_1_1_sum.html" target="_top" xlink:title="instructions.commands.Sum">
<polygon fill="white" stroke="black" points="692.5,-0.5 692.5,-19.5 847.5,-19.5 847.5,-0.5 692.5,-0.5"/>
<text text-anchor="middle" x="770" y="-7.5" font-family="Helvetica,sans-Serif" font-size="10.00">instructions.commands.Sum</text>
</a>
</g>
</g>
<!-- Node1&#45;&gt;Node23 -->
<g id="edge22" class="edge"><title>Node1&#45;&gt;Node23</title>
<path fill="none" stroke="midnightblue" d="M560.873,-361.28C561.629,-301.284 572.569,-119.55 674,-29 679.395,-24.1835 685.658,-20.4489 692.346,-17.5688"/>
<polygon fill="midnightblue" stroke="midnightblue" points="557.373,-361.291 560.832,-371.306 564.373,-361.32 557.373,-361.291"/>
</g>
<!-- Node2 -->
<g id="node2" class="node"><title>Node2</title>
<g id="a_node2"><a xlink:href="../../d9/d85/classinstructions_1_1_parameter_instruction.html" target="_top" xlink:title="instructions.ParameterInstruction">
<polygon fill="white" stroke="black" points="270,-371.5 270,-390.5 446,-390.5 446,-371.5 270,-371.5"/>
<text text-anchor="middle" x="358" y="-378.5" font-family="Helvetica,sans-Serif" font-size="10.00">instructions.ParameterInstruction</text>
</a>
</g>
</g>
<!-- Node2&#45;&gt;Node1 -->
<g id="edge1" class="edge"><title>Node2&#45;&gt;Node1</title>
<path fill="none" stroke="midnightblue" d="M456.4,-381C465.163,-381 473.952,-381 482.499,-381"/>
<polygon fill="midnightblue" stroke="midnightblue" points="456.141,-377.5 446.141,-381 456.141,-384.5 456.141,-377.5"/>
</g>
<!-- Node3 -->
<g id="node3" class="node"><title>Node3</title>
<g id="a_node3"><a xlink:href="../../d2/d93/interfaceinstructions_1_1_instruction.html" target="_top" xlink:title="instructions.Instruction">
<polygon fill="white" stroke="black" points="108.5,-371.5 108.5,-390.5 233.5,-390.5 233.5,-371.5 108.5,-371.5"/>
<text text-anchor="middle" x="171" y="-378.5" font-family="Helvetica,sans-Serif" font-size="10.00">instructions.Instruction</text>
</a>
</g>
</g>
<!-- Node3&#45;&gt;Node2 -->
<g id="edge2" class="edge"><title>Node3&#45;&gt;Node2</title>
<path fill="none" stroke="midnightblue" d="M243.603,-381C252.239,-381 261.131,-381 269.957,-381"/>
<polygon fill="midnightblue" stroke="midnightblue" points="243.602,-377.5 233.602,-381 243.602,-384.5 243.602,-377.5"/>
</g>
<!-- Node4 -->
<g id="node4" class="node"><title>Node4</title>
<polygon fill="white" stroke="#bfbfbf" points="0.5,-371.5 0.5,-390.5 71.5,-390.5 71.5,-371.5 0.5,-371.5"/>
<text text-anchor="middle" x="36" y="-378.5" font-family="Helvetica,sans-Serif" font-size="10.00">Serializable</text>
</g>
<!-- Node4&#45;&gt;Node3 -->
<g id="edge3" class="edge"><title>Node4&#45;&gt;Node3</title>
<path fill="none" stroke="midnightblue" d="M81.697,-381C90.2324,-381 99.3067,-381 108.265,-381"/>
<polygon fill="midnightblue" stroke="midnightblue" points="81.597,-377.5 71.597,-381 81.597,-384.5 81.597,-377.5"/>
</g>
</g>
</svg>
        <g id="navigator" transform="translate(0 0)" fill="#404254">
                <rect fill="#f2f5e9" fill-opacity="0.5" stroke="#606060" stroke-width=".5" x="0" y="0" width="60" height="60"/>
                <use id="zoomplus" xlink:href="#zoomPlus" x="17" y="9" onmousedown="handleZoom(evt,'in')"/>
                <use id="zoomminus" xlink:href="#zoomMin" x="42" y="9" onmousedown="handleZoom(evt,'out')"/>
                <use id="reset" xlink:href="#resetDef" x="30" y="36" onmousedown="handleReset()"/>
                <g id="arrowUp" xlink:href="#dirArrow" transform="translate(30 24)" onmousedown="handlePan(0,-1)">
                  <use xlink:href="#rim" fill="#404040">
                        <set attributeName="fill" to="#808080" begin="arrowUp.mouseover" end="arrowUp.mouseout"/>
                  </use>
                  <path fill="none" stroke="white" stroke-width="1.5" d="M0,-3.0v7 M-2.5,-0.5L0,-3.0L2.5,-0.5"/>
                </g>
                <g id="arrowRight" xlink:href="#dirArrow" transform="rotate(90) translate(36 -43)" onmousedown="handlePan(1,0)">
                  <use xlink:href="#rim" fill="#404040">
                        <set attributeName="fill" to="#808080" begin="arrowRight.mouseover" end="arrowRight.mouseout"/>
                  </use>
                  <path fill="none" stroke="white" stroke-width="1.5" d="M0,-3.0v7 M-2.5,-0.5L0,-3.0L2.5,-0.5"/>
                </g>
                <g id="arrowDown" xlink:href="#dirArrow" transform="rotate(180) translate(-30 -48)" onmousedown="handlePan(0,1)">
                  <use xlink:href="#rim" fill="#404040">
                        <set attributeName="fill" to="#808080" begin="arrowDown.mouseover" end="arrowDown.mouseout"/>
                  </use>
                  <path fill="none" stroke="white" stroke-width="1.5" d="M0,-3.0v7 M-2.5,-0.5L0,-3.0L2.5,-0.5"/>
                </g>
                <g id="arrowLeft" xlink:href="#dirArrow" transform="rotate(270) translate(-36 17)" onmousedown="handlePan(-1,0)">
                  <use xlink:href="#rim" fill="#404040">
                        <set attributeName="fill" to="#808080" begin="arrowLeft.mouseover" end="arrowLeft.mouseout"/>
                  </use>
                  <path fill="none" stroke="white" stroke-width="1.5" d="M0,-3.0v7 M-2.5,-0.5L0,-3.0L2.5,-0.5"/>
                </g>
        </g>
        <svg viewBox="0 0 15 15" width="100%" height="30px" preserveAspectRatio="xMaxYMin meet">
         <g id="arrow_out" transform="scale(0.3 0.3)">
          <a xlink:href="classinstructions_1_1_binary_instruction__inherit__graph_org.svg" target="_base">
           <rect id="button" ry="5" rx="5" y="6" x="6" height="38" width="38"
                fill="#f2f5e9" fill-opacity="0.5" stroke="#606060" stroke-width="1.0"/>
           <path id="arrow"
             d="M 11.500037,31.436501 C 11.940474,20.09759 22.043105,11.32322 32.158766,21.979434 L 37.068811,17.246167 C 37.068811,17.246167 37.088388,32 37.088388,32 L 22.160133,31.978069 C 22.160133,31.978069 26.997745,27.140456 26.997745,27.140456 C 18.528582,18.264221 13.291696,25.230495 11.500037,31.436501 z"
             style="fill:#404040;"/>
          </a>
         </g>
        </svg>
</svg>
