<?xml version="1.0" encoding="UTF-8" standalone="no"?>
<!DOCTYPE svg PUBLIC "-//W3C//DTD SVG 1.1//EN"
 "http://www.w3.org/Graphics/SVG/1.1/DTD/svg11.dtd">
<!-- Generated by graphviz version 2.36.0 (20140111.2315)
 -->
<!-- Title: view.HistoryResultsView.update Pages: 1 -->
<svg width="938pt" height="66pt"
 viewBox="0.00 0.00 938.00 66.00" xmlns="http://www.w3.org/2000/svg" xmlns:xlink="http://www.w3.org/1999/xlink">
<g id="graph0" class="graph" transform="scale(1 1) rotate(0) translate(4 62)">
<title>view.HistoryResultsView.update</title>
<polygon fill="white" stroke="none" points="-4,4 -4,-62 934,-62 934,4 -4,4"/>
<!-- Node1 -->
<g id="node1" class="node"><title>Node1</title>
<polygon fill="#bfbfbf" stroke="black" points="0,-19.5 0,-38.5 164,-38.5 164,-19.5 0,-19.5"/>
<text text-anchor="middle" x="82" y="-26.5" font-family="Helvetica,sans-Serif" font-size="10.00">view.HistoryResultsView.update</text>
</g>
<!-- Node2 -->
<g id="node2" class="node"><title>Node2</title>
<g id="a_node2"><a xlink:href="../../d1/d0e/classview_1_1_history_view.html#abfcd825b67237a6c1a803a1314b223f3" target="_top" xlink:title="view.HistoryView.update">
<polygon fill="white" stroke="black" points="200.5,-38.5 200.5,-57.5 331.5,-57.5 331.5,-38.5 200.5,-38.5"/>
<text text-anchor="middle" x="266" y="-45.5" font-family="Helvetica,sans-Serif" font-size="10.00">view.HistoryView.update</text>
</a>
</g>
</g>
<!-- Node1&#45;&gt;Node2 -->
<g id="edge1" class="edge"><title>Node1&#45;&gt;Node2</title>
<path fill="none" stroke="midnightblue" d="M164.153,-37.472C172.874,-38.3824 181.717,-39.3056 190.356,-40.2075"/>
<polygon fill="midnightblue" stroke="midnightblue" points="190.076,-43.6972 200.385,-41.2545 190.803,-36.735 190.076,-43.6972"/>
</g>
<!-- Node6 -->
<g id="node6" class="node"><title>Node6</title>
<g id="a_node6"><a xlink:href="../../d0/d12/classview_1_1_results_view.html#ae7a880bc8b3e73a919f9cea7c46703f9" target="_top" xlink:title="view.ResultsView.update">
<polygon fill="white" stroke="black" points="200.5,-0.5 200.5,-19.5 331.5,-19.5 331.5,-0.5 200.5,-0.5"/>
<text text-anchor="middle" x="266" y="-7.5" font-family="Helvetica,sans-Serif" font-size="10.00">view.ResultsView.update</text>
</a>
</g>
</g>
<!-- Node1&#45;&gt;Node6 -->
<g id="edge5" class="edge"><title>Node1&#45;&gt;Node6</title>
<path fill="none" stroke="midnightblue" d="M164.153,-20.528C172.874,-19.6176 181.717,-18.6944 190.356,-17.7925"/>
<polygon fill="midnightblue" stroke="midnightblue" points="190.803,-21.265 200.385,-16.7455 190.076,-14.3028 190.803,-21.265"/>
</g>
<!-- Node3 -->
<g id="node3" class="node"><title>Node3</title>
<g id="a_node3"><a xlink:href="../../db/d98/classview_1_1_scroll_view.html#af810ea194b6bcd9c7c8da1f84ebd5ac2" target="_top" xlink:title="view.ScrollView.addTextBox">
<polygon fill="white" stroke="black" points="368,-38.5 368,-57.5 512,-57.5 512,-38.5 368,-38.5"/>
<text text-anchor="middle" x="440" y="-45.5" font-family="Helvetica,sans-Serif" font-size="10.00">view.ScrollView.addTextBox</text>
</a>
</g>
</g>
<!-- Node2&#45;&gt;Node3 -->
<g id="edge2" class="edge"><title>Node2&#45;&gt;Node3</title>
<path fill="none" stroke="midnightblue" d="M331.536,-48C340.032,-48 348.826,-48 357.557,-48"/>
<polygon fill="midnightblue" stroke="midnightblue" points="357.757,-51.5001 367.757,-48 357.757,-44.5001 357.757,-51.5001"/>
</g>
<!-- Node4 -->
<g id="node4" class="node"><title>Node4</title>
<g id="a_node4"><a xlink:href="../../db/d98/classview_1_1_scroll_view.html#af8a9a83dc920350c521d6d78016cafce" target="_top" xlink:title="view.ScrollView.makeClickableText">
<polygon fill="white" stroke="black" points="548.5,-38.5 548.5,-57.5 725.5,-57.5 725.5,-38.5 548.5,-38.5"/>
<text text-anchor="middle" x="637" y="-45.5" font-family="Helvetica,sans-Serif" font-size="10.00">view.ScrollView.makeClickableText</text>
</a>
</g>
</g>
<!-- Node3&#45;&gt;Node4 -->
<g id="edge3" class="edge"><title>Node3&#45;&gt;Node4</title>
<path fill="none" stroke="midnightblue" d="M512.227,-48C520.673,-48 529.402,-48 538.136,-48"/>
<polygon fill="midnightblue" stroke="midnightblue" points="538.373,-51.5001 548.373,-48 538.373,-44.5001 538.373,-51.5001"/>
</g>
<!-- Node5 -->
<g id="node5" class="node"><title>Node5</title>
<g id="a_node5"><a xlink:href="../../d6/d0a/classview_1_1_input_view.html#a81954709509ce44f7fe364a24a613d66" target="_top" xlink:title="view.InputView.addAndShowText">
<polygon fill="white" stroke="black" points="762,-38.5 762,-57.5 930,-57.5 930,-38.5 762,-38.5"/>
<text text-anchor="middle" x="846" y="-45.5" font-family="Helvetica,sans-Serif" font-size="10.00">view.InputView.addAndShowText</text>
</a>
</g>
</g>
<!-- Node4&#45;&gt;Node5 -->
<g id="edge4" class="edge"><title>Node4&#45;&gt;Node5</title>
<path fill="none" stroke="midnightblue" d="M725.787,-48C734.34,-48 743.04,-48 751.646,-48"/>
<polygon fill="midnightblue" stroke="midnightblue" points="751.691,-51.5001 761.691,-48 751.691,-44.5001 751.691,-51.5001"/>
</g>
</g>
</svg>
