<?xml version="1.0" encoding="UTF-8" standalone="no"?>
<!DOCTYPE svg PUBLIC "-//W3C//DTD SVG 1.1//EN"
 "http://www.w3.org/Graphics/SVG/1.1/DTD/svg11.dtd">
<!-- Generated by graphviz version 2.36.0 (20140111.2315)
 -->
<!-- Title: instructions.commands.SetBackground.execute Pages: 1 -->
<svg width="344pt" height="77pt"
 viewBox="0.00 0.00 344.00 77.00" xmlns="http://www.w3.org/2000/svg" xmlns:xlink="http://www.w3.org/1999/xlink">
<g id="graph0" class="graph" transform="scale(1 1) rotate(0) translate(4 73)">
<title>instructions.commands.SetBackground.execute</title>
<polygon fill="white" stroke="none" points="-4,4 -4,-73 340,-73 340,4 -4,4"/>
<!-- Node1 -->
<g id="node1" class="node"><title>Node1</title>
<polygon fill="#bfbfbf" stroke="black" points="0.5,-17 0.5,-47 149.5,-47 149.5,-17 0.5,-17"/>
<text text-anchor="start" x="8.5" y="-35" font-family="Helvetica,sans-Serif" font-size="10.00">instructions.commands.Set</text>
<text text-anchor="middle" x="75" y="-24" font-family="Helvetica,sans-Serif" font-size="10.00">Background.execute</text>
</g>
<!-- Node2 -->
<g id="node2" class="node"><title>Node2</title>
<g id="a_node2"><a xlink:href="../../dc/dff/classmodel_1_1_background_color.html#a76edb11d4068383e2829a2f8d5258420" target="_top" xlink:title="model.BackgroundColor.get\lCustom">
<polygon fill="white" stroke="black" points="186.5,-39 186.5,-69 335.5,-69 335.5,-39 186.5,-39"/>
<text text-anchor="start" x="194.5" y="-57" font-family="Helvetica,sans-Serif" font-size="10.00">model.BackgroundColor.get</text>
<text text-anchor="middle" x="261" y="-46" font-family="Helvetica,sans-Serif" font-size="10.00">Custom</text>
</a>
</g>
</g>
<!-- Node1&#45;&gt;Node2 -->
<g id="edge1" class="edge"><title>Node1&#45;&gt;Node2</title>
<path fill="none" stroke="midnightblue" d="M149.515,-40.7898C158.315,-41.842 167.351,-42.9224 176.281,-43.9902"/>
<polygon fill="midnightblue" stroke="midnightblue" points="175.957,-47.4762 186.302,-45.1882 176.788,-40.5257 175.957,-47.4762"/>
</g>
<!-- Node3 -->
<g id="node3" class="node"><title>Node3</title>
<g id="a_node3"><a xlink:href="../../dc/dff/classmodel_1_1_background_color.html#aeae66055bd64f0962edcc1874e673afc" target="_top" xlink:title="model.BackgroundColor.set">
<polygon fill="white" stroke="black" points="186.5,-0.5 186.5,-19.5 335.5,-19.5 335.5,-0.5 186.5,-0.5"/>
<text text-anchor="middle" x="261" y="-7.5" font-family="Helvetica,sans-Serif" font-size="10.00">model.BackgroundColor.set</text>
</a>
</g>
</g>
<!-- Node1&#45;&gt;Node3 -->
<g id="edge2" class="edge"><title>Node1&#45;&gt;Node3</title>
<path fill="none" stroke="midnightblue" d="M149.515,-23.2102C158.315,-22.158 167.351,-21.0776 176.281,-20.0098"/>
<polygon fill="midnightblue" stroke="midnightblue" points="176.788,-23.4743 186.302,-18.8118 175.957,-16.5238 176.788,-23.4743"/>
</g>
</g>
</svg>
