<?xml version="1.0" encoding="UTF-8" standalone="no"?>
<!DOCTYPE svg PUBLIC "-//W3C//DTD SVG 1.1//EN"
 "http://www.w3.org/Graphics/SVG/1.1/DTD/svg11.dtd">
<!-- Generated by graphviz version 2.36.0 (20140111.2315)
 -->
<!-- Title: view.TurtleView.changeColor Pages: 1 -->
<svg width="554pt" height="77pt"
 viewBox="0.00 0.00 554.00 77.00" xmlns="http://www.w3.org/2000/svg" xmlns:xlink="http://www.w3.org/1999/xlink">
<g id="graph0" class="graph" transform="scale(1 1) rotate(0) translate(4 73)">
<title>view.TurtleView.changeColor</title>
<polygon fill="white" stroke="none" points="-4,4 -4,-73 550,-73 550,4 -4,4"/>
<!-- Node1 -->
<g id="node1" class="node"><title>Node1</title>
<polygon fill="#bfbfbf" stroke="black" points="0.5,-22.5 0.5,-41.5 149.5,-41.5 149.5,-22.5 0.5,-22.5"/>
<text text-anchor="middle" x="75" y="-29.5" font-family="Helvetica,sans-Serif" font-size="10.00">view.TurtleView.changeColor</text>
</g>
<!-- Node2 -->
<g id="node2" class="node"><title>Node2</title>
<g id="a_node2"><a xlink:href="../../dd/dc5/classview_1_1_settings_view.html#a1ade97b4c15b11449f1124a6b6eb5e93" target="_top" xlink:title="view.SettingsView.addBGColor\lPicker">
<polygon fill="white" stroke="black" points="186,-39 186,-69 346,-69 346,-39 186,-39"/>
<text text-anchor="start" x="194" y="-57" font-family="Helvetica,sans-Serif" font-size="10.00">view.SettingsView.addBGColor</text>
<text text-anchor="middle" x="266" y="-46" font-family="Helvetica,sans-Serif" font-size="10.00">Picker</text>
</a>
</g>
</g>
<!-- Node1&#45;&gt;Node2 -->
<g id="edge1" class="edge"><title>Node1&#45;&gt;Node2</title>
<path fill="none" stroke="midnightblue" d="M159.763,-41.7502C168.473,-42.7641 177.306,-43.7923 185.961,-44.7997"/>
<polygon fill="midnightblue" stroke="midnightblue" points="159.951,-38.2485 149.614,-40.5688 159.142,-45.2016 159.951,-38.2485"/>
</g>
<!-- Node4 -->
<g id="node4" class="node"><title>Node4</title>
<g id="a_node4"><a xlink:href="../../d0/dfc/classview_1_1_slogo_window.html#a1605d0405c7961727ef7c3d96e41b743" target="_top" xlink:title="view.SlogoWindow.update">
<polygon fill="white" stroke="black" points="197.5,-0.5 197.5,-19.5 334.5,-19.5 334.5,-0.5 197.5,-0.5"/>
<text text-anchor="middle" x="266" y="-7.5" font-family="Helvetica,sans-Serif" font-size="10.00">view.SlogoWindow.update</text>
</a>
</g>
</g>
<!-- Node1&#45;&gt;Node4 -->
<g id="edge3" class="edge"><title>Node1&#45;&gt;Node4</title>
<path fill="none" stroke="midnightblue" d="M159.674,-22.2601C172.311,-20.7891 185.21,-19.2877 197.45,-17.8629"/>
<polygon fill="midnightblue" stroke="midnightblue" points="159.142,-18.7984 149.614,-23.4312 159.951,-25.7515 159.142,-18.7984"/>
</g>
<!-- Node3 -->
<g id="node3" class="node"><title>Node3</title>
<g id="a_node3"><a xlink:href="../../dd/dc5/classview_1_1_settings_view.html#a34b8df753ce7a3b7d917a01ff315edc8" target="_top" xlink:title="view.SettingsView.SettingsView">
<polygon fill="white" stroke="black" points="382,-44.5 382,-63.5 546,-63.5 546,-44.5 382,-44.5"/>
<text text-anchor="middle" x="464" y="-51.5" font-family="Helvetica,sans-Serif" font-size="10.00">view.SettingsView.SettingsView</text>
</a>
</g>
</g>
<!-- Node2&#45;&gt;Node3 -->
<g id="edge2" class="edge"><title>Node2&#45;&gt;Node3</title>
<path fill="none" stroke="midnightblue" d="M356.18,-54C364.768,-54 373.448,-54 381.952,-54"/>
<polygon fill="midnightblue" stroke="midnightblue" points="356.156,-50.5001 346.156,-54 356.156,-57.5001 356.156,-50.5001"/>
</g>
</g>
</svg>
