<?xml version="1.0" encoding="UTF-8" standalone="no"?>
<!DOCTYPE svg PUBLIC "-//W3C//DTD SVG 1.1//EN"
 "http://www.w3.org/Graphics/SVG/1.1/DTD/svg11.dtd">
<!-- Generated by graphviz version 2.36.0 (20140111.2315)
 -->
<!-- Title: view.TurtleView.TurtleView Pages: 1 -->
<svg width="316pt" height="66pt"
 viewBox="0.00 0.00 316.00 66.00" xmlns="http://www.w3.org/2000/svg" xmlns:xlink="http://www.w3.org/1999/xlink">
<g id="graph0" class="graph" transform="scale(1 1) rotate(0) translate(4 62)">
<title>view.TurtleView.TurtleView</title>
<polygon fill="white" stroke="none" points="-4,4 -4,-62 312,-62 312,4 -4,4"/>
<!-- Node1 -->
<g id="node1" class="node"><title>Node1</title>
<polygon fill="#bfbfbf" stroke="black" points="0,-19.5 0,-38.5 136,-38.5 136,-19.5 0,-19.5"/>
<text text-anchor="middle" x="68" y="-26.5" font-family="Helvetica,sans-Serif" font-size="10.00">view.TurtleView.TurtleView</text>
</g>
<!-- Node2 -->
<g id="node2" class="node"><title>Node2</title>
<g id="a_node2"><a xlink:href="../../d8/df7/classview_1_1_turtle_view.html#ad4fa3487a986ea5857e9f0ca82ddb65f" target="_top" xlink:title="view.TurtleView.makeGrid">
<polygon fill="white" stroke="black" points="172.5,-38.5 172.5,-57.5 307.5,-57.5 307.5,-38.5 172.5,-38.5"/>
<text text-anchor="middle" x="240" y="-45.5" font-family="Helvetica,sans-Serif" font-size="10.00">view.TurtleView.makeGrid</text>
</a>
</g>
</g>
<!-- Node1&#45;&gt;Node2 -->
<g id="edge1" class="edge"><title>Node1&#45;&gt;Node2</title>
<path fill="none" stroke="midnightblue" d="M136.189,-36.5093C144.727,-37.4636 153.516,-38.4459 162.191,-39.4155"/>
<polygon fill="midnightblue" stroke="midnightblue" points="161.973,-42.9128 172.299,-40.5452 162.75,-35.9561 161.973,-42.9128"/>
</g>
<!-- Node3 -->
<g id="node3" class="node"><title>Node3</title>
<g id="a_node3"><a xlink:href="../../dc/dc4/classview_1_1_pane_view.html#af1e7e1bf8fa36e154c46cc1ff327b7fc" target="_top" xlink:title="view.PaneView.setView">
<polygon fill="white" stroke="black" points="178.5,-0.5 178.5,-19.5 301.5,-19.5 301.5,-0.5 178.5,-0.5"/>
<text text-anchor="middle" x="240" y="-7.5" font-family="Helvetica,sans-Serif" font-size="10.00">view.PaneView.setView</text>
</a>
</g>
</g>
<!-- Node1&#45;&gt;Node3 -->
<g id="edge2" class="edge"><title>Node1&#45;&gt;Node3</title>
<path fill="none" stroke="midnightblue" d="M136.189,-21.4907C146.738,-20.3116 157.671,-19.0897 168.297,-17.9021"/>
<polygon fill="midnightblue" stroke="midnightblue" points="168.819,-21.3656 178.369,-16.7765 168.042,-14.4089 168.819,-21.3656"/>
</g>
</g>
</svg>
