<?xml version="1.0" encoding="UTF-8" standalone="no"?>
<!DOCTYPE svg PUBLIC "-//W3C//DTD SVG 1.1//EN"
 "http://www.w3.org/Graphics/SVG/1.1/DTD/svg11.dtd">
<!-- Generated by graphviz version 2.36.0 (20140111.2315)
 -->
<!-- Title: model.Pen Pages: 1 -->
<svg width="175pt" height="96pt"
 viewBox="0.00 0.00 175.00 96.00" xmlns="http://www.w3.org/2000/svg" xmlns:xlink="http://www.w3.org/1999/xlink">
<g id="graph0" class="graph" transform="scale(1 1) rotate(0) translate(4 92)">
<title>model.Pen</title>
<polygon fill="white" stroke="none" points="-4,4 -4,-92 171,-92 171,4 -4,4"/>
<!-- Node1 -->
<g id="node1" class="node"><title>Node1</title>
<polygon fill="#bfbfbf" stroke="black" points="45,-0.5 45,-19.5 113,-19.5 113,-0.5 45,-0.5"/>
<text text-anchor="middle" x="79" y="-7.5" font-family="Helvetica,sans-Serif" font-size="10.00">model.Pen</text>
</g>
<!-- Node2 -->
<g id="node2" class="node"><title>Node2</title>
<polygon fill="white" stroke="#bfbfbf" points="0,-68.5 0,-87.5 80,-87.5 80,-68.5 0,-68.5"/>
<text text-anchor="middle" x="40" y="-75.5" font-family="Helvetica,sans-Serif" font-size="10.00">List&lt; Color &gt;</text>
</g>
<!-- Node2&#45;&gt;Node1 -->
<g id="edge1" class="edge"><title>Node2&#45;&gt;Node1</title>
<path fill="none" stroke="#9a32cd" stroke-dasharray="5,2" d="M37.1207,-58.1054C36.947,-51.414 37.7776,-44.0511 41,-38 45.1844,-30.1425 52.7889,-24.0525 60.1016,-19.6618"/>
<polygon fill="#9a32cd" stroke="#9a32cd" points="33.6682,-58.7665 38.116,-68.3826 40.6356,-58.0917 33.6682,-58.7665"/>
<text text-anchor="middle" x="69" y="-41.5" font-family="Helvetica,sans-Serif" font-size="10.00"> myCustom</text>
</g>
<!-- Node3 -->
<g id="node3" class="node"><title>Node3</title>
<polygon fill="white" stroke="#bfbfbf" points="98.5,-68.5 98.5,-87.5 139.5,-87.5 139.5,-68.5 98.5,-68.5"/>
<text text-anchor="middle" x="119" y="-75.5" font-family="Helvetica,sans-Serif" font-size="10.00">Color</text>
</g>
<!-- Node3&#45;&gt;Node1 -->
<g id="edge2" class="edge"><title>Node3&#45;&gt;Node1</title>
<path fill="none" stroke="#9a32cd" stroke-dasharray="5,2" d="M109.36,-59.2624C105.61,-52.5384 101.21,-44.8539 97,-38 93.2259,-31.8554 88.7259,-25.1054 85.1694,-19.8915"/>
<polygon fill="#9a32cd" stroke="#9a32cd" points="106.401,-61.1453 114.29,-68.2181 112.533,-57.7697 106.401,-61.1453"/>
<text text-anchor="middle" x="135.5" y="-41.5" font-family="Helvetica,sans-Serif" font-size="10.00"> myLineColor</text>
</g>
</g>
</svg>
