<?xml version="1.0" encoding="UTF-8" standalone="no"?>
<!DOCTYPE svg PUBLIC "-//W3C//DTD SVG 1.1//EN"
 "http://www.w3.org/Graphics/SVG/1.1/DTD/svg11.dtd">
<!-- Generated by graphviz version 2.36.0 (20140111.2315)
 -->
<!-- Title: model.Feature.remove Pages: 1 -->
<svg width="1084pt" height="66pt"
 viewBox="0.00 0.00 1084.00 66.00" xmlns="http://www.w3.org/2000/svg" xmlns:xlink="http://www.w3.org/1999/xlink">
<g id="graph0" class="graph" transform="scale(1 1) rotate(0) translate(4 62)">
<title>model.Feature.remove</title>
<polygon fill="white" stroke="none" points="-4,4 -4,-62 1080,-62 1080,4 -4,4"/>
<!-- Node1 -->
<g id="node1" class="node"><title>Node1</title>
<polygon fill="#bfbfbf" stroke="black" points="0.5,-19.5 0.5,-38.5 125.5,-38.5 125.5,-19.5 0.5,-19.5"/>
<text text-anchor="middle" x="63" y="-26.5" font-family="Helvetica,sans-Serif" font-size="10.00">model.Feature.remove</text>
</g>
<!-- Node2 -->
<g id="node2" class="node"><title>Node2</title>
<g id="a_node2"><a xlink:href="../../d4/d36/classview_1_1_data_view_components.html#aaebf0a781dd02fe599176d57c2ea9a40" target="_top" xlink:title="view.DataViewComponents.make\lDeleteButton">
<polygon fill="white" stroke="black" points="162,-14 162,-44 338,-44 338,-14 162,-14"/>
<text text-anchor="start" x="170" y="-32" font-family="Helvetica,sans-Serif" font-size="10.00">view.DataViewComponents.make</text>
<text text-anchor="middle" x="250" y="-21" font-family="Helvetica,sans-Serif" font-size="10.00">DeleteButton</text>
</a>
</g>
</g>
<!-- Node1&#45;&gt;Node2 -->
<g id="edge1" class="edge"><title>Node1&#45;&gt;Node2</title>
<path fill="none" stroke="midnightblue" d="M135.603,-29C144.239,-29 153.131,-29 161.957,-29"/>
<polygon fill="midnightblue" stroke="midnightblue" points="135.602,-25.5001 125.602,-29 135.602,-32.5001 135.602,-25.5001"/>
</g>
<!-- Node3 -->
<g id="node3" class="node"><title>Node3</title>
<g id="a_node3"><a xlink:href="../../d4/d36/classview_1_1_data_view_components.html#a05b49c46bdc53791b28b09bf91743124" target="_top" xlink:title="view.DataViewComponents.add\lTextBoxWithDeleteButton">
<polygon fill="white" stroke="black" points="374.5,-14 374.5,-44 541.5,-44 541.5,-14 374.5,-14"/>
<text text-anchor="start" x="382.5" y="-32" font-family="Helvetica,sans-Serif" font-size="10.00">view.DataViewComponents.add</text>
<text text-anchor="middle" x="458" y="-21" font-family="Helvetica,sans-Serif" font-size="10.00">TextBoxWithDeleteButton</text>
</a>
</g>
</g>
<!-- Node2&#45;&gt;Node3 -->
<g id="edge2" class="edge"><title>Node2&#45;&gt;Node3</title>
<path fill="none" stroke="midnightblue" d="M348.218,-29C356.902,-29 365.641,-29 374.186,-29"/>
<polygon fill="midnightblue" stroke="midnightblue" points="348.064,-25.5001 338.064,-29 348.064,-32.5001 348.064,-25.5001"/>
</g>
<!-- Node4 -->
<g id="node4" class="node"><title>Node4</title>
<g id="a_node4"><a xlink:href="../../d8/d0c/classview_1_1_u_d_commands_view.html#a07deb1195869f7a78443052e51e25fe8" target="_top" xlink:title="view.UDCommandsView.update">
<polygon fill="white" stroke="black" points="578.5,-38.5 578.5,-57.5 745.5,-57.5 745.5,-38.5 578.5,-38.5"/>
<text text-anchor="middle" x="662" y="-45.5" font-family="Helvetica,sans-Serif" font-size="10.00">view.UDCommandsView.update</text>
</a>
</g>
</g>
<!-- Node3&#45;&gt;Node4 -->
<g id="edge3" class="edge"><title>Node3&#45;&gt;Node4</title>
<path fill="none" stroke="midnightblue" d="M551.731,-37.7222C560.622,-38.5585 569.6,-39.4029 578.385,-40.2293"/>
<polygon fill="midnightblue" stroke="midnightblue" points="552.028,-34.2348 541.744,-36.7828 551.372,-41.204 552.028,-34.2348"/>
</g>
<!-- Node7 -->
<g id="node7" class="node"><title>Node7</title>
<g id="a_node7"><a xlink:href="../../d9/dd3/classview_1_1_variables_view.html#a298237e15137e0cf00d29789d6359c7c" target="_top" xlink:title="view.VariablesView.update">
<polygon fill="white" stroke="black" points="592,-0.5 592,-19.5 732,-19.5 732,-0.5 592,-0.5"/>
<text text-anchor="middle" x="662" y="-7.5" font-family="Helvetica,sans-Serif" font-size="10.00">view.VariablesView.update</text>
</a>
</g>
</g>
<!-- Node3&#45;&gt;Node7 -->
<g id="edge6" class="edge"><title>Node3&#45;&gt;Node7</title>
<path fill="none" stroke="midnightblue" d="M551.971,-20.2552C565.415,-18.9907 579.05,-17.7082 591.915,-16.4981"/>
<polygon fill="midnightblue" stroke="midnightblue" points="551.372,-16.796 541.744,-21.2172 552.028,-23.7652 551.372,-16.796"/>
</g>
<!-- Node5 -->
<g id="node5" class="node"><title>Node5</title>
<g id="a_node5"><a xlink:href="../../de/d2f/classview_1_1_data_view.html#ab1acc31f3125a6a1d52e21b05bae379b" target="_top" xlink:title="view.DataView.update">
<polygon fill="white" stroke="black" points="782,-19.5 782,-38.5 902,-38.5 902,-19.5 782,-19.5"/>
<text text-anchor="middle" x="842" y="-26.5" font-family="Helvetica,sans-Serif" font-size="10.00">view.DataView.update</text>
</a>
</g>
</g>
<!-- Node4&#45;&gt;Node5 -->
<g id="edge4" class="edge"><title>Node4&#45;&gt;Node5</title>
<path fill="none" stroke="midnightblue" d="M755.743,-38.1005C764.594,-37.1557 773.397,-36.2161 781.798,-35.3193"/>
<polygon fill="midnightblue" stroke="midnightblue" points="755.319,-34.6258 745.747,-39.1675 756.062,-41.5862 755.319,-34.6258"/>
</g>
<!-- Node6 -->
<g id="node6" class="node"><title>Node6</title>
<g id="a_node6"><a xlink:href="../../d0/dfc/classview_1_1_slogo_window.html#a1605d0405c7961727ef7c3d96e41b743" target="_top" xlink:title="view.SlogoWindow.update">
<polygon fill="white" stroke="black" points="938.5,-19.5 938.5,-38.5 1075.5,-38.5 1075.5,-19.5 938.5,-19.5"/>
<text text-anchor="middle" x="1007" y="-26.5" font-family="Helvetica,sans-Serif" font-size="10.00">view.SlogoWindow.update</text>
</a>
</g>
</g>
<!-- Node5&#45;&gt;Node6 -->
<g id="edge5" class="edge"><title>Node5&#45;&gt;Node6</title>
<path fill="none" stroke="midnightblue" d="M912.349,-29C920.997,-29 929.831,-29 938.45,-29"/>
<polygon fill="midnightblue" stroke="midnightblue" points="912.308,-25.5001 902.308,-29 912.308,-32.5001 912.308,-25.5001"/>
</g>
<!-- Node7&#45;&gt;Node5 -->
<g id="edge7" class="edge"><title>Node7&#45;&gt;Node5</title>
<path fill="none" stroke="midnightblue" d="M742.177,-18.4514C755.489,-19.8725 769.099,-21.3252 781.794,-22.6803"/>
<polygon fill="midnightblue" stroke="midnightblue" points="742.389,-14.9543 732.074,-17.3731 741.646,-21.9148 742.389,-14.9543"/>
</g>
</g>
</svg>
