<?xml version="1.0" encoding="UTF-8" standalone="no"?>
<!DOCTYPE svg PUBLIC "-//W3C//DTD SVG 1.1//EN"
 "http://www.w3.org/Graphics/SVG/1.1/DTD/svg11.dtd">
<!-- Generated by graphviz version 2.36.0 (20140111.2315)
 -->
<!-- Title: view.UDCommandsView.update Pages: 1 -->
<svg width="506pt" height="28pt"
 viewBox="0.00 0.00 506.00 28.00" xmlns="http://www.w3.org/2000/svg" xmlns:xlink="http://www.w3.org/1999/xlink">
<g id="graph0" class="graph" transform="scale(1 1) rotate(0) translate(4 24)">
<title>view.UDCommandsView.update</title>
<polygon fill="white" stroke="none" points="-4,4 -4,-24 502,-24 502,4 -4,4"/>
<!-- Node1 -->
<g id="node1" class="node"><title>Node1</title>
<polygon fill="#bfbfbf" stroke="black" points="0.5,-0.5 0.5,-19.5 167.5,-19.5 167.5,-0.5 0.5,-0.5"/>
<text text-anchor="middle" x="84" y="-7.5" font-family="Helvetica,sans-Serif" font-size="10.00">view.UDCommandsView.update</text>
</g>
<!-- Node2 -->
<g id="node2" class="node"><title>Node2</title>
<g id="a_node2"><a xlink:href="../../de/d2f/classview_1_1_data_view.html#ab1acc31f3125a6a1d52e21b05bae379b" target="_top" xlink:title="view.DataView.update">
<polygon fill="white" stroke="black" points="204,-0.5 204,-19.5 324,-19.5 324,-0.5 204,-0.5"/>
<text text-anchor="middle" x="264" y="-7.5" font-family="Helvetica,sans-Serif" font-size="10.00">view.DataView.update</text>
</a>
</g>
</g>
<!-- Node1&#45;&gt;Node2 -->
<g id="edge1" class="edge"><title>Node1&#45;&gt;Node2</title>
<path fill="none" stroke="midnightblue" d="M178.028,-10C186.784,-10 195.487,-10 203.798,-10"/>
<polygon fill="midnightblue" stroke="midnightblue" points="177.747,-6.5001 167.747,-10 177.747,-13.5001 177.747,-6.5001"/>
</g>
<!-- Node3 -->
<g id="node3" class="node"><title>Node3</title>
<g id="a_node3"><a xlink:href="../../d0/dfc/classview_1_1_slogo_window.html#a1605d0405c7961727ef7c3d96e41b743" target="_top" xlink:title="view.SlogoWindow.update">
<polygon fill="white" stroke="black" points="360.5,-0.5 360.5,-19.5 497.5,-19.5 497.5,-0.5 360.5,-0.5"/>
<text text-anchor="middle" x="429" y="-7.5" font-family="Helvetica,sans-Serif" font-size="10.00">view.SlogoWindow.update</text>
</a>
</g>
</g>
<!-- Node2&#45;&gt;Node3 -->
<g id="edge2" class="edge"><title>Node2&#45;&gt;Node3</title>
<path fill="none" stroke="midnightblue" d="M334.349,-10C342.997,-10 351.831,-10 360.45,-10"/>
<polygon fill="midnightblue" stroke="midnightblue" points="334.308,-6.5001 324.308,-10 334.308,-13.5001 334.308,-6.5001"/>
</g>
</g>
</svg>
