<?xml version="1.0" encoding="UTF-8" standalone="no"?>
<!DOCTYPE svg PUBLIC "-//W3C//DTD SVG 1.1//EN"
 "http://www.w3.org/Graphics/SVG/1.1/DTD/svg11.dtd">
<!-- Generated by graphviz version 2.36.0 (20140111.2315)
 -->
<!-- Title: view.UDCommandsView.update Pages: 1 -->
<svg width="802pt" height="77pt"
 viewBox="0.00 0.00 802.00 77.00" xmlns="http://www.w3.org/2000/svg" xmlns:xlink="http://www.w3.org/1999/xlink">
<g id="graph0" class="graph" transform="scale(1 1) rotate(0) translate(4 73)">
<title>view.UDCommandsView.update</title>
<polygon fill="white" stroke="none" points="-4,4 -4,-73 798,-73 798,4 -4,4"/>
<!-- Node1 -->
<g id="node1" class="node"><title>Node1</title>
<polygon fill="#bfbfbf" stroke="black" points="0.5,-22.5 0.5,-41.5 167.5,-41.5 167.5,-22.5 0.5,-22.5"/>
<text text-anchor="middle" x="84" y="-29.5" font-family="Helvetica,sans-Serif" font-size="10.00">view.UDCommandsView.update</text>
</g>
<!-- Node2 -->
<g id="node2" class="node"><title>Node2</title>
<g id="a_node2"><a xlink:href="../../d4/d36/classview_1_1_data_view_components.html#a05b49c46bdc53791b28b09bf91743124" target="_top" xlink:title="view.DataViewComponents.add\lTextBoxWithDeleteButton">
<polygon fill="white" stroke="black" points="204.5,-39 204.5,-69 371.5,-69 371.5,-39 204.5,-39"/>
<text text-anchor="start" x="212.5" y="-57" font-family="Helvetica,sans-Serif" font-size="10.00">view.DataViewComponents.add</text>
<text text-anchor="middle" x="288" y="-46" font-family="Helvetica,sans-Serif" font-size="10.00">TextBoxWithDeleteButton</text>
</a>
</g>
</g>
<!-- Node1&#45;&gt;Node2 -->
<g id="edge1" class="edge"><title>Node1&#45;&gt;Node2</title>
<path fill="none" stroke="midnightblue" d="M167.744,-41.0117C176.531,-41.9687 185.509,-42.9465 194.399,-43.9148"/>
<polygon fill="midnightblue" stroke="midnightblue" points="194.065,-47.3989 204.385,-45.0023 194.822,-40.4401 194.065,-47.3989"/>
</g>
<!-- Node5 -->
<g id="node5" class="node"><title>Node5</title>
<g id="a_node5"><a xlink:href="../../d6/df7/classmodel_1_1_commands_list.html#a0f1df4e3621e54ac0d52131830128d78" target="_top" xlink:title="model.CommandsList.generate">
<polygon fill="white" stroke="black" points="204,-0.5 204,-19.5 372,-19.5 372,-0.5 204,-0.5"/>
<text text-anchor="middle" x="288" y="-7.5" font-family="Helvetica,sans-Serif" font-size="10.00">model.CommandsList.generate</text>
</a>
</g>
</g>
<!-- Node1&#45;&gt;Node5 -->
<g id="edge4" class="edge"><title>Node1&#45;&gt;Node5</title>
<path fill="none" stroke="midnightblue" d="M167.744,-22.9883C176.28,-22.0586 184.996,-21.1094 193.637,-20.1683"/>
<polygon fill="midnightblue" stroke="midnightblue" points="194.169,-23.6311 203.731,-19.0689 193.411,-16.6723 194.169,-23.6311"/>
</g>
<!-- Node3 -->
<g id="node3" class="node"><title>Node3</title>
<g id="a_node3"><a xlink:href="../../d4/d36/classview_1_1_data_view_components.html#aaebf0a781dd02fe599176d57c2ea9a40" target="_top" xlink:title="view.DataViewComponents.make\lDeleteButton">
<polygon fill="white" stroke="black" points="432,-39 432,-69 608,-69 608,-39 432,-39"/>
<text text-anchor="start" x="440" y="-57" font-family="Helvetica,sans-Serif" font-size="10.00">view.DataViewComponents.make</text>
<text text-anchor="middle" x="520" y="-46" font-family="Helvetica,sans-Serif" font-size="10.00">DeleteButton</text>
</a>
</g>
</g>
<!-- Node2&#45;&gt;Node3 -->
<g id="edge2" class="edge"><title>Node2&#45;&gt;Node3</title>
<path fill="none" stroke="midnightblue" d="M371.71,-54C387.921,-54 405.064,-54 421.7,-54"/>
<polygon fill="midnightblue" stroke="midnightblue" points="421.98,-57.5001 431.98,-54 421.98,-50.5001 421.98,-57.5001"/>
</g>
<!-- Node4 -->
<g id="node4" class="node"><title>Node4</title>
<g id="a_node4"><a xlink:href="../../d1/d69/interfacemodel_1_1_feature.html#ad39db6a63efe12b76e6b070a633db99e" target="_top" xlink:title="model.Feature.remove">
<polygon fill="white" stroke="black" points="668.5,-44.5 668.5,-63.5 793.5,-63.5 793.5,-44.5 668.5,-44.5"/>
<text text-anchor="middle" x="731" y="-51.5" font-family="Helvetica,sans-Serif" font-size="10.00">model.Feature.remove</text>
</a>
</g>
</g>
<!-- Node3&#45;&gt;Node4 -->
<g id="edge3" class="edge"><title>Node3&#45;&gt;Node4</title>
<path fill="none" stroke="midnightblue" d="M608.121,-54C624.752,-54 641.986,-54 658.076,-54"/>
<polygon fill="midnightblue" stroke="midnightblue" points="658.466,-57.5001 668.466,-54 658.466,-50.5001 658.466,-57.5001"/>
</g>
<!-- Node6 -->
<g id="node6" class="node"><title>Node6</title>
<g id="a_node6"><a xlink:href="../../d6/df7/classmodel_1_1_commands_list.html#afe889d0ea233be74e064b369e68ad9d6" target="_top" xlink:title="model.CommandsList.makeCommandsList">
<polygon fill="white" stroke="black" points="408,-0.5 408,-19.5 632,-19.5 632,-0.5 408,-0.5"/>
<text text-anchor="middle" x="520" y="-7.5" font-family="Helvetica,sans-Serif" font-size="10.00">model.CommandsList.makeCommandsList</text>
</a>
</g>
</g>
<!-- Node5&#45;&gt;Node6 -->
<g id="edge5" class="edge"><title>Node5&#45;&gt;Node6</title>
<path fill="none" stroke="midnightblue" d="M372.035,-10C380.359,-10 388.925,-10 397.54,-10"/>
<polygon fill="midnightblue" stroke="midnightblue" points="397.663,-13.5001 407.663,-10 397.663,-6.5001 397.663,-13.5001"/>
</g>
</g>
</svg>
