<?xml version="1.0" encoding="UTF-8" standalone="no"?>
<!DOCTYPE svg PUBLIC "-//W3C//DTD SVG 1.1//EN"
 "http://www.w3.org/Graphics/SVG/1.1/DTD/svg11.dtd">
<!-- Generated by graphviz version 2.36.0 (20140111.2315)
 -->
<!-- Title: main.Main Pages: 1 -->
<!--zoomable 572 -->
<svg id="main" version="1.1" xmlns="http://www.w3.org/2000/svg" xmlns:xlink="http://www.w3.org/1999/xlink" xml:space="preserve" onload="init(evt)">
<style type="text/css"><![CDATA[
.edge:hover path { stroke: red; }
.edge:hover polygon { stroke: red; fill: red; }
]]></style>
<script type="text/javascript"><![CDATA[
var edges = document.getElementsByTagName('g');
if (edges && edges.length) {
  for (var i=0;i<edges.length;i++) {
    if (edges[i].id.substr(0,4)=='edge') {
      edges[i].setAttribute('class','edge');
    }
  }
}
]]></script>
        <defs>
                <circle id="rim" cx="0" cy="0" r="7"/>
                <circle id="rim2" cx="0" cy="0" r="3.5"/>
                <g id="zoomPlus">
                        <use xlink:href="#rim" fill="#404040">
                                <set attributeName="fill" to="#808080" begin="zoomplus.mouseover" end="zoomplus.mouseout"/>
                        </use>
                        <path d="M-4,0h8M0,-4v8" fill="none" stroke="white" stroke-width="1.5" pointer-events="none"/>
                </g>
                <g id="zoomMin">
                        <use xlink:href="#rim" fill="#404040">
                                <set attributeName="fill" to="#808080" begin="zoomminus.mouseover" end="zoomminus.mouseout"/>
                        </use>
                        <path d="M-4,0h8" fill="none" stroke="white" stroke-width="1.5" pointer-events="none"/>
                </g>
                <g id="dirArrow">
                        <path fill="none" stroke="white" stroke-width="1.5" d="M0,-3.0v7 M-2.5,-0.5L0,-3.0L2.5,-0.5"/>
                </g>
               <g id="resetDef">
                       <use xlink:href="#rim2" fill="#404040">
                               <set attributeName="fill" to="#808080" begin="reset.mouseover" end="reset.mouseout"/>
                       </use>
               </g>
        </defs>

<script type="text/javascript">
var viewWidth = 1630;
var viewHeight = 572;
var sectionId = 'dynsection-1';
</script>
<script xlink:href="../../svgpan.js"/>
<svg id="graph" class="graph">
<g id="viewport">
<title>main.Main</title>
<polygon fill="white" stroke="none" points="-4,4 -4,-568 1626,-568 1626,4 -4,4"/>
<!-- Node1 -->
<g id="node1" class="node"><title>Node1</title>
<polygon fill="#bfbfbf" stroke="black" points="1556,-454.5 1556,-473.5 1622,-473.5 1622,-454.5 1556,-454.5"/>
<text text-anchor="middle" x="1589" y="-461.5" font-family="Helvetica,sans-Serif" font-size="10.00">main.Main</text>
</g>
<!-- Node2 -->
<g id="node2" class="node"><title>Node2</title>
<polygon fill="white" stroke="#bfbfbf" points="1384.5,-492.5 1384.5,-511.5 1453.5,-511.5 1453.5,-492.5 1384.5,-492.5"/>
<text text-anchor="middle" x="1419" y="-499.5" font-family="Helvetica,sans-Serif" font-size="10.00">Application</text>
</g>
<!-- Node2&#45;&gt;Node1 -->
<g id="edge1" class="edge"><title>Node2&#45;&gt;Node1</title>
<path fill="none" stroke="midnightblue" d="M1463.39,-494.604C1485.79,-490.518 1513.49,-485.05 1538,-479 1544.51,-477.393 1551.44,-475.462 1557.99,-473.528"/>
<polygon fill="midnightblue" stroke="midnightblue" points="1462.73,-491.167 1453.51,-496.38 1463.97,-498.056 1462.73,-491.167"/>
</g>
<!-- Node3 -->
<g id="node3" class="node"><title>Node3</title>
<g id="a_node3"><a xlink:href="../../d6/dbd/classview_1_1_slogo_view.html" target="_top" xlink:title="view.SlogoView">
<polygon fill="white" stroke="black" points="1375,-454.5 1375,-473.5 1463,-473.5 1463,-454.5 1375,-454.5"/>
<text text-anchor="middle" x="1419" y="-461.5" font-family="Helvetica,sans-Serif" font-size="10.00">view.SlogoView</text>
</a>
</g>
</g>
<!-- Node3&#45;&gt;Node1 -->
<g id="edge2" class="edge"><title>Node3&#45;&gt;Node1</title>
<path fill="none" stroke="#9a32cd" stroke-dasharray="5,2" d="M1473.37,-464C1500.46,-464 1532.46,-464 1555.76,-464"/>
<polygon fill="#9a32cd" stroke="#9a32cd" points="1473.26,-460.5 1463.26,-464 1473.26,-467.5 1473.26,-460.5"/>
<text text-anchor="middle" x="1514" y="-467" font-family="Helvetica,sans-Serif" font-size="10.00"> myView</text>
</g>
<!-- Node4 -->
<g id="node4" class="node"><title>Node4</title>
<polygon fill="white" stroke="#bfbfbf" points="1216.5,-511.5 1216.5,-530.5 1263.5,-530.5 1263.5,-511.5 1216.5,-511.5"/>
<text text-anchor="middle" x="1240" y="-518.5" font-family="Helvetica,sans-Serif" font-size="10.00">Scene</text>
</g>
<!-- Node4&#45;&gt;Node3 -->
<g id="edge3" class="edge"><title>Node4&#45;&gt;Node3</title>
<path fill="none" stroke="#9a32cd" stroke-dasharray="5,2" d="M1273.73,-513.136C1295.11,-507.679 1323.51,-499.823 1348,-491 1356.24,-488.033 1357.88,-486.282 1366,-483 1374.02,-479.757 1382.83,-476.446 1390.88,-473.516"/>
<polygon fill="#9a32cd" stroke="#9a32cd" points="1272.69,-509.788 1263.84,-515.616 1274.4,-516.578 1272.69,-509.788"/>
<text text-anchor="middle" x="1323" y="-509" font-family="Helvetica,sans-Serif" font-size="10.00"> myScene</text>
</g>
<!-- Node5 -->
<g id="node5" class="node"><title>Node5</title>
<polygon fill="white" stroke="#bfbfbf" points="1212,-473.5 1212,-492.5 1268,-492.5 1268,-473.5 1212,-473.5"/>
<text text-anchor="middle" x="1240" y="-480.5" font-family="Helvetica,sans-Serif" font-size="10.00">TabPane</text>
</g>
<!-- Node5&#45;&gt;Node3 -->
<g id="edge4" class="edge"><title>Node5&#45;&gt;Node3</title>
<path fill="none" stroke="#9a32cd" stroke-dasharray="5,2" d="M1278.52,-478.973C1306.71,-475.946 1345.38,-471.796 1374.85,-468.632"/>
<polygon fill="#9a32cd" stroke="#9a32cd" points="1277.84,-475.525 1268.27,-480.073 1278.58,-482.485 1277.84,-475.525"/>
<text text-anchor="middle" x="1323" y="-479" font-family="Helvetica,sans-Serif" font-size="10.00"> myTabs</text>
</g>
<!-- Node6 -->
<g id="node6" class="node"><title>Node6</title>
<polygon fill="white" stroke="#bfbfbf" points="1204,-435.5 1204,-454.5 1276,-454.5 1276,-435.5 1204,-435.5"/>
<text text-anchor="middle" x="1240" y="-442.5" font-family="Helvetica,sans-Serif" font-size="10.00">BorderPane</text>
</g>
<!-- Node6&#45;&gt;Node3 -->
<g id="edge5" class="edge"><title>Node6&#45;&gt;Node3</title>
<path fill="none" stroke="#9a32cd" stroke-dasharray="5,2" d="M1286.39,-449.551C1305.43,-451.49 1327.79,-453.807 1348,-456 1356.63,-456.937 1365.86,-457.97 1374.69,-458.973"/>
<polygon fill="#9a32cd" stroke="#9a32cd" points="1286.49,-446.044 1276.19,-448.516 1285.79,-453.008 1286.49,-446.044"/>
<text text-anchor="middle" x="1323" y="-459" font-family="Helvetica,sans-Serif" font-size="10.00"> myRoot</text>
</g>
<!-- Node7 -->
<g id="node7" class="node"><title>Node7</title>
<g id="a_node7"><a xlink:href="../../d3/d88/classmodel_1_1_slogo_model.html" target="_top" xlink:title="model.SlogoModel">
<polygon fill="white" stroke="black" points="1366.5,-357.5 1366.5,-376.5 1471.5,-376.5 1471.5,-357.5 1366.5,-357.5"/>
<text text-anchor="middle" x="1419" y="-364.5" font-family="Helvetica,sans-Serif" font-size="10.00">model.SlogoModel</text>
</a>
</g>
</g>
<!-- Node7&#45;&gt;Node1 -->
<g id="edge6" class="edge"><title>Node7&#45;&gt;Node1</title>
<path fill="none" stroke="#9a32cd" stroke-dasharray="5,2" d="M1445.82,-381.908C1480.72,-402.059 1541.96,-437.417 1571.34,-454.384"/>
<polygon fill="#9a32cd" stroke="#9a32cd" points="1447.13,-378.625 1436.72,-376.655 1443.63,-384.687 1447.13,-378.625"/>
<text text-anchor="middle" x="1514" y="-435" font-family="Helvetica,sans-Serif" font-size="10.00"> myModel</text>
</g>
<!-- Node8 -->
<g id="node8" class="node"><title>Node8</title>
<polygon fill="white" stroke="#bfbfbf" points="1204.5,-357.5 1204.5,-376.5 1275.5,-376.5 1275.5,-357.5 1204.5,-357.5"/>
<text text-anchor="middle" x="1240" y="-364.5" font-family="Helvetica,sans-Serif" font-size="10.00">Observable</text>
</g>
<!-- Node8&#45;&gt;Node7 -->
<g id="edge7" class="edge"><title>Node8&#45;&gt;Node7</title>
<path fill="none" stroke="midnightblue" d="M1285.68,-367C1310.25,-367 1340.85,-367 1366.43,-367"/>
<polygon fill="midnightblue" stroke="midnightblue" points="1285.55,-363.5 1275.55,-367 1285.55,-370.5 1285.55,-363.5"/>
</g>
<!-- Node9 -->
<g id="node9" class="node"><title>Node9</title>
<polygon fill="white" stroke="#bfbfbf" points="508.5,-369.5 508.5,-388.5 555.5,-388.5 555.5,-369.5 508.5,-369.5"/>
<text text-anchor="middle" x="532" y="-376.5" font-family="Helvetica,sans-Serif" font-size="10.00">Locale</text>
</g>
<!-- Node9&#45;&gt;Node7 -->
<g id="edge8" class="edge"><title>Node9&#45;&gt;Node7</title>
<path fill="none" stroke="#9a32cd" stroke-dasharray="5,2" d="M565.731,-385.261C611.799,-393.515 698.472,-407 773,-407 773,-407 773,-407 1241,-407 1295.97,-407 1358.24,-388.415 1392.32,-376.581"/>
<polygon fill="#9a32cd" stroke="#9a32cd" points="566.196,-381.788 555.73,-383.437 564.939,-388.675 566.196,-381.788"/>
<text text-anchor="middle" x="1041" y="-410" font-family="Helvetica,sans-Serif" font-size="10.00"> myLocale</text>
</g>
<!-- Node14 -->
<g id="node14" class="node"><title>Node14</title>
<g id="a_node14"><a xlink:href="../../d8/d36/classmodel_1_1_observable_data.html" target="_top" xlink:title="model.ObservableData">
<polygon fill="white" stroke="black" points="710.5,-306.5 710.5,-325.5 837.5,-325.5 837.5,-306.5 710.5,-306.5"/>
<text text-anchor="middle" x="774" y="-313.5" font-family="Helvetica,sans-Serif" font-size="10.00">model.ObservableData</text>
</a>
</g>
</g>
<!-- Node9&#45;&gt;Node14 -->
<g id="edge33" class="edge"><title>Node9&#45;&gt;Node14</title>
<path fill="none" stroke="#9a32cd" stroke-dasharray="5,2" d="M565.632,-374.101C580.751,-371.144 598.711,-366.631 614,-360 622.821,-356.174 623.165,-351.794 632,-348 656.68,-337.403 685.361,-330.074 710.388,-325.132"/>
<polygon fill="#9a32cd" stroke="#9a32cd" points="564.901,-370.677 555.687,-375.907 566.152,-377.564 564.901,-370.677"/>
<text text-anchor="middle" x="662" y="-351" font-family="Helvetica,sans-Serif" font-size="10.00"> myLocale</text>
</g>
<!-- Node10 -->
<g id="node10" class="node"><title>Node10</title>
<g id="a_node10"><a xlink:href="../../d6/d95/classparser_1_1_parser.html" target="_top" xlink:title="parser.Parser">
<polygon fill="white" stroke="black" points="1200,-97.5 1200,-116.5 1280,-116.5 1280,-97.5 1200,-97.5"/>
<text text-anchor="middle" x="1240" y="-104.5" font-family="Helvetica,sans-Serif" font-size="10.00">parser.Parser</text>
</a>
</g>
</g>
<!-- Node10&#45;&gt;Node7 -->
<g id="edge9" class="edge"><title>Node10&#45;&gt;Node7</title>
<path fill="none" stroke="#9a32cd" stroke-dasharray="5,2" d="M1253.19,-124.899C1287.68,-175.568 1385.2,-318.813 1411.43,-357.351"/>
<polygon fill="#9a32cd" stroke="#9a32cd" points="1256.03,-122.859 1247.51,-116.562 1250.24,-126.798 1256.03,-122.859"/>
<text text-anchor="middle" x="1323" y="-263" font-family="Helvetica,sans-Serif" font-size="10.00"> myParser</text>
</g>
<!-- Node11 -->
<g id="node11" class="node"><title>Node11</title>
<polygon fill="white" stroke="#bfbfbf" points="4.5,-67.5 4.5,-86.5 75.5,-86.5 75.5,-67.5 4.5,-67.5"/>
<text text-anchor="middle" x="40" y="-74.5" font-family="Helvetica,sans-Serif" font-size="10.00">Serializable</text>
</g>
<!-- Node11&#45;&gt;Node10 -->
<g id="edge10" class="edge"><title>Node11&#45;&gt;Node10</title>
<path fill="none" stroke="midnightblue" d="M86.0914,-85.5672C219.129,-109.794 621.63,-175.555 956,-152 1057.2,-144.871 1082.24,-138.406 1182,-120 1187.79,-118.932 1193.88,-117.68 1199.84,-116.384"/>
<polygon fill="midnightblue" stroke="midnightblue" points="86.3502,-82.0563 75.8825,-83.6929 85.0861,-88.9412 86.3502,-82.0563"/>
</g>
<!-- Node13 -->
<g id="node13" class="node"><title>Node13</title>
<g id="a_node13"><a xlink:href="../../d3/d96/classparser_1_1_instruction_factory.html" target="_top" xlink:title="parser.InstructionFactory">
<polygon fill="white" stroke="black" points="974,-51.5 974,-70.5 1108,-70.5 1108,-51.5 974,-51.5"/>
<text text-anchor="middle" x="1041" y="-58.5" font-family="Helvetica,sans-Serif" font-size="10.00">parser.InstructionFactory</text>
</a>
</g>
</g>
<!-- Node11&#45;&gt;Node13 -->
<g id="edge13" class="edge"><title>Node11&#45;&gt;Node13</title>
<path fill="none" stroke="midnightblue" d="M85.653,-67.1277C127.604,-58.7226 192.244,-48 249,-48 249,-48 249,-48 775,-48 842.827,-48 920.301,-52.301 973.885,-55.9553"/>
<polygon fill="midnightblue" stroke="midnightblue" points="84.8518,-63.719 75.7561,-69.1522 86.2547,-70.577 84.8518,-63.719"/>
</g>
<!-- Node16 -->
<g id="node16" class="node"><title>Node16</title>
<g id="a_node16"><a xlink:href="../../d1/d69/interfacemodel_1_1_feature.html" target="_top" xlink:title="model.Feature">
<polygon fill="white" stroke="black" points="207,-211.5 207,-230.5 293,-230.5 293,-211.5 207,-211.5"/>
<text text-anchor="middle" x="250" y="-218.5" font-family="Helvetica,sans-Serif" font-size="10.00">model.Feature</text>
</a>
</g>
</g>
<!-- Node11&#45;&gt;Node16 -->
<g id="edge18" class="edge"><title>Node11&#45;&gt;Node16</title>
<path fill="none" stroke="midnightblue" d="M55.6836,-94.6647C79.161,-121.77 127.845,-173.469 180,-202 188.284,-206.532 197.731,-210.047 206.92,-212.751"/>
<polygon fill="midnightblue" stroke="midnightblue" points="58.1235,-92.1316 48.9743,-86.7891 52.7949,-96.6711 58.1235,-92.1316"/>
</g>
<!-- Node31 -->
<g id="node31" class="node"><title>Node31</title>
<g id="a_node31"><a xlink:href="../../de/d6b/classparser_1_1_tokenizer.html" target="_top" xlink:title="parser.Tokenizer">
<polygon fill="white" stroke="black" points="338,-0.5 338,-19.5 432,-19.5 432,-0.5 338,-0.5"/>
<text text-anchor="middle" x="385" y="-7.5" font-family="Helvetica,sans-Serif" font-size="10.00">parser.Tokenizer</text>
</a>
</g>
</g>
<!-- Node11&#45;&gt;Node31 -->
<g id="edge36" class="edge"><title>Node11&#45;&gt;Node31</title>
<path fill="none" stroke="midnightblue" d="M58.0377,-60.055C68.6155,-50.6506 83.0157,-39.726 98,-34 178.173,-3.36304 279.938,-3.08883 337.941,-6.18837"/>
<polygon fill="midnightblue" stroke="midnightblue" points="55.3631,-57.7634 50.4359,-67.1428 60.1368,-62.8832 55.3631,-57.7634"/>
</g>
<!-- Node12 -->
<g id="node12" class="node"><title>Node12</title>
<polygon fill="white" stroke="#bfbfbf" points="727.5,-87.5 727.5,-106.5 820.5,-106.5 820.5,-87.5 727.5,-87.5"/>
<text text-anchor="middle" x="774" y="-94.5" font-family="Helvetica,sans-Serif" font-size="10.00">ResourceBundle</text>
</g>
<!-- Node12&#45;&gt;Node10 -->
<g id="edge11" class="edge"><title>Node12&#45;&gt;Node10</title>
<path fill="none" stroke="#9a32cd" stroke-dasharray="5,2" d="M830.773,-98.202C925.974,-100.254 1117.52,-104.382 1199.89,-106.157"/>
<polygon fill="#9a32cd" stroke="#9a32cd" points="830.833,-94.7026 820.76,-97.9862 830.682,-101.701 830.833,-94.7026"/>
<text text-anchor="middle" x="1041" y="-108" font-family="Helvetica,sans-Serif" font-size="10.00"> myLanguageBundle</text>
</g>
<!-- Node12&#45;&gt;Node13 -->
<g id="edge14" class="edge"><title>Node12&#45;&gt;Node13</title>
<path fill="none" stroke="#9a32cd" stroke-dasharray="5,2" d="M830.592,-86.1785C839.087,-84.6777 847.765,-83.2309 856,-82 894.953,-76.1775 938.759,-71.1188 973.853,-67.4262"/>
<polygon fill="#9a32cd" stroke="#9a32cd" points="829.962,-82.7356 820.743,-87.9556 831.205,-89.6244 829.962,-82.7356"/>
<text text-anchor="middle" x="906" y="-85" font-family="Helvetica,sans-Serif" font-size="10.00"> myLanguageBundle</text>
</g>
<!-- Node13&#45;&gt;Node10 -->
<g id="edge12" class="edge"><title>Node13&#45;&gt;Node10</title>
<path fill="none" stroke="#9a32cd" stroke-dasharray="5,2" d="M1118.4,-68.7319C1139.26,-71.8485 1161.71,-76.1405 1182,-82 1195.29,-85.8372 1209.54,-92.0872 1220.47,-97.3779"/>
<polygon fill="#9a32cd" stroke="#9a32cd" points="1118.69,-65.2385 1108.3,-67.2946 1117.7,-72.1687 1118.69,-65.2385"/>
<text text-anchor="middle" x="1154" y="-85" font-family="Helvetica,sans-Serif" font-size="10.00"> myIFactory</text>
</g>
<!-- Node14&#45;&gt;Node7 -->
<g id="edge37" class="edge"><title>Node14&#45;&gt;Node7</title>
<path fill="none" stroke="#9a32cd" stroke-dasharray="5,2" d="M847.83,-318.932C946.108,-323.272 1126.56,-332.597 1280,-348 1308.64,-350.875 1340.47,-355.182 1366.34,-358.969"/>
<polygon fill="#9a32cd" stroke="#9a32cd" points="847.853,-315.429 837.71,-318.489 847.547,-322.423 847.853,-315.429"/>
<text text-anchor="middle" x="1154" y="-341" font-family="Helvetica,sans-Serif" font-size="10.00"> myData</text>
</g>
<!-- Node14&#45;&gt;Node13 -->
<g id="edge15" class="edge"><title>Node14&#45;&gt;Node13</title>
<path fill="none" stroke="#9a32cd" stroke-dasharray="5,2" d="M786.185,-297.445C813.163,-254.175 886.119,-145.67 974,-85 982.83,-78.9044 993.388,-74.1636 1003.44,-70.5664"/>
<polygon fill="#9a32cd" stroke="#9a32cd" points="783.124,-295.742 780.867,-306.094 789.086,-299.409 783.124,-295.742"/>
<text text-anchor="middle" x="906" y="-197" font-family="Helvetica,sans-Serif" font-size="10.00"> myData</text>
</g>
<!-- Node15 -->
<g id="node15" class="node"><title>Node15</title>
<g id="a_node15"><a xlink:href="../../df/db7/classmodel_1_1_turtles_list.html" target="_top" xlink:title="model.TurtlesList">
<polygon fill="white" stroke="black" points="483.5,-205.5 483.5,-224.5 580.5,-224.5 580.5,-205.5 483.5,-205.5"/>
<text text-anchor="middle" x="532" y="-212.5" font-family="Helvetica,sans-Serif" font-size="10.00">model.TurtlesList</text>
</a>
</g>
</g>
<!-- Node15&#45;&gt;Node14 -->
<g id="edge16" class="edge"><title>Node15&#45;&gt;Node14</title>
<path fill="none" stroke="#9a32cd" stroke-dasharray="5,2" d="M564.8,-228.382C613.99,-249.083 707.333,-288.365 750.307,-306.45"/>
<polygon fill="#9a32cd" stroke="#9a32cd" points="566.153,-225.155 555.579,-224.502 563.438,-231.607 566.153,-225.155"/>
<text text-anchor="middle" x="662" y="-283" font-family="Helvetica,sans-Serif" font-size="10.00"> myTurtles</text>
</g>
<!-- Node16&#45;&gt;Node15 -->
<g id="edge17" class="edge"><title>Node16&#45;&gt;Node15</title>
<path fill="none" stroke="midnightblue" d="M303.502,-219.875C355.154,-218.768 433.329,-217.093 483.268,-216.023"/>
<polygon fill="midnightblue" stroke="midnightblue" points="303.145,-216.382 293.222,-220.095 303.295,-223.38 303.145,-216.382"/>
</g>
<!-- Node20 -->
<g id="node20" class="node"><title>Node20</title>
<g id="a_node20"><a xlink:href="../../d6/d34/classmodel_1_1_turtle.html" target="_top" xlink:title="model.Turtle">
<polygon fill="white" stroke="black" points="494.5,-331.5 494.5,-350.5 569.5,-350.5 569.5,-331.5 494.5,-331.5"/>
<text text-anchor="middle" x="532" y="-338.5" font-family="Helvetica,sans-Serif" font-size="10.00">model.Turtle</text>
</a>
</g>
</g>
<!-- Node16&#45;&gt;Node20 -->
<g id="edge24" class="edge"><title>Node16&#45;&gt;Node20</title>
<path fill="none" stroke="midnightblue" d="M303.257,-232.075C309.103,-234.271 314.813,-236.887 320,-240 329.974,-245.986 328.446,-252.364 338,-259 352.689,-269.203 458.539,-312.055 506.949,-331.424"/>
<polygon fill="midnightblue" stroke="midnightblue" points="303.952,-228.617 293.358,-228.763 301.731,-235.255 303.952,-228.617"/>
</g>
<!-- Node17 -->
<g id="node17" class="node"><title>Node17</title>
<polygon fill="white" stroke="#bfbfbf" points="193,-135.5 193,-154.5 307,-154.5 307,-135.5 193,-135.5"/>
<text text-anchor="middle" x="250" y="-142.5" font-family="Helvetica,sans-Serif" font-size="10.00">List&lt; model.Turtle &gt;</text>
</g>
<!-- Node17&#45;&gt;Node15 -->
<g id="edge19" class="edge"><title>Node17&#45;&gt;Node15</title>
<path fill="none" stroke="#9a32cd" stroke-dasharray="5,2" d="M317.058,-153.571C351.649,-158.837 394.499,-166.591 432,-177 459.496,-184.632 489.989,-196.952 509.77,-205.486"/>
<polygon fill="#9a32cd" stroke="#9a32cd" points="317.475,-150.095 307.068,-152.084 316.444,-157.018 317.475,-150.095"/>
<text text-anchor="middle" x="385" y="-180" font-family="Helvetica,sans-Serif" font-size="10.00"> allTurtles</text>
</g>
<!-- Node18 -->
<g id="node18" class="node"><title>Node18</title>
<polygon fill="white" stroke="#bfbfbf" points="180.5,-249.5 180.5,-268.5 319.5,-268.5 319.5,-249.5 180.5,-249.5"/>
<text text-anchor="middle" x="250" y="-256.5" font-family="Helvetica,sans-Serif" font-size="10.00">Stack&lt; List&lt; Integer &gt; &gt;</text>
</g>
<!-- Node18&#45;&gt;Node15 -->
<g id="edge20" class="edge"><title>Node18&#45;&gt;Node15</title>
<path fill="none" stroke="#9a32cd" stroke-dasharray="5,2" d="M321.645,-247.899C372.222,-239.951 438.959,-229.464 483.343,-222.489"/>
<polygon fill="#9a32cd" stroke="#9a32cd" points="321.091,-244.443 311.756,-249.453 322.178,-251.358 321.091,-244.443"/>
<text text-anchor="middle" x="385" y="-247" font-family="Helvetica,sans-Serif" font-size="10.00"> turtleScope</text>
</g>
<!-- Node19 -->
<g id="node19" class="node"><title>Node19</title>
<polygon fill="white" stroke="#bfbfbf" points="205.5,-173.5 205.5,-192.5 294.5,-192.5 294.5,-173.5 205.5,-173.5"/>
<text text-anchor="middle" x="250" y="-180.5" font-family="Helvetica,sans-Serif" font-size="10.00">List&lt; Integer &gt;</text>
</g>
<!-- Node19&#45;&gt;Node15 -->
<g id="edge21" class="edge"><title>Node19&#45;&gt;Node15</title>
<path fill="none" stroke="#9a32cd" stroke-dasharray="5,2" d="M304.842,-188.282C340.861,-191.907 389.304,-196.957 432,-202 448.785,-203.983 467.145,-206.341 483.445,-208.501"/>
<polygon fill="#9a32cd" stroke="#9a32cd" points="304.856,-184.766 294.557,-187.252 304.158,-191.731 304.856,-184.766"/>
<text text-anchor="middle" x="385" y="-205" font-family="Helvetica,sans-Serif" font-size="10.00"> activeIDs</text>
</g>
<!-- Node20&#45;&gt;Node14 -->
<g id="edge22" class="edge"><title>Node20&#45;&gt;Node14</title>
<path fill="none" stroke="#9a32cd" stroke-dasharray="5,2" d="M570.067,-328.372C588.454,-322.757 611.142,-316.793 632,-314 658.431,-310.46 665.335,-313.671 692,-314 697.908,-314.073 704.057,-314.176 710.21,-314.297"/>
<polygon fill="#9a32cd" stroke="#9a32cd" points="568.822,-325.094 560.332,-331.432 570.922,-331.771 568.822,-325.094"/>
<text text-anchor="middle" x="662" y="-317" font-family="Helvetica,sans-Serif" font-size="10.00"> myTurtle</text>
</g>
<!-- Node21 -->
<g id="node21" class="node"><title>Node21</title>
<g id="a_node21"><a xlink:href="../../d5/dad/classmodel_1_1_turtle_abstract.html" target="_top" xlink:title="model.TurtleAbstract">
<polygon fill="white" stroke="black" points="192,-363.5 192,-382.5 308,-382.5 308,-363.5 192,-363.5"/>
<text text-anchor="middle" x="250" y="-370.5" font-family="Helvetica,sans-Serif" font-size="10.00">model.TurtleAbstract</text>
</a>
</g>
</g>
<!-- Node21&#45;&gt;Node20 -->
<g id="edge23" class="edge"><title>Node21&#45;&gt;Node20</title>
<path fill="none" stroke="midnightblue" d="M318.386,-365.725C352.452,-362.004 394.432,-357.352 432,-353 452.638,-350.609 475.681,-347.823 494.339,-345.537"/>
<polygon fill="midnightblue" stroke="midnightblue" points="317.643,-362.285 308.081,-366.849 318.402,-369.244 317.643,-362.285"/>
</g>
<!-- Node22 -->
<g id="node22" class="node"><title>Node22</title>
<polygon fill="white" stroke="#bfbfbf" points="226.5,-325.5 226.5,-344.5 273.5,-344.5 273.5,-325.5 226.5,-325.5"/>
<text text-anchor="middle" x="250" y="-332.5" font-family="Helvetica,sans-Serif" font-size="10.00">Tooltip</text>
</g>
<!-- Node22&#45;&gt;Node20 -->
<g id="edge25" class="edge"><title>Node22&#45;&gt;Node20</title>
<path fill="none" stroke="#9a32cd" stroke-dasharray="5,2" d="M284.058,-335.708C336.738,-336.837 439.37,-339.037 494.271,-340.213"/>
<polygon fill="#9a32cd" stroke="#9a32cd" points="283.986,-332.206 273.914,-335.491 283.836,-339.205 283.986,-332.206"/>
<text text-anchor="middle" x="385" y="-341" font-family="Helvetica,sans-Serif" font-size="10.00"> myTurtleInfo</text>
</g>
<!-- Node23 -->
<g id="node23" class="node"><title>Node23</title>
<polygon fill="white" stroke="#bfbfbf" points="216,-533.5 216,-552.5 284,-552.5 284,-533.5 216,-533.5"/>
<text text-anchor="middle" x="250" y="-540.5" font-family="Helvetica,sans-Serif" font-size="10.00">ImageView</text>
</g>
<!-- Node23&#45;&gt;Node20 -->
<g id="edge26" class="edge"><title>Node23&#45;&gt;Node20</title>
<path fill="none" stroke="#9a32cd" stroke-dasharray="5,2" d="M294.353,-551.364C335.674,-556.587 396.679,-556.662 432,-521 482.667,-469.843 402.207,-413.852 450,-360 461.026,-347.576 478.491,-342.48 494.386,-340.636"/>
<polygon fill="#9a32cd" stroke="#9a32cd" points="294.69,-547.877 284.299,-549.943 293.711,-554.808 294.69,-547.877"/>
<text text-anchor="middle" x="385" y="-556" font-family="Helvetica,sans-Serif" font-size="10.00"> myImage</text>
</g>
<!-- Node24 -->
<g id="node24" class="node"><title>Node24</title>
<g id="a_node24"><a xlink:href="../../de/ded/classmodel_1_1_pen.html" target="_top" xlink:title="model.Pen">
<polygon fill="white" stroke="black" points="216,-287.5 216,-306.5 284,-306.5 284,-287.5 216,-287.5"/>
<text text-anchor="middle" x="250" y="-294.5" font-family="Helvetica,sans-Serif" font-size="10.00">model.Pen</text>
</a>
</g>
</g>
<!-- Node24&#45;&gt;Node20 -->
<g id="edge27" class="edge"><title>Node24&#45;&gt;Node20</title>
<path fill="none" stroke="#9a32cd" stroke-dasharray="5,2" d="M294.482,-301.93C331.223,-306.296 385.19,-313.177 432,-321 452.754,-324.468 475.804,-329.08 494.437,-333"/>
<polygon fill="#9a32cd" stroke="#9a32cd" points="294.469,-298.405 284.128,-300.712 293.651,-305.357 294.469,-298.405"/>
<text text-anchor="middle" x="385" y="-324" font-family="Helvetica,sans-Serif" font-size="10.00"> myPen</text>
</g>
<!-- Node25 -->
<g id="node25" class="node"><title>Node25</title>
<polygon fill="white" stroke="#bfbfbf" points="0,-306.5 0,-325.5 80,-325.5 80,-306.5 0,-306.5"/>
<text text-anchor="middle" x="40" y="-313.5" font-family="Helvetica,sans-Serif" font-size="10.00">List&lt; Color &gt;</text>
</g>
<!-- Node25&#45;&gt;Node24 -->
<g id="edge28" class="edge"><title>Node25&#45;&gt;Node24</title>
<path fill="none" stroke="#9a32cd" stroke-dasharray="5,2" d="M90.1563,-311.51C128.944,-307.967 181.989,-303.121 215.878,-300.026"/>
<polygon fill="#9a32cd" stroke="#9a32cd" points="89.7633,-308.031 80.1232,-312.426 90.4002,-315.002 89.7633,-308.031"/>
<text text-anchor="middle" x="130" y="-313" font-family="Helvetica,sans-Serif" font-size="10.00"> myCustom</text>
</g>
<!-- Node26 -->
<g id="node26" class="node"><title>Node26</title>
<polygon fill="white" stroke="#bfbfbf" points="19.5,-268.5 19.5,-287.5 60.5,-287.5 60.5,-268.5 19.5,-268.5"/>
<text text-anchor="middle" x="40" y="-275.5" font-family="Helvetica,sans-Serif" font-size="10.00">Color</text>
</g>
<!-- Node26&#45;&gt;Node24 -->
<g id="edge29" class="edge"><title>Node26&#45;&gt;Node24</title>
<path fill="none" stroke="#9a32cd" stroke-dasharray="5,2" d="M70.5888,-280.703C108.944,-284.206 175.648,-290.3 215.725,-293.96"/>
<polygon fill="#9a32cd" stroke="#9a32cd" points="70.8451,-277.212 60.5681,-279.787 70.2083,-284.183 70.8451,-277.212"/>
<text text-anchor="middle" x="130" y="-291" font-family="Helvetica,sans-Serif" font-size="10.00"> myLineColor</text>
</g>
<!-- Node27 -->
<g id="node27" class="node"><title>Node27</title>
<polygon fill="white" stroke="#bfbfbf" points="226.5,-488.5 226.5,-507.5 273.5,-507.5 273.5,-488.5 226.5,-488.5"/>
<text text-anchor="middle" x="250" y="-495.5" font-family="Helvetica,sans-Serif" font-size="10.00">Image</text>
</g>
<!-- Node27&#45;&gt;Node20 -->
<g id="edge30" class="edge"><title>Node27&#45;&gt;Node20</title>
<path fill="none" stroke="#9a32cd" stroke-dasharray="5,2" d="M283.987,-498.572C330.377,-498.638 411.528,-495.808 432,-476 469.495,-439.722 414.545,-398.275 450,-360 461.19,-347.92 478.476,-342.831 494.211,-340.902"/>
<polygon fill="#9a32cd" stroke="#9a32cd" points="283.845,-495.071 273.824,-498.511 283.803,-502.071 283.845,-495.071"/>
<text text-anchor="middle" x="385" y="-511" font-family="Helvetica,sans-Serif" font-size="10.00"> myDefaultOn</text>
<text text-anchor="middle" x="385" y="-500" font-family="Helvetica,sans-Serif" font-size="10.00">myDefaultOff</text>
</g>
<!-- Node28 -->
<g id="node28" class="node"><title>Node28</title>
<polygon fill="white" stroke="#bfbfbf" points="227,-439.5 227,-458.5 273,-458.5 273,-439.5 227,-439.5"/>
<text text-anchor="middle" x="250" y="-446.5" font-family="Helvetica,sans-Serif" font-size="10.00">Group</text>
</g>
<!-- Node28&#45;&gt;Node20 -->
<g id="edge31" class="edge"><title>Node28&#45;&gt;Node20</title>
<path fill="none" stroke="#9a32cd" stroke-dasharray="5,2" d="M283.313,-446.424C329.245,-442.135 410.265,-432.057 432,-413 450.705,-396.599 431.577,-376.717 450,-360 461.98,-349.129 478.982,-344.133 494.318,-341.953"/>
<polygon fill="#9a32cd" stroke="#9a32cd" points="282.911,-442.945 273.263,-447.322 283.535,-449.918 282.911,-442.945"/>
<text text-anchor="middle" x="385" y="-464" font-family="Helvetica,sans-Serif" font-size="10.00"> myLines</text>
<text text-anchor="middle" x="385" y="-453" font-family="Helvetica,sans-Serif" font-size="10.00">myStamps</text>
<text text-anchor="middle" x="385" y="-442" font-family="Helvetica,sans-Serif" font-size="10.00">myDrawing</text>
</g>
<!-- Node29 -->
<g id="node29" class="node"><title>Node29</title>
<polygon fill="white" stroke="#bfbfbf" points="180,-401.5 180,-420.5 320,-420.5 320,-401.5 180,-401.5"/>
<text text-anchor="middle" x="250" y="-408.5" font-family="Helvetica,sans-Serif" font-size="10.00">ObservableList&lt; Image &gt;</text>
</g>
<!-- Node29&#45;&gt;Node20 -->
<g id="edge32" class="edge"><title>Node29&#45;&gt;Node20</title>
<path fill="none" stroke="#9a32cd" stroke-dasharray="5,2" d="M330.212,-400.575C362.611,-394.627 399.938,-385.56 432,-372 440.855,-368.255 441.179,-363.826 450,-360 463.914,-353.966 480.041,-349.685 494.224,-346.735"/>
<polygon fill="#9a32cd" stroke="#9a32cd" points="329.564,-397.135 320.326,-402.322 330.783,-404.028 329.564,-397.135"/>
<text text-anchor="middle" x="385" y="-401" font-family="Helvetica,sans-Serif" font-size="10.00"> myTurtleShapes</text>
</g>
<!-- Node30 -->
<g id="node30" class="node"><title>Node30</title>
<polygon fill="white" stroke="#bfbfbf" points="450.5,-407.5 450.5,-426.5 613.5,-426.5 613.5,-407.5 450.5,-407.5"/>
<text text-anchor="middle" x="532" y="-414.5" font-family="Helvetica,sans-Serif" font-size="10.00">Map&lt; String, model.Feature &gt;</text>
</g>
<!-- Node30&#45;&gt;Node14 -->
<g id="edge34" class="edge"><title>Node30&#45;&gt;Node14</title>
<path fill="none" stroke="#9a32cd" stroke-dasharray="5,2" d="M591.811,-404.917C599.358,-402.868 606.917,-400.562 614,-398 669.494,-377.93 730.198,-342.482 757.81,-325.539"/>
<polygon fill="#9a32cd" stroke="#9a32cd" points="590.749,-401.577 581.939,-407.462 592.496,-408.355 590.749,-401.577"/>
<text text-anchor="middle" x="662" y="-394" font-family="Helvetica,sans-Serif" font-size="10.00"> myFeatures</text>
</g>
<!-- Node31&#45;&gt;Node10 -->
<g id="edge35" class="edge"><title>Node31&#45;&gt;Node10</title>
<path fill="none" stroke="#9a32cd" stroke-dasharray="5,2" d="M442.567,-9.67421C498.164,-9.38236 585.423,-9 661,-9 661,-9 661,-9 1042,-9 1120.69,-9 1200.3,-72.4572 1228.4,-97.2451"/>
<polygon fill="#9a32cd" stroke="#9a32cd" points="442.205,-6.176 432.224,-9.72939 442.243,-13.1759 442.205,-6.176"/>
<text text-anchor="middle" x="774" y="-12" font-family="Helvetica,sans-Serif" font-size="10.00"> myTokenizer</text>
</g>
</g>
</svg>
        <g id="navigator" transform="translate(0 0)" fill="#404254">
                <rect fill="#f2f5e9" fill-opacity="0.5" stroke="#606060" stroke-width=".5" x="0" y="0" width="60" height="60"/>
                <use id="zoomplus" xlink:href="#zoomPlus" x="17" y="9" onmousedown="handleZoom(evt,'in')"/>
                <use id="zoomminus" xlink:href="#zoomMin" x="42" y="9" onmousedown="handleZoom(evt,'out')"/>
                <use id="reset" xlink:href="#resetDef" x="30" y="36" onmousedown="handleReset()"/>
                <g id="arrowUp" xlink:href="#dirArrow" transform="translate(30 24)" onmousedown="handlePan(0,-1)">
                  <use xlink:href="#rim" fill="#404040">
                        <set attributeName="fill" to="#808080" begin="arrowUp.mouseover" end="arrowUp.mouseout"/>
                  </use>
                  <path fill="none" stroke="white" stroke-width="1.5" d="M0,-3.0v7 M-2.5,-0.5L0,-3.0L2.5,-0.5"/>
                </g>
                <g id="arrowRight" xlink:href="#dirArrow" transform="rotate(90) translate(36 -43)" onmousedown="handlePan(1,0)">
                  <use xlink:href="#rim" fill="#404040">
                        <set attributeName="fill" to="#808080" begin="arrowRight.mouseover" end="arrowRight.mouseout"/>
                  </use>
                  <path fill="none" stroke="white" stroke-width="1.5" d="M0,-3.0v7 M-2.5,-0.5L0,-3.0L2.5,-0.5"/>
                </g>
                <g id="arrowDown" xlink:href="#dirArrow" transform="rotate(180) translate(-30 -48)" onmousedown="handlePan(0,1)">
                  <use xlink:href="#rim" fill="#404040">
                        <set attributeName="fill" to="#808080" begin="arrowDown.mouseover" end="arrowDown.mouseout"/>
                  </use>
                  <path fill="none" stroke="white" stroke-width="1.5" d="M0,-3.0v7 M-2.5,-0.5L0,-3.0L2.5,-0.5"/>
                </g>
                <g id="arrowLeft" xlink:href="#dirArrow" transform="rotate(270) translate(-36 17)" onmousedown="handlePan(-1,0)">
                  <use xlink:href="#rim" fill="#404040">
                        <set attributeName="fill" to="#808080" begin="arrowLeft.mouseover" end="arrowLeft.mouseout"/>
                  </use>
                  <path fill="none" stroke="white" stroke-width="1.5" d="M0,-3.0v7 M-2.5,-0.5L0,-3.0L2.5,-0.5"/>
                </g>
        </g>
        <svg viewBox="0 0 15 15" width="100%" height="30px" preserveAspectRatio="xMaxYMin meet">
         <g id="arrow_out" transform="scale(0.3 0.3)">
          <a xlink:href="classmain_1_1_main__coll__graph_org.svg" target="_base">
           <rect id="button" ry="5" rx="5" y="6" x="6" height="38" width="38"
                fill="#f2f5e9" fill-opacity="0.5" stroke="#606060" stroke-width="1.0"/>
           <path id="arrow"
             d="M 11.500037,31.436501 C 11.940474,20.09759 22.043105,11.32322 32.158766,21.979434 L 37.068811,17.246167 C 37.068811,17.246167 37.088388,32 37.088388,32 L 22.160133,31.978069 C 22.160133,31.978069 26.997745,27.140456 26.997745,27.140456 C 18.528582,18.264221 13.291696,25.230495 11.500037,31.436501 z"
             style="fill:#404040;"/>
          </a>
         </g>
        </svg>
</svg>
