<?xml version="1.0" encoding="UTF-8" standalone="no"?>
<!DOCTYPE svg PUBLIC "-//W3C//DTD SVG 1.1//EN"
 "http://www.w3.org/Graphics/SVG/1.1/DTD/svg11.dtd">
<!-- Generated by graphviz version 2.36.0 (20140111.2315)
 -->
<!-- Title: instructions.commands.ClearScreen.execute Pages: 1 -->
<svg width="884pt" height="104pt"
 viewBox="0.00 0.00 884.00 104.00" xmlns="http://www.w3.org/2000/svg" xmlns:xlink="http://www.w3.org/1999/xlink">
<g id="graph0" class="graph" transform="scale(1 1) rotate(0) translate(4 100)">
<title>instructions.commands.ClearScreen.execute</title>
<polygon fill="white" stroke="none" points="-4,4 -4,-100 880,-100 880,4 -4,4"/>
<!-- Node1 -->
<g id="node1" class="node"><title>Node1</title>
<polygon fill="#bfbfbf" stroke="black" points="0.5,-33 0.5,-63 157.5,-63 157.5,-33 0.5,-33"/>
<text text-anchor="start" x="8.5" y="-51" font-family="Helvetica,sans-Serif" font-size="10.00">instructions.commands.Clear</text>
<text text-anchor="middle" x="79" y="-40" font-family="Helvetica,sans-Serif" font-size="10.00">Screen.execute</text>
</g>
<!-- Node2 -->
<g id="node2" class="node"><title>Node2</title>
<g id="a_node2"><a xlink:href="../../d6/d34/classmodel_1_1_turtle.html#a2577f617a1e32c900f0841f835c7643a" target="_top" xlink:title="model.Turtle.calculateDistance">
<polygon fill="white" stroke="black" points="194.5,-76.5 194.5,-95.5 357.5,-95.5 357.5,-76.5 194.5,-76.5"/>
<text text-anchor="middle" x="276" y="-83.5" font-family="Helvetica,sans-Serif" font-size="10.00">model.Turtle.calculateDistance</text>
</a>
</g>
</g>
<!-- Node1&#45;&gt;Node2 -->
<g id="edge1" class="edge"><title>Node1&#45;&gt;Node2</title>
<path fill="none" stroke="midnightblue" d="M157.069,-63.0186C176.831,-66.8697 197.766,-70.9493 216.425,-74.5855"/>
<polygon fill="midnightblue" stroke="midnightblue" points="215.76,-78.0216 226.245,-76.4991 217.099,-71.1509 215.76,-78.0216"/>
</g>
<!-- Node3 -->
<g id="node3" class="node"><title>Node3</title>
<g id="a_node3"><a xlink:href="../../d6/d34/classmodel_1_1_turtle.html#aa12e02cec0c9313dbd61f53df171b1bd" target="_top" xlink:title="model.Turtle.clear">
<polygon fill="white" stroke="black" points="225.5,-38.5 225.5,-57.5 326.5,-57.5 326.5,-38.5 225.5,-38.5"/>
<text text-anchor="middle" x="276" y="-45.5" font-family="Helvetica,sans-Serif" font-size="10.00">model.Turtle.clear</text>
</a>
</g>
</g>
<!-- Node1&#45;&gt;Node3 -->
<g id="edge2" class="edge"><title>Node1&#45;&gt;Node3</title>
<path fill="none" stroke="midnightblue" d="M157.629,-48C176.807,-48 197.056,-48 215.236,-48"/>
<polygon fill="midnightblue" stroke="midnightblue" points="215.388,-51.5001 225.388,-48 215.388,-44.5001 215.388,-51.5001"/>
</g>
<!-- Node8 -->
<g id="node8" class="node"><title>Node8</title>
<g id="a_node8"><a xlink:href="../../d6/d34/classmodel_1_1_turtle.html#af4d13fd725022de1c10e3a4d26e4cd05" target="_top" xlink:title="model.Turtle.getCoordinates">
<polygon fill="white" stroke="black" points="200,-0.5 200,-19.5 352,-19.5 352,-0.5 200,-0.5"/>
<text text-anchor="middle" x="276" y="-7.5" font-family="Helvetica,sans-Serif" font-size="10.00">model.Turtle.getCoordinates</text>
</a>
</g>
</g>
<!-- Node1&#45;&gt;Node8 -->
<g id="edge8" class="edge"><title>Node1&#45;&gt;Node8</title>
<path fill="none" stroke="midnightblue" d="M157.069,-32.9814C176.831,-29.1303 197.766,-25.0507 216.425,-21.4145"/>
<polygon fill="midnightblue" stroke="midnightblue" points="217.099,-24.8491 226.245,-19.5009 215.76,-17.9784 217.099,-24.8491"/>
</g>
<!-- Node4 -->
<g id="node4" class="node"><title>Node4</title>
<g id="a_node4"><a xlink:href="../../d6/d34/classmodel_1_1_turtle.html#abf987ba62d49c24804d43b464f9b7410" target="_top" xlink:title="model.Turtle.setCoordinates">
<polygon fill="white" stroke="black" points="394.5,-76.5 394.5,-95.5 545.5,-95.5 545.5,-76.5 394.5,-76.5"/>
<text text-anchor="middle" x="470" y="-83.5" font-family="Helvetica,sans-Serif" font-size="10.00">model.Turtle.setCoordinates</text>
</a>
</g>
</g>
<!-- Node3&#45;&gt;Node4 -->
<g id="edge3" class="edge"><title>Node3&#45;&gt;Node4</title>
<path fill="none" stroke="midnightblue" d="M325.45,-57.589C351.471,-62.739 383.728,-69.1232 411.069,-74.5344"/>
<polygon fill="midnightblue" stroke="midnightblue" points="410.409,-77.9718 420.899,-76.4799 411.769,-71.105 410.409,-77.9718"/>
</g>
<!-- Node5 -->
<g id="node5" class="node"><title>Node5</title>
<g id="a_node5"><a xlink:href="../../d6/d34/classmodel_1_1_turtle.html#a138e6be2a3c83aea4ef698bf9e499bcf" target="_top" xlink:title="model.Turtle.setTurtleInfo">
<polygon fill="white" stroke="black" points="582,-57.5 582,-76.5 718,-76.5 718,-57.5 582,-57.5"/>
<text text-anchor="middle" x="650" y="-64.5" font-family="Helvetica,sans-Serif" font-size="10.00">model.Turtle.setTurtleInfo</text>
</a>
</g>
</g>
<!-- Node3&#45;&gt;Node5 -->
<g id="edge7" class="edge"><title>Node3&#45;&gt;Node5</title>
<path fill="none" stroke="midnightblue" d="M326.784,-50.5427C389.561,-53.7491 498.165,-59.2961 571.756,-63.0548"/>
<polygon fill="midnightblue" stroke="midnightblue" points="571.734,-66.5581 581.899,-63.5728 572.091,-59.5672 571.734,-66.5581"/>
</g>
<!-- Node7 -->
<g id="node7" class="node"><title>Node7</title>
<g id="a_node7"><a xlink:href="../../d6/d34/classmodel_1_1_turtle.html#a561398015768e49764442dfa298f1bd3" target="_top" xlink:title="model.Turtle.setAngle">
<polygon fill="white" stroke="black" points="410,-0.5 410,-19.5 530,-19.5 530,-0.5 410,-0.5"/>
<text text-anchor="middle" x="470" y="-7.5" font-family="Helvetica,sans-Serif" font-size="10.00">model.Turtle.setAngle</text>
</a>
</g>
</g>
<!-- Node3&#45;&gt;Node7 -->
<g id="edge6" class="edge"><title>Node3&#45;&gt;Node7</title>
<path fill="none" stroke="midnightblue" d="M325.45,-38.411C351.471,-33.261 383.728,-26.8768 411.069,-21.4656"/>
<polygon fill="midnightblue" stroke="midnightblue" points="411.769,-24.895 420.899,-19.5201 410.409,-18.0282 411.769,-24.895"/>
</g>
<!-- Node4&#45;&gt;Node5 -->
<g id="edge4" class="edge"><title>Node4&#45;&gt;Node5</title>
<path fill="none" stroke="midnightblue" d="M545.714,-78.0249C554.33,-77.1052 563.13,-76.1659 571.778,-75.2428"/>
<polygon fill="midnightblue" stroke="midnightblue" points="572.27,-78.7103 581.842,-74.1686 571.527,-71.7498 572.27,-78.7103"/>
</g>
<!-- Node6 -->
<g id="node6" class="node"><title>Node6</title>
<g id="a_node6"><a xlink:href="../../d6/d34/classmodel_1_1_turtle.html#a61d79b71c878b0c64adeab038483da7a" target="_top" xlink:title="model.Turtle.getAngle">
<polygon fill="white" stroke="black" points="754.5,-57.5 754.5,-76.5 875.5,-76.5 875.5,-57.5 754.5,-57.5"/>
<text text-anchor="middle" x="815" y="-64.5" font-family="Helvetica,sans-Serif" font-size="10.00">model.Turtle.getAngle</text>
</a>
</g>
</g>
<!-- Node5&#45;&gt;Node6 -->
<g id="edge5" class="edge"><title>Node5&#45;&gt;Node6</title>
<path fill="none" stroke="midnightblue" d="M718.239,-67C726.875,-67 735.73,-67 744.402,-67"/>
<polygon fill="midnightblue" stroke="midnightblue" points="744.474,-70.5001 754.474,-67 744.474,-63.5001 744.474,-70.5001"/>
</g>
</g>
</svg>
