<?xml version="1.0" encoding="UTF-8" standalone="no"?>
<!DOCTYPE svg PUBLIC "-//W3C//DTD SVG 1.1//EN"
 "http://www.w3.org/Graphics/SVG/1.1/DTD/svg11.dtd">
<!-- Generated by graphviz version 2.36.0 (20140111.2315)
 -->
<!-- Title: view.MenuView.getLocale Pages: 1 -->
<svg width="884pt" height="104pt"
 viewBox="0.00 0.00 884.00 104.00" xmlns="http://www.w3.org/2000/svg" xmlns:xlink="http://www.w3.org/1999/xlink">
<g id="graph0" class="graph" transform="scale(1 1) rotate(0) translate(4 100)">
<title>view.MenuView.getLocale</title>
<polygon fill="white" stroke="none" points="-4,4 -4,-100 880,-100 880,4 -4,4"/>
<!-- Node1 -->
<g id="node1" class="node"><title>Node1</title>
<polygon fill="#bfbfbf" stroke="black" points="0,-57.5 0,-76.5 136,-76.5 136,-57.5 0,-57.5"/>
<text text-anchor="middle" x="68" y="-64.5" font-family="Helvetica,sans-Serif" font-size="10.00">view.MenuView.getLocale</text>
</g>
<!-- Node2 -->
<g id="node2" class="node"><title>Node2</title>
<g id="a_node2"><a xlink:href="../../d4/db1/classview_1_1_menu_view.html#aed39c72c611c501f766867823a4ae8b5" target="_top" xlink:title="view.MenuView.makeLanguageItem">
<polygon fill="white" stroke="black" points="172.5,-76.5 172.5,-95.5 357.5,-95.5 357.5,-76.5 172.5,-76.5"/>
<text text-anchor="middle" x="265" y="-83.5" font-family="Helvetica,sans-Serif" font-size="10.00">view.MenuView.makeLanguageItem</text>
</a>
</g>
</g>
<!-- Node1&#45;&gt;Node2 -->
<g id="edge1" class="edge"><title>Node1&#45;&gt;Node2</title>
<path fill="none" stroke="midnightblue" d="M136.108,-73.5387C144.593,-74.3654 153.419,-75.2254 162.291,-76.0899"/>
<polygon fill="midnightblue" stroke="midnightblue" points="162.02,-79.58 172.312,-77.0663 162.699,-72.613 162.02,-79.58"/>
</g>
<!-- Node3 -->
<g id="node3" class="node"><title>Node3</title>
<g id="a_node3"><a xlink:href="../../d4/db1/classview_1_1_menu_view.html#aa3be4d8cd01aebaadf5b02d4f74028ce" target="_top" xlink:title="view.MenuView.clear">
<polygon fill="white" stroke="black" points="418.5,-76.5 418.5,-95.5 531.5,-95.5 531.5,-76.5 418.5,-76.5"/>
<text text-anchor="middle" x="475" y="-83.5" font-family="Helvetica,sans-Serif" font-size="10.00">view.MenuView.clear</text>
</a>
</g>
</g>
<!-- Node2&#45;&gt;Node3 -->
<g id="edge2" class="edge"><title>Node2&#45;&gt;Node3</title>
<path fill="none" stroke="midnightblue" d="M357.535,-86C374.522,-86 391.96,-86 407.999,-86"/>
<polygon fill="midnightblue" stroke="midnightblue" points="408.319,-89.5001 418.319,-86 408.319,-82.5001 408.319,-89.5001"/>
</g>
<!-- Node4 -->
<g id="node4" class="node"><title>Node4</title>
<g id="a_node4"><a xlink:href="../../d4/db1/classview_1_1_menu_view.html#aab261b4132aef3d62fc610d0e259d126" target="_top" xlink:title="view.MenuView.createFileMenu">
<polygon fill="white" stroke="black" points="394.5,-38.5 394.5,-57.5 555.5,-57.5 555.5,-38.5 394.5,-38.5"/>
<text text-anchor="middle" x="475" y="-45.5" font-family="Helvetica,sans-Serif" font-size="10.00">view.MenuView.createFileMenu</text>
</a>
</g>
</g>
<!-- Node2&#45;&gt;Node4 -->
<g id="edge3" class="edge"><title>Node2&#45;&gt;Node4</title>
<path fill="none" stroke="midnightblue" d="M318.219,-76.46C346.654,-71.2652 382.022,-64.8037 411.868,-59.3511"/>
<polygon fill="midnightblue" stroke="midnightblue" points="412.552,-62.7842 421.76,-57.5439 411.294,-55.8981 412.552,-62.7842"/>
</g>
<!-- Node4&#45;&gt;Node1 -->
<g id="edge4" class="edge"><title>Node4&#45;&gt;Node1</title>
<path fill="none" stroke="midnightblue" d="M394.325,-51.7378C322.551,-55.105 217.691,-60.0244 146.572,-63.3608"/>
<polygon fill="midnightblue" stroke="midnightblue" points="146.157,-59.8763 136.332,-63.8412 146.485,-66.8686 146.157,-59.8763"/>
</g>
<!-- Node5 -->
<g id="node5" class="node"><title>Node5</title>
<g id="a_node5"><a xlink:href="../../d4/db1/classview_1_1_menu_view.html#a3e352dab72fffb4ce40d6c91d7ea7d58" target="_top" xlink:title="view.MenuView.setFile">
<polygon fill="white" stroke="black" points="592.5,-38.5 592.5,-57.5 711.5,-57.5 711.5,-38.5 592.5,-38.5"/>
<text text-anchor="middle" x="652" y="-45.5" font-family="Helvetica,sans-Serif" font-size="10.00">view.MenuView.setFile</text>
</a>
</g>
</g>
<!-- Node4&#45;&gt;Node5 -->
<g id="edge5" class="edge"><title>Node4&#45;&gt;Node5</title>
<path fill="none" stroke="midnightblue" d="M555.563,-48C564.454,-48 573.455,-48 582.195,-48"/>
<polygon fill="midnightblue" stroke="midnightblue" points="582.313,-51.5001 592.313,-48 582.313,-44.5001 582.313,-51.5001"/>
</g>
<!-- Node6 -->
<g id="node6" class="node"><title>Node6</title>
<g id="a_node6"><a xlink:href="../../d4/db1/classview_1_1_menu_view.html#a33d47eb47a1b9578dc9eae360ab777a9" target="_top" xlink:title="view.MenuView.newFile">
<polygon fill="white" stroke="black" points="750.5,-76.5 750.5,-95.5 873.5,-95.5 873.5,-76.5 750.5,-76.5"/>
<text text-anchor="middle" x="812" y="-83.5" font-family="Helvetica,sans-Serif" font-size="10.00">view.MenuView.newFile</text>
</a>
</g>
</g>
<!-- Node5&#45;&gt;Node6 -->
<g id="edge6" class="edge"><title>Node5&#45;&gt;Node6</title>
<path fill="none" stroke="midnightblue" d="M692.87,-57.589C713.72,-62.6035 739.435,-68.7881 761.543,-74.1053"/>
<polygon fill="midnightblue" stroke="midnightblue" points="760.875,-77.5445 771.417,-76.4799 762.512,-70.7385 760.875,-77.5445"/>
</g>
<!-- Node7 -->
<g id="node7" class="node"><title>Node7</title>
<g id="a_node7"><a xlink:href="../../d4/db1/classview_1_1_menu_view.html#af12d4e01bcb842629aebbaa00a386de2" target="_top" xlink:title="view.MenuView.openFile">
<polygon fill="white" stroke="black" points="748,-38.5 748,-57.5 876,-57.5 876,-38.5 748,-38.5"/>
<text text-anchor="middle" x="812" y="-45.5" font-family="Helvetica,sans-Serif" font-size="10.00">view.MenuView.openFile</text>
</a>
</g>
</g>
<!-- Node5&#45;&gt;Node7 -->
<g id="edge7" class="edge"><title>Node5&#45;&gt;Node7</title>
<path fill="none" stroke="midnightblue" d="M711.833,-48C720.284,-48 729.064,-48 737.751,-48"/>
<polygon fill="midnightblue" stroke="midnightblue" points="737.88,-51.5001 747.88,-48 737.88,-44.5001 737.88,-51.5001"/>
</g>
<!-- Node8 -->
<g id="node8" class="node"><title>Node8</title>
<g id="a_node8"><a xlink:href="../../d4/db1/classview_1_1_menu_view.html#a18d792fe8e7ffa13ab441172e110b9db" target="_top" xlink:title="view.MenuView.saveFile">
<polygon fill="white" stroke="black" points="748.5,-0.5 748.5,-19.5 875.5,-19.5 875.5,-0.5 748.5,-0.5"/>
<text text-anchor="middle" x="812" y="-7.5" font-family="Helvetica,sans-Serif" font-size="10.00">view.MenuView.saveFile</text>
</a>
</g>
</g>
<!-- Node5&#45;&gt;Node8 -->
<g id="edge8" class="edge"><title>Node5&#45;&gt;Node8</title>
<path fill="none" stroke="midnightblue" d="M692.87,-38.411C713.72,-33.3965 739.435,-27.2119 761.543,-21.8947"/>
<polygon fill="midnightblue" stroke="midnightblue" points="762.512,-25.2615 771.417,-19.5201 760.875,-18.4555 762.512,-25.2615"/>
</g>
</g>
</svg>
