<?xml version="1.0" encoding="UTF-8" standalone="no"?>
<!DOCTYPE svg PUBLIC "-//W3C//DTD SVG 1.1//EN"
 "http://www.w3.org/Graphics/SVG/1.1/DTD/svg11.dtd">
<!-- Generated by graphviz version 2.36.0 (20140111.2315)
 -->
<!-- Title: view.MenuView.newFile Pages: 1 -->
<svg width="880pt" height="80pt"
 viewBox="0.00 0.00 880.00 80.44" xmlns="http://www.w3.org/2000/svg" xmlns:xlink="http://www.w3.org/1999/xlink">
<g id="graph0" class="graph" transform="scale(1 1) rotate(0) translate(4 76.4405)">
<title>view.MenuView.newFile</title>
<polygon fill="white" stroke="none" points="-4,4 -4,-76.4405 876,-76.4405 876,4 -4,4"/>
<!-- Node1 -->
<g id="node1" class="node"><title>Node1</title>
<polygon fill="#bfbfbf" stroke="black" points="0.5,-14.9405 0.5,-33.9405 123.5,-33.9405 123.5,-14.9405 0.5,-14.9405"/>
<text text-anchor="middle" x="62" y="-21.9405" font-family="Helvetica,sans-Serif" font-size="10.00">view.MenuView.newFile</text>
</g>
<!-- Node2 -->
<g id="node2" class="node"><title>Node2</title>
<g id="a_node2"><a xlink:href="../../d4/db1/classview_1_1_menu_view.html#a3e352dab72fffb4ce40d6c91d7ea7d58" target="_top" xlink:title="view.MenuView.setFile">
<polygon fill="white" stroke="black" points="160.5,-14.9405 160.5,-33.9405 279.5,-33.9405 279.5,-14.9405 160.5,-14.9405"/>
<text text-anchor="middle" x="220" y="-21.9405" font-family="Helvetica,sans-Serif" font-size="10.00">view.MenuView.setFile</text>
</a>
</g>
</g>
<!-- Node1&#45;&gt;Node2 -->
<g id="edge1" class="edge"><title>Node1&#45;&gt;Node2</title>
<path fill="none" stroke="midnightblue" d="M134.048,-24.4405C142.882,-24.4405 151.836,-24.4405 160.452,-24.4405"/>
<polygon fill="midnightblue" stroke="midnightblue" points="133.76,-20.9406 123.76,-24.4405 133.76,-27.9406 133.76,-20.9406"/>
</g>
<!-- Node3 -->
<g id="node3" class="node"><title>Node3</title>
<g id="a_node3"><a xlink:href="../../d4/db1/classview_1_1_menu_view.html#aab261b4132aef3d62fc610d0e259d126" target="_top" xlink:title="view.MenuView.createFileMenu">
<polygon fill="white" stroke="black" points="316.5,-14.9405 316.5,-33.9405 477.5,-33.9405 477.5,-14.9405 316.5,-14.9405"/>
<text text-anchor="middle" x="397" y="-21.9405" font-family="Helvetica,sans-Serif" font-size="10.00">view.MenuView.createFileMenu</text>
</a>
</g>
</g>
<!-- Node2&#45;&gt;Node3 -->
<g id="edge2" class="edge"><title>Node2&#45;&gt;Node3</title>
<path fill="none" stroke="midnightblue" d="M289.807,-24.4405C298.486,-24.4405 307.422,-24.4405 316.251,-24.4405"/>
<polygon fill="midnightblue" stroke="midnightblue" points="289.759,-20.9406 279.759,-24.4405 289.759,-27.9406 289.759,-20.9406"/>
</g>
<!-- Node4 -->
<g id="node4" class="node"><title>Node4</title>
<g id="a_node4"><a xlink:href="../../d4/db1/classview_1_1_menu_view.html#aed39c72c611c501f766867823a4ae8b5" target="_top" xlink:title="view.MenuView.makeLanguageItem">
<polygon fill="white" stroke="black" points="514.5,-52.9405 514.5,-71.9405 699.5,-71.9405 699.5,-52.9405 514.5,-52.9405"/>
<text text-anchor="middle" x="607" y="-59.9405" font-family="Helvetica,sans-Serif" font-size="10.00">view.MenuView.makeLanguageItem</text>
</a>
</g>
</g>
<!-- Node3&#45;&gt;Node4 -->
<g id="edge3" class="edge"><title>Node3&#45;&gt;Node4</title>
<path fill="none" stroke="midnightblue" d="M460.11,-35.7874C489.953,-41.2396 525.322,-47.7011 553.76,-52.8966"/>
<polygon fill="midnightblue" stroke="midnightblue" points="460.685,-32.3347 450.219,-33.9804 459.427,-39.2207 460.685,-32.3347"/>
</g>
<!-- Node6 -->
<g id="node6" class="node"><title>Node6</title>
<g id="a_node6"><a xlink:href="../../d4/db1/classview_1_1_menu_view.html#a14aaba9bd102863ec179fb03aef984b8" target="_top" xlink:title="view.MenuView.MenuView">
<polygon fill="white" stroke="black" points="538.5,-14.9405 538.5,-33.9405 675.5,-33.9405 675.5,-14.9405 538.5,-14.9405"/>
<text text-anchor="middle" x="607" y="-21.9405" font-family="Helvetica,sans-Serif" font-size="10.00">view.MenuView.MenuView</text>
</a>
</g>
</g>
<!-- Node3&#45;&gt;Node6 -->
<g id="edge6" class="edge"><title>Node3&#45;&gt;Node6</title>
<path fill="none" stroke="midnightblue" d="M487.973,-24.4405C504.881,-24.4405 522.294,-24.4405 538.378,-24.4405"/>
<polygon fill="midnightblue" stroke="midnightblue" points="487.526,-20.9406 477.526,-24.4405 487.526,-27.9406 487.526,-20.9406"/>
</g>
<!-- Node5 -->
<g id="node5" class="node"><title>Node5</title>
<g id="a_node5"><a xlink:href="../../d4/db1/classview_1_1_menu_view.html#ae9198689f86964211100210cb784c14e" target="_top" xlink:title="view.MenuView.getLocale">
<polygon fill="white" stroke="black" points="736,-14.9405 736,-33.9405 872,-33.9405 872,-14.9405 736,-14.9405"/>
<text text-anchor="middle" x="804" y="-21.9405" font-family="Helvetica,sans-Serif" font-size="10.00">view.MenuView.getLocale</text>
</a>
</g>
</g>
<!-- Node4&#45;&gt;Node5 -->
<g id="edge4" class="edge"><title>Node4&#45;&gt;Node5</title>
<path fill="none" stroke="midnightblue" d="M666.959,-50.9511C694.782,-45.5291 727.596,-39.1346 754.025,-33.9844"/>
<polygon fill="midnightblue" stroke="midnightblue" points="666.101,-47.5523 656.955,-52.9005 667.44,-54.4231 666.101,-47.5523"/>
</g>
<!-- Node5&#45;&gt;Node3 -->
<g id="edge5" class="edge"><title>Node5&#45;&gt;Node3</title>
<path fill="none" stroke="midnightblue" d="M751.253,-12.9894C734.941,-9.89366 716.795,-6.9766 700,-5.44048 617.677,2.0889 596.394,1.26268 514,-5.44048 491.219,-7.29381 466.168,-11.1622 445.194,-14.9277"/>
<polygon fill="midnightblue" stroke="midnightblue" points="750.659,-16.4393 761.145,-14.9292 752.006,-9.57014 750.659,-16.4393"/>
</g>
</g>
</svg>
