<?xml version="1.0" encoding="UTF-8" standalone="no"?>
<!DOCTYPE svg PUBLIC "-//W3C//DTD SVG 1.1//EN"
 "http://www.w3.org/Graphics/SVG/1.1/DTD/svg11.dtd">
<!-- Generated by graphviz version 2.36.0 (20140111.2315)
 -->
<!-- Title: view.MenuView.makeLanguageItem Pages: 1 -->
<svg width="728pt" height="142pt"
 viewBox="0.00 0.00 728.00 142.00" xmlns="http://www.w3.org/2000/svg" xmlns:xlink="http://www.w3.org/1999/xlink">
<g id="graph0" class="graph" transform="scale(1 1) rotate(0) translate(4 138)">
<title>view.MenuView.makeLanguageItem</title>
<polygon fill="white" stroke="none" points="-4,4 -4,-138 724,-138 724,4 -4,4"/>
<!-- Node1 -->
<g id="node1" class="node"><title>Node1</title>
<polygon fill="#bfbfbf" stroke="black" points="0.5,-76.5 0.5,-95.5 185.5,-95.5 185.5,-76.5 0.5,-76.5"/>
<text text-anchor="middle" x="93" y="-83.5" font-family="Helvetica,sans-Serif" font-size="10.00">view.MenuView.makeLanguageItem</text>
</g>
<!-- Node2 -->
<g id="node2" class="node"><title>Node2</title>
<g id="a_node2"><a xlink:href="../../d4/db1/classview_1_1_menu_view.html#aa3be4d8cd01aebaadf5b02d4f74028ce" target="_top" xlink:title="view.MenuView.clear">
<polygon fill="white" stroke="black" points="246.5,-114.5 246.5,-133.5 359.5,-133.5 359.5,-114.5 246.5,-114.5"/>
<text text-anchor="middle" x="303" y="-121.5" font-family="Helvetica,sans-Serif" font-size="10.00">view.MenuView.clear</text>
</a>
</g>
</g>
<!-- Node1&#45;&gt;Node2 -->
<g id="edge1" class="edge"><title>Node1&#45;&gt;Node2</title>
<path fill="none" stroke="midnightblue" d="M146.219,-95.54C174.654,-100.735 210.022,-107.196 239.868,-112.649"/>
<polygon fill="midnightblue" stroke="midnightblue" points="239.294,-116.102 249.76,-114.456 240.552,-109.216 239.294,-116.102"/>
</g>
<!-- Node3 -->
<g id="node3" class="node"><title>Node3</title>
<g id="a_node3"><a xlink:href="../../d4/db1/classview_1_1_menu_view.html#aab261b4132aef3d62fc610d0e259d126" target="_top" xlink:title="view.MenuView.createFileMenu">
<polygon fill="white" stroke="black" points="222.5,-38.5 222.5,-57.5 383.5,-57.5 383.5,-38.5 222.5,-38.5"/>
<text text-anchor="middle" x="303" y="-45.5" font-family="Helvetica,sans-Serif" font-size="10.00">view.MenuView.createFileMenu</text>
</a>
</g>
</g>
<!-- Node1&#45;&gt;Node3 -->
<g id="edge2" class="edge"><title>Node1&#45;&gt;Node3</title>
<path fill="none" stroke="midnightblue" d="M146.219,-76.46C174.654,-71.2652 210.022,-64.8037 239.868,-59.3511"/>
<polygon fill="midnightblue" stroke="midnightblue" points="240.552,-62.7842 249.76,-57.5439 239.294,-55.8981 240.552,-62.7842"/>
</g>
<!-- Node4 -->
<g id="node4" class="node"><title>Node4</title>
<g id="a_node4"><a xlink:href="../../d4/db1/classview_1_1_menu_view.html#ae9198689f86964211100210cb784c14e" target="_top" xlink:title="view.MenuView.getLocale">
<polygon fill="white" stroke="black" points="420,-76.5 420,-95.5 556,-95.5 556,-76.5 420,-76.5"/>
<text text-anchor="middle" x="488" y="-83.5" font-family="Helvetica,sans-Serif" font-size="10.00">view.MenuView.getLocale</text>
</a>
</g>
</g>
<!-- Node3&#45;&gt;Node4 -->
<g id="edge3" class="edge"><title>Node3&#45;&gt;Node4</title>
<path fill="none" stroke="midnightblue" d="M350.179,-57.589C374.763,-62.6939 405.186,-69.0113 431.097,-74.3918"/>
<polygon fill="midnightblue" stroke="midnightblue" points="430.651,-77.8736 441.153,-76.4799 432.074,-71.0198 430.651,-77.8736"/>
</g>
<!-- Node5 -->
<g id="node5" class="node"><title>Node5</title>
<g id="a_node5"><a xlink:href="../../d4/db1/classview_1_1_menu_view.html#a3e352dab72fffb4ce40d6c91d7ea7d58" target="_top" xlink:title="view.MenuView.setFile">
<polygon fill="white" stroke="black" points="428.5,-38.5 428.5,-57.5 547.5,-57.5 547.5,-38.5 428.5,-38.5"/>
<text text-anchor="middle" x="488" y="-45.5" font-family="Helvetica,sans-Serif" font-size="10.00">view.MenuView.setFile</text>
</a>
</g>
</g>
<!-- Node3&#45;&gt;Node5 -->
<g id="edge5" class="edge"><title>Node3&#45;&gt;Node5</title>
<path fill="none" stroke="midnightblue" d="M383.734,-48C395.238,-48 406.994,-48 418.259,-48"/>
<polygon fill="midnightblue" stroke="midnightblue" points="418.445,-51.5001 428.445,-48 418.445,-44.5001 418.445,-51.5001"/>
</g>
<!-- Node4&#45;&gt;Node1 -->
<g id="edge4" class="edge"><title>Node4&#45;&gt;Node1</title>
<path fill="none" stroke="midnightblue" d="M419.835,-86C358.336,-86 266.431,-86 195.891,-86"/>
<polygon fill="midnightblue" stroke="midnightblue" points="195.645,-82.5001 185.645,-86 195.645,-89.5001 195.645,-82.5001"/>
</g>
<!-- Node6 -->
<g id="node6" class="node"><title>Node6</title>
<g id="a_node6"><a xlink:href="../../d4/db1/classview_1_1_menu_view.html#a33d47eb47a1b9578dc9eae360ab777a9" target="_top" xlink:title="view.MenuView.newFile">
<polygon fill="white" stroke="black" points="594.5,-76.5 594.5,-95.5 717.5,-95.5 717.5,-76.5 594.5,-76.5"/>
<text text-anchor="middle" x="656" y="-83.5" font-family="Helvetica,sans-Serif" font-size="10.00">view.MenuView.newFile</text>
</a>
</g>
</g>
<!-- Node5&#45;&gt;Node6 -->
<g id="edge6" class="edge"><title>Node5&#45;&gt;Node6</title>
<path fill="none" stroke="midnightblue" d="M530.889,-57.589C552.893,-62.6261 580.055,-68.8438 603.352,-74.1771"/>
<polygon fill="midnightblue" stroke="midnightblue" points="602.884,-77.6602 613.412,-76.4799 604.446,-70.8367 602.884,-77.6602"/>
</g>
<!-- Node7 -->
<g id="node7" class="node"><title>Node7</title>
<g id="a_node7"><a xlink:href="../../d4/db1/classview_1_1_menu_view.html#af12d4e01bcb842629aebbaa00a386de2" target="_top" xlink:title="view.MenuView.openFile">
<polygon fill="white" stroke="black" points="592,-38.5 592,-57.5 720,-57.5 720,-38.5 592,-38.5"/>
<text text-anchor="middle" x="656" y="-45.5" font-family="Helvetica,sans-Serif" font-size="10.00">view.MenuView.openFile</text>
</a>
</g>
</g>
<!-- Node5&#45;&gt;Node7 -->
<g id="edge7" class="edge"><title>Node5&#45;&gt;Node7</title>
<path fill="none" stroke="midnightblue" d="M547.525,-48C558.644,-48 570.405,-48 581.909,-48"/>
<polygon fill="midnightblue" stroke="midnightblue" points="581.93,-51.5001 591.93,-48 581.93,-44.5001 581.93,-51.5001"/>
</g>
<!-- Node8 -->
<g id="node8" class="node"><title>Node8</title>
<g id="a_node8"><a xlink:href="../../d4/db1/classview_1_1_menu_view.html#a18d792fe8e7ffa13ab441172e110b9db" target="_top" xlink:title="view.MenuView.saveFile">
<polygon fill="white" stroke="black" points="592.5,-0.5 592.5,-19.5 719.5,-19.5 719.5,-0.5 592.5,-0.5"/>
<text text-anchor="middle" x="656" y="-7.5" font-family="Helvetica,sans-Serif" font-size="10.00">view.MenuView.saveFile</text>
</a>
</g>
</g>
<!-- Node5&#45;&gt;Node8 -->
<g id="edge8" class="edge"><title>Node5&#45;&gt;Node8</title>
<path fill="none" stroke="midnightblue" d="M530.889,-38.411C552.893,-33.3739 580.055,-27.1562 603.352,-21.8229"/>
<polygon fill="midnightblue" stroke="midnightblue" points="604.446,-25.1633 613.412,-19.5201 602.884,-18.3398 604.446,-25.1633"/>
</g>
</g>
</svg>
