<?xml version="1.0" encoding="UTF-8" standalone="no"?>
<!DOCTYPE svg PUBLIC "-//W3C//DTD SVG 1.1//EN"
 "http://www.w3.org/Graphics/SVG/1.1/DTD/svg11.dtd">
<!-- Generated by graphviz version 2.36.0 (20140111.2315)
 -->
<!-- Title: view.MenuView.createFileMenu Pages: 1 -->
<svg width="714pt" height="142pt"
 viewBox="0.00 0.00 714.00 142.00" xmlns="http://www.w3.org/2000/svg" xmlns:xlink="http://www.w3.org/1999/xlink">
<g id="graph0" class="graph" transform="scale(1 1) rotate(0) translate(4 138)">
<title>view.MenuView.createFileMenu</title>
<polygon fill="white" stroke="none" points="-4,4 -4,-138 710,-138 710,4 -4,4"/>
<!-- Node1 -->
<g id="node1" class="node"><title>Node1</title>
<polygon fill="#bfbfbf" stroke="black" points="0.5,-76.5 0.5,-95.5 161.5,-95.5 161.5,-76.5 0.5,-76.5"/>
<text text-anchor="middle" x="81" y="-83.5" font-family="Helvetica,sans-Serif" font-size="10.00">view.MenuView.createFileMenu</text>
</g>
<!-- Node2 -->
<g id="node2" class="node"><title>Node2</title>
<g id="a_node2"><a xlink:href="../../d4/db1/classview_1_1_menu_view.html#ae9198689f86964211100210cb784c14e" target="_top" xlink:title="view.MenuView.getLocale">
<polygon fill="white" stroke="black" points="198,-114.5 198,-133.5 334,-133.5 334,-114.5 198,-114.5"/>
<text text-anchor="middle" x="266" y="-121.5" font-family="Helvetica,sans-Serif" font-size="10.00">view.MenuView.getLocale</text>
</a>
</g>
</g>
<!-- Node1&#45;&gt;Node2 -->
<g id="edge1" class="edge"><title>Node1&#45;&gt;Node2</title>
<path fill="none" stroke="midnightblue" d="M128.179,-95.589C152.763,-100.694 183.186,-107.011 209.097,-112.392"/>
<polygon fill="midnightblue" stroke="midnightblue" points="208.651,-115.874 219.153,-114.48 210.074,-109.02 208.651,-115.874"/>
</g>
<!-- Node5 -->
<g id="node5" class="node"><title>Node5</title>
<g id="a_node5"><a xlink:href="../../d4/db1/classview_1_1_menu_view.html#a3e352dab72fffb4ce40d6c91d7ea7d58" target="_top" xlink:title="view.MenuView.setFile">
<polygon fill="white" stroke="black" points="206.5,-38.5 206.5,-57.5 325.5,-57.5 325.5,-38.5 206.5,-38.5"/>
<text text-anchor="middle" x="266" y="-45.5" font-family="Helvetica,sans-Serif" font-size="10.00">view.MenuView.setFile</text>
</a>
</g>
</g>
<!-- Node1&#45;&gt;Node5 -->
<g id="edge5" class="edge"><title>Node1&#45;&gt;Node5</title>
<path fill="none" stroke="midnightblue" d="M128.179,-76.411C152.763,-71.3061 183.186,-64.9887 209.097,-59.6082"/>
<polygon fill="midnightblue" stroke="midnightblue" points="210.074,-62.9802 219.153,-57.5201 208.651,-56.1264 210.074,-62.9802"/>
</g>
<!-- Node3 -->
<g id="node3" class="node"><title>Node3</title>
<g id="a_node3"><a xlink:href="../../d4/db1/classview_1_1_menu_view.html#aed39c72c611c501f766867823a4ae8b5" target="_top" xlink:title="view.MenuView.makeLanguageItem">
<polygon fill="white" stroke="black" points="370.5,-114.5 370.5,-133.5 555.5,-133.5 555.5,-114.5 370.5,-114.5"/>
<text text-anchor="middle" x="463" y="-121.5" font-family="Helvetica,sans-Serif" font-size="10.00">view.MenuView.makeLanguageItem</text>
</a>
</g>
</g>
<!-- Node2&#45;&gt;Node3 -->
<g id="edge2" class="edge"><title>Node2&#45;&gt;Node3</title>
<path fill="none" stroke="midnightblue" d="M334.108,-124C342.593,-124 351.419,-124 360.291,-124"/>
<polygon fill="midnightblue" stroke="midnightblue" points="360.313,-127.5 370.312,-124 360.312,-120.5 360.313,-127.5"/>
</g>
<!-- Node3&#45;&gt;Node1 -->
<g id="edge4" class="edge"><title>Node3&#45;&gt;Node1</title>
<path fill="none" stroke="midnightblue" d="M403.811,-114.458C381.964,-111.113 356.885,-107.558 334,-105 280.267,-98.9942 219.87,-94.3677 171.677,-91.1843"/>
<polygon fill="midnightblue" stroke="midnightblue" points="171.791,-87.6844 161.585,-90.5269 171.336,-94.6696 171.791,-87.6844"/>
</g>
<!-- Node4 -->
<g id="node4" class="node"><title>Node4</title>
<g id="a_node4"><a xlink:href="../../d4/db1/classview_1_1_menu_view.html#aa3be4d8cd01aebaadf5b02d4f74028ce" target="_top" xlink:title="view.MenuView.clear">
<polygon fill="white" stroke="black" points="592.5,-114.5 592.5,-133.5 705.5,-133.5 705.5,-114.5 592.5,-114.5"/>
<text text-anchor="middle" x="649" y="-121.5" font-family="Helvetica,sans-Serif" font-size="10.00">view.MenuView.clear</text>
</a>
</g>
</g>
<!-- Node3&#45;&gt;Node4 -->
<g id="edge3" class="edge"><title>Node3&#45;&gt;Node4</title>
<path fill="none" stroke="midnightblue" d="M555.73,-124C564.626,-124 573.525,-124 582.095,-124"/>
<polygon fill="midnightblue" stroke="midnightblue" points="582.362,-127.5 592.362,-124 582.362,-120.5 582.362,-127.5"/>
</g>
<!-- Node6 -->
<g id="node6" class="node"><title>Node6</title>
<g id="a_node6"><a xlink:href="../../d4/db1/classview_1_1_menu_view.html#a33d47eb47a1b9578dc9eae360ab777a9" target="_top" xlink:title="view.MenuView.newFile">
<polygon fill="white" stroke="black" points="401.5,-76.5 401.5,-95.5 524.5,-95.5 524.5,-76.5 401.5,-76.5"/>
<text text-anchor="middle" x="463" y="-83.5" font-family="Helvetica,sans-Serif" font-size="10.00">view.MenuView.newFile</text>
</a>
</g>
</g>
<!-- Node5&#45;&gt;Node6 -->
<g id="edge6" class="edge"><title>Node5&#45;&gt;Node6</title>
<path fill="none" stroke="midnightblue" d="M315.955,-57.54C342.381,-62.6896 375.194,-69.084 403.02,-74.5065"/>
<polygon fill="midnightblue" stroke="midnightblue" points="402.54,-77.9787 413.025,-76.4561 403.879,-71.1079 402.54,-77.9787"/>
</g>
<!-- Node7 -->
<g id="node7" class="node"><title>Node7</title>
<g id="a_node7"><a xlink:href="../../d4/db1/classview_1_1_menu_view.html#af12d4e01bcb842629aebbaa00a386de2" target="_top" xlink:title="view.MenuView.openFile">
<polygon fill="white" stroke="black" points="399,-38.5 399,-57.5 527,-57.5 527,-38.5 399,-38.5"/>
<text text-anchor="middle" x="463" y="-45.5" font-family="Helvetica,sans-Serif" font-size="10.00">view.MenuView.openFile</text>
</a>
</g>
</g>
<!-- Node5&#45;&gt;Node7 -->
<g id="edge7" class="edge"><title>Node5&#45;&gt;Node7</title>
<path fill="none" stroke="midnightblue" d="M325.506,-48C345.367,-48 367.811,-48 388.678,-48"/>
<polygon fill="midnightblue" stroke="midnightblue" points="388.778,-51.5001 398.777,-48 388.777,-44.5001 388.778,-51.5001"/>
</g>
<!-- Node8 -->
<g id="node8" class="node"><title>Node8</title>
<g id="a_node8"><a xlink:href="../../d4/db1/classview_1_1_menu_view.html#a18d792fe8e7ffa13ab441172e110b9db" target="_top" xlink:title="view.MenuView.saveFile">
<polygon fill="white" stroke="black" points="399.5,-0.5 399.5,-19.5 526.5,-19.5 526.5,-0.5 399.5,-0.5"/>
<text text-anchor="middle" x="463" y="-7.5" font-family="Helvetica,sans-Serif" font-size="10.00">view.MenuView.saveFile</text>
</a>
</g>
</g>
<!-- Node5&#45;&gt;Node8 -->
<g id="edge8" class="edge"><title>Node5&#45;&gt;Node8</title>
<path fill="none" stroke="midnightblue" d="M315.955,-38.46C342.381,-33.3104 375.194,-26.916 403.02,-21.4935"/>
<polygon fill="midnightblue" stroke="midnightblue" points="403.879,-24.8921 413.025,-19.5439 402.54,-18.0213 403.879,-24.8921"/>
</g>
</g>
</svg>
