<?xml version="1.0" encoding="UTF-8" standalone="no"?>
<!DOCTYPE svg PUBLIC "-//W3C//DTD SVG 1.1//EN"
 "http://www.w3.org/Graphics/SVG/1.1/DTD/svg11.dtd">
<!-- Generated by graphviz version 2.36.0 (20140111.2315)
 -->
<!-- Title: view.MenuView.saveFile Pages: 1 -->
<svg width="884pt" height="80pt"
 viewBox="0.00 0.00 884.00 80.44" xmlns="http://www.w3.org/2000/svg" xmlns:xlink="http://www.w3.org/1999/xlink">
<g id="graph0" class="graph" transform="scale(1 1) rotate(0) translate(4 76.4405)">
<title>view.MenuView.saveFile</title>
<polygon fill="white" stroke="none" points="-4,4 -4,-76.4405 880,-76.4405 880,4 -4,4"/>
<!-- Node1 -->
<g id="node1" class="node"><title>Node1</title>
<polygon fill="#bfbfbf" stroke="black" points="0.5,-14.9405 0.5,-33.9405 127.5,-33.9405 127.5,-14.9405 0.5,-14.9405"/>
<text text-anchor="middle" x="64" y="-21.9405" font-family="Helvetica,sans-Serif" font-size="10.00">view.MenuView.saveFile</text>
</g>
<!-- Node2 -->
<g id="node2" class="node"><title>Node2</title>
<g id="a_node2"><a xlink:href="../../d4/db1/classview_1_1_menu_view.html#a3e352dab72fffb4ce40d6c91d7ea7d58" target="_top" xlink:title="view.MenuView.setFile">
<polygon fill="white" stroke="black" points="164.5,-14.9405 164.5,-33.9405 283.5,-33.9405 283.5,-14.9405 164.5,-14.9405"/>
<text text-anchor="middle" x="224" y="-21.9405" font-family="Helvetica,sans-Serif" font-size="10.00">view.MenuView.setFile</text>
</a>
</g>
</g>
<!-- Node1&#45;&gt;Node2 -->
<g id="edge1" class="edge"><title>Node1&#45;&gt;Node2</title>
<path fill="none" stroke="midnightblue" d="M138.163,-24.4405C146.966,-24.4405 155.866,-24.4405 164.423,-24.4405"/>
<polygon fill="midnightblue" stroke="midnightblue" points="137.9,-20.9406 127.9,-24.4405 137.9,-27.9406 137.9,-20.9406"/>
</g>
<!-- Node3 -->
<g id="node3" class="node"><title>Node3</title>
<g id="a_node3"><a xlink:href="../../d4/db1/classview_1_1_menu_view.html#aab261b4132aef3d62fc610d0e259d126" target="_top" xlink:title="view.MenuView.createFileMenu">
<polygon fill="white" stroke="black" points="320.5,-14.9405 320.5,-33.9405 481.5,-33.9405 481.5,-14.9405 320.5,-14.9405"/>
<text text-anchor="middle" x="401" y="-21.9405" font-family="Helvetica,sans-Serif" font-size="10.00">view.MenuView.createFileMenu</text>
</a>
</g>
</g>
<!-- Node2&#45;&gt;Node3 -->
<g id="edge2" class="edge"><title>Node2&#45;&gt;Node3</title>
<path fill="none" stroke="midnightblue" d="M293.807,-24.4405C302.486,-24.4405 311.422,-24.4405 320.251,-24.4405"/>
<polygon fill="midnightblue" stroke="midnightblue" points="293.759,-20.9406 283.759,-24.4405 293.759,-27.9406 293.759,-20.9406"/>
</g>
<!-- Node4 -->
<g id="node4" class="node"><title>Node4</title>
<g id="a_node4"><a xlink:href="../../d4/db1/classview_1_1_menu_view.html#aed39c72c611c501f766867823a4ae8b5" target="_top" xlink:title="view.MenuView.makeLanguageItem">
<polygon fill="white" stroke="black" points="518.5,-52.9405 518.5,-71.9405 703.5,-71.9405 703.5,-52.9405 518.5,-52.9405"/>
<text text-anchor="middle" x="611" y="-59.9405" font-family="Helvetica,sans-Serif" font-size="10.00">view.MenuView.makeLanguageItem</text>
</a>
</g>
</g>
<!-- Node3&#45;&gt;Node4 -->
<g id="edge3" class="edge"><title>Node3&#45;&gt;Node4</title>
<path fill="none" stroke="midnightblue" d="M464.11,-35.7874C493.953,-41.2396 529.322,-47.7011 557.76,-52.8966"/>
<polygon fill="midnightblue" stroke="midnightblue" points="464.685,-32.3347 454.219,-33.9804 463.427,-39.2207 464.685,-32.3347"/>
</g>
<!-- Node6 -->
<g id="node6" class="node"><title>Node6</title>
<g id="a_node6"><a xlink:href="../../d4/db1/classview_1_1_menu_view.html#a14aaba9bd102863ec179fb03aef984b8" target="_top" xlink:title="view.MenuView.MenuView">
<polygon fill="white" stroke="black" points="542.5,-14.9405 542.5,-33.9405 679.5,-33.9405 679.5,-14.9405 542.5,-14.9405"/>
<text text-anchor="middle" x="611" y="-21.9405" font-family="Helvetica,sans-Serif" font-size="10.00">view.MenuView.MenuView</text>
</a>
</g>
</g>
<!-- Node3&#45;&gt;Node6 -->
<g id="edge6" class="edge"><title>Node3&#45;&gt;Node6</title>
<path fill="none" stroke="midnightblue" d="M491.973,-24.4405C508.881,-24.4405 526.294,-24.4405 542.378,-24.4405"/>
<polygon fill="midnightblue" stroke="midnightblue" points="491.526,-20.9406 481.526,-24.4405 491.526,-27.9406 491.526,-20.9406"/>
</g>
<!-- Node5 -->
<g id="node5" class="node"><title>Node5</title>
<g id="a_node5"><a xlink:href="../../d4/db1/classview_1_1_menu_view.html#ae9198689f86964211100210cb784c14e" target="_top" xlink:title="view.MenuView.getLocale">
<polygon fill="white" stroke="black" points="740,-14.9405 740,-33.9405 876,-33.9405 876,-14.9405 740,-14.9405"/>
<text text-anchor="middle" x="808" y="-21.9405" font-family="Helvetica,sans-Serif" font-size="10.00">view.MenuView.getLocale</text>
</a>
</g>
</g>
<!-- Node4&#45;&gt;Node5 -->
<g id="edge4" class="edge"><title>Node4&#45;&gt;Node5</title>
<path fill="none" stroke="midnightblue" d="M670.959,-50.9511C698.782,-45.5291 731.596,-39.1346 758.025,-33.9844"/>
<polygon fill="midnightblue" stroke="midnightblue" points="670.101,-47.5523 660.955,-52.9005 671.44,-54.4231 670.101,-47.5523"/>
</g>
<!-- Node5&#45;&gt;Node3 -->
<g id="edge5" class="edge"><title>Node5&#45;&gt;Node3</title>
<path fill="none" stroke="midnightblue" d="M755.253,-12.9894C738.941,-9.89366 720.795,-6.9766 704,-5.44048 621.677,2.0889 600.394,1.26268 518,-5.44048 495.219,-7.29381 470.168,-11.1622 449.194,-14.9277"/>
<polygon fill="midnightblue" stroke="midnightblue" points="754.659,-16.4393 765.145,-14.9292 756.006,-9.57014 754.659,-16.4393"/>
</g>
</g>
</svg>
