<?xml version="1.0" encoding="UTF-8" standalone="no"?>
<!DOCTYPE svg PUBLIC "-//W3C//DTD SVG 1.1//EN"
 "http://www.w3.org/Graphics/SVG/1.1/DTD/svg11.dtd">
<!-- Generated by graphviz version 2.36.0 (20140111.2315)
 -->
<!-- Title: view.MenuView.setFile Pages: 1 -->
<svg width="720pt" height="80pt"
 viewBox="0.00 0.00 720.00 80.44" xmlns="http://www.w3.org/2000/svg" xmlns:xlink="http://www.w3.org/1999/xlink">
<g id="graph0" class="graph" transform="scale(1 1) rotate(0) translate(4 76.4405)">
<title>view.MenuView.setFile</title>
<polygon fill="white" stroke="none" points="-4,4 -4,-76.4405 716,-76.4405 716,4 -4,4"/>
<!-- Node1 -->
<g id="node1" class="node"><title>Node1</title>
<polygon fill="#bfbfbf" stroke="black" points="0.5,-14.9405 0.5,-33.9405 119.5,-33.9405 119.5,-14.9405 0.5,-14.9405"/>
<text text-anchor="middle" x="60" y="-21.9405" font-family="Helvetica,sans-Serif" font-size="10.00">view.MenuView.setFile</text>
</g>
<!-- Node2 -->
<g id="node2" class="node"><title>Node2</title>
<g id="a_node2"><a xlink:href="../../d4/db1/classview_1_1_menu_view.html#aab261b4132aef3d62fc610d0e259d126" target="_top" xlink:title="view.MenuView.createFileMenu">
<polygon fill="white" stroke="black" points="156.5,-14.9405 156.5,-33.9405 317.5,-33.9405 317.5,-14.9405 156.5,-14.9405"/>
<text text-anchor="middle" x="237" y="-21.9405" font-family="Helvetica,sans-Serif" font-size="10.00">view.MenuView.createFileMenu</text>
</a>
</g>
</g>
<!-- Node1&#45;&gt;Node2 -->
<g id="edge1" class="edge"><title>Node1&#45;&gt;Node2</title>
<path fill="none" stroke="midnightblue" d="M129.807,-24.4405C138.486,-24.4405 147.422,-24.4405 156.251,-24.4405"/>
<polygon fill="midnightblue" stroke="midnightblue" points="129.759,-20.9406 119.759,-24.4405 129.759,-27.9406 129.759,-20.9406"/>
</g>
<!-- Node3 -->
<g id="node3" class="node"><title>Node3</title>
<g id="a_node3"><a xlink:href="../../d4/db1/classview_1_1_menu_view.html#aed39c72c611c501f766867823a4ae8b5" target="_top" xlink:title="view.MenuView.makeLanguageItem">
<polygon fill="white" stroke="black" points="354.5,-52.9405 354.5,-71.9405 539.5,-71.9405 539.5,-52.9405 354.5,-52.9405"/>
<text text-anchor="middle" x="447" y="-59.9405" font-family="Helvetica,sans-Serif" font-size="10.00">view.MenuView.makeLanguageItem</text>
</a>
</g>
</g>
<!-- Node2&#45;&gt;Node3 -->
<g id="edge2" class="edge"><title>Node2&#45;&gt;Node3</title>
<path fill="none" stroke="midnightblue" d="M300.11,-35.7874C329.953,-41.2396 365.322,-47.7011 393.76,-52.8966"/>
<polygon fill="midnightblue" stroke="midnightblue" points="300.685,-32.3347 290.219,-33.9804 299.427,-39.2207 300.685,-32.3347"/>
</g>
<!-- Node5 -->
<g id="node5" class="node"><title>Node5</title>
<g id="a_node5"><a xlink:href="../../d4/db1/classview_1_1_menu_view.html#a14aaba9bd102863ec179fb03aef984b8" target="_top" xlink:title="view.MenuView.MenuView">
<polygon fill="white" stroke="black" points="378.5,-14.9405 378.5,-33.9405 515.5,-33.9405 515.5,-14.9405 378.5,-14.9405"/>
<text text-anchor="middle" x="447" y="-21.9405" font-family="Helvetica,sans-Serif" font-size="10.00">view.MenuView.MenuView</text>
</a>
</g>
</g>
<!-- Node2&#45;&gt;Node5 -->
<g id="edge5" class="edge"><title>Node2&#45;&gt;Node5</title>
<path fill="none" stroke="midnightblue" d="M327.973,-24.4405C344.881,-24.4405 362.294,-24.4405 378.378,-24.4405"/>
<polygon fill="midnightblue" stroke="midnightblue" points="327.526,-20.9406 317.526,-24.4405 327.526,-27.9406 327.526,-20.9406"/>
</g>
<!-- Node4 -->
<g id="node4" class="node"><title>Node4</title>
<g id="a_node4"><a xlink:href="../../d4/db1/classview_1_1_menu_view.html#ae9198689f86964211100210cb784c14e" target="_top" xlink:title="view.MenuView.getLocale">
<polygon fill="white" stroke="black" points="576,-14.9405 576,-33.9405 712,-33.9405 712,-14.9405 576,-14.9405"/>
<text text-anchor="middle" x="644" y="-21.9405" font-family="Helvetica,sans-Serif" font-size="10.00">view.MenuView.getLocale</text>
</a>
</g>
</g>
<!-- Node3&#45;&gt;Node4 -->
<g id="edge3" class="edge"><title>Node3&#45;&gt;Node4</title>
<path fill="none" stroke="midnightblue" d="M506.959,-50.9511C534.782,-45.5291 567.596,-39.1346 594.025,-33.9844"/>
<polygon fill="midnightblue" stroke="midnightblue" points="506.101,-47.5523 496.955,-52.9005 507.44,-54.4231 506.101,-47.5523"/>
</g>
<!-- Node4&#45;&gt;Node2 -->
<g id="edge4" class="edge"><title>Node4&#45;&gt;Node2</title>
<path fill="none" stroke="midnightblue" d="M591.253,-12.9894C574.941,-9.89366 556.795,-6.9766 540,-5.44048 457.677,2.0889 436.394,1.26268 354,-5.44048 331.219,-7.29381 306.168,-11.1622 285.194,-14.9277"/>
<polygon fill="midnightblue" stroke="midnightblue" points="590.659,-16.4393 601.145,-14.9292 592.006,-9.57014 590.659,-16.4393"/>
</g>
</g>
</svg>
