<?xml version="1.0" encoding="UTF-8" standalone="no"?>
<!DOCTYPE svg PUBLIC "-//W3C//DTD SVG 1.1//EN"
 "http://www.w3.org/Graphics/SVG/1.1/DTD/svg11.dtd">
<!-- Generated by graphviz version 2.36.0 (20140111.2315)
 -->
<!-- Title: view.MenuView.MenuView Pages: 1 -->
<svg width="888pt" height="142pt"
 viewBox="0.00 0.00 888.00 142.00" xmlns="http://www.w3.org/2000/svg" xmlns:xlink="http://www.w3.org/1999/xlink">
<g id="graph0" class="graph" transform="scale(1 1) rotate(0) translate(4 138)">
<title>view.MenuView.MenuView</title>
<polygon fill="white" stroke="none" points="-4,4 -4,-138 884,-138 884,4 -4,4"/>
<!-- Node1 -->
<g id="node1" class="node"><title>Node1</title>
<polygon fill="#bfbfbf" stroke="black" points="0.5,-38.5 0.5,-57.5 137.5,-57.5 137.5,-38.5 0.5,-38.5"/>
<text text-anchor="middle" x="69" y="-45.5" font-family="Helvetica,sans-Serif" font-size="10.00">view.MenuView.MenuView</text>
</g>
<!-- Node2 -->
<g id="node2" class="node"><title>Node2</title>
<g id="a_node2"><a xlink:href="../../d4/db1/classview_1_1_menu_view.html#aab261b4132aef3d62fc610d0e259d126" target="_top" xlink:title="view.MenuView.createFileMenu">
<polygon fill="white" stroke="black" points="174.5,-76.5 174.5,-95.5 335.5,-95.5 335.5,-76.5 174.5,-76.5"/>
<text text-anchor="middle" x="255" y="-83.5" font-family="Helvetica,sans-Serif" font-size="10.00">view.MenuView.createFileMenu</text>
</a>
</g>
</g>
<!-- Node1&#45;&gt;Node2 -->
<g id="edge1" class="edge"><title>Node1&#45;&gt;Node2</title>
<path fill="none" stroke="midnightblue" d="M116.431,-57.589C141.149,-62.6939 171.739,-69.0113 197.792,-74.3918"/>
<polygon fill="midnightblue" stroke="midnightblue" points="197.402,-77.885 207.903,-76.4799 198.817,-71.0297 197.402,-77.885"/>
</g>
<!-- Node10 -->
<g id="node10" class="node"><title>Node10</title>
<g id="a_node10"><a xlink:href="../../d4/db1/classview_1_1_menu_view.html#a66b41c6b57aeff374b1fc1907dce1de5" target="_top" xlink:title="view.MenuView.setMap">
<polygon fill="white" stroke="black" points="192.5,-38.5 192.5,-57.5 317.5,-57.5 317.5,-38.5 192.5,-38.5"/>
<text text-anchor="middle" x="255" y="-45.5" font-family="Helvetica,sans-Serif" font-size="10.00">view.MenuView.setMap</text>
</a>
</g>
</g>
<!-- Node1&#45;&gt;Node10 -->
<g id="edge10" class="edge"><title>Node1&#45;&gt;Node10</title>
<path fill="none" stroke="midnightblue" d="M137.731,-48C152.078,-48 167.274,-48 181.78,-48"/>
<polygon fill="midnightblue" stroke="midnightblue" points="182.2,-51.5001 192.2,-48 182.2,-44.5001 182.2,-51.5001"/>
</g>
<!-- Node11 -->
<g id="node11" class="node"><title>Node11</title>
<g id="a_node11"><a xlink:href="../../d4/db1/classview_1_1_menu_view.html#a70d517e21856a8a0348649dc8988c4f7" target="_top" xlink:title="view.MenuView.setView">
<polygon fill="white" stroke="black" points="192,-0.5 192,-19.5 318,-19.5 318,-0.5 192,-0.5"/>
<text text-anchor="middle" x="255" y="-7.5" font-family="Helvetica,sans-Serif" font-size="10.00">view.MenuView.setView</text>
</a>
</g>
</g>
<!-- Node1&#45;&gt;Node11 -->
<g id="edge11" class="edge"><title>Node1&#45;&gt;Node11</title>
<path fill="none" stroke="midnightblue" d="M116.431,-38.411C141.149,-33.3061 171.739,-26.9887 197.792,-21.6082"/>
<polygon fill="midnightblue" stroke="midnightblue" points="198.817,-24.9703 207.903,-19.5201 197.402,-18.115 198.817,-24.9703"/>
</g>
<!-- Node3 -->
<g id="node3" class="node"><title>Node3</title>
<g id="a_node3"><a xlink:href="../../d4/db1/classview_1_1_menu_view.html#ae9198689f86964211100210cb784c14e" target="_top" xlink:title="view.MenuView.getLocale">
<polygon fill="white" stroke="black" points="372,-114.5 372,-133.5 508,-133.5 508,-114.5 372,-114.5"/>
<text text-anchor="middle" x="440" y="-121.5" font-family="Helvetica,sans-Serif" font-size="10.00">view.MenuView.getLocale</text>
</a>
</g>
</g>
<!-- Node2&#45;&gt;Node3 -->
<g id="edge2" class="edge"><title>Node2&#45;&gt;Node3</title>
<path fill="none" stroke="midnightblue" d="M302.179,-95.589C326.763,-100.694 357.186,-107.011 383.097,-112.392"/>
<polygon fill="midnightblue" stroke="midnightblue" points="382.651,-115.874 393.153,-114.48 384.074,-109.02 382.651,-115.874"/>
</g>
<!-- Node6 -->
<g id="node6" class="node"><title>Node6</title>
<g id="a_node6"><a xlink:href="../../d4/db1/classview_1_1_menu_view.html#a3e352dab72fffb4ce40d6c91d7ea7d58" target="_top" xlink:title="view.MenuView.setFile">
<polygon fill="white" stroke="black" points="380.5,-38.5 380.5,-57.5 499.5,-57.5 499.5,-38.5 380.5,-38.5"/>
<text text-anchor="middle" x="440" y="-45.5" font-family="Helvetica,sans-Serif" font-size="10.00">view.MenuView.setFile</text>
</a>
</g>
</g>
<!-- Node2&#45;&gt;Node6 -->
<g id="edge6" class="edge"><title>Node2&#45;&gt;Node6</title>
<path fill="none" stroke="midnightblue" d="M302.179,-76.411C326.763,-71.3061 357.186,-64.9887 383.097,-59.6082"/>
<polygon fill="midnightblue" stroke="midnightblue" points="384.074,-62.9802 393.153,-57.5201 382.651,-56.1264 384.074,-62.9802"/>
</g>
<!-- Node4 -->
<g id="node4" class="node"><title>Node4</title>
<g id="a_node4"><a xlink:href="../../d4/db1/classview_1_1_menu_view.html#aed39c72c611c501f766867823a4ae8b5" target="_top" xlink:title="view.MenuView.makeLanguageItem">
<polygon fill="white" stroke="black" points="544.5,-114.5 544.5,-133.5 729.5,-133.5 729.5,-114.5 544.5,-114.5"/>
<text text-anchor="middle" x="637" y="-121.5" font-family="Helvetica,sans-Serif" font-size="10.00">view.MenuView.makeLanguageItem</text>
</a>
</g>
</g>
<!-- Node3&#45;&gt;Node4 -->
<g id="edge3" class="edge"><title>Node3&#45;&gt;Node4</title>
<path fill="none" stroke="midnightblue" d="M508.108,-124C516.593,-124 525.419,-124 534.291,-124"/>
<polygon fill="midnightblue" stroke="midnightblue" points="534.313,-127.5 544.312,-124 534.312,-120.5 534.313,-127.5"/>
</g>
<!-- Node4&#45;&gt;Node2 -->
<g id="edge5" class="edge"><title>Node4&#45;&gt;Node2</title>
<path fill="none" stroke="midnightblue" d="M577.811,-114.458C555.964,-111.113 530.885,-107.558 508,-105 454.267,-98.9942 393.87,-94.3677 345.677,-91.1843"/>
<polygon fill="midnightblue" stroke="midnightblue" points="345.791,-87.6844 335.585,-90.5269 345.336,-94.6696 345.791,-87.6844"/>
</g>
<!-- Node5 -->
<g id="node5" class="node"><title>Node5</title>
<g id="a_node5"><a xlink:href="../../d4/db1/classview_1_1_menu_view.html#aa3be4d8cd01aebaadf5b02d4f74028ce" target="_top" xlink:title="view.MenuView.clear">
<polygon fill="white" stroke="black" points="766.5,-114.5 766.5,-133.5 879.5,-133.5 879.5,-114.5 766.5,-114.5"/>
<text text-anchor="middle" x="823" y="-121.5" font-family="Helvetica,sans-Serif" font-size="10.00">view.MenuView.clear</text>
</a>
</g>
</g>
<!-- Node4&#45;&gt;Node5 -->
<g id="edge4" class="edge"><title>Node4&#45;&gt;Node5</title>
<path fill="none" stroke="midnightblue" d="M729.73,-124C738.626,-124 747.525,-124 756.095,-124"/>
<polygon fill="midnightblue" stroke="midnightblue" points="756.362,-127.5 766.362,-124 756.362,-120.5 756.362,-127.5"/>
</g>
<!-- Node7 -->
<g id="node7" class="node"><title>Node7</title>
<g id="a_node7"><a xlink:href="../../d4/db1/classview_1_1_menu_view.html#a33d47eb47a1b9578dc9eae360ab777a9" target="_top" xlink:title="view.MenuView.newFile">
<polygon fill="white" stroke="black" points="575.5,-76.5 575.5,-95.5 698.5,-95.5 698.5,-76.5 575.5,-76.5"/>
<text text-anchor="middle" x="637" y="-83.5" font-family="Helvetica,sans-Serif" font-size="10.00">view.MenuView.newFile</text>
</a>
</g>
</g>
<!-- Node6&#45;&gt;Node7 -->
<g id="edge7" class="edge"><title>Node6&#45;&gt;Node7</title>
<path fill="none" stroke="midnightblue" d="M489.955,-57.54C516.381,-62.6896 549.194,-69.084 577.02,-74.5065"/>
<polygon fill="midnightblue" stroke="midnightblue" points="576.54,-77.9787 587.025,-76.4561 577.879,-71.1079 576.54,-77.9787"/>
</g>
<!-- Node8 -->
<g id="node8" class="node"><title>Node8</title>
<g id="a_node8"><a xlink:href="../../d4/db1/classview_1_1_menu_view.html#af12d4e01bcb842629aebbaa00a386de2" target="_top" xlink:title="view.MenuView.openFile">
<polygon fill="white" stroke="black" points="573,-38.5 573,-57.5 701,-57.5 701,-38.5 573,-38.5"/>
<text text-anchor="middle" x="637" y="-45.5" font-family="Helvetica,sans-Serif" font-size="10.00">view.MenuView.openFile</text>
</a>
</g>
</g>
<!-- Node6&#45;&gt;Node8 -->
<g id="edge8" class="edge"><title>Node6&#45;&gt;Node8</title>
<path fill="none" stroke="midnightblue" d="M499.506,-48C519.367,-48 541.811,-48 562.678,-48"/>
<polygon fill="midnightblue" stroke="midnightblue" points="562.778,-51.5001 572.777,-48 562.777,-44.5001 562.778,-51.5001"/>
</g>
<!-- Node9 -->
<g id="node9" class="node"><title>Node9</title>
<g id="a_node9"><a xlink:href="../../d4/db1/classview_1_1_menu_view.html#a18d792fe8e7ffa13ab441172e110b9db" target="_top" xlink:title="view.MenuView.saveFile">
<polygon fill="white" stroke="black" points="573.5,-0.5 573.5,-19.5 700.5,-19.5 700.5,-0.5 573.5,-0.5"/>
<text text-anchor="middle" x="637" y="-7.5" font-family="Helvetica,sans-Serif" font-size="10.00">view.MenuView.saveFile</text>
</a>
</g>
</g>
<!-- Node6&#45;&gt;Node9 -->
<g id="edge9" class="edge"><title>Node6&#45;&gt;Node9</title>
<path fill="none" stroke="midnightblue" d="M489.955,-38.46C516.381,-33.3104 549.194,-26.916 577.02,-21.4935"/>
<polygon fill="midnightblue" stroke="midnightblue" points="577.879,-24.8921 587.025,-19.5439 576.54,-18.0213 577.879,-24.8921"/>
</g>
</g>
</svg>
