<?xml version="1.0" encoding="UTF-8" standalone="no"?>
<!DOCTYPE svg PUBLIC "-//W3C//DTD SVG 1.1//EN"
 "http://www.w3.org/Graphics/SVG/1.1/DTD/svg11.dtd">
<!-- Generated by graphviz version 2.36.0 (20140111.2315)
 -->
<!-- Title: view.MenuView.makeLanguageItem Pages: 1 -->
<svg width="738pt" height="47pt"
 viewBox="0.00 0.00 738.00 47.00" xmlns="http://www.w3.org/2000/svg" xmlns:xlink="http://www.w3.org/1999/xlink">
<g id="graph0" class="graph" transform="scale(1 1) rotate(0) translate(4 43)">
<title>view.MenuView.makeLanguageItem</title>
<polygon fill="white" stroke="none" points="-4,4 -4,-43 734,-43 734,4 -4,4"/>
<!-- Node1 -->
<g id="node1" class="node"><title>Node1</title>
<polygon fill="#bfbfbf" stroke="black" points="0.5,-0.5 0.5,-19.5 185.5,-19.5 185.5,-0.5 0.5,-0.5"/>
<text text-anchor="middle" x="93" y="-7.5" font-family="Helvetica,sans-Serif" font-size="10.00">view.MenuView.makeLanguageItem</text>
</g>
<!-- Node2 -->
<g id="node2" class="node"><title>Node2</title>
<g id="a_node2"><a xlink:href="../../d4/db1/classview_1_1_menu_view.html#ae9198689f86964211100210cb784c14e" target="_top" xlink:title="view.MenuView.getLocale">
<polygon fill="white" stroke="black" points="222,-19.5 222,-38.5 358,-38.5 358,-19.5 222,-19.5"/>
<text text-anchor="middle" x="290" y="-26.5" font-family="Helvetica,sans-Serif" font-size="10.00">view.MenuView.getLocale</text>
</a>
</g>
</g>
<!-- Node1&#45;&gt;Node2 -->
<g id="edge1" class="edge"><title>Node1&#45;&gt;Node2</title>
<path fill="none" stroke="midnightblue" d="M195.583,-19.8978C204.506,-20.7672 213.383,-21.6322 221.916,-22.4636"/>
<polygon fill="midnightblue" stroke="midnightblue" points="195.797,-16.4022 185.505,-18.9159 195.118,-23.3692 195.797,-16.4022"/>
</g>
<!-- Node3 -->
<g id="node3" class="node"><title>Node3</title>
<g id="a_node3"><a xlink:href="../../d4/db1/classview_1_1_menu_view.html#aab261b4132aef3d62fc610d0e259d126" target="_top" xlink:title="view.MenuView.createFileMenu">
<polygon fill="white" stroke="black" points="394.5,-0.5 394.5,-19.5 555.5,-19.5 555.5,-0.5 394.5,-0.5"/>
<text text-anchor="middle" x="475" y="-7.5" font-family="Helvetica,sans-Serif" font-size="10.00">view.MenuView.createFileMenu</text>
</a>
</g>
</g>
<!-- Node2&#45;&gt;Node3 -->
<g id="edge2" class="edge"><title>Node2&#45;&gt;Node3</title>
<path fill="none" stroke="midnightblue" d="M368.207,-20.9839C376.9,-20.0814 385.769,-19.1606 394.49,-18.2551"/>
<polygon fill="midnightblue" stroke="midnightblue" points="367.688,-17.5189 358.103,-22.033 368.411,-24.4815 367.688,-17.5189"/>
</g>
<!-- Node3&#45;&gt;Node1 -->
<g id="edge3" class="edge"><title>Node3&#45;&gt;Node1</title>
<path fill="none" stroke="midnightblue" d="M384.039,-10C324.15,-10 245.708,-10 185.503,-10"/>
<polygon fill="midnightblue" stroke="midnightblue" points="384.24,-13.5001 394.24,-10 384.24,-6.5001 384.24,-13.5001"/>
</g>
<!-- Node4 -->
<g id="node4" class="node"><title>Node4</title>
<g id="a_node4"><a xlink:href="../../d4/db1/classview_1_1_menu_view.html#a14aaba9bd102863ec179fb03aef984b8" target="_top" xlink:title="view.MenuView.MenuView">
<polygon fill="white" stroke="black" points="592.5,-0.5 592.5,-19.5 729.5,-19.5 729.5,-0.5 592.5,-0.5"/>
<text text-anchor="middle" x="661" y="-7.5" font-family="Helvetica,sans-Serif" font-size="10.00">view.MenuView.MenuView</text>
</a>
</g>
</g>
<!-- Node3&#45;&gt;Node4 -->
<g id="edge4" class="edge"><title>Node3&#45;&gt;Node4</title>
<path fill="none" stroke="midnightblue" d="M565.722,-10C574.684,-10 583.674,-10 592.353,-10"/>
<polygon fill="midnightblue" stroke="midnightblue" points="565.635,-6.5001 555.635,-10 565.635,-13.5001 565.635,-6.5001"/>
</g>
</g>
</svg>
