<?xml version="1.0" encoding="UTF-8" standalone="no"?>
<!DOCTYPE svg PUBLIC "-//W3C//DTD SVG 1.1//EN"
 "http://www.w3.org/Graphics/SVG/1.1/DTD/svg11.dtd">
<!-- Generated by graphviz version 2.36.0 (20140111.2315)
 -->
<!-- Title: view.MenuView.getLocale Pages: 1 -->
<svg width="564pt" height="66pt"
 viewBox="0.00 0.00 564.00 66.00" xmlns="http://www.w3.org/2000/svg" xmlns:xlink="http://www.w3.org/1999/xlink">
<g id="graph0" class="graph" transform="scale(1 1) rotate(0) translate(4 62)">
<title>view.MenuView.getLocale</title>
<polygon fill="white" stroke="none" points="-4,4 -4,-62 560,-62 560,4 -4,4"/>
<!-- Node1 -->
<g id="node1" class="node"><title>Node1</title>
<polygon fill="#bfbfbf" stroke="black" points="0,-19.5 0,-38.5 136,-38.5 136,-19.5 0,-19.5"/>
<text text-anchor="middle" x="68" y="-26.5" font-family="Helvetica,sans-Serif" font-size="10.00">view.MenuView.getLocale</text>
</g>
<!-- Node2 -->
<g id="node2" class="node"><title>Node2</title>
<g id="a_node2"><a xlink:href="../../d4/db1/classview_1_1_menu_view.html#aab261b4132aef3d62fc610d0e259d126" target="_top" xlink:title="view.MenuView.createFileMenu">
<polygon fill="white" stroke="black" points="172.5,-0.5 172.5,-19.5 333.5,-19.5 333.5,-0.5 172.5,-0.5"/>
<text text-anchor="middle" x="253" y="-7.5" font-family="Helvetica,sans-Serif" font-size="10.00">view.MenuView.createFileMenu</text>
</a>
</g>
</g>
<!-- Node1&#45;&gt;Node2 -->
<g id="edge1" class="edge"><title>Node1&#45;&gt;Node2</title>
<path fill="none" stroke="midnightblue" d="M146.207,-20.9839C154.9,-20.0814 163.769,-19.1606 172.49,-18.2551"/>
<polygon fill="midnightblue" stroke="midnightblue" points="145.688,-17.5189 136.103,-22.033 146.411,-24.4815 145.688,-17.5189"/>
</g>
<!-- Node3 -->
<g id="node3" class="node"><title>Node3</title>
<g id="a_node3"><a xlink:href="../../d4/db1/classview_1_1_menu_view.html#aed39c72c611c501f766867823a4ae8b5" target="_top" xlink:title="view.MenuView.makeLanguageItem">
<polygon fill="white" stroke="black" points="370.5,-38.5 370.5,-57.5 555.5,-57.5 555.5,-38.5 370.5,-38.5"/>
<text text-anchor="middle" x="463" y="-45.5" font-family="Helvetica,sans-Serif" font-size="10.00">view.MenuView.makeLanguageItem</text>
</a>
</g>
</g>
<!-- Node2&#45;&gt;Node3 -->
<g id="edge2" class="edge"><title>Node2&#45;&gt;Node3</title>
<path fill="none" stroke="midnightblue" d="M316.11,-21.347C345.953,-26.7991 381.322,-33.2607 409.76,-38.4561"/>
<polygon fill="midnightblue" stroke="midnightblue" points="316.685,-17.8942 306.219,-19.54 315.427,-24.7802 316.685,-17.8942"/>
</g>
<!-- Node4 -->
<g id="node4" class="node"><title>Node4</title>
<g id="a_node4"><a xlink:href="../../d4/db1/classview_1_1_menu_view.html#a14aaba9bd102863ec179fb03aef984b8" target="_top" xlink:title="view.MenuView.MenuView">
<polygon fill="white" stroke="black" points="394.5,-0.5 394.5,-19.5 531.5,-19.5 531.5,-0.5 394.5,-0.5"/>
<text text-anchor="middle" x="463" y="-7.5" font-family="Helvetica,sans-Serif" font-size="10.00">view.MenuView.MenuView</text>
</a>
</g>
</g>
<!-- Node2&#45;&gt;Node4 -->
<g id="edge4" class="edge"><title>Node2&#45;&gt;Node4</title>
<path fill="none" stroke="midnightblue" d="M343.973,-10C360.881,-10 378.294,-10 394.378,-10"/>
<polygon fill="midnightblue" stroke="midnightblue" points="343.526,-6.5001 333.526,-10 343.526,-13.5001 343.526,-6.5001"/>
</g>
<!-- Node3&#45;&gt;Node1 -->
<g id="edge3" class="edge"><title>Node3&#45;&gt;Node1</title>
<path fill="none" stroke="midnightblue" d="M360.239,-43.0802C289.662,-39.6681 197.649,-35.2197 136.113,-32.2446"/>
<polygon fill="midnightblue" stroke="midnightblue" points="360.333,-46.5888 370.49,-43.5758 360.671,-39.5969 360.333,-46.5888"/>
</g>
</g>
</svg>
