<?xml version="1.0" encoding="UTF-8" standalone="no"?>
<!DOCTYPE svg PUBLIC "-//W3C//DTD SVG 1.1//EN"
 "http://www.w3.org/Graphics/SVG/1.1/DTD/svg11.dtd">
<!-- Generated by graphviz version 2.36.0 (20140111.2315)
 -->
<!-- Title: view.MenuView.createFileMenu Pages: 1 -->
<svg width="564pt" height="80pt"
 viewBox="0.00 0.00 564.00 80.44" xmlns="http://www.w3.org/2000/svg" xmlns:xlink="http://www.w3.org/1999/xlink">
<g id="graph0" class="graph" transform="scale(1 1) rotate(0) translate(4 76.4405)">
<title>view.MenuView.createFileMenu</title>
<polygon fill="white" stroke="none" points="-4,4 -4,-76.4405 560,-76.4405 560,4 -4,4"/>
<!-- Node1 -->
<g id="node1" class="node"><title>Node1</title>
<polygon fill="#bfbfbf" stroke="black" points="0.5,-14.9405 0.5,-33.9405 161.5,-33.9405 161.5,-14.9405 0.5,-14.9405"/>
<text text-anchor="middle" x="81" y="-21.9405" font-family="Helvetica,sans-Serif" font-size="10.00">view.MenuView.createFileMenu</text>
</g>
<!-- Node2 -->
<g id="node2" class="node"><title>Node2</title>
<g id="a_node2"><a xlink:href="../../d4/db1/classview_1_1_menu_view.html#aed39c72c611c501f766867823a4ae8b5" target="_top" xlink:title="view.MenuView.makeLanguageItem">
<polygon fill="white" stroke="black" points="198.5,-52.9405 198.5,-71.9405 383.5,-71.9405 383.5,-52.9405 198.5,-52.9405"/>
<text text-anchor="middle" x="291" y="-59.9405" font-family="Helvetica,sans-Serif" font-size="10.00">view.MenuView.makeLanguageItem</text>
</a>
</g>
</g>
<!-- Node1&#45;&gt;Node2 -->
<g id="edge1" class="edge"><title>Node1&#45;&gt;Node2</title>
<path fill="none" stroke="midnightblue" d="M144.11,-35.7874C173.953,-41.2396 209.322,-47.7011 237.76,-52.8966"/>
<polygon fill="midnightblue" stroke="midnightblue" points="144.685,-32.3347 134.219,-33.9804 143.427,-39.2207 144.685,-32.3347"/>
</g>
<!-- Node4 -->
<g id="node4" class="node"><title>Node4</title>
<g id="a_node4"><a xlink:href="../../d4/db1/classview_1_1_menu_view.html#a14aaba9bd102863ec179fb03aef984b8" target="_top" xlink:title="view.MenuView.MenuView">
<polygon fill="white" stroke="black" points="222.5,-14.9405 222.5,-33.9405 359.5,-33.9405 359.5,-14.9405 222.5,-14.9405"/>
<text text-anchor="middle" x="291" y="-21.9405" font-family="Helvetica,sans-Serif" font-size="10.00">view.MenuView.MenuView</text>
</a>
</g>
</g>
<!-- Node1&#45;&gt;Node4 -->
<g id="edge4" class="edge"><title>Node1&#45;&gt;Node4</title>
<path fill="none" stroke="midnightblue" d="M171.973,-24.4405C188.881,-24.4405 206.294,-24.4405 222.378,-24.4405"/>
<polygon fill="midnightblue" stroke="midnightblue" points="171.526,-20.9406 161.526,-24.4405 171.526,-27.9406 171.526,-20.9406"/>
</g>
<!-- Node3 -->
<g id="node3" class="node"><title>Node3</title>
<g id="a_node3"><a xlink:href="../../d4/db1/classview_1_1_menu_view.html#ae9198689f86964211100210cb784c14e" target="_top" xlink:title="view.MenuView.getLocale">
<polygon fill="white" stroke="black" points="420,-14.9405 420,-33.9405 556,-33.9405 556,-14.9405 420,-14.9405"/>
<text text-anchor="middle" x="488" y="-21.9405" font-family="Helvetica,sans-Serif" font-size="10.00">view.MenuView.getLocale</text>
</a>
</g>
</g>
<!-- Node2&#45;&gt;Node3 -->
<g id="edge2" class="edge"><title>Node2&#45;&gt;Node3</title>
<path fill="none" stroke="midnightblue" d="M350.959,-50.9511C378.782,-45.5291 411.596,-39.1346 438.025,-33.9844"/>
<polygon fill="midnightblue" stroke="midnightblue" points="350.101,-47.5523 340.955,-52.9005 351.44,-54.4231 350.101,-47.5523"/>
</g>
<!-- Node3&#45;&gt;Node1 -->
<g id="edge3" class="edge"><title>Node3&#45;&gt;Node1</title>
<path fill="none" stroke="midnightblue" d="M435.253,-12.9894C418.941,-9.89366 400.795,-6.9766 384,-5.44048 301.677,2.0889 280.394,1.26268 198,-5.44048 175.219,-7.29381 150.168,-11.1622 129.194,-14.9277"/>
<polygon fill="midnightblue" stroke="midnightblue" points="434.659,-16.4393 445.145,-14.9292 436.006,-9.57014 434.659,-16.4393"/>
</g>
</g>
</svg>
