<?xml version="1.0" encoding="UTF-8" standalone="no"?>
<!DOCTYPE svg PUBLIC "-//W3C//DTD SVG 1.1//EN"
 "http://www.w3.org/Graphics/SVG/1.1/DTD/svg11.dtd">
<!-- Generated by graphviz version 2.36.0 (20140111.2315)
 -->
<!-- Title: view.ResultsView.update Pages: 1 -->
<svg width="514pt" height="28pt"
 viewBox="0.00 0.00 514.00 28.00" xmlns="http://www.w3.org/2000/svg" xmlns:xlink="http://www.w3.org/1999/xlink">
<g id="graph0" class="graph" transform="scale(1 1) rotate(0) translate(4 24)">
<title>view.ResultsView.update</title>
<polygon fill="white" stroke="none" points="-4,4 -4,-24 510,-24 510,4 -4,4"/>
<!-- Node1 -->
<g id="node1" class="node"><title>Node1</title>
<polygon fill="#bfbfbf" stroke="black" points="0.5,-0.5 0.5,-19.5 131.5,-19.5 131.5,-0.5 0.5,-0.5"/>
<text text-anchor="middle" x="66" y="-7.5" font-family="Helvetica,sans-Serif" font-size="10.00">view.ResultsView.update</text>
</g>
<!-- Node2 -->
<g id="node2" class="node"><title>Node2</title>
<g id="a_node2"><a xlink:href="../../dc/da8/classview_1_1_history_results_view.html#a6a4386f2ddde878a8c42ca401a79aee5" target="_top" xlink:title="view.HistoryResultsView.update">
<polygon fill="white" stroke="black" points="168,-0.5 168,-19.5 332,-19.5 332,-0.5 168,-0.5"/>
<text text-anchor="middle" x="250" y="-7.5" font-family="Helvetica,sans-Serif" font-size="10.00">view.HistoryResultsView.update</text>
</a>
</g>
</g>
<!-- Node1&#45;&gt;Node2 -->
<g id="edge1" class="edge"><title>Node1&#45;&gt;Node2</title>
<path fill="none" stroke="midnightblue" d="M141.725,-10C150.379,-10 159.236,-10 167.969,-10"/>
<polygon fill="midnightblue" stroke="midnightblue" points="141.679,-6.5001 131.679,-10 141.679,-13.5001 141.679,-6.5001"/>
</g>
<!-- Node3 -->
<g id="node3" class="node"><title>Node3</title>
<g id="a_node3"><a xlink:href="../../d0/dfc/classview_1_1_slogo_window.html#a1605d0405c7961727ef7c3d96e41b743" target="_top" xlink:title="view.SlogoWindow.update">
<polygon fill="white" stroke="black" points="368.5,-0.5 368.5,-19.5 505.5,-19.5 505.5,-0.5 368.5,-0.5"/>
<text text-anchor="middle" x="437" y="-7.5" font-family="Helvetica,sans-Serif" font-size="10.00">view.SlogoWindow.update</text>
</a>
</g>
</g>
<!-- Node2&#45;&gt;Node3 -->
<g id="edge2" class="edge"><title>Node2&#45;&gt;Node3</title>
<path fill="none" stroke="midnightblue" d="M342.427,-10C351.208,-10 360.002,-10 368.492,-10"/>
<polygon fill="midnightblue" stroke="midnightblue" points="342.144,-6.5001 332.144,-10 342.144,-13.5001 342.144,-6.5001"/>
</g>
</g>
</svg>
