<?xml version="1.0" encoding="UTF-8" standalone="no"?>
<!DOCTYPE svg PUBLIC "-//W3C//DTD SVG 1.1//EN"
 "http://www.w3.org/Graphics/SVG/1.1/DTD/svg11.dtd">
<!-- Generated by graphviz version 2.36.0 (20140111.2315)
 -->
<!-- Title: model.Turtle Pages: 1 -->
<svg width="520pt" height="313pt"
 viewBox="0.00 0.00 520.00 313.00" xmlns="http://www.w3.org/2000/svg" xmlns:xlink="http://www.w3.org/1999/xlink">
<g id="graph0" class="graph" transform="scale(1 1) rotate(0) translate(4 309)">
<title>model.Turtle</title>
<polygon fill="white" stroke="none" points="-4,4 -4,-309 516,-309 516,4 -4,4"/>
<!-- Node1 -->
<g id="node1" class="node"><title>Node1</title>
<polygon fill="#bfbfbf" stroke="black" points="436.5,-156.5 436.5,-175.5 511.5,-175.5 511.5,-156.5 436.5,-156.5"/>
<text text-anchor="middle" x="474" y="-163.5" font-family="Helvetica,sans-Serif" font-size="10.00">model.Turtle</text>
</g>
<!-- Node2 -->
<g id="node2" class="node"><title>Node2</title>
<g id="a_node2"><a xlink:href="../../d5/dad/classmodel_1_1_turtle_abstract.html" target="_top" xlink:title="model.TurtleAbstract">
<polygon fill="white" stroke="black" points="192,-285.5 192,-304.5 308,-304.5 308,-285.5 192,-285.5"/>
<text text-anchor="middle" x="250" y="-292.5" font-family="Helvetica,sans-Serif" font-size="10.00">model.TurtleAbstract</text>
</a>
</g>
</g>
<!-- Node2&#45;&gt;Node1 -->
<g id="edge1" class="edge"><title>Node2&#45;&gt;Node1</title>
<path fill="none" stroke="midnightblue" d="M318.253,-287.175C350.787,-280.764 388.979,-269.122 418,-248 444.334,-228.834 461.875,-192.949 469.169,-175.719"/>
<polygon fill="midnightblue" stroke="midnightblue" points="317.553,-283.744 308.354,-289.001 318.823,-290.628 317.553,-283.744"/>
</g>
<!-- Node3 -->
<g id="node3" class="node"><title>Node3</title>
<g id="a_node3"><a xlink:href="../../d1/d69/interfacemodel_1_1_feature.html" target="_top" xlink:title="model.Feature">
<polygon fill="white" stroke="black" points="207,-247.5 207,-266.5 293,-266.5 293,-247.5 207,-247.5"/>
<text text-anchor="middle" x="250" y="-254.5" font-family="Helvetica,sans-Serif" font-size="10.00">model.Feature</text>
</a>
</g>
</g>
<!-- Node3&#45;&gt;Node1 -->
<g id="edge2" class="edge"><title>Node3&#45;&gt;Node1</title>
<path fill="none" stroke="midnightblue" d="M303.381,-253.4C337.703,-249.244 382.596,-240.289 418,-221 438.633,-209.759 456.627,-188.39 466.037,-175.854"/>
<polygon fill="midnightblue" stroke="midnightblue" points="302.644,-249.961 293.091,-254.542 303.416,-256.918 302.644,-249.961"/>
</g>
<!-- Node4 -->
<g id="node4" class="node"><title>Node4</title>
<polygon fill="white" stroke="#bfbfbf" points="4.5,-247.5 4.5,-266.5 75.5,-266.5 75.5,-247.5 4.5,-247.5"/>
<text text-anchor="middle" x="40" y="-254.5" font-family="Helvetica,sans-Serif" font-size="10.00">Serializable</text>
</g>
<!-- Node4&#45;&gt;Node3 -->
<g id="edge3" class="edge"><title>Node4&#45;&gt;Node3</title>
<path fill="none" stroke="midnightblue" d="M86.0046,-257C121.891,-257 171.78,-257 206.885,-257"/>
<polygon fill="midnightblue" stroke="midnightblue" points="85.8146,-253.5 75.8145,-257 85.8145,-260.5 85.8146,-253.5"/>
</g>
<!-- Node5 -->
<g id="node5" class="node"><title>Node5</title>
<polygon fill="white" stroke="#bfbfbf" points="226.5,-209.5 226.5,-228.5 273.5,-228.5 273.5,-209.5 226.5,-209.5"/>
<text text-anchor="middle" x="250" y="-216.5" font-family="Helvetica,sans-Serif" font-size="10.00">Tooltip</text>
</g>
<!-- Node5&#45;&gt;Node1 -->
<g id="edge4" class="edge"><title>Node5&#45;&gt;Node1</title>
<path fill="none" stroke="#9a32cd" stroke-dasharray="5,2" d="M283.803,-215.259C317.837,-210.881 372.366,-202.465 418,-189 429.912,-185.485 442.742,-180.212 453.011,-175.601"/>
<polygon fill="#9a32cd" stroke="#9a32cd" points="283.002,-211.832 273.511,-216.54 283.866,-218.778 283.002,-211.832"/>
<text text-anchor="middle" x="378" y="-209" font-family="Helvetica,sans-Serif" font-size="10.00"> myTurtleInfo</text>
</g>
<!-- Node6 -->
<g id="node6" class="node"><title>Node6</title>
<polygon fill="white" stroke="#bfbfbf" points="216,-171.5 216,-190.5 284,-190.5 284,-171.5 216,-171.5"/>
<text text-anchor="middle" x="250" y="-178.5" font-family="Helvetica,sans-Serif" font-size="10.00">ImageView</text>
</g>
<!-- Node6&#45;&gt;Node1 -->
<g id="edge5" class="edge"><title>Node6&#45;&gt;Node1</title>
<path fill="none" stroke="#9a32cd" stroke-dasharray="5,2" d="M294.278,-178.076C335.599,-175.284 397.186,-171.123 436.204,-168.486"/>
<polygon fill="#9a32cd" stroke="#9a32cd" points="293.977,-174.588 284.236,-178.754 294.449,-181.572 293.977,-174.588"/>
<text text-anchor="middle" x="378" y="-177" font-family="Helvetica,sans-Serif" font-size="10.00"> myImage</text>
</g>
<!-- Node7 -->
<g id="node7" class="node"><title>Node7</title>
<g id="a_node7"><a xlink:href="../../de/ded/classmodel_1_1_pen.html" target="_top" xlink:title="model.Pen">
<polygon fill="white" stroke="black" points="216,-133.5 216,-152.5 284,-152.5 284,-133.5 216,-133.5"/>
<text text-anchor="middle" x="250" y="-140.5" font-family="Helvetica,sans-Serif" font-size="10.00">model.Pen</text>
</a>
</g>
</g>
<!-- Node7&#45;&gt;Node1 -->
<g id="edge6" class="edge"><title>Node7&#45;&gt;Node1</title>
<path fill="none" stroke="#9a32cd" stroke-dasharray="5,2" d="M294.089,-144.607C327.903,-146.227 376.102,-149.328 418,-155 423.983,-155.81 430.294,-156.873 436.423,-158.019"/>
<polygon fill="#9a32cd" stroke="#9a32cd" points="294.229,-141.11 284.08,-144.151 293.91,-148.103 294.229,-141.11"/>
<text text-anchor="middle" x="378" y="-158" font-family="Helvetica,sans-Serif" font-size="10.00"> myPen</text>
</g>
<!-- Node8 -->
<g id="node8" class="node"><title>Node8</title>
<polygon fill="white" stroke="#bfbfbf" points="0,-152.5 0,-171.5 80,-171.5 80,-152.5 0,-152.5"/>
<text text-anchor="middle" x="40" y="-159.5" font-family="Helvetica,sans-Serif" font-size="10.00">List&lt; Color &gt;</text>
</g>
<!-- Node8&#45;&gt;Node7 -->
<g id="edge7" class="edge"><title>Node8&#45;&gt;Node7</title>
<path fill="none" stroke="#9a32cd" stroke-dasharray="5,2" d="M90.1563,-157.51C128.944,-153.967 181.989,-149.121 215.878,-146.026"/>
<polygon fill="#9a32cd" stroke="#9a32cd" points="89.7633,-154.031 80.1232,-158.426 90.4002,-161.002 89.7633,-154.031"/>
<text text-anchor="middle" x="130" y="-159" font-family="Helvetica,sans-Serif" font-size="10.00"> myCustom</text>
</g>
<!-- Node9 -->
<g id="node9" class="node"><title>Node9</title>
<polygon fill="white" stroke="#bfbfbf" points="19.5,-114.5 19.5,-133.5 60.5,-133.5 60.5,-114.5 19.5,-114.5"/>
<text text-anchor="middle" x="40" y="-121.5" font-family="Helvetica,sans-Serif" font-size="10.00">Color</text>
</g>
<!-- Node9&#45;&gt;Node7 -->
<g id="edge8" class="edge"><title>Node9&#45;&gt;Node7</title>
<path fill="none" stroke="#9a32cd" stroke-dasharray="5,2" d="M70.5888,-126.703C108.944,-130.206 175.648,-136.3 215.725,-139.96"/>
<polygon fill="#9a32cd" stroke="#9a32cd" points="70.8451,-123.212 60.5681,-125.787 70.2083,-130.183 70.8451,-123.212"/>
<text text-anchor="middle" x="130" y="-137" font-family="Helvetica,sans-Serif" font-size="10.00"> myLineColor</text>
</g>
<!-- Node10 -->
<g id="node10" class="node"><title>Node10</title>
<polygon fill="white" stroke="#bfbfbf" points="226.5,-94.5 226.5,-113.5 273.5,-113.5 273.5,-94.5 226.5,-94.5"/>
<text text-anchor="middle" x="250" y="-101.5" font-family="Helvetica,sans-Serif" font-size="10.00">Image</text>
</g>
<!-- Node10&#45;&gt;Node1 -->
<g id="edge9" class="edge"><title>Node10&#45;&gt;Node1</title>
<path fill="none" stroke="#9a32cd" stroke-dasharray="5,2" d="M283.656,-101.89C318.336,-100.869 374.096,-102.768 418,-121 436.914,-128.854 454.425,-145.444 464.399,-156.137"/>
<polygon fill="#9a32cd" stroke="#9a32cd" points="283.461,-98.3951 273.607,-102.286 283.737,-105.39 283.461,-98.3951"/>
<text text-anchor="middle" x="378" y="-135" font-family="Helvetica,sans-Serif" font-size="10.00"> myDefaultOn</text>
<text text-anchor="middle" x="378" y="-124" font-family="Helvetica,sans-Serif" font-size="10.00">myDefaultOff</text>
</g>
<!-- Node11 -->
<g id="node11" class="node"><title>Node11</title>
<polygon fill="white" stroke="#bfbfbf" points="227,-38.5 227,-57.5 273,-57.5 273,-38.5 227,-38.5"/>
<text text-anchor="middle" x="250" y="-45.5" font-family="Helvetica,sans-Serif" font-size="10.00">Group</text>
</g>
<!-- Node11&#45;&gt;Node1 -->
<g id="edge10" class="edge"><title>Node11&#45;&gt;Node1</title>
<path fill="none" stroke="#9a32cd" stroke-dasharray="5,2" d="M283.109,-43.1952C319.063,-39.5642 377.578,-39.0719 418,-66 450.65,-87.7504 465.696,-135.676 470.838,-156.276"/>
<polygon fill="#9a32cd" stroke="#9a32cd" points="282.695,-39.7197 273.16,-44.3389 283.494,-46.6739 282.695,-39.7197"/>
<text text-anchor="middle" x="378" y="-91" font-family="Helvetica,sans-Serif" font-size="10.00"> myLines</text>
<text text-anchor="middle" x="378" y="-80" font-family="Helvetica,sans-Serif" font-size="10.00">myStamps</text>
<text text-anchor="middle" x="378" y="-69" font-family="Helvetica,sans-Serif" font-size="10.00">myDrawing</text>
</g>
<!-- Node12 -->
<g id="node12" class="node"><title>Node12</title>
<polygon fill="white" stroke="#bfbfbf" points="180,-0.5 180,-19.5 320,-19.5 320,-0.5 180,-0.5"/>
<text text-anchor="middle" x="250" y="-7.5" font-family="Helvetica,sans-Serif" font-size="10.00">ObservableList&lt; Image &gt;</text>
</g>
<!-- Node12&#45;&gt;Node1 -->
<g id="edge11" class="edge"><title>Node12&#45;&gt;Node1</title>
<path fill="none" stroke="#9a32cd" stroke-dasharray="5,2" d="M330.447,-2.04355C360.51,-3.00589 393.379,-9.30396 418,-28 460.518,-60.2862 470.237,-130.587 472.4,-156.317"/>
<polygon fill="#9a32cd" stroke="#9a32cd" points="330.42,1.457 320.375,-1.91154 330.328,-5.54239 330.42,1.457"/>
<text text-anchor="middle" x="378" y="-31" font-family="Helvetica,sans-Serif" font-size="10.00"> myTurtleShapes</text>
</g>
</g>
</svg>
