<?xml version="1.0" encoding="UTF-8" standalone="no"?>
<!DOCTYPE svg PUBLIC "-//W3C//DTD SVG 1.1//EN"
 "http://www.w3.org/Graphics/SVG/1.1/DTD/svg11.dtd">
<!-- Generated by graphviz version 2.36.0 (20140111.2315)
 -->
<!-- Title: view.TurtleView Pages: 1 -->
<svg width="167pt" height="164pt"
 viewBox="0.00 0.00 167.00 164.00" xmlns="http://www.w3.org/2000/svg" xmlns:xlink="http://www.w3.org/1999/xlink">
<g id="graph0" class="graph" transform="scale(1 1) rotate(0) translate(4 160)">
<title>view.TurtleView</title>
<polygon fill="white" stroke="none" points="-4,4 -4,-160 163,-160 163,4 -4,4"/>
<!-- Node1 -->
<g id="node1" class="node"><title>Node1</title>
<polygon fill="#bfbfbf" stroke="black" points="61,-0.5 61,-19.5 147,-19.5 147,-0.5 61,-0.5"/>
<text text-anchor="middle" x="104" y="-7.5" font-family="Helvetica,sans-Serif" font-size="10.00">view.TurtleView</text>
</g>
<!-- Node2 -->
<g id="node2" class="node"><title>Node2</title>
<g id="a_node2"><a xlink:href="../../dc/dc4/classview_1_1_pane_view.html" target="_top" xlink:title="view.PaneView">
<polygon fill="white" stroke="black" points="0,-78.5 0,-97.5 84,-97.5 84,-78.5 0,-78.5"/>
<text text-anchor="middle" x="42" y="-85.5" font-family="Helvetica,sans-Serif" font-size="10.00">view.PaneView</text>
</a>
</g>
</g>
<!-- Node2&#45;&gt;Node1 -->
<g id="edge1" class="edge"><title>Node2&#45;&gt;Node1</title>
<path fill="none" stroke="midnightblue" d="M55.5077,-70.4421C68.2751,-54.7918 86.927,-31.9282 96.9708,-19.6165"/>
<polygon fill="midnightblue" stroke="midnightblue" points="52.7215,-68.3207 49.1122,-78.2818 58.1455,-72.7456 52.7215,-68.3207"/>
</g>
<!-- Node3 -->
<g id="node3" class="node"><title>Node3</title>
<polygon fill="white" stroke="#bfbfbf" points="22,-136.5 22,-155.5 62,-155.5 62,-136.5 22,-136.5"/>
<text text-anchor="middle" x="42" y="-143.5" font-family="Helvetica,sans-Serif" font-size="10.00">Pane</text>
</g>
<!-- Node3&#45;&gt;Node2 -->
<g id="edge2" class="edge"><title>Node3&#45;&gt;Node2</title>
<path fill="none" stroke="midnightblue" d="M42,-125.953C42,-116.287 42,-105.031 42,-97.5052"/>
<polygon fill="midnightblue" stroke="midnightblue" points="38.5001,-126.25 42,-136.25 45.5001,-126.25 38.5001,-126.25"/>
</g>
<!-- Node4 -->
<g id="node4" class="node"><title>Node4</title>
<polygon fill="white" stroke="#bfbfbf" points="102,-78.5 102,-97.5 148,-97.5 148,-78.5 102,-78.5"/>
<text text-anchor="middle" x="125" y="-85.5" font-family="Helvetica,sans-Serif" font-size="10.00">Group</text>
</g>
<!-- Node4&#45;&gt;Node1 -->
<g id="edge3" class="edge"><title>Node4&#45;&gt;Node1</title>
<path fill="none" stroke="#9a32cd" stroke-dasharray="5,2" d="M119.812,-68.2239C115.522,-52.6974 109.625,-31.3582 106.381,-19.6165"/>
<polygon fill="#9a32cd" stroke="#9a32cd" points="116.554,-69.5752 122.591,-78.2818 123.301,-67.7108 116.554,-69.5752"/>
<text text-anchor="middle" x="137.5" y="-52" font-family="Helvetica,sans-Serif" font-size="10.00"> myLines</text>
<text text-anchor="middle" x="137.5" y="-41" font-family="Helvetica,sans-Serif" font-size="10.00">myGrid</text>
</g>
</g>
</svg>
