<?xml version="1.0" encoding="UTF-8" standalone="no"?>
<!DOCTYPE svg PUBLIC "-//W3C//DTD SVG 1.1//EN"
 "http://www.w3.org/Graphics/SVG/1.1/DTD/svg11.dtd">
<!-- Generated by graphviz version 2.36.0 (20140111.2315)
 -->
<!-- Title: view.ScrollView.addTextBox Pages: 1 -->
<svg width="570pt" height="28pt"
 viewBox="0.00 0.00 570.00 28.00" xmlns="http://www.w3.org/2000/svg" xmlns:xlink="http://www.w3.org/1999/xlink">
<g id="graph0" class="graph" transform="scale(1 1) rotate(0) translate(4 24)">
<title>view.ScrollView.addTextBox</title>
<polygon fill="white" stroke="none" points="-4,4 -4,-24 566,-24 566,4 -4,4"/>
<!-- Node1 -->
<g id="node1" class="node"><title>Node1</title>
<polygon fill="#bfbfbf" stroke="black" points="0,-0.5 0,-19.5 144,-19.5 144,-0.5 0,-0.5"/>
<text text-anchor="middle" x="72" y="-7.5" font-family="Helvetica,sans-Serif" font-size="10.00">view.ScrollView.addTextBox</text>
</g>
<!-- Node2 -->
<g id="node2" class="node"><title>Node2</title>
<g id="a_node2"><a xlink:href="../../db/d98/classview_1_1_scroll_view.html#af8a9a83dc920350c521d6d78016cafce" target="_top" xlink:title="view.ScrollView.makeClickableText">
<polygon fill="white" stroke="black" points="180.5,-0.5 180.5,-19.5 357.5,-19.5 357.5,-0.5 180.5,-0.5"/>
<text text-anchor="middle" x="269" y="-7.5" font-family="Helvetica,sans-Serif" font-size="10.00">view.ScrollView.makeClickableText</text>
</a>
</g>
</g>
<!-- Node1&#45;&gt;Node2 -->
<g id="edge1" class="edge"><title>Node1&#45;&gt;Node2</title>
<path fill="none" stroke="midnightblue" d="M144.227,-10C152.673,-10 161.402,-10 170.136,-10"/>
<polygon fill="midnightblue" stroke="midnightblue" points="170.373,-13.5001 180.373,-10 170.373,-6.5001 170.373,-13.5001"/>
</g>
<!-- Node3 -->
<g id="node3" class="node"><title>Node3</title>
<g id="a_node3"><a xlink:href="../../d6/d0a/classview_1_1_input_view.html#a81954709509ce44f7fe364a24a613d66" target="_top" xlink:title="view.InputView.addAndShowText">
<polygon fill="white" stroke="black" points="394,-0.5 394,-19.5 562,-19.5 562,-0.5 394,-0.5"/>
<text text-anchor="middle" x="478" y="-7.5" font-family="Helvetica,sans-Serif" font-size="10.00">view.InputView.addAndShowText</text>
</a>
</g>
</g>
<!-- Node2&#45;&gt;Node3 -->
<g id="edge2" class="edge"><title>Node2&#45;&gt;Node3</title>
<path fill="none" stroke="midnightblue" d="M357.787,-10C366.34,-10 375.04,-10 383.646,-10"/>
<polygon fill="midnightblue" stroke="midnightblue" points="383.691,-13.5001 393.691,-10 383.691,-6.5001 383.691,-13.5001"/>
</g>
</g>
</svg>
