<?xml version="1.0" encoding="UTF-8" standalone="no"?>
<!DOCTYPE svg PUBLIC "-//W3C//DTD SVG 1.1//EN"
 "http://www.w3.org/Graphics/SVG/1.1/DTD/svg11.dtd">
<!-- Generated by graphviz version 2.36.0 (20140111.2315)
 -->
<!-- Title: view.ScrollView.makeClickableText Pages: 1 -->
<svg width="954pt" height="66pt"
 viewBox="0.00 0.00 954.00 66.00" xmlns="http://www.w3.org/2000/svg" xmlns:xlink="http://www.w3.org/1999/xlink">
<g id="graph0" class="graph" transform="scale(1 1) rotate(0) translate(4 62)">
<title>view.ScrollView.makeClickableText</title>
<polygon fill="white" stroke="none" points="-4,4 -4,-62 950,-62 950,4 -4,4"/>
<!-- Node1 -->
<g id="node1" class="node"><title>Node1</title>
<polygon fill="#bfbfbf" stroke="black" points="0.5,-19.5 0.5,-38.5 177.5,-38.5 177.5,-19.5 0.5,-19.5"/>
<text text-anchor="middle" x="89" y="-26.5" font-family="Helvetica,sans-Serif" font-size="10.00">view.ScrollView.makeClickableText</text>
</g>
<!-- Node2 -->
<g id="node2" class="node"><title>Node2</title>
<g id="a_node2"><a xlink:href="../../db/d98/classview_1_1_scroll_view.html#af810ea194b6bcd9c7c8da1f84ebd5ac2" target="_top" xlink:title="view.ScrollView.addTextBox">
<polygon fill="white" stroke="black" points="214,-19.5 214,-38.5 358,-38.5 358,-19.5 214,-19.5"/>
<text text-anchor="middle" x="286" y="-26.5" font-family="Helvetica,sans-Serif" font-size="10.00">view.ScrollView.addTextBox</text>
</a>
</g>
</g>
<!-- Node1&#45;&gt;Node2 -->
<g id="edge1" class="edge"><title>Node1&#45;&gt;Node2</title>
<path fill="none" stroke="midnightblue" d="M187.802,-29C196.576,-29 205.346,-29 213.829,-29"/>
<polygon fill="midnightblue" stroke="midnightblue" points="187.518,-25.5001 177.518,-29 187.518,-32.5001 187.518,-25.5001"/>
</g>
<!-- Node3 -->
<g id="node3" class="node"><title>Node3</title>
<g id="a_node3"><a xlink:href="../../d1/d0e/classview_1_1_history_view.html#abfcd825b67237a6c1a803a1314b223f3" target="_top" xlink:title="view.HistoryView.update">
<polygon fill="white" stroke="black" points="417.5,-38.5 417.5,-57.5 548.5,-57.5 548.5,-38.5 417.5,-38.5"/>
<text text-anchor="middle" x="483" y="-45.5" font-family="Helvetica,sans-Serif" font-size="10.00">view.HistoryView.update</text>
</a>
</g>
</g>
<!-- Node2&#45;&gt;Node3 -->
<g id="edge2" class="edge"><title>Node2&#45;&gt;Node3</title>
<path fill="none" stroke="midnightblue" d="M368.328,-36.9243C384.708,-38.5203 401.715,-40.1773 417.429,-41.7084"/>
<polygon fill="midnightblue" stroke="midnightblue" points="368.52,-33.4264 358.227,-35.9401 367.841,-40.3934 368.52,-33.4264"/>
</g>
<!-- Node6 -->
<g id="node6" class="node"><title>Node6</title>
<g id="a_node6"><a xlink:href="../../d9/d93/classview_1_1_basic_commands_view.html#a787c3d60d71cc35031fcc939758c25dc" target="_top" xlink:title="view.BasicCommandsView.update">
<polygon fill="white" stroke="black" points="394,-0.5 394,-19.5 572,-19.5 572,-0.5 394,-0.5"/>
<text text-anchor="middle" x="483" y="-7.5" font-family="Helvetica,sans-Serif" font-size="10.00">view.BasicCommandsView.update</text>
</a>
</g>
</g>
<!-- Node2&#45;&gt;Node6 -->
<g id="edge5" class="edge"><title>Node2&#45;&gt;Node6</title>
<path fill="none" stroke="midnightblue" d="M368.344,-21.0742C376.718,-20.2582 385.256,-19.4263 393.701,-18.6035"/>
<polygon fill="midnightblue" stroke="midnightblue" points="367.841,-17.6066 358.227,-22.0599 368.52,-24.5736 367.841,-17.6066"/>
</g>
<!-- Node4 -->
<g id="node4" class="node"><title>Node4</title>
<g id="a_node4"><a xlink:href="../../dc/da8/classview_1_1_history_results_view.html#a6a4386f2ddde878a8c42ca401a79aee5" target="_top" xlink:title="view.HistoryResultsView.update">
<polygon fill="white" stroke="black" points="608,-38.5 608,-57.5 772,-57.5 772,-38.5 608,-38.5"/>
<text text-anchor="middle" x="690" y="-45.5" font-family="Helvetica,sans-Serif" font-size="10.00">view.HistoryResultsView.update</text>
</a>
</g>
</g>
<!-- Node3&#45;&gt;Node4 -->
<g id="edge3" class="edge"><title>Node3&#45;&gt;Node4</title>
<path fill="none" stroke="midnightblue" d="M558.878,-48C574.783,-48 591.647,-48 607.776,-48"/>
<polygon fill="midnightblue" stroke="midnightblue" points="558.582,-44.5001 548.582,-48 558.582,-51.5001 558.582,-44.5001"/>
</g>
<!-- Node5 -->
<g id="node5" class="node"><title>Node5</title>
<g id="a_node5"><a xlink:href="../../d0/dfc/classview_1_1_slogo_window.html#a1605d0405c7961727ef7c3d96e41b743" target="_top" xlink:title="view.SlogoWindow.update">
<polygon fill="white" stroke="black" points="808.5,-19.5 808.5,-38.5 945.5,-38.5 945.5,-19.5 808.5,-19.5"/>
<text text-anchor="middle" x="877" y="-26.5" font-family="Helvetica,sans-Serif" font-size="10.00">view.SlogoWindow.update</text>
</a>
</g>
</g>
<!-- Node4&#45;&gt;Node5 -->
<g id="edge4" class="edge"><title>Node4&#45;&gt;Node5</title>
<path fill="none" stroke="midnightblue" d="M782.141,-38.6396C791.017,-37.728 799.91,-36.8147 808.492,-35.9333"/>
<polygon fill="midnightblue" stroke="midnightblue" points="781.734,-35.1629 772.144,-39.6663 782.449,-42.1263 781.734,-35.1629"/>
</g>
<!-- Node7 -->
<g id="node7" class="node"><title>Node7</title>
<g id="a_node7"><a xlink:href="../../de/d2f/classview_1_1_data_view.html#ab1acc31f3125a6a1d52e21b05bae379b" target="_top" xlink:title="view.DataView.update">
<polygon fill="white" stroke="black" points="630,-0.5 630,-19.5 750,-19.5 750,-0.5 630,-0.5"/>
<text text-anchor="middle" x="690" y="-7.5" font-family="Helvetica,sans-Serif" font-size="10.00">view.DataView.update</text>
</a>
</g>
</g>
<!-- Node6&#45;&gt;Node7 -->
<g id="edge6" class="edge"><title>Node6&#45;&gt;Node7</title>
<path fill="none" stroke="midnightblue" d="M582.248,-10C598.555,-10 615.006,-10 629.946,-10"/>
<polygon fill="midnightblue" stroke="midnightblue" points="582.128,-6.5001 572.128,-10 582.128,-13.5001 582.128,-6.5001"/>
</g>
<!-- Node7&#45;&gt;Node5 -->
<g id="edge7" class="edge"><title>Node7&#45;&gt;Node5</title>
<path fill="none" stroke="midnightblue" d="M760.199,-17.1069C775.893,-18.7187 792.544,-20.4289 808.181,-22.0348"/>
<polygon fill="midnightblue" stroke="midnightblue" points="760.349,-13.604 750.044,-16.064 759.634,-20.5674 760.349,-13.604"/>
</g>
</g>
</svg>
