<?xml version="1.0" encoding="UTF-8" standalone="no"?>
<!DOCTYPE svg PUBLIC "-//W3C//DTD SVG 1.1//EN"
 "http://www.w3.org/Graphics/SVG/1.1/DTD/svg11.dtd">
<!-- Generated by graphviz version 2.36.0 (20140111.2315)
 -->
<!-- Title: view.ScrollView.addTextBox Pages: 1 -->
<svg width="740pt" height="66pt"
 viewBox="0.00 0.00 740.00 66.00" xmlns="http://www.w3.org/2000/svg" xmlns:xlink="http://www.w3.org/1999/xlink">
<g id="graph0" class="graph" transform="scale(1 1) rotate(0) translate(4 62)">
<title>view.ScrollView.addTextBox</title>
<polygon fill="white" stroke="none" points="-4,4 -4,-62 736,-62 736,4 -4,4"/>
<!-- Node1 -->
<g id="node1" class="node"><title>Node1</title>
<polygon fill="#bfbfbf" stroke="black" points="0,-19.5 0,-38.5 144,-38.5 144,-19.5 0,-19.5"/>
<text text-anchor="middle" x="72" y="-26.5" font-family="Helvetica,sans-Serif" font-size="10.00">view.ScrollView.addTextBox</text>
</g>
<!-- Node2 -->
<g id="node2" class="node"><title>Node2</title>
<g id="a_node2"><a xlink:href="../../d1/d0e/classview_1_1_history_view.html#abfcd825b67237a6c1a803a1314b223f3" target="_top" xlink:title="view.HistoryView.update">
<polygon fill="white" stroke="black" points="203.5,-38.5 203.5,-57.5 334.5,-57.5 334.5,-38.5 203.5,-38.5"/>
<text text-anchor="middle" x="269" y="-45.5" font-family="Helvetica,sans-Serif" font-size="10.00">view.HistoryView.update</text>
</a>
</g>
</g>
<!-- Node1&#45;&gt;Node2 -->
<g id="edge1" class="edge"><title>Node1&#45;&gt;Node2</title>
<path fill="none" stroke="midnightblue" d="M154.328,-36.9243C170.708,-38.5203 187.715,-40.1773 203.429,-41.7084"/>
<polygon fill="midnightblue" stroke="midnightblue" points="154.52,-33.4264 144.227,-35.9401 153.841,-40.3934 154.52,-33.4264"/>
</g>
<!-- Node5 -->
<g id="node5" class="node"><title>Node5</title>
<g id="a_node5"><a xlink:href="../../d9/d93/classview_1_1_basic_commands_view.html#a787c3d60d71cc35031fcc939758c25dc" target="_top" xlink:title="view.BasicCommandsView.update">
<polygon fill="white" stroke="black" points="180,-0.5 180,-19.5 358,-19.5 358,-0.5 180,-0.5"/>
<text text-anchor="middle" x="269" y="-7.5" font-family="Helvetica,sans-Serif" font-size="10.00">view.BasicCommandsView.update</text>
</a>
</g>
</g>
<!-- Node1&#45;&gt;Node5 -->
<g id="edge4" class="edge"><title>Node1&#45;&gt;Node5</title>
<path fill="none" stroke="midnightblue" d="M154.344,-21.0742C162.718,-20.2582 171.256,-19.4263 179.701,-18.6035"/>
<polygon fill="midnightblue" stroke="midnightblue" points="153.841,-17.6066 144.227,-22.0599 154.52,-24.5736 153.841,-17.6066"/>
</g>
<!-- Node3 -->
<g id="node3" class="node"><title>Node3</title>
<g id="a_node3"><a xlink:href="../../dc/da8/classview_1_1_history_results_view.html#a6a4386f2ddde878a8c42ca401a79aee5" target="_top" xlink:title="view.HistoryResultsView.update">
<polygon fill="white" stroke="black" points="394,-38.5 394,-57.5 558,-57.5 558,-38.5 394,-38.5"/>
<text text-anchor="middle" x="476" y="-45.5" font-family="Helvetica,sans-Serif" font-size="10.00">view.HistoryResultsView.update</text>
</a>
</g>
</g>
<!-- Node2&#45;&gt;Node3 -->
<g id="edge2" class="edge"><title>Node2&#45;&gt;Node3</title>
<path fill="none" stroke="midnightblue" d="M344.878,-48C360.783,-48 377.647,-48 393.776,-48"/>
<polygon fill="midnightblue" stroke="midnightblue" points="344.582,-44.5001 334.582,-48 344.582,-51.5001 344.582,-44.5001"/>
</g>
<!-- Node4 -->
<g id="node4" class="node"><title>Node4</title>
<g id="a_node4"><a xlink:href="../../d0/dfc/classview_1_1_slogo_window.html#a1605d0405c7961727ef7c3d96e41b743" target="_top" xlink:title="view.SlogoWindow.update">
<polygon fill="white" stroke="black" points="594.5,-19.5 594.5,-38.5 731.5,-38.5 731.5,-19.5 594.5,-19.5"/>
<text text-anchor="middle" x="663" y="-26.5" font-family="Helvetica,sans-Serif" font-size="10.00">view.SlogoWindow.update</text>
</a>
</g>
</g>
<!-- Node3&#45;&gt;Node4 -->
<g id="edge3" class="edge"><title>Node3&#45;&gt;Node4</title>
<path fill="none" stroke="midnightblue" d="M568.141,-38.6396C577.017,-37.728 585.91,-36.8147 594.492,-35.9333"/>
<polygon fill="midnightblue" stroke="midnightblue" points="567.734,-35.1629 558.144,-39.6663 568.449,-42.1263 567.734,-35.1629"/>
</g>
<!-- Node6 -->
<g id="node6" class="node"><title>Node6</title>
<g id="a_node6"><a xlink:href="../../de/d2f/classview_1_1_data_view.html#ab1acc31f3125a6a1d52e21b05bae379b" target="_top" xlink:title="view.DataView.update">
<polygon fill="white" stroke="black" points="416,-0.5 416,-19.5 536,-19.5 536,-0.5 416,-0.5"/>
<text text-anchor="middle" x="476" y="-7.5" font-family="Helvetica,sans-Serif" font-size="10.00">view.DataView.update</text>
</a>
</g>
</g>
<!-- Node5&#45;&gt;Node6 -->
<g id="edge5" class="edge"><title>Node5&#45;&gt;Node6</title>
<path fill="none" stroke="midnightblue" d="M368.248,-10C384.555,-10 401.006,-10 415.946,-10"/>
<polygon fill="midnightblue" stroke="midnightblue" points="368.128,-6.5001 358.128,-10 368.128,-13.5001 368.128,-6.5001"/>
</g>
<!-- Node6&#45;&gt;Node4 -->
<g id="edge6" class="edge"><title>Node6&#45;&gt;Node4</title>
<path fill="none" stroke="midnightblue" d="M546.199,-17.1069C561.893,-18.7187 578.544,-20.4289 594.181,-22.0348"/>
<polygon fill="midnightblue" stroke="midnightblue" points="546.349,-13.604 536.044,-16.064 545.634,-20.5674 546.349,-13.604"/>
</g>
</g>
</svg>
