<?xml version="1.0" encoding="UTF-8" standalone="no"?>
<!DOCTYPE svg PUBLIC "-//W3C//DTD SVG 1.1//EN"
 "http://www.w3.org/Graphics/SVG/1.1/DTD/svg11.dtd">
<!-- Generated by graphviz version 2.36.0 (20140111.2315)
 -->
<!-- Title: model.VariablesList Pages: 1 -->
<svg width="118pt" height="140pt"
 viewBox="0.00 0.00 118.00 140.00" xmlns="http://www.w3.org/2000/svg" xmlns:xlink="http://www.w3.org/1999/xlink">
<g id="graph0" class="graph" transform="scale(1 1) rotate(0) translate(4 136)">
<title>model.VariablesList</title>
<polygon fill="white" stroke="none" points="-4,4 -4,-136 114,-136 114,4 -4,4"/>
<!-- Node1 -->
<g id="node1" class="node"><title>Node1</title>
<polygon fill="#bfbfbf" stroke="black" points="0,-0.5 0,-19.5 110,-19.5 110,-0.5 0,-0.5"/>
<text text-anchor="middle" x="55" y="-7.5" font-family="Helvetica,sans-Serif" font-size="10.00">model.VariablesList</text>
</g>
<!-- Node2 -->
<g id="node2" class="node"><title>Node2</title>
<g id="a_node2"><a xlink:href="../../d1/d69/interfacemodel_1_1_feature.html" target="_top" xlink:title="model.Feature">
<polygon fill="white" stroke="black" points="12,-56.5 12,-75.5 98,-75.5 98,-56.5 12,-56.5"/>
<text text-anchor="middle" x="55" y="-63.5" font-family="Helvetica,sans-Serif" font-size="10.00">model.Feature</text>
</a>
</g>
</g>
<!-- Node2&#45;&gt;Node1 -->
<g id="edge1" class="edge"><title>Node2&#45;&gt;Node1</title>
<path fill="none" stroke="midnightblue" d="M55,-45.8045C55,-36.9102 55,-26.7798 55,-19.7511"/>
<polygon fill="midnightblue" stroke="midnightblue" points="51.5001,-46.083 55,-56.083 58.5001,-46.083 51.5001,-46.083"/>
</g>
<!-- Node3 -->
<g id="node3" class="node"><title>Node3</title>
<polygon fill="white" stroke="#bfbfbf" points="19.5,-112.5 19.5,-131.5 90.5,-131.5 90.5,-112.5 19.5,-112.5"/>
<text text-anchor="middle" x="55" y="-119.5" font-family="Helvetica,sans-Serif" font-size="10.00">Serializable</text>
</g>
<!-- Node3&#45;&gt;Node2 -->
<g id="edge2" class="edge"><title>Node3&#45;&gt;Node2</title>
<path fill="none" stroke="midnightblue" d="M55,-101.805C55,-92.9102 55,-82.7798 55,-75.7511"/>
<polygon fill="midnightblue" stroke="midnightblue" points="51.5001,-102.083 55,-112.083 58.5001,-102.083 51.5001,-102.083"/>
</g>
</g>
</svg>
