<?xml version="1.0" encoding="UTF-8" standalone="no"?>
<!DOCTYPE svg PUBLIC "-//W3C//DTD SVG 1.1//EN"
 "http://www.w3.org/Graphics/SVG/1.1/DTD/svg11.dtd">
<!-- Generated by graphviz version 2.36.0 (20140111.2315)
 -->
<!-- Title: instructions.commands.ID.execute Pages: 1 -->
<svg width="384pt" height="77pt"
 viewBox="0.00 0.00 384.00 77.00" xmlns="http://www.w3.org/2000/svg" xmlns:xlink="http://www.w3.org/1999/xlink">
<g id="graph0" class="graph" transform="scale(1 1) rotate(0) translate(4 73)">
<title>instructions.commands.ID.execute</title>
<polygon fill="white" stroke="none" points="-4,4 -4,-73 380,-73 380,4 -4,4"/>
<!-- Node1 -->
<g id="node1" class="node"><title>Node1</title>
<polygon fill="#bfbfbf" stroke="black" points="0.5,-27.5 0.5,-46.5 183.5,-46.5 183.5,-27.5 0.5,-27.5"/>
<text text-anchor="middle" x="92" y="-34.5" font-family="Helvetica,sans-Serif" font-size="10.00">instructions.commands.ID.execute</text>
</g>
<!-- Node2 -->
<g id="node2" class="node"><title>Node2</title>
<g id="a_node2"><a xlink:href="../../df/db7/classmodel_1_1_turtles_list.html#a5c7cd81e5525d490b10f3a310b0b2760" target="_top" xlink:title="model.TurtlesList.getActiveID">
<polygon fill="white" stroke="black" points="220.5,-49.5 220.5,-68.5 375.5,-68.5 375.5,-49.5 220.5,-49.5"/>
<text text-anchor="middle" x="298" y="-56.5" font-family="Helvetica,sans-Serif" font-size="10.00">model.TurtlesList.getActiveID</text>
</a>
</g>
</g>
<!-- Node1&#45;&gt;Node2 -->
<g id="edge1" class="edge"><title>Node1&#45;&gt;Node2</title>
<path fill="none" stroke="midnightblue" d="M181.291,-46.5216C190.961,-47.5645 200.799,-48.6254 210.448,-49.666"/>
<polygon fill="midnightblue" stroke="midnightblue" points="210.102,-53.1489 220.42,-50.7414 210.853,-46.1893 210.102,-53.1489"/>
</g>
<!-- Node3 -->
<g id="node3" class="node"><title>Node3</title>
<g id="a_node3"><a xlink:href="../../d8/d36/classmodel_1_1_observable_data.html#a062e866b404100bb3eb10a33b7c72fd7" target="_top" xlink:title="model.ObservableData.get\lTurtles">
<polygon fill="white" stroke="black" points="225,-0 225,-30 371,-30 371,-0 225,-0"/>
<text text-anchor="start" x="233" y="-18" font-family="Helvetica,sans-Serif" font-size="10.00">model.ObservableData.get</text>
<text text-anchor="middle" x="298" y="-7" font-family="Helvetica,sans-Serif" font-size="10.00">Turtles</text>
</a>
</g>
</g>
<!-- Node1&#45;&gt;Node3 -->
<g id="edge2" class="edge"><title>Node1&#45;&gt;Node3</title>
<path fill="none" stroke="midnightblue" d="M181.291,-27.4784C192.421,-26.2781 203.773,-25.0539 214.803,-23.8644"/>
<polygon fill="midnightblue" stroke="midnightblue" points="215.26,-27.3355 224.827,-22.7833 214.51,-20.3758 215.26,-27.3355"/>
</g>
</g>
</svg>
