<?xml version="1.0" encoding="UTF-8" standalone="no"?>
<!DOCTYPE svg PUBLIC "-//W3C//DTD SVG 1.1//EN"
 "http://www.w3.org/Graphics/SVG/1.1/DTD/svg11.dtd">
<!-- Generated by graphviz version 2.36.0 (20140111.2315)
 -->
<!-- Title: instructions.VariableInstruction.execute Pages: 1 -->
<svg width="438pt" height="77pt"
 viewBox="0.00 0.00 438.00 77.00" xmlns="http://www.w3.org/2000/svg" xmlns:xlink="http://www.w3.org/1999/xlink">
<g id="graph0" class="graph" transform="scale(1 1) rotate(0) translate(4 73)">
<title>instructions.VariableInstruction.execute</title>
<polygon fill="white" stroke="none" points="-4,4 -4,-73 434,-73 434,4 -4,4"/>
<!-- Node1 -->
<g id="node1" class="node"><title>Node1</title>
<polygon fill="#bfbfbf" stroke="black" points="0.5,-22.5 0.5,-41.5 205.5,-41.5 205.5,-22.5 0.5,-22.5"/>
<text text-anchor="middle" x="103" y="-29.5" font-family="Helvetica,sans-Serif" font-size="10.00">instructions.VariableInstruction.execute</text>
</g>
<!-- Node2 -->
<g id="node2" class="node"><title>Node2</title>
<g id="a_node2"><a xlink:href="../../dd/de9/classinstructions_1_1commands_1_1_do_times.html#ae42180528b9ce237a22652ccf7c4048a" target="_top" xlink:title="instructions.commands.Do\lTimes.execute">
<polygon fill="white" stroke="black" points="263,-39 263,-69 409,-69 409,-39 263,-39"/>
<text text-anchor="start" x="271" y="-57" font-family="Helvetica,sans-Serif" font-size="10.00">instructions.commands.Do</text>
<text text-anchor="middle" x="336" y="-46" font-family="Helvetica,sans-Serif" font-size="10.00">Times.execute</text>
</a>
</g>
</g>
<!-- Node1&#45;&gt;Node2 -->
<g id="edge1" class="edge"><title>Node1&#45;&gt;Node2</title>
<path fill="none" stroke="midnightblue" d="M214.204,-42.4957C230.68,-44.0648 247.3,-45.6477 262.719,-47.1161"/>
<polygon fill="midnightblue" stroke="midnightblue" points="214.263,-38.9855 203.976,-41.5216 213.6,-45.954 214.263,-38.9855"/>
</g>
<!-- Node3 -->
<g id="node3" class="node"><title>Node3</title>
<g id="a_node3"><a xlink:href="../../de/d23/classinstructions_1_1commands_1_1_for.html#afcedd294e27c3810d9f5c48ba871ad3a" target="_top" xlink:title="instructions.commands.For.execute">
<polygon fill="white" stroke="black" points="242,-0.5 242,-19.5 430,-19.5 430,-0.5 242,-0.5"/>
<text text-anchor="middle" x="336" y="-7.5" font-family="Helvetica,sans-Serif" font-size="10.00">instructions.commands.For.execute</text>
</a>
</g>
</g>
<!-- Node1&#45;&gt;Node3 -->
<g id="edge2" class="edge"><title>Node1&#45;&gt;Node3</title>
<path fill="none" stroke="midnightblue" d="M214.026,-21.5213C223.315,-20.6367 232.651,-19.7475 241.794,-18.8768"/>
<polygon fill="midnightblue" stroke="midnightblue" points="213.6,-18.046 203.976,-22.4784 214.263,-25.0145 213.6,-18.046"/>
</g>
</g>
</svg>
