<?xml version="1.0" encoding="UTF-8" standalone="no"?>
<!DOCTYPE svg PUBLIC "-//W3C//DTD SVG 1.1//EN"
 "http://www.w3.org/Graphics/SVG/1.1/DTD/svg11.dtd">
<!-- Generated by graphviz version 2.36.0 (20140111.2315)
 -->
<!-- Title: instructions.UserDefinedCommand Pages: 1 -->
<svg width="966pt" height="92pt"
 viewBox="0.00 0.00 966.00 92.07" xmlns="http://www.w3.org/2000/svg" xmlns:xlink="http://www.w3.org/1999/xlink">
<g id="graph0" class="graph" transform="scale(1 1) rotate(0) translate(4 88.0683)">
<title>instructions.UserDefinedCommand</title>
<polygon fill="white" stroke="none" points="-4,4 -4,-88.0683 962,-88.0683 962,4 -4,4"/>
<!-- Node1 -->
<g id="node1" class="node"><title>Node1</title>
<polygon fill="#bfbfbf" stroke="black" points="824,-23.0683 824,-53.0683 958,-53.0683 958,-23.0683 824,-23.0683"/>
<text text-anchor="start" x="832" y="-41.0683" font-family="Helvetica,sans-Serif" font-size="10.00">instructions.UserDefined</text>
<text text-anchor="middle" x="891" y="-30.0683" font-family="Helvetica,sans-Serif" font-size="10.00">Command</text>
</g>
<!-- Node2 -->
<g id="node2" class="node"><title>Node2</title>
<g id="a_node2"><a xlink:href="../../df/dcf/classinstructions_1_1_user_defined_instruction.html" target="_top" xlink:title="instructions.UserDefined\lInstruction">
<polygon fill="white" stroke="black" points="652,-23.0683 652,-53.0683 786,-53.0683 786,-23.0683 652,-23.0683"/>
<text text-anchor="start" x="660" y="-41.0683" font-family="Helvetica,sans-Serif" font-size="10.00">instructions.UserDefined</text>
<text text-anchor="middle" x="719" y="-30.0683" font-family="Helvetica,sans-Serif" font-size="10.00">Instruction</text>
</a>
</g>
</g>
<!-- Node2&#45;&gt;Node1 -->
<g id="edge1" class="edge"><title>Node2&#45;&gt;Node1</title>
<path fill="none" stroke="midnightblue" d="M796.487,-38.0683C805.658,-38.0683 814.963,-38.0683 823.967,-38.0683"/>
<polygon fill="midnightblue" stroke="midnightblue" points="796.213,-34.5684 786.213,-38.0683 796.213,-41.5684 796.213,-34.5684"/>
</g>
<!-- Node3 -->
<g id="node3" class="node"><title>Node3</title>
<g id="a_node3"><a xlink:href="../../d9/d85/classinstructions_1_1_parameter_instruction.html" target="_top" xlink:title="instructions.ParameterInstruction">
<polygon fill="white" stroke="black" points="366,-28.5683 366,-47.5683 542,-47.5683 542,-28.5683 366,-28.5683"/>
<text text-anchor="middle" x="454" y="-35.5683" font-family="Helvetica,sans-Serif" font-size="10.00">instructions.ParameterInstruction</text>
</a>
</g>
</g>
<!-- Node3&#45;&gt;Node2 -->
<g id="edge2" class="edge"><title>Node3&#45;&gt;Node2</title>
<path fill="none" stroke="midnightblue" d="M552.381,-38.0683C585.508,-38.0683 621.738,-38.0683 651.843,-38.0683"/>
<polygon fill="midnightblue" stroke="midnightblue" points="552.21,-34.5684 542.21,-38.0683 552.21,-41.5684 552.21,-34.5684"/>
</g>
<!-- Node4 -->
<g id="node4" class="node"><title>Node4</title>
<g id="a_node4"><a xlink:href="../../d2/d93/interfaceinstructions_1_1_instruction.html" target="_top" xlink:title="instructions.Instruction">
<polygon fill="white" stroke="black" points="129.5,-57.5683 129.5,-76.5683 254.5,-76.5683 254.5,-57.5683 129.5,-57.5683"/>
<text text-anchor="middle" x="192" y="-64.5683" font-family="Helvetica,sans-Serif" font-size="10.00">instructions.Instruction</text>
</a>
</g>
</g>
<!-- Node4&#45;&gt;Node1 -->
<g id="edge6" class="edge"><title>Node4&#45;&gt;Node1</title>
<path fill="none" stroke="#9a32cd" stroke-dasharray="5,2" d="M265.047,-67.2391C291.175,-67.2559 320.918,-67.2229 348,-67.0683 542.676,-65.9572 592.7,-85.2012 786,-62.0683 802.099,-60.1417 819.343,-56.7283 835.068,-53.0695"/>
<polygon fill="#9a32cd" stroke="#9a32cd" points="264.852,-63.739 254.849,-67.2299 264.845,-70.739 264.852,-63.739"/>
<text text-anchor="middle" x="597" y="-76.0683" font-family="Helvetica,sans-Serif" font-size="10.00"> myCommands</text>
</g>
<!-- Node4&#45;&gt;Node3 -->
<g id="edge3" class="edge"><title>Node4&#45;&gt;Node3</title>
<path fill="none" stroke="midnightblue" d="M264.748,-59.0656C296.634,-55.5092 334.413,-51.2953 367.728,-47.5794"/>
<polygon fill="midnightblue" stroke="midnightblue" points="264.167,-55.6087 254.616,-60.1957 264.943,-62.5655 264.167,-55.6087"/>
</g>
<!-- Node5 -->
<g id="node5" class="node"><title>Node5</title>
<polygon fill="white" stroke="#bfbfbf" points="0.5,-57.5683 0.5,-76.5683 71.5,-76.5683 71.5,-57.5683 0.5,-57.5683"/>
<text text-anchor="middle" x="36" y="-64.5683" font-family="Helvetica,sans-Serif" font-size="10.00">Serializable</text>
</g>
<!-- Node5&#45;&gt;Node4 -->
<g id="edge4" class="edge"><title>Node5&#45;&gt;Node4</title>
<path fill="none" stroke="midnightblue" d="M81.9576,-67.0683C96.758,-67.0683 113.481,-67.0683 129.305,-67.0683"/>
<polygon fill="midnightblue" stroke="midnightblue" points="81.5606,-63.5684 71.5606,-67.0683 81.5606,-70.5684 81.5606,-63.5684"/>
</g>
<!-- Node6 -->
<g id="node6" class="node"><title>Node6</title>
<polygon fill="white" stroke="#bfbfbf" points="110,-7.5683 110,-26.5683 274,-26.5683 274,-7.5683 110,-7.5683"/>
<text text-anchor="middle" x="192" y="-14.5683" font-family="Helvetica,sans-Serif" font-size="10.00">List&lt; instructions.Instruction &gt;</text>
</g>
<!-- Node6&#45;&gt;Node1 -->
<g id="edge7" class="edge"><title>Node6&#45;&gt;Node1</title>
<path fill="none" stroke="#9a32cd" stroke-dasharray="5,2" d="M284.382,-9.42946C401.183,-1.27357 609.418,7.85746 786,-13.0683 803.15,-15.1006 821.565,-18.9557 838.062,-23.0409"/>
<polygon fill="#9a32cd" stroke="#9a32cd" points="284.132,-5.93833 274.406,-10.1393 284.629,-12.9207 284.132,-5.93833"/>
<text text-anchor="middle" x="597" y="-5.0683" font-family="Helvetica,sans-Serif" font-size="10.00"> myVariables</text>
</g>
<!-- Node6&#45;&gt;Node3 -->
<g id="edge5" class="edge"><title>Node6&#45;&gt;Node3</title>
<path fill="none" stroke="#9a32cd" stroke-dasharray="5,2" d="M284.206,-24.435C310.653,-26.571 339.458,-28.8976 365.662,-31.014"/>
<polygon fill="#9a32cd" stroke="#9a32cd" points="284.445,-20.943 274.196,-23.6264 283.882,-27.9202 284.445,-20.943"/>
<text text-anchor="middle" x="320" y="-33.0683" font-family="Helvetica,sans-Serif" font-size="10.00"> myParams</text>
</g>
</g>
</svg>
