<?xml version="1.0" encoding="UTF-8" standalone="no"?>
<!DOCTYPE svg PUBLIC "-//W3C//DTD SVG 1.1//EN"
 "http://www.w3.org/Graphics/SVG/1.1/DTD/svg11.dtd">
<!-- Generated by graphviz version 2.36.0 (20140111.2315)
 -->
<!-- Title: view.VariablesView.update Pages: 1 -->
<svg width="726pt" height="77pt"
 viewBox="0.00 0.00 726.00 77.00" xmlns="http://www.w3.org/2000/svg" xmlns:xlink="http://www.w3.org/1999/xlink">
<g id="graph0" class="graph" transform="scale(1 1) rotate(0) translate(4 73)">
<title>view.VariablesView.update</title>
<polygon fill="white" stroke="none" points="-4,4 -4,-73 722,-73 722,4 -4,4"/>
<!-- Node1 -->
<g id="node1" class="node"><title>Node1</title>
<polygon fill="#bfbfbf" stroke="black" points="0,-22.5 0,-41.5 140,-41.5 140,-22.5 0,-22.5"/>
<text text-anchor="middle" x="70" y="-29.5" font-family="Helvetica,sans-Serif" font-size="10.00">view.VariablesView.update</text>
</g>
<!-- Node2 -->
<g id="node2" class="node"><title>Node2</title>
<g id="a_node2"><a xlink:href="../../d4/d36/classview_1_1_data_view_components.html#a05b49c46bdc53791b28b09bf91743124" target="_top" xlink:title="view.DataViewComponents.add\lTextBoxWithDeleteButton">
<polygon fill="white" stroke="black" points="176.5,-39 176.5,-69 343.5,-69 343.5,-39 176.5,-39"/>
<text text-anchor="start" x="184.5" y="-57" font-family="Helvetica,sans-Serif" font-size="10.00">view.DataViewComponents.add</text>
<text text-anchor="middle" x="260" y="-46" font-family="Helvetica,sans-Serif" font-size="10.00">TextBoxWithDeleteButton</text>
</a>
</g>
</g>
<!-- Node1&#45;&gt;Node2 -->
<g id="edge1" class="edge"><title>Node1&#45;&gt;Node2</title>
<path fill="none" stroke="midnightblue" d="M140.203,-40.0983C148.631,-41.0845 157.346,-42.1043 166.049,-43.1227"/>
<polygon fill="midnightblue" stroke="midnightblue" points="165.902,-46.6294 176.241,-44.3155 166.716,-39.6768 165.902,-46.6294"/>
</g>
<!-- Node5 -->
<g id="node5" class="node"><title>Node5</title>
<g id="a_node5"><a xlink:href="../../d6/d2c/classmodel_1_1_variables_list.html#a0e44325b4baffec7b6e4820f863eefea" target="_top" xlink:title="model.VariablesList.generate">
<polygon fill="white" stroke="black" points="182,-0.5 182,-19.5 338,-19.5 338,-0.5 182,-0.5"/>
<text text-anchor="middle" x="260" y="-7.5" font-family="Helvetica,sans-Serif" font-size="10.00">model.VariablesList.generate</text>
</a>
</g>
</g>
<!-- Node1&#45;&gt;Node5 -->
<g id="edge4" class="edge"><title>Node1&#45;&gt;Node5</title>
<path fill="none" stroke="midnightblue" d="M140.203,-23.9017C150.438,-22.704 161.096,-21.4569 171.641,-20.2229"/>
<polygon fill="midnightblue" stroke="midnightblue" points="172.174,-23.6844 181.7,-19.0458 171.361,-16.7319 172.174,-23.6844"/>
</g>
<!-- Node3 -->
<g id="node3" class="node"><title>Node3</title>
<g id="a_node3"><a xlink:href="../../d4/d36/classview_1_1_data_view_components.html#aaebf0a781dd02fe599176d57c2ea9a40" target="_top" xlink:title="view.DataViewComponents.make\lDeleteButton">
<polygon fill="white" stroke="black" points="380,-39 380,-69 556,-69 556,-39 380,-39"/>
<text text-anchor="start" x="388" y="-57" font-family="Helvetica,sans-Serif" font-size="10.00">view.DataViewComponents.make</text>
<text text-anchor="middle" x="468" y="-46" font-family="Helvetica,sans-Serif" font-size="10.00">DeleteButton</text>
</a>
</g>
</g>
<!-- Node2&#45;&gt;Node3 -->
<g id="edge2" class="edge"><title>Node2&#45;&gt;Node3</title>
<path fill="none" stroke="midnightblue" d="M343.601,-54C352.21,-54 361.016,-54 369.767,-54"/>
<polygon fill="midnightblue" stroke="midnightblue" points="369.999,-57.5001 379.999,-54 369.999,-50.5001 369.999,-57.5001"/>
</g>
<!-- Node4 -->
<g id="node4" class="node"><title>Node4</title>
<g id="a_node4"><a xlink:href="../../d1/d69/interfacemodel_1_1_feature.html#ad39db6a63efe12b76e6b070a633db99e" target="_top" xlink:title="model.Feature.remove">
<polygon fill="white" stroke="black" points="592.5,-44.5 592.5,-63.5 717.5,-63.5 717.5,-44.5 592.5,-44.5"/>
<text text-anchor="middle" x="655" y="-51.5" font-family="Helvetica,sans-Serif" font-size="10.00">model.Feature.remove</text>
</a>
</g>
</g>
<!-- Node3&#45;&gt;Node4 -->
<g id="edge3" class="edge"><title>Node3&#45;&gt;Node4</title>
<path fill="none" stroke="midnightblue" d="M556.083,-54C564.811,-54 573.604,-54 582.149,-54"/>
<polygon fill="midnightblue" stroke="midnightblue" points="582.428,-57.5001 592.428,-54 582.428,-50.5001 582.428,-57.5001"/>
</g>
</g>
</svg>
