<?xml version="1.0" encoding="UTF-8" standalone="no"?>
<!DOCTYPE svg PUBLIC "-//W3C//DTD SVG 1.1//EN"
 "http://www.w3.org/Graphics/SVG/1.1/DTD/svg11.dtd">
<!-- Generated by graphviz version 2.36.0 (20140111.2315)
 -->
<!-- Title: instructions.commands.Left Pages: 1 -->
<svg width="182pt" height="252pt"
 viewBox="0.00 0.00 182.00 252.00" xmlns="http://www.w3.org/2000/svg" xmlns:xlink="http://www.w3.org/1999/xlink">
<g id="graph0" class="graph" transform="scale(1 1) rotate(0) translate(4 248)">
<title>instructions.commands.Left</title>
<polygon fill="white" stroke="none" points="-4,4 -4,-248 178,-248 178,4 -4,4"/>
<!-- Node1 -->
<g id="node1" class="node"><title>Node1</title>
<polygon fill="#bfbfbf" stroke="black" points="12,-0.5 12,-19.5 162,-19.5 162,-0.5 12,-0.5"/>
<text text-anchor="middle" x="87" y="-7.5" font-family="Helvetica,sans-Serif" font-size="10.00">instructions.commands.Left</text>
</g>
<!-- Node2 -->
<g id="node2" class="node"><title>Node2</title>
<g id="a_node2"><a xlink:href="../../d0/d4c/classinstructions_1_1_unary_instruction.html" target="_top" xlink:title="instructions.UnaryInstruction">
<polygon fill="white" stroke="black" points="10,-56.5 10,-75.5 164,-75.5 164,-56.5 10,-56.5"/>
<text text-anchor="middle" x="87" y="-63.5" font-family="Helvetica,sans-Serif" font-size="10.00">instructions.UnaryInstruction</text>
</a>
</g>
</g>
<!-- Node2&#45;&gt;Node1 -->
<g id="edge1" class="edge"><title>Node2&#45;&gt;Node1</title>
<path fill="none" stroke="midnightblue" d="M87,-45.8045C87,-36.9102 87,-26.7798 87,-19.7511"/>
<polygon fill="midnightblue" stroke="midnightblue" points="83.5001,-46.083 87,-56.083 90.5001,-46.083 83.5001,-46.083"/>
</g>
<!-- Node3 -->
<g id="node3" class="node"><title>Node3</title>
<g id="a_node3"><a xlink:href="../../d9/d85/classinstructions_1_1_parameter_instruction.html" target="_top" xlink:title="instructions.ParameterInstruction">
<polygon fill="white" stroke="black" points="-1,-112.5 -1,-131.5 175,-131.5 175,-112.5 -1,-112.5"/>
<text text-anchor="middle" x="87" y="-119.5" font-family="Helvetica,sans-Serif" font-size="10.00">instructions.ParameterInstruction</text>
</a>
</g>
</g>
<!-- Node3&#45;&gt;Node2 -->
<g id="edge2" class="edge"><title>Node3&#45;&gt;Node2</title>
<path fill="none" stroke="midnightblue" d="M87,-101.805C87,-92.9102 87,-82.7798 87,-75.7511"/>
<polygon fill="midnightblue" stroke="midnightblue" points="83.5001,-102.083 87,-112.083 90.5001,-102.083 83.5001,-102.083"/>
</g>
<!-- Node4 -->
<g id="node4" class="node"><title>Node4</title>
<g id="a_node4"><a xlink:href="../../d2/d93/interfaceinstructions_1_1_instruction.html" target="_top" xlink:title="instructions.Instruction">
<polygon fill="white" stroke="black" points="24.5,-168.5 24.5,-187.5 149.5,-187.5 149.5,-168.5 24.5,-168.5"/>
<text text-anchor="middle" x="87" y="-175.5" font-family="Helvetica,sans-Serif" font-size="10.00">instructions.Instruction</text>
</a>
</g>
</g>
<!-- Node4&#45;&gt;Node3 -->
<g id="edge3" class="edge"><title>Node4&#45;&gt;Node3</title>
<path fill="none" stroke="midnightblue" d="M87,-157.805C87,-148.91 87,-138.78 87,-131.751"/>
<polygon fill="midnightblue" stroke="midnightblue" points="83.5001,-158.083 87,-168.083 90.5001,-158.083 83.5001,-158.083"/>
</g>
<!-- Node5 -->
<g id="node5" class="node"><title>Node5</title>
<polygon fill="white" stroke="#bfbfbf" points="51.5,-224.5 51.5,-243.5 122.5,-243.5 122.5,-224.5 51.5,-224.5"/>
<text text-anchor="middle" x="87" y="-231.5" font-family="Helvetica,sans-Serif" font-size="10.00">Serializable</text>
</g>
<!-- Node5&#45;&gt;Node4 -->
<g id="edge4" class="edge"><title>Node5&#45;&gt;Node4</title>
<path fill="none" stroke="midnightblue" d="M87,-213.805C87,-204.91 87,-194.78 87,-187.751"/>
<polygon fill="midnightblue" stroke="midnightblue" points="83.5001,-214.083 87,-224.083 90.5001,-214.083 83.5001,-214.083"/>
</g>
</g>
</svg>
