<?xml version="1.0" encoding="UTF-8" standalone="no"?>
<!DOCTYPE svg PUBLIC "-//W3C//DTD SVG 1.1//EN"
 "http://www.w3.org/Graphics/SVG/1.1/DTD/svg11.dtd">
<!-- Generated by graphviz version 2.36.0 (20140111.2315)
 -->
<!-- Title: instructions.UserDefinedCommand Pages: 1 -->
<svg width="182pt" height="276pt"
 viewBox="0.00 0.00 182.00 276.00" xmlns="http://www.w3.org/2000/svg" xmlns:xlink="http://www.w3.org/1999/xlink">
<g id="graph0" class="graph" transform="scale(1 1) rotate(0) translate(4 272)">
<title>instructions.UserDefinedCommand</title>
<polygon fill="white" stroke="none" points="-4,4 -4,-272 178,-272 178,4 -4,4"/>
<!-- Node1 -->
<g id="node1" class="node"><title>Node1</title>
<polygon fill="#bfbfbf" stroke="black" points="20,-1 20,-31 154,-31 154,-1 20,-1"/>
<text text-anchor="start" x="28" y="-19" font-family="Helvetica,sans-Serif" font-size="10.00">instructions.UserDefined</text>
<text text-anchor="middle" x="87" y="-8" font-family="Helvetica,sans-Serif" font-size="10.00">Command</text>
</g>
<!-- Node2 -->
<g id="node2" class="node"><title>Node2</title>
<g id="a_node2"><a xlink:href="../../df/dcf/classinstructions_1_1_user_defined_instruction.html" target="_top" xlink:title="instructions.UserDefined\lInstruction">
<polygon fill="white" stroke="black" points="20,-69 20,-99 154,-99 154,-69 20,-69"/>
<text text-anchor="start" x="28" y="-87" font-family="Helvetica,sans-Serif" font-size="10.00">instructions.UserDefined</text>
<text text-anchor="middle" x="87" y="-76" font-family="Helvetica,sans-Serif" font-size="10.00">Instruction</text>
</a>
</g>
</g>
<!-- Node2&#45;&gt;Node1 -->
<g id="edge1" class="edge"><title>Node2&#45;&gt;Node1</title>
<path fill="none" stroke="midnightblue" d="M87,-58.5322C87,-49.3606 87,-39.2449 87,-31.2931"/>
<polygon fill="midnightblue" stroke="midnightblue" points="83.5001,-58.6789 87,-68.679 90.5001,-58.679 83.5001,-58.6789"/>
</g>
<!-- Node3 -->
<g id="node3" class="node"><title>Node3</title>
<g id="a_node3"><a xlink:href="../../d9/d85/classinstructions_1_1_parameter_instruction.html" target="_top" xlink:title="instructions.ParameterInstruction">
<polygon fill="white" stroke="black" points="-1,-136.5 -1,-155.5 175,-155.5 175,-136.5 -1,-136.5"/>
<text text-anchor="middle" x="87" y="-143.5" font-family="Helvetica,sans-Serif" font-size="10.00">instructions.ParameterInstruction</text>
</a>
</g>
</g>
<!-- Node3&#45;&gt;Node2 -->
<g id="edge2" class="edge"><title>Node3&#45;&gt;Node2</title>
<path fill="none" stroke="midnightblue" d="M87,-126.371C87,-117.585 87,-107.272 87,-99.1408"/>
<polygon fill="midnightblue" stroke="midnightblue" points="83.5001,-126.403 87,-136.403 90.5001,-126.403 83.5001,-126.403"/>
</g>
<!-- Node4 -->
<g id="node4" class="node"><title>Node4</title>
<g id="a_node4"><a xlink:href="../../d2/d93/interfaceinstructions_1_1_instruction.html" target="_top" xlink:title="instructions.Instruction">
<polygon fill="white" stroke="black" points="24.5,-192.5 24.5,-211.5 149.5,-211.5 149.5,-192.5 24.5,-192.5"/>
<text text-anchor="middle" x="87" y="-199.5" font-family="Helvetica,sans-Serif" font-size="10.00">instructions.Instruction</text>
</a>
</g>
</g>
<!-- Node4&#45;&gt;Node3 -->
<g id="edge3" class="edge"><title>Node4&#45;&gt;Node3</title>
<path fill="none" stroke="midnightblue" d="M87,-181.805C87,-172.91 87,-162.78 87,-155.751"/>
<polygon fill="midnightblue" stroke="midnightblue" points="83.5001,-182.083 87,-192.083 90.5001,-182.083 83.5001,-182.083"/>
</g>
<!-- Node5 -->
<g id="node5" class="node"><title>Node5</title>
<polygon fill="white" stroke="#bfbfbf" points="51.5,-248.5 51.5,-267.5 122.5,-267.5 122.5,-248.5 51.5,-248.5"/>
<text text-anchor="middle" x="87" y="-255.5" font-family="Helvetica,sans-Serif" font-size="10.00">Serializable</text>
</g>
<!-- Node5&#45;&gt;Node4 -->
<g id="edge4" class="edge"><title>Node5&#45;&gt;Node4</title>
<path fill="none" stroke="midnightblue" d="M87,-237.805C87,-228.91 87,-218.78 87,-211.751"/>
<polygon fill="midnightblue" stroke="midnightblue" points="83.5001,-238.083 87,-248.083 90.5001,-238.083 83.5001,-238.083"/>
</g>
</g>
</svg>
